<svg id="Layer_1" data-name="Layer 1" xmlns="http://www.w3.org/2000/svg" viewBox="0 0 200 154"><defs><style>.cls-1{fill:#2991c9;}.cls-2{fill:#069;}.cls-3{fill:#002a44;}.cls-4{fill:#fff;}</style></defs><rect class="cls-1" width="200" height="154" rx="12"/><circle class="cls-2" cx="33.56" cy="15.79" r="5.53"/><circle class="cls-2" cx="51.13" cy="15.79" r="5.53"/><circle class="cls-2" cx="15.99" cy="15.79" r="5.53"/><path class="cls-3" d="M112,91.83a4,4,0,0,0-3.42-2.2l-11.07,0a6.76,6.76,0,0,1-4.11-2l-3-3.4A6.84,6.84,0,0,1,88.86,80L90,69.1a4.43,4.43,0,0,0-1.8-3.57l-6.36-3a3.44,3.44,0,0,0-3.91.85l-7.77,7.77a6.84,6.84,0,0,1-4.22,1.5l-4.32-.31a6.76,6.76,0,0,1-4.11-1.95l-7-8.59a4.15,4.15,0,0,0-3.86-1.27,24,24,0,0,0-6.53,2.31,4.06,4.06,0,0,0-2.2,3.43l-.58,11a6.71,6.71,0,0,1-2,4.1l-3.17,3A6.79,6.79,0,0,1,28,85.81L17.08,84.67a4.43,4.43,0,0,0-3.57,1.8l-3.1,6.35a3.43,3.43,0,0,0,.85,3.91L19,104.51a6.82,6.82,0,0,1,1.5,4.22l-.31,4.32a6.71,6.71,0,0,1-1.95,4.1l-8.42,7.47a4.12,4.12,0,0,0-1.27,3.86A24,24,0,0,0,10.89,135a4,4,0,0,0,3.42,2.2l11.08,0a6.72,6.72,0,0,1,4.1,2l3,3.16a6.82,6.82,0,0,1,1.5,4.22L32.81,157.5a4.41,4.41,0,0,0,1.8,3.58l6.36,3a3.42,3.42,0,0,0,3.91-.85l7.77-7.77a6.84,6.84,0,0,1,4.22-1.5l4.32.31a6.72,6.72,0,0,1,4.11,2l7,8.58a4.15,4.15,0,0,0,3.86,1.28,24.33,24.33,0,0,0,6.53-2.32,4,4,0,0,0,2.2-3.42l0-11.08a6.72,6.72,0,0,1,2-4.1l3.16-3a6.82,6.82,0,0,1,4.22-1.5l10.93,1.14a4.38,4.38,0,0,0,3.57-1.8l3-6.36a3.42,3.42,0,0,0-.85-3.91l-7.21-7.7a6.84,6.84,0,0,1-1.5-4.22l.31-4.32a6.76,6.76,0,0,1,2-4.11l8.59-7a4.12,4.12,0,0,0,1.27-3.86,21.57,21.57,0,0,0-.92-3.35A23.2,23.2,0,0,0,112,91.83ZM69.67,137.37a25.3,25.3,0,1,1,15.4-32.3A25.39,25.39,0,0,1,69.67,137.37Z" transform="translate(0 -23)"/><circle class="cls-3" cx="61.38" cy="90.32" r="42.8"/><path id="path6" class="cls-4" d="M73,95a14.8,14.8,0,0,1,7.85-4.41c1,0,2-.14,3-.19a9.65,9.65,0,0,1,3.33.87,13.78,13.78,0,0,1,4.23,3.85,17.8,17.8,0,0,1,3.33,7.57,19.08,19.08,0,0,1,.09,2.83,12.05,12.05,0,0,1-1.4-2.51A12.19,12.19,0,0,0,91,100.09,7.72,7.72,0,0,0,85.82,98a7.21,7.21,0,0,0-2.18.27,10.73,10.73,0,0,0-5.2,3.16c-.46.54-1,1.05-1.37,1.6a23.88,23.88,0,0,0-1.23,2.1A16.72,16.72,0,0,0,74,112c.1.95.1,1.86.19,2.82.27.64.13,1.51.82,1.87a2.24,2.24,0,0,0,1.36-.35,18.42,18.42,0,0,0,2.92-2.73c1.1-.92,1.87-2.11,2.92-3.1.59-.46.95-1,1.55-1.51a20.69,20.69,0,0,1,3.5-2.82,5.87,5.87,0,0,1,3.24-.87,5.12,5.12,0,0,1,3.46,2.05,15.78,15.78,0,0,1,2.45,5.47c.23,1,.14,2,.28,3.1a35.42,35.42,0,0,1-1.82,10.21,14.66,14.66,0,0,1-1.6,3.28c-.23.28-.37.64-.7.73a16.54,16.54,0,0,1,.35-2,9.22,9.22,0,0,0,.09-2.23,22.21,22.21,0,0,0,0-3.46c-.28-1.14-.32-2.37-.7-3.5a8.77,8.77,0,0,0-.92-2.37,3.53,3.53,0,0,0-.91-1.28,3.07,3.07,0,0,0-1.64-.7,7,7,0,0,0-1.32.41,12.06,12.06,0,0,0-2.64,2.45,15.32,15.32,0,0,1-2.24,1.92,6,6,0,0,1-4.14,1.18,13.5,13.5,0,0,1-5.66-2,11.94,11.94,0,0,1-2.23-1.78,11.16,11.16,0,0,1-3-6.29,4.93,4.93,0,0,1-.14-2.19A19.15,19.15,0,0,1,69.53,100a22.51,22.51,0,0,1,2.28-3.41A3.41,3.41,0,0,1,73,95Z" transform="translate(0 -23)"/><path id="path3742" class="cls-4" d="M49.76,134.16a14.75,14.75,0,0,1-7.84,4.42c-1,0-2,.14-3,.18a9.37,9.37,0,0,1-3.33-.86A13.68,13.68,0,0,1,31.39,134a18.06,18.06,0,0,1-3.33-7.56,19.12,19.12,0,0,1-.09-2.83,11.43,11.43,0,0,1,1.4,2.51,12.19,12.19,0,0,0,2.42,2.92,7.72,7.72,0,0,0,5.15,2.14,6.91,6.91,0,0,0,2.18-.28,10.63,10.63,0,0,0,5.2-3.15c.46-.55,1-1,1.37-1.6a22.51,22.51,0,0,0,1.23-2.1,16.42,16.42,0,0,0,1.87-6.93c-.09-1-.09-1.87-.18-2.82-.28-.64-.14-1.51-.83-1.87a2.31,2.31,0,0,0-1.36.35,18,18,0,0,0-2.92,2.74c-1.09.91-1.87,2.1-2.92,3.09-.59.46-.95,1.05-1.55,1.51a21.09,21.09,0,0,1-3.5,2.82,5.88,5.88,0,0,1-3.24.87,5.07,5.07,0,0,1-3.46-2,15.78,15.78,0,0,1-2.45-5.47c-.23-1-.14-2-.28-3.1A35.88,35.88,0,0,1,27.92,103a14.66,14.66,0,0,1,1.6-3.28c.23-.28.35-.64.69-.73a17,17,0,0,1-.35,2,8.84,8.84,0,0,0-.1,2.24,22.21,22.21,0,0,0,0,3.46c.27,1.14.32,2.37.68,3.51a9.16,9.16,0,0,0,.91,2.36,3.68,3.68,0,0,0,.92,1.28,3,3,0,0,0,1.64.68,6.3,6.3,0,0,0,1.32-.41,12.06,12.06,0,0,0,2.64-2.45,15.71,15.71,0,0,1,2.23-1.91,6,6,0,0,1,4.15-1.19,13.38,13.38,0,0,1,5.66,2,11.89,11.89,0,0,1,2.23,1.77,11.3,11.3,0,0,1,3.05,6.31,5.09,5.09,0,0,1,.14,2.19,19.15,19.15,0,0,1-2.14,8.34A22.12,22.12,0,0,1,51,132.6,3.91,3.91,0,0,1,49.76,134.16Z" transform="translate(0 -23)"/><path id="path10" class="cls-4" d="M56,97.56a7.55,7.55,0,0,1,6.2.45,5.14,5.14,0,0,1,1.6,1.92,3.39,3.39,0,0,1-.19,3,6.73,6.73,0,0,1-5.6,3.56,6.43,6.43,0,0,1-3.16-.41,4.57,4.57,0,0,1-2.69-2.78,3.47,3.47,0,0,1,.46-2.83A6.28,6.28,0,0,1,56,97.56Z" transform="translate(0 -23)"/><path id="path12" class="cls-4" d="M56.14,109.64a4.69,4.69,0,0,1,4.06-2.24,6.3,6.3,0,0,1,2.41.64,3.69,3.69,0,0,1,2.24,2.51,19.5,19.5,0,0,0,.41,4,15.31,15.31,0,0,0,4.6,6.88c1,1.19,2.37,2,3.37,3.19a30.93,30.93,0,0,1-4.6-.48,15.63,15.63,0,0,1-5.29-1.87,11.74,11.74,0,0,1-2.6-1.78,14.39,14.39,0,0,1-3.23-3.6,11.54,11.54,0,0,1-1.87-5.26A6,6,0,0,1,56.14,109.64Z" transform="translate(0 -23)"/><path class="cls-3" d="M148.9,52.43a1.76,1.76,0,0,0-1.64-.72l-4.77.77a3,3,0,0,1-1.91-.57L139,50.63a3,3,0,0,1-1-1.74L137.66,44a2,2,0,0,0-1.06-1.44l-3-.87a1.45,1.45,0,0,0-1.61.65l-2.74,3.94a2.85,2.85,0,0,1-1.7.95l-1.88.17a2.94,2.94,0,0,1-1.92-.57L120.1,43.6a1.82,1.82,0,0,0-1.76-.29,10.14,10.14,0,0,0-2.63,1.47,1.77,1.77,0,0,0-.68,1.65l.62,4.86a3.05,3.05,0,0,1-.52,1.93L114,54.74a3,3,0,0,1-1.7.95l-4.79.27a1.87,1.87,0,0,0-1.4,1l-.84,3a1.57,1.57,0,0,0,.68,1.65l4,2.86a3,3,0,0,1,1,1.74l.21,1.91a3.05,3.05,0,0,1-.52,1.93l-3,3.86a1.81,1.81,0,0,0-.24,1.77,11,11,0,0,0,1.5,2.7,1.81,1.81,0,0,0,1.65.72l4.76-.77a3,3,0,0,1,1.92.57l1.52,1.18a3.08,3.08,0,0,1,1,1.74l.36,4.86A2,2,0,0,0,121,88.14l3,.88a1.46,1.46,0,0,0,1.62-.64l2.73-3.95a2.91,2.91,0,0,1,1.7-1l1.89-.17a3,3,0,0,1,1.91.57l3.68,3.27a1.83,1.83,0,0,0,1.77.28A10.3,10.3,0,0,0,141.93,86a1.76,1.76,0,0,0,.67-1.65l-.86-4.85a3.05,3.05,0,0,1,.52-1.93L143.39,76a2.85,2.85,0,0,1,1.7-1l4.79-.27a1.9,1.9,0,0,0,1.4-1l.81-3a1.57,1.57,0,0,0-.68-1.65l-3.7-2.86a3.14,3.14,0,0,1-1-1.74l-.2-1.91a2.9,2.9,0,0,1,.52-1.93L150.19,57a1.84,1.84,0,0,0,.25-1.78,11.21,11.21,0,0,0-.66-1.4A10.63,10.63,0,0,0,148.9,52.43ZM134.26,75.32a11.28,11.28,0,1,1,4.09-15.21A11.19,11.19,0,0,1,134.26,75.32Z" transform="translate(0 -23)"/><path class="cls-3" d="M188.49,111.45a2.48,2.48,0,0,0-1.63-1.84l-6.36-1.78a4.09,4.09,0,0,1-2.06-1.81l-1.23-2.49a4.26,4.26,0,0,1-.21-2.73l2.34-6.25a2.79,2.79,0,0,0-.48-2.4l-3.19-2.79a2,2,0,0,0-2.38-.13l-5.67,3.33a3.93,3.93,0,0,1-2.66.21l-2.44-.88a4.09,4.09,0,0,1-2.06-1.81l-2.69-6.17a2.48,2.48,0,0,0-2-1.37,13.86,13.86,0,0,0-4.11.32,2.4,2.4,0,0,0-1.79,1.66l-2,6.38A4.16,4.16,0,0,1,146.05,93l-2.28,1.23a4,4,0,0,1-2.65.21L135,92a2.58,2.58,0,0,0-2.33.49l-2.76,3.24a2.15,2.15,0,0,0-.12,2.44l3.27,5.83a4.16,4.16,0,0,1,.21,2.72l-.84,2.49a4.11,4.11,0,0,1-1.76,2.11l-6,3a2.52,2.52,0,0,0-1.33,2.07,14.94,14.94,0,0,0,.33,4.22,2.43,2.43,0,0,0,1.62,1.84l6.37,1.79a4.09,4.09,0,0,1,2.06,1.81l1.21,2.34a4.23,4.23,0,0,1,.21,2.72l-2.34,6.25a2.76,2.76,0,0,0,.49,2.4l3.19,2.8a2,2,0,0,0,2.38.12l5.67-3.32a3.9,3.9,0,0,1,2.65-.21l2.44.87a4.14,4.14,0,0,1,2.06,1.81l2.7,6.18a2.47,2.47,0,0,0,2,1.37,13.92,13.92,0,0,0,4.12-.32,2.4,2.4,0,0,0,1.79-1.66l1.72-6.52a4.05,4.05,0,0,1,1.76-2.1l2.27-1.23a3.93,3.93,0,0,1,2.66-.21l6.11,2.42a2.6,2.6,0,0,0,2.34-.48l2.72-3.26a2.13,2.13,0,0,0,.11-2.44l-3-5.69a4.33,4.33,0,0,1-.21-2.73l.85-2.49a4.14,4.14,0,0,1,1.75-2.11l6-2.73a2.54,2.54,0,0,0,1.33-2.07,15,15,0,0,0,0-2.12A15.39,15.39,0,0,0,188.49,111.45Zm-31.37,20A15.45,15.45,0,1,1,171,114.93,15.31,15.31,0,0,1,157.12,131.48Z" transform="translate(0 -23)"/></svg>