<?xml version="1.0" encoding="UTF-8" standalone="no"?>
<svg
   width="24"
   height="24"
   viewBox="0 0 24 24"
   fill="none"
   version="1.1"
   id="svg154"
   sodipodi:docname="bigcontrolcenter.svg"
   inkscape:version="1.2.2 (b0a8486541, 2022-12-01)"
   xml:space="preserve"
   inkscape:export-filename="bigcontrolcenter.svg"
   inkscape:export-xdpi="96"
   inkscape:export-ydpi="96"
   xmlns:inkscape="http://www.inkscape.org/namespaces/inkscape"
   xmlns:sodipodi="http://sodipodi.sourceforge.net/DTD/sodipodi-0.dtd"
   xmlns="http://www.w3.org/2000/svg"
   xmlns:svg="http://www.w3.org/2000/svg"><sodipodi:namedview
     id="namedview156"
     pagecolor="#ffffff"
     bordercolor="#000000"
     borderopacity="1"
     inkscape:showpageshadow="0"
     inkscape:pageopacity="1"
     inkscape:pagecheckerboard="false"
     inkscape:deskcolor="#ffffff"
     showgrid="true"
     inkscape:zoom="32"
     inkscape:cx="9.609375"
     inkscape:cy="15.453125"
     inkscape:window-width="1920"
     inkscape:window-height="1052"
     inkscape:window-x="0"
     inkscape:window-y="0"
     inkscape:window-maximized="1"
     inkscape:current-layer="svg154"
     showguides="true"
     guidecolor="#ff0000"
     guideopacity="1"
     inkscape:lockguides="true"
     showborder="true"
     borderlayer="true"><inkscape:grid
       type="xygrid"
       id="grid356"
       color="#000000"
       opacity="0.10196078"
       empcolor="#000000"
       empopacity="0.10196078"
       snapvisiblegridlinesonly="true"
       enabled="true"
       visible="true"
       dotted="false" /><sodipodi:guide
       position="4,12"
       orientation="-1,0"
       id="guide764"
       inkscape:locked="true"
       inkscape:label="left-circle"
       inkscape:color="rgb(255,0,0)" /><sodipodi:guide
       position="5,12"
       orientation="-1,0"
       id="guide2218"
       inkscape:locked="true"
       inkscape:label="left-square"
       inkscape:color="rgb(255,0,0)" /><sodipodi:guide
       position="12,20"
       orientation="0,1"
       id="guide2220"
       inkscape:locked="true"
       inkscape:label="top-circle"
       inkscape:color="rgb(255,0,0)" /><sodipodi:guide
       position="12,5"
       orientation="0,1"
       id="guide2222"
       inkscape:locked="true"
       inkscape:label="bottom-square"
       inkscape:color="rgb(255,0,0)" /><sodipodi:guide
       position="12,4"
       orientation="0,1"
       id="guide2224"
       inkscape:locked="true"
       inkscape:label="bottom-circle"
       inkscape:color="rgb(255,0,0)" /><sodipodi:guide
       position="19,12"
       orientation="-1,0"
       id="guide2226"
       inkscape:locked="true"
       inkscape:label="right-square"
       inkscape:color="rgb(255,0,0)" /><sodipodi:guide
       position="20,12"
       orientation="-1,0"
       id="guide2228"
       inkscape:locked="true"
       inkscape:label="right-circle"
       inkscape:color="rgb(255,0,0)" /><sodipodi:guide
       position="12,19"
       orientation="0,1"
       id="guide2230"
       inkscape:locked="true"
       inkscape:label="top-square"
       inkscape:color="rgb(255,0,0)" /><sodipodi:guide
       position="12,12"
       orientation="1,0"
       id="guide765"
       inkscape:locked="true" /><sodipodi:guide
       position="12,12"
       orientation="0,-1"
       id="guide767"
       inkscape:locked="true" /><sodipodi:guide
       position="12,12"
       orientation="0.70710678,0.70710678"
       id="guide2266"
       inkscape:locked="true"
       inkscape:label=""
       inkscape:color="rgb(255,0,0)" /><sodipodi:guide
       position="12,12"
       orientation="-0.70710678,0.70710678"
       id="guide2994"
       inkscape:locked="true"
       inkscape:label=""
       inkscape:color="rgb(255,0,0)" /><sodipodi:guide
       position="3,12"
       orientation="-1,0"
       id="guide131543"
       inkscape:locked="true"
       inkscape:label="left-horizontal"
       inkscape:color="rgb(255,0,0)" /><sodipodi:guide
       position="12,21"
       orientation="0,1"
       id="guide131545"
       inkscape:locked="true"
       inkscape:label="top-vertical"
       inkscape:color="rgb(255,0,0)" /><sodipodi:guide
       position="21,12"
       orientation="-1,0"
       id="guide131547"
       inkscape:locked="true"
       inkscape:label="right-horizontal"
       inkscape:color="rgb(255,0,0)" /><sodipodi:guide
       position="12,3"
       orientation="0,1"
       id="guide131549"
       inkscape:locked="true"
       inkscape:label="bottom-vertical"
       inkscape:color="rgb(255,0,0)" /><sodipodi:guide
       position="7.4688154,18.873476"
       orientation="1,0"
       id="guide5647"
       inkscape:locked="true" /><sodipodi:guide
       position="14.981825,18.740893"
       orientation="1,0"
       id="guide5649"
       inkscape:locked="true" /><sodipodi:guide
       position="16.484427,19.29332"
       orientation="1,0"
       id="guide6079"
       inkscape:locked="true" /></sodipodi:namedview><defs
     id="defs152"><linearGradient
       id="linearGradient6063"
       inkscape:swatch="solid"><stop
         style="stop-color:#f5f5f5;stop-opacity:1;"
         offset="0"
         id="stop6061" /></linearGradient><style
       id="style212">.cls-2{fill:#cc5e55}.cls-3{fill:#ffc328}.cls-4{fill:#002a44}.cls-5{fill:#3c3}.cls-6{fill:#fff}</style><linearGradient
       x1="54.785809"
       y1="82.085754"
       x2="52.79707"
       y2="0.909091"
       gradientUnits="userSpaceOnUse"
       gradientTransform="matrix(0.183333,0,0,0.183333,-0.166667,-0.166667)"
       spreadMethod="pad"
       id="linearGradient14066"><stop
         style="stop-opacity:1;stop-color:#006699"
         offset="0"
         id="stop14062" /><stop
         style="stop-opacity:1;stop-color:#00a0d7"
         offset="1"
         id="stop14064" /></linearGradient><clipPath
       clipPathUnits="userSpaceOnUse"
       id="clipPath14076"><path
         d="m 10.012,10.227 h 4.746 v 4.746 h -4.746 z"
         id="path14074" /></clipPath><clipPath
       clipPathUnits="userSpaceOnUse"
       id="clipPath14086"><path
         d="M 0,0 H 19 V 19 H 0 Z"
         id="path14084" /></clipPath><clipPath
       clipPathUnits="userSpaceOnUse"
       id="clipPath14098"><path
         d="m 10.762,5.965 h 3.074 v 3.078 h -3.074 z"
         id="path14096" /></clipPath><clipPath
       clipPathUnits="userSpaceOnUse"
       id="clipPath14108"><path
         d="M 0,0 H 19 V 19 H 0 Z"
         id="path14106" /></clipPath><clipPath
       clipPathUnits="userSpaceOnUse"
       id="clipPath14130"><path
         d="M 0,0 H 19 V 19 H 0 Z"
         id="path14128" /></clipPath><clipPath
       clipPathUnits="userSpaceOnUse"
       id="clipPath574"><g
         id="g578"><path
           d="M 4.1669167,4.7080001 H 15.538049 V 16.073083 H 4.1669167 Z"
           id="path576"
           style="stroke-width:1.51212" /></g></clipPath><clipPath
       clipPathUnits="userSpaceOnUse"
       id="clipPath580"><g
         id="g584"><path
           d="M 4.1669167,4.7080001 H 15.538049 V 16.073083 H 4.1669167 Z"
           id="path582"
           style="stroke-width:1.51212" /></g></clipPath><clipPath
       clipPathUnits="userSpaceOnUse"
       id="clipPath586"><g
         id="g590"
         transform="matrix(0.66132379,0,0,0.66132379,0.25231887,1.9174876)"><path
           d="M 4.1669167,4.7080001 H 15.538049 V 16.073083 H 4.1669167 Z"
           id="path588"
           style="stroke-width:1.51212" /></g></clipPath></defs><g
     id="g14050"
     transform="scale(1.3333333)"><g
       id="g14052"><g
         id="g14054"><g
           id="g14060"><path
             d="M 9,0.75 C 1.5,0.75 0.75,4.5 0.75,9 0.75,15 3,17.25 9,17.25 15,17.25 17.25,15 17.25,9 17.25,4.5 16.5,0.75 9,0.75 Z"
             style="fill:url(#linearGradient14066);stroke:none"
             id="path14068" /></g></g></g></g><g
     id="g14070"
     transform="matrix(1.3333333,0,0,1.3333333,1.40625,-3.03125)"><g
       id="g14072"
       clip-path="url(#clipPath14076)"><g
         id="g14078"><g
           id="g14080"><g
             id="g14082"
             clip-path="url(#clipPath14086)"><g
               id="g14088"><path
                 d="m 14.586,12.973 c 0.094,0 0.172,-0.078 0.172,-0.172 v -0.41 c 0,-0.09 -0.078,-0.168 -0.172,-0.168 H 14.41 c -0.094,0 -0.191,-0.075 -0.219,-0.161 l -0.148,-0.367 c -0.047,-0.082 -0.027,-0.203 0.039,-0.265 l 0.125,-0.125 c 0.066,-0.067 0.066,-0.176 0,-0.243 l -0.289,-0.289 c -0.066,-0.066 -0.176,-0.066 -0.242,0 l -0.125,0.125 c -0.063,0.067 -0.184,0.082 -0.266,0.04 l -0.367,-0.149 c -0.09,-0.027 -0.16,-0.125 -0.16,-0.219 v -0.175 c 0,-0.094 -0.078,-0.172 -0.168,-0.172 h -0.41 c -0.094,0 -0.172,0.078 -0.172,0.172 v 0.175 c 0,0.094 -0.07,0.192 -0.16,0.219 l -0.364,0.149 c -0.082,0.042 -0.203,0.027 -0.269,-0.04 L 11.09,10.773 c -0.067,-0.066 -0.176,-0.066 -0.238,0 l -0.293,0.289 c -0.063,0.067 -0.063,0.176 0,0.243 l 0.125,0.125 c 0.066,0.062 0.086,0.183 0.039,0.265 l -0.149,0.367 c -0.027,0.086 -0.125,0.161 -0.219,0.161 H 10.18 c -0.094,0 -0.168,0.078 -0.168,0.168 v 0.41 c 0,0.094 0.074,0.172 0.168,0.172 h 0.175 c 0.094,0 0.192,0.07 0.219,0.16 l 0.149,0.363 c 0.047,0.082 0.027,0.203 -0.039,0.27 l -0.125,0.125 c -0.063,0.066 -0.063,0.175 0,0.238 l 0.293,0.293 c 0.062,0.062 0.171,0.062 0.238,0 l 0.125,-0.125 c 0.066,-0.067 0.187,-0.086 0.269,-0.039 l 0.364,0.148 c 0.09,0.028 0.16,0.125 0.16,0.219 v 0.176 c 0,0.094 0.078,0.168 0.172,0.168 h 0.41 c 0.09,0 0.168,-0.074 0.168,-0.168 v -0.176 c 0,-0.094 0.074,-0.191 0.16,-0.219 l 0.367,-0.148 c 0.082,-0.047 0.203,-0.028 0.266,0.039 l 0.125,0.125 c 0.066,0.062 0.176,0.062 0.242,0 l 0.289,-0.293 c 0.066,-0.063 0.066,-0.172 0,-0.238 L 14.082,13.766 C 14.016,13.699 14,13.578 14.043,13.496 l 0.148,-0.363 c 0.028,-0.09 0.125,-0.16 0.219,-0.16 z m -2.203,0.601 c -0.539,0 -0.977,-0.437 -0.977,-0.976 0,-0.539 0.438,-0.977 0.977,-0.977 0.539,0 0.976,0.438 0.976,0.977 0,0.539 -0.437,0.976 -0.976,0.976 z"
                 style="fill:#002a44;fill-opacity:1;fill-rule:nonzero;stroke:none"
                 id="path14090" /></g></g></g></g></g></g><g
     id="g14092"
     transform="matrix(1.3333333,0,0,1.3333333,0.71875,-2.3125)"><g
       id="g14094"
       clip-path="url(#clipPath14098)"><g
         id="g14100"><g
           id="g14102"><g
             id="g14104"
             clip-path="url(#clipPath14108)"><g
               id="g14110"><path
                 d="m 13.727,7.746 c 0.058,0 0.109,-0.051 0.109,-0.113 V 7.371 c 0,-0.062 -0.051,-0.113 -0.109,-0.113 h -0.114 c -0.062,0 -0.125,-0.047 -0.144,-0.102 L 13.371,6.918 C 13.344,6.867 13.355,6.785 13.398,6.746 L 13.48,6.664 c 0.043,-0.043 0.043,-0.113 0,-0.156 L 13.293,6.32 C 13.25,6.277 13.18,6.277 13.137,6.32 L 13.055,6.402 C 13.012,6.445 12.934,6.457 12.883,6.426 L 12.645,6.328 C 12.586,6.312 12.539,6.25 12.539,6.188 V 6.074 c 0,-0.058 -0.047,-0.109 -0.109,-0.109 h -0.266 c -0.059,0 -0.109,0.051 -0.109,0.109 v 0.114 c 0,0.062 -0.047,0.124 -0.106,0.14 L 11.715,6.426 C 11.66,6.457 11.582,6.445 11.539,6.402 L 11.461,6.32 c -0.043,-0.043 -0.113,-0.043 -0.156,0 l -0.188,0.188 c -0.043,0.043 -0.043,0.113 0,0.156 l 0.082,0.082 c 0.043,0.039 0.051,0.121 0.024,0.172 l -0.098,0.238 c -0.016,0.055 -0.082,0.102 -0.141,0.102 h -0.113 c -0.062,0 -0.109,0.051 -0.109,0.113 v 0.262 c 0,0.062 0.047,0.113 0.109,0.113 h 0.113 c 0.059,0 0.125,0.047 0.141,0.102 l 0.098,0.238 c 0.027,0.051 0.019,0.133 -0.024,0.172 L 11.117,8.34 c -0.043,0.043 -0.043,0.113 0,0.156 l 0.188,0.188 c 0.043,0.043 0.113,0.043 0.156,0 L 11.539,8.602 C 11.582,8.559 11.66,8.547 11.715,8.578 l 0.234,0.094 c 0.059,0.019 0.106,0.082 0.106,0.144 V 8.93 c 0,0.058 0.05,0.109 0.109,0.109 h 0.266 c 0.062,0 0.109,-0.051 0.109,-0.109 V 8.816 c 0,-0.062 0.047,-0.125 0.106,-0.144 l 0.238,-0.094 c 0.051,-0.031 0.129,-0.019 0.172,0.024 l 0.082,0.082 c 0.043,0.043 0.113,0.043 0.156,0 L 13.48,8.496 c 0.043,-0.043 0.043,-0.113 0,-0.156 L 13.398,8.258 C 13.355,8.219 13.344,8.137 13.371,8.086 l 0.098,-0.238 c 0.019,-0.055 0.082,-0.102 0.144,-0.102 z m -1.43,0.387 c -0.348,0 -0.633,-0.281 -0.633,-0.633 0,-0.348 0.285,-0.629 0.633,-0.629 0.351,0 0.633,0.281 0.633,0.629 0,0.352 -0.282,0.633 -0.633,0.633 z"
                 style="fill:#002a44;fill-opacity:1;fill-rule:nonzero;stroke:none"
                 id="path14112" /></g></g></g></g></g></g><g
     id="g1175"
     transform="translate(-0.53125,-2.8125)"><path
       d="m 13.056662,10.490342 c 0,1.536312 -1.359395,2.788346 -3.036334,2.788346 -1.6769397,0 -3.0363344,-1.252034 -3.0363344,-2.788346 0,-1.5408493 1.3593947,-2.7928835 3.0363344,-2.7928835 1.676939,0 3.036334,1.2520342 3.036334,2.7928835 z"
       style="fill:#002a44;fill-opacity:1;fill-rule:nonzero;stroke:none;stroke-width:1.51212"
       id="path14136"
       clip-path="url(#clipPath580)"
       transform="translate(-0.71875,5.15625)" /><g
       id="g934"
       transform="rotate(-9.4182009,41.465215,16.050447)"><g
         id="g14122"
         transform="matrix(1.5121186,0,0,1.5121186,-0.38153606,-2.8994686)"
         clip-path="url(#clipPath586)"><g
           id="g14124"><g
             id="g14126"
             clip-path="url(#clipPath14130)"><g
               id="g14132"><path
                 d="m 10.254,9.379 c 0.148,0 0.269,-0.117 0.269,-0.266 V 8.465 c 0,-0.149 -0.121,-0.27 -0.269,-0.27 H 9.977 C 9.828,8.195 9.672,8.082 9.629,7.938 L 9.391,7.363 C 9.32,7.23 9.348,7.039 9.453,6.938 l 0.199,-0.2 c 0.102,-0.105 0.102,-0.273 0,-0.379 L 9.191,5.902 C 9.086,5.797 8.918,5.797 8.812,5.902 L 8.617,6.098 C 8.512,6.203 8.32,6.23 8.188,6.16 L 7.613,5.922 C 7.473,5.879 7.355,5.723 7.355,5.574 V 5.297 C 7.355,5.148 7.234,5.031 7.086,5.031 H 6.438 c -0.145,0 -0.266,0.117 -0.266,0.266 v 0.277 c 0,0.149 -0.117,0.305 -0.258,0.348 L 5.336,6.16 C 5.207,6.23 5.016,6.203 4.91,6.098 L 4.715,5.902 C 4.609,5.797 4.438,5.797 4.336,5.902 L 3.875,6.359 c -0.102,0.106 -0.102,0.274 0,0.379 l 0.199,0.2 C 4.18,7.039 4.207,7.23 4.137,7.363 L 3.898,7.938 C 3.855,8.082 3.699,8.195 3.551,8.195 H 3.273 c -0.148,0 -0.269,0.121 -0.269,0.27 v 0.648 c 0,0.149 0.121,0.266 0.269,0.266 h 0.278 c 0.148,0 0.304,0.117 0.347,0.258 l 0.239,0.578 c 0.07,0.129 0.043,0.32 -0.063,0.426 l -0.199,0.195 c -0.102,0.105 -0.102,0.277 0,0.379 l 0.461,0.461 c 0.102,0.105 0.273,0.105 0.379,0 L 4.91,11.477 c 0.106,-0.102 0.297,-0.129 0.426,-0.063 l 0.578,0.238 c 0.141,0.043 0.258,0.2 0.258,0.348 v 0.277 c 0,0.149 0.121,0.27 0.266,0.27 H 7.09 c 0.144,0 0.265,-0.121 0.265,-0.27 V 12 c 0,-0.148 0.118,-0.305 0.258,-0.348 l 0.578,-0.238 c 0.129,-0.066 0.321,-0.039 0.426,0.063 l 0.195,0.199 c 0.106,0.105 0.274,0.105 0.379,0 l 0.461,-0.461 c 0.102,-0.102 0.102,-0.274 0,-0.379 L 9.453,10.641 C 9.348,10.535 9.32,10.344 9.391,10.215 L 9.629,9.637 C 9.672,9.496 9.828,9.379 9.977,9.379 Z m -3.492,0.957 c -0.852,0 -1.543,-0.695 -1.543,-1.547 0,-0.855 0.691,-1.547 1.543,-1.547 0.855,0 1.547,0.692 1.547,1.547 0,0.852 -0.692,1.547 -1.547,1.547 z"
                 style="fill:#002a44;fill-opacity:1;fill-rule:nonzero;stroke:none"
                 id="path14134" /></g></g></g></g><path
         d="m 12.081345,8.1223639 c -0.06502,0 -0.142139,0.00605 -0.217745,0.018145 C 10.605518,8.3522055 10.658442,9.8114 10.658442,9.8114 c 0,0 0,0.650211 0.607872,0.975317 0.502023,0.288815 0.786301,-0.02419 0.839225,-0.07107 0.04688,-0.05292 1.069068,-1.3291524 0.902735,1.097798 0,0 0.361396,-0.388614 0.384078,-1.323103 0.02419,-0.932978 -0.577629,-0.9859021 -0.577629,-0.9859021 0,0 -0.266133,-0.07107 -0.786302,0.5020241 -0.526217,0.567044 -0.567044,0.538314 -0.567044,0.538314 0,0 -0.148188,0.105848 -0.164821,-0.154236 -0.01815,-0.266133 -0.07107,-1.06302 0.731865,-1.4939738 0.796887,-0.4309538 1.187013,0.6260171 1.187013,0.6260171 0,0 -0.0877,-1.3941734 -1.134089,-1.4002214 z M 9.8373614,8.7256992 c -0.052924,0 -0.1118967,0.00454 -0.166333,0.016633 C 9.3640683,8.8073536 9.1584202,9.0492926 9.2052959,9.2806467 9.25822,9.5104888 9.5470347,9.6405309 9.8555069,9.5755099 10.162467,9.5104888 10.368115,9.2745982 10.321239,9.0432441 10.280412,8.8542293 10.0793,8.7302356 9.8373614,8.7256992 Z M 7.1790569,8.9086655 c 0,0 -0.3598842,0.3886145 -0.3840781,1.3170555 -0.024194,0.932977 0.5791414,0.99195 0.5791414,0.99195 0,0 0.2600844,0.06502 0.7847896,-0.502024 0.5262173,-0.567044 0.5625081,-0.54285 0.5625081,-0.54285 0,0 0.1466755,-0.107361 0.1648209,0.158772 0.018146,0.266133 0.077118,1.06302 -0.727329,1.493973 -0.802935,0.430954 -1.1930616,-0.626017 -1.1930616,-0.626017 0,0 0.101312,1.583188 1.3593946,1.376028 1.2580827,-0.205648 1.1991101,-1.670891 1.1991101,-1.670891 0,0 0.00605,-0.644162 -0.6033353,-0.9692679 -0.5020234,-0.2888147 -0.7908381,0.024194 -0.8377137,0.07107 -0.048388,0.04687 -1.0690679,1.329152 -0.904247,-1.0977985 z m 2.80498,0.7726927 c -0.2948631,0 -0.5126082,0.2903267 -0.4188568,0.5730928 0,0 0.2540359,1.004047 1.6134309,1.034289 0,0 -0.786302,-0.560996 -0.768157,-1.205158 C 10.392309,9.8597881 10.209343,9.6874066 9.9840369,9.6813582 Z"
         style="fill:#ffffff;fill-opacity:1;fill-rule:nonzero;stroke:none;stroke-width:1.51212"
         id="path14138"
         clip-path="url(#clipPath574)"
         transform="matrix(1.1278643,0,0,1.1467504,-1.4312446,-1.3794598)" /></g></g></svg>
