<?xml version="1.0" encoding="UTF-8" standalone="no"?>
<!-- Created with Inkscape (http://www.inkscape.org/) -->

<svg
   width="46"
   height="29"
   viewBox="0 0 12.170833 7.6729166"
   version="1.1"
   id="svg1"
   xml:space="preserve"
   inkscape:version="1.3 (0e150ed6c4, 2023-07-21)"
   sodipodi:docname="escheresque.svg"
   xmlns:inkscape="http://www.inkscape.org/namespaces/inkscape"
   xmlns:sodipodi="http://sodipodi.sourceforge.net/DTD/sodipodi-0.dtd"
   xmlns="http://www.w3.org/2000/svg"
   xmlns:svg="http://www.w3.org/2000/svg"><sodipodi:namedview
     id="namedview1"
     pagecolor="#ffffff"
     bordercolor="#000000"
     borderopacity="0.25"
     inkscape:showpageshadow="2"
     inkscape:pageopacity="0.0"
     inkscape:pagecheckerboard="0"
     inkscape:deskcolor="#d1d1d1"
     inkscape:document-units="mm"
     inkscape:zoom="5.6568543"
     inkscape:cx="-35.532116"
     inkscape:cy="36.150834"
     inkscape:window-width="3440"
     inkscape:window-height="1358"
     inkscape:window-x="2560"
     inkscape:window-y="0"
     inkscape:window-maximized="1"
     inkscape:current-layer="layer1" /><defs
     id="defs1" /><g
     inkscape:label="Camada 1"
     inkscape:groupmode="layer"
     id="layer1"><rect
       style="opacity:0.173217;fill:#4d4d4d;stroke:none;stroke-width:0.2;stroke-linecap:round;stroke-linejoin:round;stroke-dasharray:none;stroke-opacity:1;paint-order:markers fill stroke"
       id="rect19"
       width="12.171"
       height="7.6729999"
       x="21.166584"
       y="-4.1596093e-05" /><path
       id="rect1"
       style="opacity:0.35;fill:#808080;stroke:none;stroke-width:0.2;stroke-linecap:round;stroke-linejoin:round;stroke-dasharray:none;stroke-opacity:1;paint-order:markers fill stroke"
       d="m 27.292392,-2.8830282 v 1.188558 l -0.316777,-0.2041219 -0.104903,0.162264 0.338481,0.2185913 -2.064474,1.33118488 -1.823144,-1.05109868 -0.09612,0.1674317 1.736844,1.00148925 -1.843298,1.18855795 h -0.0031 l 0.0026,2.6670207 -4.569747,2.9471069 0.104386,0.162264 4.570781,-2.9476237 1.789038,1.0407633 -4.500501,2.9021485 0.104387,0.162264 4.489649,-2.8954305 0.0026,2.5879557 h 0.192753 l -0.0026,-2.7124959 10e-4,-5.168e-4 -10e-4,-0.00155 v -0.093018 l 0.0026,-0.00465 -0.104387,-0.060978 -0.0015,-0.00207 -0.001,5.168e-4 -1.883606,-1.0955404 -0.0026,-2.3936523 3.983736,2.2970174 v 4.0726196 h 0.19327 V 3.6772949 l 3.980119,-2.2944336 -0.0026,2.3931356 -1.883089,1.0955404 -0.001,-5.168e-4 -0.0015,0.00207 -0.104387,0.060978 0.0021,0.00362 v 0.094051 l -0.001,0.00155 0.001,5.168e-4 -0.0026,2.7124959 h 0.192753 l 0.0031,-2.5879557 4.489132,2.8954305 0.104387,-0.162264 -4.499984,-2.9021485 1.789038,-1.0407633 4.570264,2.9476237 0.104386,-0.162264 -4.569747,-2.9476237 0.0031,-2.6665039 h -0.0036 l -1.842781,-1.18855795 1.736328,-1.00148925 -0.09612,-0.1674317 -1.822628,1.05109868 -2.064474,-1.33170168 0.337964,-0.2180745 -0.104386,-0.162264 -0.313676,0.2020548 v -1.1864909 z m 0,1.5409913 v 2.3936523 l -1.959571,-1.12964681 z m 0.19327,0.00207 1.95647,1.26193849 -1.95647,1.12809651 z m -2.335258,1.37924399 2.233972,1.28829341 0.0015,0.00258 0.0016,-0.00103 0.0015,0.00103 0.0015,-0.00258 0.09302,-0.053743 h 0.0021 v -0.00103 l 2.138953,-1.23352341 1.785938,1.15238441 -4.02301,2.3197551 -4.023528,-2.3197551 z" /><path
       id="rect35"
       style="opacity:0.4;fill:#1a1a1a;stroke:none;stroke-width:0.2;stroke-linecap:round;stroke-linejoin:round;stroke-dasharray:none;stroke-opacity:1;paint-order:markers fill stroke"
       d="M 1.3666667e-6,0 V 5.0456868 L 1.9518201,3.786849 1.9492201,1.1198283 h 0.0031 L 3.6891821,0 Z M 4.301547,0 6.1257247,1.0516154 V 0 Z M 6.3189948,0 V 1.0500651 L 8.1400728,0 Z m 2.433443,0 1.7363282,1.1198283 h 0.0036 l -0.0031,2.6665039 1.68155,1.0846883 V 0 Z M 3.9837371,0.03927409 2.1972831,1.1916585 6.2208097,3.5114136 10.24382,1.1916585 8.4578828,0.03927409 6.3189948,1.2727905 v 0.00103 h -0.0021 l -0.09302,0.053743 -0.0016,0.00258 -0.0016,-0.00103 -0.0015,0.00103 -0.0016,-0.00258 z m -1.841748,1.34307051 0.0026,2.3936523 1.883606,1.0955404 0.001,-5.168e-4 0.0016,0.00207 0.104386,0.060978 -0.0026,0.00465 v 0.093018 l 10e-4,0.00155 -10e-4,5.168e-4 0.0026,2.6391154 H 6.1257567 V 3.679362 Z m 8.1571249,5.167e-4 -3.9801192,2.2944336 v 3.9956218 h 1.986959 l 0.0026,-2.6391154 -10e-4,-5.168e-4 10e-4,-0.00155 v -0.094051 l -0.0021,-0.00362 0.104386,-0.060978 0.0016,-0.00207 0.001,5.168e-4 1.8830892,-1.0955404 z M 2.0572401,3.9485962 1.3666667e-6,5.2751302 V 7.4698283 L 3.8462781,4.9893595 Z m 8.3271399,0 -1.7890382,1.0407633 3.5754912,2.3058024 V 5.1009806 Z M 3.9398121,5.1583415 0.04082537,7.6729167 H 3.9423961 Z m 4.5619957,0 -0.0031,2.5145752 H 12.170833 V 7.5246053 Z" /></g></svg>
