<?xml version="1.0" encoding="UTF-8" standalone="no"?>
<!-- Created with Inkscape (http://www.inkscape.org/) -->

<svg
   width="230mm"
   height="82mm"
   viewBox="0 0 230 82"
   version="1.1"
   id="svg5"
   xml:space="preserve"
   inkscape:version="1.2.1 (9c6d41e410, 2022-07-14)"
   sodipodi:docname="big-waydroid.svg"
   xmlns:inkscape="http://www.inkscape.org/namespaces/inkscape"
   xmlns:sodipodi="http://sodipodi.sourceforge.net/DTD/sodipodi-0.dtd"
   xmlns:xlink="http://www.w3.org/1999/xlink"
   xmlns="http://www.w3.org/2000/svg"
   xmlns:svg="http://www.w3.org/2000/svg"><sodipodi:namedview
     id="namedview7"
     pagecolor="#ffffff"
     bordercolor="#000000"
     borderopacity="0.25"
     inkscape:showpageshadow="2"
     inkscape:pageopacity="0.0"
     inkscape:pagecheckerboard="0"
     inkscape:deskcolor="#d1d1d1"
     inkscape:document-units="mm"
     showgrid="false"
     inkscape:zoom="0.66012205"
     inkscape:cx="641.54803"
     inkscape:cy="318.88042"
     inkscape:window-width="2560"
     inkscape:window-height="1010"
     inkscape:window-x="1680"
     inkscape:window-y="0"
     inkscape:window-maximized="1"
     inkscape:current-layer="layer1" /><defs
     id="defs2"><style
       id="style2726">.cls-1{fill:#16171c;stroke:#000;stroke-miterlimit:10;}.cls-2{fill:#2c2d3d;}.cls-3{fill:url(#linear-gradient);}.cls-4{fill:url(#linear-gradient-2);}.cls-5{fill:url(#linear-gradient-3);}</style><linearGradient
       id="linear-gradient"
       x1="70.739998"
       y1="207.69"
       x2="304.39001"
       y2="456.44"
       gradientTransform="matrix(1,0,0,-1,16.81,529.63)"
       gradientUnits="userSpaceOnUse"><stop
         offset="0"
         stop-color="#2d85c6"
         id="stop2728" /><stop
         offset="1"
         stop-color="#04bacc"
         id="stop2730" /></linearGradient><linearGradient
       id="linear-gradient-2"
       x1="146.39"
       y1="136.63"
       x2="380.04001"
       y2="385.38"
       xlink:href="#linear-gradient"
       gradientTransform="matrix(0.13850051,0,0,0.13850051,-56.878403,30.966792)" /><linearGradient
       id="linear-gradient-3"
       x1="127.32"
       y1="154.53999"
       x2="360.97"
       y2="403.29001"
       xlink:href="#linear-gradient"
       gradientTransform="matrix(0.13850051,0,0,0.13850051,-56.878403,30.966792)" /><linearGradient
       inkscape:collect="always"
       xlink:href="#linear-gradient"
       id="linearGradient2770"
       gradientUnits="userSpaceOnUse"
       gradientTransform="matrix(0.13850051,0,0,-0.13850051,-54.550209,104.32082)"
       x1="70.739998"
       y1="207.69"
       x2="304.39001"
       y2="456.44" /></defs><g
     inkscape:label="Camada 1"
     inkscape:groupmode="layer"
     id="layer1"><g
       id="g2909"
       transform="translate(-23.813663,-64)"><g
         id="g2810"
         transform="matrix(0.88031579,0,0,0.88031579,38.261055,-6.2971634)"><path
           id="path1060-3"
           style="fill:#96c71e;fill-opacity:1;stroke:none;stroke-width:3.81"
           d="m 189.85921,81.833248 c -0.27719,0.0026 -0.55763,0.07269 -0.81804,0.217041 -0.83331,0.461911 -1.13266,1.50454 -0.67076,2.337842 l 3.79926,6.854362 A 24.077084,22.225 0 0 0 180.69646,110.08062 H 228.8465 A 24.077084,22.225 0 0 0 217.44202,91.2797 l 3.81993,-6.891569 c 0.46191,-0.833306 0.16306,-1.875935 -0.67025,-2.337842 -0.26041,-0.144347 -0.54136,-0.214395 -0.81855,-0.217041 -0.60983,-0.0058 -1.20173,0.314387 -1.51929,0.887284 l -3.90829,7.050216 a 24.077084,22.225 0 0 0 -9.57512,-1.836581 v 5.17e-4 a 24.077084,22.225 0 0 0 -9.49813,1.809709 l -3.8933,-7.023861 c -0.31757,-0.572901 -0.90998,-0.893105 -1.51981,-0.887284 z m -16.52819,28.336772 c -3.51789,0 -6.35,2.83211 -6.35,6.35 v 22.48958 c 0,3.5179 2.83211,6.35 6.35,6.35 3.51789,0 6.35,-2.8321 6.35,-6.35 v -22.48958 c 0,-3.51789 -2.83211,-6.35 -6.35,-6.35 z m 62.97084,0 c -3.5179,0 -6.35001,2.8321 -6.35,6.35 v 22.48958 c -1e-5,3.51789 2.8321,6.35001 6.35,6.35 3.51789,0 6.34999,-2.83211 6.35,-6.35 v -22.48958 c 0,-3.51789 -2.8321,-6.35 -6.35,-6.35 z m -55.6085,1.94717 v 34.81958 c 0,3.22471 2.5961,5.82031 5.82084,5.82031 h 2.95641 v 11.91711 c 0,3.51789 2.8321,6.35 6.35,6.35 3.51789,0 6.35,-2.83211 6.35,-6.35 v -11.91711 h 5.29166 v 11.91711 c 0,3.51789 2.8321,6.35 6.35,6.35 3.51789,0 6.35,-2.83211 6.35,-6.35 v -11.91711 h 2.86443 c 3.22471,0 5.82083,-2.5956 5.82083,-5.82031 v -34.81958 z" /><circle
           cx="193.70381"
           r="1.0583333"
           id="circle267"
           cy="99.321915"
           style="fill:#ffffff;stroke:#ffffff;stroke-width:1.905" /><circle
           cx="215.9288"
           r="1.0583333"
           id="circle269"
           cy="99.321915"
           style="fill:#ffffff;stroke:#ffffff;stroke-width:1.905" /></g><g
         id="g2805"
         transform="matrix(0.98145805,0,0,0.98145805,81.257614,39.808687)"><path
           class="cls-3"
           d="m -24.912485,58.695979 c 0.943188,0.05401 1.828206,-0.319936 2.66752,-0.716047 1.091384,-0.578933 2.120442,-1.444561 2.620429,-2.602425 a 3.2409119,3.2409119 0 0 0 0.180051,-2.7617 c -0.256226,-0.763138 -0.933494,-1.25897 -1.502731,-1.785272 -1.088614,-0.666187 -2.414064,-1.067839 -3.693808,-0.853163 -0.757598,-0.04294 -1.469491,0.175896 -2.146758,0.444587 a 6.4416587,6.4416587 0 0 0 -3.185512,2.642589 c -0.373951,0.811613 -0.781143,1.757572 -0.405806,2.64259 0.318551,1.23404 1.35038,2.150913 2.504089,2.621815 0.934878,0.337941 1.961167,0.548462 2.962526,0.367026 z"
           id="path2745"
           style="fill:url(#linearGradient2770);stroke-width:0.138501" /><path
           class="cls-4"
           d="m -13.731339,72.823031 c -1.873912,-1.808816 -3.639794,-3.907099 -4.308751,-6.465204 -0.317166,-1.220189 -0.277001,-2.499934 -0.375336,-3.757518 -0.339327,-1.017979 -1.029059,-2.006873 -2.106593,-2.362819 -0.692503,-0.394727 -1.505501,-0.455667 -2.276949,-0.581702 -1.506885,0.04017 -3.073326,0.742362 -3.819844,2.112132 -0.299161,0.573393 -0.386416,1.238195 -0.463976,1.873912 0.09557,1.752032 0.854548,3.408498 1.754801,4.900149 0.831003,1.260354 1.822667,2.438993 3.038701,3.366947 0.692503,0.718817 1.607991,1.144014 2.444534,1.668931 a 14.404053,14.404053 0 0 0 4.950009,1.760341 28.364904,28.364904 0 0 0 4.31429,0.480597 c -0.929338,-1.137089 -2.216008,-1.891917 -3.150886,-2.995766 z"
           id="path2747"
           style="fill:url(#linear-gradient-2);stroke-width:0.138501" /><path
           class="cls-5"
           d="m -21.422272,31.295038 c -19.401152,0 -35.127885,15.728118 -35.127885,35.127885 0,19.399766 15.726733,35.127887 35.127885,35.127887 19.4011509,0 35.127884,-15.726736 35.127884,-35.127887 0,-19.401152 -15.7281181,-35.127885 -35.127884,-35.127885 z M -49.3786,79.969657 c -0.943189,-0.732667 -1.598296,-1.767266 -2.271409,-2.74508 a 5.5247853,5.5247853 0 0 1 -0.447356,-0.831003 31.972843,31.972843 0 0 1 -1.279745,-5.383514 10.926305,10.926305 0 0 0 1.29498,2.216008 4.7547225,4.7547225 0 0 0 3.251992,1.912692 c 1.071994,0.06094 2.107977,-0.339327 3.030391,-0.831003 1.171714,-0.775603 2.303263,-1.617686 3.279692,-2.63151 0.524917,-0.415502 0.896098,-0.983354 1.432095,-1.41409 0.951499,-0.908563 1.696631,-2.035958 2.71461,-2.887736 0.817153,-0.943188 1.700786,-1.840672 2.713225,-2.548409 0.390572,-0.206366 0.831003,-0.404422 1.26174,-0.324091 0.662032,0.328246 0.533227,1.155094 0.785298,1.735411 0.08864,0.876708 0.10803,1.752031 0.18559,2.63151 -0.14681,2.246478 -0.646797,4.508191 -1.746491,6.474898 -0.306086,0.703583 -0.800533,1.296365 -1.170329,1.963938 -0.391957,0.519377 -0.883634,0.969503 -1.29221,1.49165 -1.36146,1.329605 -2.988841,2.508244 -4.886298,2.926516 -0.645413,0.277001 -1.360075,0.156505 -2.034573,0.256226 A 7.063526,7.063526 0 0 1 -49.3786,79.969657 Z M 7.7583999,78.975224 a 9.5648452,9.5648452 0 0 1 -0.207751,1.067839 C -0.03779412,96.107737 -19.206264,102.98706 -35.272323,95.393074 a 32.147353,32.147353 0 0 1 -9.418035,-6.76298 9.6036254,9.6036254 0 0 0 1.995792,0.390572 l 2.788015,-0.170356 c 2.812946,-0.527687 5.366895,-2.087203 7.326677,-4.141165 0.490292,-0.365641 0.831004,-0.861473 1.1731,-1.35592 0.876708,-0.939034 1.473645,-2.099668 2.139833,-3.202132 1.145399,-2.441764 2.030417,-5.094049 2.002717,-7.804504 0.168971,-0.678652 0.0083,-1.385005 -0.1385,-2.058117 -0.277001,-2.216008 -1.354535,-4.285206 -2.871116,-5.912587 -0.581702,-0.681422 -1.36423,-1.130164 -2.087203,-1.645386 -1.624611,-0.916873 -3.384952,-1.800507 -5.281024,-1.887762 -1.385005,-0.249301 -2.73677,0.386416 -3.878014,1.108004 -0.797763,0.473672 -1.385006,1.207725 -2.077508,1.800507 -0.738208,0.858703 -1.508271,1.710481 -2.477774,2.324038 a 10.664539,10.664539 0 0 1 -1.246505,0.378107 c -0.554002,-0.103876 -1.131549,-0.249301 -1.551206,-0.646798 -0.404421,-0.299161 -0.583087,-0.776987 -0.850393,-1.185564 -0.415501,-0.664802 -0.638487,-1.4501 -0.831003,-2.207698 -0.361486,-1.058144 -0.382261,-2.200773 -0.649567,-3.286617 -0.01247,-1.087229 -0.224371,-2.184153 -0.05125,-3.260302 -0.07618,-0.709123 0.03324,-1.40578 0.09972,-2.110748 a 1.099694,1.099694 0 0 1 0.02216,-0.138501 c 4.919538,-11.455377 16.31536,-19.493946 29.587864,-19.493946 A 32.086413,32.086413 0 0 1 1.9676889,44.350096 9.4069546,9.4069546 0 0 0 -0.69290612,43.725459 L -3.4795361,43.89443 c -2.811561,0.527687 -5.36551,2.087202 -7.3280619,4.14255 -0.490292,0.364256 -0.831003,0.861473 -1.1731,1.35592 -0.875323,0.939033 -1.473645,2.101053 -2.137063,3.202132 -1.148169,2.441764 -2.033187,5.094049 -2.004102,7.805888 -0.168971,0.678653 0,1.385006 0.138501,2.056733 0.277001,2.216008 1.354535,4.293516 2.8725,5.915357 0.580317,0.680037 1.362845,1.127394 2.085818,1.645386 1.6246109,0.914103 3.3849519,1.800506 5.2824089,1.887762 1.385005,0.247916 2.735385,-0.387802 3.878015,-1.116314 0.797763,-0.472287 1.38500498,-1.20634 2.07750698,-1.800507 0.732668,-0.858703 1.51104102,-1.710481 2.46807902,-2.324038 a 10.096687,10.096687 0 0 1 1.246505,-0.379492 c 0.554002,0.105261 1.130164,0.249301 1.551206,0.644028 0.404421,0.301931 0.583087,0.781142 0.850393,1.188334 0.415501,0.664802 0.638487,1.448715 0.831003,2.207698 0.360101,1.056759 0.382261,2.199388 0.649567,3.286617 0.01247,1.088614 0.224371,2.184153 0.05124,3.258917 0.07895,0.703583 -0.03601,1.401625 -0.10249,2.103823 z M 5.4385159,57.607365 c -1.070608,-0.06094 -2.107977,0.337941 -3.029006,0.831003 -1.171714,0.775603 -2.30464802,1.616301 -3.28107702,2.63151 -0.52491698,0.415501 -0.89609798,0.984739 -1.43209498,1.41409 -0.951499,0.909949 -1.695246,2.038728 -2.713225,2.887736 -0.818538,0.944573 -1.700786,1.842057 -2.71461,2.548409 -0.389186,0.207751 -0.822693,0.407192 -1.26174,0.325476 -0.662032,-0.328246 -0.531842,-1.156479 -0.785298,-1.736796 -0.09003,-0.875323 -0.109415,-1.749261 -0.18559,-2.63151 0.14681,-2.245093 0.645412,-4.506806 1.745106,-6.473514 0.306086,-0.703582 0.801918,-1.296364 1.170329,-1.965322 0.394727,-0.519377 0.885019,-0.969503 1.29221,-1.48888 1.36146,-1.332375 2.990226,-2.50963 4.88629798,-2.927901 0.646798,-0.277001 1.360075,-0.157891 2.03734302,-0.256226 a 7.063526,7.063526 0 0 1 4.819817,2.006872 c 0.944574,0.735438 1.598296,1.770037 2.270024,2.746466 0.465362,0.678652 0.666187,1.542895 1.200799,2.177228 A 32.233224,32.233224 0 0 1 10.45085,62.909165 12.154805,12.154805 0 0 0 8.6877379,59.526982 4.7547225,4.7547225 0 0 0 5.4385159,57.607365 Z"
           id="path2749"
           style="fill:url(#linear-gradient-3);stroke-width:0.138501" /></g><g
         id="g2893"
         transform="translate(-3.0454893,-161.17471)"><circle
           style="fill:#666666;fill-opacity:1;stroke:none;stroke-width:0.122547"
           id="path2866"
           cx="116.5703"
           cy="266.17471"
           r="3.0989809" /><circle
           style="fill:#666666;fill-opacity:1;stroke:none;stroke-width:0.122547"
           id="circle2880"
           cx="129.79944"
           cy="266.17471"
           r="3.0989809" /><circle
           style="fill:#666666;fill-opacity:1;stroke:none;stroke-width:0.122547"
           id="circle2882"
           cx="143.02858"
           cy="266.17471"
           r="3.0989809" /><circle
           style="fill:#666666;fill-opacity:1;stroke:none;stroke-width:0.122547"
           id="circle2884"
           cx="156.25772"
           cy="266.17471"
           r="3.0989809" /><circle
           style="fill:#666666;fill-opacity:1;stroke:none;stroke-width:0.122547"
           id="circle2886"
           cx="169.48686"
           cy="266.17471"
           r="3.0989809" /></g></g></g></svg>
