<?xml version="1.0" encoding="UTF-8" standalone="no"?>
<svg
   width="23.802259pt"
   height="16.368382pt"
   viewBox="0 0 23.802259 16.368381"
   version="1.1"
   id="svg2"
   sodipodi:version="0.32"
   inkscape:version="1.1.2 (0a00cf5339, 2022-02-04)"
   sodipodi:docname="logo.svg"
   inkscape:output_extension="org.inkscape.output.svg.inkscape"
   xmlns:inkscape="http://www.inkscape.org/namespaces/inkscape"
   xmlns:sodipodi="http://sodipodi.sourceforge.net/DTD/sodipodi-0.dtd"
   xmlns="http://www.w3.org/2000/svg"
   xmlns:svg="http://www.w3.org/2000/svg"
   xmlns:rdf="http://www.w3.org/1999/02/22-rdf-syntax-ns#"
   xmlns:cc="http://creativecommons.org/ns#"
   xmlns:dc="http://purl.org/dc/elements/1.1/">
  <metadata
     id="metadata17">
    <rdf:RDF>
      <cc:Work
         rdf:about="">
        <dc:format>image/svg+xml</dc:format>
        <dc:type
           rdf:resource="http://purl.org/dc/dcmitype/StillImage" />
      </cc:Work>
    </rdf:RDF>
  </metadata>
  <defs
     id="defs15" />
  <sodipodi:namedview
     inkscape:window-height="1003"
     inkscape:window-width="1920"
     inkscape:pageshadow="2"
     inkscape:pageopacity="0.0"
     guidetolerance="10.0"
     gridtolerance="10.0"
     objecttolerance="10.0"
     borderopacity="1.0"
     bordercolor="#666666"
     pagecolor="#ffffff"
     id="base"
     showgrid="true"
     inkscape:zoom="3.4604651"
     inkscape:cx="-47.392473"
     inkscape:cy="76.290323"
     inkscape:window-x="0"
     inkscape:window-y="0"
     inkscape:current-layer="svg2"
     inkscape:pagecheckerboard="0"
     inkscape:document-units="pt"
     inkscape:snap-global="false"
     inkscape:window-maximized="1"
     width="515pt"
     fit-margin-top="0"
     fit-margin-left="0"
     fit-margin-right="0"
     fit-margin-bottom="0">
    <inkscape:grid
       type="xygrid"
       id="grid3744"
       originx="-238.76643"
       originy="-164.22818" />
  </sodipodi:namedview>
  <path
     d="m 15.834127,1.5597183 c 0.708658,-0.74214341 1.631232,-1.30548931 2.646906,-1.49605171 0.33887,-0.020989 0.672767,-0.041143 1.006665,-0.061298 0.383655,0.032833 0.772331,0.1261478 1.122122,0.292409 0.565347,0.3243425 1.050429,0.77966621 1.429509,1.30384471 0.565695,0.7535438 0.94921,1.639806 1.133061,2.5543998 0.0077,0.320649 0.06597,0.637946 0.03226,0.955317 -0.233016,-0.231814 -0.301238,-0.5781 -0.483738,-0.843925 -0.243057,-0.352775 -0.479502,-0.727097 -0.820258,-0.9919658 -0.459396,-0.454514 -1.09595,-0.7158296 -1.741414,-0.725251 -0.2444,0.035823 -0.50212,-0.00788 -0.735696,0.092565 -0.685107,0.1505247 -1.27305,0.5760569 -1.764833,1.0570258 -0.147333,0.188204 -0.324515,0.350747 -0.466879,0.53812 -0.133203,0.242049 -0.312003,0.455965 -0.422828,0.709598 -0.39714,0.710407 -0.57711,1.527522 -0.630312,2.338737 0.0276,0.31732 0.03449,0.633 0.06705,0.949488 0.09131,0.209555 0.04433,0.508706 0.283878,0.626998 0.158281,0.0297 0.314824,-0.04251 0.45562,-0.117195 0.366023,-0.255496 0.684761,-0.579724 0.980287,-0.920505 0.367637,-0.306869 0.636594,-0.714743 0.980186,-1.043134 0.193759,-0.1551 0.327821,-0.361521 0.517443,-0.510818 0.352677,-0.365685 0.761746,-0.669272 1.184919,-0.94967 0.332942,-0.178411 0.707339,-0.322886 1.0943,-0.300828 0.464045,0.05514 0.90091,0.314132 1.173816,0.692567 0.418038,0.543206 0.655539,1.198415 0.830891,1.848701 0.07236,0.340483 0.05028,0.696788 0.09281,1.042268 -0.04463,1.167493 -0.225133,2.3475229 -0.61201,3.4548079 -0.155462,0.383752 -0.300149,0.770812 -0.53436,1.111545 -0.07201,0.08871 -0.117484,0.213865 -0.233452,0.25373 0.0073,-0.231176 0.0974,-0.455792 0.120419,-0.684496 0.02382,-0.25439 0.06339,-0.506308 0.03584,-0.762315 0.06266,-0.388651 -0.01389,-0.784646 -0.01835,-1.177384 -0.09643,-0.392667 -0.104221,-0.8052879 -0.234616,-1.1871539 -0.07148,-0.274199 -0.149592,-0.557508 -0.302244,-0.79767 -0.09623,-0.147409 -0.161001,-0.320528 -0.306917,-0.428951 -0.151744,-0.143222 -0.359757,-0.195253 -0.560302,-0.233206 -0.152428,0.03575 -0.303191,0.08144 -0.45229,0.137079 -0.346164,0.221508 -0.626801,0.529135 -0.891693,0.839234 -0.250055,0.21563 -0.461125,0.480944 -0.749331,0.651862 -0.410758,0.2629889 -0.898601,0.4928969 -1.39913,0.4029869 -0.685256,-0.03342 -1.321027,-0.3510769 -1.907923,-0.6820319 -0.26115,-0.186217 -0.543825,-0.34839 -0.75365,-0.594305 -0.54816,-0.587843 -0.939021,-1.334899 -1.037439,-2.136047 -0.05074,-0.241902 -0.108944,-0.497883 -0.04783,-0.74319 -0.01074,-0.979363 0.30915,-1.937449 0.723552,-2.8193837 0.239965,-0.397908 0.455883,-0.8173401 0.772123,-1.1564801 0.123314,-0.1790712 0.246626,-0.3581424 0.423834,-0.4900274 z"
     id="path6"
     style="fill:#ffffff;stroke:#000000;stroke-width:0.004725" />
  <path
     id="path3742"
     d="m 7.9681367,14.808662 c -0.708657,0.742143 -1.631231,1.305488 -2.646906,1.49605 -0.338869,0.02099 -0.672767,0.04114 -1.006666,0.0613 -0.383654,-0.03283 -0.772329,-0.126148 -1.12212,-0.292407 -0.565347,-0.324344 -1.050429,-0.779666 -1.429509,-1.303846 -0.565695,-0.753543 -0.94920996,-1.639805 -1.13306246,-2.554398 -0.00771,-0.320652 -0.065972,-0.637948 -0.032256,-0.955317 0.2330145,0.231811 0.3012375,0.5781 0.48373746,0.843923 0.243056,0.352774 0.479501,0.727099 0.820258,0.991966 0.459395,0.454515 1.095948,0.715829 1.741413,0.725252 0.244399,-0.03583 0.502121,0.0079 0.735697,-0.09257 0.685106,-0.150525 1.273049,-0.576055 1.764832,-1.057024 0.147334,-0.188205 0.324517,-0.350747 0.46688,-0.538119 0.133204,-0.242051 0.312003,-0.455967 0.422826,-0.709599 0.397142,-0.710406 0.57711,-1.5275229 0.630312,-2.3387359 -0.0276,-0.317322 -0.03448,-0.633002 -0.06705,-0.949489 -0.09131,-0.209555 -0.04432,-0.508707 -0.283878,-0.627 -0.158281,-0.0297 -0.314822,0.04251 -0.455619,0.117197 -0.366022,0.255495 -0.68476,0.579725 -0.980285,0.920506 -0.367638,0.306867 -0.636594,0.714741 -0.980186,1.043134 -0.193761,0.155097 -0.327822,0.361521 -0.517445,0.5108169 -0.352676,0.365684 -0.761746,0.669272 -1.184919,0.949671 -0.332941,0.178411 -0.707339,0.322884 -1.094299,0.300825 -0.464044,-0.05514 -0.900911,-0.314129 -1.17381596,-0.692566 -0.4180411,-0.543203 -0.655541,-1.1984109 -0.8308944,-1.8486989 -0.072361,-0.340484 -0.0502768,-0.696786 -0.0928133,-1.042267 0.044632,-1.167492 0.2251335,-2.347524 0.6120122,-3.454807 0.1554605,-0.383754 0.3001485,-0.7708146 0.53435946,-1.1115454 0.07201,-0.088716 0.117484,-0.2138657 0.233451,-0.2537321 -0.0073,0.2311781 -0.0974,0.4557941 -0.120417,0.6844975 -0.02382,0.254391 -0.06339,0.506308 -0.03585,0.762315 -0.06266,0.38865 0.01389,0.784646 0.01835,1.177384 0.09643,0.392665 0.104222,0.805287 0.234616,1.187154 0.07148,0.2742 0.149593,0.557508 0.302243,0.797669 0.09623,0.147408 0.161001,0.320527 0.306918,0.428953 0.151744,0.14322 0.359758,0.195251 0.560303,0.233204 0.152428,-0.03575 0.303192,-0.08144 0.452288,-0.13708 0.346164,-0.221508 0.626802,-0.529134 0.891694,-0.839233 0.250054,-0.21563 0.461126,-0.480944 0.749332,-0.651861 0.410758,-0.262988 0.898602,-0.492896 1.399131,-0.402988 0.685255,0.03342 1.321026,0.351076 1.907921,0.682033 0.261151,0.186216 0.543824,0.348388 0.753651,0.594305 0.54816,0.587842 0.939021,1.334898 1.037439,2.136048 0.05074,0.241901 0.108944,0.4978829 0.04783,0.7431899 0.01074,0.979361 -0.30915,1.937448 -0.723552,2.819383 -0.239965,0.397908 -0.455883,0.817338 -0.772123,1.15648 -0.123312,0.179071 -0.246626,0.358142 -0.423832,0.490027 z"
     style="fill:#ffffff;stroke:#000000;stroke-width:0.004725" />
  <path
     style="fill:#ffffff;stroke:#000000;stroke-width:0.004725"
     d="m 10.059952,2.4228435 c 0.24435,-0.097139 0.501973,-0.1760623 0.775413,-0.1605408 0.46228,-0.077429 0.94131,0.067183 1.334249,0.307981 0.205639,0.1904044 0.450211,0.3691783 0.542405,0.6450192 0.135315,0.3197191 0.100817,0.6934322 -0.063,0.9968212 -0.180291,0.418574 -0.552067,0.731245 -0.946297,0.940363 -0.303143,0.14276 -0.622862,0.278076 -0.96342,0.258465 -0.362033,0.06575 -0.732466,-0.01018 -1.0697933,-0.132537 -0.416909,-0.170349 -0.789204,-0.501477 -0.904736,-0.947155 -0.135315,-0.31972 0.01189,-0.66121 0.146716,-0.9546319 0.270596,-0.4285898 0.667202,-0.7760827 1.1484583,-0.9537847 z"
     id="path10" />
  <path
     style="fill:#ffffff;stroke:#000000;stroke-width:0.004725"
     d="m 10.122917,6.5209061 c 0.269714,-0.494874 0.835424,-0.748045 1.379784,-0.76257 0.278436,0.04535 0.573426,0.06748 0.822111,0.209793 0.389534,0.128942 0.638394,0.485856 0.761318,0.853642 0.03517,0.454028 0.02062,0.916383 0.135325,1.35709 0.241861,0.925319 0.879643,1.682119 1.556283,2.3353149 0.337551,0.39827 0.802602,0.672981 1.136846,1.082024 C 15.390915,11.5817 14.868862,11.51585 14.357559,11.422629 13.727765,11.323709 13.118587,11.1038 12.569817,10.786902 12.267235,10.597403 11.934854,10.443557 11.686901,10.183585 11.247489,9.8483681 10.89003,9.4227721 10.588892,8.9673001 10.263657,8.4289911 9.9897467,7.8309841 9.9552627,7.1979831 c 0.02799,-0.229537 0.05928,-0.469847 0.1676543,-0.677077 z"
     id="path12" />
</svg>
