<?xml version="1.0" encoding="UTF-8" standalone="no"?>
<svg
   width="24"
   height="24"
   viewBox="0 0 24 24"
   fill="none"
   version="1.1"
   id="svg9167"
   sodipodi:docname="biglinux-noise-reduction-pipewire.svg"
   xml:space="preserve"
   inkscape:version="1.2.2 (b0a8486541, 2022-12-01)"
   inkscape:export-filename="biglinux-noise-reduction-pipewire.svg"
   inkscape:export-xdpi="800"
   inkscape:export-ydpi="800"
   xmlns:inkscape="http://www.inkscape.org/namespaces/inkscape"
   xmlns:sodipodi="http://sodipodi.sourceforge.net/DTD/sodipodi-0.dtd"
   xmlns="http://www.w3.org/2000/svg"
   xmlns:svg="http://www.w3.org/2000/svg"><sodipodi:namedview
     id="namedview9169"
     pagecolor="#ffffff"
     bordercolor="#000000"
     borderopacity="0.25"
     inkscape:showpageshadow="2"
     inkscape:pageopacity="0.0"
     inkscape:pagecheckerboard="0"
     inkscape:deskcolor="#d1d1d1"
     showgrid="false"
     inkscape:zoom="22.627417"
     inkscape:cx="1.5688932"
     inkscape:cy="16.020388"
     inkscape:window-width="2560"
     inkscape:window-height="1000"
     inkscape:window-x="1680"
     inkscape:window-y="0"
     inkscape:window-maximized="1"
     inkscape:current-layer="svg9167" /><defs
     id="defs9165"><linearGradient
       id="paint0_linear_14_150"
       x1="12"
       y1="0"
       x2="12"
       y2="12"
       gradientUnits="userSpaceOnUse"><stop
         stop-color="#00A4DC"
         id="stop9160"
         offset="0"
         style="stop-color:#2991c9;stop-opacity:1;" /><stop
         stop-color="#00A4DC"
         id="stop10414"
         offset="0.31842107"
         style="stop-color:#006699;stop-opacity:1;" /><stop
         offset="0.5"
         stop-color="#006699"
         id="stop9162"
         style="stop-color:#36464e;stop-opacity:1;" /></linearGradient><style
       id="style16516">.cls-1{fill:#002a44;}.cls-2{fill:none;stroke:#2991c9;stroke-miterlimit:10;stroke-width:5px;}.cls-3{fill:#2991c9;}.cls-4{fill:#fff;}</style><radialGradient
       fx="0"
       fy="0"
       cx="0"
       cy="0"
       r="1"
       gradientUnits="userSpaceOnUse"
       gradientTransform="matrix(0,16.5,-16.5,0,9,0.75)"
       spreadMethod="pad"
       id="radialGradient1006"><stop
         style="stop-opacity:1;stop-color:#8fc8ff"
         offset="0"
         id="stop1002" /><stop
         style="stop-opacity:1;stop-color:#0056a8"
         offset="1"
         id="stop1004" /></radialGradient><meshgradient
       inkscape:collect="always"
       id="meshgradient2056"
       gradientUnits="userSpaceOnUse"
       x="0.75047457"
       y="0.75015759"><meshrow
         id="meshrow2058"><meshpatch
           id="meshpatch2060"><stop
             path="c 5.49991,0  10.9998,0  16.4997,0"
             style="stop-color:#ffffff;stop-opacity:1"
             id="stop2062" /><stop
             path="c 0,5.49991  0,10.9998  0,16.4997"
             style="stop-color:#000000;stop-opacity:1"
             id="stop2064" /><stop
             path="c -5.49991,0  -10.9998,0  -16.4997,0"
             style="stop-color:#ffffff;stop-opacity:1"
             id="stop2066" /><stop
             path="c 0,-5.49991  0,-10.9998  0,-16.4997"
             style="stop-color:#000000;stop-opacity:1"
             id="stop2068" /></meshpatch></meshrow></meshgradient><meshgradient
       inkscape:collect="always"
       id="meshgradient21118"
       gradientUnits="userSpaceOnUse"
       x="0.75047457"
       y="0.75015759"><meshrow
         id="meshrow21130"><meshpatch
           id="meshpatch21128"><stop
             path="c 5.49991,0  10.9998,0  16.4997,0"
             style="stop-color:#ffffff;stop-opacity:1"
             id="stop21120" /><stop
             path="c 0,5.49991  0,10.9998  0,16.4997"
             style="stop-color:#000000;stop-opacity:1"
             id="stop21122" /><stop
             path="c -5.49991,0  -10.9998,0  -16.4997,0"
             style="stop-color:#ffffff;stop-opacity:1"
             id="stop21124" /><stop
             path="c 0,-5.49991  0,-10.9998  0,-16.4997"
             style="stop-color:#000000;stop-opacity:1"
             id="stop21126" /></meshpatch></meshrow></meshgradient><meshgradient
       inkscape:collect="always"
       id="meshgradient21132"
       gradientUnits="userSpaceOnUse"
       x="0.75047457"
       y="0.75015759"><meshrow
         id="meshrow21144"><meshpatch
           id="meshpatch21142"><stop
             path="c 5.49991,0  10.9998,0  16.4997,0"
             style="stop-color:#ffffff;stop-opacity:1"
             id="stop21134" /><stop
             path="c 0,5.49991  0,10.9998  0,16.4997"
             style="stop-color:#000000;stop-opacity:1"
             id="stop21136" /><stop
             path="c -5.49991,0  -10.9998,0  -16.4997,0"
             style="stop-color:#ffffff;stop-opacity:1"
             id="stop21138" /><stop
             path="c 0,-5.49991  0,-10.9998  0,-16.4997"
             style="stop-color:#000000;stop-opacity:1"
             id="stop21140" /></meshpatch></meshrow></meshgradient><meshgradient
       inkscape:collect="always"
       id="meshgradient21146"
       gradientUnits="userSpaceOnUse"
       x="0.75047457"
       y="0.75015759"><meshrow
         id="meshrow21158"><meshpatch
           id="meshpatch21156"><stop
             path="c 5.49991,0  10.9998,0  16.4997,0"
             style="stop-color:#ffffff;stop-opacity:1"
             id="stop21148" /><stop
             path="c 0,5.49991  0,10.9998  0,16.4997"
             style="stop-color:#000000;stop-opacity:1"
             id="stop21150" /><stop
             path="c -5.49991,0  -10.9998,0  -16.4997,0"
             style="stop-color:#ffffff;stop-opacity:1"
             id="stop21152" /><stop
             path="c 0,-5.49991  0,-10.9998  0,-16.4997"
             style="stop-color:#000000;stop-opacity:1"
             id="stop21154" /></meshpatch></meshrow></meshgradient></defs><g
     id="g990"
     transform="matrix(1.3333333,0,0,1.3333334,-4.5225532e-4,-3.5941743e-5)"
     style="fill:url(#meshgradient2056);fill-opacity:1"><g
       id="g992"
       style="fill:url(#meshgradient21146);fill-opacity:1"><g
         id="g994"
         style="fill:url(#meshgradient21132);fill-opacity:1"><g
           id="g1000"
           style="fill:url(#meshgradient21118);fill-opacity:1"><path
             d="m 7.195,0.836 c 0.09,0 0.176,-0.012 0.258,-0.035 1.078,-0.071 2.156,-0.067 3.231,0.008 0.976,0.078 1.921,0.289 2.836,0.636 1.519,0.625 2.558,1.711 3.121,3.254 0.316,0.93 0.507,1.887 0.566,2.867 0.078,1.235 0.051,2.465 -0.086,3.696 -0.105,0.863 -0.328,1.691 -0.672,2.488 -0.637,1.383 -1.672,2.336 -3.101,2.859 C 12.191,17 11,17.207 9.773,17.227 8.398,17.301 7.035,17.195 5.684,16.918 3.203,16.367 1.668,14.852 1.09,12.375 0.844,11.262 0.73,10.133 0.754,8.992 0.727,7.781 0.855,6.582 1.141,5.402 1.75,3.09 3.219,1.656 5.547,1.102 6.09,0.969 6.641,0.879 7.195,0.836 Z"
             style="fill:url(#radialGradient1006);fill-opacity:1;fill-rule:evenodd;stroke:none"
             id="path1008" /></g></g></g></g><g
     id="g28316"
     transform="translate(0,0.1949287)"><path
       id="path16524"
       style="fill:#002b44;fill-opacity:1;stroke:none"
       class="cls-2"
       d="m 8.4550781,12.251953 v 0.785156 c 0.00611,1.893197 1.4024893,3.458167 3.2226559,3.726563 v 1.654297 C 10.089012,18.499289 8.875,18.929036 8.875,19.449219 h 2.802734 v 0.002 h 1.085938 v -0.002 h 2.802734 c 0,-0.520183 -1.214011,-0.949931 -2.802734,-1.03125 v -1.654297 c 1.820135,-0.268315 3.218496,-1.83323 3.224609,-3.726563 v -0.785156 h -0.539062 v 0.765625 c -0.0057,1.779955 -1.448562,3.220863 -3.228516,3.226563 -1.779302,-0.0067 -3.2189093,-1.447258 -3.2246092,-3.226563 v -0.765625 z" /><path
       class="cls-1"
       d="m 9.1778862,12.251953 v 0.725828 a 3.0539733,3.0539733 0 0 0 3.0437938,3.043793 v 0 a 3.0539733,3.0539733 0 0 0 3.043793,-3.043793 v -0.725828 z"
       id="path16520"
       style="stroke-width:0.101799" /><path
       class="cls-1"
       d="M 15.282385,11.728705 V 7.201699 A 3.0539733,3.0539733 0 0 0 12.238592,4.1589236 v 0 A 3.0539733,3.0539733 0 0 0 9.1947982,7.201699 v 4.527006 z"
       id="path16522"
       style="fill:#002b44;fill-opacity:1;stroke-width:0.101799" /><circle
       class="cls-3"
       cx="10.103865"
       cy="7.4236212"
       r="0.4316282"
       id="circle16526"
       style="stroke-width:0.101799" /><circle
       class="cls-3"
       cx="11.527016"
       cy="7.4236212"
       r="0.4316282"
       id="circle16528"
       style="stroke-width:0.101799" /><circle
       class="cls-3"
       cx="12.950168"
       cy="7.4236212"
       r="0.4316282"
       id="circle16530"
       style="stroke-width:0.101799" /><circle
       class="cls-3"
       cx="11.527016"
       cy="6.0890346"
       r="0.4316282"
       id="circle16532"
       style="stroke-width:0.101799" /><circle
       class="cls-3"
       cx="12.950168"
       cy="6.0890346"
       r="0.4316282"
       id="circle16534"
       style="stroke-width:0.101799" /><circle
       class="cls-3"
       cx="14.373319"
       cy="7.4236212"
       r="0.4316282"
       id="circle16536"
       style="stroke-width:0.101799" /><circle
       class="cls-3"
       cx="10.103865"
       cy="8.813179"
       r="0.4316282"
       id="circle16538"
       style="stroke-width:0.101799" /><circle
       class="cls-3"
       cx="11.527016"
       cy="8.813179"
       r="0.4316282"
       id="circle16540"
       style="stroke-width:0.101799" /><circle
       class="cls-3"
       cx="12.950168"
       cy="8.813179"
       r="0.4316282"
       id="circle16542"
       style="stroke-width:0.101799" /><circle
       class="cls-3"
       cx="14.373319"
       cy="8.813179"
       r="0.4316282"
       id="circle16544"
       style="stroke-width:0.101799" /><circle
       class="cls-3"
       cx="10.103865"
       cy="10.254655"
       r="0.4316282"
       id="circle16546"
       style="stroke-width:0.101799" /><circle
       class="cls-3"
       cx="11.527016"
       cy="10.254655"
       r="0.4316282"
       id="circle16548"
       style="stroke-width:0.101799" /><circle
       class="cls-3"
       cx="12.950168"
       cy="10.254655"
       r="0.4316282"
       id="circle16550"
       style="stroke-width:0.101799" /><circle
       class="cls-3"
       cx="14.373319"
       cy="10.254655"
       r="0.4316282"
       id="circle16552"
       style="stroke-width:0.101799" /><path
       id="path6"
       class="cls-4"
       d="m 12.894178,12.855622 a 0.7889431,0.7889431 0 0 1 0.416358,-0.235156 c 0.05294,0 0.101799,-0.0071 0.157789,-0.0092 a 0.47947381,0.47947381 0 0 1 0.176112,0.04581 0.72175569,0.72175569 0 0 1 0.224976,0.203599 0.94774971,0.94774971 0 0 1 0.177131,0.407196 1.0505668,1.0505668 0 0 1 0.0051,0.149645 0.58229091,0.58229091 0 0 1 -0.07431,-0.132339 0.68409002,0.68409002 0 0 0 -0.129284,-0.155753 0.40719644,0.40719644 0 0 0 -0.272822,-0.112997 0.34000903,0.34000903 0 0 0 -0.116051,0.01425 0.57720095,0.57720095 0 0 0 -0.276894,0.166951 c -0.02341,0.02952 -0.04988,0.05599 -0.07228,0.08551 -0.0224,0.02952 -0.04785,0.07228 -0.06515,0.111979 a 0.86325645,0.86325645 0 0 0 -0.1018,0.367495 c 0,0.0509 0,0.101799 0.0092,0.149644 0.01425,0.03461 0.0071,0.08042 0.04377,0.101799 a 0.12012295,0.12012295 0 0 0 0.07228,-0.01832 0.95385766,0.95385766 0 0 0 0.154735,-0.145573 c 0.05803,-0.04886 0.101799,-0.111979 0.155753,-0.164915 0.03054,-0.02341 0.04988,-0.05599 0.08144,-0.0794 a 1.149312,1.149312 0 0 1 0.186292,-0.150663 0.30539733,0.30539733 0 0 1 0.172041,-0.04581 0.27383961,0.27383961 0 0 1 0.184256,0.108925 0.84493261,0.84493261 0 0 1 0.130303,0.291145 c 0.01222,0.05294 0.0071,0.107907 0.01425,0.163897 a 1.8547798,1.8547798 0 0 1 -0.101799,0.542589 0.78588913,0.78588913 0 0 1 -0.08449,0.174077 c -0.01222,0.01527 -0.01934,0.03461 -0.03767,0.03868 a 0.88361627,0.88361627 0 0 1 0.01832,-0.101799 0.46725791,0.46725791 0 0 0 0,-0.119105 1.1197902,1.1197902 0 0 0 0,-0.184256 c -0.01425,-0.06006 -0.01731,-0.125213 -0.03767,-0.185275 a 0.49677966,0.49677966 0 0 0 -0.04785,-0.126231 0.20359822,0.20359822 0 0 0 -0.04886,-0.06821 0.16084259,0.16084259 0 0 0 -0.08653,-0.03665 0.32982912,0.32982912 0 0 0 -0.07024,0.02138 0.65762225,0.65762225 0 0 0 -0.140483,0.130303 0.81439288,0.81439288 0 0 1 -0.119104,0.101799 0.31761322,0.31761322 0 0 1 -0.219887,0.06312 0.71259377,0.71259377 0 0 1 -0.305397,-0.101799 0.62810051,0.62810051 0 0 1 -0.119105,-0.09366 0.5945068,0.5945068 0 0 1 -0.159824,-0.333901 0.26773166,0.26773166 0 0 1 -0.0071,-0.117069 1.0179911,1.0179911 0 0 1 0.114015,-0.442826 1.1197902,1.1197902 0 0 1 0.121141,-0.181202 0.17509447,0.17509447 0 0 1 0.0794,-0.09773 z"
       style="stroke-width:0.101799" /><path
       id="path3742"
       class="cls-4"
       d="m 11.659355,14.939449 a 0.78079917,0.78079917 0 0 1 -0.416359,0.234138 c -0.05293,0 -0.101799,0.0081 -0.157788,0.01018 a 0.50085162,0.50085162 0 0 1 -0.176113,-0.04581 0.72480966,0.72480966 0 0 1 -0.224976,-0.203599 0.95283967,0.95283967 0 0 1 -0.17713,-0.407196 1.0597287,1.0597287 0 0 1 0,-0.150663 0.572111,0.572111 0 0 1 0.07431,0.133357 0.65456828,0.65456828 0 0 0 0.128267,0.155753 0.40719644,0.40719644 0 0 0 0.27384,0.112997 0.3664768,0.3664768 0 0 0 0.116051,-0.01425 0.56396707,0.56396707 0 0 0 0.267731,-0.164915 c 0.02443,-0.0285 0.0509,-0.05497 0.0733,-0.08449 0.0224,-0.02952 0.04785,-0.07228 0.06515,-0.110961 a 0.87140038,0.87140038 0 0 0 0.101799,-0.368513 c 0,-0.0509 0,-0.101799 -0.0092,-0.150662 -0.01425,-0.03359 -0.0071,-0.0794 -0.04377,-0.1018 a 0.11808697,0.11808697 0 0 0 -0.07228,0.01832 0.95385766,0.95385766 0 0 0 -0.154734,0.145573 c -0.05904,0.04886 -0.1018,0.111979 -0.155753,0.164915 -0.03156,0.02443 -0.0509,0.05599 -0.08246,0.0794 a 1.1004484,1.1004484 0 0 1 -0.185275,0.150663 0.31659523,0.31659523 0 0 1 -0.17204,0.04581 0.27180362,0.27180362 0 0 1 -0.179167,-0.106889 0.84798659,0.84798659 0 0 1 -0.130303,-0.290127 c -0.01221,-0.05395 -0.0071,-0.109943 -0.01425,-0.164915 a 1.8547798,1.8547798 0 0 1 0.101799,-0.542589 0.78588913,0.78588913 0 0 1 0.08449,-0.174077 c 0.01222,-0.01425 0.01832,-0.03359 0.03665,-0.03868 a 0.85002257,0.85002257 0 0 1 -0.01832,0.101799 0.46725791,0.46725791 0 0 0 0,0.119105 1.1197902,1.1197902 0 0 0 0,0.184256 c 0.01425,0.06006 0.01731,0.125213 0.03665,0.185275 a 0.49677966,0.49677966 0 0 0 0.04784,0.12623 0.20359822,0.20359822 0 0 0 0.04886,0.06821 0.1598246,0.1598246 0 0 0 0.08653,0.03563 0.30539733,0.30539733 0 0 0 0.07126,-0.02138 0.6525323,0.6525323 0 0 0 0.139465,-0.130303 0.88463427,0.88463427 0 0 1 0.119105,-0.101799 0.31761322,0.31761322 0 0 1 0.219886,-0.06312 0.71259377,0.71259377 0 0 1 0.305397,0.101799 0.5945068,0.5945068 0 0 1 0.119105,0.09467 0.58738086,0.58738086 0 0 1 0.161861,0.334919 0.26365969,0.26365969 0 0 1 0.0071,0.116051 1.0006853,1.0006853 0 0 1 -0.114015,0.442826 1.1900316,1.1900316 0 0 1 -0.120123,0.181202 0.22395804,0.22395804 0 0 1 -0.08246,0.09366 z"
       style="stroke-width:0.101799" /><path
       id="path10"
       class="cls-4"
       d="m 11.989184,12.995086 a 0.39905251,0.39905251 0 0 1 0.328811,0.02443 0.25755175,0.25755175 0 0 1 0.08449,0.101799 0.17713045,0.17713045 0 0 1 -0.0092,0.156771 0.35833287,0.35833287 0 0 1 -0.298271,0.189346 0.32473916,0.32473916 0 0 1 -0.166951,-0.0224 0.23719193,0.23719193 0 0 1 -0.143536,-0.147608 0.18629237,0.18629237 0 0 1 0.02443,-0.149645 0.33593706,0.33593706 0 0 1 0.180185,-0.152699 z"
       style="stroke-width:0.101799" /><path
       id="path12"
       class="cls-4"
       d="m 11.998346,13.636421 a 0.24635385,0.24635385 0 0 1 0.215814,-0.118087 0.32881113,0.32881113 0 0 1 0.128267,0.03359 0.1944363,0.1944363 0 0 1 0.118087,0.133357 1.0790706,1.0790706 0 0 0 0.02239,0.21276 0.81439288,0.81439288 0 0 0 0.244318,0.365459 c 0.05294,0.06312 0.125213,0.101799 0.179167,0.170005 a 1.6287858,1.6287858 0 0 1 -0.244318,-0.02647 0.81439288,0.81439288 0 0 1 -0.280966,-0.101799 0.62810051,0.62810051 0 0 1 -0.138446,-0.09467 0.79199708,0.79199708 0 0 1 -0.172041,-0.191383 0.61079466,0.61079466 0 0 1 -0.101799,-0.278929 0.35833287,0.35833287 0 0 1 0.02952,-0.103835 z"
       style="stroke-width:0.101799" /><rect
       class="cls-3"
       x="16.827696"
       y="5.1982927"
       width="0.57007504"
       height="6.5609522"
       rx="0.27689359"
       id="rect16562"
       style="fill:#cccccc;fill-opacity:1;stroke-width:0.101799" /><rect
       class="cls-3"
       x="17.73167"
       y="6.3486223"
       width="0.57007504"
       height="4.3559842"
       rx="0.27689359"
       id="rect16564"
       style="fill:#cccccc;fill-opacity:1;stroke-width:0.101799" /><rect
       class="cls-3"
       x="18.635649"
       y="7.6567411"
       width="0.57007504"
       height="1.7468727"
       rx="0.27689359"
       id="rect16566"
       style="fill:#cccccc;fill-opacity:1;stroke-width:0.101799" /><rect
       class="cls-3"
       x="19.538605"
       y="7.2811022"
       width="0.57007504"
       height="2.4441967"
       rx="0.27689359"
       id="rect16568"
       style="fill:#cccccc;fill-opacity:1;stroke-width:0.101799" /><rect
       class="cls-3"
       x="20.442581"
       y="8.0995674"
       width="0.57007504"
       height="0.76451135"
       rx="0.27689359"
       id="rect16570"
       style="fill:#cccccc;fill-opacity:1;stroke-width:0.101799" /><rect
       class="cls-3"
       x="15.923719"
       y="7.2566705"
       width="0.57007504"
       height="2.4441967"
       rx="0.27689359"
       id="rect16572"
       style="fill:#cccccc;fill-opacity:1;stroke-width:0.101799" /><path
       class="cls-3"
       d="m 3.2232624,8.9414458 h 0.686126 c 0.3135413,0 0.3145593,-0.4886357 0,-0.4886357 h -0.686126 c -0.3145592,0 -0.3145592,0.4886357 0,0.4886357 z"
       id="path16574"
       style="fill:#cccccc;fill-opacity:1;stroke-width:0.101799" /><path
       class="cls-3"
       d="M 4.5680287,9.609248 4.1201126,8.573951 C 3.9959177,8.2858595 3.5744694,8.5342494 3.6976463,8.8203049 L 4.1455624,9.8566198 C 4.2697573,10.143693 4.6912056,9.8953035 4.5680287,9.609248 Z"
       id="path16576"
       style="fill:#cccccc;fill-opacity:1;stroke-width:0.101799" /><path
       class="cls-3"
       d="M 5.1157079,7.7280004 4.1455624,9.609248 C 4.0020256,9.8891955 4.4234739,10.136567 4.5680287,9.8566198 L 5.5371562,7.9743543 C 5.6817109,7.6954247 5.2602626,7.4480529 5.1157079,7.7280004 Z"
       id="path16578"
       style="fill:#cccccc;fill-opacity:1;stroke-width:0.101799" /><path
       class="cls-3"
       d="M 6.2935236,11.106713 5.564642,7.7860259 C 5.4964366,7.4806286 5.0251067,7.6088955 5.0933121,7.9163288 l 0.7309176,3.3196692 c 0.068205,0.305397 0.5385173,0.17713 0.4713299,-0.129285 z"
       id="path16580"
       style="fill:#cccccc;fill-opacity:1;stroke-width:0.101799" /><path
       class="cls-3"
       d="m 6.8971923,6.634678 -1.0749986,4.472035 c -0.073295,0.305397 0.3980345,0.4357 0.4713299,0.129285 L 7.3685222,6.7649808 C 7.4418175,6.4595835 6.9704877,6.3292806 6.8971923,6.634678 Z"
       id="path16582"
       style="fill:#cccccc;fill-opacity:1;stroke-width:0.101799" /><path
       class="cls-3"
       d="M 7.7797906,8.6319765 7.3725942,6.634678 C 7.3084607,6.3292806 6.8371308,6.4575475 6.9012643,6.7649808 L 7.3084607,8.7622794 C 7.3725942,9.0676767 7.842906,8.9394098 7.7797906,8.6319765 Z"
       id="path16584"
       style="fill:#cccccc;fill-opacity:1;stroke-width:0.101799" /><path
       class="cls-3"
       d="M 8.4007652,8.4528101 H 7.5446346 c -0.3145592,0 -0.3155772,0.4886357 0,0.4886357 h 0.8561306 c 0.3145592,0 0.3155772,-0.4886357 0,-0.4886357 z"
       id="path16586"
       style="fill:#cccccc;fill-opacity:1;stroke-width:0.101799" /></g><g
     inkscape:label="Camada 1"
     id="layer1"
     transform="matrix(3.7795276,0,0,3.7795276,-793.70882,16.34379)" /><script
     id="mesh_polyfill"
     type="text/javascript">
!function(){const t=&quot;http://www.w3.org/2000/svg&quot;,e=&quot;http://www.w3.org/1999/xlink&quot;,s=&quot;http://www.w3.org/1999/xhtml&quot;,r=2;if(document.createElementNS(t,&quot;meshgradient&quot;).x)return;const n=(t,e,s,r)=&gt;{let n=new x(.5*(e.x+s.x),.5*(e.y+s.y)),o=new x(.5*(t.x+e.x),.5*(t.y+e.y)),i=new x(.5*(s.x+r.x),.5*(s.y+r.y)),a=new x(.5*(n.x+o.x),.5*(n.y+o.y)),h=new x(.5*(n.x+i.x),.5*(n.y+i.y)),l=new x(.5*(a.x+h.x),.5*(a.y+h.y));return[[t,o,a,l],[l,h,i,r]]},o=t=&gt;{let e=t[0].distSquared(t[1]),s=t[2].distSquared(t[3]),r=.25*t[0].distSquared(t[2]),n=.25*t[1].distSquared(t[3]),o=e&gt;s?e:s,i=r&gt;n?r:n;return 18*(o&gt;i?o:i)},i=(t,e)=&gt;Math.sqrt(t.distSquared(e)),a=(t,e)=&gt;t.scale(2/3).add(e.scale(1/3)),h=t=&gt;{let e,s,r,n,o,i,a,h=new g;return t.match(/(\w+\(\s*[^)]+\))+/g).forEach(t=&gt;{let l=t.match(/[\w.-]+/g),d=l.shift();switch(d){case&quot;translate&quot;:2===l.length?e=new g(1,0,0,1,l[0],l[1]):(console.error(&quot;mesh.js: translate does not have 2 arguments!&quot;),e=new g(1,0,0,1,0,0)),h=h.append(e);break;case&quot;scale&quot;:1===l.length?s=new g(l[0],0,0,l[0],0,0):2===l.length?s=new g(l[0],0,0,l[1],0,0):(console.error(&quot;mesh.js: scale does not have 1 or 2 arguments!&quot;),s=new g(1,0,0,1,0,0)),h=h.append(s);break;case&quot;rotate&quot;:if(3===l.length&amp;&amp;(e=new g(1,0,0,1,l[1],l[2]),h=h.append(e)),l[0]){r=l[0]*Math.PI/180;let t=Math.cos(r),e=Math.sin(r);Math.abs(t)&lt;1e-16&amp;&amp;(t=0),Math.abs(e)&lt;1e-16&amp;&amp;(e=0),a=new g(t,e,-e,t,0,0),h=h.append(a)}else console.error(&quot;math.js: No argument to rotate transform!&quot;);3===l.length&amp;&amp;(e=new g(1,0,0,1,-l[1],-l[2]),h=h.append(e));break;case&quot;skewX&quot;:l[0]?(r=l[0]*Math.PI/180,n=Math.tan(r),o=new g(1,0,n,1,0,0),h=h.append(o)):console.error(&quot;math.js: No argument to skewX transform!&quot;);break;case&quot;skewY&quot;:l[0]?(r=l[0]*Math.PI/180,n=Math.tan(r),i=new g(1,n,0,1,0,0),h=h.append(i)):console.error(&quot;math.js: No argument to skewY transform!&quot;);break;case&quot;matrix&quot;:6===l.length?h=h.append(new g(...l)):console.error(&quot;math.js: Incorrect number of arguments for matrix!&quot;);break;default:console.error(&quot;mesh.js: Unhandled transform type: &quot;+d)}}),h},l=t=&gt;{let e=[],s=t.split(/[ ,]+/);for(let t=0,r=s.length-1;t&lt;r;t+=2)e.push(new x(parseFloat(s[t]),parseFloat(s[t+1])));return e},d=(t,e)=&gt;{for(let s in e)t.setAttribute(s,e[s])},c=(t,e,s,r,n)=&gt;{let o,i,a=[0,0,0,0];for(let h=0;h&lt;3;++h)e[h]&lt;t[h]&amp;&amp;e[h]&lt;s[h]||t[h]&lt;e[h]&amp;&amp;s[h]&lt;e[h]?a[h]=0:(a[h]=.5*((e[h]-t[h])/r+(s[h]-e[h])/n),o=Math.abs(3*(e[h]-t[h])/r),i=Math.abs(3*(s[h]-e[h])/n),a[h]&gt;o?a[h]=o:a[h]&gt;i&amp;&amp;(a[h]=i));return a},u=[[1,0,0,0,0,0,0,0,0,0,0,0,0,0,0,0],[0,0,0,0,1,0,0,0,0,0,0,0,0,0,0,0],[-3,3,0,0,-2,-1,0,0,0,0,0,0,0,0,0,0],[2,-2,0,0,1,1,0,0,0,0,0,0,0,0,0,0],[0,0,0,0,0,0,0,0,1,0,0,0,0,0,0,0],[0,0,0,0,0,0,0,0,0,0,0,0,1,0,0,0],[0,0,0,0,0,0,0,0,-3,3,0,0,-2,-1,0,0],[0,0,0,0,0,0,0,0,2,-2,0,0,1,1,0,0],[-3,0,3,0,0,0,0,0,-2,0,-1,0,0,0,0,0],[0,0,0,0,-3,0,3,0,0,0,0,0,-2,0,-1,0],[9,-9,-9,9,6,3,-6,-3,6,-6,3,-3,4,2,2,1],[-6,6,6,-6,-3,-3,3,3,-4,4,-2,2,-2,-2,-1,-1],[2,0,-2,0,0,0,0,0,1,0,1,0,0,0,0,0],[0,0,0,0,2,0,-2,0,0,0,0,0,1,0,1,0],[-6,6,6,-6,-4,-2,4,2,-3,3,-3,3,-2,-1,-2,-1],[4,-4,-4,4,2,2,-2,-2,2,-2,2,-2,1,1,1,1]],f=t=&gt;{let e=[];for(let s=0;s&lt;16;++s){e[s]=0;for(let r=0;r&lt;16;++r)e[s]+=u[s][r]*t[r]}return e},p=(t,e,s)=&gt;{const r=e*e,n=s*s,o=e*e*e,i=s*s*s;return t[0]+t[1]*e+t[2]*r+t[3]*o+t[4]*s+t[5]*s*e+t[6]*s*r+t[7]*s*o+t[8]*n+t[9]*n*e+t[10]*n*r+t[11]*n*o+t[12]*i+t[13]*i*e+t[14]*i*r+t[15]*i*o},y=t=&gt;{let e=[],s=[],r=[];for(let s=0;s&lt;4;++s)e[s]=[],e[s][0]=n(t[0][s],t[1][s],t[2][s],t[3][s]),e[s][1]=[],e[s][1].push(...n(...e[s][0][0])),e[s][1].push(...n(...e[s][0][1])),e[s][2]=[],e[s][2].push(...n(...e[s][1][0])),e[s][2].push(...n(...e[s][1][1])),e[s][2].push(...n(...e[s][1][2])),e[s][2].push(...n(...e[s][1][3]));for(let t=0;t&lt;8;++t){s[t]=[];for(let r=0;r&lt;4;++r)s[t][r]=[],s[t][r][0]=n(e[0][2][t][r],e[1][2][t][r],e[2][2][t][r],e[3][2][t][r]),s[t][r][1]=[],s[t][r][1].push(...n(...s[t][r][0][0])),s[t][r][1].push(...n(...s[t][r][0][1])),s[t][r][2]=[],s[t][r][2].push(...n(...s[t][r][1][0])),s[t][r][2].push(...n(...s[t][r][1][1])),s[t][r][2].push(...n(...s[t][r][1][2])),s[t][r][2].push(...n(...s[t][r][1][3]))}for(let t=0;t&lt;8;++t){r[t]=[];for(let e=0;e&lt;8;++e)r[t][e]=[],r[t][e][0]=s[t][0][2][e],r[t][e][1]=s[t][1][2][e],r[t][e][2]=s[t][2][2][e],r[t][e][3]=s[t][3][2][e]}return r};class x{constructor(t,e){this.x=t||0,this.y=e||0}toString(){return`(x=${this.x}, y=${this.y})`}clone(){return new x(this.x,this.y)}add(t){return new x(this.x+t.x,this.y+t.y)}scale(t){return void 0===t.x?new x(this.x*t,this.y*t):new x(this.x*t.x,this.y*t.y)}distSquared(t){let e=this.x-t.x,s=this.y-t.y;return e*e+s*s}transform(t){let e=this.x*t.a+this.y*t.c+t.e,s=this.x*t.b+this.y*t.d+t.f;return new x(e,s)}}class g{constructor(t,e,s,r,n,o){void 0===t?(this.a=1,this.b=0,this.c=0,this.d=1,this.e=0,this.f=0):(this.a=t,this.b=e,this.c=s,this.d=r,this.e=n,this.f=o)}toString(){return`affine: ${this.a} ${this.c} ${this.e} \n       ${this.b} ${this.d} ${this.f}`}append(t){t instanceof g||console.error(&quot;mesh.js: argument to Affine.append is not affine!&quot;);let e=this.a*t.a+this.c*t.b,s=this.b*t.a+this.d*t.b,r=this.a*t.c+this.c*t.d,n=this.b*t.c+this.d*t.d,o=this.a*t.e+this.c*t.f+this.e,i=this.b*t.e+this.d*t.f+this.f;return new g(e,s,r,n,o,i)}}class w{constructor(t,e){this.nodes=t,this.colors=e}paintCurve(t,e){if(o(this.nodes)&gt;r){const s=n(...this.nodes);let r=[[],[]],o=[[],[]];for(let t=0;t&lt;4;++t)r[0][t]=this.colors[0][t],r[1][t]=(this.colors[0][t]+this.colors[1][t])/2,o[0][t]=r[1][t],o[1][t]=this.colors[1][t];let i=new w(s[0],r),a=new w(s[1],o);i.paintCurve(t,e),a.paintCurve(t,e)}else{let s=Math.round(this.nodes[0].x);if(s&gt;=0&amp;&amp;s&lt;e){let r=4*(~~this.nodes[0].y*e+s);t[r]=Math.round(this.colors[0][0]),t[r+1]=Math.round(this.colors[0][1]),t[r+2]=Math.round(this.colors[0][2]),t[r+3]=Math.round(this.colors[0][3])}}}}class m{constructor(t,e){this.nodes=t,this.colors=e}split(){let t=[[],[],[],[]],e=[[],[],[],[]],s=[[[],[]],[[],[]]],r=[[[],[]],[[],[]]];for(let s=0;s&lt;4;++s){const r=n(this.nodes[0][s],this.nodes[1][s],this.nodes[2][s],this.nodes[3][s]);t[0][s]=r[0][0],t[1][s]=r[0][1],t[2][s]=r[0][2],t[3][s]=r[0][3],e[0][s]=r[1][0],e[1][s]=r[1][1],e[2][s]=r[1][2],e[3][s]=r[1][3]}for(let t=0;t&lt;4;++t)s[0][0][t]=this.colors[0][0][t],s[0][1][t]=this.colors[0][1][t],s[1][0][t]=(this.colors[0][0][t]+this.colors[1][0][t])/2,s[1][1][t]=(this.colors[0][1][t]+this.colors[1][1][t])/2,r[0][0][t]=s[1][0][t],r[0][1][t]=s[1][1][t],r[1][0][t]=this.colors[1][0][t],r[1][1][t]=this.colors[1][1][t];return[new m(t,s),new m(e,r)]}paint(t,e){let s,n=!1;for(let t=0;t&lt;4;++t)if((s=o([this.nodes[0][t],this.nodes[1][t],this.nodes[2][t],this.nodes[3][t]]))&gt;r){n=!0;break}if(n){let s=this.split();s[0].paint(t,e),s[1].paint(t,e)}else{new w([...this.nodes[0]],[...this.colors[0]]).paintCurve(t,e)}}}class b{constructor(t){this.readMesh(t),this.type=t.getAttribute(&quot;type&quot;)||&quot;bilinear&quot;}readMesh(t){let e=[[]],s=[[]],r=Number(t.getAttribute(&quot;x&quot;)),n=Number(t.getAttribute(&quot;y&quot;));e[0][0]=new x(r,n);let o=t.children;for(let t=0,r=o.length;t&lt;r;++t){e[3*t+1]=[],e[3*t+2]=[],e[3*t+3]=[],s[t+1]=[];let r=o[t].children;for(let n=0,o=r.length;n&lt;o;++n){let o=r[n].children;for(let r=0,i=o.length;r&lt;i;++r){let i=r;0!==t&amp;&amp;++i;let h,d=o[r].getAttribute(&quot;path&quot;),c=&quot;l&quot;;null!=d&amp;&amp;(c=(h=d.match(/\s*([lLcC])\s*(.*)/))[1]);let u=l(h[2]);switch(c){case&quot;l&quot;:0===i?(e[3*t][3*n+3]=u[0].add(e[3*t][3*n]),e[3*t][3*n+1]=a(e[3*t][3*n],e[3*t][3*n+3]),e[3*t][3*n+2]=a(e[3*t][3*n+3],e[3*t][3*n])):1===i?(e[3*t+3][3*n+3]=u[0].add(e[3*t][3*n+3]),e[3*t+1][3*n+3]=a(e[3*t][3*n+3],e[3*t+3][3*n+3]),e[3*t+2][3*n+3]=a(e[3*t+3][3*n+3],e[3*t][3*n+3])):2===i?(0===n&amp;&amp;(e[3*t+3][3*n+0]=u[0].add(e[3*t+3][3*n+3])),e[3*t+3][3*n+1]=a(e[3*t+3][3*n],e[3*t+3][3*n+3]),e[3*t+3][3*n+2]=a(e[3*t+3][3*n+3],e[3*t+3][3*n])):(e[3*t+1][3*n]=a(e[3*t][3*n],e[3*t+3][3*n]),e[3*t+2][3*n]=a(e[3*t+3][3*n],e[3*t][3*n]));break;case&quot;L&quot;:0===i?(e[3*t][3*n+3]=u[0],e[3*t][3*n+1]=a(e[3*t][3*n],e[3*t][3*n+3]),e[3*t][3*n+2]=a(e[3*t][3*n+3],e[3*t][3*n])):1===i?(e[3*t+3][3*n+3]=u[0],e[3*t+1][3*n+3]=a(e[3*t][3*n+3],e[3*t+3][3*n+3]),e[3*t+2][3*n+3]=a(e[3*t+3][3*n+3],e[3*t][3*n+3])):2===i?(0===n&amp;&amp;(e[3*t+3][3*n+0]=u[0]),e[3*t+3][3*n+1]=a(e[3*t+3][3*n],e[3*t+3][3*n+3]),e[3*t+3][3*n+2]=a(e[3*t+3][3*n+3],e[3*t+3][3*n])):(e[3*t+1][3*n]=a(e[3*t][3*n],e[3*t+3][3*n]),e[3*t+2][3*n]=a(e[3*t+3][3*n],e[3*t][3*n]));break;case&quot;c&quot;:0===i?(e[3*t][3*n+1]=u[0].add(e[3*t][3*n]),e[3*t][3*n+2]=u[1].add(e[3*t][3*n]),e[3*t][3*n+3]=u[2].add(e[3*t][3*n])):1===i?(e[3*t+1][3*n+3]=u[0].add(e[3*t][3*n+3]),e[3*t+2][3*n+3]=u[1].add(e[3*t][3*n+3]),e[3*t+3][3*n+3]=u[2].add(e[3*t][3*n+3])):2===i?(e[3*t+3][3*n+2]=u[0].add(e[3*t+3][3*n+3]),e[3*t+3][3*n+1]=u[1].add(e[3*t+3][3*n+3]),0===n&amp;&amp;(e[3*t+3][3*n+0]=u[2].add(e[3*t+3][3*n+3]))):(e[3*t+2][3*n]=u[0].add(e[3*t+3][3*n]),e[3*t+1][3*n]=u[1].add(e[3*t+3][3*n]));break;case&quot;C&quot;:0===i?(e[3*t][3*n+1]=u[0],e[3*t][3*n+2]=u[1],e[3*t][3*n+3]=u[2]):1===i?(e[3*t+1][3*n+3]=u[0],e[3*t+2][3*n+3]=u[1],e[3*t+3][3*n+3]=u[2]):2===i?(e[3*t+3][3*n+2]=u[0],e[3*t+3][3*n+1]=u[1],0===n&amp;&amp;(e[3*t+3][3*n+0]=u[2])):(e[3*t+2][3*n]=u[0],e[3*t+1][3*n]=u[1]);break;default:console.error(&quot;mesh.js: &quot;+c+&quot; invalid path type.&quot;)}if(0===t&amp;&amp;0===n||r&gt;0){let e=window.getComputedStyle(o[r]).stopColor.match(/^rgb\s*\(\s*(\d+)\s*,\s*(\d+)\s*,\s*(\d+)\s*\)$/i),a=window.getComputedStyle(o[r]).stopOpacity,h=255;a&amp;&amp;(h=Math.floor(255*a)),e&amp;&amp;(0===i?(s[t][n]=[],s[t][n][0]=Math.floor(e[1]),s[t][n][1]=Math.floor(e[2]),s[t][n][2]=Math.floor(e[3]),s[t][n][3]=h):1===i?(s[t][n+1]=[],s[t][n+1][0]=Math.floor(e[1]),s[t][n+1][1]=Math.floor(e[2]),s[t][n+1][2]=Math.floor(e[3]),s[t][n+1][3]=h):2===i?(s[t+1][n+1]=[],s[t+1][n+1][0]=Math.floor(e[1]),s[t+1][n+1][1]=Math.floor(e[2]),s[t+1][n+1][2]=Math.floor(e[3]),s[t+1][n+1][3]=h):3===i&amp;&amp;(s[t+1][n]=[],s[t+1][n][0]=Math.floor(e[1]),s[t+1][n][1]=Math.floor(e[2]),s[t+1][n][2]=Math.floor(e[3]),s[t+1][n][3]=h))}}e[3*t+1][3*n+1]=new x,e[3*t+1][3*n+2]=new x,e[3*t+2][3*n+1]=new x,e[3*t+2][3*n+2]=new x,e[3*t+1][3*n+1].x=(-4*e[3*t][3*n].x+6*(e[3*t][3*n+1].x+e[3*t+1][3*n].x)+-2*(e[3*t][3*n+3].x+e[3*t+3][3*n].x)+3*(e[3*t+3][3*n+1].x+e[3*t+1][3*n+3].x)+-1*e[3*t+3][3*n+3].x)/9,e[3*t+1][3*n+2].x=(-4*e[3*t][3*n+3].x+6*(e[3*t][3*n+2].x+e[3*t+1][3*n+3].x)+-2*(e[3*t][3*n].x+e[3*t+3][3*n+3].x)+3*(e[3*t+3][3*n+2].x+e[3*t+1][3*n].x)+-1*e[3*t+3][3*n].x)/9,e[3*t+2][3*n+1].x=(-4*e[3*t+3][3*n].x+6*(e[3*t+3][3*n+1].x+e[3*t+2][3*n].x)+-2*(e[3*t+3][3*n+3].x+e[3*t][3*n].x)+3*(e[3*t][3*n+1].x+e[3*t+2][3*n+3].x)+-1*e[3*t][3*n+3].x)/9,e[3*t+2][3*n+2].x=(-4*e[3*t+3][3*n+3].x+6*(e[3*t+3][3*n+2].x+e[3*t+2][3*n+3].x)+-2*(e[3*t+3][3*n].x+e[3*t][3*n+3].x)+3*(e[3*t][3*n+2].x+e[3*t+2][3*n].x)+-1*e[3*t][3*n].x)/9,e[3*t+1][3*n+1].y=(-4*e[3*t][3*n].y+6*(e[3*t][3*n+1].y+e[3*t+1][3*n].y)+-2*(e[3*t][3*n+3].y+e[3*t+3][3*n].y)+3*(e[3*t+3][3*n+1].y+e[3*t+1][3*n+3].y)+-1*e[3*t+3][3*n+3].y)/9,e[3*t+1][3*n+2].y=(-4*e[3*t][3*n+3].y+6*(e[3*t][3*n+2].y+e[3*t+1][3*n+3].y)+-2*(e[3*t][3*n].y+e[3*t+3][3*n+3].y)+3*(e[3*t+3][3*n+2].y+e[3*t+1][3*n].y)+-1*e[3*t+3][3*n].y)/9,e[3*t+2][3*n+1].y=(-4*e[3*t+3][3*n].y+6*(e[3*t+3][3*n+1].y+e[3*t+2][3*n].y)+-2*(e[3*t+3][3*n+3].y+e[3*t][3*n].y)+3*(e[3*t][3*n+1].y+e[3*t+2][3*n+3].y)+-1*e[3*t][3*n+3].y)/9,e[3*t+2][3*n+2].y=(-4*e[3*t+3][3*n+3].y+6*(e[3*t+3][3*n+2].y+e[3*t+2][3*n+3].y)+-2*(e[3*t+3][3*n].y+e[3*t][3*n+3].y)+3*(e[3*t][3*n+2].y+e[3*t+2][3*n].y)+-1*e[3*t][3*n].y)/9}}this.nodes=e,this.colors=s}paintMesh(t,e){let s=(this.nodes.length-1)/3,r=(this.nodes[0].length-1)/3;if(&quot;bilinear&quot;===this.type||s&lt;2||r&lt;2){let n;for(let o=0;o&lt;s;++o)for(let s=0;s&lt;r;++s){let r=[];for(let t=3*o,e=3*o+4;t&lt;e;++t)r.push(this.nodes[t].slice(3*s,3*s+4));let i=[];i.push(this.colors[o].slice(s,s+2)),i.push(this.colors[o+1].slice(s,s+2)),(n=new m(r,i)).paint(t,e)}}else{let n,o,a,h,l,d,u;const x=s,g=r;s++,r++;let w=new Array(s);for(let t=0;t&lt;s;++t){w[t]=new Array(r);for(let e=0;e&lt;r;++e)w[t][e]=[],w[t][e][0]=this.nodes[3*t][3*e],w[t][e][1]=this.colors[t][e]}for(let t=0;t&lt;s;++t)for(let e=0;e&lt;r;++e)0!==t&amp;&amp;t!==x&amp;&amp;(n=i(w[t-1][e][0],w[t][e][0]),o=i(w[t+1][e][0],w[t][e][0]),w[t][e][2]=c(w[t-1][e][1],w[t][e][1],w[t+1][e][1],n,o)),0!==e&amp;&amp;e!==g&amp;&amp;(n=i(w[t][e-1][0],w[t][e][0]),o=i(w[t][e+1][0],w[t][e][0]),w[t][e][3]=c(w[t][e-1][1],w[t][e][1],w[t][e+1][1],n,o));for(let t=0;t&lt;r;++t){w[0][t][2]=[],w[x][t][2]=[];for(let e=0;e&lt;4;++e)n=i(w[1][t][0],w[0][t][0]),o=i(w[x][t][0],w[x-1][t][0]),w[0][t][2][e]=n&gt;0?2*(w[1][t][1][e]-w[0][t][1][e])/n-w[1][t][2][e]:0,w[x][t][2][e]=o&gt;0?2*(w[x][t][1][e]-w[x-1][t][1][e])/o-w[x-1][t][2][e]:0}for(let t=0;t&lt;s;++t){w[t][0][3]=[],w[t][g][3]=[];for(let e=0;e&lt;4;++e)n=i(w[t][1][0],w[t][0][0]),o=i(w[t][g][0],w[t][g-1][0]),w[t][0][3][e]=n&gt;0?2*(w[t][1][1][e]-w[t][0][1][e])/n-w[t][1][3][e]:0,w[t][g][3][e]=o&gt;0?2*(w[t][g][1][e]-w[t][g-1][1][e])/o-w[t][g-1][3][e]:0}for(let s=0;s&lt;x;++s)for(let r=0;r&lt;g;++r){let n=i(w[s][r][0],w[s+1][r][0]),o=i(w[s][r+1][0],w[s+1][r+1][0]),c=i(w[s][r][0],w[s][r+1][0]),x=i(w[s+1][r][0],w[s+1][r+1][0]),g=[[],[],[],[]];for(let t=0;t&lt;4;++t){(d=[])[0]=w[s][r][1][t],d[1]=w[s+1][r][1][t],d[2]=w[s][r+1][1][t],d[3]=w[s+1][r+1][1][t],d[4]=w[s][r][2][t]*n,d[5]=w[s+1][r][2][t]*n,d[6]=w[s][r+1][2][t]*o,d[7]=w[s+1][r+1][2][t]*o,d[8]=w[s][r][3][t]*c,d[9]=w[s+1][r][3][t]*x,d[10]=w[s][r+1][3][t]*c,d[11]=w[s+1][r+1][3][t]*x,d[12]=0,d[13]=0,d[14]=0,d[15]=0,u=f(d);for(let e=0;e&lt;9;++e){g[t][e]=[];for(let s=0;s&lt;9;++s)g[t][e][s]=p(u,e/8,s/8),g[t][e][s]&gt;255?g[t][e][s]=255:g[t][e][s]&lt;0&amp;&amp;(g[t][e][s]=0)}}h=[];for(let t=3*s,e=3*s+4;t&lt;e;++t)h.push(this.nodes[t].slice(3*r,3*r+4));l=y(h);for(let s=0;s&lt;8;++s)for(let r=0;r&lt;8;++r)(a=new m(l[s][r],[[[g[0][s][r],g[1][s][r],g[2][s][r],g[3][s][r]],[g[0][s][r+1],g[1][s][r+1],g[2][s][r+1],g[3][s][r+1]]],[[g[0][s+1][r],g[1][s+1][r],g[2][s+1][r],g[3][s+1][r]],[g[0][s+1][r+1],g[1][s+1][r+1],g[2][s+1][r+1],g[3][s+1][r+1]]]])).paint(t,e)}}}transform(t){if(t instanceof x)for(let e=0,s=this.nodes.length;e&lt;s;++e)for(let s=0,r=this.nodes[0].length;s&lt;r;++s)this.nodes[e][s]=this.nodes[e][s].add(t);else if(t instanceof g)for(let e=0,s=this.nodes.length;e&lt;s;++e)for(let s=0,r=this.nodes[0].length;s&lt;r;++s)this.nodes[e][s]=this.nodes[e][s].transform(t)}scale(t){for(let e=0,s=this.nodes.length;e&lt;s;++e)for(let s=0,r=this.nodes[0].length;s&lt;r;++s)this.nodes[e][s]=this.nodes[e][s].scale(t)}}document.querySelectorAll(&quot;rect,circle,ellipse,path,text&quot;).forEach((r,n)=&gt;{let o=r.getAttribute(&quot;id&quot;);o||(o=&quot;patchjs_shape&quot;+n,r.setAttribute(&quot;id&quot;,o));const i=r.style.fill.match(/^url\(\s*&quot;?\s*#([^\s&quot;]+)&quot;?\s*\)/),a=r.style.stroke.match(/^url\(\s*&quot;?\s*#([^\s&quot;]+)&quot;?\s*\)/);if(i&amp;&amp;i[1]){const a=document.getElementById(i[1]);if(a&amp;&amp;&quot;meshgradient&quot;===a.nodeName){const i=r.getBBox();let l=document.createElementNS(s,&quot;canvas&quot;);d(l,{width:i.width,height:i.height});const c=l.getContext(&quot;2d&quot;);let u=c.createImageData(i.width,i.height);const f=new b(a);&quot;objectBoundingBox&quot;===a.getAttribute(&quot;gradientUnits&quot;)&amp;&amp;f.scale(new x(i.width,i.height));const p=a.getAttribute(&quot;gradientTransform&quot;);null!=p&amp;&amp;f.transform(h(p)),&quot;userSpaceOnUse&quot;===a.getAttribute(&quot;gradientUnits&quot;)&amp;&amp;f.transform(new x(-i.x,-i.y)),f.paintMesh(u.data,l.width),c.putImageData(u,0,0);const y=document.createElementNS(t,&quot;image&quot;);d(y,{width:i.width,height:i.height,x:i.x,y:i.y});let g=l.toDataURL();y.setAttributeNS(e,&quot;xlink:href&quot;,g),r.parentNode.insertBefore(y,r),r.style.fill=&quot;none&quot;;const w=document.createElementNS(t,&quot;use&quot;);w.setAttributeNS(e,&quot;xlink:href&quot;,&quot;#&quot;+o);const m=&quot;patchjs_clip&quot;+n,M=document.createElementNS(t,&quot;clipPath&quot;);M.setAttribute(&quot;id&quot;,m),M.appendChild(w),r.parentElement.insertBefore(M,r),y.setAttribute(&quot;clip-path&quot;,&quot;url(#&quot;+m+&quot;)&quot;),u=null,l=null,g=null}}if(a&amp;&amp;a[1]){const o=document.getElementById(a[1]);if(o&amp;&amp;&quot;meshgradient&quot;===o.nodeName){const i=parseFloat(r.style.strokeWidth.slice(0,-2))*(parseFloat(r.style.strokeMiterlimit)||parseFloat(r.getAttribute(&quot;stroke-miterlimit&quot;))||1),a=r.getBBox(),l=Math.trunc(a.width+i),c=Math.trunc(a.height+i),u=Math.trunc(a.x-i/2),f=Math.trunc(a.y-i/2);let p=document.createElementNS(s,&quot;canvas&quot;);d(p,{width:l,height:c});const y=p.getContext(&quot;2d&quot;);let g=y.createImageData(l,c);const w=new b(o);&quot;objectBoundingBox&quot;===o.getAttribute(&quot;gradientUnits&quot;)&amp;&amp;w.scale(new x(l,c));const m=o.getAttribute(&quot;gradientTransform&quot;);null!=m&amp;&amp;w.transform(h(m)),&quot;userSpaceOnUse&quot;===o.getAttribute(&quot;gradientUnits&quot;)&amp;&amp;w.transform(new x(-u,-f)),w.paintMesh(g.data,p.width),y.putImageData(g,0,0);const M=document.createElementNS(t,&quot;image&quot;);d(M,{width:l,height:c,x:0,y:0});let S=p.toDataURL();M.setAttributeNS(e,&quot;xlink:href&quot;,S);const k=&quot;pattern_clip&quot;+n,A=document.createElementNS(t,&quot;pattern&quot;);d(A,{id:k,patternUnits:&quot;userSpaceOnUse&quot;,width:l,height:c,x:u,y:f}),A.appendChild(M),o.parentNode.appendChild(A),r.style.stroke=&quot;url(#&quot;+k+&quot;)&quot;,g=null,p=null,S=null}}})}();
</script></svg>
