<?xml version="1.0" encoding="UTF-8" standalone="no"?>
<svg
   width="24"
   height="24"
   viewBox="0 0 24 24"
   fill="none"
   version="1.1"
   id="svg154"
   sodipodi:docname="app.svg"
   inkscape:version="1.2.2 (b0a8486541, 2022-12-01)"
   xml:space="preserve"
   inkscape:export-filename="../../../../svg/icons que não tem no pacote/bigcontrolcenter.pdf"
   inkscape:export-xdpi="96"
   inkscape:export-ydpi="96"
   xmlns:inkscape="http://www.inkscape.org/namespaces/inkscape"
   xmlns:sodipodi="http://sodipodi.sourceforge.net/DTD/sodipodi-0.dtd"
   xmlns:xlink="http://www.w3.org/1999/xlink"
   xmlns="http://www.w3.org/2000/svg"
   xmlns:svg="http://www.w3.org/2000/svg"
   xmlns:sketch="http://www.bohemiancoding.com/sketch/ns"><sodipodi:namedview
     id="namedview156"
     pagecolor="#ffffff"
     bordercolor="#000000"
     borderopacity="1"
     inkscape:showpageshadow="0"
     inkscape:pageopacity="1"
     inkscape:pagecheckerboard="false"
     inkscape:deskcolor="#ffffff"
     showgrid="true"
     inkscape:zoom="32"
     inkscape:cx="9.609375"
     inkscape:cy="15.453125"
     inkscape:window-width="1920"
     inkscape:window-height="1052"
     inkscape:window-x="0"
     inkscape:window-y="0"
     inkscape:window-maximized="1"
     inkscape:current-layer="svg154"
     showguides="true"
     guidecolor="#ff0000"
     guideopacity="1"
     inkscape:lockguides="true"
     showborder="true"
     borderlayer="true"><inkscape:grid
       type="xygrid"
       id="grid356"
       color="#000000"
       opacity="0.10196078"
       empcolor="#000000"
       empopacity="0.10196078"
       snapvisiblegridlinesonly="true"
       enabled="true"
       visible="true"
       dotted="false" /><sodipodi:guide
       position="4,12"
       orientation="-1,0"
       id="guide764"
       inkscape:locked="true"
       inkscape:label="left-circle"
       inkscape:color="rgb(255,0,0)" /><sodipodi:guide
       position="5,12"
       orientation="-1,0"
       id="guide2218"
       inkscape:locked="true"
       inkscape:label="left-square"
       inkscape:color="rgb(255,0,0)" /><sodipodi:guide
       position="12,20"
       orientation="0,1"
       id="guide2220"
       inkscape:locked="true"
       inkscape:label="top-circle"
       inkscape:color="rgb(255,0,0)" /><sodipodi:guide
       position="12,5"
       orientation="0,1"
       id="guide2222"
       inkscape:locked="true"
       inkscape:label="bottom-square"
       inkscape:color="rgb(255,0,0)" /><sodipodi:guide
       position="12,4"
       orientation="0,1"
       id="guide2224"
       inkscape:locked="true"
       inkscape:label="bottom-circle"
       inkscape:color="rgb(255,0,0)" /><sodipodi:guide
       position="19,12"
       orientation="-1,0"
       id="guide2226"
       inkscape:locked="true"
       inkscape:label="right-square"
       inkscape:color="rgb(255,0,0)" /><sodipodi:guide
       position="20,12"
       orientation="-1,0"
       id="guide2228"
       inkscape:locked="true"
       inkscape:label="right-circle"
       inkscape:color="rgb(255,0,0)" /><sodipodi:guide
       position="12,19"
       orientation="0,1"
       id="guide2230"
       inkscape:locked="true"
       inkscape:label="top-square"
       inkscape:color="rgb(255,0,0)" /><sodipodi:guide
       position="12,12"
       orientation="1,0"
       id="guide765"
       inkscape:locked="true" /><sodipodi:guide
       position="12,12"
       orientation="0,-1"
       id="guide767"
       inkscape:locked="true" /><sodipodi:guide
       position="12,12"
       orientation="0.70710678,0.70710678"
       id="guide2266"
       inkscape:locked="true"
       inkscape:label=""
       inkscape:color="rgb(255,0,0)" /><sodipodi:guide
       position="12,12"
       orientation="-0.70710678,0.70710678"
       id="guide2994"
       inkscape:locked="true"
       inkscape:label=""
       inkscape:color="rgb(255,0,0)" /><sodipodi:guide
       position="3,12"
       orientation="-1,0"
       id="guide131543"
       inkscape:locked="true"
       inkscape:label="left-horizontal"
       inkscape:color="rgb(255,0,0)" /><sodipodi:guide
       position="12,21"
       orientation="0,1"
       id="guide131545"
       inkscape:locked="true"
       inkscape:label="top-vertical"
       inkscape:color="rgb(255,0,0)" /><sodipodi:guide
       position="21,12"
       orientation="-1,0"
       id="guide131547"
       inkscape:locked="true"
       inkscape:label="right-horizontal"
       inkscape:color="rgb(255,0,0)" /><sodipodi:guide
       position="12,3"
       orientation="0,1"
       id="guide131549"
       inkscape:locked="true"
       inkscape:label="bottom-vertical"
       inkscape:color="rgb(255,0,0)" /><sodipodi:guide
       position="7.4688154,18.873476"
       orientation="1,0"
       id="guide5647"
       inkscape:locked="true" /><sodipodi:guide
       position="14.981825,18.740893"
       orientation="1,0"
       id="guide5649"
       inkscape:locked="true" /><sodipodi:guide
       position="16.484427,19.29332"
       orientation="1,0"
       id="guide6079"
       inkscape:locked="true" /></sodipodi:namedview><defs
     id="defs152"><linearGradient
       id="linearGradient6063"
       inkscape:swatch="solid"><stop
         style="stop-color:#f5f5f5;stop-opacity:1;"
         offset="0"
         id="stop6061" /></linearGradient><style
       id="style212">.cls-2{fill:#cc5e55}.cls-3{fill:#ffc328}.cls-4{fill:#002a44}.cls-5{fill:#3c3}.cls-6{fill:#fff}</style><linearGradient
       inkscape:collect="always"
       id="linearGradient1246-3"><stop
         style="stop-color:#6c7ad8;stop-opacity:1"
         offset="0"
         id="stop1242-7" /><stop
         style="stop-color:#bfc7fc;stop-opacity:1"
         offset="1"
         id="stop1244-5" /></linearGradient><linearGradient
       inkscape:collect="always"
       xlink:href="#linearGradient1246-3"
       id="linearGradient1248-9"
       x1="54.785809"
       y1="82.085754"
       x2="52.79707"
       y2="0.90909088"
       gradientUnits="userSpaceOnUse"
       gradientTransform="matrix(0.24444444,0,0,0.24444444,-0.222222,-0.22222222)" /><linearGradient
       inkscape:collect="always"
       xlink:href="#linearGradient6063"
       id="linearGradient6065"
       x1="5.062995"
       y1="10.801646"
       x2="13.636664"
       y2="10.801646"
       gradientUnits="userSpaceOnUse"
       gradientTransform="matrix(0.65357062,0,0,0.65357062,3.0027969,3.1472852)" /></defs><path
     d="M 12,0.99999998 C 2,0.99999998 1,6 1,12 1,20 4,23 12,23 20,23 23,20 23,12 23,6 22,0.99999998 12,0.99999998 Z"
     sketch:type="MSShapeGroup"
     id="path6-2"
     style="font-variation-settings:normal;display:inline;vector-effect:none;fill:url(#linearGradient1248-9);fill-opacity:1;stroke-width:1.11627;stroke-linecap:butt;stroke-linejoin:miter;stroke-miterlimit:4;stroke-dasharray:none;stroke-dashoffset:0;stroke-opacity:1;-inkscape-stroke:none;stop-color:#000000"
     sodipodi:nodetypes="sssss"
     inkscape:label="Shape" /><ellipse
     style="fill:#3947be;fill-opacity:1;stroke-width:0.531"
     id="path4302"
     cx="9.5030289"
     cy="4.9341226"
     rx="0.92807764"
     ry="0.90598059" /><ellipse
     style="fill:#3947be;fill-opacity:1;stroke-width:0.531"
     id="path4302-3"
     cx="14.361"
     cy="4.9011903"
     rx="0.92807764"
     ry="0.90598059" /><path
     style="fill:none;fill-opacity:1;stroke:url(#linearGradient6065);stroke-width:0.608475;stroke-linecap:round;stroke-dasharray:none"
     id="path6012"
     sodipodi:type="arc"
     sodipodi:cx="8.857892"
     sodipodi:cy="10.50915"
     sodipodi:rx="2.8017492"
     sodipodi:ry="2.7584236"
     sodipodi:start="6.0912948"
     sodipodi:end="4.0222406"
     sodipodi:arc-type="arc"
     d="M 11.608216,9.9830767 A 2.8017492,2.7584236 0 0 1 9.8395681,13.09271 2.8017492,2.7584236 0 0 1 6.4321558,11.889469 2.8017492,2.7584236 0 0 1 7.0741539,8.3819869"
     transform="rotate(-20.692337)"
     sodipodi:open="true" /><path
     id="path531"
     style="fill:#ffffff;stroke-width:0.0248397"
     class="cls-2"
     d="m 16.001109,11.053757 c -0.140108,-2.46e-4 -0.288202,0.012 -0.445933,0.03829 -2.523719,0.421035 -2.414687,3.355699 -2.414687,3.355699 0,0 -0.0028,1.299458 1.212041,1.956467 1.009488,0.581251 1.589692,-0.04761 1.689053,-0.146718 0.09936,-0.0991 2.150461,-2.666908 1.82059,2.210874 0,0 0.722346,-0.785852 0.767553,-2.657529 0.04521,-1.871674 -1.157112,-1.985375 -1.157112,-1.985376 0,0 -0.53193,-0.13339 -1.587867,1.007505 -1.05594,1.140891 -1.129648,1.089898 -1.129648,1.089898 0,0 -0.298161,0.210108 -0.333185,-0.31873 -0.03503,-0.528839 -0.149515,-2.131733 1.462833,-2.999387 1.612348,-0.867652 2.395172,1.257575 2.395172,1.257575 0,0 -0.177199,-2.804883 -2.27881,-2.808582 z m -4.522207,1.212764 a 0.85697153,1.1428771 77.92 0 0 -0.321621,0.03325 0.85697153,1.1428771 77.92 0 0 -0.938122,1.077611 0.85697153,1.1428771 77.92 0 0 1.296603,0.598431 0.85697153,1.1428771 77.92 0 0 0.938121,-1.076887 0.85697153,1.1428771 77.92 0 0 -0.974981,-0.632399 z m -5.341798,0.358481 c 0,0 -0.721622,0.786823 -0.766831,2.658251 -0.04521,1.871427 1.157114,1.986822 1.157114,1.986822 0,0 0.531206,0.13339 1.587144,-1.007505 1.055938,-1.140889 1.130371,-1.089897 1.130371,-1.089897 0,0 0.298158,-0.210108 0.333184,0.318729 0.03503,0.528841 0.149042,2.131734 -1.463555,2.999386 -1.612597,0.867654 -2.395173,-1.257573 -2.395173,-1.257573 0,0 0.201002,3.191061 2.725467,2.770276 2.524464,-0.420785 2.413963,-3.355699 2.413963,-3.355699 0,0 0.0028,-1.298213 -1.212763,-1.956466 -1.00949,-0.581251 -1.589692,0.04688 -1.689053,0.145995 -0.09935,0.0991 -2.149492,2.666955 -1.819868,-2.212319 z m 5.644628,1.564741 A 0.87411105,0.87411105 0 0 0 10.9354,15.331677 c 0,0 0.511209,2.023897 3.246563,2.088729 0,0 -1.580069,-1.131444 -1.543058,-2.423359 a 0.87411105,0.87411105 0 0 0 -0.857173,-0.807304 z" /></svg>
