<?xml version="1.0" encoding="UTF-8" standalone="no"?>
<svg
   width="24"
   height="24"
   viewBox="0 0 24 24"
   fill="none"
   version="1.1"
   id="svg2408"
   sodipodi:docname="brave_bw.svg"
   inkscape:version="1.2.2 (b0a8486541, 2022-12-01)"
   inkscape:export-filename="brave_bw.pdf"
   inkscape:export-xdpi="96"
   inkscape:export-ydpi="96"
   xml:space="preserve"
   xmlns:inkscape="http://www.inkscape.org/namespaces/inkscape"
   xmlns:sodipodi="http://sodipodi.sourceforge.net/DTD/sodipodi-0.dtd"
   xmlns="http://www.w3.org/2000/svg"
   xmlns:svg="http://www.w3.org/2000/svg"><sodipodi:namedview
     id="namedview2410"
     pagecolor="#ffffff"
     bordercolor="#000000"
     borderopacity="0.25"
     inkscape:showpageshadow="2"
     inkscape:pageopacity="0.0"
     inkscape:pagecheckerboard="0"
     inkscape:deskcolor="#d1d1d1"
     showgrid="false"
     inkscape:zoom="6.437618"
     inkscape:cx="-74.56174"
     inkscape:cy="7.456174"
     inkscape:window-width="2560"
     inkscape:window-height="998"
     inkscape:window-x="1680"
     inkscape:window-y="0"
     inkscape:window-maximized="1"
     inkscape:current-layer="svg2408" /><path
     fill-rule="evenodd"
     clip-rule="evenodd"
     d="M 9.59604,1.11359 C 9.71588,1.11486 9.83043,1.0996 9.93969,1.06779 11.3755,0.973736 12.8111,0.977551 14.2467,1.07924 c 1.3017,0.10142 2.5618,0.38384 3.7802,0.84726 2.0256,0.83394 3.4117,2.28039 4.1581,4.33935 0.4269,1.23964 0.6789,2.51436 0.7561,3.82415 0.1067,1.6447 0.0685,3.2858 -0.1146,4.9233 -0.137,1.1509 -0.4349,2.2577 -0.8935,3.3203 -0.8506,1.8425 -2.229,3.1134 -4.1352,3.8127 -1.5447,0.5219 -3.1331,0.7967 -4.7653,0.8243 C 11.1966,23.0661 9.37913,22.9287 7.57997,22.5585 4.26839,21.8208 2.22559,19.8018 1.45158,16.5017 1.12311,15.0161 0.974199,13.5124 1.00483,11.9906 0.968176,10.3724 1.14,8.77709 1.52031,7.20471 2.33171,4.11908 4.2905,2.20701 7.39669,1.46852 8.12048,1.29157 8.8536,1.17326 9.59604,1.11359 Z"
     fill="url(#paint0_radial_8_22)"
     id="path2359"
     style="fill:url(#paint0_radial_8_22)" /><defs
     id="defs2406"><radialGradient
       id="paint0_radial_8_22"
       cx="0"
       cy="0"
       r="1"
       gradientUnits="userSpaceOnUse"
       gradientTransform="matrix(0,22,-22,0,12,1)"><stop
         stop-color="#FAFAFA"
         id="stop2401" /><stop
         offset="1"
         stop-color="#C0C0C0"
         id="stop2403" /></radialGradient><radialGradient
       fx="0"
       fy="0"
       cx="0"
       cy="0"
       r="1"
       gradientUnits="userSpaceOnUse"
       gradientTransform="matrix(0,16.5,-16.5,0,9,0.75)"
       spreadMethod="pad"
       id="radialGradient1192"><stop
         style="stop-opacity:1;stop-color:#fafafa"
         offset="0"
         id="stop1188" /><stop
         style="stop-opacity:1;stop-color:#c0c0c0"
         offset="1"
         id="stop1190" /></radialGradient></defs><g
     id="g2036"
     transform="translate(49.591544,-15.028645)"><path
       d="m -31.122879,21.962406 c -0.0053,0 -0.01067,0 -0.02,0 -0.302667,-0.344 -0.625333,-0.672 -0.969333,-0.98 -0.292,-0.208 -0.62,-0.306666 -0.984,-0.290666 -0.256,-0.02133 -0.489334,0.04133 -0.698667,0.181333 -0.02,0.016 -0.04133,0.016 -0.068,0 -0.426667,-0.421333 -0.848,-0.853333 -1.270667,-1.281333 -1.64,-0.02533 -3.276,-0.03067 -4.916,-0.0093 -0.417333,0.437333 -0.838666,0.864 -1.270666,1.290667 -0.02133,0.016 -0.04667,0.016 -0.068,0 -0.161334,-0.104 -0.344,-0.161334 -0.536,-0.172 -0.48,-0.072 -0.896,0.052 -1.250667,0.365333 -0.292,0.297333 -0.588,0.588 -0.885333,0.874667 -0.01067,0 -0.016,0 -0.02133,0 -0.052,-0.09333 -0.09867,-0.188 -0.129334,-0.292 0.01067,-0.06267 0.036,-0.114667 0.072,-0.161334 0.329334,-0.353333 0.672,-0.697333 1.026667,-1.025333 0.328,-0.261333 0.702666,-0.370667 1.12,-0.322667 0.234666,0.01467 0.453333,0.08267 0.650666,0.208 0.422667,-0.437333 0.854667,-0.874666 1.292,-1.308 1.64,-0.01467 3.276,-0.01467 4.916,0 0.438667,0.433334 0.870667,0.870667 1.297334,1.308 0.338666,-0.204 0.708,-0.265333 1.098666,-0.188 0.270667,0.052 0.505334,0.166667 0.709334,0.349334 0.342666,0.333333 0.676,0.677333 1.004,1.02 0.02667,0.04267 0.04267,0.084 0.052,0.130666 -0.04667,0.104 -0.09867,0.202667 -0.150667,0.302667 z"
       style="fill:#9b9b9b;fill-opacity:1;fill-rule:evenodd;stroke:none;stroke-width:1.33333"
       id="path1196" /><path
       d="m -31.142879,21.962406 c -0.09467,0.197334 -0.188,0.401334 -0.272,0.604 -0.0093,0.036 -0.0093,0.07333 0,0.109334 0.03733,0.07333 0.06267,0.156 0.07867,0.234666 -0.016,0.06667 -0.04133,0.134667 -0.07867,0.197334 -0.0093,0.036 -0.0093,0.068 0,0.104 0.114667,0.322666 0.234667,0.641333 0.36,0.953333 -0.552,2.24 -1.136,4.474667 -1.74,6.702667 -0.229333,0.516 -0.577333,0.928 -1.041333,1.24 -1.125334,0.797333 -2.270667,1.568 -3.432,2.308 -0.317334,0.109333 -0.609334,0.06133 -0.885334,-0.125334 -1.094666,-0.724 -2.182666,-1.464 -3.256,-2.224 -0.604,-0.432 -0.984,-1.010666 -1.150666,-1.734666 -0.546667,-2.036 -1.073333,-4.078667 -1.568,-6.125334 0.125333,-0.344 0.245333,-0.692 0.370667,-1.036 -0.03733,-0.09333 -0.068,-0.182666 -0.08933,-0.281333 0.032,-0.09333 0.05733,-0.188 0.08933,-0.281333 -0.084,-0.229334 -0.188,-0.453334 -0.302667,-0.666667 0.297333,-0.286667 0.593333,-0.577333 0.885333,-0.874667 0.354667,-0.313333 0.770667,-0.437333 1.250667,-0.365333 0.192,0.01067 0.374666,0.068 0.536,0.172 0.02133,0.016 0.04667,0.016 0.068,0 0.432,-0.426666 0.853333,-0.853333 1.270666,-1.290667 1.64,-0.02133 3.276,-0.016 4.916,0.0093 0.422667,0.428 0.844,0.860001 1.270667,1.281334 0.02667,0.016 0.048,0.016 0.068,0 0.209333,-0.14 0.442667,-0.202667 0.698667,-0.181334 0.364,-0.016 0.692,0.08267 0.984,0.290667 0.344,0.308 0.666666,0.636 0.969333,0.98 z"
       style="fill:#8f8f8f;fill-opacity:1;fill-rule:evenodd;stroke:none;stroke-width:1.33333"
       id="path1198" /><path
       d="m -32.090879,24.550406 c -0.05733,0.084 -0.12,0.161334 -0.193333,0.24 -0.677334,0.598667 -1.344,1.208 -1.994667,1.833334 -0.016,0.166666 0.016,0.322666 0.09333,0.473333 0.07867,0.188 0.146667,0.385333 0.209334,0.578667 0.01467,0.145333 0.004,0.292 -0.03733,0.432 -0.068,0.166666 -0.161333,0.328 -0.265333,0.474666 -0.197333,0.186667 -0.396,0.369334 -0.593333,0.552 -0.084,0.06667 -0.177334,0.088 -0.281334,0.06133 -0.765333,-0.364 -1.448,-0.842667 -2.046666,-1.432 -0.06267,-0.07733 -0.125334,-0.156 -0.188,-0.238667 -0.0053,-0.068 0.01067,-0.130667 0.04667,-0.193333 0.432,-0.385334 0.86,-0.770667 1.281334,-1.161334 0.088,-0.07333 0.125333,-0.166666 0.12,-0.281333 -0.130667,-0.354667 -0.270667,-0.697333 -0.421334,-1.036 -0.125333,-0.297333 -0.068,-0.552 0.170667,-0.766667 0.376,-0.161333 0.750667,-0.317333 1.125333,-0.462666 0.370667,-0.12 0.74,-0.26 1.098667,-0.422667 -0.394667,-0.072 -0.796,-0.118667 -1.197333,-0.14 -0.188,0.0053 -0.374667,0.036 -0.552,0.09867 -0.344,0.114667 -0.677334,0.245333 -1.010667,0.390667 -0.06267,0.052 -0.09867,0.12 -0.109333,0.202666 0.02667,0.141334 0.052,0.277334 0.088,0.412 0.105333,0.489334 0.214666,0.974667 0.333333,1.464 0.02133,0.088 0.01067,0.166667 -0.03067,0.238667 -0.36,0.152 -0.734666,0.24 -1.125333,0.256 -0.390667,-0.02133 -0.776,-0.09867 -1.14,-0.234667 -0.016,-0.016 -0.03733,-0.03067 -0.05733,-0.04667 -0.01067,-0.084 -0.01067,-0.172 0,-0.256 0.114666,-0.489333 0.229333,-0.978666 0.338666,-1.467999 0.02533,-0.114667 0.052,-0.229334 0.08267,-0.344 -0.0053,-0.07733 -0.036,-0.145334 -0.08267,-0.202667 -0.412,-0.177333 -0.828,-0.333333 -1.256,-0.474667 -0.468,-0.02533 -0.932,-0.0053 -1.4,0.06267 -0.03733,0.01067 -0.07333,0.02667 -0.105333,0.04133 0.36,0.177334 0.734667,0.333334 1.12,0.464 0.370667,0.136 0.74,0.281334 1.098667,0.442667 0.198666,0.198667 0.250666,0.432 0.152,0.702666 -0.130667,0.329334 -0.265334,0.657334 -0.401334,0.990667 -0.02667,0.134667 -0.0053,0.26 0.07867,0.369333 0.05733,0.068 0.124,0.136 0.192,0.202667 0.406667,0.302667 0.781333,0.641333 1.136,1.005333 0.0093,0.05733 0.0093,0.114667 0,0.172 -0.048,0.07867 -0.1,0.150667 -0.166667,0.213334 -0.308,0.308 -0.646666,0.578666 -1.010666,0.808 -0.412,0.181333 -0.802667,0.401333 -1.166667,0.661333 -0.06267,-0.02133 -0.12,-0.052 -0.172,-0.09867 -0.182667,-0.188 -0.374667,-0.376 -0.573333,-0.552 -0.104,-0.146666 -0.192,-0.308 -0.265334,-0.474666 -0.04133,-0.145334 -0.052,-0.297334 -0.036,-0.453334 0.06667,-0.186666 0.134667,-0.374666 0.208,-0.557333 0.07867,-0.156 0.104,-0.322667 0.07333,-0.5 -0.573334,-0.536 -1.152,-1.062667 -1.734667,-1.582667 -0.136004,-0.130656 -0.265337,-0.265323 -0.39067,-0.401323 -0.05733,-0.125333 -0.07867,-0.265333 -0.052,-0.406667 0.09333,-0.333333 0.234666,-0.645333 0.431999,-0.926666 0.473334,-0.697334 0.974667,-1.38 1.5,-2.041334 0.12,0.0053 0.245334,0.02 0.364,0.04667 0.453334,0.134667 0.917334,0.254667 1.381334,0.354667 0.328,-0.07867 0.650666,-0.172 0.968,-0.272 0.442666,-0.145334 0.885333,-0.176 1.338666,-0.08267 0.442667,0.12 0.885334,0.234666 1.328,0.354666 0.484,-0.105333 0.974667,-0.224 1.453334,-0.354666 0.109333,-0.02667 0.218666,-0.04133 0.322666,-0.04667 0.661334,0.754667 1.261334,1.546667 1.802667,2.385334 0.129333,0.296 0.166667,0.609333 0.12,0.926666 z"
       style="fill:#fefefe;fill-opacity:1;fill-rule:evenodd;stroke:none;stroke-width:1.33333"
       id="path1200" /><path
       d="m -44.081545,21.941073 c 0.0053,0 0.01067,0 0.02133,0 0.114667,0.213333 0.218667,0.437333 0.302667,0.666667 -0.032,0.09333 -0.05733,0.188 -0.08933,0.281333 -0.0053,0 -0.016,0 -0.02,0 -0.1,-0.213333 -0.214666,-0.421333 -0.333333,-0.625333 -0.01067,-0.104 0.02,-0.192 0.109333,-0.26 0.0093,-0.016 0.0093,-0.04133 0.0093,-0.06267 z"
       style="fill:#cdcaca;fill-opacity:1;fill-rule:evenodd;stroke:none;stroke-width:1.33333"
       id="path1202" /><path
       d="m -31.142879,21.962406 c 0.0093,0 0.01467,0 0.02,0 0.08933,0.08267 0.136,0.186667 0.141333,0.301334 -0.141333,0.204 -0.250666,0.417333 -0.333333,0.646666 -0.0053,0 -0.016,0 -0.02133,0 -0.016,-0.07867 -0.04133,-0.161333 -0.07867,-0.234666 -0.0093,-0.036 -0.0093,-0.07333 0,-0.109334 0.084,-0.202666 0.177333,-0.406666 0.272,-0.604 z"
       style="fill:#cdcaca;fill-opacity:1;fill-rule:evenodd;stroke:none;stroke-width:1.33333"
       id="path1204" /><path
       d="m -31.336212,22.910406 c 0.0053,0 0.016,0 0.02133,0 0.114667,0.328 0.233333,0.656 0.342667,0.984 -0.02533,0.088 -0.052,0.177334 -0.06133,0.270667 -0.01067,0 -0.016,0 -0.02133,0 -0.125333,-0.312 -0.245333,-0.630667 -0.36,-0.953333 -0.0093,-0.036 -0.0093,-0.068 0,-0.104 0.03733,-0.06267 0.06266,-0.130667 0.07866,-0.197334 z"
       style="fill:#9c9c9c;fill-opacity:1;fill-rule:evenodd;stroke:none;stroke-width:1.33333"
       id="path1206" /><path
       d="m -43.866879,22.889073 c 0.004,0 0.01467,0 0.02,0 0.02133,0.09867 0.052,0.188 0.08933,0.281333 -0.125334,0.344 -0.245334,0.692 -0.370667,1.036 -0.0053,0 -0.01067,0 -0.02,0 -0.032,-0.12 -0.052,-0.244 -0.052,-0.369333 0.118667,-0.312 0.228,-0.630667 0.333333,-0.948 z"
       style="fill:#9c9c9c;fill-opacity:1;fill-rule:evenodd;stroke:none;stroke-width:1.33333"
       id="path1208" /><path
       d="m -38.429546,24.118406 c -0.422666,-0.182666 -0.854666,-0.344 -1.297333,-0.484 -0.09867,-0.016 -0.202667,-0.016 -0.301333,0 -0.02133,0.0053 -0.032,0.01467 -0.04267,0.03067 -0.385333,-0.130666 -0.76,-0.286666 -1.12,-0.464 0.032,-0.01467 0.068,-0.03067 0.105333,-0.04133 0.468,-0.068 0.932,-0.088 1.4,-0.06267 0.428,0.141334 0.844,0.297334 1.256,0.474667 0.04667,0.05733 0.07733,0.125333 0.08267,0.202667 -0.03067,0.114666 -0.05733,0.229333 -0.08267,0.344 z"
       style="fill:#747474;fill-opacity:1;fill-rule:evenodd;stroke:none;stroke-width:1.33333"
       id="path1210" /><path
       d="m -35.065546,23.62374 c -0.186666,-0.01067 -0.364,0.01067 -0.541333,0.052 -0.38,0.125333 -0.754667,0.265333 -1.12,0.421333 -0.02133,0.02133 -0.02533,0.04267 -0.02133,0.068 -0.036,-0.134667 -0.06133,-0.270667 -0.088,-0.412 0.01067,-0.08267 0.04667,-0.150667 0.109333,-0.202667 0.333333,-0.145333 0.672,-0.276 1.010667,-0.390666 0.177333,-0.06267 0.364,-0.09333 0.552,-0.09867 0.406666,0.02133 0.802666,0.068 1.197333,0.14 -0.358667,0.162666 -0.728,0.302667 -1.098667,0.422666 z"
       style="fill:#747474;fill-opacity:1;fill-rule:evenodd;stroke:none;stroke-width:1.33333"
       id="path1212" /><path
       d="m -38.429546,24.118406 c -0.109333,0.489334 -0.224,0.978667 -0.338666,1.468 -0.01067,0.084 -0.01067,0.172 0,0.256 0.02,0.016 0.04133,0.03067 0.05733,0.04667 -0.032,0.125333 -0.052,0.254667 -0.068,0.385333 -0.0053,0.05733 0.01067,0.104 0.04667,0.141334 0.390666,0.161333 0.802666,0.249333 1.229333,0.270666 0.36,-0.04667 0.713333,-0.136 1.057333,-0.270666 0.03067,-0.03733 0.04667,-0.07867 0.04133,-0.130667 -0.02533,-0.109336 -0.04666,-0.21867 -0.068,-0.333336 0.0053,-0.032 0.01067,-0.05733 0.02667,-0.084 0.04133,-0.072 0.052,-0.150667 0.03067,-0.238667 -0.11867,-0.489333 -0.228003,-0.974667 -0.333336,-1.464 -0.004,-0.02533 0,-0.04667 0.02133,-0.068 0.365333,-0.156 0.74,-0.296 1.12,-0.421333 0.177333,-0.04133 0.354667,-0.06267 0.541333,-0.052 -0.374666,0.145333 -0.749333,0.301333 -1.125333,0.462666 -0.238667,0.214667 -0.296,0.469334 -0.170667,0.766667 -0.016,0.01467 -0.02667,0.036 -0.032,0.06267 -0.016,0.109333 -0.016,0.218666 0,0.328 0.104,0.306666 0.213334,0.618666 0.333334,0.926666 -0.421334,0.390667 -0.849334,0.776 -1.281334,1.161334 -0.036,0.06267 -0.052,0.125333 -0.04667,0.193333 0.06267,0.08267 0.125333,0.161333 0.188,0.238667 -0.166667,0.08933 -0.214667,0.218666 -0.141334,0.390666 0.213334,0.224 0.442667,0.442667 0.677334,0.646667 -0.172,-0.06267 -0.349334,-0.130667 -0.516,-0.209333 -0.181334,-0.072 -0.369334,-0.104 -0.562667,-0.08267 -0.254667,0.08267 -0.509333,0.177333 -0.754667,0.292 0.208,-0.198667 0.421334,-0.406667 0.634667,-0.625333 0.1,-0.177334 0.05733,-0.313334 -0.118667,-0.412 0.06667,-0.06267 0.118667,-0.134667 0.166667,-0.213334 0.0093,-0.05733 0.0093,-0.114666 0,-0.172 -0.354667,-0.364 -0.729333,-0.702666 -1.136,-1.005333 -0.068,-0.06667 -0.134667,-0.134667 -0.192,-0.202667 0.129333,-0.308 0.244,-0.614666 0.353333,-0.926666 0.02133,-0.152 0.01067,-0.292 -0.03067,-0.433334 0.09867,-0.270666 0.04667,-0.504 -0.152,-0.702666 -0.358667,-0.161334 -0.728,-0.306667 -1.098667,-0.442667 0.01067,-0.016 0.02133,-0.02533 0.04267,-0.03067 0.09867,-0.016 0.202666,-0.016 0.301333,0 0.442667,0.14 0.874667,0.301334 1.297333,0.484 z"
       style="fill:#928e8e;fill-opacity:1;fill-rule:evenodd;stroke:none;stroke-width:1.33333"
       id="path1214" /><path
       d="m -31.054879,24.165073 c 0.0053,0 0.01067,0 0.02133,0 0,0.09333 0.02,0.188 0.06133,0.276 -0.577327,2.338667 -1.18666,4.666667 -1.82266,6.989333 -0.229333,0.485334 -0.562667,0.885334 -1,1.198667 -1.145333,0.806667 -2.312,1.593333 -3.494667,2.348 -0.270666,0.08933 -0.530666,0.06267 -0.776,-0.08267 -1.218666,-0.791997 -2.410666,-1.60933 -3.577333,-2.458663 -0.333333,-0.296 -0.589333,-0.645334 -0.766667,-1.046667 -0.629333,-2.312 -1.233333,-4.636 -1.801333,-6.969333 0.03067,-0.06667 0.052,-0.14 0.06267,-0.213334 0.0093,0 0.01467,0 0.02,0 0.494667,2.046667 1.021333,4.089334 1.568,6.125334 0.166666,0.724 0.546666,1.302666 1.150666,1.734666 1.073334,0.76 2.161334,1.5 3.256,2.224 0.276,0.186667 0.568,0.234667 0.885334,0.125334 1.161333,-0.74 2.306666,-1.510667 3.432,-2.308 0.464,-0.312 0.812,-0.724 1.041333,-1.24 0.604,-2.228 1.188,-4.462667 1.74,-6.702667 z"
       style="fill:#cdcaca;fill-opacity:1;fill-rule:evenodd;stroke:none;stroke-width:1.33333"
       id="path1216" /><path
       d="m -32.090879,24.550406 c 0.02,0.156 0.02,0.317334 0.0093,0.474667 -0.01467,0.072 -0.04667,0.134667 -0.088,0.192 -0.62,0.568 -1.24,1.130667 -1.864,1.693333 -0.06263,0.05733 -0.114633,0.114667 -0.151967,0.186667 -0.07733,-0.150667 -0.109333,-0.306667 -0.09333,-0.473333 0.650667,-0.625334 1.317333,-1.234667 1.994667,-1.833334 0.07333,-0.07867 0.136,-0.156 0.193333,-0.24 z"
       style="fill:#747474;fill-opacity:1;fill-rule:evenodd;stroke:none;stroke-width:1.33333"
       id="path1218" /><path
       d="m -43.049545,24.613073 c 0.125333,0.136 0.254666,0.270667 0.390666,0.401333 0.582667,0.52 1.161333,1.046667 1.734667,1.582667 0.03067,0.177333 0.0053,0.344 -0.07333,0.5 -0.104004,-0.114667 -0.213337,-0.229333 -0.32267,-0.338667 -0.542667,-0.473333 -1.078667,-0.957333 -1.609334,-1.452 -0.193333,-0.204 -0.234666,-0.438666 -0.119999,-0.693333 z"
       style="fill:#747474;fill-opacity:1;fill-rule:evenodd;stroke:none;stroke-width:1.33333"
       id="path1220" /><path
       d="m -38.820212,24.810406 c 0.04133,0.141334 0.052,0.281334 0.03067,0.433334 -0.109333,0.312 -0.224,0.618666 -0.353333,0.926666 -0.084,-0.109333 -0.105337,-0.234666 -0.07867,-0.369333 0.136,-0.333333 0.270667,-0.661333 0.401333,-0.990667 z"
       style="fill:#747474;fill-opacity:1;fill-rule:evenodd;stroke:none;stroke-width:1.33333"
       id="path1222" /><path
       d="m -36.361546,24.853073 c 0.150667,0.338667 0.290667,0.681333 0.421334,1.036 0.0053,0.114667 -0.032,0.208 -0.12,0.281333 -0.12,-0.308 -0.229334,-0.62 -0.333334,-0.926666 -0.016,-0.109334 -0.016,-0.218667 0,-0.328 0.0053,-0.02667 0.016,-0.048 0.032,-0.06267 z"
       style="fill:#747474;fill-opacity:1;fill-rule:evenodd;stroke:none;stroke-width:1.33333"
       id="path1224" /><path
       d="m -36.445546,25.86774 c -0.016,0.02667 -0.02133,0.052 -0.02667,0.084 0.02133,0.114666 0.04267,0.224 0.068,0.333333 0.0053,0.052 -0.01067,0.09333 -0.04133,0.130667 -0.344,0.134666 -0.697333,0.224 -1.057333,0.270666 -0.426667,-0.02133 -0.838667,-0.109333 -1.229333,-0.270666 -0.036,-0.03733 -0.052,-0.084 -0.04667,-0.141334 0.016,-0.130666 0.036,-0.26 0.068,-0.385333 0.364,0.136 0.749333,0.213333 1.14,0.234667 0.390667,-0.016 0.765333,-0.104 1.125333,-0.256 z"
       style="fill:#747474;fill-opacity:1;fill-rule:evenodd;stroke:none;stroke-width:1.33333"
       id="path1226" /><path
       d="m -37.200212,27.76374 c 0.598666,0.589333 1.281333,1.068 2.046666,1.432 0.104,0.02667 0.197334,0.0053 0.281334,-0.06133 0.197333,-0.182666 0.396,-0.365333 0.593333,-0.552 0.104,-0.146666 0.197333,-0.308 0.265333,-0.474666 0.07867,0.369333 -0.0053,0.702666 -0.244,0.994666 -0.177333,0.182667 -0.36,0.36 -0.552,0.526667 -0.05733,0.052 -0.125333,0.09333 -0.193333,0.129333 -0.036,0.016 -0.07333,0.016 -0.109333,0 -0.09333,-0.04133 -0.188,-0.07733 -0.281334,-0.118666 0.088,-0.07333 0.084,-0.141334 -0.02133,-0.204 -0.416,-0.218667 -0.833333,-0.432 -1.249333,-0.634667 -0.234667,-0.204 -0.464,-0.422667 -0.677334,-0.646667 -0.07333,-0.172 -0.02533,-0.301333 0.141334,-0.390666 z"
       style="fill:#747474;fill-opacity:1;fill-rule:evenodd;stroke:none;stroke-width:1.33333"
       id="path1228" /><path
       d="m -37.981546,27.76374 c 0.176,0.09867 0.218667,0.234666 0.118667,0.412 -0.213333,0.218666 -0.426667,0.426666 -0.634667,0.625333 -0.453333,0.202667 -0.896,0.432 -1.328,0.686667 -0.02133,0.03733 -0.032,0.07333 -0.032,0.109333 -0.088,0.04667 -0.170666,0.104 -0.254666,0.161333 -0.036,0.016 -0.07333,0.016 -0.109334,0 -0.193333,-0.181333 -0.390666,-0.358666 -0.593333,-0.525333 -0.182667,-0.198667 -0.313333,-0.432 -0.390667,-0.693333 -0.016,-0.145334 -0.0053,-0.290667 0.036,-0.432 0.07333,0.166666 0.161334,0.328 0.265334,0.474666 0.198666,0.176 0.390666,0.364 0.573333,0.552 0.052,0.04667 0.109333,0.07733 0.172,0.09867 0.364,-0.26 0.754667,-0.48 1.166667,-0.661333 0.364,-0.229334 0.702666,-0.5 1.010666,-0.808 z"
       style="fill:#747474;fill-opacity:1;fill-rule:evenodd;stroke:none;stroke-width:1.33333"
       id="path1230" /><path
       d="m -36.664212,28.801073 c 0.416,0.202667 0.833333,0.416 1.249333,0.634667 0.105333,0.06267 0.109333,0.130666 0.02133,0.204 -0.088,0.06667 -0.177333,0.134666 -0.254666,0.218666 -0.428,0.290667 -0.86,0.582667 -1.297334,0.869334 -0.104,0.09333 -0.213333,0.188 -0.322666,0.281333 -0.09333,0.07733 -0.204,0.130667 -0.322667,0.161333 -0.08933,-0.0053 -0.166667,-0.04133 -0.24,-0.09333 -0.136,-0.1 -0.26,-0.209333 -0.385333,-0.324 -0.442667,-0.296 -0.88,-0.593333 -1.317334,-0.894667 -0.12,-0.07333 -0.229333,-0.161333 -0.324,-0.261333 0,-0.036 0.01067,-0.072 0.032,-0.109333 0.432,-0.254667 0.874667,-0.484 1.328,-0.686667 0.245334,-0.114667 0.5,-0.209333 0.754667,-0.292 0.193336,-0.02134 0.381336,0.01066 0.56267,0.08266 0.166666,0.07867 0.344,0.146666 0.516,0.209333 z"
       style="fill:#fefefd;fill-opacity:1;fill-rule:evenodd;stroke:none;stroke-width:1.33333"
       id="path1232" /><path
       d="m -39.533546,29.858406 c 0.437334,0.301334 0.874667,0.598667 1.317334,0.894667 0.125333,0.114667 0.249333,0.224 0.385333,0.324 0.07333,0.052 0.150667,0.088 0.24,0.09333 0.118667,-0.03066 0.229333,-0.084 0.322667,-0.16133 0.109333,-0.09333 0.218666,-0.188 0.322666,-0.281333 0.437334,-0.286667 0.869334,-0.578667 1.297334,-0.869334 0.109333,0.05733 0.213333,0.118667 0.312,0.192 -0.0053,0.07333 -0.036,0.130667 -0.09867,0.182667 -0.5,0.369333 -1.010667,0.718667 -1.532,1.057333 -0.12933,0.125334 -0.26533,0.238667 -0.410664,0.344 -0.172,0.109334 -0.338666,0.09867 -0.494666,-0.04267 -0.109334,-0.09333 -0.213334,-0.186667 -0.324,-0.281334 -0.561334,-0.348 -1.104,-0.728 -1.629334,-1.129333 -0.02133,-0.03733 -0.032,-0.068 -0.02133,-0.109333 0.09467,-0.08933 0.198667,-0.161334 0.313333,-0.213334 z"
       style="fill:#747474;fill-opacity:1;fill-rule:evenodd;stroke:none;stroke-width:1.33333"
       id="path1234" /></g></svg>
