<svg width="24" height="24" viewBox="0 0 24 24" fill="none" xmlns="http://www.w3.org/2000/svg">
<path fill-rule="evenodd" clip-rule="evenodd" d="M9.59604 1.11359C9.71588 1.11486 9.83043 1.0996 9.93969 1.06779C11.3755 0.973736 12.8111 0.977551 14.2467 1.07924C15.5484 1.18066 16.8085 1.46308 18.0269 1.9265C20.0525 2.76044 21.4386 4.20689 22.185 6.26585C22.6119 7.50549 22.8639 8.78021 22.9411 10.09C23.0478 11.7347 23.0096 13.3758 22.8265 15.0133C22.6895 16.1642 22.3916 17.271 21.933 18.3336C21.0824 20.1761 19.704 21.447 17.7978 22.1463C16.2531 22.6682 14.6647 22.943 13.0325 22.9706C11.1966 23.0661 9.37913 22.9287 7.57997 22.5585C4.26839 21.8208 2.22559 19.8018 1.45158 16.5017C1.12311 15.0161 0.974199 13.5124 1.00483 11.9906C0.968176 10.3724 1.14 8.77709 1.52031 7.20471C2.33171 4.11908 4.2905 2.20701 7.39669 1.46852C8.12048 1.29157 8.8536 1.17326 9.59604 1.11359Z" fill="url(#paint0_radial_8_22)"/>
<path fill-rule="evenodd" clip-rule="evenodd" d="M18.491 7.18309C18.4839 7.18309 18.4767 7.18309 18.4695 7.18309C18.1647 6.83882 17.8412 6.51171 17.499 6.2018C17.207 5.99303 16.8799 5.89598 16.5177 5.91065C16.2618 5.88988 16.0282 5.951 15.8168 6.09397C15.7952 6.10835 15.7736 6.10835 15.7521 6.09397C15.324 5.66953 14.8999 5.24178 14.4796 4.81074C12.8406 4.78557 11.2015 4.78199 9.56238 4.79996C9.14604 5.23787 8.72191 5.66921 8.28994 6.09397C8.26838 6.10835 8.24681 6.10835 8.22524 6.09397C8.06116 5.98896 7.88145 5.93144 7.68607 5.92143C7.20979 5.84989 6.79284 5.97211 6.4352 6.28807C6.14329 6.58358 5.84856 6.87473 5.55096 7.16152C5.54378 7.16152 5.53658 7.16152 5.52939 7.16152C5.47785 7.06915 5.43472 6.9721 5.39999 6.87037C5.41063 6.80957 5.43579 6.75566 5.47548 6.70862C5.80258 6.35277 6.14405 6.0113 6.4999 5.6842C6.82737 5.42255 7.20121 5.31471 7.62137 5.3607C7.85511 5.37512 8.07078 5.44343 8.26838 5.56558C8.69523 5.12792 9.12656 4.69301 9.56238 4.26079C11.2015 4.2464 12.8405 4.2464 14.4796 4.26079C14.9154 4.69301 15.3468 5.12792 15.7736 5.56558C16.1153 5.36486 16.4819 5.30374 16.8735 5.38226C17.1441 5.43033 17.3813 5.54535 17.5852 5.72733C17.9285 6.06338 18.2628 6.40485 18.5881 6.75175C18.6121 6.79251 18.6301 6.83565 18.642 6.88115C18.5915 6.98217 18.5412 7.0828 18.491 7.18309Z" fill="#F06246"/>
<path fill-rule="evenodd" clip-rule="evenodd" d="M18.4695 7.18309C18.3737 7.3804 18.2838 7.58171 18.1999 7.78696C18.1855 7.82291 18.1855 7.85884 18.1999 7.89479C18.236 7.97073 18.2612 8.04979 18.2754 8.13203C18.261 8.20046 18.2358 8.26516 18.1999 8.32613C18.1855 8.36208 18.1855 8.39801 18.1999 8.43396C18.3128 8.75492 18.4314 9.07122 18.5558 9.3829C18.003 11.6246 17.4243 13.8604 16.8196 16.0902C16.5874 16.6027 16.2388 17.016 15.7737 17.3303C14.6492 18.1262 13.5062 18.8954 12.3445 19.6379C12.0267 19.7435 11.732 19.7004 11.4603 19.5085C10.3629 18.7849 9.27742 18.0444 8.20371 17.2871C7.60084 16.8544 7.21623 16.2757 7.04989 15.551C6.50272 13.5162 5.98154 11.4745 5.4863 9.42603C5.60813 9.08155 5.73035 8.73648 5.85293 8.39083C5.81528 8.29945 5.78651 8.206 5.76667 8.11046C5.7952 8.01764 5.82395 7.92419 5.85293 7.83009C5.76891 7.59948 5.66826 7.37663 5.551 7.16152C5.8486 6.87473 6.14333 6.58357 6.43524 6.28807C6.79288 5.97211 7.20983 5.84989 7.68611 5.92143C7.88148 5.93144 8.0612 5.98896 8.22528 6.09397C8.24685 6.10835 8.26841 6.10835 8.28998 6.09397C8.72194 5.66921 9.14607 5.23787 9.56242 4.79996C11.2015 4.78199 12.8406 4.78557 14.4796 4.81074C14.8999 5.24177 15.3241 5.66953 15.7521 6.09397C15.7737 6.10835 15.7952 6.10835 15.8168 6.09397C16.0282 5.951 16.2619 5.88988 16.5177 5.91065C16.8799 5.89598 17.207 5.99303 17.499 6.2018C17.8413 6.51171 18.1648 6.83882 18.4695 7.18309Z" fill="#ED5132"/>
<path fill-rule="evenodd" clip-rule="evenodd" d="M17.5205 9.7711C17.4652 9.85549 17.4005 9.93458 17.3264 10.0083C16.6518 10.6075 15.9868 11.2185 15.3315 11.8415C15.3186 12.0107 15.351 12.1689 15.4286 12.316C15.5031 12.5071 15.5714 12.7012 15.6334 12.8983C15.6488 13.0442 15.6381 13.188 15.6011 13.3296C15.5288 13.4956 15.4389 13.6537 15.3315 13.8041C15.1338 13.9874 14.9361 14.1707 14.7384 14.354C14.6565 14.4228 14.563 14.4443 14.4581 14.4187C13.6942 14.0535 13.0113 13.5754 12.4092 12.9846C12.3483 12.9061 12.2872 12.8271 12.2259 12.7473C12.2175 12.6786 12.2319 12.6139 12.269 12.5532C12.701 12.1679 13.1287 11.7797 13.5523 11.3886C13.6392 11.3154 13.6787 11.2219 13.6709 11.1082C13.5407 10.7567 13.4005 10.4116 13.2503 10.073C13.1228 9.77462 13.1803 9.51942 13.4229 9.30742C13.7962 9.14599 14.1701 8.99142 14.5443 8.84373C14.9185 8.72261 15.2851 8.58243 15.6442 8.42318C15.2505 8.34927 14.8515 8.30253 14.4473 8.28299C14.2583 8.28485 14.075 8.3172 13.8973 8.38004C13.5546 8.49668 13.2167 8.62608 12.8837 8.76825C12.8222 8.82303 12.7862 8.89133 12.7758 8.97313C12.7996 9.1137 12.8284 9.25029 12.8621 9.3829C12.9667 9.87285 13.0781 10.3617 13.1964 10.8494C13.2177 10.9352 13.2069 11.0142 13.1641 11.0867C12.8061 11.2409 12.4323 11.3271 12.0426 11.3455C11.6485 11.3242 11.2675 11.2451 10.8995 11.1082C10.885 11.0917 10.8671 11.0773 10.8456 11.0651C10.8312 10.9788 10.8312 10.8926 10.8456 10.8063C10.9594 10.3176 11.0708 9.82879 11.1799 9.33977C11.2059 9.224 11.2347 9.10898 11.2662 8.9947C11.2604 8.91613 11.2316 8.84783 11.1799 8.78981C10.7697 8.61471 10.3527 8.45656 9.92903 8.31534C9.45959 8.29035 8.9923 8.31192 8.52719 8.38004C8.48954 8.3902 8.45358 8.40459 8.41936 8.42318C8.78349 8.60087 9.15731 8.75544 9.54083 8.88686C9.91288 9.01931 10.2795 9.16667 10.6407 9.32898C10.8408 9.52684 10.8911 9.76047 10.7917 10.0299C10.6614 10.3593 10.5284 10.69 10.3927 11.022C10.362 11.1586 10.3872 11.2808 10.4682 11.3886C10.5285 11.4597 10.5932 11.528 10.6623 11.5935C11.067 11.8976 11.4444 12.2319 11.7946 12.5964C11.8089 12.6539 11.8089 12.7114 11.7946 12.7689C11.7526 12.8503 11.6987 12.9222 11.6328 12.9846C11.3233 13.2905 10.9854 13.5601 10.6192 13.7933C10.2064 13.9744 9.81818 14.1937 9.45456 14.4511C9.38928 14.4325 9.33176 14.4002 9.28203 14.354C9.09921 14.1641 8.90871 13.9807 8.71051 13.8041C8.60309 13.6537 8.51322 13.4956 8.44093 13.3296C8.39887 13.1817 8.38809 13.0308 8.40857 12.8767C8.47491 12.6885 8.54319 12.5015 8.61346 12.316C8.69162 12.1613 8.71679 11.996 8.68894 11.8199C8.11669 11.2836 7.53799 10.7552 6.95282 10.2348C6.81846 10.1041 6.68905 9.97105 6.56461 9.8358C6.50343 9.70621 6.48544 9.5696 6.5107 9.42603C6.60236 9.09181 6.74612 8.7827 6.94203 8.49866C7.41667 7.80113 7.91631 7.12177 8.44093 6.4606C8.5633 6.4647 8.68551 6.47908 8.80756 6.50373C9.26262 6.64224 9.7227 6.76085 10.1878 6.85959C10.5137 6.7799 10.8372 6.69005 11.1583 6.59C11.5969 6.44264 12.0426 6.41389 12.4955 6.50373C12.938 6.6225 13.3801 6.74112 13.8218 6.85959C14.3097 6.7529 14.795 6.63428 15.2776 6.50373C15.385 6.47854 15.4929 6.46416 15.6011 6.4606C16.2594 7.21218 16.8597 8.00655 17.4019 8.84373C17.5306 9.14142 17.5701 9.45053 17.5205 9.7711Z" fill="#FEFEFE"/>
<path fill-rule="evenodd" clip-rule="evenodd" d="M5.52941 7.16152C5.53659 7.16152 5.54379 7.16152 5.55097 7.16152C5.66823 7.37663 5.76889 7.59948 5.85291 7.83009C5.82392 7.92419 5.79518 8.01764 5.76664 8.11046C5.75946 8.11046 5.75226 8.11046 5.74508 8.11046C5.6449 7.89572 5.53346 7.68723 5.41079 7.48502C5.39852 7.38002 5.43445 7.29375 5.51862 7.22622C5.52904 7.20578 5.53262 7.18421 5.52941 7.16152Z" fill="#CDCACA"/>
<path fill-rule="evenodd" clip-rule="evenodd" d="M18.4695 7.18309C18.4767 7.18309 18.4839 7.18309 18.4911 7.18309C18.5797 7.26677 18.6264 7.3674 18.6312 7.48502C18.4914 7.68559 18.38 7.90126 18.297 8.13203C18.2898 8.13203 18.2826 8.13203 18.2754 8.13203C18.2612 8.04979 18.236 7.97073 18.1999 7.89479C18.1855 7.85884 18.1855 7.82291 18.1999 7.78696C18.2838 7.58171 18.3736 7.3804 18.4695 7.18309Z" fill="#CDCACA"/>
<path fill-rule="evenodd" clip-rule="evenodd" d="M18.2754 8.13203C18.2826 8.13203 18.2898 8.13203 18.297 8.13203C18.414 8.45779 18.529 8.7849 18.642 9.11332C18.6124 9.20157 18.5908 9.29144 18.5773 9.3829C18.5701 9.3829 18.5629 9.3829 18.5558 9.3829C18.4314 9.07122 18.3128 8.75492 18.1999 8.43396C18.1855 8.39801 18.1855 8.36208 18.1999 8.32613C18.2358 8.26516 18.2609 8.20046 18.2754 8.13203Z" fill="#F06549"/>
<path fill-rule="evenodd" clip-rule="evenodd" d="M5.74508 8.11046C5.75226 8.11046 5.75947 8.11046 5.76665 8.11046C5.78649 8.206 5.81526 8.29945 5.85292 8.39083C5.73033 8.73648 5.60811 9.08155 5.48628 9.42603C5.4791 9.42603 5.4719 9.42603 5.46471 9.42603C5.43124 9.30556 5.41328 9.18334 5.4108 9.0594C5.52868 8.74472 5.64012 8.4284 5.74508 8.11046Z" fill="#F06549"/>
<path fill-rule="evenodd" clip-rule="evenodd" d="M11.1799 9.33977C10.7601 9.15537 10.3287 8.99362 9.88591 8.85451C9.78526 8.84013 9.68463 8.84013 9.58398 8.85451C9.56422 8.86051 9.54986 8.87129 9.54085 8.88686C9.15732 8.75544 8.78351 8.60087 8.41937 8.42318C8.4536 8.40459 8.48955 8.3902 8.52721 8.38004C8.99232 8.31192 9.4596 8.29035 9.92905 8.31534C10.3527 8.45656 10.7697 8.61471 11.1799 8.78981C11.2317 8.84783 11.2604 8.91613 11.2662 8.9947C11.2347 9.10898 11.206 9.224 11.1799 9.33977Z" fill="#BF432A"/>
<path fill-rule="evenodd" clip-rule="evenodd" d="M14.5444 8.84373C14.3619 8.83551 14.1822 8.8535 14.0052 8.89765C13.6241 9.01868 13.2503 9.15887 12.8837 9.3182C12.8646 9.33599 12.8574 9.35756 12.8621 9.3829C12.8284 9.25029 12.7996 9.1137 12.7759 8.97313C12.7862 8.89133 12.8222 8.82303 12.8837 8.76825C13.2168 8.62608 13.5547 8.49668 13.8974 8.38005C14.075 8.3172 14.2584 8.28485 14.4473 8.28299C14.8516 8.30253 15.2506 8.34927 15.6443 8.42318C15.2852 8.58243 14.9185 8.72261 14.5444 8.84373Z" fill="#BE432A"/>
<path fill-rule="evenodd" clip-rule="evenodd" d="M11.1799 9.33977C11.0708 9.82879 10.9594 10.3176 10.8456 10.8063C10.8312 10.8926 10.8312 10.9788 10.8456 11.0651C10.8671 11.0773 10.885 11.0917 10.8995 11.1082C10.8687 11.2357 10.8472 11.3651 10.8348 11.4964C10.8303 11.5506 10.8447 11.5973 10.878 11.6366C11.2722 11.7956 11.682 11.8854 12.1073 11.9062C12.4709 11.8602 12.8232 11.7704 13.1641 11.6366C13.197 11.6011 13.2114 11.558 13.2072 11.5072C13.1843 11.3964 13.1627 11.2849 13.1425 11.1729C13.1451 11.1422 13.1523 11.1135 13.1641 11.0867C13.2069 11.0142 13.2177 10.9352 13.1964 10.8494C13.0781 10.3617 12.9667 9.87286 12.8621 9.3829C12.8574 9.35756 12.8646 9.33599 12.8837 9.3182C13.2502 9.15887 13.6241 9.01868 14.0052 8.89765C14.1821 8.8535 14.3619 8.83551 14.5443 8.84373C14.1701 8.99142 13.7962 9.14599 13.4229 9.30742C13.1803 9.51942 13.1228 9.77462 13.2503 10.073C13.2338 10.0895 13.223 10.1111 13.218 10.1377C13.2036 10.2456 13.2036 10.3534 13.218 10.4612C13.3232 10.7734 13.4346 11.0825 13.5523 11.3886C13.1287 11.7797 12.701 12.1679 12.269 12.5532C12.2319 12.6139 12.2175 12.6786 12.2259 12.7473C12.2872 12.8271 12.3483 12.9061 12.4092 12.9846C12.2464 13.0728 12.1997 13.2022 12.269 13.3728C12.4867 13.6013 12.7132 13.817 12.9484 14.0198C12.7741 13.958 12.6015 13.8897 12.4308 13.8149C12.2509 13.7375 12.064 13.7087 11.87 13.7286C11.612 13.811 11.3604 13.908 11.1152 14.0198C11.3218 13.8241 11.5339 13.6156 11.7514 13.3943C11.849 13.2187 11.8095 13.0822 11.6328 12.9846C11.6987 12.9222 11.7526 12.8503 11.7946 12.7689C11.8089 12.7114 11.8089 12.6539 11.7946 12.5964C11.4444 12.2319 11.067 11.8976 10.6623 11.5935C10.5932 11.528 10.5285 11.4597 10.4682 11.3886C10.5973 11.0842 10.7159 10.7751 10.8241 10.4612C10.8429 10.3147 10.8321 10.1709 10.7917 10.0299C10.8911 9.76047 10.8408 9.52684 10.6407 9.32898C10.2795 9.16667 9.91288 9.01931 9.54083 8.88687C9.54985 8.87129 9.56421 8.86051 9.58397 8.85451C9.68462 8.84013 9.78525 8.84013 9.8859 8.85451C10.3287 8.99362 10.7601 9.15537 11.1799 9.33977Z" fill="#ED5233"/>
<path fill-rule="evenodd" clip-rule="evenodd" d="M18.5558 9.3829C18.5629 9.3829 18.5702 9.3829 18.5773 9.3829C18.5766 9.48142 18.5982 9.57487 18.642 9.66327C18.0603 12.0006 17.4529 14.3298 16.8196 16.6509C16.587 17.1351 16.2527 17.5341 15.8168 17.8479C14.6698 18.6568 13.5052 19.4404 12.323 20.1986C12.0507 20.2889 11.7919 20.2602 11.5466 20.1124C10.3307 19.3248 9.13736 18.5053 7.96647 17.6538C7.63484 17.3606 7.37964 17.0119 7.20085 16.6078C6.57045 14.2947 5.97019 11.9727 5.40002 9.6417C5.43037 9.57224 5.45194 9.50033 5.46472 9.42603C5.47191 9.42603 5.47911 9.42603 5.48629 9.42603C5.98153 11.4745 6.50271 13.5162 7.04988 15.551C7.21623 16.2757 7.60083 16.8544 8.20371 17.2871C9.27741 18.0444 10.3629 18.7849 11.4603 19.5085C11.7319 19.7004 12.0267 19.7435 12.3445 19.6379C13.5062 18.8954 14.6492 18.1262 15.7737 17.3303C16.2388 17.016 16.5874 16.6027 16.8196 16.0902C17.4243 13.8604 18.003 11.6246 18.5558 9.3829Z" fill="#CDCACA"/>
<path fill-rule="evenodd" clip-rule="evenodd" d="M17.5206 9.7711C17.5403 9.92886 17.5439 10.087 17.5313 10.2456C17.515 10.3164 17.4862 10.3811 17.4451 10.4397C16.8232 11.004 16.2014 11.5683 15.5795 12.1327C15.516 12.1852 15.4657 12.2463 15.4286 12.316C15.351 12.1689 15.3186 12.0107 15.3315 11.8415C15.9868 11.2185 16.6518 10.6075 17.3265 10.0083C17.4005 9.93458 17.4652 9.85549 17.5206 9.7711Z" fill="#BE4229"/>
<path fill-rule="evenodd" clip-rule="evenodd" d="M6.56463 9.8358C6.68907 9.97105 6.81847 10.1041 6.95283 10.2348C7.538 10.7552 8.1167 11.2836 8.68896 11.8199C8.7168 11.996 8.69163 12.1614 8.61347 12.316C8.51002 12.2017 8.40218 12.0903 8.28997 11.9817C7.74795 11.5044 7.21236 11.0192 6.68325 10.5259C6.48988 10.3209 6.45035 10.0909 6.56463 9.8358Z" fill="#BE4229"/>
<path fill-rule="evenodd" clip-rule="evenodd" d="M10.7917 10.0299C10.8321 10.1709 10.8429 10.3147 10.8241 10.4612C10.7159 10.7751 10.5973 11.0842 10.4682 11.3886C10.3872 11.2808 10.3621 11.1586 10.3927 11.022C10.5284 10.69 10.6614 10.3593 10.7917 10.0299Z" fill="#BF442B"/>
<path fill-rule="evenodd" clip-rule="evenodd" d="M13.2503 10.073C13.4005 10.4116 13.5407 10.7567 13.6709 11.1082C13.6787 11.2219 13.6392 11.3154 13.5523 11.3886C13.4346 11.0825 13.3232 10.7734 13.218 10.4612C13.2036 10.3534 13.2036 10.2456 13.218 10.1377C13.223 10.1111 13.2338 10.0895 13.2503 10.073Z" fill="#BF452C"/>
<path fill-rule="evenodd" clip-rule="evenodd" d="M13.1641 11.0867C13.1523 11.1135 13.1451 11.1422 13.1425 11.1729C13.1627 11.2849 13.1843 11.3964 13.2072 11.5072C13.2114 11.558 13.197 11.6011 13.1641 11.6366C12.8232 11.7704 12.4709 11.8602 12.1073 11.9062C11.682 11.8854 11.2722 11.7956 10.878 11.6366C10.8447 11.5973 10.8303 11.5506 10.8348 11.4964C10.8472 11.3651 10.8687 11.2357 10.8995 11.1082C11.2675 11.2451 11.6485 11.3242 12.0426 11.3455C12.4323 11.3271 12.8061 11.2409 13.1641 11.0867Z" fill="#BE4229"/>
<path fill-rule="evenodd" clip-rule="evenodd" d="M12.4092 12.9846C13.0113 13.5754 13.6942 14.0535 14.4581 14.4187C14.5631 14.4443 14.6565 14.4228 14.7385 14.354C14.9362 14.1707 15.1338 13.9874 15.3315 13.8041C15.439 13.6537 15.5288 13.4956 15.6011 13.3296C15.6761 13.6981 15.5935 14.0288 15.3531 14.3217C15.1763 14.5057 14.993 14.6818 14.8032 14.8501C14.7443 14.9017 14.6796 14.9448 14.6091 14.9795C14.5731 14.9939 14.5372 14.9939 14.5012 14.9795C14.4073 14.9397 14.3138 14.9001 14.2209 14.8609C14.3095 14.7846 14.3023 14.7163 14.1993 14.656C13.7837 14.4374 13.3667 14.2253 12.9484 14.0198C12.7132 13.817 12.4867 13.6013 12.2691 13.3728C12.1997 13.2022 12.2464 13.0728 12.4092 12.9846Z" fill="#BE4229"/>
<path fill-rule="evenodd" clip-rule="evenodd" d="M11.6328 12.9846C11.8095 13.0822 11.849 13.2187 11.7514 13.3943C11.5339 13.6156 11.3218 13.8241 11.1152 14.0198C10.6605 14.2238 10.2184 14.4538 9.78885 14.7099C9.76709 14.7428 9.75631 14.7787 9.7565 14.8177C9.66812 14.8662 9.58185 14.9202 9.4977 14.9795C9.46175 14.9939 9.42582 14.9939 9.38987 14.9795C9.19859 14.7953 9.00089 14.6192 8.79678 14.4511C8.61344 14.2529 8.48404 14.0228 8.40858 13.761C8.38979 13.614 8.40058 13.4702 8.44093 13.3296C8.51322 13.4956 8.60309 13.6537 8.71051 13.8041C8.90871 13.9807 9.09921 14.1641 9.28203 14.354C9.33177 14.4002 9.38928 14.4325 9.45457 14.4511C9.81818 14.1937 10.2064 13.9744 10.6192 13.7933C10.9854 13.5601 11.3233 13.2905 11.6328 12.9846Z" fill="#BE4229"/>
<path fill-rule="evenodd" clip-rule="evenodd" d="M12.9484 14.0198C13.3667 14.2253 13.7837 14.4374 14.1993 14.656C14.3023 14.7163 14.3095 14.7846 14.2208 14.8609C14.1277 14.9253 14.0415 14.9972 13.962 15.0765C13.5344 15.3708 13.1031 15.6619 12.668 15.95C12.5602 16.0434 12.4524 16.1369 12.3445 16.2304C12.2483 16.3072 12.1404 16.3612 12.021 16.3921C11.9322 16.3829 11.8531 16.3505 11.7838 16.2951C11.6481 16.1954 11.5187 16.0875 11.3956 15.9716C10.9537 15.6769 10.5152 15.3785 10.08 15.0765C9.95867 15.0053 9.85084 14.9191 9.7565 14.8177C9.75631 14.7787 9.76709 14.7428 9.78885 14.7099C10.2184 14.4538 10.6605 14.2238 11.1152 14.0198C11.3604 13.908 11.612 13.811 11.87 13.7286C12.064 13.7087 12.2509 13.7375 12.4308 13.8149C12.6015 13.8897 12.7741 13.958 12.9484 14.0198Z" fill="#FEFEFD"/>
<path fill-rule="evenodd" clip-rule="evenodd" d="M10.08 15.0765C10.5152 15.3785 10.9537 15.6769 11.3956 15.9716C11.5187 16.0875 11.6481 16.1954 11.7838 16.2951C11.8531 16.3505 11.9322 16.3829 12.021 16.3921C12.1404 16.3612 12.2483 16.3072 12.3445 16.2304C12.4524 16.1369 12.5602 16.0434 12.668 15.95C13.1031 15.6619 13.5344 15.3708 13.962 15.0765C14.0711 15.1329 14.1753 15.1976 14.2748 15.2706C14.2693 15.3425 14.237 15.4036 14.1777 15.454C13.6786 15.8222 13.1681 16.1744 12.6465 16.5107C12.5162 16.6338 12.3796 16.7489 12.2367 16.8558C12.061 16.9652 11.8957 16.9509 11.7407 16.8127C11.6328 16.7192 11.525 16.6257 11.4172 16.5323C10.8566 16.1801 10.3138 15.8027 9.78887 15.4C9.76327 15.3667 9.75609 15.3308 9.7673 15.2922C9.85985 15.2012 9.96408 15.1293 10.08 15.0765Z" fill="#BE4128"/>
<defs>
<radialGradient id="paint0_radial_8_22" cx="0" cy="0" r="1" gradientUnits="userSpaceOnUse" gradientTransform="translate(12 1) rotate(90) scale(22)">
<stop stop-color="#FAFAFA"/>
<stop offset="1" stop-color="#C0C0C0"/>
</radialGradient>
</defs>
</svg>
