<?xml version="1.0" encoding="UTF-8" standalone="no"?>
<!-- Created with Inkscape (http://www.inkscape.org/) -->

<svg
   width="24"
   height="24"
   viewBox="0 0 6.3499999 6.35"
   version="1.1"
   id="svg2180"
   inkscape:version="1.2.2 (b0a8486541, 2022-12-01)"
   sodipodi:docname="google-chrome_bw.svg"
   xmlns:inkscape="http://www.inkscape.org/namespaces/inkscape"
   xmlns:sodipodi="http://sodipodi.sourceforge.net/DTD/sodipodi-0.dtd"
   xmlns="http://www.w3.org/2000/svg"
   xmlns:svg="http://www.w3.org/2000/svg">
  <sodipodi:namedview
     id="namedview2182"
     pagecolor="#ffffff"
     bordercolor="#000000"
     borderopacity="0.25"
     inkscape:showpageshadow="2"
     inkscape:pageopacity="0.0"
     inkscape:pagecheckerboard="0"
     inkscape:deskcolor="#d1d1d1"
     inkscape:document-units="mm"
     showgrid="false"
     inkscape:zoom="24.174186"
     inkscape:cx="-2.5647192"
     inkscape:cy="10.672541"
     inkscape:window-width="2560"
     inkscape:window-height="998"
     inkscape:window-x="1680"
     inkscape:window-y="0"
     inkscape:window-maximized="1"
     inkscape:current-layer="layer1" />
  <defs
     id="defs2177">
    <radialGradient
       fx="0"
       fy="0"
       cx="0"
       cy="0"
       r="1"
       gradientUnits="userSpaceOnUse"
       gradientTransform="matrix(0,5.8208332,-5.8208332,0,3.1747571,0.26456874)"
       spreadMethod="pad"
       id="radialGradient868-3">
      <stop
         style="stop-opacity:1;stop-color:#fafafa"
         offset="0"
         id="stop864-6" />
      <stop
         style="stop-opacity:1;stop-color:#c0c0c0"
         offset="1"
         id="stop866-7" />
    </radialGradient>
  </defs>
  <g
     inkscape:label="Camada 1"
     inkscape:groupmode="layer"
     id="layer1">
    <path
       d="m 2.5381164,0.29491292 c 0.03175,0 0.062089,-0.004233 0.091017,-0.0123472 0.3802945,-0.0250472 0.7605889,-0.0236361 1.139825,0.002822 0.3443111,0.0275167 0.6776861,0.10195277 1.0004778,0.22436666 0.5358694,0.2204861 0.9024055,0.60360272 1.1010194,1.14793882 0.1114777,0.3280834 0.1788583,0.6656917 0.1996722,1.0114139 0.027517,0.4356806 0.017992,0.8695972 -0.030339,1.3038666 C 6.0027468,4.2774212 5.9240774,4.5695212 5.8027218,4.850685 5.5780024,5.3385767 5.2128774,5.6747739 4.708758,5.8592767 4.3005941,5.9972128 3.8804358,6.0702378 3.4475774,6.0772933 2.962508,6.1033989 2.4816719,6.0660045 2.0050691,5.968285 1.1298275,5.7739045 0.58831362,5.2394461 0.38440807,4.3656156 0.29762474,3.9729739 0.25740807,3.5746878 0.26587474,3.1721684 0.25634974,2.7449545 0.30150529,2.321974 0.40239974,1.9056962 0.6172414,1.090074 1.1354719,0.58419069 1.9567386,0.3887518 2.1482969,0.34183236 2.3426775,0.31008236 2.5381164,0.29491292 Z"
       style="fill:url(#radialGradient868-3);fill-rule:evenodd;stroke:none;stroke-width:0.352778"
       id="path870" />
    <path
       d="M 1.5880287,1.9854065 C 1.3288786,2.329711 1.1906407,2.750323 1.1906407,3.180888 1.1876916,4.2779442 2.0790498,5.1648788 3.175,5.1593492 L 3.8691387,3.7364202 2.5803926,3.4732152 Z"
       style="fill:#5c5c5c;fill-opacity:1;fill-rule:evenodd;stroke:none;stroke-width:0.368635"
       id="path872" />
    <path
       d="M 3.2745314,2.2821572 3.8691387,3.7308906 3.175,5.1593492 c 1.0974248,0.00295 1.9873084,-0.8869345 1.9843593,-1.9843594 0,-0.3096529 -0.071884,-0.6163568 -0.2130708,-0.8928326 z"
       style="fill:#a0a0a0;fill-opacity:1;fill-rule:evenodd;stroke:none;stroke-width:0.368635"
       id="path874" />
    <path
       d="M 3.175,1.1906306 C 2.5501646,1.189156 1.9610868,1.4844323 1.5880287,1.9854065 L 2.5789181,3.4732152 3.8691387,3.7308906 3.2745314,2.2821572 H 4.9462885 C 4.6108313,1.6112425 3.9236966,1.189156 3.175,1.1906306 Z"
       style="fill:#939292;fill-opacity:1;fill-rule:evenodd;stroke:none;stroke-width:0.368635"
       id="path876" />
    <path
       d="m 3.175,2.2865808 c 0.4910212,-0.00147 0.8898836,0.397388 0.8884091,0.888409 C 4.0648824,3.6660109 3.6660212,4.0648735 3.175,4.063399 2.6839789,4.0648723 2.2851164,3.6660109 2.2865909,3.1749898 2.2851175,2.6839688 2.6839789,2.2851063 3.175,2.2865808 Z"
       style="fill:#ffffff;fill-opacity:1;fill-rule:nonzero;stroke:none;stroke-width:0.368635"
       id="path998" />
    <path
       d="m 3.175,2.5081302 c 0.3686344,0 0.6679657,0.2982252 0.6668597,0.6668596 0,0.3686345 -0.2982253,0.6668598 -0.6668597,0.6668598 -0.3686344,0 -0.6668597,-0.2982253 -0.6668597,-0.6668598 0,-0.3686344 0.2982253,-0.6668596 0.6668597,-0.6668596 z"
       style="fill:#9f9f9f;fill-opacity:1;fill-rule:nonzero;stroke:none;stroke-width:0.368635"
       id="path1000" />
  </g>
</svg>
