<svg xmlns="http://www.w3.org/2000/svg" xml:space="preserve" width="24" height="24" fill="none"><defs><radialGradient id="a" cx="0" cy="0" r="1" fx="0" fy="0" gradientTransform="matrix(0 11 -11 0 -22 1)" gradientUnits="userSpaceOnUse" spreadMethod="pad"><stop offset="0" style="stop-opacity:1;stop-color:#5e5e66"/><stop offset="1" style="stop-color:#1b1b1b;stop-opacity:1"/></radialGradient><radialGradient id="c" cx="-7907.187" cy="-8515.121" r="80.797" fx="-7907.187" fy="-8515.121" gradientTransform="matrix(.20007 0 0 .20007 1600.415 1710.517)" gradientUnits="userSpaceOnUse" spreadMethod="pad"><stop offset="0" style="stop-opacity:1;stop-color:#ffbd4f"/><stop offset=".129" style="stop-opacity:1;stop-color:#ffbd4f"/><stop offset=".186" style="stop-opacity:1;stop-color:#ffac31"/><stop offset=".247" style="stop-opacity:1;stop-color:#ff9d17"/><stop offset=".283" style="stop-opacity:1;stop-color:#ff980e"/><stop offset=".403" style="stop-opacity:1;stop-color:#ff563b"/><stop offset=".467" style="stop-opacity:1;stop-color:#ff3750"/><stop offset=".71" style="stop-opacity:1;stop-color:#f5156c"/><stop offset=".782" style="stop-opacity:1;stop-color:#eb0878"/><stop offset=".86" style="stop-opacity:1;stop-color:#e50080"/><stop offset="1" style="stop-opacity:1;stop-color:#e50080"/></radialGradient><radialGradient id="d" cx="-7926.97" cy="-8533.457" r="58.534" fx="-7926.97" fy="-8533.457" gradientTransform="matrix(.15246 0 0 .15246 1218.794 1302.5)" gradientUnits="userSpaceOnUse" spreadMethod="pad"><stop offset="0" style="stop-opacity:1;stop-color:#fff44f"/><stop offset=".132" style="stop-opacity:1;stop-color:#fff44f"/><stop offset=".252" style="stop-opacity:1;stop-color:#ffdc3e"/><stop offset=".506" style="stop-opacity:1;stop-color:#ff9d12"/><stop offset=".526" style="stop-opacity:1;stop-color:#ff980e"/><stop offset="1" style="stop-opacity:1;stop-color:#ff980e"/></radialGradient><radialGradient id="e" cx="-7945.648" cy="-8460.984" r="38.471" fx="-7945.648" fy="-8460.984" gradientTransform="matrix(.15246 0 0 .15246 1218.794 1302.5)" gradientUnits="userSpaceOnUse" spreadMethod="pad"><stop offset="0" style="stop-opacity:1;stop-color:#3a8ee6"/><stop offset=".353" style="stop-opacity:1;stop-color:#3a8ee6"/><stop offset=".472" style="stop-opacity:1;stop-color:#5c79f0"/><stop offset=".669" style="stop-opacity:1;stop-color:#9059ff"/><stop offset="1" style="stop-opacity:1;stop-color:#c139e6"/></radialGradient><radialGradient id="f" cx="-7937.731" cy="-8518.427" r="27.676" fx="-7937.731" fy="-8518.427" gradientTransform="matrix(.15246 0 0 .15246 1218.794 1302.5)" gradientUnits="userSpaceOnUse" spreadMethod="pad"><stop offset="0" style="stop-opacity:1;stop-color:#ffe226"/><stop offset=".121" style="stop-opacity:1;stop-color:#ffdb27"/><stop offset=".295" style="stop-opacity:1;stop-color:#ffc82a"/><stop offset=".502" style="stop-opacity:1;stop-color:#ffa930"/><stop offset=".732" style="stop-opacity:1;stop-color:#ff7e37"/><stop offset=".792" style="stop-opacity:1;stop-color:#ff7139"/><stop offset="1" style="stop-opacity:1;stop-color:#ff7139"/></radialGradient><radialGradient id="g" cx="-7915.977" cy="-8535.981" r="118.081" fx="-7915.977" fy="-8535.981" gradientTransform="matrix(.15246 0 0 .15246 1218.794 1302.5)" gradientUnits="userSpaceOnUse" spreadMethod="pad"><stop offset="0" style="stop-opacity:1;stop-color:#fff44f"/><stop offset=".113" style="stop-opacity:1;stop-color:#fff44f"/><stop offset=".456" style="stop-opacity:1;stop-color:#ff980e"/><stop offset=".622" style="stop-opacity:1;stop-color:#ff5634"/><stop offset=".716" style="stop-opacity:1;stop-color:#ff3647"/><stop offset=".904" style="stop-opacity:1;stop-color:#e31587"/><stop offset="1" style="stop-opacity:1;stop-color:#e31587"/></radialGradient><radialGradient id="h" cx="-7927.165" cy="-8522.859" r="86.499" fx="-7927.165" fy="-8522.859" gradientTransform="matrix(.016 .1517 -.09956 .01052 -711.238 1294.296)" gradientUnits="userSpaceOnUse" spreadMethod="pad"><stop offset="0" style="stop-opacity:1;stop-color:#fff44f"/><stop offset=".06" style="stop-opacity:1;stop-color:#ffe847"/><stop offset=".168" style="stop-opacity:1;stop-color:#ffc830"/><stop offset=".304" style="stop-opacity:1;stop-color:#ff980e"/><stop offset=".356" style="stop-opacity:1;stop-color:#ff8b16"/><stop offset=".455" style="stop-opacity:1;stop-color:#ff672a"/><stop offset=".57" style="stop-opacity:1;stop-color:#ff3647"/><stop offset=".737" style="stop-opacity:1;stop-color:#e31587"/><stop offset="1" style="stop-opacity:1;stop-color:#e31587"/></radialGradient><radialGradient id="i" cx="-7938.383" cy="-8508.176" r="73.72" fx="-7938.383" fy="-8508.176" gradientTransform="matrix(.15246 0 0 .15246 1218.794 1302.5)" gradientUnits="userSpaceOnUse" spreadMethod="pad"><stop offset="0" style="stop-opacity:1;stop-color:#fff44f"/><stop offset=".137" style="stop-opacity:1;stop-color:#fff44f"/><stop offset=".48" style="stop-opacity:1;stop-color:#ff980e"/><stop offset=".592" style="stop-opacity:1;stop-color:#ff5634"/><stop offset=".655" style="stop-opacity:1;stop-color:#ff3647"/><stop offset=".904" style="stop-opacity:1;stop-color:#e31587"/><stop offset="1" style="stop-opacity:1;stop-color:#e31587"/></radialGradient><radialGradient id="j" cx="-7918.923" cy="-8503.861" r="80.686" fx="-7918.923" fy="-8503.861" gradientTransform="matrix(.15246 0 0 .15246 1218.794 1302.5)" gradientUnits="userSpaceOnUse" spreadMethod="pad"><stop offset="0" style="stop-opacity:1;stop-color:#fff44f"/><stop offset=".094" style="stop-opacity:1;stop-color:#fff44f"/><stop offset=".231" style="stop-opacity:1;stop-color:#ffe141"/><stop offset=".509" style="stop-opacity:1;stop-color:#ffaf1e"/><stop offset=".626" style="stop-opacity:1;stop-color:#ff980e"/><stop offset="1" style="stop-opacity:1;stop-color:#ff980e"/></radialGradient><linearGradient id="b" x1="70.786" x2="6.447" y1="12.393" y2="74.468" gradientTransform="matrix(.15246 0 0 .15246 2.9 2.903)" gradientUnits="userSpaceOnUse" spreadMethod="pad"><stop offset="0" style="stop-opacity:1;stop-color:#fff44f"/><stop offset=".048" style="stop-opacity:1;stop-color:#fff44f"/><stop offset=".111" style="stop-opacity:1;stop-color:#ffe847"/><stop offset=".225" style="stop-opacity:1;stop-color:#ffc830"/><stop offset=".368" style="stop-opacity:1;stop-color:#ff980e"/><stop offset=".401" style="stop-opacity:1;stop-color:#ff8b16"/><stop offset=".462" style="stop-opacity:1;stop-color:#ff672a"/><stop offset=".534" style="stop-opacity:1;stop-color:#ff3647"/><stop offset=".705" style="stop-opacity:1;stop-color:#e31587"/><stop offset="1" style="stop-opacity:1;stop-color:#e31587"/></linearGradient></defs><path d="M-24.407 1.115c.12 0 .235-.016.344-.047a31.813 31.813 0 0 1 4.308.01 13.68 13.68 0 0 1 3.781.849c2.026.833 3.41 2.281 4.162 4.338.42 1.24.676 2.516.754 3.823a28.303 28.303 0 0 1-.114 4.928 11.968 11.968 0 0 1-.896 3.317c-.85 1.844-2.23 3.115-4.135 3.812-1.543.522-3.13.798-4.767.824a21.331 21.331 0 0 1-5.452-.412c-3.308-.734-5.354-2.754-6.125-6.057a18.991 18.991 0 0 1-.448-4.51 18.502 18.502 0 0 1 .516-4.787c.812-3.083 2.77-4.995 5.875-5.734a13.692 13.692 0 0 1 2.197-.354z" style="fill:url(#a);fill-rule:evenodd;stroke:none;stroke-width:1.33333" transform="translate(34)"/><g style="stroke-width:1.01607"><g style="stroke-width:1.01607"><path d="M14.473 6.992c-.254-.617-.778-1.281-1.184-1.492a6.19 6.19 0 0 1 .598 1.793v.008c-.668-1.664-1.801-2.336-2.723-3.797a4.566 4.566 0 0 1-.141-.227c-.023-.043-.046-.082-.066-.125a1.05 1.05 0 0 1-.086-.23.017.017 0 0 0-.016-.016c-.003-.004-.007-.004-.011 0l-.004.004v-.004c-1.485.867-1.988 2.477-2.035 3.282a2.952 2.952 0 0 0-1.625.624 1.514 1.514 0 0 0-.153-.113 2.757 2.757 0 0 1-.015-1.445A4.345 4.345 0 0 0 5.59 6.352h-.004c-.234-.297-.219-1.274-.203-1.477a1.13 1.13 0 0 0-.199.102 4.636 4.636 0 0 0-.579.496 5.24 5.24 0 0 0-.55.664 5 5 0 0 0-.793 1.789l-.008.039a5.832 5.832 0 0 0-.059.367v.016a5.172 5.172 0 0 0-.097.812v.031a5.912 5.912 0 0 0 5.41 5.883 5.908 5.908 0 0 0 6.324-4.883 6 6 0 0 1 .027-.23 6.078 6.078 0 0 0-.386-2.969Zm-6.809 4.629.082.039.004.004a.862.862 0 0 0-.086-.043Zm6.227-4.316v-.008Z" style="fill:url(#b);stroke:none;stroke-width:1.01607" transform="matrix(1.31224 0 0 1.31224 .19 .19)"/></g><path d="M20.051 10.494c-.333-.81-1.02-1.68-1.553-1.958.379.738.645 1.533.784 2.353v.016a7.01 7.01 0 0 1-.241 5.233c-.887 1.907-3.04 3.86-6.408 3.768C9 19.798 5.795 17.1 5.195 13.565c-.107-.559 0-.841.052-1.291a6.15 6.15 0 0 0-.123 1.065v.041a7.757 7.757 0 0 0 7.1 7.72 7.753 7.753 0 0 0 8.298-6.408c.01-.102.021-.2.036-.302a7.975 7.975 0 0 0-.507-3.896z" style="fill:url(#c);stroke:none;stroke-width:1.35476" transform="matrix(.98418 0 0 .98418 -.666 -.92)"/><g style="stroke-width:1.0324"><path d="M11.602 7.688a.984.984 0 0 0 .039.027A3.272 3.272 0 0 0 11.09 7c-1.836-1.836-.481-3.984-.25-4.094-1.485.867-1.988 2.477-2.035 3.282.07-.004.14-.012.211-.012a2.989 2.989 0 0 1 2.586 1.512z" style="fill:url(#d);stroke:none;stroke-width:1.0324" transform="matrix(1.29149 0 0 1.29149 .376 .377)"/></g><g style="stroke-width:1.0324"><path d="M9.02 8.055c-.012.148-.532.656-.711.656-1.684 0-1.954 1.016-1.954 1.016.075.855.668 1.558 1.391 1.933.031.016.066.031.098.047a2.584 2.584 0 0 0 .945.219c2.945.14 3.516-3.52 1.391-4.582.5-.067 1.008.058 1.422.344a2.989 2.989 0 0 0-2.586-1.512c-.071 0-.141.008-.211.012a2.952 2.952 0 0 0-1.625.624c.09.079.191.18.406.391.402.395 1.43.805 1.434.852Z" style="fill:url(#e);stroke:none;stroke-width:1.0324" transform="matrix(1.29149 0 0 1.29149 .376 .377)"/></g><g style="stroke-width:1.0324"><path d="m6.906 6.617.121.082a2.716 2.716 0 0 1-.015-1.445 4.403 4.403 0 0 0-1.426 1.098c.031 0 .887-.016 1.32.265z" style="fill:url(#f);stroke:none;stroke-width:1.0324" transform="matrix(1.29149 0 0 1.29149 .376 .377)"/></g><g style="stroke-width:1.0324"><path d="M3.152 9.332c.457 2.695 2.899 4.75 5.672 4.832 2.567.07 4.203-1.418 4.883-2.871a5.38 5.38 0 0 0 .184-3.988v-.008c0-.004-.004-.004 0-.004v.008c.211 1.371-.489 2.695-1.575 3.594l-.004.007c-2.121 1.727-4.148 1.043-4.562.762-.027-.016-.055-.027-.086-.043-1.234-.59-1.746-1.719-1.637-2.683a1.52 1.52 0 0 1-1.398-.879 2.226 2.226 0 0 1 2.172-.09c.699.32 1.496.351 2.219.09-.004-.051-1.032-.457-1.434-.856a7.303 7.303 0 0 0-.402-.387 1.946 1.946 0 0 0-.153-.117l-.125-.082c-.429-.277-1.285-.262-1.316-.262-.235-.296-.219-1.277-.207-1.48a1.052 1.052 0 0 0-.195.105 4.355 4.355 0 0 0-.579.493 4.95 4.95 0 0 0-.554.664 5 5 0 0 0-.793 1.789c-.004.012-.215.929-.11 1.406Z" style="fill:url(#g);stroke:none;stroke-width:1.0324" transform="matrix(1.29149 0 0 1.29149 .376 .377)"/></g><g style="stroke-width:1.0324"><path d="M11.09 7c.219.211.402.453.551.715l.089.074c1.336 1.234.637 2.981.582 3.106 1.09-.899 1.786-2.223 1.579-3.594-.672-1.664-1.805-2.336-2.727-3.797a4.566 4.566 0 0 1-.141-.227c-.023-.043-.046-.082-.066-.125a1.05 1.05 0 0 1-.086-.23.017.017 0 0 0-.016-.016c-.003-.004-.007-.004-.011 0l-.004.004c-.231.106-1.586 2.254.25 4.09Z" style="fill:url(#h);stroke:none;stroke-width:1.0324" transform="matrix(1.29149 0 0 1.29149 .376 .377)"/></g><g style="stroke-width:1.0324"><path d="M11.727 7.789c-.028-.027-.059-.051-.086-.074-.012-.008-.028-.016-.039-.027a2.037 2.037 0 0 0-1.426-.344c2.129 1.062 1.558 4.722-1.387 4.582a2.56 2.56 0 0 1-.945-.219c-.032-.016-.067-.031-.098-.047l.004.004c.41.277 2.438.965 4.559-.766l.003-.007c.055-.121.754-1.868-.585-3.102Z" style="fill:url(#i);stroke:none;stroke-width:1.0324" transform="matrix(1.29149 0 0 1.29149 .376 .377)"/></g><g style="stroke-width:1.0324"><path d="M6.355 9.727s.27-1.016 1.954-1.016c.179 0 .699-.508.711-.656-.723.261-1.52.23-2.219-.086a2.234 2.234 0 0 0-2.176.086c.254.547.801.89 1.402.883-.109.964.399 2.089 1.637 2.683l.082.039c-.723-.375-1.316-1.078-1.391-1.933Z" style="fill:url(#j);stroke:none;stroke-width:1.0324" transform="matrix(1.29149 0 0 1.29149 .376 .377)"/></g></g></svg>