<?xml version="1.0" encoding="UTF-8" standalone="no"?>
<svg
   width="24"
   height="24"
   viewBox="0 0 24 24"
   fill="none"
   version="1.1"
   id="svg13"
   sodipodi:docname="icon-grid-texto-fala-tts.svg"
   xml:space="preserve"
   inkscape:version="1.3 (0e150ed6c4, 2023-07-21)"
   inkscape:export-filename="icon.svg"
   inkscape:export-xdpi="512"
   inkscape:export-ydpi="512"
   xmlns:inkscape="http://www.inkscape.org/namespaces/inkscape"
   xmlns:sodipodi="http://sodipodi.sourceforge.net/DTD/sodipodi-0.dtd"
   xmlns="http://www.w3.org/2000/svg"
   xmlns:svg="http://www.w3.org/2000/svg"><sodipodi:namedview
     id="namedview15"
     pagecolor="#ffffff"
     bordercolor="#000000"
     borderopacity="0.25"
     inkscape:showpageshadow="2"
     inkscape:pageopacity="0.0"
     inkscape:pagecheckerboard="0"
     inkscape:deskcolor="#d1d1d1"
     showgrid="false"
     inkscape:zoom="8"
     inkscape:cx="19.0625"
     inkscape:cy="28.25"
     inkscape:window-width="1906"
     inkscape:window-height="1081"
     inkscape:window-x="3324"
     inkscape:window-y="195"
     inkscape:window-maximized="0"
     inkscape:current-layer="svg13" /><defs
     id="defs11"><radialGradient
       id="paint0_radial_29_149"
       cx="0"
       cy="0"
       r="1"
       gradientUnits="userSpaceOnUse"
       gradientTransform="matrix(0,150,-150,0,150,0)"><stop
         stop-color="#80D2FF"
         id="stop6"
         offset="0"
         style="stop-color:#faf6f0;stop-opacity:1;" /><stop
         offset="1"
         stop-color="#2991C9"
         id="stop8"
         style="stop-color:#d3d6d8;stop-opacity:1;" /></radialGradient><style
       id="style121">.cls-1{fill:#faf6f0;}.cls-2{fill:#d3d6d8;}.cls-3{fill:#d4d7d9;}.cls-4{fill:#fff;stroke:#002a44;stroke-miterlimit:10;stroke-width:4px;}.cls-5{fill:#002a44;}</style><radialGradient
       id="paint0_radial_0_1"
       cx="0"
       cy="0"
       r="1"
       gradientUnits="userSpaceOnUse"
       gradientTransform="matrix(0,150.00001,-150.00001,0,-49.61745,0.742838)"><stop
         stop-color="#6EBBF7"
         id="stop349" /><stop
         offset="1"
         stop-color="#2196F3"
         id="stop351" /></radialGradient><style
       id="style418">.cls-1{fill:#faf6f0;}.cls-2{fill:#d3d6d8;}.cls-3{fill:#d4d7d9;}.cls-4{fill:#fff;stroke:#002a44;stroke-miterlimit:10;stroke-width:4px;}.cls-5{fill:#002a44;}</style><style
       id="style1253">.cls-1{fill:#faf6f0;}.cls-2{fill:#d3d6d8;}.cls-3{fill:#d4d7d9;}.cls-4{fill:#fff;stroke:#002a44;stroke-miterlimit:10;stroke-width:4px;}.cls-5{fill:#002a44;}</style><radialGradient
       fx="0"
       fy="0"
       cx="0"
       cy="0"
       r="1"
       gradientUnits="userSpaceOnUse"
       gradientTransform="matrix(0,10.980591,-10.980517,0,11.999923,1.0194934)"
       spreadMethod="pad"
       id="radialGradient1560"><stop
         style="stop-opacity:1;stop-color:#faf6f0"
         offset="0"
         id="stop1556" /><stop
         style="stop-opacity:1;stop-color:#d3d6d8"
         offset="1"
         id="stop1558" /></radialGradient></defs><path
     d="M 6.4060083,15.252682 C 6.0712245,15.128821 5.9930432,14.762801 6.2546235,14.542798 L 6.4140118,14.408591 H 17.585834 l 0.159388,0.134207 c 0.20741,0.174617 0.217756,0.414433 0.02557,0.594807 l -0.133426,0.125423 -5.576833,0.0095 c -3.067323,0.005 -5.6118745,-0.0038 -5.6545277,-0.01981 z"
     style="fill:#8596a1;fill-opacity:1;fill-rule:nonzero;stroke:none;stroke-width:1.33333"
     id="path1580" /><path
     d="m 9.6002161,1.1327155 c 0.1197608,0.00156 0.2340563,-0.013665 0.3431777,-0.045777 1.4331292,-0.0937986 2.8663542,-0.0898944 4.2991902,0.011517 1.299312,0.1014119 2.557142,0.3831006 3.773784,0.8460424 2.021782,0.8322799 3.405424,2.2761544 4.150441,4.3315258 0.426238,1.2376345 0.677863,2.5099189 0.754874,3.8173413 0.106388,1.642111 0.06832,3.280024 -0.114296,4.914522 -0.136939,1.149204 -0.43434,2.253705 -0.892204,3.314381 -0.849062,1.839274 -2.224701,3.108142 -4.1276,3.806312 -1.542251,0.520724 -3.127544,0.795287 -4.757053,0.822715 C 11.198101,23.046656 9.3836319,22.909423 7.5879023,22.53989 4.281937,21.803653 2.2428794,19.7883 1.4700462,16.493732 1.1421923,15.011011 0.99344291,13.50994 1.0243836,11.990519 0.98778185,10.375444 1.1593707,8.7829176 1.5386622,7.2132298 2.348878,4.1329057 4.3039956,2.2243326 7.4048937,1.4873154 8.1273629,1.310357 8.859007,1.1925475 9.6002161,1.1327155 Z"
     style="fill:url(#radialGradient1560);fill-rule:evenodd;stroke:none;stroke-width:1.33333"
     id="path1562" /><path
     d="M 6.5081027,14.400978 H 17.491743 c 0.246647,0 0.445272,0.198627 0.445272,0.444885 v 0.0016 c 0,0.246258 -0.198625,0.444884 -0.445272,0.444884 H 6.5081027 c -0.2466468,0 -0.4452722,-0.198626 -0.4452722,-0.444884 v -0.0016 c 0,-0.246258 0.1986254,-0.444885 0.4452722,-0.444885 z"
     style="fill:#8596a1;fill-opacity:1;fill-rule:nonzero;stroke:none;stroke-width:1.33333"
     id="path1564" /><path
     d="M 6.5081027,11.636016 H 17.491743 c 0.246647,0 0.445272,0.198627 0.445272,0.444886 v 0.0016 c 0,0.246258 -0.198625,0.444884 -0.445272,0.444884 H 6.5081027 c -0.2466468,0 -0.4452722,-0.198626 -0.4452722,-0.444884 v -0.0016 c 0,-0.246259 0.1986254,-0.444886 0.4452722,-0.444886 z"
     style="fill:#8596a1;fill-opacity:1;fill-rule:nonzero;stroke:none;stroke-width:1.33333"
     id="path1566" /><path
     d="M 6.5081027,8.8698839 H 17.491743 c 0.246647,0 0.445272,0.1982363 0.445272,0.4448845 v 0.00117 c 0,0.2466482 -0.198625,0.4449826 -0.445272,0.4449826 H 6.5081027 c -0.2466468,0 -0.4452722,-0.1983344 -0.4452722,-0.4449826 v -0.00117 c 0,-0.2466482 0.1986254,-0.4448845 0.4452722,-0.4448845 z"
     style="fill:#8596a1;fill-opacity:1;fill-rule:nonzero;stroke:none;stroke-width:1.33333"
     id="path1568" /><path
     d="m 6.5081027,17.167403 h 5.0468413 c 0.246353,0 0.444979,0.198335 0.444979,0.444983 v 0.0012 c 0,0.246648 -0.198626,0.444885 -0.444979,0.444885 H 6.5081027 c -0.2466468,0 -0.4452722,-0.198237 -0.4452722,-0.444885 v -0.0012 c 0,-0.246648 0.1986254,-0.444983 0.4452722,-0.444983 z"
     style="fill:#8596a1;fill-opacity:1;fill-rule:nonzero;stroke:none;stroke-width:1.33333"
     id="path1570" /><path
     d="M 19.221102,3.5164309 H 9.498024 C 8.756815,3.5183809 8.156351,4.1188506 8.154107,4.8604552 v 5.8299618 c 0.0023,0.741605 0.602708,1.342072 1.343917,1.344024 h 1.612038 v 2.566628 l 2.566708,-2.566628 h 5.544332 c 0.741599,-0.002 1.342453,-0.602419 1.345186,-1.344024 V 4.8604552 C 20.563558,4.1188506 19.962701,3.518383 19.221102,3.5164309 Z"
     style="fill:#002a44;fill-opacity:1;fill-rule:nonzero;stroke:none;stroke-width:5.08048;stroke-linecap:butt;stroke-linejoin:miter;stroke-miterlimit:10;stroke-dasharray:none;stroke-opacity:1"
     id="path1" /><path
     d="M 18.99107,3.7780106 H 9.7281163 C 9.0219834,3.7798704 8.4499357,4.351922 8.4477969,5.0584316 v 5.5540704 c 0.00215,0.70651 0.5741865,1.190174 1.2803194,1.192033 h 1.6138767 v 2.239535 l 2.149894,-2.239535 h 5.499183 c 0.706504,-0.0019 1.278924,-0.485523 1.281527,-1.192033 V 5.0584316 C 20.269985,4.351922 19.697574,3.7798702 18.99107,3.7780106 Z"
     style="fill:#ffffff;fill-opacity:1;fill-rule:nonzero;stroke:none;stroke-width:5.08048;stroke-linecap:butt;stroke-linejoin:miter;stroke-miterlimit:10;stroke-dasharray:none;stroke-opacity:1"
     id="path1584"
     sodipodi:nodetypes="cccccccccccc" /><path
     d="m 13.203193,4.7185372 c 0.179592,0 0.324047,0.1449438 0.324047,0.3245375 V 10.54518 c 0,0.179594 -0.144455,0.32405 -0.324047,0.32405 -0.179593,0 -0.324048,-0.144456 -0.324048,-0.32405 V 5.0430747 c 0,-0.1795937 0.144455,-0.3245375 0.324048,-0.3245375 z"
     style="fill:#002a44;fill-opacity:1;fill-rule:nonzero;stroke:none;stroke-width:1.33333"
     id="path1586" /><path
     d="m 14.359612,5.3133436 c 0.179593,0 0.324047,0.1445533 0.324047,0.3244398 v 4.3137619 c 0,0.1795937 -0.144454,0.3244397 -0.324047,0.3244397 -0.179593,0 -0.324145,-0.144846 -0.324145,-0.3244397 V 5.6377834 c 0,-0.1798865 0.144552,-0.3244398 0.324145,-0.3244398 z"
     style="fill:#002a44;fill-opacity:1;fill-rule:nonzero;stroke:none;stroke-width:1.33333"
     id="path1588" /><path
     d="m 15.517105,6.7991883 c 0.179592,0 0.324047,0.1444558 0.324047,0.3240495 v 1.341291 c 0,0.1795942 -0.144455,0.324538 -0.324047,0.324538 -0.179593,0 -0.324047,-0.1449438 -0.324047,-0.324538 v -1.341291 c 0,-0.1795937 0.144454,-0.3240495 0.324047,-0.3240495 z"
     style="fill:#002a44;fill-opacity:1;fill-rule:nonzero;stroke:none;stroke-width:1.33333"
     id="path1590" /><path
     d="m 16.673524,6.4022278 c 0.179593,0 0.324047,0.1445533 0.324047,0.324147 v 2.1351148 c 0,0.1795934 -0.144454,0.3244399 -0.324047,0.3244399 -0.179593,0 -0.324145,-0.1448465 -0.324145,-0.3244399 V 6.7263748 c 0,-0.1795937 0.144552,-0.324147 0.324145,-0.324147 z"
     style="fill:#002a44;fill-opacity:1;fill-rule:nonzero;stroke:none;stroke-width:1.33333"
     id="path1592" /><path
     d="m 17.829845,7.3592473 c 0.179593,0 0.324145,0.1449438 0.324145,0.3244398 v 0.2219544 c 0,0.1795936 -0.144552,0.3240494 -0.324145,0.3240494 -0.179495,0 -0.324047,-0.1444558 -0.324047,-0.3240494 V 7.6836871 c 0,-0.179496 0.144552,-0.3244398 0.324047,-0.3244398 z"
     style="fill:#002a44;fill-opacity:1;fill-rule:nonzero;stroke:none;stroke-width:1.33333"
     id="path1594" /><path
     d="m 10.890452,6.7991883 c 0.179592,0 0.324437,0.1444558 0.324437,0.3240495 v 1.341291 c 0,0.1795942 -0.144845,0.324538 -0.324437,0.324538 -0.179593,0 -0.324145,-0.1449438 -0.324145,-0.324538 v -1.341291 c 0,-0.1795937 0.144552,-0.3240495 0.324145,-0.3240495 z"
     style="fill:#002a44;fill-opacity:1;fill-rule:nonzero;stroke:none;stroke-width:1.33333"
     id="path1596" /><path
     d="m 12.046773,6.4022278 c 0.179593,0 0.324145,0.1445533 0.324145,0.324147 v 2.1351148 c 0,0.1795934 -0.144552,0.3244399 -0.324145,0.3244399 -0.179494,0 -0.324047,-0.1448465 -0.324047,-0.3244399 V 6.7263748 c 0,-0.1795937 0.144553,-0.324147 0.324047,-0.324147 z"
     style="fill:#002a44;fill-opacity:1;fill-rule:nonzero;stroke:none;stroke-width:1.33333"
     id="path1598" /></svg>
