<svg xmlns="http://www.w3.org/2000/svg" xml:space="preserve" id="svg8045" width="24" height="24" version="1.1" viewBox="0 0 6.35 6.35"><defs id="defs8049"><linearGradient id="paint0_linear_18_187" x1="12" x2="12" y1="1" y2="23" gradientTransform="matrix(.26458 0 0 .26458 0 0)" gradientUnits="userSpaceOnUse"><stop id="stop43245" offset="0" stop-color="#33BEF0" style="stop-color:#26b8ef;stop-opacity:1"/><stop id="stop43247" offset="1" stop-color="#0A85D9" style="stop-color:#0093cb;stop-opacity:1"/></linearGradient><linearGradient id="linearGradient46566" x1="12" x2="12" y1="1" y2="23" gradientTransform="matrix(.26458 0 0 .26458 0 0)" gradientUnits="userSpaceOnUse" spreadMethod="pad"><stop id="stop46562" offset="0" style="stop-color:#262626;stop-opacity:1"/><stop id="stop46564" offset="1" style="stop-color:#000;stop-opacity:1"/></linearGradient></defs><path id="path46568" d="M2.538.295A.335.335 0 0 0 2.63.283c.38-.025.76-.024 1.14.002a3.62 3.62 0 0 1 1 .225c.536.22.903.603 1.101 1.148.112.328.18.665.2 1.011.028.436.018.87-.03 1.304a3.166 3.166 0 0 1-.237.878c-.225.487-.59.824-1.094 1.008a4.125 4.125 0 0 1-1.261.218 5.644 5.644 0 0 1-1.443-.109C1.13 5.774.588 5.24.385 4.366a5.025 5.025 0 0 1-.12-1.194c-.009-.429.036-.85.137-1.266C.617 1.09 1.135.584 1.957.389c.191-.047.386-.079.581-.094Z" style="fill:url(#linearGradient46566);fill-rule:evenodd;stroke:none;stroke-width:.352771"/><style id="style1" type="text/css">.st0{stroke:#fff;stroke-miterlimit:10}</style><g id="g1" style="stroke-width:42.5644" transform="matrix(.00622 0 0 .00622 -1.685 -.776)"><path id="path1" d="m485.39 356.79 230.07 307.62-231.52 250.11h52.11l202.7-218.98 163.77 218.98h177.32L836.82 589.6l215.5-232.81h-52.11L813.54 558.46 662.71 356.79Zm76.63 38.38h81.46l359.72 480.97h-81.46z" style="stroke-width:42.5644;fill:#fff"/></g></svg>