<?xml version="1.0" encoding="UTF-8" standalone="no"?>
<svg
   id="Layer_4"
   data-name="Layer 4"
   viewBox="0 0 24 23.999999"
   version="1.1"
   sodipodi:docname="icon-big-ocr-pdf.svg"
   xml:space="preserve"
   inkscape:version="1.2.2 (b0a8486541, 2022-12-01)"
   width="24"
   height="24"
   inkscape:export-filename="icon-big-ocr-pdf.pdf"
   inkscape:export-xdpi="96"
   inkscape:export-ydpi="96"
   xmlns:inkscape="http://www.inkscape.org/namespaces/inkscape"
   xmlns:sodipodi="http://sodipodi.sourceforge.net/DTD/sodipodi-0.dtd"
   xmlns="http://www.w3.org/2000/svg"
   xmlns:svg="http://www.w3.org/2000/svg"><sodipodi:namedview
     id="namedview360"
     pagecolor="#ffffff"
     bordercolor="#000000"
     borderopacity="0.25"
     inkscape:showpageshadow="2"
     inkscape:pageopacity="0.0"
     inkscape:pagecheckerboard="0"
     inkscape:deskcolor="#d1d1d1"
     showgrid="false"
     inkscape:zoom="12.362699"
     inkscape:cx="6.2688578"
     inkscape:cy="18.563908"
     inkscape:window-width="2560"
     inkscape:window-height="1000"
     inkscape:window-x="1680"
     inkscape:window-y="0"
     inkscape:window-maximized="1"
     inkscape:current-layer="Layer_4" /><defs
     id="defs329"><style
       id="style322">.cls-1{fill:#faf6f0;}.cls-2{fill:#d3d6d8;}.cls-3{fill:#f16060;}.cls-4{fill:#d4d7d9;}.cls-5{fill:#f13c3d;}.cls-6{font-size:34.02px;fill:#fff;font-family:Lato-Bold, Lato;font-weight:700;}.cls-7{letter-spacing:-0.02em;}.cls-8{fill:#3e3373;}.cls-9{fill:url(#linear-gradient);}</style><linearGradient
       id="linear-gradient"
       x1="100"
       y1="98.809998"
       x2="100"
       y2="117.83"
       gradientUnits="userSpaceOnUse"
       gradientTransform="translate(222.92867,-15.207036)"><stop
         offset="0"
         stop-color="#ff4848"
         stop-opacity="0.6"
         id="stop324" /><stop
         offset="1"
         stop-color="#f16060"
         stop-opacity="0"
         id="stop326" /></linearGradient><radialGradient
       id="paint0_radial_1_40"
       cx="0"
       cy="0"
       r="1"
       gradientUnits="userSpaceOnUse"
       gradientTransform="matrix(0,22.000029,-22.000029,0,12,1.0000005)"><stop
         stop-color="#C2E5FF"
         id="stop550"
         offset="0"
         style="stop-color:#8db9ff;stop-opacity:1;" /><stop
         offset="1"
         stop-color="#3276AA"
         id="stop552"
         style="stop-color:#3e3373;stop-opacity:1;" /></radialGradient><linearGradient
       id="paint0_linear_24_136"
       x1="22"
       y1="2"
       x2="2"
       y2="12"
       gradientUnits="userSpaceOnUse"
       gradientTransform="matrix(14.910261,0,0,14.910261,-383.91646,10.512664)"><stop
         stop-color="#E3C880"
         id="stop3905" /><stop
         offset="1"
         stop-color="#6F5C38"
         id="stop3907" /></linearGradient><linearGradient
       id="paint1_linear_24_136"
       x1="22"
       y1="6"
       x2="2.39045"
       y2="22.465"
       gradientUnits="userSpaceOnUse"
       gradientTransform="matrix(14.910261,0,0,14.910261,-383.91646,10.512664)"><stop
         stop-color="#FFE795"
         id="stop3910" /><stop
         offset="1"
         stop-color="#7A653E"
         id="stop3912" /></linearGradient><linearGradient
       id="paint2_linear_24_136"
       x1="15.6178"
       y1="9.4109602"
       x2="7.9913301"
       y2="19.1882"
       gradientUnits="userSpaceOnUse"><stop
         stop-color="#6F5C38"
         stop-opacity="0"
         id="stop3915" /><stop
         offset="1"
         stop-color="#6F5C38"
         stop-opacity="0.45"
         id="stop3917" /></linearGradient><linearGradient
       id="paint3_linear_24_136"
       x1="16.25"
       y1="9"
       x2="8.62356"
       y2="18.7773"
       gradientUnits="userSpaceOnUse"
       gradientTransform="matrix(14.910261,0,0,14.910261,-383.91646,10.512664)"><stop
         stop-color="#0BB1CB"
         id="stop3920" /><stop
         offset="1"
         stop-color="#006599"
         id="stop3922" /></linearGradient><radialGradient
       fx="0"
       fy="0"
       cx="0"
       cy="0"
       r="1"
       gradientUnits="userSpaceOnUse"
       gradientTransform="matrix(0,16.500022,-16.500022,0,9,0.75)"
       spreadMethod="pad"
       id="radialGradient4659"><stop
         style="stop-opacity:1;stop-color:#8db9ff"
         offset="0"
         id="stop4655" /><stop
         style="stop-opacity:1;stop-color:#3e3373"
         offset="1"
         id="stop4657" /></radialGradient></defs><g
     id="g5038"
     transform="translate(34.026766,1.9412859)"><g
       id="g4645"
       transform="matrix(1.3333333,0,0,1.3333332,-34.027218,-1.94132)"><g
         id="g4647"><g
           id="g4653"><path
             d="m 7.195,0.836 c 0.09,0 0.176,-0.012 0.258,-0.035 1.078,-0.071 2.156,-0.067 3.231,0.008 0.976,0.078 1.921,0.289 2.836,0.636 1.519,0.625 2.558,1.711 3.121,3.254 0.316,0.93 0.507,1.887 0.566,2.867 0.078,1.235 0.051,2.465 -0.086,3.696 -0.105,0.863 -0.328,1.691 -0.672,2.488 -0.637,1.383 -1.672,2.336 -3.101,2.859 C 12.191,17 11,17.207 9.773,17.227 8.398,17.301 7.035,17.195 5.684,16.918 3.203,16.367 1.668,14.852 1.09,12.375 0.844,11.262 0.73,10.133 0.754,8.992 0.727,7.777 0.855,6.582 1.141,5.402 1.75,3.09 3.219,1.656 5.547,1.102 6.09,0.969 6.641,0.879 7.195,0.836 Z"
             style="fill:url(#radialGradient4659);fill-rule:evenodd;stroke:none"
             id="path4661" /></g></g></g><path
       d="m -15.521885,15.272012 c 1.078667,-1.349334 1.745333,-3.036 1.822666,-4.853333 0.016,-0.417334 -0.306666,-0.7720002 -0.729333,-0.7920002 -0.416,-0.016 -0.770666,0.3066667 -0.786666,0.7293332 -0.129334,2.973333 -2.166667,5.52 -5.046667,6.290666 -2.88,0.772 -5.916,-0.410666 -7.514666,-2.926666 -0.224,-0.354667 -0.693334,-0.458667 -1.048,-0.234667 -0.353334,0.224 -0.457334,0.693333 -0.233334,1.046667 1.952,3.073333 5.676,4.521333 9.192,3.583999 1.756,-0.473333 3.26,-1.489333 4.344,-2.843999 z"
       style="fill:#fafafa;fill-opacity:1;fill-rule:nonzero;stroke:none;stroke-width:1.33333"
       id="path4663" /><path
       d="m -14.475218,8.7720123 c 0.193333,0 0.390666,0.073333 0.535999,0.2186666 0.297334,0.2973333 0.297334,0.7759999 0,1.0733331 l -2.431999,2.437333 c -0.296,0.297334 -0.776,0.297334 -1.072,0 -0.297334,-0.297333 -0.297334,-0.776 0,-1.073333 l 2.432,-2.4373331 c 0.150666,-0.1453333 0.344,-0.2186666 0.536,-0.2186666 z"
       style="fill:#fafafa;fill-opacity:1;fill-rule:nonzero;stroke:none;stroke-width:1.33333"
       id="path4665" /><path
       d="m -15.235218,9.5280122 c 0,-0.1933333 0.07733,-0.3866666 0.224,-0.532 0.296,-0.2973333 0.776,-0.2973333 1.071999,0 l 2.433334,2.4319998 c 0.296,0.297333 0.296,0.776 0,1.073333 -0.297334,0.297334 -0.776,0.297334 -1.073334,0 l -2.431999,-2.437333 c -0.146667,-0.1453332 -0.224,-0.3386665 -0.224,-0.5359998 z"
       style="fill:#fafafa;fill-opacity:1;fill-rule:nonzero;stroke:none;stroke-width:1.33333"
       id="path4667" /><path
       d="m -28.532551,4.845346 c -1.078667,1.3493332 -1.745334,3.0359997 -1.822667,4.8533328 -0.016,0.4173332 0.306667,0.7720002 0.729333,0.7920002 0.416,0.016 0.770667,-0.306667 0.786667,-0.7293335 0.129333,-2.973333 2.166666,-5.5199995 5.046666,-6.290666 2.88,-0.772 5.916,0.4106666 7.514667,2.9266663 0.224,0.3546667 0.693333,0.4586667 1.048,0.2346667 0.353333,-0.224 0.457333,-0.6933333 0.233333,-1.0466666 -1.952,-3.073333 -5.676,-4.5213329 -9.192,-3.5839996 -1.756,0.4733333 -3.259999,1.4893332 -4.343999,2.8439997 z"
       style="fill:#fafafa;fill-opacity:1;fill-rule:nonzero;stroke:none;stroke-width:1.33333"
       id="path4669" /><path
       d="m -29.579218,11.345345 c -0.193333,0 -0.390667,-0.07333 -0.536,-0.218666 -0.297333,-0.297334 -0.297333,-0.776 0,-1.073334 l 2.432,-2.4373326 c 0.296,-0.2973333 0.776,-0.2973333 1.072,0 0.297333,0.2973333 0.297333,0.7759999 0,1.0733332 l -2.432,2.4373334 c -0.150667,0.145333 -0.344,0.218666 -0.536,0.218666 z"
       style="fill:#fafafa;fill-opacity:1;fill-rule:nonzero;stroke:none;stroke-width:1.33333"
       id="path4671" /><path
       d="m -28.819218,10.589345 c 0,0.193334 -0.07733,0.386667 -0.224,0.532 -0.296,0.301334 -0.776,0.301334 -1.072,0 l -2.433333,-2.4319994 c -0.296,-0.2973333 -0.296,-0.7759999 0,-1.0733332 0.297333,-0.2973333 0.776,-0.2973333 1.073333,0 l 2.432,2.4373326 c 0.146667,0.145334 0.224,0.338667 0.224,0.536 z"
       style="fill:#fafafa;fill-opacity:1;fill-rule:nonzero;stroke:none;stroke-width:1.33333"
       id="path4673" /><path
       d="m -22.688552,2.7560129 v 2.2146664 h 0.573334 c 0.04133,0 0.07733,0 0.114666,-0.00533 0.036,0 0.072,-0.00533 0.104,-0.010667 0.036,-0.00533 0.06667,-0.016 0.104,-0.026667 0.03067,-0.00933 0.05733,-0.02 0.088,-0.030667 0.032,-0.016 0.06267,-0.026667 0.08933,-0.041333 0.03067,-0.016 0.05733,-0.037333 0.08267,-0.052 0.02667,-0.021333 0.04667,-0.037333 0.07333,-0.057333 0.02,-0.021333 0.04667,-0.048 0.068,-0.068 0.02,-0.026667 0.04133,-0.052 0.05733,-0.078667 0.02,-0.025333 0.036,-0.052 0.052,-0.082667 0.01467,-0.026667 0.03067,-0.057333 0.04667,-0.089333 0.01467,-0.030667 0.02533,-0.066667 0.036,-0.098667 0.01067,-0.036 0.02133,-0.068 0.032,-0.1093333 0.004,-0.036 0.01467,-0.073333 0.02,-0.1093333 0.0053,-0.041333 0.0053,-0.078667 0.01067,-0.12 0.0053,-0.041333 0.0053,-0.082667 0.0053,-0.1293333 0,-0.042667 0,-0.084 -0.0053,-0.1253333 -0.0053,-0.037333 -0.0053,-0.078667 -0.01067,-0.1146667 -0.0053,-0.041333 -0.016,-0.078667 -0.02,-0.1146666 -0.01067,-0.036 -0.02133,-0.073333 -0.032,-0.104 -0.01067,-0.037333 -0.02133,-0.068 -0.036,-0.098667 -0.016,-0.032 -0.032,-0.062667 -0.04667,-0.094667 -0.016,-0.025333 -0.032,-0.052 -0.052,-0.082667 -0.016,-0.026667 -0.03733,-0.052 -0.05733,-0.073333 -0.02133,-0.025333 -0.048,-0.046667 -0.068,-0.068 -0.02667,-0.02 -0.04667,-0.041333 -0.07333,-0.057333 -0.02533,-0.02 -0.052,-0.036 -0.08267,-0.052 -0.02667,-0.014667 -0.05733,-0.030667 -0.08933,-0.041333 -0.03067,-0.016 -0.05733,-0.026667 -0.088,-0.036 -0.03733,-0.00533 -0.068,-0.016 -0.104,-0.021333 -0.032,-0.00533 -0.068,-0.010667 -0.104,-0.016 -0.03733,-0.00533 -0.07333,-0.00533 -0.114666,-0.00533 z"
       style="fill:#f13c3d;fill-opacity:1;fill-rule:nonzero;stroke:none;stroke-width:1.33333"
       id="path4675" /><path
       d="m -25.527218,2.7413462 v 1.1146666 h 0.432 c 0.052,0 0.104,0 0.146666,-0.00533 0.04667,-0.010667 0.088,-0.021333 0.129334,-0.032 0.03733,-0.014667 0.07333,-0.030667 0.104,-0.046667 0.032,-0.02 0.05733,-0.041333 0.084,-0.068 0.02533,-0.025333 0.04667,-0.057333 0.06267,-0.082667 0.02,-0.032 0.036,-0.062667 0.04667,-0.098667 0.016,-0.037333 0.02533,-0.073333 0.03067,-0.1093334 0.0053,-0.042667 0.01067,-0.084 0.01067,-0.1306666 0,-0.041333 -0.0053,-0.078667 -0.01067,-0.1146667 -0.0053,-0.036 -0.01467,-0.073333 -0.03067,-0.104 -0.01067,-0.036 -0.02667,-0.068 -0.04133,-0.093333 -0.02133,-0.032 -0.04267,-0.057333 -0.068,-0.078667 -0.02667,-0.026667 -0.05733,-0.046667 -0.08933,-0.068 -0.03067,-0.016 -0.06133,-0.030667 -0.104,-0.046667 -0.036,-0.010667 -0.07733,-0.021333 -0.124,-0.025333 -0.048,-0.00533 -0.09467,-0.010667 -0.146666,-0.010667 z"
       style="fill:#f13c3d;fill-opacity:1;fill-rule:nonzero;stroke:none;stroke-width:1.33333"
       id="path4677" /><path
       d="m -19.939218,2.2253462 v 3.2759997 h 0.682666 V 4.1946794 h 1.177334 v -0.532 h -1.177334 V 2.7560129 h 1.401334 V 2.2253462 Z"
       style="fill:#ffffff;fill-opacity:1;fill-rule:nonzero;stroke:none;stroke-width:1.33333"
       id="path4679" /><path
       d="m -23.371218,2.2253462 v 3.2759997 h 1.256 c 0.06667,0 0.124,0 0.186666,-0.00533 0.05733,-0.00533 0.12,-0.016 0.177334,-0.025333 0.052,-0.010667 0.109333,-0.021333 0.166666,-0.037333 0.052,-0.014667 0.104,-0.036 0.156,-0.052 0.052,-0.02 0.104,-0.046667 0.150667,-0.068 0.048,-0.025333 0.09467,-0.052 0.136,-0.077333 0.04667,-0.032 0.088,-0.062667 0.130667,-0.094667 0.036,-0.030667 0.07733,-0.061333 0.114666,-0.098667 0.036,-0.036 0.06667,-0.077333 0.104,-0.1146667 0.03067,-0.041333 0.06267,-0.082667 0.088,-0.1239999 0.032,-0.042667 0.05733,-0.089333 0.07867,-0.136 0.02533,-0.046667 0.04667,-0.093333 0.068,-0.1453333 0.02,-0.048 0.036,-0.1 0.052,-0.152 0.01467,-0.057333 0.03067,-0.1093334 0.04133,-0.1613333 0.01067,-0.057333 0.016,-0.1146667 0.02133,-0.172 0.004,-0.057333 0.004,-0.1146667 0.004,-0.172 0,-0.061333 0,-0.1186667 -0.004,-0.176 -0.0053,-0.057333 -0.01067,-0.1146667 -0.02133,-0.1666666 -0.01067,-0.057333 -0.02667,-0.1093334 -0.04133,-0.1613334 -0.016,-0.052 -0.032,-0.1053333 -0.052,-0.1519999 -0.02133,-0.052 -0.04267,-0.098667 -0.068,-0.1453334 -0.02133,-0.046667 -0.04667,-0.093333 -0.07867,-0.136 -0.02533,-0.041333 -0.05733,-0.088 -0.088,-0.1239999 -0.03733,-0.042667 -0.068,-0.078667 -0.104,-0.1146667 -0.03733,-0.037333 -0.07867,-0.073333 -0.114666,-0.104 -0.04267,-0.032 -0.084,-0.062667 -0.130667,-0.089333 -0.04133,-0.025333 -0.088,-0.057333 -0.136,-0.077333 -0.04667,-0.026667 -0.09867,-0.048 -0.150667,-0.068 -0.052,-0.021333 -0.104,-0.041333 -0.156,-0.057333 -0.05733,-0.016 -0.114666,-0.026667 -0.166666,-0.037333 -0.05733,-0.00933 -0.12,-0.014667 -0.177334,-0.02 -0.06267,-0.00533 -0.12,-0.010667 -0.186666,-0.010667 z m 0.682666,0.5306667 h 0.573334 c 0.04133,0 0.07733,0 0.114666,0.00533 0.036,0.00533 0.072,0.010667 0.104,0.016 0.036,0.00533 0.06667,0.016 0.104,0.026667 0.03067,0.004 0.05733,0.014667 0.088,0.030667 0.032,0.010667 0.06267,0.026667 0.08933,0.041333 0.03067,0.016 0.05733,0.032 0.08267,0.052 0.02667,0.016 0.04667,0.037333 0.07333,0.057333 0.02,0.021333 0.04667,0.042667 0.068,0.068 0.02,0.021333 0.04133,0.046667 0.05733,0.078667 0.02,0.025333 0.036,0.052 0.052,0.077333 0.01467,0.032 0.03067,0.062667 0.04667,0.094667 0.01467,0.030667 0.02533,0.061333 0.036,0.098667 0.01067,0.030667 0.02133,0.068 0.032,0.104 0.004,0.036 0.01467,0.073333 0.02,0.1146666 0.0053,0.036 0.0053,0.077333 0.01067,0.12 0.0053,0.036 0.0053,0.077333 0.0053,0.124 0,0.042667 0,0.084 -0.0053,0.1253333 -0.0053,0.041333 -0.0053,0.078667 -0.01067,0.12 -0.0053,0.036 -0.016,0.073333 -0.02,0.1146666 -0.01067,0.036 -0.02133,0.068 -0.032,0.104 -0.01067,0.032 -0.02133,0.068 -0.036,0.098667 -0.016,0.032 -0.032,0.062667 -0.04667,0.089333 -0.016,0.030667 -0.032,0.057333 -0.052,0.082667 -0.016,0.026667 -0.03733,0.052 -0.05733,0.078667 -0.02133,0.02 -0.048,0.046667 -0.068,0.068 -0.02667,0.02 -0.04667,0.036 -0.07333,0.057333 -0.02533,0.014667 -0.052,0.036 -0.08267,0.052 -0.02667,0.014667 -0.05733,0.025333 -0.08933,0.041333 -0.03067,0.010667 -0.05733,0.021333 -0.088,0.030667 -0.03733,0.010667 -0.068,0.021333 -0.104,0.026667 -0.032,0.00533 -0.068,0.010667 -0.104,0.010667 -0.03733,0.00533 -0.07333,0.00533 -0.114666,0.00533 h -0.573334 z"
       style="fill:#ffffff;fill-opacity:1;fill-rule:nonzero;stroke:none;stroke-width:1.33333"
       id="path4681" /><path
       d="m -26.199218,2.2253462 v 3.2759997 h 0.672 V 4.3760127 h 0.432 c 0.052,0 0.104,0 0.156,-0.00533 0.052,-0.00533 0.105333,-0.00933 0.152,-0.014667 0.04667,-0.00533 0.09333,-0.016 0.134666,-0.026667 0.04133,-0.010667 0.08933,-0.02 0.125334,-0.030667 0.04133,-0.016 0.084,-0.032 0.12,-0.046667 0.036,-0.016 0.07333,-0.032 0.104,-0.053333 0.036,-0.02 0.068,-0.041333 0.09333,-0.061333 0.032,-0.021333 0.06267,-0.042667 0.08933,-0.068 0.02533,-0.021333 0.052,-0.046667 0.072,-0.073333 0.02667,-0.025333 0.048,-0.057333 0.068,-0.082667 0.02133,-0.032 0.036,-0.057333 0.05733,-0.089333 0.016,-0.030667 0.02667,-0.068 0.04133,-0.098667 0.01067,-0.036 0.02667,-0.068 0.03733,-0.104 0.0053,-0.032 0.01467,-0.073333 0.02,-0.1093333 0.01067,-0.037333 0.01067,-0.073333 0.016,-0.1093333 0.0053,-0.037333 0.0053,-0.078667 0.0053,-0.12 0,-0.036 0,-0.073333 -0.0053,-0.1093333 -0.0053,-0.036 -0.0053,-0.073333 -0.016,-0.1093334 -0.0053,-0.036 -0.0093,-0.068 -0.02,-0.104 -0.01067,-0.032 -0.02133,-0.068 -0.032,-0.098667 -0.01467,-0.032 -0.03067,-0.062667 -0.04667,-0.094667 -0.016,-0.030667 -0.03067,-0.057333 -0.052,-0.082667 -0.02133,-0.032 -0.04133,-0.057333 -0.06267,-0.084 -0.02533,-0.025333 -0.04667,-0.052 -0.072,-0.072 -0.02667,-0.026667 -0.05733,-0.048 -0.08933,-0.068 -0.02533,-0.021333 -0.06267,-0.041333 -0.09333,-0.057333 -0.032,-0.021333 -0.068,-0.037333 -0.104,-0.052 -0.03733,-0.016 -0.07867,-0.032 -0.12,-0.041333 -0.04133,-0.016 -0.084,-0.026667 -0.125333,-0.037333 -0.04667,-0.010667 -0.09333,-0.02 -0.14,-0.025333 -0.048,-0.00533 -0.1,-0.010667 -0.152,-0.016 -0.052,0 -0.104,-0.00533 -0.161333,-0.00533 z m 0.672,0.516 h 0.432 c 0.052,0 0.09867,0.00533 0.146666,0.010667 0.04667,0.004 0.088,0.014667 0.124,0.025333 0.04267,0.016 0.07333,0.030667 0.104,0.046667 0.032,0.021333 0.06267,0.041333 0.08933,0.068 0.02533,0.021333 0.04667,0.046667 0.06267,0.078667 0.02,0.025333 0.036,0.057333 0.04667,0.093333 0.016,0.030667 0.02533,0.068 0.03067,0.104 0.0053,0.036 0.01067,0.073333 0.01067,0.1146667 0,0.046667 -0.0053,0.088 -0.01067,0.1306666 -0.0053,0.036 -0.01467,0.072 -0.03067,0.1093334 -0.01067,0.036 -0.02667,0.066667 -0.04667,0.098667 -0.016,0.025333 -0.03733,0.057333 -0.06267,0.082667 -0.02667,0.026667 -0.052,0.048 -0.084,0.068 -0.03067,0.016 -0.06667,0.032 -0.104,0.046667 -0.04133,0.010667 -0.08267,0.021333 -0.129334,0.032 -0.04267,0.00533 -0.09467,0.00533 -0.146666,0.00533 h -0.432 z"
       style="fill:#ffffff;fill-opacity:1;fill-rule:nonzero;stroke:none;stroke-width:1.33333"
       id="path4683" /><path
       d="m -24.339218,0.12667979 c -2.068,0 -3.734667,1.66666651 -3.734667,3.73866631 0,2.0679998 1.666667,3.7346663 3.734667,3.7346663 h 4.624 c 2.068,0 3.734666,-1.6666665 3.734666,-3.7346663 0,-2.0719998 -1.666666,-3.73866631 -3.734666,-3.73866631 z m -1.86,2.09866641 h 1.104 c 0.05733,0 0.109333,0.00533 0.161333,0.00533 0.052,0.00533 0.104,0.010667 0.152,0.016 0.04667,0.00533 0.09333,0.014667 0.14,0.025333 0.04133,0.010667 0.084,0.021333 0.125333,0.037333 0.04133,0.00933 0.08267,0.025333 0.12,0.041333 0.036,0.014667 0.072,0.030667 0.104,0.052 0.03067,0.016 0.068,0.036 0.09333,0.057333 0.032,0.02 0.06267,0.041333 0.08933,0.068 0.02533,0.02 0.04667,0.046667 0.072,0.072 0.02133,0.026667 0.04133,0.052 0.06267,0.084 0.02133,0.025333 0.036,0.052 0.052,0.082667 0.016,0.032 0.032,0.062667 0.04667,0.094667 0.01067,0.030667 0.02133,0.066667 0.032,0.098667 0.01067,0.036 0.01467,0.068 0.02,0.104 0.01067,0.036 0.01067,0.073333 0.016,0.1093334 0.0053,0.036 0.0053,0.073333 0.0053,0.1093333 0,0.041333 0,0.082667 -0.0053,0.12 -0.0053,0.036 -0.0053,0.072 -0.016,0.1093333 -0.0053,0.036 -0.01467,0.077333 -0.02,0.1093333 -0.01067,0.036 -0.02667,0.068 -0.03733,0.104 -0.01467,0.030667 -0.02533,0.068 -0.04133,0.098667 -0.02133,0.032 -0.036,0.057333 -0.05733,0.089333 -0.02,0.025333 -0.04133,0.057333 -0.068,0.082667 -0.02,0.026667 -0.04667,0.052 -0.072,0.073333 -0.02667,0.025333 -0.05733,0.046667 -0.08933,0.068 -0.02533,0.02 -0.05733,0.041333 -0.09333,0.061333 -0.03067,0.021333 -0.068,0.037333 -0.104,0.053333 -0.036,0.014667 -0.07867,0.030667 -0.12,0.046667 -0.036,0.010667 -0.084,0.02 -0.125334,0.030667 -0.04133,0.010667 -0.088,0.021333 -0.134666,0.026667 -0.04667,0.00533 -0.1,0.00933 -0.152,0.014667 -0.052,0.00533 -0.104,0.00533 -0.156,0.00533 h -0.432 v 1.1253332 h -0.672 z m 2.828,0 h 1.256 c 0.06667,0 0.124,0.00533 0.186666,0.010667 0.05733,0.00533 0.12,0.010667 0.177334,0.02 0.052,0.010667 0.109333,0.021333 0.166666,0.037333 0.052,0.016 0.104,0.036 0.156,0.057333 0.052,0.02 0.104,0.041333 0.150667,0.068 0.048,0.02 0.09467,0.052 0.136,0.077333 0.04667,0.026667 0.088,0.057333 0.130667,0.089333 0.036,0.030667 0.07733,0.066667 0.114666,0.104 0.036,0.036 0.06667,0.072 0.104,0.1146667 0.03067,0.036 0.06267,0.082667 0.088,0.1239999 0.032,0.042667 0.05733,0.089333 0.07867,0.136 0.02533,0.046667 0.04667,0.093333 0.068,0.14 0.02,0.052 0.036,0.1053333 0.052,0.1573333 0.01467,0.052 0.03067,0.104 0.04133,0.1613334 0.01067,0.052 0.016,0.1093333 0.02133,0.1666666 0.004,0.057333 0.004,0.1146667 0.004,0.172 0,0.061333 0,0.1186666 -0.004,0.176 -0.0053,0.057333 -0.01067,0.1146666 -0.02133,0.1666666 -0.01067,0.057333 -0.02667,0.1093333 -0.04133,0.1666667 -0.016,0.052 -0.032,0.104 -0.052,0.152 -0.02133,0.052 -0.04267,0.098667 -0.068,0.1453333 -0.02133,0.046667 -0.04667,0.093333 -0.07867,0.136 -0.02533,0.041333 -0.05733,0.082667 -0.088,0.1239999 -0.03733,0.037333 -0.068,0.078667 -0.104,0.1146667 -0.03733,0.037333 -0.07867,0.068 -0.114666,0.098667 -0.04267,0.032 -0.084,0.062667 -0.130667,0.094667 -0.04133,0.025333 -0.088,0.052 -0.136,0.077333 -0.04667,0.021333 -0.09867,0.048 -0.150667,0.062667 -0.052,0.021333 -0.104,0.042667 -0.156,0.057333 -0.05733,0.016 -0.114666,0.026667 -0.166666,0.037333 -0.05733,0.00933 -0.12,0.02 -0.177334,0.025333 -0.06267,0.00533 -0.12,0.00533 -0.186666,0.00533 h -1.256 z m 3.432,0 h 2.084 v 0.5306667 h -1.401334 v 0.9066665 h 1.177334 v 0.532 h -1.177334 v 1.3066665 h -0.682666 z"
       style="fill:#f13c3d;fill-opacity:1;fill-rule:nonzero;stroke:none;stroke-width:1.33333"
       id="path4685" /><path
       d="m -25.063218,15.146678 c -0.04267,0 -0.07867,0 -0.114667,0.0053 -0.03733,0.0053 -0.07333,0.01067 -0.104,0.016 -0.03733,0.0053 -0.068,0.016 -0.105333,0.02667 -0.03067,0.004 -0.06133,0.01467 -0.09333,0.03067 -0.02533,0.01067 -0.05733,0.02667 -0.088,0.04133 -0.02667,0.016 -0.052,0.032 -0.07867,0.052 -0.02533,0.016 -0.052,0.03733 -0.07333,0.05733 -0.02533,0.02133 -0.052,0.04267 -0.072,0.068 -0.02133,0.02133 -0.03733,0.04667 -0.05733,0.07867 -0.016,0.02533 -0.03733,0.052 -0.052,0.07733 -0.016,0.032 -0.032,0.06267 -0.04667,0.09467 -0.01067,0.03067 -0.02667,0.06133 -0.03733,0.09867 -0.01067,0.03067 -0.02,0.068 -0.02533,0.104 -0.01067,0.036 -0.016,0.07333 -0.02133,0.109333 -0.01067,0.04133 -0.016,0.07867 -0.016,0.12 -0.0053,0.04133 -0.0053,0.08267 -0.0053,0.125334 0,0.04133 0,0.088 0.0053,0.129333 0,0.03733 0.0053,0.07867 0.016,0.114666 0.0053,0.04133 0.01067,0.07867 0.02133,0.114667 0.0053,0.036 0.01467,0.07333 0.02533,0.104 0.01067,0.03733 0.02667,0.068 0.03733,0.09867 0.01467,0.032 0.03067,0.06267 0.04667,0.08933 0.01467,0.03067 0.036,0.05733 0.052,0.08267 0.02,0.02667 0.036,0.052 0.05733,0.07867 0.02,0.02133 0.04667,0.04133 0.072,0.068 0.02133,0.02 0.048,0.036 0.07333,0.05733 0.02667,0.01467 0.052,0.036 0.07867,0.052 0.03067,0.01067 0.06267,0.02533 0.088,0.04133 0.032,0.01067 0.06267,0.02133 0.09333,0.03067 0.03733,0.01067 0.068,0.016 0.105333,0.02133 0.03067,0.0053 0.06667,0.01067 0.104,0.016 0.036,0 0.072,0.0053 0.114667,0.0053 0.036,0 0.072,-0.0053 0.109333,-0.0053 0.036,-0.0053 0.072,-0.01067 0.104,-0.016 0.036,-0.0053 0.068,-0.01067 0.09867,-0.02133 0.03067,-0.0093 0.06267,-0.02 0.09333,-0.03067 0.032,-0.016 0.06267,-0.03067 0.08933,-0.04133 0.03067,-0.016 0.05733,-0.03733 0.08267,-0.052 0.02667,-0.02133 0.04667,-0.03733 0.07333,-0.05733 0.02133,-0.02667 0.04133,-0.04667 0.06267,-0.068 0.02533,-0.02667 0.04133,-0.052 0.06267,-0.07867 0.02,-0.02533 0.036,-0.052 0.052,-0.08267 0.01467,-0.02667 0.036,-0.05733 0.04667,-0.08933 0.016,-0.03067 0.02533,-0.06133 0.036,-0.09867 0.016,-0.03067 0.02133,-0.068 0.032,-0.104 0.01067,-0.036 0.01467,-0.07333 0.02,-0.114667 0.0053,-0.036 0.01067,-0.07733 0.01067,-0.114666 0.0053,-0.04133 0.0053,-0.088 0.0053,-0.129333 0,-0.04267 0,-0.084 -0.0053,-0.125334 0,-0.04133 -0.0053,-0.07867 -0.01067,-0.12 -0.0053,-0.036 -0.0093,-0.07333 -0.02,-0.109333 -0.01067,-0.036 -0.016,-0.07333 -0.032,-0.104 -0.01067,-0.03733 -0.02,-0.068 -0.036,-0.09867 -0.01067,-0.032 -0.032,-0.06267 -0.04667,-0.09467 -0.016,-0.02533 -0.032,-0.052 -0.052,-0.07733 -0.02133,-0.032 -0.03733,-0.05733 -0.06267,-0.07867 -0.02133,-0.02533 -0.04133,-0.04667 -0.06267,-0.068 -0.02667,-0.02 -0.04667,-0.04133 -0.07333,-0.05733 -0.02533,-0.02 -0.052,-0.036 -0.08267,-0.052 -0.02667,-0.01467 -0.05733,-0.03067 -0.08933,-0.04133 -0.03067,-0.016 -0.06267,-0.02667 -0.09333,-0.03067 -0.03067,-0.01067 -0.06267,-0.02133 -0.09867,-0.02667 -0.032,-0.0053 -0.068,-0.01067 -0.104,-0.016 -0.03733,-0.0053 -0.07333,-0.0053 -0.109333,-0.0053 z"
       style="fill:#3e3373;fill-opacity:1;fill-rule:nonzero;stroke:none;stroke-width:1.33333"
       id="path4687" /><path
       d="m -19.240552,15.132012 v 1.036 h 0.344 c 0.05733,0 0.109334,-0.0053 0.156,-0.01067 0.04667,-0.01067 0.088,-0.02 0.129334,-0.03067 0.04267,-0.016 0.07867,-0.032 0.110666,-0.052 0.03067,-0.016 0.06133,-0.04267 0.088,-0.06267 0.02533,-0.02667 0.04667,-0.052 0.068,-0.084 0.01467,-0.02533 0.03067,-0.05733 0.04133,-0.09333 0.01067,-0.03067 0.02133,-0.068 0.02533,-0.104 0.01067,-0.036 0.01067,-0.07333 0.01067,-0.109333 0,-0.04133 0,-0.07867 -0.01067,-0.109333 -0.004,-0.03733 -0.01467,-0.068 -0.02533,-0.09867 -0.016,-0.032 -0.03067,-0.05733 -0.052,-0.084 -0.016,-0.02533 -0.04133,-0.04667 -0.068,-0.068 -0.02533,-0.02 -0.052,-0.04133 -0.08267,-0.05733 -0.032,-0.01467 -0.068,-0.03067 -0.109333,-0.04133 -0.03733,-0.01067 -0.084,-0.02133 -0.130667,-0.02533 -0.04133,-0.0053 -0.09333,-0.0053 -0.145333,-0.0053 z"
       style="fill:#3e3373;fill-opacity:1;fill-rule:nonzero;stroke:none;stroke-width:1.33333"
       id="path4689" /><path
       d="m -19.917885,14.616012 v 3.275999 h 0.677333 v -1.249333 h 0.229334 c 0.02533,0 0.05733,0 0.07733,0.004 0.02133,0.0053 0.04267,0.016 0.05733,0.02133 0.016,0.01067 0.032,0.02133 0.04267,0.036 0.01467,0.016 0.03067,0.032 0.04133,0.052 l 0.625334,1.005334 c 0.0093,0.02133 0.02533,0.03733 0.04133,0.05733 0.016,0.016 0.036,0.02667 0.05733,0.03733 0.02,0.0093 0.04667,0.02 0.068,0.02533 0.02533,0.0053 0.052,0.01067 0.08267,0.01067 h 0.609333 l -0.765333,-1.177333 c -0.016,-0.02533 -0.02667,-0.04667 -0.04667,-0.068 -0.016,-0.02 -0.03733,-0.036 -0.052,-0.05733 -0.02133,-0.01467 -0.03733,-0.03067 -0.05733,-0.04667 -0.02133,-0.01067 -0.04267,-0.02533 -0.06267,-0.036 0.052,-0.02133 0.104,-0.04133 0.150667,-0.068 0.052,-0.02533 0.09867,-0.052 0.141333,-0.08267 0.04133,-0.032 0.08267,-0.06267 0.118667,-0.1 0.03733,-0.036 0.068,-0.072 0.1,-0.114667 0.02533,-0.04133 0.052,-0.07733 0.072,-0.124 0.02133,-0.04133 0.04267,-0.08933 0.05733,-0.136 0.016,-0.052 0.02667,-0.09867 0.03733,-0.150667 0.004,-0.052 0.0093,-0.104 0.0093,-0.161333 0,-0.032 0,-0.068 -0.0053,-0.104 0,-0.032 -0.004,-0.06267 -0.0093,-0.09467 -0.01067,-0.03067 -0.016,-0.06667 -0.02667,-0.09333 -0.01067,-0.03067 -0.02,-0.06267 -0.03067,-0.088 -0.01067,-0.032 -0.02667,-0.05733 -0.04267,-0.08933 -0.01467,-0.02533 -0.03067,-0.052 -0.04667,-0.07733 -0.02,-0.02667 -0.04133,-0.04667 -0.06267,-0.07333 -0.02533,-0.02133 -0.04667,-0.04133 -0.072,-0.06267 -0.02667,-0.02133 -0.05733,-0.04133 -0.084,-0.06267 -0.03067,-0.02 -0.06267,-0.036 -0.09333,-0.052 -0.036,-0.016 -0.07333,-0.03067 -0.109334,-0.04667 -0.036,-0.01067 -0.07333,-0.02667 -0.114666,-0.036 -0.04133,-0.016 -0.084,-0.02667 -0.130667,-0.032 -0.04133,-0.01067 -0.088,-0.01467 -0.14,-0.02 -0.04667,-0.01067 -0.09867,-0.01067 -0.150667,-0.016 -0.052,-0.0053 -0.109333,-0.0053 -0.166666,-0.0053 z m 0.677333,0.516 h 0.349334 c 0.052,0 0.104,0 0.145333,0.0053 0.04667,0.004 0.09333,0.01467 0.130667,0.02533 0.04133,0.01067 0.07733,0.02667 0.109333,0.04133 0.03067,0.016 0.05733,0.03733 0.08267,0.05733 0.02667,0.02133 0.052,0.04267 0.068,0.068 0.02133,0.02667 0.036,0.052 0.052,0.084 0.01067,0.03067 0.02133,0.06133 0.02533,0.09867 0.01067,0.03067 0.01067,0.068 0.01067,0.109333 0,0.036 0,0.07333 -0.01067,0.109333 -0.004,0.036 -0.01467,0.07333 -0.02533,0.104 -0.01067,0.036 -0.02667,0.068 -0.04133,0.09333 -0.02133,0.032 -0.04267,0.05733 -0.068,0.084 -0.02667,0.02 -0.05733,0.04667 -0.088,0.06267 -0.032,0.02 -0.068,0.036 -0.110666,0.052 -0.04133,0.01067 -0.08267,0.02 -0.129334,0.03067 -0.04667,0.0053 -0.09867,0.01067 -0.156,0.01067 h -0.344 z"
       style="fill:#ffffff;fill-opacity:1;fill-rule:nonzero;stroke:none;stroke-width:1.33333"
       id="path4691" /><path
       d="m -21.459218,14.580012 c -0.03733,0 -0.07867,0 -0.114667,0.0053 -0.04133,0 -0.07867,0.004 -0.114667,0.0093 -0.04133,0.0053 -0.07867,0.01067 -0.114666,0.016 -0.036,0.0053 -0.07333,0.016 -0.109334,0.02667 -0.036,0.0093 -0.068,0.01467 -0.104,0.03067 -0.032,0.01067 -0.068,0.02133 -0.09867,0.036 -0.03733,0.01067 -0.068,0.02667 -0.1,0.04267 -0.03067,0.01467 -0.05733,0.03067 -0.088,0.052 -0.03067,0.01467 -0.06267,0.036 -0.088,0.052 -0.032,0.02 -0.05733,0.04133 -0.084,0.06267 -0.02533,0.02 -0.052,0.04133 -0.07867,0.06667 -0.02533,0.02133 -0.052,0.04267 -0.07733,0.068 -0.04667,0.052 -0.08933,0.104 -0.130667,0.161333 -0.04133,0.052 -0.07733,0.109333 -0.109333,0.172 -0.02,0.032 -0.036,0.06267 -0.052,0.09867 -0.016,0.032 -0.02533,0.06267 -0.04133,0.1 -0.02667,0.06667 -0.04667,0.134666 -0.06267,0.208 -0.02133,0.07333 -0.03067,0.150666 -0.04133,0.224 -0.01067,0.07733 -0.01067,0.161333 -0.01067,0.24 0,0.06133 0,0.118666 0.0053,0.175999 0.0053,0.05733 0.01067,0.12 0.02,0.172 0.01067,0.05733 0.02133,0.109334 0.03733,0.166667 0.01067,0.052 0.02533,0.104 0.04667,0.156 0.016,0.05333 0.036,0.1 0.06267,0.146667 0.02,0.04667 0.04667,0.09333 0.07333,0.14 0.02533,0.04267 0.052,0.084 0.08267,0.125333 0.03067,0.04133 0.06267,0.084 0.09867,0.12 0.032,0.036 0.068,0.07333 0.104,0.104 0.04267,0.03067 0.07867,0.06267 0.12,0.09333 0.04133,0.02667 0.08933,0.05733 0.130667,0.07867 0.04667,0.02533 0.09333,0.052 0.14,0.07333 0.052,0.02 0.104,0.036 0.157333,0.052 0.04667,0.01467 0.104,0.03067 0.156,0.04133 0.05733,0.0053 0.114667,0.016 0.172,0.02133 0.05733,0.004 0.118667,0.0093 0.176,0.0093 0.068,0 0.136,-0.0053 0.198667,-0.0093 0.06267,-0.0053 0.125333,-0.016 0.182667,-0.02667 0.05733,-0.01067 0.114666,-0.02667 0.166666,-0.04133 0.052,-0.016 0.104,-0.032 0.156,-0.05733 0.04667,-0.02133 0.09333,-0.04133 0.14,-0.068 0.04133,-0.03067 0.08933,-0.05733 0.130667,-0.088 0.04133,-0.03733 0.07867,-0.068 0.114667,-0.105334 0.036,-0.036 0.07333,-0.07733 0.109333,-0.118666 l -0.270667,-0.286667 c -0.016,-0.016 -0.02667,-0.02667 -0.04267,-0.032 -0.02,-0.0093 -0.036,-0.0093 -0.052,-0.0093 -0.02,0 -0.04133,0.004 -0.05733,0.0093 -0.02,0.01067 -0.036,0.02133 -0.056,0.03733 -0.02133,0.02 -0.048,0.04133 -0.068,0.05733 -0.02667,0.02 -0.052,0.036 -0.07333,0.052 -0.02667,0.01467 -0.04667,0.02533 -0.07333,0.036 -0.02533,0.016 -0.052,0.02667 -0.07733,0.032 -0.02667,0.0093 -0.05733,0.02 -0.084,0.02533 -0.03067,0.0053 -0.06267,0.01067 -0.09333,0.01067 -0.05733,0.01067 -0.130667,0.016 -0.202667,0.016 -0.03733,0 -0.068,0 -0.1,-0.0053 -0.03067,-0.0053 -0.06267,-0.0053 -0.09333,-0.016 -0.03067,-0.0053 -0.05733,-0.01067 -0.088,-0.02133 -0.032,-0.0093 -0.05733,-0.02 -0.08933,-0.03067 -0.02533,-0.016 -0.05733,-0.02667 -0.08267,-0.04133 -0.02667,-0.016 -0.04667,-0.032 -0.07333,-0.052 -0.02533,-0.016 -0.052,-0.03733 -0.07333,-0.05733 -0.02533,-0.02133 -0.04667,-0.04267 -0.06667,-0.068 -0.02133,-0.02133 -0.04267,-0.04667 -0.05733,-0.07333 -0.02133,-0.02533 -0.03733,-0.05733 -0.05733,-0.08267 -0.016,-0.032 -0.032,-0.05733 -0.048,-0.08933 -0.0093,-0.03067 -0.02533,-0.068 -0.036,-0.104 -0.016,-0.03067 -0.02533,-0.068 -0.03067,-0.104 -0.01067,-0.036 -0.02133,-0.07333 -0.02667,-0.114666 -0.0053,-0.036 -0.01067,-0.07867 -0.016,-0.12 0,-0.04133 0,-0.08267 0,-0.129333 0,-0.04267 0,-0.084 0,-0.125334 0.0053,-0.04133 0.01067,-0.084 0.016,-0.125333 0.0053,-0.036 0.016,-0.07333 0.02133,-0.109333 0.01067,-0.036 0.02,-0.07333 0.03067,-0.109334 0.01067,-0.03067 0.02133,-0.068 0.03733,-0.09867 0.0093,-0.032 0.02533,-0.05733 0.04133,-0.08933 0.016,-0.02533 0.03067,-0.05733 0.052,-0.08267 0.016,-0.02667 0.036,-0.04667 0.05733,-0.07333 0.02133,-0.02 0.04133,-0.04667 0.068,-0.068 0.02,-0.02 0.04133,-0.036 0.06667,-0.05733 0.02667,-0.01467 0.052,-0.036 0.07867,-0.052 0.02667,-0.01467 0.052,-0.02533 0.084,-0.04133 0.02533,-0.01067 0.05733,-0.02133 0.088,-0.03067 0.02533,-0.01067 0.05733,-0.016 0.088,-0.02133 0.032,-0.0053 0.068,-0.01067 0.1,-0.016 0.03067,-0.0053 0.06667,-0.0053 0.09867,-0.0053 0.06267,0 0.12,0.0053 0.166666,0.01067 0.052,0.0053 0.09867,0.016 0.14,0.032 0.03733,0.0093 0.07867,0.02533 0.109334,0.036 0.032,0.016 0.06267,0.03067 0.08933,0.04667 0.05733,0.032 0.09867,0.05733 0.134667,0.084 0.02133,0.01467 0.03733,0.02533 0.05733,0.03067 0.02133,0.0053 0.03733,0.01067 0.05733,0.01067 0.016,0 0.032,-0.0053 0.04667,-0.0053 0.016,-0.0053 0.02667,-0.01067 0.03733,-0.016 0.02,-0.01467 0.036,-0.036 0.052,-0.052 l 0.229334,-0.312 c -0.032,-0.032 -0.068,-0.06267 -0.104,-0.09333 -0.03733,-0.02667 -0.07333,-0.05333 -0.114667,-0.07867 -0.03733,-0.032 -0.07867,-0.05733 -0.12,-0.07867 -0.04267,-0.02 -0.08933,-0.04133 -0.136,-0.06267 -0.04667,-0.02 -0.09333,-0.036 -0.145333,-0.052 -0.052,-0.01467 -0.09867,-0.02533 -0.156,-0.036 -0.052,-0.01067 -0.109334,-0.016 -0.166667,-0.02133 -0.05733,-0.004 -0.114667,-0.0093 -0.172,-0.0093 z"
       style="fill:#ffffff;fill-opacity:1;fill-rule:nonzero;stroke:none;stroke-width:1.33333"
       id="path4693" /><path
       d="m -25.063218,14.580012 c -0.068,0 -0.125334,0.0053 -0.188,0.0093 -0.05733,0.0053 -0.12,0.01067 -0.172,0.02133 -0.05733,0.01067 -0.114667,0.02667 -0.172,0.04133 -0.052,0.016 -0.104,0.03733 -0.156,0.05733 -0.052,0.02133 -0.104,0.04267 -0.150667,0.068 -0.04667,0.02667 -0.09467,0.052 -0.136,0.084 -0.04667,0.02533 -0.088,0.05733 -0.129333,0.09333 -0.03733,0.03067 -0.07867,0.068 -0.114667,0.104 -0.03733,0.036 -0.07333,0.07867 -0.105333,0.114667 -0.03067,0.04133 -0.06133,0.08267 -0.09333,0.130667 -0.02533,0.04133 -0.052,0.088 -0.07733,0.134666 -0.02667,0.04667 -0.048,0.09867 -0.068,0.150667 -0.02133,0.048 -0.03733,0.1 -0.052,0.157333 -0.016,0.052 -0.02667,0.104 -0.03733,0.161334 -0.0093,0.052 -0.02,0.109333 -0.02,0.166666 -0.0053,0.05733 -0.01067,0.12 -0.01067,0.177334 0,0.06133 0.0053,0.118666 0.01067,0.175999 0,0.05733 0.01067,0.114667 0.02,0.166667 0.01067,0.05733 0.02133,0.114667 0.03733,0.166667 0.01467,0.052 0.03067,0.104 0.052,0.157333 0.02,0.052 0.04133,0.09867 0.068,0.145333 0.02533,0.052 0.052,0.09333 0.07733,0.14 0.032,0.04267 0.06267,0.084 0.09333,0.125334 0.032,0.04133 0.068,0.07867 0.105333,0.12 0.036,0.036 0.07733,0.068 0.114667,0.104 0.04133,0.032 0.08267,0.06267 0.129333,0.09333 0.04133,0.032 0.08933,0.05733 0.136,0.084 0.04667,0.02133 0.09867,0.04667 0.150667,0.068 0.052,0.02 0.104,0.04133 0.156,0.05733 0.05733,0.01467 0.114666,0.02533 0.172,0.036 0.052,0.016 0.114666,0.02133 0.172,0.02667 0.06267,0.004 0.12,0.004 0.188,0.004 0.06267,0 0.118666,0 0.181333,-0.004 0.05733,-0.0053 0.12,-0.01067 0.177333,-0.02667 0.052,-0.01067 0.109334,-0.02133 0.166667,-0.036 0.052,-0.016 0.104,-0.03733 0.156,-0.05733 0.052,-0.02133 0.1,-0.04667 0.152,-0.068 0.04667,-0.02667 0.09333,-0.052 0.134667,-0.084 0.04667,-0.03067 0.08933,-0.06133 0.130666,-0.09333 0.036,-0.036 0.07333,-0.068 0.109334,-0.104 0.036,-0.04133 0.07333,-0.07867 0.109333,-0.12 0.03067,-0.04133 0.06267,-0.08267 0.088,-0.125334 0.032,-0.04667 0.05733,-0.088 0.07867,-0.14 0.02533,-0.04667 0.04667,-0.09333 0.068,-0.145333 0.02,-0.05333 0.036,-0.105333 0.052,-0.157333 0.016,-0.052 0.03067,-0.109334 0.04133,-0.166667 0.01067,-0.052 0.016,-0.109333 0.02133,-0.166667 0.0053,-0.05733 0.0053,-0.114666 0.0053,-0.175999 0,-0.05733 0,-0.12 -0.0053,-0.177334 -0.0053,-0.05733 -0.01067,-0.109333 -0.02133,-0.166666 -0.01067,-0.052 -0.02533,-0.109334 -0.04133,-0.161334 -0.016,-0.052 -0.032,-0.104 -0.052,-0.157333 -0.02133,-0.052 -0.04267,-0.09867 -0.068,-0.145333 -0.02133,-0.04667 -0.04667,-0.09333 -0.07867,-0.14 -0.02533,-0.04267 -0.05733,-0.084 -0.088,-0.125334 -0.036,-0.04133 -0.07333,-0.07867 -0.109333,-0.12 -0.036,-0.036 -0.07333,-0.07333 -0.109334,-0.104 -0.04133,-0.036 -0.084,-0.068 -0.130666,-0.09333 -0.04133,-0.032 -0.088,-0.05733 -0.134667,-0.084 -0.052,-0.02533 -0.1,-0.04667 -0.152,-0.068 -0.052,-0.02 -0.104,-0.04133 -0.156,-0.05733 -0.05733,-0.01467 -0.114667,-0.03067 -0.166667,-0.04133 -0.05733,-0.01067 -0.12,-0.016 -0.177333,-0.02133 -0.06267,-0.004 -0.118667,-0.0093 -0.181333,-0.0093 z m 0,0.566666 c 0.036,0 0.072,0 0.109333,0.0053 0.036,0.0053 0.072,0.01067 0.104,0.016 0.036,0.0053 0.068,0.016 0.09867,0.02667 0.03067,0.004 0.06267,0.01467 0.09333,0.03067 0.032,0.01067 0.06267,0.02667 0.08933,0.04133 0.03067,0.016 0.05733,0.032 0.08267,0.052 0.02667,0.016 0.04667,0.03733 0.07333,0.05733 0.02133,0.02133 0.04133,0.04267 0.06267,0.068 0.02533,0.02133 0.04133,0.04667 0.06267,0.07867 0.02,0.02533 0.036,0.052 0.052,0.07733 0.01467,0.032 0.036,0.06267 0.04667,0.09467 0.016,0.03067 0.02533,0.06133 0.036,0.09867 0.016,0.03067 0.02133,0.068 0.032,0.104 0.01067,0.036 0.01467,0.07333 0.02,0.109333 0.0053,0.04133 0.01067,0.07867 0.01067,0.12 0.0053,0.04133 0.0053,0.08267 0.0053,0.125334 0,0.04133 0,0.088 -0.0053,0.129333 0,0.03733 -0.0053,0.07867 -0.01067,0.114666 -0.0053,0.04133 -0.0093,0.07867 -0.02,0.114667 -0.01067,0.036 -0.016,0.07333 -0.032,0.104 -0.01067,0.03733 -0.02,0.068 -0.036,0.09867 -0.01067,0.032 -0.032,0.06267 -0.04667,0.08933 -0.016,0.03067 -0.032,0.05733 -0.052,0.08267 -0.02133,0.02667 -0.03733,0.052 -0.06267,0.07867 -0.02133,0.02133 -0.04133,0.04133 -0.06267,0.068 -0.02667,0.02 -0.04667,0.036 -0.07333,0.05733 -0.02533,0.01467 -0.052,0.036 -0.08267,0.052 -0.02667,0.01067 -0.05733,0.02533 -0.08933,0.04133 -0.03067,0.01067 -0.06267,0.02133 -0.09333,0.03067 -0.03067,0.01067 -0.06267,0.016 -0.09867,0.02133 -0.032,0.0053 -0.068,0.01067 -0.104,0.016 -0.03733,0 -0.07333,0.0053 -0.109333,0.0053 -0.04267,0 -0.07867,-0.0053 -0.114667,-0.0053 -0.03733,-0.0053 -0.07333,-0.01067 -0.104,-0.016 -0.03733,-0.0053 -0.068,-0.01067 -0.105333,-0.02133 -0.03067,-0.0093 -0.06133,-0.02 -0.09333,-0.03067 -0.02533,-0.016 -0.05733,-0.03067 -0.088,-0.04133 -0.02667,-0.016 -0.052,-0.03733 -0.07867,-0.052 -0.02533,-0.02133 -0.052,-0.03733 -0.07333,-0.05733 -0.02533,-0.02667 -0.052,-0.04667 -0.072,-0.068 -0.02133,-0.02667 -0.03733,-0.052 -0.05733,-0.07867 -0.016,-0.02533 -0.03733,-0.052 -0.052,-0.08267 -0.016,-0.02667 -0.032,-0.05733 -0.04667,-0.08933 -0.01067,-0.03067 -0.02667,-0.06133 -0.03733,-0.09867 -0.01067,-0.03067 -0.02,-0.068 -0.02533,-0.104 -0.01067,-0.036 -0.016,-0.07333 -0.02133,-0.114667 -0.01067,-0.036 -0.016,-0.07733 -0.016,-0.114666 -0.0053,-0.04133 -0.0053,-0.088 -0.0053,-0.129333 0,-0.04267 0,-0.084 0.0053,-0.125334 0,-0.04133 0.0053,-0.07867 0.016,-0.12 0.0053,-0.036 0.01067,-0.07333 0.02133,-0.109333 0.0053,-0.036 0.01467,-0.07333 0.02533,-0.104 0.01067,-0.03733 0.02667,-0.068 0.03733,-0.09867 0.01467,-0.032 0.03067,-0.06267 0.04667,-0.09467 0.01467,-0.02533 0.036,-0.052 0.052,-0.07733 0.02,-0.032 0.036,-0.05733 0.05733,-0.07867 0.02,-0.02533 0.04667,-0.04667 0.072,-0.068 0.02133,-0.02 0.048,-0.04133 0.07333,-0.05733 0.02667,-0.02 0.052,-0.036 0.07867,-0.052 0.03067,-0.01467 0.06267,-0.03067 0.088,-0.04133 0.032,-0.016 0.06267,-0.02667 0.09333,-0.03067 0.03733,-0.01067 0.068,-0.02133 0.105333,-0.02667 0.03067,-0.0053 0.06667,-0.01067 0.104,-0.016 0.036,-0.0053 0.072,-0.0053 0.114667,-0.0053 z"
       style="fill:#ffffff;fill-opacity:1;fill-rule:nonzero;stroke:none;stroke-width:1.33333"
       id="path4695" /><path
       d="m -24.339218,12.517345 c -2.068,0 -3.734667,1.666667 -3.734667,3.734667 0,2.071999 1.666667,3.738666 3.734667,3.738666 h 4.624 c 2.068,0 3.734666,-1.666667 3.734666,-3.738666 0,-2.068 -1.666666,-3.734667 -3.734666,-3.734667 z m -0.724,2.062667 c 0.06267,0 0.118666,0.0053 0.181333,0.0093 0.05733,0.0053 0.12,0.01067 0.177333,0.02133 0.052,0.01067 0.109334,0.02667 0.166667,0.04133 0.052,0.016 0.104,0.03733 0.156,0.05733 0.052,0.02133 0.1,0.04267 0.152,0.068 0.04667,0.02667 0.09333,0.052 0.134667,0.084 0.04667,0.02533 0.08933,0.05733 0.130666,0.09333 0.036,0.03067 0.07333,0.068 0.109334,0.104 0.036,0.04133 0.07333,0.07867 0.109333,0.12 0.03067,0.04133 0.06267,0.08267 0.088,0.125334 0.032,0.04667 0.05733,0.09333 0.07867,0.14 0.02533,0.04667 0.04667,0.09333 0.068,0.145333 0.02,0.05333 0.036,0.105333 0.052,0.157333 0.016,0.052 0.03067,0.109334 0.04133,0.161334 0.01067,0.05733 0.016,0.109333 0.02133,0.166666 0.0053,0.05733 0.0053,0.12 0.0053,0.177334 0,0.06133 0,0.118666 -0.0053,0.175999 -0.0053,0.05733 -0.01067,0.114667 -0.02133,0.166667 -0.01067,0.05733 -0.02533,0.114667 -0.04133,0.166667 -0.016,0.052 -0.032,0.104 -0.052,0.157333 -0.02133,0.052 -0.04267,0.09867 -0.068,0.145333 -0.02133,0.052 -0.04667,0.09333 -0.07867,0.14 -0.02533,0.04267 -0.05733,0.084 -0.088,0.125334 -0.036,0.04133 -0.07333,0.07867 -0.109333,0.12 -0.036,0.036 -0.07333,0.068 -0.109334,0.104 -0.04133,0.032 -0.084,0.06267 -0.130666,0.09333 -0.04133,0.032 -0.088,0.05733 -0.134667,0.084 -0.052,0.02133 -0.1,0.04667 -0.152,0.068 -0.052,0.02 -0.104,0.04133 -0.156,0.05733 -0.05733,0.01467 -0.114667,0.02533 -0.166667,0.036 -0.05733,0.016 -0.12,0.02133 -0.177333,0.02667 -0.06267,0.004 -0.118667,0.004 -0.181333,0.004 -0.068,0 -0.125334,0 -0.188,-0.004 -0.05733,-0.0053 -0.12,-0.01067 -0.172,-0.02667 -0.05733,-0.01067 -0.114667,-0.02133 -0.172,-0.036 -0.052,-0.016 -0.104,-0.03733 -0.156,-0.05733 -0.052,-0.02133 -0.104,-0.04667 -0.150667,-0.068 -0.04667,-0.02667 -0.09467,-0.052 -0.136,-0.084 -0.04667,-0.03067 -0.088,-0.06133 -0.129333,-0.09333 -0.03733,-0.036 -0.07867,-0.068 -0.114667,-0.104 -0.03733,-0.04133 -0.07333,-0.07867 -0.105333,-0.12 -0.03067,-0.04133 -0.06133,-0.08267 -0.09333,-0.125334 -0.02533,-0.04667 -0.052,-0.088 -0.07733,-0.134666 -0.02667,-0.052 -0.048,-0.09867 -0.068,-0.150667 -0.02133,-0.05333 -0.03733,-0.105333 -0.052,-0.157333 -0.016,-0.052 -0.02667,-0.109334 -0.03733,-0.161334 -0.0093,-0.05733 -0.02,-0.114666 -0.02,-0.172 -0.0053,-0.05733 -0.01067,-0.114666 -0.01067,-0.175999 0,-0.05733 0.0053,-0.12 0.01067,-0.177334 0,-0.05733 0.01067,-0.114666 0.02,-0.166666 0.01067,-0.05733 0.02133,-0.109334 0.03733,-0.161334 0.01467,-0.05733 0.03067,-0.109333 0.052,-0.157333 0.02,-0.052 0.04133,-0.104 0.068,-0.150667 0.02533,-0.04667 0.052,-0.09333 0.07733,-0.134666 0.032,-0.048 0.06267,-0.08933 0.09333,-0.125334 0.032,-0.04133 0.068,-0.084 0.105333,-0.12 0.036,-0.036 0.07733,-0.07333 0.114667,-0.104 0.04133,-0.036 0.08267,-0.068 0.129333,-0.09333 0.04133,-0.032 0.08933,-0.05733 0.136,-0.084 0.04667,-0.02533 0.09867,-0.04667 0.150667,-0.068 0.052,-0.02 0.104,-0.04133 0.156,-0.05733 0.05733,-0.01467 0.114666,-0.03067 0.172,-0.04133 0.052,-0.01067 0.114666,-0.016 0.172,-0.02133 0.06267,-0.004 0.12,-0.0093 0.188,-0.0093 z m 3.604,0 c 0.06267,0 0.12,0.0053 0.177333,0.0093 0.05733,0.0053 0.114667,0.01067 0.166667,0.02133 0.05733,0.01067 0.104,0.02133 0.156,0.036 0.052,0.016 0.09867,0.032 0.145333,0.052 0.04667,0.02133 0.09333,0.04267 0.136,0.06267 0.04133,0.02133 0.08267,0.04667 0.12,0.07867 0.04133,0.02533 0.07733,0.052 0.114667,0.07867 0.036,0.03067 0.072,0.06133 0.104,0.09333 l -0.229334,0.312 c -0.016,0.016 -0.032,0.03733 -0.052,0.052 -0.01067,0.0053 -0.02133,0.01067 -0.03733,0.016 -0.01467,0 -0.03067,0.0053 -0.052,0.0053 -0.01467,0 -0.03067,-0.0053 -0.052,-0.01067 -0.02,-0.0053 -0.036,-0.016 -0.05733,-0.03067 -0.036,-0.02667 -0.07733,-0.052 -0.134667,-0.084 -0.02667,-0.016 -0.05733,-0.03067 -0.08933,-0.04667 -0.03067,-0.01067 -0.072,-0.02667 -0.109334,-0.036 -0.04133,-0.016 -0.088,-0.02667 -0.14,-0.032 -0.04667,-0.0053 -0.104,-0.01067 -0.166666,-0.01067 -0.032,0 -0.068,0 -0.09867,0.0053 -0.032,0.0053 -0.068,0.01067 -0.1,0.016 -0.03067,0.0053 -0.06267,0.01067 -0.088,0.02133 -0.03067,0.0093 -0.06267,0.02 -0.088,0.03067 -0.032,0.016 -0.05733,0.02667 -0.084,0.04133 -0.02667,0.016 -0.052,0.03733 -0.07867,0.052 -0.02533,0.02133 -0.04667,0.03733 -0.072,0.05733 -0.02133,0.02133 -0.04133,0.048 -0.06267,0.068 -0.02133,0.02667 -0.04133,0.04667 -0.05733,0.07333 -0.02133,0.02533 -0.036,0.05733 -0.052,0.08267 -0.016,0.032 -0.032,0.05733 -0.04133,0.08933 -0.016,0.03067 -0.02667,0.068 -0.03733,0.09867 -0.01067,0.036 -0.02,0.07333 -0.03067,0.109334 -0.01067,0.036 -0.016,0.07333 -0.02133,0.109333 -0.0053,0.04133 -0.01067,0.084 -0.016,0.125333 0,0.04133 0,0.08267 0,0.125334 0,0.04667 0,0.088 0,0.129333 0.0053,0.04133 0.01067,0.084 0.016,0.12 0.0053,0.04133 0.016,0.07867 0.02667,0.114666 0.0053,0.036 0.01467,0.07333 0.03067,0.104 0.01067,0.036 0.02667,0.07333 0.036,0.104 0.016,0.032 0.032,0.05733 0.048,0.08933 0.02,0.02533 0.036,0.05733 0.052,0.08267 0.02,0.02667 0.04133,0.052 0.06267,0.07333 0.02,0.02533 0.04133,0.04667 0.06667,0.068 0.02133,0.02 0.048,0.04133 0.07333,0.05733 0.02667,0.02 0.04667,0.036 0.07333,0.052 0.02533,0.01467 0.05733,0.02533 0.08267,0.04133 0.032,0.01067 0.05733,0.02133 0.08933,0.03067 0.03067,0.01067 0.05733,0.016 0.088,0.02133 0.03067,0.01067 0.06267,0.01067 0.09333,0.016 0.032,0.0053 0.06267,0.0053 0.1,0.0053 0.072,0 0.145334,-0.0053 0.202667,-0.016 0.03067,0 0.06267,-0.0053 0.09333,-0.01067 0.02667,-0.0053 0.05733,-0.016 0.084,-0.02533 0.02533,-0.0053 0.052,-0.016 0.07733,-0.032 0.02667,-0.01067 0.04667,-0.02133 0.07333,-0.036 0.02133,-0.016 0.04667,-0.032 0.068,-0.052 0.02533,-0.016 0.052,-0.03733 0.07333,-0.05733 0.02,-0.016 0.036,-0.02667 0.052,-0.03733 0.02,-0.0053 0.04133,-0.0093 0.06133,-0.0093 0.016,0 0.032,0 0.048,0.0093 0.02,0.0053 0.03067,0.016 0.04667,0.032 l 0.265334,0.286667 c -0.03067,0.04133 -0.068,0.08267 -0.104,0.118666 -0.036,0.03733 -0.07333,0.068 -0.114667,0.105334 -0.04133,0.03067 -0.08933,0.05733 -0.130667,0.08267 -0.04667,0.032 -0.09333,0.052 -0.14,0.07333 -0.052,0.02533 -0.104,0.04133 -0.156,0.05733 -0.052,0.01467 -0.109333,0.03067 -0.166666,0.04133 -0.05733,0.01067 -0.12,0.02133 -0.182667,0.02667 -0.06267,0.004 -0.130667,0.004 -0.198667,0.004 -0.05733,0 -0.118666,0 -0.176,-0.004 -0.05733,-0.0053 -0.114666,-0.016 -0.172,-0.02667 -0.052,-0.0053 -0.109333,-0.02133 -0.161333,-0.036 -0.048,-0.016 -0.1,-0.032 -0.152,-0.052 -0.04667,-0.02133 -0.09333,-0.048 -0.14,-0.07333 -0.04133,-0.02133 -0.08933,-0.052 -0.130667,-0.07867 -0.04133,-0.03067 -0.07733,-0.06267 -0.12,-0.09333 -0.036,-0.03067 -0.072,-0.068 -0.104,-0.104 -0.036,-0.036 -0.068,-0.07867 -0.09867,-0.12 -0.03067,-0.04133 -0.05733,-0.08267 -0.08267,-0.130667 -0.02667,-0.04133 -0.05333,-0.088 -0.07867,-0.134666 -0.02133,-0.04667 -0.04133,-0.09333 -0.05733,-0.146667 -0.02133,-0.052 -0.036,-0.104 -0.052,-0.156 -0.01067,-0.05733 -0.02133,-0.109333 -0.032,-0.166667 -0.0093,-0.052 -0.01467,-0.114666 -0.02,-0.172 -0.0053,-0.05733 -0.0053,-0.114666 -0.0053,-0.175999 0,-0.07867 0,-0.162667 0.01067,-0.24 0.01067,-0.07333 0.02,-0.150667 0.04133,-0.224 0.016,-0.07333 0.036,-0.141334 0.06267,-0.208 0.016,-0.03733 0.02533,-0.068 0.04133,-0.1 0.016,-0.036 0.032,-0.06667 0.052,-0.09867 0.032,-0.06267 0.068,-0.12 0.109333,-0.177333 0.04133,-0.052 0.084,-0.104 0.130667,-0.156 0.02533,-0.02533 0.052,-0.04667 0.07733,-0.068 0.02667,-0.02533 0.05333,-0.04667 0.07867,-0.06667 0.02667,-0.02133 0.052,-0.04267 0.084,-0.06267 0.02533,-0.016 0.05733,-0.03733 0.088,-0.052 0.03067,-0.02133 0.05733,-0.03733 0.088,-0.052 0.032,-0.016 0.06267,-0.032 0.1,-0.04267 0.03067,-0.01467 0.06667,-0.02533 0.09867,-0.036 0.036,-0.016 0.068,-0.02133 0.104,-0.03067 0.036,-0.01067 0.07333,-0.02133 0.109334,-0.02667 0.036,-0.0053 0.07333,-0.01067 0.109333,-0.016 0.04133,-0.0053 0.07867,-0.0093 0.12,-0.0093 0.036,-0.0053 0.07733,-0.0053 0.114667,-0.0053 z m 1.541333,0.036 h 1.026667 c 0.05733,0 0.114666,0 0.166666,0.0053 0.052,0.0053 0.104,0.0053 0.150667,0.016 0.052,0.0053 0.09867,0.0093 0.14,0.02 0.04667,0.0053 0.08933,0.016 0.130667,0.032 0.04133,0.0093 0.07867,0.02533 0.114666,0.036 0.036,0.016 0.07333,0.03067 0.104,0.04667 0.036,0.016 0.068,0.032 0.09333,0.052 0.032,0.02133 0.06267,0.04133 0.08933,0.06267 0.02533,0.02133 0.04667,0.04133 0.068,0.06267 0.02533,0.02667 0.04667,0.04667 0.06133,0.07333 0.02133,0.02533 0.03733,0.052 0.052,0.07733 0.016,0.02667 0.032,0.05733 0.04267,0.08933 0.01067,0.02533 0.02,0.05733 0.03067,0.088 0.01067,0.02667 0.016,0.05733 0.02667,0.09333 0.0053,0.032 0.0093,0.06267 0.0093,0.09467 0.0053,0.036 0.0053,0.072 0.0053,0.104 0,0.05733 -0.0053,0.109333 -0.0093,0.161333 -0.01067,0.052 -0.02133,0.09867 -0.03733,0.150667 -0.01467,0.04667 -0.036,0.09467 -0.05733,0.136 -0.02,0.04667 -0.04667,0.08267 -0.07733,0.124 -0.02667,0.04267 -0.05733,0.07867 -0.09467,0.114667 -0.036,0.03733 -0.07733,0.068 -0.118667,0.1 -0.04267,0.03067 -0.08933,0.05733 -0.141333,0.08267 -0.04667,0.02667 -0.09867,0.04667 -0.150667,0.068 0.02,0.01067 0.04133,0.02533 0.06267,0.036 0.02,0.016 0.036,0.032 0.05733,0.04667 0.01467,0.02133 0.036,0.03733 0.052,0.05733 0.02,0.02133 0.03067,0.04267 0.04667,0.068 l 0.765333,1.177333 h -0.609333 c -0.03067,0 -0.05733,-0.0053 -0.08267,-0.01067 -0.02133,-0.0053 -0.048,-0.016 -0.068,-0.02533 -0.02133,-0.01067 -0.04133,-0.02133 -0.05733,-0.03733 -0.016,-0.02 -0.032,-0.036 -0.04133,-0.05733 l -0.625334,-1.005334 c -0.01067,-0.02 -0.02667,-0.036 -0.04133,-0.052 -0.01067,-0.01467 -0.02667,-0.02533 -0.04267,-0.036 -0.01467,-0.0053 -0.036,-0.016 -0.05733,-0.02133 -0.02,-0.004 -0.052,-0.004 -0.07733,-0.004 h -0.229334 v 1.249333 H -19.9179 Z"
       style="fill:#3e3373;fill-opacity:1;fill-rule:nonzero;stroke:none;stroke-width:1.33333"
       id="path4697" /><g
       id="g4699"
       transform="matrix(1.3333333,0,0,1.3333332,-34.027218,-1.94132)"><path
         d="M 10.504,8.266 H 7.496"
         style="fill:none;stroke:#fafafa;stroke-width:0.856821;stroke-linecap:round;stroke-linejoin:round;stroke-miterlimit:4;stroke-dasharray:none;stroke-opacity:1"
         id="path4701" /></g><g
       id="g4703"
       transform="matrix(1.3333333,0,0,1.3333332,-34.027218,-1.94132)"><path
         d="M 8.246,9.734 H 7.496"
         style="fill:none;stroke:#fafafa;stroke-width:0.856821;stroke-linecap:round;stroke-linejoin:round;stroke-miterlimit:4;stroke-dasharray:none;stroke-opacity:1"
         id="path4705" /></g></g></svg>
