<svg width="24" height="24" viewBox="0 0 24 24" fill="none" xmlns="http://www.w3.org/2000/svg">
<path fill-rule="evenodd" clip-rule="evenodd" d="M9.59606 1.11363C9.7159 1.1149 9.83045 1.09964 9.9397 1.06782C11.3755 0.973743 12.8111 0.97756 14.2467 1.07916C15.5484 1.18056 16.8085 1.46299 18.0269 1.92641C20.0525 2.76036 21.4386 4.20681 22.185 6.26577C22.6119 7.50541 22.8639 8.78014 22.9411 10.0899C23.0478 11.7346 23.0096 13.3757 22.8265 15.0132C22.6895 16.1641 22.3916 17.2709 21.933 18.3335C21.0824 20.176 19.704 21.4469 17.7978 22.1462C16.2531 22.6681 14.6647 22.9429 13.0325 22.9705C11.1966 23.0662 9.37915 22.9288 7.57999 22.5586C4.2684 21.8209 2.22559 19.8019 1.45159 16.5018C1.1231 15.0162 0.974206 13.5125 1.00484 11.9907C0.968173 10.3724 1.13999 8.77714 1.52032 7.20475C2.33171 4.11912 4.2905 2.20705 7.3967 1.46856C8.12049 1.2916 8.85361 1.17331 9.59606 1.11363Z" fill="url(#paint0_radial_2_164)"/>
<path fill-rule="evenodd" clip-rule="evenodd" d="M19.4474 21.3116V21.1198L19.4467 21.3121C19.406 21.3396 19.365 21.3666 19.3236 21.3933C18.9188 21.3409 18.5147 21.2939 18.1105 21.2486L16.7854 21.0468C16.4999 21.0011 16.2165 20.9456 15.9332 20.8901C15.7794 20.8599 15.6257 20.8298 15.4717 20.8013C15.3074 20.7724 15.145 20.7339 14.9825 20.6955C14.9285 20.6827 14.8745 20.67 14.8204 20.6575L14.1704 20.507L13.8462 20.4305L13.5265 20.339C13.3123 20.2784 13.0987 20.2183 12.8843 20.1618L12.5636 20.0736C12.4859 20.0507 12.4088 20.0256 12.3317 20.0006C12.3031 19.9913 12.2746 19.9821 12.246 19.9729L11.6134 19.7675L11.6009 19.7635C11.3947 19.698 11.1867 19.6318 10.9856 19.5523L10.3651 19.3264C10.1068 19.2379 9.84948 19.1327 9.59196 19.0249C9.59238 19.0169 9.59292 19.0089 9.59346 19.0009C9.59462 18.9835 9.5958 18.9659 9.5958 18.9484C9.5958 18.8344 9.576 18.724 9.5424 18.6197C9.58656 18.5929 9.6318 18.5653 9.67644 18.5386C9.85002 18.4379 10.0267 18.3366 10.2057 18.2341C10.2861 18.188 10.367 18.1416 10.4483 18.0949C10.5973 18.0084 10.7513 17.9283 10.9065 17.8477C11.0239 17.7866 11.142 17.7252 11.2591 17.6604C11.4882 17.5322 11.7259 17.4157 11.9658 17.2982C12.0102 17.2764 12.0547 17.2546 12.0992 17.2327C12.1473 17.2091 12.1957 17.1854 12.2441 17.1616C12.3381 17.1154 12.4325 17.0689 12.5266 17.0232C12.5739 17.0019 12.6212 16.9806 12.6685 16.9594C12.7671 16.9151 12.8657 16.8708 12.9643 16.826C13.0705 16.7797 13.176 16.7314 13.2815 16.6831C13.4686 16.5974 13.6559 16.5116 13.8478 16.4368C13.9531 16.3942 14.0583 16.3503 14.1634 16.3063C14.355 16.2263 14.5467 16.1462 14.7404 16.0742C14.8546 16.0319 14.9687 15.9902 15.0825 15.9486C15.267 15.8811 15.4509 15.8138 15.6337 15.7446C15.6775 15.7292 15.7214 15.7142 15.7667 15.6989C15.9534 15.9772 16.2709 16.159 16.6314 16.159C16.7914 16.159 16.9429 16.122 17.0785 16.0573C17.1756 16.1729 17.272 16.2884 17.3656 16.4023C17.4732 16.5226 17.5662 16.6469 17.6576 16.7696C17.8395 17.0086 18.0138 17.2398 18.1819 17.4627L18.1932 17.4776C18.2788 17.5907 18.3635 17.702 18.4454 17.8109C18.4976 17.8798 18.5455 17.9502 18.5927 18.0197C18.6201 18.06 18.6472 18.0999 18.6749 18.1391C18.7464 18.2435 18.8159 18.3455 18.8834 18.4448C18.9551 18.5501 19.0247 18.6523 19.0922 18.7507C19.1498 18.8367 19.2072 18.9195 19.2629 18.9997C19.3325 19.1001 19.3993 19.1965 19.4604 19.2904C19.5242 19.3939 19.5844 19.4921 19.6415 19.5851C19.679 19.6463 19.7152 19.7052 19.75 19.7618C19.8616 19.9447 19.9601 20.1007 20.0414 20.2295C20.0875 20.3025 20.1281 20.3668 20.1624 20.4222C20.1897 20.4657 20.2133 20.5033 20.2331 20.5349C20.2628 20.5822 20.284 20.616 20.2965 20.6358C20.0331 20.8823 19.75 21.1075 19.4474 21.3116ZM18.1325 1.97069C20.1008 2.81109 21.4517 4.24278 22.185 6.26577C22.6119 7.50541 22.8639 8.78014 22.9411 10.0899C23.0044 11.065 23.0167 12.0389 22.9781 13.0114C22.8755 13.0627 22.7824 13.1305 22.7024 13.2114C22.6919 13.2019 22.6814 13.1923 22.6709 13.1827C22.6514 13.1648 22.6319 13.147 22.6121 13.1296L22.3169 12.861L22.0351 12.5771L21.4662 12.0179C21.4347 11.9863 21.4027 11.9552 21.3706 11.9241C21.3074 11.8627 21.2442 11.8014 21.185 11.7359L20.9138 11.4442L20.3693 10.864C20.2471 10.7401 20.1348 10.6074 20.0226 10.4749C19.9637 10.4052 19.9047 10.3355 19.8444 10.2672L19.324 9.66588L19.1946 9.5154L19.0728 9.3588L18.8297 9.04608L18.3344 8.42364C18.2609 8.33579 18.1943 8.24164 18.1276 8.14748C18.1179 8.13373 18.1082 8.11998 18.0984 8.10624L17.8681 7.7832C17.8079 7.7 17.7484 7.61635 17.6889 7.53275C17.5949 7.40063 17.5009 7.26862 17.4044 7.13868C17.3043 6.99889 17.2111 6.855 17.1178 6.71092C17.0675 6.63324 17.0171 6.5555 16.9656 6.47832L16.5301 5.81484L16.2241 5.30748C16.4095 5.11848 16.5238 4.8612 16.5238 4.5762C16.5238 4.33176 16.4395 4.10844 16.2994 3.9312L16.9319 3.22056C17.0799 3.06735 17.2259 2.91072 17.3722 2.75386C17.4516 2.6688 17.5309 2.58368 17.6107 2.499C17.7855 2.32407 17.9595 2.14806 18.1325 1.97069ZM18.0941 1.95441C18.0718 1.945 18.0494 1.93567 18.0269 1.92641C16.8085 1.46299 15.5484 1.18056 14.2467 1.07916C14.1559 1.07273 14.0652 1.0667 13.9744 1.06105L14.0423 1.21308C14.1105 1.35673 14.1799 1.49952 14.2491 1.6421C14.3573 1.86492 14.4653 2.08722 14.5685 2.31144C14.6273 2.42571 14.6868 2.53982 14.7462 2.6539C14.874 2.89924 15.0017 3.14445 15.1234 3.39084C15.1559 3.45036 15.188 3.50892 15.2216 3.567C15.304 3.546 15.3908 3.53364 15.4814 3.53364C15.6934 3.53364 15.8915 3.59736 16.0559 3.7062L16.7636 3.04932C16.9347 2.89974 17.1081 2.75301 17.2812 2.60653C17.3619 2.53832 17.4424 2.47016 17.5226 2.4018C17.7116 2.25139 17.9027 2.10233 18.0941 1.95441ZM13.7946 1.05039L13.8595 1.28028C13.8982 1.39341 13.9366 1.5069 13.9751 1.62053C14.068 1.89527 14.1612 2.17089 14.2603 2.4444C14.2989 2.53945 14.3372 2.63462 14.3755 2.72981C14.4905 3.01525 14.6056 3.30094 14.7264 3.5844L14.8154 3.77436C14.5849 3.9654 14.4394 4.254 14.4394 4.57596C14.4394 4.81116 14.5174 5.02692 14.6483 5.20044C14.6261 5.22575 14.6037 5.25099 14.5814 5.27622C14.5421 5.32061 14.5029 5.36495 14.4644 5.40948C14.2272 5.66482 14.0142 5.93869 13.801 6.21277C13.7484 6.2804 13.6958 6.34805 13.6428 6.41544C13.5097 6.58596 13.3763 6.75744 13.2455 6.93C13.2229 6.96052 13.1999 6.99052 13.1769 7.0205C13.134 7.07634 13.0913 7.13208 13.0514 7.19088L12.869 7.45944L12.1424 8.53944C12.0633 8.65815 11.9926 8.78198 11.9219 8.9058C11.885 8.97049 11.8481 9.03517 11.8099 9.09912L11.6966 9.29484C11.633 9.28308 11.5682 9.27636 11.5015 9.27636C11.2658 9.27636 11.048 9.35604 10.8727 9.48948C10.7569 9.40836 10.6409 9.32724 10.523 9.25224C10.3631 9.15156 10.2034 9.05136 10.0452 8.95332C10.0125 8.93315 9.97982 8.91298 9.94721 8.89285C9.66268 8.71715 9.3821 8.54388 9.09108 8.391C8.98334 8.33248 8.87652 8.27314 8.77033 8.21414C8.56145 8.0981 8.35501 7.98342 8.14872 7.87896C8.10067 7.8546 8.05286 7.83187 8.00452 7.80889C7.99286 7.80335 7.98117 7.7978 7.96944 7.7922C7.98336 7.72392 7.99152 7.65192 7.99152 7.57908C7.99152 7.43424 7.96128 7.29612 7.90812 7.17132L8.02296 7.06452C8.09443 6.99925 8.16213 6.92976 8.22991 6.86021C8.26193 6.82735 8.29398 6.79446 8.32644 6.762C8.47772 6.60991 8.62851 6.45747 8.77873 6.30562C8.82727 6.25656 8.87575 6.20755 8.92416 6.15864C9.04372 6.02822 9.1603 5.89599 9.27591 5.76485C9.34422 5.68738 9.41219 5.61028 9.48024 5.53416C9.52975 5.47857 9.57868 5.42298 9.6274 5.36761C9.66913 5.3202 9.71071 5.27294 9.7524 5.226C9.8382 5.12076 9.924 5.016 10.0087 4.91328C10.1789 4.7058 10.342 4.49988 10.5022 4.29708C10.6003 4.16709 10.6948 4.0369 10.7876 3.90887C10.8415 3.83456 10.8949 3.76097 10.9482 3.68856C11.1827 3.37939 11.3836 3.0663 11.5727 2.77155C11.6223 2.69426 11.6711 2.61824 11.7194 2.54388C11.8872 2.29711 12.0265 2.05123 12.1553 1.8237C12.2109 1.7256 12.2645 1.63091 12.3176 1.54104C12.3332 1.51375 12.3486 1.48682 12.3638 1.46022C12.4329 1.33966 12.4979 1.22597 12.5537 1.11744C12.573 1.07934 12.5918 1.04208 12.6102 1.0057C13.005 1.0132 13.3998 1.0281 13.7946 1.05039ZM22.8493 14.8022C22.842 14.8726 22.8344 14.9429 22.8265 15.0132C22.6895 16.1641 22.3916 17.2709 21.933 18.3335C21.5155 19.238 20.9708 20.0047 20.2989 20.6337C20.2825 20.5978 20.2467 20.5214 20.1928 20.4073C20.1671 20.3536 20.1379 20.2914 20.1049 20.2212C20.0383 20.0794 19.9565 19.9051 19.8578 19.7028C19.7837 19.5514 19.7026 19.3834 19.6145 19.2001C19.5496 19.0717 19.4741 18.9392 19.3949 18.8001C19.3625 18.7434 19.3296 18.6856 19.2965 18.6265C19.2219 18.4972 19.1454 18.3624 19.0662 18.2229C19.0205 18.1424 18.974 18.0603 18.9264 17.977C18.9022 17.936 18.8788 17.894 18.8553 17.8517C18.8133 17.7764 18.7707 17.7 18.7216 17.6256C18.6455 17.5096 18.5675 17.3921 18.4872 17.2714C18.4119 17.1588 18.3362 17.0429 18.2591 16.925C18.0123 16.5474 17.7513 16.1482 17.4464 15.7651C17.5886 15.587 17.674 15.362 17.674 15.1166V15.1085C17.7792 15.0777 17.8837 15.0469 17.9874 15.0164C18.0825 14.9884 18.1769 14.9606 18.2704 14.9333C18.4588 14.8846 18.6457 14.8421 18.8295 14.8003C18.921 14.7795 19.0118 14.7588 19.1016 14.7377C19.3727 14.676 19.6357 14.6124 19.8888 14.5507C20.0476 14.5136 20.2041 14.4865 20.3568 14.46C20.4495 14.4439 20.5408 14.4281 20.6304 14.4104C20.8694 14.3694 21.099 14.3273 21.3157 14.2847C21.3291 14.2821 21.3425 14.2796 21.3559 14.277C21.5587 14.2382 21.7519 14.2013 21.9377 14.1815C22.1078 14.1605 22.2655 14.14 22.4162 14.1188C22.4632 14.4011 22.6237 14.6452 22.8493 14.8022ZM19.2934 21.4126C18.8374 21.7032 18.3389 21.9478 17.7978 22.1462C16.2531 22.6681 14.6647 22.9429 13.0325 22.9705C11.4071 23.0552 9.79614 22.9572 8.19953 22.6767C8.21994 22.4775 8.24069 22.2787 8.26488 22.0805L8.34936 21.4432L8.39016 21.1248L8.44104 20.809C8.45505 20.7248 8.4688 20.6408 8.48255 20.5568C8.51345 20.3681 8.54433 20.1794 8.57796 19.9904C8.88396 19.9834 9.1584 19.8442 9.3438 19.6274C9.60216 19.733 9.86268 19.8364 10.1348 19.9252C10.2428 19.9624 10.3505 20.0007 10.4582 20.039C10.7796 20.1534 11.1011 20.2678 11.4292 20.3539L12.0823 20.5418C12.1264 20.5539 12.1703 20.5666 12.2142 20.5794C12.2787 20.5981 12.3431 20.6169 12.4079 20.6333L12.7392 20.7119C12.9595 20.7643 13.1795 20.8151 13.3998 20.8639L13.7311 20.9378L14.0644 20.9984L14.7331 21.114C14.9555 21.1546 15.1781 21.1925 15.4028 21.2136L16.0757 21.2911C16.1507 21.2985 16.2255 21.3076 16.3003 21.3168C16.4494 21.335 16.5984 21.3532 16.7489 21.3574L17.4245 21.3943C17.4941 21.3975 17.5636 21.4017 17.6331 21.4058C17.7878 21.415 17.9427 21.4242 18.0984 21.4231C18.4974 21.4231 18.8962 21.4208 19.2934 21.4126ZM8.10653 22.6602C7.93084 22.6285 7.75532 22.5946 7.57999 22.5586C6.67579 22.3571 5.86619 22.0602 5.15117 21.6677C5.27084 21.5771 5.47031 21.424 5.73324 21.2173C5.76055 21.1957 5.78872 21.1735 5.81759 21.1508C5.84759 21.1271 5.87833 21.1029 5.90964 21.0781C5.973 21.0319 6.04008 20.9831 6.10992 20.9333C6.19961 20.8665 6.29483 20.796 6.39475 20.722C6.44696 20.6833 6.50046 20.6437 6.55512 20.6032C6.60859 20.5629 6.66378 20.5221 6.72025 20.4804C6.74667 20.4609 6.77336 20.4412 6.80028 20.4212L6.80115 20.4206C6.8868 20.3608 6.97483 20.2993 7.06596 20.2369C7.24524 20.1097 7.4352 19.976 7.63344 19.8374C7.69812 19.7922 7.76544 19.7471 7.83372 19.7029C7.94256 19.8061 8.07348 19.8862 8.21808 19.936C8.21652 19.9502 8.21491 19.9645 8.2133 19.9788C8.20771 20.0283 8.20211 20.0779 8.19876 20.1281L8.15304 20.7756L8.13048 21.0991L8.11872 21.4231L8.1036 22.0697C8.10042 22.2664 8.10236 22.4633 8.10653 22.6602ZM5.12649 21.6541C5.22892 21.546 5.40506 21.3618 5.64516 21.1166C5.78825 20.9632 5.96577 20.8003 6.16491 20.6176C6.23848 20.55 6.31501 20.4798 6.39384 20.4064C6.59958 20.2055 6.84137 20.0051 7.10097 19.79C7.20235 19.706 7.30644 19.6198 7.41216 19.5304C7.45106 19.4978 7.49117 19.4662 7.53133 19.4345C7.55536 19.4155 7.5794 19.3965 7.6032 19.3774C7.54416 19.2463 7.51068 19.1016 7.51068 18.9486C7.51068 18.907 7.5138 18.8654 7.5186 18.8249C7.2534 18.6999 6.99455 18.5622 6.73586 18.4245C6.63192 18.3692 6.52801 18.3139 6.42372 18.2594L6.1236 18.0986C6.06119 18.0631 6.00009 18.0259 5.93889 17.9887C5.9037 17.9672 5.86848 17.9458 5.83296 17.9246L5.25108 17.5739L4.96044 17.3977L4.67904 17.2087C4.54888 17.1236 4.42086 17.036 4.29317 16.9487C4.23451 16.9085 4.17591 16.8685 4.1172 16.8287C3.93625 16.7087 3.7629 16.5785 3.59007 16.4486L3.567 16.4312L3.02544 16.0235C2.89613 15.9288 2.77309 15.8244 2.65029 15.7202C2.60067 15.6781 2.5511 15.6361 2.50116 15.5947L1.98204 15.1603C1.87073 15.0669 1.76466 14.9662 1.65893 14.8659C1.60076 14.8107 1.5427 14.7555 1.48392 14.7018C1.43477 14.6555 1.38555 14.6094 1.33636 14.5633C1.258 14.49 1.17972 14.4166 1.10195 14.3428C1.17684 15.0666 1.29339 15.7863 1.45159 16.5018C2.01182 18.8904 3.2368 20.6079 5.12649 21.6541ZM1.07502 14.0622C1.09004 14.074 1.10509 14.0856 1.1202 14.0972C1.27921 14.2137 1.4358 14.3324 1.59217 14.451C1.79101 14.6017 1.9895 14.7522 2.19216 14.8974L2.73852 15.2836C2.79839 15.3247 2.85765 15.3669 2.91695 15.4091C3.03889 15.496 3.16099 15.5829 3.28896 15.6611L3.84612 16.0283C3.86484 16.0407 3.88354 16.0531 3.90223 16.0654C4.06874 16.1758 4.2349 16.2859 4.40892 16.3852C4.471 16.4226 4.53319 16.4598 4.59539 16.4971C4.72352 16.5737 4.85168 16.6504 4.97892 16.7292L5.26284 16.9028L5.55252 17.0651L6.13416 17.3886C6.16989 17.408 6.2055 17.4279 6.24112 17.4479C6.30254 17.4823 6.36399 17.5168 6.42612 17.5483L6.723 17.6988C6.82475 17.7504 6.92603 17.8027 7.02728 17.855C7.28094 17.986 7.53437 18.1169 7.79424 18.2354C7.97292 18.0455 8.22192 17.9227 8.5014 17.9088C8.54403 17.6709 8.59366 17.4344 8.64338 17.1974C8.66225 17.1075 8.68113 17.0176 8.69964 16.9274C8.75568 16.6235 8.83534 16.3248 8.91503 16.0259C8.9471 15.9056 8.97918 15.7853 9.00972 15.6647C9.04558 15.5166 9.09023 15.3716 9.13499 15.2263C9.15404 15.1645 9.1731 15.1026 9.19152 15.0403L9.38148 14.4179C9.52068 14.0081 9.66312 13.5978 9.81828 13.1921L10.0616 12.5887L10.0708 12.5658C10.1486 12.3717 10.2261 12.1781 10.3166 11.9874C10.3608 11.8904 10.4046 11.7927 10.4484 11.6948C10.5469 11.4748 10.6456 11.2542 10.7501 11.041C10.5703 10.853 10.4592 10.5992 10.4592 10.3189C10.4592 10.2126 10.4754 10.1094 10.5054 10.0123C10.3955 9.93324 10.2848 9.85464 10.1729 9.7812C10.0767 9.72001 9.9815 9.65882 9.88668 9.59785C9.82716 9.55958 9.76778 9.5214 9.70836 9.48336C9.64223 9.44046 9.57647 9.39737 9.51093 9.35441C9.27214 9.19791 9.03618 9.04326 8.79504 8.90664C8.68149 8.84064 8.56991 8.7738 8.45906 8.7074C8.2706 8.59451 8.08424 8.48288 7.89384 8.37876C7.83384 8.34588 7.77624 8.31456 7.7166 8.28228C7.52664 8.49072 7.2534 8.62176 6.94896 8.62176C6.75744 8.62176 6.57924 8.56992 6.42468 8.47944C5.98248 8.82708 5.54244 9.17112 5.09952 9.46848C4.71705 9.74846 4.32649 9.99224 3.9534 10.2251C3.90496 10.2554 3.85683 10.2854 3.80904 10.3153C3.69726 10.3795 3.58774 10.4437 3.48005 10.5068C3.17685 10.6844 2.88813 10.8535 2.60424 10.991C2.49915 11.0452 2.39663 11.0978 2.29663 11.1492C2.21564 11.1907 2.1363 11.2315 2.0586 11.2715C1.94724 11.3292 1.83569 11.3785 1.72861 11.4258C1.66975 11.4518 1.61225 11.4772 1.55688 11.5031C1.35458 11.5957 1.16941 11.6797 1.00093 11.7507C1.00172 11.8306 1.00302 11.9106 1.00484 11.9907C0.990862 12.6849 1.01426 13.3755 1.07502 14.0622ZM1.00005 11.5221C1.00333 10.0643 1.17674 8.62517 1.52032 7.20475C1.6568 6.68574 1.82574 6.19993 2.02715 5.74732C2.19557 5.81002 2.45729 5.906 2.79912 6.0276C2.82839 6.0382 2.8583 6.04891 2.88881 6.05983C3.0223 6.1076 3.16709 6.15942 3.318 6.22428C3.43307 6.27089 3.55445 6.31964 3.68119 6.37055C3.75971 6.40209 3.84028 6.43445 3.92268 6.46764C4.23588 6.58597 4.57063 6.73592 4.92931 6.8966C5.06715 6.95834 5.20852 7.02167 5.35356 7.0854C5.54042 7.16214 5.72569 7.25546 5.91661 7.35163L5.93052 7.35864C5.91432 7.42944 5.90616 7.50348 5.90616 7.57896C5.90616 7.70988 5.93136 7.83468 5.97576 7.95072C5.87943 8.02956 5.78333 8.10797 5.6877 8.186C5.574 8.27877 5.46097 8.37099 5.349 8.46276C5.20165 8.5892 5.04759 8.70798 4.89541 8.82531C4.83803 8.86956 4.78091 8.9136 4.72452 8.95776C4.69295 8.98209 4.66149 9.00642 4.6301 9.0307C4.45544 9.16577 4.28304 9.2991 4.10676 9.42096C3.90444 9.57132 3.70512 9.71832 3.51156 9.861C3.38476 9.9481 3.26101 10.0335 3.13984 10.1171C3.0702 10.1652 3.00142 10.2127 2.9334 10.2595C2.88619 10.2923 2.84001 10.3249 2.79428 10.3572C2.749 10.3893 2.70416 10.421 2.6592 10.4521C2.60515 10.4876 2.55197 10.5226 2.49933 10.5574C2.46268 10.5815 2.42629 10.6055 2.39004 10.6294C2.30432 10.6855 2.22038 10.7408 2.13821 10.7949C1.88267 10.9632 1.64425 11.1202 1.4226 11.2559C1.30691 11.3271 1.19779 11.3965 1.09486 11.4619C1.06266 11.4824 1.03106 11.5025 1.00005 11.5221ZM2.04154 5.71515C3.04033 3.49541 4.82538 2.07988 7.3967 1.46856C8.12049 1.2916 8.85361 1.17331 9.59606 1.11363C9.7159 1.1149 9.83045 1.09964 9.9397 1.06782C10.7587 1.01416 11.5776 0.992346 12.3965 1.00237C12.393 1.00727 12.3895 1.01218 12.386 1.01712C12.3404 1.07773 12.2932 1.14086 12.2442 1.20637C12.1968 1.26966 12.1478 1.33517 12.097 1.4028C12.04 1.4782 11.9819 1.55654 11.9219 1.63733C11.7637 1.85033 11.5929 2.08028 11.3995 2.3178C11.2688 2.48364 11.1335 2.65512 10.992 2.83332C10.9571 2.87748 10.9213 2.9226 10.8857 2.96736C10.8659 2.99098 10.8459 3.01433 10.8258 3.03786C10.8078 3.0588 10.7898 3.07987 10.7717 3.1014C10.6967 3.1902 10.6202 3.28164 10.5437 3.37356C10.4806 3.44761 10.4176 3.52308 10.354 3.59922C10.2597 3.71212 10.1641 3.82651 10.0654 3.93996L10.0358 3.97226C9.87478 4.14849 9.70995 4.32885 9.54756 4.51464L9.28332 4.80996C9.24422 4.8509 9.2047 4.89185 9.16507 4.93291C9.11178 4.98813 9.05827 5.04357 9.00528 5.09952C8.92466 5.18307 8.84361 5.2668 8.76225 5.35084C8.65408 5.46257 8.54538 5.57486 8.43648 5.688C8.24064 5.88012 8.0424 6.07476 7.84416 6.27084C7.80635 6.30694 7.76936 6.34367 7.73237 6.3804C7.67087 6.44148 7.6094 6.50252 7.54428 6.56052L7.43676 6.6576C7.29192 6.58008 7.12476 6.53592 6.9492 6.53592C6.6072 6.53592 6.30468 6.70068 6.11472 6.95544C5.9088 6.86868 5.70696 6.78756 5.50512 6.71928C5.23296 6.6222 4.97268 6.52932 4.72464 6.43992C4.54778 6.37353 4.37173 6.32253 4.20348 6.27379C4.13725 6.2546 4.07223 6.23577 4.00884 6.21648C3.91119 6.18819 3.8164 6.16024 3.72446 6.13313C3.39091 6.03478 3.09501 5.94753 2.83716 5.8956C2.48733 5.81355 2.21715 5.75339 2.04154 5.71515ZM15.3305 14.0936C15.4526 14.2267 15.5738 14.3586 15.6946 14.4895C15.7066 14.5035 15.7196 14.517 15.7325 14.5304C15.7401 14.5383 15.7477 14.5461 15.755 14.5541C15.6508 14.7164 15.5891 14.909 15.5891 15.1165C15.5891 15.1202 15.5894 15.1241 15.5897 15.1281C15.5901 15.1323 15.5904 15.1365 15.5904 15.1406C15.5662 15.148 15.5423 15.1551 15.5183 15.1622C15.4971 15.1685 15.476 15.1747 15.4546 15.1812C15.2514 15.2506 15.0487 15.3231 14.845 15.3961C14.7399 15.4337 14.6346 15.4714 14.5289 15.5088C14.3307 15.58 14.1364 15.6586 13.9422 15.7371C13.8321 15.7817 13.7221 15.8262 13.6115 15.8693C13.3474 15.9706 13.0907 16.0873 12.8355 16.2032C12.793 16.2226 12.7505 16.2419 12.708 16.2611C12.6422 16.2916 12.5767 16.3219 12.5113 16.3521C12.4281 16.3906 12.3453 16.4289 12.263 16.4671C12.1171 16.5415 11.9723 16.6145 11.827 16.6873C11.2457 16.9724 10.6931 17.2888 10.1636 17.6035C10.0031 17.7043 9.84394 17.8036 9.68666 17.9016C9.58835 17.9629 9.49078 18.0238 9.39408 18.0842C9.36765 18.1019 9.34168 18.1195 9.31554 18.1372C9.29528 18.1509 9.27491 18.1647 9.25416 18.1787C9.17664 18.1078 9.0888 18.0482 8.99124 18.003C9.04764 17.7628 9.1112 17.5235 9.17477 17.2842C9.19479 17.2089 9.2148 17.1335 9.2346 17.0581L9.31548 16.7496L9.4092 16.445L9.58992 15.8345C9.62852 15.6918 9.67683 15.5519 9.72497 15.4125C9.74598 15.3516 9.76696 15.2909 9.78708 15.23L9.99204 14.6262L10.2168 14.031C10.2463 13.9549 10.2743 13.8785 10.3023 13.8021C10.3473 13.6794 10.3922 13.5569 10.443 13.4364L10.6872 12.8489C10.6978 12.8235 10.7083 12.7981 10.7189 12.7727C10.7895 12.6022 10.8602 12.432 10.9402 12.2675C10.9966 12.1479 11.0517 12.0283 11.1069 11.9086C11.1923 11.7233 11.2777 11.5379 11.3682 11.3524C11.4126 11.358 11.457 11.3616 11.5014 11.3616C11.7161 11.3616 11.9153 11.2963 12.0822 11.1854C12.1385 11.2291 12.1951 11.2726 12.2518 11.3161C12.3151 11.3647 12.3784 11.4133 12.4414 11.4623L12.6684 11.6384C12.7145 11.6755 12.7579 11.7137 12.8015 11.7519C12.8284 11.7756 12.8554 11.7993 12.8831 11.8228C12.987 11.9142 13.092 12.0055 13.1966 12.0964C13.2338 12.1287 13.2708 12.1609 13.3078 12.1931L13.3171 12.2012C13.4555 12.3227 13.5924 12.4427 13.7309 12.5628C13.7415 12.572 13.7521 12.5813 13.7628 12.5905C13.8934 12.7038 14.0231 12.8163 14.1444 12.9397C14.3478 13.1362 14.5503 13.3315 14.7508 13.5249C14.815 13.5868 14.8789 13.6485 14.9426 13.71C15.0084 13.7737 15.0744 13.8374 15.1397 13.9001C15.2057 13.9626 15.2704 14.0263 15.3305 14.0936ZM16.632 14.0737C16.4659 14.0737 16.3108 14.1132 16.1717 14.1815C16.1602 14.1688 16.1495 14.1561 16.1387 14.1434C16.1298 14.1329 16.1209 14.1223 16.1114 14.1116C16.0486 14.039 15.9855 13.9665 15.9222 13.8938C15.8652 13.8283 15.8081 13.7627 15.751 13.6968C15.6919 13.6265 15.6275 13.5598 15.562 13.494C15.5206 13.4521 15.4793 13.4096 15.4381 13.3671C15.4146 13.343 15.3911 13.3188 15.3677 13.2948C15.198 13.122 15.0272 12.9473 14.8555 12.7717C14.7623 12.6763 14.6688 12.5807 14.5751 12.4849C14.4739 12.3761 14.3614 12.2766 14.2485 12.1767C14.2171 12.149 14.1857 12.1212 14.1545 12.0931C14.0308 11.9835 13.9074 11.8739 13.7837 11.7639L13.7201 11.7074C13.6664 11.6598 13.6126 11.612 13.5588 11.5642C13.4676 11.4829 13.3761 11.4016 13.2844 11.3208C13.2563 11.2964 13.2286 11.2715 13.2008 11.2466C13.156 11.2064 13.1113 11.1663 13.0654 11.1282L12.8396 10.95C12.7401 10.8726 12.6415 10.7945 12.5424 10.7159C12.5225 10.7002 12.5026 10.6844 12.4826 10.6686C12.5222 10.5598 12.5441 10.4417 12.5441 10.3184C12.5441 10.053 12.4447 9.81276 12.2812 9.62832C12.4189 9.37764 12.5582 9.12864 12.7015 8.88216L13.3787 7.80372L13.5479 7.5336C13.5862 7.47287 13.6284 7.41458 13.6709 7.35605C13.6909 7.32842 13.7109 7.30074 13.7306 7.27272C13.8545 7.10028 13.9764 6.92616 14.0978 6.75156C14.1425 6.6877 14.1869 6.62356 14.2313 6.55937C14.4287 6.27418 14.6267 5.98811 14.8496 5.72148C14.8819 5.68074 14.9141 5.63953 14.9462 5.59831C14.9696 5.56826 14.9931 5.53822 15.0166 5.50836C15.1568 5.5782 15.3144 5.61876 15.4813 5.61876C15.5692 5.61876 15.6535 5.60688 15.735 5.58588C15.7501 5.61369 15.7652 5.64153 15.7803 5.66936C15.8621 5.82039 15.944 5.97149 16.0303 6.11892L16.465 6.80244C16.5141 6.87871 16.5624 6.95539 16.6107 7.03203C16.7065 7.18399 16.8022 7.33578 16.9037 7.48392C17.0016 7.62227 17.1021 7.75896 17.2027 7.89596C17.262 7.97665 17.3213 8.05745 17.3803 8.13876L17.6198 8.4654L17.6284 8.47725C17.7042 8.58221 17.7805 8.6879 17.8656 8.78736L18.3774 9.41388L18.6372 9.72456L18.7679 9.87864L18.9055 10.0271L19.4563 10.6202C19.4788 10.6443 19.5013 10.6683 19.5238 10.6924C19.6853 10.8653 19.8469 11.0383 20.0227 11.197L20.61 11.7521L20.9042 12.0289C20.9684 12.0888 21.0365 12.1445 21.1043 12.2001C21.1406 12.2298 21.1768 12.2595 21.2123 12.2897L21.8334 12.8053L22.1464 13.059L22.4717 13.2972C22.5054 13.3218 22.539 13.3459 22.5739 13.3706C22.4651 13.534 22.4011 13.7296 22.3999 13.9417C22.2494 13.9452 22.0897 13.9499 21.9192 13.9566C21.7452 13.9589 21.5617 13.9769 21.3684 13.9959C21.3414 13.9986 21.3141 14.0012 21.2867 14.0039C21.0643 14.0239 20.8291 14.0485 20.5847 14.0753C20.5002 14.0852 20.4142 14.0937 20.327 14.1024C20.1618 14.1189 19.9923 14.1357 19.8206 14.163C19.7654 14.1724 19.7097 14.1818 19.6536 14.1913C19.445 14.2265 19.2303 14.2628 19.0126 14.3016C18.9082 14.321 18.8024 14.3395 18.6955 14.3582C18.5187 14.3891 18.3392 14.4204 18.1586 14.4572C18.1172 14.4672 18.0755 14.4772 18.0337 14.4872C17.871 14.5262 17.706 14.5658 17.5404 14.6066C17.3615 14.2883 17.0224 14.0737 16.632 14.0737Z" fill="url(#paint1_radial_2_164)"/>
<defs>
<radialGradient id="paint0_radial_2_164" cx="0" cy="0" r="1" gradientUnits="userSpaceOnUse" gradientTransform="translate(12 1.00004) rotate(90) scale(22 22)">
<stop stop-color="#C5FFFE"/>
<stop offset="1" stop-color="#00FFFF"/>
</radialGradient>
<radialGradient id="paint1_radial_2_164" cx="0" cy="0" r="1" gradientUnits="userSpaceOnUse" gradientTransform="translate(12 1) rotate(89.9999) scale(22 22)">
<stop stop-color="#58C6E3"/>
<stop offset="1" stop-color="#034DB0"/>
</radialGradient>
</defs>
</svg>
