<?xml version="1.0" encoding="UTF-8" standalone="no"?>
<svg
   width="24"
   height="24"
   viewBox="0 0 24 24"
   fill="none"
   version="1.1"
   id="svg329"
   sodipodi:docname="librewolf.svg"
   inkscape:export-filename="libreoffice-writer.svg"
   inkscape:export-xdpi="512"
   inkscape:export-ydpi="512"
   inkscape:version="1.2.2 (b0a8486541, 2022-12-01)"
   xml:space="preserve"
   xmlns:inkscape="http://www.inkscape.org/namespaces/inkscape"
   xmlns:sodipodi="http://sodipodi.sourceforge.net/DTD/sodipodi-0.dtd"
   xmlns="http://www.w3.org/2000/svg"
   xmlns:svg="http://www.w3.org/2000/svg"><sodipodi:namedview
     id="namedview331"
     pagecolor="#ffffff"
     bordercolor="#000000"
     borderopacity="0.25"
     inkscape:showpageshadow="2"
     inkscape:pageopacity="0.0"
     inkscape:pagecheckerboard="0"
     inkscape:deskcolor="#d1d1d1"
     showgrid="false"
     inkscape:zoom="17.666667"
     inkscape:cx="-22.132075"
     inkscape:cy="3.9622641"
     inkscape:window-width="2560"
     inkscape:window-height="998"
     inkscape:window-x="1680"
     inkscape:window-y="0"
     inkscape:window-maximized="1"
     inkscape:current-layer="svg329" /><path
     fill-rule="evenodd"
     clip-rule="evenodd"
     d="m 9.5960276,1.1136049 c 0.11984,0.00127 0.23439,-0.01399 0.34365,-0.0458 1.4358104,-0.094054 2.8714104,-0.090239 4.3070104,0.01145 1.3017,0.10142 2.5618,0.38384 3.7802,0.84726 2.0256,0.83394 3.4117,2.2804 4.1581,4.33936 0.4269,1.23963 0.6789,2.51435 0.7561,3.8241401 0.1067,1.6447 0.0685,3.2858 -0.1146,4.9233 -0.137,1.1509 -0.4349,2.2577 -0.8935,3.3203 -0.8506,1.8425 -2.229,3.1134 -4.1352,3.8127 -1.5447,0.5219 -3.1331,0.7967 -4.7653,0.8243 -1.8359,0.0955 -3.6533704,-0.0419 -5.4525304,-0.4121 -3.31158,-0.7377 -5.35438,-2.7567 -6.12839,-6.0568 -0.32847,-1.4856 -0.47738095,-2.9893 -0.44675,-4.5111 -0.0366539,-1.6182 0.13517,-3.2135101 0.51548,-4.7858901 0.8114,-3.08563 2.77019,-4.9977 5.87638,-5.73619 0.72379,-0.17695 1.45691,-0.29526 2.19935,-0.35493 z"
     fill="url(#paint0_radial_0_1)"
     id="path318"
     style="fill:url(#paint0_radial_0_1)" /><defs
     id="defs327"><radialGradient
       id="paint0_radial_0_1"
       cx="0"
       cy="0"
       r="1"
       gradientUnits="userSpaceOnUse"
       gradientTransform="matrix(0,11,-11,0,11.999988,1.0000149)"><stop
         stop-color="#6EBBF7"
         id="stop322"
         offset="0"
         style="stop-color:#70d0ff;stop-opacity:1;" /><stop
         offset="1"
         stop-color="#2196F3"
         id="stop324"
         style="stop-color:#00acff;stop-opacity:1;" /></radialGradient><radialGradient
       fx="0"
       fy="0"
       cx="0"
       cy="0"
       r="1"
       gradientUnits="userSpaceOnUse"
       gradientTransform="matrix(0,16.5,-16.5,0,8.999651,0.749985)"
       spreadMethod="pad"
       id="radialGradient868-3"><stop
         style="stop-opacity:1;stop-color:#fafafa"
         offset="0"
         id="stop864-6" /><stop
         style="stop-opacity:1;stop-color:#c0c0c0"
         offset="1"
         id="stop866-7" /></radialGradient></defs><g
     id="g1579"
     transform="matrix(1.5847411,0,0,1.5847411,17.034715,-11.914574)"><path
       style="fill:#ffffff;stroke-width:0.0273438"
       d="m -3.8858708,20.653113 c -0.980571,-0.125824 -1.91852,-0.516714 -2.737018,-1.140651 -0.266958,-0.2035 -0.767852,-0.70764 -0.986511,-0.992901 -0.612309,-0.798819 -0.993051,-1.705382 -1.118659,-2.663571 -0.05377,-0.410211 -0.05348,-1.164403 5.99e-4,-1.539321 0.270371,-1.874229 1.449875,-3.481825 3.143624,-4.284574 0.787812,-0.373385 1.508913,-0.5314368 2.424649,-0.5314368 1.481141,0 2.79583104,0.5306818 3.86120504,1.5585948 0.51322996,0.495184 0.85739196,0.964859 1.15209996,1.572265 0.3986444,0.821626 0.5600943,1.536299 0.5600943,2.479336 0,1.241437 -0.3585088,2.324069 -1.1031113,3.331211 -0.22127,0.299285 -0.65350996,0.753911 -0.94034296,0.98904 -0.786789,0.644967 -1.78967904,1.081382 -2.78480904,1.211832 -0.343839,0.04507 -1.156099,0.05069 -1.47183,0.01017 z m 2.075482,-1.005658 c 0.599077,-0.188847 1.08728004,-0.442625 1.55859304,-0.810193 0.250614,-0.195449 0.683787,-0.632778 0.865406,-0.873714 0.49260696,-0.653484 0.82778996,-1.472058 0.92641196,-2.262454 0.0475,-0.380691 0.01991,-1.186059 -0.0526,-1.535645 -0.1921,-0.92608 -0.60594996,-1.708316 -1.25793396,-2.377676 -0.406477,-0.417309 -0.776521,-0.692363 -1.25260104,-0.931065 -0.722392,-0.3622 -1.341403,-0.508553 -2.15446,-0.509378 -0.860684,-8.27e-4 -1.615372,0.196408 -2.362304,0.617528 -0.679969,0.383366 -1.382905,1.087106 -1.767891,1.769912 -0.283539,0.502881 -0.491068,1.099666 -0.572043,1.645005 -0.05309,0.35756 -0.05414,1.067585 -0.0021,1.409945 0.104187,0.685164 0.364084,1.362336 0.740852,1.930313 0.205744,0.310159 0.199284,0.306718 0.38078,0.202876 0.324668,-0.185755 0.409334,-0.275609 0.586199,-0.622113 0.206822,-0.405193 0.427949,-0.759286 0.627746,-1.005214 0.230632,-0.283886 0.26234,-0.334414 0.378039,-0.602448 0.05822,-0.134865 0.162662,-0.332928 0.232103,-0.440138 l 0.126256,-0.19493 -0.163335,-0.16054 c -0.216954,-0.213241 -0.397419,-0.455055 -0.43137,-0.578019 -0.03468,-0.125582 0.0062,-0.195655 0.169228,-0.289798 0.164808,-0.0952 0.28267,-0.122548 0.723148,-0.16782 0.21447,-0.02204 0.447315,-0.06242 0.520651,-0.09028 0.07297,-0.02773 0.290988,-0.146389 0.484489,-0.263697 0.55868,-0.338694 0.605945,-0.356223 0.940889,-0.348962 0.282897,0.0061 0.28343,0.006 0.451172,-0.09537 0.351517,-0.212485 0.856339,-0.595873 1.52064804,-1.154862 0.127389,-0.107191 0.250103,-0.191333 0.272699,-0.186982 0.09397,0.01811 0.266544,0.44157 0.292761,0.718386 0.0159,0.167886 -0.01658,0.333912 -0.116164,0.593748 -0.02717,0.0709 -0.0397,0.138573 -0.02784,0.150389 0.02847,0.02837 0.126228,-0.09374 0.126228,-0.157663 0,-0.08151 0.05397,-0.09081 0.127391,-0.02196 0.05337,0.05006 0.09939,0.06439 0.206734,0.06439 0.11721,0 0.146225,0.01087 0.191971,0.07191 0.07763,0.103578 0.09583,0.385871 0.03642,0.56475 -0.0578,0.174017 -0.232489,0.374707 -0.391028,0.449228 -0.14186,0.06668 -0.429061,0.347095 -0.563461,0.550142 -0.05145,0.07772 -0.147907,0.239754 -0.214355,0.360068 -0.06645,0.120311 -0.177908,0.302089 -0.247688,0.403952 -0.13730504,0.200434 -0.25488304,0.480023 -0.36837104,0.87596 -0.06667,0.232592 -0.07226,0.293145 -0.07502,0.811884 -0.0033,0.626631 -0.03574,0.780392 -0.205142,0.973337 -0.192598,0.219355 -0.38485,0.701074 -0.401011,1.004796 -0.0102,0.19171 -0.03974,0.378587 -0.08171,0.516985 -0.01848,0.06094 0.01602,0.06023 0.221595,-0.0046 z"
       id="path1573"
       inkscape:connector-curvature="0" /><path
       sodipodi:type="star"
       style="fill:#00acff;fill-opacity:1;stroke:none;stroke-width:1.5;stroke-miterlimit:4;stroke-dasharray:none"
       id="path1575"
       sodipodi:sides="4"
       sodipodi:cx="18.854025"
       sodipodi:cy="172.98837"
       sodipodi:r1="1.6036172"
       sodipodi:r2="1.1339285"
       sodipodi:arg1="1.5707963"
       sodipodi:arg2="2.3561945"
       inkscape:flatsided="true"
       inkscape:rounded="0"
       inkscape:randomized="0"
       d="m 18.854025,174.59199 -1.603617,-1.60362 1.603617,-1.60361 1.603617,1.60361 z"
       transform="matrix(0.04795921,0.08306779,-0.2054382,0.1186098,32.011646,-8.4469964)" /></g></svg>
