<?xml version="1.0" encoding="UTF-8" standalone="no"?>
<svg
   width="24"
   height="24"
   viewBox="0 0 24 24"
   fill="none"
   version="1.1"
   id="svg329"
   sodipodi:docname="librewolf_bw.svg"
   inkscape:export-filename="libreoffice-writer.pdf"
   inkscape:export-xdpi="512"
   inkscape:export-ydpi="512"
   inkscape:version="1.2.2 (b0a8486541, 2022-12-01)"
   xml:space="preserve"
   xmlns:inkscape="http://www.inkscape.org/namespaces/inkscape"
   xmlns:sodipodi="http://sodipodi.sourceforge.net/DTD/sodipodi-0.dtd"
   xmlns="http://www.w3.org/2000/svg"
   xmlns:svg="http://www.w3.org/2000/svg"><sodipodi:namedview
     id="namedview331"
     pagecolor="#ffffff"
     bordercolor="#000000"
     borderopacity="0.25"
     inkscape:showpageshadow="2"
     inkscape:pageopacity="0.0"
     inkscape:pagecheckerboard="0"
     inkscape:deskcolor="#d1d1d1"
     showgrid="false"
     inkscape:zoom="6.24611"
     inkscape:cx="-83.411915"
     inkscape:cy="-24.495246"
     inkscape:window-width="2560"
     inkscape:window-height="998"
     inkscape:window-x="1680"
     inkscape:window-y="0"
     inkscape:window-maximized="1"
     inkscape:current-layer="svg329" /><defs
     id="defs327"><radialGradient
       id="paint0_radial_0_1"
       cx="0"
       cy="0"
       r="1"
       gradientUnits="userSpaceOnUse"
       gradientTransform="matrix(0,11,-11,0,11.999988,1.0000149)"><stop
         stop-color="#6EBBF7"
         id="stop322"
         offset="0"
         style="stop-color:#b7b7b7;stop-opacity:1;" /><stop
         offset="1"
         stop-color="#2196F3"
         id="stop324"
         style="stop-color:#808080;stop-opacity:1;" /></radialGradient><radialGradient
       fx="0"
       fy="0"
       cx="0"
       cy="0"
       r="1"
       gradientUnits="userSpaceOnUse"
       gradientTransform="matrix(0,16.5,-16.5,0,8.999651,0.749985)"
       spreadMethod="pad"
       id="radialGradient868-3"><stop
         style="stop-opacity:1;stop-color:#fafafa"
         offset="0"
         id="stop864-6" /><stop
         style="stop-opacity:1;stop-color:#c0c0c0"
         offset="1"
         id="stop866-7" /></radialGradient><radialGradient
       fx="0"
       fy="0"
       cx="0"
       cy="0"
       r="1"
       gradientUnits="userSpaceOnUse"
       gradientTransform="matrix(0,8.25,-8.25,0,8.999991,0.750011)"
       spreadMethod="pad"
       id="radialGradient3805"><stop
         style="stop-opacity:1;stop-color:#b7b7b7"
         offset="0"
         id="stop3801" /><stop
         style="stop-opacity:1;stop-color:#808080"
         offset="1"
         id="stop3803" /></radialGradient><radialGradient
       fx="0"
       fy="0"
       cx="0"
       cy="0"
       r="1"
       gradientUnits="userSpaceOnUse"
       gradientTransform="matrix(0,8.25,-8.25,0,8.999991,0.750011)"
       spreadMethod="pad"
       id="radialGradient3805-1"><stop
         style="stop-opacity:1;stop-color:#b7b7b7"
         offset="0"
         id="stop3801-8" /><stop
         style="stop-opacity:1;stop-color:#808080"
         offset="1"
         id="stop3803-7" /></radialGradient></defs><g
     id="g3931"
     transform="translate(-24.662818,-25.463317)"><g
       id="g3791"
       transform="matrix(1.3333333,0,0,1.3333333,24.662366,25.463282)"><g
         id="g3793"><g
           id="g3799"><path
             d="m 7.195,0.836 c 0.09,0 0.176,-0.012 0.258,-0.035 1.078,-0.071 2.156,-0.067 3.231,0.008 0.976,0.078 1.921,0.289 2.836,0.636 1.519,0.625 2.558,1.711 3.121,3.254 0.316,0.93 0.507,1.887 0.566,2.867 0.078,1.235 0.051,2.465 -0.086,3.696 -0.105,0.863 -0.328,1.691 -0.672,2.488 -0.637,1.383 -1.672,2.336 -3.101,2.859 C 12.191,17 11,17.207 9.773,17.227 8.398,17.301 7.035,17.195 5.684,16.918 3.203,16.367 1.668,14.852 1.09,12.375 0.844,11.262 0.73,10.133 0.754,8.992 0.727,7.781 0.855,6.582 1.141,5.402 1.75,3.09 3.219,1.656 5.547,1.102 6.09,0.969 6.641,0.879 7.195,0.836 Z"
             style="fill:url(#radialGradient3805-1);fill-rule:evenodd;stroke:none"
             id="path3807" /></g></g></g><path
       d="m 35.537032,46.280615 c -1.552,-0.202667 -3.036,-0.822667 -4.333333,-1.812 -0.426666,-0.317333 -1.218666,-1.12 -1.568,-1.573333 -0.968,-1.265334 -1.572,-2.702667 -1.770666,-4.218667 -0.08267,-0.650667 -0.08267,-1.844 0,-2.437333 0.428,-2.973334 2.297333,-5.521333 4.985333,-6.792 1.244,-0.593333 2.390666,-0.844 3.838666,-0.844 2.348,0 4.432,0.844 6.118667,2.469333 0.813333,0.786667 1.36,1.530667 1.828,2.494667 0.630666,1.302666 0.886666,2.432 0.886666,3.926666 0,1.969334 -0.568,3.682667 -1.745333,5.281334 -0.354666,0.474666 -1.036,1.193333 -1.494666,1.568 -1.245334,1.021333 -2.833334,1.713333 -4.412,1.917333 -0.541334,0.072 -1.833334,0.08267 -2.333334,0.02 z m 3.292,-1.593333 c 0.948,-0.302667 1.724,-0.702667 2.469334,-1.286667 0.394666,-0.306667 1.082666,-1.005333 1.369333,-1.385333 0.781333,-1.036 1.312,-2.333334 1.468,-3.582667 0.07867,-0.605333 0.032,-1.881333 -0.08267,-2.433333 -0.302666,-1.468 -0.958666,-2.708 -1.994666,-3.770667 -0.641334,-0.661333 -1.229334,-1.098666 -1.984,-1.473333 -1.141334,-0.573333 -2.125334,-0.808 -3.412,-0.808 -1.364,0 -2.562667,0.313333 -3.745334,0.98 -1.077333,0.604 -2.191999,1.718666 -2.801333,2.801333 -0.448,0.797333 -0.776,1.745333 -0.906666,2.609333 -0.08267,0.568 -0.08267,1.693334 -0.0053,2.234667 0.166667,1.084 0.578667,2.156 1.177334,3.057333 0.322666,0.489334 0.312,0.484 0.604,0.322667 0.510666,-0.296 0.646666,-0.437333 0.927999,-0.984 0.328,-0.645333 0.676,-1.208 0.994667,-1.593333 0.364,-0.453334 0.416,-0.532 0.598667,-0.958667 0.09333,-0.213333 0.26,-0.526667 0.369333,-0.698667 l 0.198667,-0.306666 -0.261334,-0.254667 c -0.344,-0.338667 -0.624,-0.72 -0.681333,-0.917333 -0.05333,-0.197334 0.0093,-0.306667 0.270667,-0.458667 0.26,-0.150667 0.448,-0.192 1.145333,-0.265333 0.338667,-0.036 0.708,-0.09867 0.822667,-0.14 0.114666,-0.048 0.464,-0.234667 0.770666,-0.422667 0.885334,-0.536 0.958667,-0.562667 1.490667,-0.552 0.446667,0.01067 0.446667,0.01067 0.713333,-0.150667 0.557334,-0.333333 1.358667,-0.942666 2.410667,-1.828 0.204,-0.172 0.396,-0.302666 0.433333,-0.297333 0.145334,0.02667 0.421334,0.698667 0.462667,1.141333 0.02667,0.265334 -0.02533,0.525334 -0.182667,0.937334 -0.04667,0.114666 -0.06667,0.218666 -0.04667,0.238666 0.04667,0.048 0.198666,-0.150666 0.198666,-0.249333 0,-0.130667 0.088,-0.145333 0.202667,-0.036 0.084,0.08267 0.156,0.104 0.328,0.104 0.188,0 0.234667,0.01467 0.308,0.114667 0.12,0.161333 0.150667,0.609333 0.05733,0.894666 -0.09467,0.276 -0.370666,0.594667 -0.62,0.709334 -0.229333,0.109333 -0.682666,0.552 -0.896,0.874666 -0.07867,0.12 -0.234666,0.38 -0.338666,0.568 -0.104,0.192 -0.281334,0.478667 -0.390667,0.64 -0.218667,0.318667 -0.406667,0.761334 -0.582667,1.390667 -0.109333,0.365333 -0.114666,0.464 -0.12,1.286667 -0.0053,0.989333 -0.05733,1.234666 -0.328,1.541333 -0.302666,0.349333 -0.609333,1.109333 -0.636,1.594667 -0.016,0.301333 -0.06267,0.598666 -0.130666,0.817333 -0.02533,0.09333 0.02667,0.09333 0.354666,-0.0053 z"
       style="fill:#ffffff;fill-opacity:1;fill-rule:nonzero;stroke:none;stroke-width:1.33333"
       id="path3809" /><path
       d="m 37.017032,35.463282 0.4,-0.516 0.646667,-0.088 -0.401333,0.510666 z"
       style="fill:#808080;fill-opacity:1;fill-rule:nonzero;stroke:none;stroke-width:1.33333"
       id="path3811" /></g></svg>
