<?xml version="1.0" encoding="UTF-8" standalone="no"?>
<svg
   width="24"
   height="24"
   viewBox="0 0 6.349875 6.349875"
   version="1.1"
   id="svg23024"
   sodipodi:docname="icon_reset-screen.svg"
   inkscape:version="1.2.2 (b0a8486541, 2022-12-01)"
   xml:space="preserve"
   xmlns:inkscape="http://www.inkscape.org/namespaces/inkscape"
   xmlns:sodipodi="http://sodipodi.sourceforge.net/DTD/sodipodi-0.dtd"
   xmlns:xlink="http://www.w3.org/1999/xlink"
   xmlns="http://www.w3.org/2000/svg"
   xmlns:svg="http://www.w3.org/2000/svg"><defs
     id="defs23028"><radialGradient
       id="paint0_radial_29_149"
       cx="0"
       cy="0"
       r="1"
       gradientUnits="userSpaceOnUse"
       gradientTransform="matrix(0,8.4664974,-8.4665063,0,26.659556,4.6030627)"><stop
         stop-color="#80D2FF"
         id="stop17930" /><stop
         offset="1"
         stop-color="#2991C9"
         id="stop17932"
         style="stop-color:#002a43;stop-opacity:1;" /></radialGradient><radialGradient
       id="paint0_radial_29_23"
       cx="0"
       cy="0"
       r="1"
       gradientUnits="userSpaceOnUse"
       gradientTransform="matrix(0,22,-22,0,12,1)"><stop
         stop-color="#8FC8FF"
         id="stop6475" /><stop
         offset="1"
         stop-color="#0056A8"
         id="stop6477" /></radialGradient><pattern
       inkscape:collect="always"
       xlink:href="#Strips1_1white"
       id="pattern7218"
       patternTransform="matrix(10,0,0,10,18.193052,4.6030613)" /><pattern
       inkscape:collect="always"
       patternUnits="userSpaceOnUse"
       width="2"
       height="1"
       patternTransform="translate(0,0) scale(10,10)"
       id="Strips1_1white"
       inkscape:stockid="Stripes 1:1 white"><rect
         style="fill:white;stroke:none"
         x="0"
         y="-0.5"
         width="1"
         height="2"
         id="rect3916" /></pattern></defs><sodipodi:namedview
     id="namedview23026"
     pagecolor="#ffffff"
     bordercolor="#000000"
     borderopacity="0.25"
     inkscape:showpageshadow="2"
     inkscape:pageopacity="0.0"
     inkscape:pagecheckerboard="0"
     inkscape:deskcolor="#d1d1d1"
     showgrid="false"
     inkscape:zoom="19.312854"
     inkscape:cx="8.3105273"
     inkscape:cy="17.216513"
     inkscape:window-width="2560"
     inkscape:window-height="1000"
     inkscape:window-x="1680"
     inkscape:window-y="0"
     inkscape:window-maximized="1"
     inkscape:current-layer="svg23024" /><g
     style="fill:none"
     id="g6490"
     transform="matrix(0.26457812,0,0,0.26457812,-3.2084885e-6,3.9934824e-6)"><path
       fill-rule="evenodd"
       clip-rule="evenodd"
       d="M 9.59604,1.11359 C 9.71588,1.11486 9.83043,1.0996 9.93969,1.06779 11.3755,0.973736 12.8111,0.977551 14.2467,1.07924 c 1.3017,0.10142 2.5618,0.38384 3.7802,0.84726 2.0256,0.83394 3.4117,2.28039 4.1581,4.33935 0.4269,1.23964 0.6789,2.51436 0.7561,3.82415 0.1067,1.6447 0.0685,3.2858 -0.1146,4.9233 -0.137,1.1509 -0.4349,2.2577 -0.8935,3.3203 -0.8506,1.8425 -2.229,3.1134 -4.1352,3.8127 -1.5447,0.5219 -3.1331,0.7967 -4.7653,0.8243 C 11.1966,23.0661 9.37913,22.9287 7.57997,22.5585 4.26839,21.8208 2.22559,19.8018 1.45158,16.5017 1.12311,15.0161 0.974199,13.5124 1.00483,11.9906 0.968176,10.3724 1.14,8.77709 1.52031,7.20471 2.33171,4.11908 4.2905,2.20701 7.39669,1.46852 8.12048,1.29157 8.8536,1.17326 9.59604,1.11359 Z"
       fill="url(#paint0_radial_29_23)"
       id="path6473"
       style="fill:url(#paint0_radial_29_23)" /></g><g
     id="g7588"
     transform="matrix(0.35956713,0,0,0.35956713,-6.4109613,-1.6195806)"><rect
       x="20.589005"
       y="8.3855333"
       width="12.141096"
       height="10.407122"
       rx="0.65065002"
       ry="0.65065002"
       color="#000000"
       fill="#363842"
       overflow="visible"
       id="rect24051"
       style="fill:#cdc9c9;fill-opacity:0.501961;stroke-width:0.819458" /><rect
       x="20.589005"
       y="7.8756232"
       width="12.141096"
       height="10.407122"
       rx="0.65065002"
       ry="0.65065002"
       color="#000000"
       fill="#363842"
       overflow="visible"
       id="rect24029"
       style="fill:#363842;fill-opacity:1;stroke-width:0.819458" /><path
       d="m 21.890304,14.810699 h 2.168287 v 2.168287 h -2.168287 z"
       fill="#ffffff"
       opacity="0.1"
       id="path24031"
       style="fill:#ffffff;fill-opacity:1;stroke-width:1.32097" /><path
       d="m 22.69747,10.254511 -0.807166,1.741349 c 0.130294,-0.07375 0.27206,-0.127016 0.418743,-0.161434 l 0.391701,3.799829 0.390882,-3.800648 c 0.145863,0.03442 0.285991,0.08768 0.413007,0.162253 z m 4.311171,5.110962 c 0.07375,0.130293 0.127016,0.27206 0.161433,0.418743 l -3.935039,0.391701 3.935859,0.391701 a 1.5078035,1.5078035 0 0 1 -0.162253,0.412188 l 1.74135,-0.807167 z"
       fill="#ffffff"
       id="path24033"
       style="fill:#ffffff;fill-opacity:1;stroke-width:1.32097" /><path
       d="m 22.154804,12.118486 h 4.596 v 4.596 h -4.596 z"
       fill="none"
       opacity="0.2"
       stroke="#ffffff"
       stroke-dasharray="0.852958, 0.852958"
       stroke-dashoffset="1"
       stroke-width="0.529"
       id="path25114"
       style="fill:#000000;fill-opacity:0;stroke:url(#pattern7218);stroke-width:0.528892;stroke-dasharray:0.852783, 0.852783;stroke-dashoffset:0.999795;stroke-opacity:1" /></g></svg>
