<?xml version="1.0" encoding="UTF-8" standalone="no"?>
<!-- Created with Inkscape (http://www.inkscape.org/) -->

<svg
   width="200"
   height="200"
   viewBox="0 0 52.916666 52.916666"
   version="1.1"
   id="svg5"
   xml:space="preserve"
   inkscape:version="1.2 (dc2aedaf03, 2022-05-15)"
   sodipodi:docname="icone_idioma.svg"
   xmlns:inkscape="http://www.inkscape.org/namespaces/inkscape"
   xmlns:sodipodi="http://sodipodi.sourceforge.net/DTD/sodipodi-0.dtd"
   xmlns="http://www.w3.org/2000/svg"
   xmlns:svg="http://www.w3.org/2000/svg"><sodipodi:namedview
     id="namedview7"
     pagecolor="#ffffff"
     bordercolor="#666666"
     borderopacity="1.0"
     inkscape:showpageshadow="2"
     inkscape:pageopacity="0.0"
     inkscape:pagecheckerboard="0"
     inkscape:deskcolor="#d1d1d1"
     inkscape:document-units="mm"
     showgrid="false"
     showguides="true"
     inkscape:zoom="2.9397642"
     inkscape:cx="94.735488"
     inkscape:cy="84.870752"
     inkscape:window-width="2560"
     inkscape:window-height="1008"
     inkscape:window-x="1680"
     inkscape:window-y="0"
     inkscape:window-maximized="1"
     inkscape:current-layer="Icons" /><defs
     id="defs2">
		
		
	</defs><g
     inkscape:label="Camada 1"
     inkscape:groupmode="layer"
     id="layer1"><path
       id="path2473"
       style="fill:#fbb540;fill-opacity:1;stroke-width:0.519999"
       d="M 25.984977 8.7591553 A 21.013777 16.050695 0 0 0 5.9495076 24.78505 A 21.013777 16.050695 0 0 0 11.201383 35.393705 L 9.2423299 42.412915 L 16.906978 38.87773 A 21.013777 16.050695 0 0 0 25.984977 40.811979 L 25.984977 8.7591553 z " /><path
       id="path3708"
       style="fill:#43dcfe;fill-opacity:1;stroke-width:0.519999"
       d="M 26.269004,40.789181 A 21.013777,16.050695 0 0 0 46.304474,24.763286 21.013777,16.050695 0 0 0 41.052599,14.154631 l 1.959053,-7.0192095 -7.664648,3.5351845 a 21.013777,16.050695 0 0 0 -9.078,-1.9342488 z" /><g
       id="g330"
       transform="matrix(1.3582436,0,0,1.3582436,10.334236,9.4715651)"
       style="opacity:1;fill:#0276b4;fill-opacity:1"><g
         id="Icons"
         style="opacity:0.75;fill:#0276b4;fill-opacity:1">
	<path
   id="japanese_1_"
   d="m 19.091384,9.81 0.271,-0.59 1.041,0.407 -0.18,0.363 c 0.661,0.271 1.101,0.468 1.312,0.589 0.331,0.211 0.618,0.514 0.86,0.905 0.211,0.393 0.316,0.846 0.316,1.358 0,0.786 -0.302,1.479 -0.905,2.083 -0.604,0.634 -1.66,1.057 -3.169,1.268 -0.121,-0.361 -0.258,-0.679 -0.408,-0.95 0.965,-0.151 1.645,-0.333 2.037,-0.545 0.454,-0.21 0.785,-0.481 0.998,-0.813 0.21,-0.303 0.314,-0.663 0.314,-1.087 0,-0.482 -0.136,-0.905 -0.407,-1.269 -0.331,-0.331 -0.8,-0.589 -1.402,-0.77 -0.333,0.634 -0.649,1.117 -0.951,1.449 -0.242,0.332 -0.694,0.906 -1.358,1.721 0.09,0.393 0.181,0.709 0.272,0.951 l -1.042,0.362 -0.091,-0.498 c -0.423,0.361 -0.801,0.617 -1.133,0.77 -0.361,0.15 -0.664,0.226 -0.905,0.226 -0.303,0 -0.574,-0.136 -0.814,-0.407 -0.243,-0.301 -0.362,-0.68 -0.362,-1.132 0,-0.604 0.136,-1.147 0.407,-1.63 0.241,-0.453 0.603,-0.89 1.086,-1.313 0.272,-0.241 0.725,-0.528 1.359,-0.86 0,-0.271 0.03,-0.799 0.09,-1.585 -0.514,0.03 -0.921,0.045 -1.222,0.045 -0.393,0 -0.711,-0.015 -0.951,-0.045 l -0.046,-1.041 c 0.725,0.091 1.494,0.135 2.31,0.135 0,-0.149 0.075,-0.738 0.227,-1.766 l 1.177,0.183 c -0.151,0.542 -0.256,1.041 -0.316,1.493 0.242,-0.029 0.543,-0.075 0.906,-0.136 0.362,-0.061 0.573,-0.091 0.634,-0.091 0.061,0 0.648,-0.15 1.766,-0.453 l 0.046,1.041 c -0.967,0.243 -2.145,0.439 -3.532,0.591 -0.062,0.663 -0.092,1.086 -0.092,1.266 0.663,-0.151 1.284,-0.225 1.857,-0.225 z m -2.672,3.893 c -0.061,-0.481 -0.136,-1.252 -0.227,-2.31 -0.573,0.424 -1.041,0.86 -1.403,1.313 -0.303,0.423 -0.452,0.875 -0.452,1.358 0,0.241 0.044,0.438 0.136,0.588 0.09,0.092 0.195,0.137 0.316,0.137 0.363,10e-4 0.907,-0.361 1.63,-1.086 z m 0.771,-2.763 c 0,0.483 0.029,1.088 0.09,1.811 0.604,-0.905 1.057,-1.599 1.359,-2.082 -0.574,0.06 -1.058,0.151 -1.449,0.271 z"
   style="fill:#01689f;fill-opacity:1" /><path
   id="english_1_"
   style="clip-rule:evenodd;opacity:1;fill:#9c681b;fill-opacity:1;fill-rule:evenodd"
   d="M 7.9386148,15.981 H 9.7896157 L 6.7056148,7.032 h -1.85 l -3.081,8.949 h 1.85 l 0.557,-1.981 h 3.209 z m -3.489,-3.377 1.331,-3.782 1.344,3.782 z" />
</g><g
         id="Guides"
         style="display:none;fill:#0276b4;fill-opacity:1">
</g></g></g></svg>
