<svg id="Layer_4" data-name="Layer 4" xmlns="http://www.w3.org/2000/svg" xmlns:xlink="http://www.w3.org/1999/xlink" viewBox="0 0 200.44 199.96"><defs><style>.cls-1{fill:#faf6f0;}.cls-2{fill:#d3d6d8;}.cls-3{fill:#f16060;}.cls-4{fill:#d4d7d9;}.cls-5{fill:#f13c3d;}.cls-6{font-size:34.02px;fill:#fff;font-family:Lato-Bold, Lato;font-weight:700;}.cls-7{letter-spacing:-0.02em;}.cls-8{fill:#3e3373;}.cls-9{fill:url(#linear-gradient);}</style><linearGradient id="linear-gradient" x1="100" y1="98.81" x2="100" y2="117.83" gradientUnits="userSpaceOnUse"><stop offset="0" stop-color="#ff4848" stop-opacity="0.6"/><stop offset="1" stop-color="#f16060" stop-opacity="0"/></linearGradient></defs><path class="cls-1" d="M153.91,11H65V37.61A11.17,11.17,0,0,1,53.8,48.67h-27V176.94A11.17,11.17,0,0,0,38,188h115.9a11.17,11.17,0,0,0,11.21-11.06V22.06A11.17,11.17,0,0,0,153.91,11Z" transform="translate(0 -0.28)"/><path class="cls-2" d="M65,37.61V11h-.09L26.8,48.62v.05h27A11.17,11.17,0,0,0,65,37.61Z" transform="translate(0 -0.28)"/><rect class="cls-3" y="97.92" width="200" height="5.03"/><path d="M70.93,64.92a5.54,5.54,0,0,1,2.37-2.66c1-.48,2.91-.73,5.87-.73h8.76V98.2h15.91V61.53h5.06c5.21,0,8.31.2,9.28.6a4.54,4.54,0,0,1,2.27,2.06q.81,1.47,4.4,12.47h4.86a183.3,183.3,0,0,1-1.57-22q-7.3.31-24,.47-19.71.11-40.37-.47-.26,8.44-.47,11.37T62.22,76.66H67A91.22,91.22,0,0,1,70.93,64.92Z" transform="translate(0 -0.28)"/><rect class="cls-4" x="48.54" y="111.45" width="94.55" height="7.09" rx="3.55"/><rect class="cls-4" x="48.54" y="125.95" width="66.91" height="7.09" rx="3.55"/><rect class="cls-5" x="111.84" width="88.6" height="55.53" rx="12"/><text class="cls-6" transform="translate(123.45 39.9)">PD<tspan class="cls-7" x="46.93" y="0">F</tspan></text><path id="path6" d="M139.37,147.47a12.77,12.77,0,0,1,6.77-3.82c.87,0,1.73-.12,2.56-.15a8.22,8.22,0,0,1,2.88.74,12,12,0,0,1,3.65,3.33,15.48,15.48,0,0,1,2.88,6.54,17.94,17.94,0,0,1,.08,2.43,9.91,9.91,0,0,1-1.21-2.16,10.64,10.64,0,0,0-2.09-2.52,6.67,6.67,0,0,0-4.45-1.85,6,6,0,0,0-1.89.24,9.15,9.15,0,0,0-4.48,2.72c-.4.47-.83.91-1.18,1.38a20.08,20.08,0,0,0-1.07,1.82,14.32,14.32,0,0,0-1.61,6c.08.82.08,1.61.16,2.44.23.55.12,1.3.71,1.61a2.74,2.74,0,0,0,1.18-.3,30.94,30.94,0,0,0,2.51-2.36c.95-.79,1.62-1.82,2.52-2.68.52-.39.83-.91,1.34-1.3a18.3,18.3,0,0,1,3-2.44,5.08,5.08,0,0,1,2.79-.74,4.36,4.36,0,0,1,3,1.77,13.79,13.79,0,0,1,2.12,4.72c.2.86.12,1.77.24,2.68a30.47,30.47,0,0,1-1.58,8.81,12.76,12.76,0,0,1-1.37,2.83c-.2.24-.32.55-.61.63a15.59,15.59,0,0,1,.3-1.73,7.79,7.79,0,0,0,.08-1.93,18.68,18.68,0,0,0,0-3c-.23-1-.27-2-.6-3a7.51,7.51,0,0,0-.79-2.05,3.19,3.19,0,0,0-.79-1.1,2.55,2.55,0,0,0-1.41-.6,5,5,0,0,0-1.14.35,10.71,10.71,0,0,0-2.29,2.12,13.8,13.8,0,0,1-1.92,1.65,5.12,5.12,0,0,1-3.59,1,11.69,11.69,0,0,1-4.88-1.73,10.17,10.17,0,0,1-1.92-1.53,9.73,9.73,0,0,1-2.61-5.43,4.48,4.48,0,0,1-.11-1.89,16.57,16.57,0,0,1,1.84-7.2,18.94,18.94,0,0,1,2-2.95A2.91,2.91,0,0,1,139.37,147.47Z" transform="translate(0 -0.28)"/><path id="path3742" d="M119.3,181.27a12.71,12.71,0,0,1-6.76,3.82c-.87,0-1.74.12-2.56.16a8.13,8.13,0,0,1-2.87-.75,11.64,11.64,0,0,1-3.67-3.35,15.55,15.55,0,0,1-2.87-6.53,16.54,16.54,0,0,1-.08-2.44,9.63,9.63,0,0,1,1.21,2.17,10.59,10.59,0,0,0,2.09,2.52,6.69,6.69,0,0,0,4.44,1.85,6,6,0,0,0,1.89-.24,9.3,9.3,0,0,0,4.49-2.72c.39-.48.82-.91,1.18-1.38a20,20,0,0,0,1.06-1.82,14.19,14.19,0,0,0,1.62-6c-.08-.82-.08-1.61-.16-2.44-.24-.55-.12-1.3-.71-1.61a2,2,0,0,0-1.18.3,15.66,15.66,0,0,0-2.52,2.36c-.94.79-1.61,1.82-2.52,2.68-.51.39-.83.91-1.34,1.3a18.65,18.65,0,0,1-3,2.44,5.19,5.19,0,0,1-2.8.75,4.45,4.45,0,0,1-3-1.77,13.84,13.84,0,0,1-2.12-4.73c-.19-.86-.11-1.77-.23-2.67a30.81,30.81,0,0,1,1.57-8.82,12.79,12.79,0,0,1,1.38-2.83c.2-.24.3-.55.59-.63a13.27,13.27,0,0,1-.3,1.73,7.79,7.79,0,0,0-.08,1.93,18.68,18.68,0,0,0,0,3c.24,1,.27,2.05.59,3a7.51,7.51,0,0,0,.79,2,3.07,3.07,0,0,0,.78,1.1,2.68,2.68,0,0,0,1.42.59,5.57,5.57,0,0,0,1.14-.35,10.68,10.68,0,0,0,2.28-2.12A13.33,13.33,0,0,1,111,160.2a5.12,5.12,0,0,1,3.58-1,11.64,11.64,0,0,1,4.88,1.73,10.28,10.28,0,0,1,1.93,1.54,9.7,9.7,0,0,1,2.64,5.44,4.49,4.49,0,0,1,.12,1.89,16.66,16.66,0,0,1-1.85,7.21,19.43,19.43,0,0,1-2,3A3.34,3.34,0,0,1,119.3,181.27Z" transform="translate(0 -0.28)"/><path id="path10" d="M124.66,149.67a6.5,6.5,0,0,1,5.35.4,4.34,4.34,0,0,1,1.38,1.65,3,3,0,0,1-.16,2.56,6.26,6.26,0,0,1-7.56,2.71,3.9,3.9,0,0,1-2.33-2.4,3,3,0,0,1,.4-2.44A5.48,5.48,0,0,1,124.66,149.67Z" transform="translate(0 -0.28)"/><path id="path12" d="M124.81,160.1a4,4,0,0,1,3.5-1.93,5.53,5.53,0,0,1,2.09.55,3.19,3.19,0,0,1,1.93,2.17,17.66,17.66,0,0,0,.35,3.46,13.26,13.26,0,0,0,4,5.94c.86,1,2,1.74,2.91,2.76a26.47,26.47,0,0,1-4-.42A13.48,13.48,0,0,1,131,171a10,10,0,0,1-2.24-1.54,12.4,12.4,0,0,1-2.8-3.11,10,10,0,0,1-1.61-4.54A5.5,5.5,0,0,1,124.81,160.1Z" transform="translate(0 -0.28)"/><rect class="cls-8" x="0.44" y="144.43" width="88.6" height="55.53" rx="12"/><text class="cls-6" transform="translate(8.77 184.32)">OCR</text><rect class="cls-9" y="97.72" width="200" height="28"/></svg>