<?xml version="1.0" encoding="UTF-8" standalone="no"?>
<svg
   width="24"
   height="24"
   fill="none"
   version="1.1"
   id="svg3"
   sodipodi:docname="threads.svg"
   inkscape:version="1.3.2 (091e20ef0f, 2023-11-25, custom)"
   xml:space="preserve"
   inkscape:export-filename="threads.pdf"
   inkscape:export-xdpi="96"
   inkscape:export-ydpi="96"
   xmlns:inkscape="http://www.inkscape.org/namespaces/inkscape"
   xmlns:sodipodi="http://sodipodi.sourceforge.net/DTD/sodipodi-0.dtd"
   xmlns:xlink="http://www.w3.org/1999/xlink"
   xmlns="http://www.w3.org/2000/svg"
   xmlns:svg="http://www.w3.org/2000/svg"><sodipodi:namedview
     id="namedview3"
     pagecolor="#ffffff"
     bordercolor="#000000"
     borderopacity="0.25"
     inkscape:showpageshadow="2"
     inkscape:pageopacity="0.0"
     inkscape:pagecheckerboard="0"
     inkscape:deskcolor="#d1d1d1"
     inkscape:zoom="16"
     inkscape:cx="0.90625"
     inkscape:cy="13.46875"
     inkscape:window-width="3440"
     inkscape:window-height="1366"
     inkscape:window-x="2560"
     inkscape:window-y="38"
     inkscape:window-maximized="1"
     inkscape:current-layer="svg3"><inkscape:page
       x="0"
       y="0"
       width="24"
       height="24"
       id="page2"
       margin="0"
       bleed="0" /></sodipodi:namedview><defs
     id="defs3"><radialGradient
       id="radialGradient9"
       cx="0"
       cy="0"
       r="1"
       gradientTransform="matrix(0,11,-11,0,12,1)"
       gradientUnits="userSpaceOnUse"><stop
         stop-color="#F08C85"
         id="stop8"
         offset="0"
         style="stop-color:#ffffff;stop-opacity:0.15865681;" /><stop
         offset="1"
         stop-color="#E84F43"
         id="stop9"
         style="stop-color:#ffffff;stop-opacity:0.39195681;" /></radialGradient><radialGradient
       id="a"
       cx="0"
       cy="0"
       r="1"
       gradientTransform="matrix(0,11,-11,0,11.999939,0.99980615)"
       gradientUnits="userSpaceOnUse"><stop
         stop-color="#F08C85"
         id="stop2"
         offset="0"
         style="stop-color:#282828;stop-opacity:1;" /><stop
         offset="1"
         stop-color="#E84F43"
         id="stop3"
         style="stop-color:#000000;stop-opacity:1;" /></radialGradient><linearGradient
       id="linearGradient4520"><stop
         id="stop4522"
         offset="0"
         style="stop-color:#794d3b;stop-opacity:1;" /><stop
         id="stop4524"
         offset="1"
         style="stop-color:#5e3c2e;stop-opacity:1;" /></linearGradient><linearGradient
       id="linearGradient4214"><stop
         id="stop4216"
         offset="0"
         style="stop-color:#e5dfdd;stop-opacity:1;" /><stop
         id="stop4218"
         offset="1"
         style="stop-color:#ffffff;stop-opacity:1;" /></linearGradient><linearGradient
       id="linearGradient4146"><stop
         id="stop4148"
         offset="0"
         style="stop-color:#ffba00;stop-opacity:1;" /><stop
         id="stop4150"
         offset="1"
         style="stop-color:#ff7f02;stop-opacity:1;" /></linearGradient><radialGradient
       r="77.057365"
       fy="-121.30928"
       fx="365.89624"
       cy="-121.30928"
       cx="365.89624"
       gradientTransform="matrix(1.2677782,0.01426727,-0.01587862,1.4102951,-99.301495,42.058005)"
       gradientUnits="userSpaceOnUse"
       id="radialGradient4354-0"
       xlink:href="#linearGradient4146"
       inkscape:collect="always" /><linearGradient
       gradientTransform="translate(0,564.66572)"
       y2="-171.75241"
       x2="423.44214"
       y1="-117.5489"
       x1="369.23862"
       gradientUnits="userSpaceOnUse"
       id="linearGradient4468"
       xlink:href="#linearGradient4214"
       inkscape:collect="always" /><radialGradient
       r="77.057365"
       fy="-121.30928"
       fx="365.89624"
       cy="-121.30928"
       cx="365.89624"
       gradientTransform="matrix(1.2677782,0.01426727,-0.01587862,1.4102951,-99.301495,606.72372)"
       gradientUnits="userSpaceOnUse"
       id="radialGradient4475"
       xlink:href="#linearGradient4146"
       inkscape:collect="always" /><radialGradient
       r="77.057365"
       fy="-121.30928"
       fx="365.89624"
       cy="-121.30928"
       cx="365.89624"
       gradientTransform="matrix(1.2677782,0.01426727,-0.01587862,1.4102951,-99.301495,606.72372)"
       gradientUnits="userSpaceOnUse"
       id="radialGradient4544-0-6-4"
       xlink:href="#linearGradient4146"
       inkscape:collect="always" /><radialGradient
       fx="0"
       fy="0"
       cx="0"
       cy="0"
       r="1"
       gradientUnits="userSpaceOnUse"
       gradientTransform="matrix(0,8.25,-8.25,0,8.999954,0.749855)"
       spreadMethod="pad"
       id="radialGradient2"><stop
         style="stop-opacity:1;stop-color:#282828"
         offset="0"
         id="stop1" /><stop
         style="stop-opacity:1;stop-color:#000000"
         offset="1"
         id="stop2-6" /></radialGradient></defs><g
     id="g1"
     inkscape:groupmode="layer"
     inkscape:label="1"><path
       id="path2-7"
       d="m 7.195,0.836 c 0.09,0 0.176,-0.012 0.258,-0.035 1.078,-0.071 2.156,-0.067 3.231,0.008 0.976,0.078 1.921,0.289 2.836,0.636 1.519,0.625 2.558,1.711 3.121,3.254 0.316,0.93 0.507,1.887 0.566,2.867 0.078,1.231 0.051,2.469 -0.086,3.692 -0.101,0.859 -0.328,1.699 -0.672,2.492 -0.637,1.383 -1.672,2.336 -3.101,2.859 C 12.195,17 10.992,17.207 9.773,17.227 8.402,17.301 7.031,17.195 5.684,16.918 3.199,16.367 1.668,14.852 1.09,12.375 0.844,11.266 0.73,10.129 0.754,8.992 0.727,7.785 0.855,6.578 1.141,5.402 1.75,3.09 3.219,1.656 5.547,1.102 6.09,0.969 6.641,0.879 7.195,0.836 Z"
       transform="scale(1.3333333)"
       style="fill:url(#radialGradient2);fill-rule:evenodd;stroke:none" /><path
       id="path3"
       d="M 11.512,8.617 C 11.469,8.594 11.422,8.574 11.375,8.555 11.293,7.062 10.477,6.207 9.109,6.195 8.316,6.191 7.609,6.516 7.168,7.184 L 7.922,7.699 C 8.234,7.227 8.727,7.125 9.09,7.125 h 0.012 c 0.453,0 0.793,0.133 1.011,0.387 0.16,0.187 0.27,0.445 0.321,0.769 C 10.035,8.215 9.602,8.191 9.141,8.219 7.836,8.293 7,9.055 7.055,10.109 c 0.031,0.536 0.297,0.996 0.754,1.297 0.382,0.254 0.879,0.379 1.394,0.352 0.684,-0.039 1.219,-0.297 1.59,-0.774 0.285,-0.359 0.461,-0.828 0.543,-1.418 0.324,0.196 0.562,0.454 0.695,0.766 0.227,0.527 0.242,1.391 -0.465,2.098 -0.621,0.617 -1.363,0.886 -2.488,0.894 C 7.832,13.312 6.887,12.914 6.273,12.133 5.699,11.406 5.402,10.352 5.391,9 5.402,7.648 5.699,6.594 6.273,5.867 6.887,5.086 7.832,4.688 9.078,4.676 c 1.258,0.012 2.215,0.41 2.852,1.195 0.312,0.383 0.547,0.867 0.703,1.43 L 13.516,7.066 C 13.328,6.371 13.031,5.777 12.629,5.281 11.812,4.273 10.621,3.762 9.082,3.75 H 9.074 C 7.539,3.762 6.359,4.277 5.566,5.285 4.859,6.184 4.496,7.43 4.484,8.996 v 0.008 c 0.012,1.566 0.375,2.812 1.082,3.711 0.793,1.008 1.973,1.523 3.508,1.535 h 0.008 c 1.363,-0.008 2.324,-0.367 3.117,-1.16 1.039,-1.035 1.008,-2.332 0.664,-3.129 C 12.621,9.387 12.152,8.922 11.512,8.617 Z M 9.156,10.832 C 8.586,10.863 7.992,10.609 7.961,10.059 7.941,9.652 8.254,9.199 9.191,9.145 9.297,9.137 9.402,9.137 9.508,9.137 c 0.34,0 0.66,0.031 0.949,0.093 -0.109,1.352 -0.742,1.571 -1.301,1.602 z"
       style="fill:#ffffff;fill-opacity:1;fill-rule:nonzero;stroke:none"
       transform="scale(1.3333333)" /></g></svg>
