<?xml version="1.0" encoding="UTF-8" standalone="no"?>
<svg
   width="24"
   height="24"
   viewBox="0 0 6.349875 6.349875"
   version="1.1"
   id="svg10965"
   sodipodi:docname="opera-browser-icon.svg"
   xml:space="preserve"
   inkscape:version="1.2.2 (b0a8486541, 2022-12-01)"
   xmlns:inkscape="http://www.inkscape.org/namespaces/inkscape"
   xmlns:sodipodi="http://sodipodi.sourceforge.net/DTD/sodipodi-0.dtd"
   xmlns="http://www.w3.org/2000/svg"
   xmlns:svg="http://www.w3.org/2000/svg"><defs
     id="defs10969"><radialGradient
       id="paint0_radial_8_22"
       cx="0"
       cy="0"
       r="1"
       gradientUnits="userSpaceOnUse"
       gradientTransform="matrix(0,5.8207186,-5.8207186,0,3.1749362,0.2645822)"><stop
         stop-color="#FAFAFA"
         id="stop69" /><stop
         offset="1"
         stop-color="#C0C0C0"
         id="stop71" /></radialGradient></defs><sodipodi:namedview
     id="namedview10967"
     pagecolor="#ffffff"
     bordercolor="#000000"
     borderopacity="0.25"
     inkscape:showpageshadow="2"
     inkscape:pageopacity="0.0"
     inkscape:pagecheckerboard="0"
     inkscape:deskcolor="#d1d1d1"
     showgrid="false"
     inkscape:zoom="6.828125"
     inkscape:cx="16.10984"
     inkscape:cy="23.798627"
     inkscape:window-width="2560"
     inkscape:window-height="1000"
     inkscape:window-x="1680"
     inkscape:window-y="0"
     inkscape:window-maximized="1"
     inkscape:current-layer="svg10965" /><path
     fill-rule="evenodd"
     clip-rule="evenodd"
     d="m 2.5389012,0.2946356 c 0.03171,3.361e-4 0.06201,-0.0037 0.09092,-0.012118 0.379884,-0.024885 0.759713,-0.023875 1.139541,0.00303 0.344401,0.026834 0.677796,0.1015557 1.000158,0.2241664 0.53593,0.2206423 0.902661,0.6033413 1.100143,1.1480971 0.112948,0.3279816 0.179622,0.6652447 0.200047,1.0117864 0.02823,0.4351517 0.01812,0.8693508 -0.03032,1.3025975 -0.03625,0.3045029 -0.115065,0.597338 -0.2364,0.8784787 -0.22505,0.4874852 -0.589745,0.8237375 -1.094084,1.008757 C 4.3002132,5.997514 3.8799572,6.0702201 3.4481122,6.0775225 2.9623732,6.1027895 2.4815112,6.0664365 2.0054922,5.9684898 1.1293212,5.7733105 0.58884019,5.2391273 0.38405419,4.3659931 c -0.08691,-0.3930573 -0.126304,-0.7909034 -0.1182,-1.1935384 -0.0097,-0.4281403 0.03576,-0.8502244 0.136385,-1.2662418 0.214678,-0.8163902 0.73293101,-1.322282 1.55476101,-1.5176703 0.191499,-0.046817 0.385467,-0.078119 0.5819,-0.093907 z"
     fill="url(#paint0_radial_8_22)"
     id="path27"
     style="fill:url(#paint0_radial_8_22);stroke-width:0.264578" /><g
     id="g11165"
     transform="matrix(0.29627225,0,0,0.29627225,0.66637394,0.66668749)"><g
       stroke-width="3.78"
       id="g10963"><path
         transform="scale(0.26458)"
         d="M 32.002,4.996 C 17.089,4.996 5,17.086 5,31.998 5,46.911 17.089,59 32.002,59 46.915,59 59.004,46.911 59.004,31.998 59.004,17.085 46.915,4.996 32.002,4.996 Z M 32,13 c 7.732,0 14,8.507 14,19 C 46,42.493 39.732,51 32,51 24.268,51 18,42.493 18,32 18,21.507 24.268,13 32,13 Z"
         fill="#ff1b2d"
         style="paint-order:stroke markers fill"
         id="path10959" /><path
         transform="scale(0.26458)"
         d="M 38.5,10 C 33.035,10 28.083,12.309 24.408,16.049 26.596,14.127 29.199,12.999 32,13 c 7.732,0 14,8.507 14,19 0,10.493 -6.268,19 -14,19 -2.8,0 -5.404,-1.127 -7.592,-3.049 3.675,3.74 8.627,6.05 14.092,6.049 C 49.822,54 59,44.15 59,32 59,19.85 49.822,10 38.5,10 Z M 18.133,29.523 c -0.01,0.087 -0.021,0.173 -0.03,0.26 0.008,-0.088 0.022,-0.173 0.03,-0.26 z m -0.074,0.893 z M 18,32 Z m 0.104,2.216 c 0.008,0.088 0.02,0.173 0.029,0.26 -0.008,-0.087 -0.022,-0.172 -0.03,-0.26 z"
         fill="#af0e0e"
         style="paint-order:stroke markers fill"
         id="path10961" /></g></g></svg>
