<?xml version="1.0" encoding="UTF-8" standalone="no"?>
<svg
   width="24"
   height="24"
   viewBox="0 0 6.349875 6.349875"
   version="1.1"
   id="svg10965"
   sodipodi:docname="opera_bw.svg"
   xml:space="preserve"
   inkscape:version="1.2.2 (b0a8486541, 2022-12-01)"
   inkscape:export-filename="opera_bw.pdf"
   inkscape:export-xdpi="96"
   inkscape:export-ydpi="96"
   xmlns:inkscape="http://www.inkscape.org/namespaces/inkscape"
   xmlns:sodipodi="http://sodipodi.sourceforge.net/DTD/sodipodi-0.dtd"
   xmlns="http://www.w3.org/2000/svg"
   xmlns:svg="http://www.w3.org/2000/svg"><defs
     id="defs10969"><radialGradient
       id="paint0_radial_8_22"
       cx="0"
       cy="0"
       r="1"
       gradientUnits="userSpaceOnUse"
       gradientTransform="matrix(0,5.8207186,-5.8207186,0,3.1749362,0.2645822)"><stop
         stop-color="#FAFAFA"
         id="stop69" /><stop
         offset="1"
         stop-color="#C0C0C0"
         id="stop71" /></radialGradient><radialGradient
       fx="0"
       fy="0"
       cx="0"
       cy="0"
       r="1"
       gradientUnits="userSpaceOnUse"
       gradientTransform="matrix(0,16.5,-16.5,0,8.999996,0.750012)"
       spreadMethod="pad"
       id="radialGradient4014"><stop
         style="stop-opacity:1;stop-color:#fafafa"
         offset="0"
         id="stop4010" /><stop
         style="stop-opacity:1;stop-color:#c0c0c0"
         offset="1"
         id="stop4012" /></radialGradient><radialGradient
       fx="0"
       fy="0"
       cx="0"
       cy="0"
       r="1"
       gradientUnits="userSpaceOnUse"
       gradientTransform="matrix(0,16.5,-16.5,0,8.999996,0.750012)"
       spreadMethod="pad"
       id="radialGradient4014-9"><stop
         style="stop-opacity:1;stop-color:#fafafa"
         offset="0"
         id="stop4010-2" /><stop
         style="stop-opacity:1;stop-color:#c0c0c0"
         offset="1"
         id="stop4012-0" /></radialGradient></defs><sodipodi:namedview
     id="namedview10967"
     pagecolor="#ffffff"
     bordercolor="#000000"
     borderopacity="0.25"
     inkscape:showpageshadow="2"
     inkscape:pageopacity="0.0"
     inkscape:pagecheckerboard="0"
     inkscape:deskcolor="#d1d1d1"
     showgrid="false"
     inkscape:zoom="3.4140625"
     inkscape:cx="-94.901602"
     inkscape:cy="1.7574371"
     inkscape:window-width="2560"
     inkscape:window-height="998"
     inkscape:window-x="1680"
     inkscape:window-y="0"
     inkscape:window-maximized="1"
     inkscape:current-layer="svg10965" /><g
     id="g3998"
     transform="matrix(0.35277082,0,0,0.35277082,-1.1961624e-4,-9.2306512e-6)"><g
       id="g4000"><g
         id="g4002"><g
           id="g4008"><path
             d="m 7.195,0.836 c 0.09,0 0.176,-0.012 0.258,-0.035 1.078,-0.071 2.156,-0.067 3.231,0.008 0.976,0.078 1.921,0.289 2.836,0.636 1.519,0.625 2.558,1.711 3.121,3.254 0.316,0.93 0.507,1.887 0.566,2.867 0.078,1.235 0.051,2.465 -0.086,3.696 -0.105,0.863 -0.328,1.691 -0.672,2.488 -0.637,1.383 -1.672,2.336 -3.101,2.859 C 12.191,17 11,17.207 9.773,17.227 8.398,17.301 7.035,17.195 5.684,16.918 3.203,16.367 1.668,14.852 1.09,12.375 0.844,11.262 0.73,10.133 0.754,8.992 0.727,7.781 0.855,6.582 1.141,5.402 1.75,3.09 3.219,1.656 5.547,1.102 6.09,0.969 6.641,0.879 7.195,0.836 Z"
             style="fill:url(#radialGradient4014-9);fill-rule:evenodd;stroke:none"
             id="path4016" /></g></g></g><path
       d="M 9,3 C 5.688,3 3,5.688 3,9 c 0,3.312 2.688,6 6,6 3.312,0 6,-2.688 6,-6 C 15,5.688 12.312,3 9,3 Z m 0,1.777 c 1.719,0 3.109,1.891 3.109,4.223 0,2.332 -1.39,4.223 -3.109,4.223 C 7.281,13.223 5.891,11.332 5.891,9 5.891,6.668 7.281,4.777 9,4.777 Z"
       style="fill:#8d8d8d;fill-opacity:1;fill-rule:nonzero;stroke:none"
       id="path4018" /><path
       d="M 10.445,4.113 C 9.23,4.113 8.129,4.625 7.312,5.457 7.797,5.027 8.379,4.777 9,4.777 c 1.719,0 3.109,1.891 3.109,4.223 0,2.332 -1.39,4.223 -3.109,4.223 -0.621,0 -1.203,-0.25 -1.688,-0.68 0.817,0.832 1.918,1.348 3.133,1.348 C 12.961,13.891 15,11.699 15,9 15,6.301 12.961,4.113 10.445,4.113 Z M 5.918,8.449 C 5.914,8.469 5.914,8.488 5.91,8.508 5.914,8.488 5.918,8.469 5.918,8.449 Z M 5.91,9.492 c 0.004,0.02 0.008,0.039 0.008,0.059 0,-0.02 -0.004,-0.039 -0.008,-0.059 z"
       style="fill:#5e5e5e;fill-opacity:1;fill-rule:nonzero;stroke:none"
       id="path4020" /></g></svg>
