<?xml version="1.0" encoding="UTF-8" standalone="no"?>
<svg
   width="24"
   height="24"
   version="1.1"
   viewBox="0 0 6.349875 6.349875"
   id="svg7991"
   sodipodi:docname="vivaldi_bw.svg"
   xml:space="preserve"
   inkscape:version="1.2.2 (b0a8486541, 2022-12-01)"
   inkscape:export-filename="vivaldi_bw.pdf"
   inkscape:export-xdpi="96"
   inkscape:export-ydpi="96"
   xmlns:inkscape="http://www.inkscape.org/namespaces/inkscape"
   xmlns:sodipodi="http://sodipodi.sourceforge.net/DTD/sodipodi-0.dtd"
   xmlns="http://www.w3.org/2000/svg"
   xmlns:svg="http://www.w3.org/2000/svg"><defs
     id="defs7995"><radialGradient
       id="paint0_radial_1_41"
       cx="0"
       cy="0"
       r="1"
       gradientUnits="userSpaceOnUse"
       gradientTransform="matrix(0,2.9103593,-2.9103593,0,3.1749342,0.26458211)"><stop
         stop-color="#F08C85"
         id="stop283"
         offset="0"
         style="stop-color:#e3e3e3;stop-opacity:1;" /><stop
         offset="1"
         stop-color="#E84F43"
         id="stop285"
         style="stop-color:#939393;stop-opacity:1;" /></radialGradient><radialGradient
       fx="0"
       fy="0"
       cx="0"
       cy="0"
       r="1"
       gradientUnits="userSpaceOnUse"
       gradientTransform="matrix(0,8.25,-8.25,0,8.999991,0.750011)"
       spreadMethod="pad"
       id="radialGradient3276"><stop
         style="stop-opacity:1;stop-color:#e3e3e3"
         offset="0"
         id="stop3272" /><stop
         style="stop-opacity:1;stop-color:#939393"
         offset="1"
         id="stop3274" /></radialGradient><radialGradient
       fx="0"
       fy="0"
       cx="0"
       cy="0"
       r="1"
       gradientUnits="userSpaceOnUse"
       gradientTransform="matrix(0,8.25,-8.25,0,8.999991,0.750011)"
       spreadMethod="pad"
       id="radialGradient3276-6"><stop
         style="stop-opacity:1;stop-color:#e3e3e3"
         offset="0"
         id="stop3272-0" /><stop
         style="stop-opacity:1;stop-color:#939393"
         offset="1"
         id="stop3274-6" /></radialGradient></defs><sodipodi:namedview
     id="namedview7993"
     pagecolor="#ffffff"
     bordercolor="#000000"
     borderopacity="0.25"
     inkscape:showpageshadow="2"
     inkscape:pageopacity="0.0"
     inkscape:pagecheckerboard="0"
     inkscape:deskcolor="#d1d1d1"
     showgrid="false"
     inkscape:zoom="3.4140625"
     inkscape:cx="-103.98169"
     inkscape:cy="-4.3935927"
     inkscape:window-width="2560"
     inkscape:window-height="998"
     inkscape:window-x="1680"
     inkscape:window-y="0"
     inkscape:window-maximized="1"
     inkscape:current-layer="svg7991" /><g
     id="g3260"
     transform="matrix(0.35277082,0,0,0.35277082,-1.1961624e-4,-9.2306512e-6)"><g
       id="g3262"><g
         id="g3264"><g
           id="g3270"><path
             d="m 7.195,0.836 c 0.09,0 0.176,-0.012 0.258,-0.035 1.078,-0.071 2.156,-0.067 3.231,0.008 0.976,0.078 1.921,0.289 2.836,0.636 1.519,0.625 2.558,1.711 3.121,3.254 0.316,0.93 0.507,1.887 0.566,2.867 0.078,1.235 0.051,2.465 -0.086,3.696 -0.105,0.863 -0.328,1.691 -0.672,2.488 -0.637,1.383 -1.672,2.336 -3.101,2.859 C 12.191,17 11,17.207 9.773,17.227 8.398,17.301 7.035,17.195 5.684,16.918 3.203,16.367 1.668,14.852 1.09,12.375 0.844,11.262 0.73,10.133 0.754,8.992 0.727,7.781 0.855,6.582 1.141,5.402 1.75,3.09 3.219,1.656 5.547,1.102 6.09,0.969 6.641,0.879 7.195,0.836 Z"
             style="fill:url(#radialGradient3276-6);fill-rule:evenodd;stroke:none"
             id="path3278" /></g></g></g><path
       d="m 3.586,5.754 4.523,8.039 c 0,0 0.246,0.43 0.864,0.43 0.613,0 0.859,-0.43 0.859,-0.43 0,0 3.145,-4.844 4.426,-7.43 C 14.387,6.105 14.527,5.84 14.586,5.559 14.633,5.363 14.637,5.16 14.598,4.965 14.551,4.727 14.43,4.504 14.258,4.328 14.047,4.141 13.781,4.023 13.5,3.996 13.199,3.969 12.895,4.031 12.625,4.172 c -0.187,0.101 -0.344,0.254 -0.453,0.441 -0.094,0.192 -0.141,0.399 -0.141,0.614 -0.004,0.195 0.028,0.386 0.094,0.57 0.043,0.117 0.098,0.23 0.141,0.348 0.035,0.097 0.086,0.191 0.093,0.296 0.028,0.164 0.012,0.336 -0.043,0.497 C 12.02,7.688 11.512,8.41 10.84,8.852 10.562,9.035 10.207,9.082 9.875,9.094 9.496,9.113 9.059,9.082 8.75,8.914 8.445,8.746 8.301,8.453 8.109,8.195 7.227,7.02 5.781,4.434 5.781,4.434 5.781,4.434 5.152,3.32 4.023,3.996 2.895,4.672 3.582,5.754 3.582,5.754 Z"
       style="fill:#ffffff;fill-opacity:1;fill-rule:evenodd;stroke:none"
       id="path3280" /></g></svg>
