<?xml version="1.0" encoding="UTF-8" standalone="no"?>
<svg
   width="24"
   height="24"
   viewBox="0 0 24 24"
   fill="none"
   version="1.1"
   id="svg154"
   sodipodi:docname="app.svg"
   inkscape:version="1.2.2 (b0a8486541, 2022-12-01)"
   xml:space="preserve"
   inkscape:export-filename="../../../../svg/icons que não tem no pacote/big-store.svg"
   inkscape:export-xdpi="96"
   inkscape:export-ydpi="96"
   xmlns:inkscape="http://www.inkscape.org/namespaces/inkscape"
   xmlns:sodipodi="http://sodipodi.sourceforge.net/DTD/sodipodi-0.dtd"
   xmlns:xlink="http://www.w3.org/1999/xlink"
   xmlns="http://www.w3.org/2000/svg"
   xmlns:svg="http://www.w3.org/2000/svg"
   xmlns:sketch="http://www.bohemiancoding.com/sketch/ns"><sodipodi:namedview
     id="namedview156"
     pagecolor="#ffffff"
     bordercolor="#000000"
     borderopacity="1"
     inkscape:showpageshadow="0"
     inkscape:pageopacity="1"
     inkscape:pagecheckerboard="false"
     inkscape:deskcolor="#ffffff"
     showgrid="true"
     inkscape:zoom="32"
     inkscape:cx="9.609375"
     inkscape:cy="15.453125"
     inkscape:window-width="1920"
     inkscape:window-height="1052"
     inkscape:window-x="0"
     inkscape:window-y="0"
     inkscape:window-maximized="1"
     inkscape:current-layer="svg154"
     showguides="true"
     guidecolor="#ff0000"
     guideopacity="1"
     inkscape:lockguides="true"
     showborder="true"
     borderlayer="true"><inkscape:grid
       type="xygrid"
       id="grid356"
       color="#000000"
       opacity="0.10196078"
       empcolor="#000000"
       empopacity="0.10196078"
       snapvisiblegridlinesonly="true"
       enabled="true"
       visible="true"
       dotted="false" /><sodipodi:guide
       position="4,12"
       orientation="-1,0"
       id="guide764"
       inkscape:locked="true"
       inkscape:label="left-circle"
       inkscape:color="rgb(255,0,0)" /><sodipodi:guide
       position="5,12"
       orientation="-1,0"
       id="guide2218"
       inkscape:locked="true"
       inkscape:label="left-square"
       inkscape:color="rgb(255,0,0)" /><sodipodi:guide
       position="12,20"
       orientation="0,1"
       id="guide2220"
       inkscape:locked="true"
       inkscape:label="top-circle"
       inkscape:color="rgb(255,0,0)" /><sodipodi:guide
       position="12,5"
       orientation="0,1"
       id="guide2222"
       inkscape:locked="true"
       inkscape:label="bottom-square"
       inkscape:color="rgb(255,0,0)" /><sodipodi:guide
       position="12,4"
       orientation="0,1"
       id="guide2224"
       inkscape:locked="true"
       inkscape:label="bottom-circle"
       inkscape:color="rgb(255,0,0)" /><sodipodi:guide
       position="19,12"
       orientation="-1,0"
       id="guide2226"
       inkscape:locked="true"
       inkscape:label="right-square"
       inkscape:color="rgb(255,0,0)" /><sodipodi:guide
       position="20,12"
       orientation="-1,0"
       id="guide2228"
       inkscape:locked="true"
       inkscape:label="right-circle"
       inkscape:color="rgb(255,0,0)" /><sodipodi:guide
       position="12,19"
       orientation="0,1"
       id="guide2230"
       inkscape:locked="true"
       inkscape:label="top-square"
       inkscape:color="rgb(255,0,0)" /><sodipodi:guide
       position="12,12"
       orientation="1,0"
       id="guide765"
       inkscape:locked="true" /><sodipodi:guide
       position="12,12"
       orientation="0,-1"
       id="guide767"
       inkscape:locked="true" /><sodipodi:guide
       position="12,12"
       orientation="0.70710678,0.70710678"
       id="guide2266"
       inkscape:locked="true"
       inkscape:label=""
       inkscape:color="rgb(255,0,0)" /><sodipodi:guide
       position="12,12"
       orientation="-0.70710678,0.70710678"
       id="guide2994"
       inkscape:locked="true"
       inkscape:label=""
       inkscape:color="rgb(255,0,0)" /><sodipodi:guide
       position="3,12"
       orientation="-1,0"
       id="guide131543"
       inkscape:locked="true"
       inkscape:label="left-horizontal"
       inkscape:color="rgb(255,0,0)" /><sodipodi:guide
       position="12,21"
       orientation="0,1"
       id="guide131545"
       inkscape:locked="true"
       inkscape:label="top-vertical"
       inkscape:color="rgb(255,0,0)" /><sodipodi:guide
       position="21,12"
       orientation="-1,0"
       id="guide131547"
       inkscape:locked="true"
       inkscape:label="right-horizontal"
       inkscape:color="rgb(255,0,0)" /><sodipodi:guide
       position="12,3"
       orientation="0,1"
       id="guide131549"
       inkscape:locked="true"
       inkscape:label="bottom-vertical"
       inkscape:color="rgb(255,0,0)" /><sodipodi:guide
       position="7.4688154,18.873476"
       orientation="1,0"
       id="guide5647"
       inkscape:locked="true" /><sodipodi:guide
       position="14.981825,18.740893"
       orientation="1,0"
       id="guide5649"
       inkscape:locked="true" /><sodipodi:guide
       position="16.484427,19.29332"
       orientation="1,0"
       id="guide6079"
       inkscape:locked="true" /></sodipodi:namedview><defs
     id="defs152"><linearGradient
       id="linearGradient6063"
       inkscape:swatch="solid"><stop
         style="stop-color:#f5f5f5;stop-opacity:1;"
         offset="0"
         id="stop6061" /></linearGradient><linearGradient
       inkscape:collect="always"
       id="linearGradient1246"><stop
         style="stop-color:#006699;stop-opacity:1"
         offset="0"
         id="stop1242" /><stop
         style="stop-color:#00a1d9;stop-opacity:1"
         offset="1"
         id="stop1244" /></linearGradient><linearGradient
       inkscape:collect="always"
       xlink:href="#linearGradient1246"
       id="linearGradient1248"
       x1="54.785809"
       y1="82.085754"
       x2="52.79707"
       y2="0.90909088"
       gradientUnits="userSpaceOnUse"
       gradientTransform="matrix(0.24444444,0,0,0.24444444,-0.22222222,-0.22222222)" /><style
       id="style212">.cls-2{fill:#cc5e55}.cls-3{fill:#ffc328}.cls-4{fill:#002a44}.cls-5{fill:#3c3}.cls-6{fill:#fff}</style></defs><path
     d="M 12,0.99999998 C 2,0.99999998 0.99999998,6 0.99999998,12 0.99999998,20 4.0000001,23 12,23 20,23 23,20 23,12 23,6 22,0.99999998 12,0.99999998 Z"
     sketch:type="MSShapeGroup"
     id="path6"
     style="font-variation-settings:normal;display:inline;opacity:1;vector-effect:none;fill:url(#linearGradient1248);fill-opacity:1;stroke-width:1.11627;stroke-linecap:butt;stroke-linejoin:miter;stroke-miterlimit:4;stroke-dasharray:none;stroke-dashoffset:0;stroke-opacity:1;-inkscape-stroke:none;stop-color:#000000;stop-opacity:1"
     sodipodi:nodetypes="sssss"
     inkscape:label="Shape"
     sodipodi:insensitive="true" /><g
     id="g8261"
     transform="matrix(0.88548973,0,0,0.88548973,22.417994,3.1742639)"><g
       id="g9743"
       transform="matrix(0.14317911,0,0,0.14317911,-22.764969,-1.0326667)"><path
         class="cls-2"
         d="m 128.179,54.761419 h -22.36917 a 3.9154828,3.9154828 0 0 1 -3.88915,-3.915483 V 28.353858 a 3.9067037,3.9067037 0 0 1 3.88915,-3.906704 H 128.179 a 3.9067037,3.9067037 0 0 1 3.9067,3.906704 v 22.448183 a 3.9154828,3.9154828 0 0 1 -3.9067,3.959378 z m -38.73344,0 H 67.12029 A 3.9242619,3.9242619 0 0 1 63.22236,50.845936 V 28.353858 a 3.9154828,3.9154828 0 0 1 3.89793,-3.906704 h 22.36039 a 3.9067037,3.9067037 0 0 1 3.89792,3.906704 v 22.448183 a 3.9154828,3.9154828 0 0 1 -3.93304,3.959378 z M 45.54124,57.395152 24.26945,50.573784 a 3.9681575,3.9681575 0 0 1 -2.52838,-4.93386 L 28.55366,24.28913 a 3.9505992,3.9505992 0 0 1 4.90752,-2.545941 l 21.27178,6.847705 a 3.9769366,3.9769366 0 0 1 2.53717,4.92508 l -6.83015,21.359574 a 3.8979246,3.8979246 0 0 1 -4.89874,2.519604 z"
         id="path218"
         style="fill:#cc5e55;stroke-width:0.877911" /><path
         class="cls-3"
         d="m 128.179,93.389501 h -22.36917 a 3.9067037,3.9067037 0 0 1 -3.88915,-3.915483 V 67.052172 a 3.9154828,3.9154828 0 0 1 3.88915,-3.915482 H 128.179 a 3.9154828,3.9154828 0 0 1 3.9067,3.915482 v 22.47452 a 3.8979246,3.8979246 0 0 1 -3.9067,3.862809 z"
         id="path220"
         style="fill:#ffc328;stroke-width:0.877911" /><path
         class="cls-5"
         d="M 50.68579,93.389501 H 28.3254 A 3.9067037,3.9067037 0 0 1 24.42748,89.474018 V 67.052172 A 3.9154828,3.9154828 0 0 1 28.3254,63.13669 h 22.36039 a 3.9242619,3.9242619 0 0 1 3.89793,3.915482 v 22.47452 a 3.9067037,3.9067037 0 0 1 -3.89793,3.862809 z"
         id="path224"
         style="fill:#33cc33;stroke-width:0.877911" /><path
         class="cls-3"
         d="m 128.179,132.07903 h -22.36917 a 3.9067037,3.9067037 0 0 1 -3.88915,-3.9067 v -22.49207 a 3.9067037,3.9067037 0 0 1 3.88915,-3.90671 H 128.179 a 3.9067037,3.9067037 0 0 1 3.9067,3.90671 v 22.45696 a 3.9067037,3.9067037 0 0 1 -3.9067,3.94181 z m -38.73344,0 H 67.12029 a 3.9154828,3.9154828 0 0 1 -3.89793,-3.9067 v -22.49207 a 3.9154828,3.9154828 0 0 1 3.89793,-3.87159 h 22.36039 a 3.9067037,3.9067037 0 0 1 3.89792,3.9067 v 22.45696 a 3.9067037,3.9067037 0 0 1 -3.93304,3.9067 z"
         id="path226"
         style="fill:#ffc328;stroke-width:0.877911" /><path
         class="cls-5"
         d="M 50.68579,132.07903 H 28.3254 a 3.9067037,3.9067037 0 0 1 -3.89792,-3.9067 v -22.49207 a 3.9067037,3.9067037 0 0 1 3.89792,-3.90671 h 22.36039 a 3.9154828,3.9154828 0 0 1 3.89793,3.90671 v 22.45696 a 3.9154828,3.9154828 0 0 1 -3.89793,3.94181 z"
         id="path228"
         style="fill:#33cc33;stroke-width:0.877911" /></g><g
       id="g9555"
       style="fill:#ffffff;fill-opacity:1"
       transform="matrix(0.16205065,0,0,0.16205065,-24.28255,-2.6984453)"><path
         id="path6-7"
         class="cls-6"
         d="m 84.83653,67.57014 a 8.0855598,8.0855598 0 0 1 4.23153,-2.396697 c 0.55308,0 1.07983,-0.06145 1.60658,-0.08779 a 5.1972328,5.1972328 0 0 1 1.75582,0.465293 7.2252071,7.2252071 0 0 1 2.29135,2.080649 9.8501608,9.8501608 0 0 1 1.75582,4.091065 12.677034,12.677034 0 0 1 0,1.536344 7.3744519,7.3744519 0 0 1 -0.77256,-1.360762 6.3824125,6.3824125 0 0 0 -1.31687,-1.58024 4.1261814,4.1261814 0 0 0 -2.68641,-1.167621 3.608214,3.608214 0 0 0 -1.18518,0.158023 5.7854331,5.7854331 0 0 0 -2.80931,1.755822 c -0.24582,0.280932 -0.52675,0.570642 -0.74623,0.877911 -0.21947,0.307269 -0.49163,0.755004 -0.66721,1.150064 a 8.902017,8.902017 0 0 0 -1.0096,3.757458 c 0,0.526747 0,1.009598 0.0878,1.536345 0.15803,0.351164 0.0702,0.807678 0.43896,1.009597 a 1.2378544,1.2378544 0 0 0 0.74622,-0.201919 10.929991,10.929991 0 0 0 1.63292,-1.536344 c 0.5882,-0.482851 1.0096,-1.141285 1.58024,-1.67681 0.32483,-0.237036 0.52675,-0.570642 0.83401,-0.807678 a 11.737669,11.737669 0 0 1 1.88751,-1.536345 3.1078047,3.1078047 0 0 1 1.75582,-0.465292 2.7566404,2.7566404 0 0 1 1.84362,1.097388 8.5157361,8.5157361 0 0 1 1.31686,2.967339 c 0.13169,0.553084 0.0702,1.097389 0.15803,1.668031 a 19.577414,19.577414 0 0 1 -0.99204,5.52206 7.4973594,7.4973594 0 0 1 -0.87791,1.755822 c -0.13169,0.158024 -0.20192,0.351164 -0.3775,0.39506 a 7.7256163,7.7256163 0 0 1 0.20192,-1.071052 4.6704862,4.6704862 0 0 0 0,-1.211517 13.300351,13.300351 0 0 0 0,-1.86995 c -0.14925,-0.614538 -0.17559,-1.272971 -0.36873,-1.887509 a 5.4342687,5.4342687 0 0 0 -0.48285,-1.27297 C 94.51112,79.0181 94.42333,78.737168 94.17751,78.579144 a 1.4573322,1.4573322 0 0 0 -0.87791,-0.368723 4.5036831,4.5036831 0 0 0 -0.71989,0.219478 6.0312482,6.0312482 0 0 0 -1.43099,1.316867 7.5588132,7.5588132 0 0 1 -1.21152,1.035934 3.1604794,3.1604794 0 0 1 -2.23867,0.632096 7.4973594,7.4973594 0 0 1 -3.05513,-1.071051 6.3560752,6.3560752 0 0 1 -1.20274,-0.974481 5.8995615,5.8995615 0 0 1 -1.63291,-3.406295 2.7127448,2.7127448 0 0 1 -0.0615,-1.185179 10.078418,10.078418 0 0 1 1.16762,-4.503683 14.046575,14.046575 0 0 1 1.22907,-1.843613 1.7031472,1.7031472 0 0 1 0.69355,-0.860353 z"
         style="fill:#ffffff;fill-opacity:1;stroke-width:0.877911" /><path
         id="path3742"
         class="cls-6"
         d="m 72.27362,88.754131 a 8.0680016,8.0680016 0 0 1 -4.27542,2.387918 c -0.55309,0 -1.07983,0.07023 -1.60658,0.08779 a 5.1796746,5.1796746 0 0 1 -1.75582,-0.456514 7.462243,7.462243 0 0 1 -2.29135,-2.089428 10.218883,10.218883 0 0 1 -1.75582,-4.082286 12.870174,12.870174 0 0 1 0,-1.545123 6.1453766,6.1453766 0 0 1 0.77256,1.369541 7.1022995,7.1022995 0 0 0 1.29053,1.58024 4.1349605,4.1349605 0 0 0 2.71275,1.158842 3.5730975,3.5730975 0 0 0 1.18518,-0.149245 5.9171197,5.9171197 0 0 0 2.81809,-1.711926 c 0.23704,-0.289711 0.52675,-0.570642 0.74622,-0.877911 0.21948,-0.307269 0.48285,-0.746224 0.65844,-1.141284 a 8.7791094,8.7791094 0 0 0 1.00959,-3.757459 c -0.0439,-0.526747 -0.0439,-1.009598 -0.0878,-1.536344 -0.14924,-0.351165 -0.0614,-0.816457 -0.43895,-1.009598 a 1.2378544,1.2378544 0 0 0 -0.74623,0.193141 10.894875,10.894875 0 0 0 -1.58024,1.47489 c -0.59697,0.482851 -1.00959,1.141284 -1.58023,1.668031 -0.33361,0.245815 -0.53553,0.570642 -0.87792,0.816457 a 11.412842,11.412842 0 0 1 -1.8875,1.536344 3.1341421,3.1341421 0 0 1 -1.75583,0.456514 2.7478612,2.7478612 0 0 1 -1.85239,-1.079831 8.6035272,8.6035272 0 0 1 -1.31686,-2.967339 c -0.13169,-0.544305 -0.0615,-1.114947 -0.14925,-1.668031 a 19.568635,19.568635 0 0 1 0.98326,-5.51328 8.1294553,8.1294553 0 0 1 0.87791,-1.755822 c 0.13169,-0.149245 0.19314,-0.351165 0.36872,-0.39506 a 7.9011985,7.9011985 0 0 1 -0.19314,1.07983 4.2578681,4.2578681 0 0 0 0,1.202738 13.282793,13.282793 0 0 0 0,1.869951 c 0.15803,0.614537 0.17559,1.272971 0.37751,1.887508 a 5.135779,5.135779 0 0 0 0.48285,1.28175 c 0.14924,0.237036 0.23703,0.526747 0.48285,0.675992 a 1.9050667,1.9050667 0 0 0 0.87791,0.377501 4.6002533,4.6002533 0 0 0 0.72866,-0.219477 7.0232875,7.0232875 0 0 0 1.42222,-1.316867 7.137416,7.137416 0 0 1 1.20274,-1.062272 3.1780376,3.1780376 0 0 1 2.23867,-0.640875 7.2164279,7.2164279 0 0 1 3.02879,1.07983 6.6545649,6.6545649 0 0 1 1.21152,0.965702 6.1453766,6.1453766 0 0 1 1.65047,3.406295 2.7127448,2.7127448 0 0 1 0.0614,1.18518 10.043301,10.043301 0 0 1 -1.16762,4.503683 12.949186,12.949186 0 0 1 -1.22907,1.843613 1.8962876,1.8962876 0 0 1 -0.64088,0.88669 z"
         style="fill:#ffffff;fill-opacity:1;stroke-width:0.877911" /><path
         id="path10"
         class="cls-6"
         d="m 75.60969,68.957239 a 4.1964143,4.1964143 0 0 1 3.36239,0.237036 2.4581506,2.4581506 0 0 1 0.87792,1.035935 1.8523921,1.8523921 0 0 1 -0.0878,1.597798 3.2307123,3.2307123 0 0 1 -1.51879,1.501228 3.3799571,3.3799571 0 0 1 -1.53634,0.412618 3.5116438,3.5116438 0 0 1 -1.75583,-0.219478 2.4318133,2.4318133 0 0 1 -1.45733,-1.492449 1.9138459,1.9138459 0 0 1 0.24582,-1.536344 3.5994349,3.5994349 0 0 1 1.86995,-1.536344 z"
         style="fill:#ffffff;fill-opacity:1;stroke-width:0.877911" /><path
         id="path12"
         class="cls-6"
         d="m 75.72381,75.497676 a 2.484488,2.484488 0 0 1 2.19478,-1.202738 3.0375719,3.0375719 0 0 1 1.31687,0.351164 2.0279743,2.0279743 0 0 1 1.21152,1.360762 10.183767,10.183767 0 0 0 0.21947,2.177219 8.3840495,8.3840495 0 0 0 2.48449,3.713563 c 0.54431,0.632096 1.27297,1.071052 1.81728,1.755822 a 14.731346,14.731346 0 0 1 -2.48449,-0.263373 8.0416642,8.0416642 0 0 1 -2.85321,-1.009598 6.7599143,6.7599143 0 0 1 -1.40466,-0.965702 8.1382344,8.1382344 0 0 1 -1.75582,-1.957741 6.0049108,6.0049108 0 0 1 -1.0096,-2.826873 2.8444315,2.8444315 0 0 1 0.26337,-1.132505 z"
         style="fill:#ffffff;fill-opacity:1;stroke-width:0.877911" /></g></g></svg>
