<svg id="Layer_1" data-name="Layer 1" xmlns="http://www.w3.org/2000/svg" xmlns:xlink="http://www.w3.org/1999/xlink" viewBox="0 0 494.14 494.14"><defs><style>.cls-1{fill:url(#linear-gradient);}.cls-2{fill:url(#linear-gradient-2);}.cls-3{fill:url(#linear-gradient-3);}</style><linearGradient id="linear-gradient" x1="91.92" y1="320.24" x2="319.52" y2="77.93" gradientUnits="userSpaceOnUse"><stop offset="0" stop-color="#2d85c6"/><stop offset="1" stop-color="#04bacc"/></linearGradient><linearGradient id="linear-gradient-2" x1="165.6" y1="389.44" x2="393.2" y2="147.14" xlink:href="#linear-gradient"/><linearGradient id="linear-gradient-3" x1="147.04" y1="372.01" x2="374.63" y2="129.7" xlink:href="#linear-gradient"/></defs><path class="cls-1" d="M231.45,201.65c6.64.38,12.86-2.26,18.76-5,7.68-4.08,14.92-10.16,18.43-18.32a22.7,22.7,0,0,0,1.23-19.4c-1.8-5.38-6.56-8.86-10.57-12.56-7.65-4.69-17-7.51-26-6-5.32-.3-10.34,1.23-15.09,3.13A45.35,45.35,0,0,0,195.86,162c-2.62,5.71-5.49,12.36-2.85,18.58,2.25,8.68,9.5,15.13,17.61,18.45C217.19,201.45,224.41,202.93,231.45,201.65Z" transform="translate(-8.93 -8.93)"/><path class="cls-2" d="M310.09,301c-13.18-12.71-25.6-27.45-30.3-45.47-2.24-8.58-2-17.58-2.64-26.42-2.39-7.16-7.24-14.11-14.82-16.62-4.85-2.77-10.59-3.21-16-4.09-10.6.28-21.62,5.21-26.87,14.85-2.11,4-2.72,8.71-3.26,13.18.67,12.33,6,24,12.34,34.45,5.86,8.87,12.82,17.16,21.38,23.69,4.82,5.06,11.3,8.05,17.19,11.74a101.14,101.14,0,0,0,34.81,12.38,199.4,199.4,0,0,0,30.31,3.38C325.72,314.12,316.66,308.77,310.09,301Z" transform="translate(-8.93 -8.93)"/><path class="cls-3" d="M256,8.93C119.55,8.93,8.93,119.55,8.93,256S119.55,503.07,256,503.07,503.07,392.45,503.07,256,392.45,8.93,256,8.93ZM59.37,351.28c-6.63-5.15-11.24-12.44-16-19.31a40.12,40.12,0,0,1-3.15-5.86,225.48,225.48,0,0,1-9-37.86,76.72,76.72,0,0,0,9.11,15.57A33.44,33.44,0,0,0,63.23,317.3c7.54.43,14.83-2.38,21.31-5.85,8.24-5.46,16.21-11.37,23.07-18.49,3.7-2.91,6.31-6.93,10.08-9.95,6.69-6.4,11.93-14.34,19.08-20.31,5.76-6.64,12-12.95,19.09-17.93,2.74-1.45,5.79-2.86,8.87-2.28,4.67,2.31,3.75,8.13,5.53,12.21.63,6.16.77,12.31,1.31,18.49-1,15.79-4.54,31.7-12.28,45.54-2.15,4.94-5.64,9.1-8.23,13.81-2.77,3.65-6.22,6.82-9.09,10.48-9.58,9.37-21,17.65-34.36,20.58-4.55,2-9.57,1.11-14.33,1.81A49.69,49.69,0,0,1,59.37,351.28Zm401.87-7a63.42,63.42,0,0,1-1.47,7.51A226.25,226.25,0,0,1,92.31,412.21a68.08,68.08,0,0,0,14,2.75l19.6-1.2c19.77-3.71,37.74-14.68,51.54-29.13,3.45-2.56,5.85-6.05,8.25-9.54,6.16-6.6,10.36-14.77,15-22.52,8.07-17.17,14.3-35.82,14.09-54.89,1.19-4.78.06-9.76-.93-14.47-1.92-15.6-9.53-30.15-20.2-41.6-4.09-4.78-9.59-7.94-14.67-11.57-11.43-6.44-23.81-12.63-37.15-13.28-9.75-1.75-19.25,2.73-27.25,7.85-5.61,3.33-9.72,8.49-14.59,12.69-5.16,6-10.62,12-17.36,16.34a70.15,70.15,0,0,1-8.81,2.67c-3.9-.74-8-1.75-10.91-4.54-2.84-2.11-4.1-5.48-6-8.35-3-4.68-4.5-10.19-5.89-15.53-2.54-7.44-2.69-15.47-4.57-23.12-.08-7.65-1.57-15.36-.35-22.92-.54-5,.23-9.89.69-14.85,0-.31.11-.63.16-.94C81.66,85.37,161.78,28.84,255.13,28.84A225.61,225.61,0,0,1,420.5,100.73a65.42,65.42,0,0,0-18.7-4.39l-19.6,1.19c-19.78,3.71-37.74,14.68-51.54,29.13-3.45,2.57-5.85,6.05-8.26,9.54-6.15,6.6-10.36,14.77-15,22.52-8.07,17.17-14.3,35.83-14.09,54.9-1.19,4.77,0,9.76.93,14.47,1.92,15.6,9.53,30.14,20.2,41.59,4.09,4.79,9.59,7.94,14.68,11.57,11.43,6.44,23.8,12.63,37.15,13.28,9.74,1.75,19.24-2.73,27.24-7.85,5.61-3.32,9.72-8.49,14.59-12.69,5.16-6,10.62-12,17.36-16.34a74.2,74.2,0,0,1,8.81-2.67c3.9.74,8,1.75,10.91,4.54,2.84,2.11,4.1,5.48,6,8.35,3,4.68,4.49,10.2,5.88,15.54,2.54,7.43,2.69,15.47,4.57,23.11.09,7.65,1.58,15.36.36,22.93C462.47,334.43,461.7,339.34,461.24,344.29ZM444.92,194c-7.54-.43-14.83,2.38-21.31,5.86-8.24,5.46-16.2,11.37-23.07,18.49-3.69,2.9-6.3,6.92-10.08,9.94-6.69,6.4-11.92,14.34-19.08,20.31-5.75,6.64-12,13-19.09,17.93-2.74,1.45-5.79,2.86-8.87,2.28-4.66-2.3-3.75-8.13-5.53-12.21-.63-6.16-.77-12.31-1.3-18.49,1-15.79,4.54-31.7,12.27-45.53,2.16-4.94,5.64-9.11,8.23-13.82,2.78-3.65,6.23-6.81,9.09-10.48,9.58-9.36,21-17.65,34.37-20.58,4.55-2,9.56-1.11,14.32-1.8A49.61,49.61,0,0,1,448.78,160c6.64,5.16,11.24,12.44,16,19.31,3.28,4.77,4.69,10.85,8.44,15.31a225,225,0,0,1,7,36.64,85.57,85.57,0,0,0-12.39-23.8A33.48,33.48,0,0,0,444.92,194Z" transform="translate(-8.93 -8.93)"/></svg>