<?xml version="1.0" encoding="UTF-8" standalone="no"?>
<svg
   id="Layer_1"
   data-name="Layer 1"
   viewBox="0 0 200.1 166.88"
   version="1.1"
   sodipodi:docname="big-favicon-sobig.svg"
   inkscape:version="1.1.2 (0a00cf5339, 2022-02-04, custom)"
   xmlns:inkscape="http://www.inkscape.org/namespaces/inkscape"
   xmlns:sodipodi="http://sodipodi.sourceforge.net/DTD/sodipodi-0.dtd"
   xmlns="http://www.w3.org/2000/svg"
   xmlns:svg="http://www.w3.org/2000/svg">
  <sodipodi:namedview
     id="namedview54"
     pagecolor="#ffffff"
     bordercolor="#666666"
     borderopacity="1.0"
     inkscape:pageshadow="2"
     inkscape:pageopacity="0.0"
     inkscape:pagecheckerboard="0"
     showgrid="false"
     inkscape:zoom="2.091323"
     inkscape:cx="70.051349"
     inkscape:cy="119.06338"
     inkscape:window-width="1446"
     inkscape:window-height="860"
     inkscape:window-x="48"
     inkscape:window-y="40"
     inkscape:window-maximized="1"
     inkscape:current-layer="Layer_1" />
  <defs
     id="defs37">
    <style
       id="style2">.cls-1{stroke:#333;stroke-miterlimit:10;stroke-width:6px;fill:url(#linear-gradient);}.cls-2{fill:url(#linear-gradient-2);}.cls-3{fill:#0d0e0e;}.cls-4{opacity:0.7;isolation:isolate;fill:url(#linear-gradient-3);}</style>
    <linearGradient
       id="linear-gradient"
       x1="100.05"
       y1="164.11"
       x2="100.05"
       y2="3.23"
       gradientUnits="userSpaceOnUse">
      <stop
         offset="0"
         id="stop4" />
      <stop
         offset="0.6"
         stop-color="#fff"
         id="stop6" />
      <stop
         offset="0.66"
         stop-color="#fff"
         id="stop8" />
      <stop
         offset="0.7"
         stop-color="#fafafa"
         id="stop10" />
      <stop
         offset="0.74"
         stop-color="#ececec"
         id="stop12" />
      <stop
         offset="0.78"
         stop-color="#d5d5d5"
         id="stop14" />
      <stop
         offset="0.83"
         stop-color="#b4b4b4"
         id="stop16" />
      <stop
         offset="0.88"
         stop-color="#8a8a8a"
         id="stop18" />
      <stop
         offset="0.93"
         stop-color="#575757"
         id="stop20" />
      <stop
         offset="0.98"
         stop-color="#1b1b1b"
         id="stop22" />
      <stop
         offset="1"
         id="stop24" />
    </linearGradient>
    <linearGradient
       id="linear-gradient-2"
       x1="106.56"
       y1="83.76"
       x2="195.62"
       y2="83.76"
       gradientUnits="userSpaceOnUse">
      <stop
         offset="0"
         id="stop27" />
      <stop
         offset="1"
         stop-color="#fff"
         id="stop29" />
    </linearGradient>
    <linearGradient
       id="linear-gradient-3"
       x1="100.54"
       y1="86.27"
       x2="100.54"
       y2="5.83"
       gradientUnits="userSpaceOnUse">
      <stop
         offset="0"
         stop-color="#fff"
         stop-opacity="0.6"
         id="stop32" />
      <stop
         offset="1"
         stop-color="#fff"
         stop-opacity="0"
         id="stop34" />
    </linearGradient>
  </defs>
  <g
     id="g300"
     transform="matrix(1.231686,0,0,1.231686,-13.610301,-19.343192)"
     style="fill:#cccccc">
    <path
       class="cls-3"
       d="M 69.14,75.25 C 59.22,69.54 53.52,75.71 52.54,76.69 51.56,77.67 31.42,102.9 34.66,55 c 0,0 -7.1,7.73 -7.54,26.12 -0.44,18.39 11.37,19.48 11.37,19.48 0,0 5.22,1.3 15.6,-9.91 C 64.47,79.48 65.2,80 65.2,80 c 0,0 2.93,-2.06 3.27,3.13 0.34,5.19 1.47,21 -14.38,29.48 -15.85,8.48 -23.54,-12.36 -23.54,-12.36 0,0 2,31.36 26.78,27.23 24.78,-4.13 23.73,-33 23.73,-33 0,0 0.03,-12.76 -11.92,-19.23 z"
       transform="translate(0,-0.23)"
       id="path43"
       style="fill:#cccccc" />
    <ellipse
       class="cls-3"
       cx="85.75"
       cy="59.990002"
       rx="11.23"
       ry="8.4200001"
       transform="rotate(-12.08,84.694735,59.850994)"
       id="ellipse45"
       style="fill:#cccccc" />
    <path
       class="cls-3"
       d="m 98.55,78.25 a 8.5900087,8.5900087 0 0 0 -17.13,1.31 8.45,8.45 0 0 0 0.39,2 c 0,0 5,19.88 31.9,20.52 0,-0.01 -15.52,-11.08 -15.16,-23.83 z"
       transform="translate(0,-0.23)"
       id="path47"
       style="fill:#cccccc" />
    <path
       class="cls-3"
       d="m 146.05,66.74 c 0,0 -5.22,-1.31 -15.6,9.9 -10.38,11.21 -11.1,10.71 -11.1,10.71 0,0 -2.93,2.07 -3.28,-3.13 -0.35,-5.2 -1.46,-20.95 14.38,-29.47 15.84,-8.52 23.55,12.36 23.55,12.36 0,0 -2,-31.37 -26.78,-27.23 -24.78,4.14 -23.73,33 -23.73,33 0,0 0,12.77 11.91,19.23 9.92,5.71 15.63,-0.46 16.6,-1.43 0.97,-0.97 21.14,-26.21 17.9,21.72 0,0 7.09,-7.72 7.54,-26.12 0.45,-18.4 -11.39,-19.54 -11.39,-19.54 z"
       transform="translate(0,-0.23)"
       id="path49"
       style="fill:#cccccc" />
  </g>
</svg>
