<svg width="16" height="16" version="1.1" viewBox="-3 -3 22 22" xmlns="http://www.w3.org/2000/svg" xmlns:xlink="http://www.w3.org/1999/xlink">
 <defs>
  <style id="current-color-scheme" type="text/css">.ColorScheme-Text{color:#fcfcfc; fill:currentColor;}</style>
  <linearGradient id="linearGradient7" x1="-.070096" x2="15.985" y1=".080358" y2="15.255" gradientUnits="userSpaceOnUse">
   <stop style="stop-color:#ffff64" offset="0"/>
   <stop style="stop-color:#fdfd00" offset="1"/>
  </linearGradient>
 </defs>
 <path d="m8.012 0c-0.745 0-1.38 0.397-1.717 0.994h-0.011l-6.031 11.129a0.4 0.4 0 0 1-0.044 0.099 1.82 1.82 0 0 0 0.11 1.888c0.353 0.497 1.04 0.894 1.654 0.894h12.107c0.664 0 1.32-0.397 1.668-0.993 0.265-0.398 0.278-0.895 0.182-1.391a1 1 0 0 0-0.088-0.398 1 1 0 0 0-0.033-0.1l-6.076-11.127h-6e-3c-0.35-0.597-1.037-0.995-1.715-0.995z" style="-inkscape-stroke:hairline;fill:url(#linearGradient7);vector-effect:non-scaling-stroke"/>
 <g fill="currentColor">
  <path class="ColorScheme-Text" d="M8.012 0c-.745 0-1.38.397-1.717.994h-.011L.253 12.123a.4.4 0 0 1-.044.099 1.82 1.82 0 0 0 .11 1.888c.353.497 1.04.894 1.654.894H14.08c.664 0 1.32-.397 1.668-.993.265-.398.278-.895.182-1.391a1 1 0 0 0-.088-.398 1 1 0 0 0-.033-.1L9.733.995h-.006C9.377.398 8.69 0 8.012 0m0 .994c.352 0 .668.198.842.496l6.076 11.13a.9.9 0 0 1-.039.894.9.9 0 0 1-.81.497H1.974c-.353 0-.634-.2-.809-.398a1.1 1.1 0 0 1-.031-.994L7.165 1.49a1 1 0 0 1 .848-.496z" style="-inkscape-stroke:hairline;fill:#e4e400;stroke-opacity:.045102;stroke-width:1.375;stroke:#000000;vector-effect:non-scaling-stroke"/>
  <rect class="ColorScheme-Text" x="7.5" y="4" width="1" height="6" rx=".5" ry=".5" style="fill:#000000"/>
  <circle class="ColorScheme-Text" cx="8" cy="11.5" r=".5" style="fill:#000000"/>
 </g>
</svg>
