<svg width="24" height="24" fill="none" version="1.1" xmlns="http://www.w3.org/2000/svg">
 <rect x=".89736" y="1" width="22" height="22" rx="13.7402" fill="url(#a)" opacity=".9" stroke="#808080" stroke-opacity=".2" vector-effect="non-scaling-stroke" style="-inkscape-stroke:hairline;fill:url(#a)"/>
 <g transform="matrix(.74177 0 0 .74177 3.0983 3.0987)" fill-rule="evenodd" style="fill:#ffffff">
  <path d="m11.731 2.989a9 9 0 0 0-1.77 0.227l-4.242 12.328h1.678l2.142-6.282h1.161l-2.113 6.282h1.687l1.997-5.848c0.29-0.842-0.167-1.61-1.016-1.61h-1.307zm2.346 5.097-4.35 12.663a9 9 0 0 0 1.61 0.262l1.89-5.47h2.228c0.397 0 0.827-0.32 0.963-0.71l1.777-5.14c0.29-0.842-0.167-1.61-1.016-1.61m-1.836 1.176h1.264l-1.754 5.104h-1.264z" style="fill:#ffffff;stroke-width:1.1716"/>
 </g>
 <defs>
  <linearGradient id="a" x1=".05" x2="1" y2="1" gradientTransform="matrix(22 0 0 22 -.10264 0)" gradientUnits="userSpaceOnUse">
   <stop style="stop-color:#324090" offset="0"/>
   <stop style="stop-color:#324090" offset="1"/>
  </linearGradient>
 </defs>
</svg>
