<?xml version="1.0" encoding="UTF-8" standalone="no"?>
<svg
   width="24"
   height="24"
   viewBox="0 0 24 24"
   fill="none"
   version="1.1"
   id="svg5996"
   sodipodi:docname="airmore.svg"
   inkscape:version="1.2.2 (b0a8486541, 2022-12-01)"
   inkscape:export-filename="preferences-desktop-launch-feedback.svg"
   inkscape:export-xdpi="512"
   inkscape:export-ydpi="512"
   xml:space="preserve"
   xmlns:inkscape="http://www.inkscape.org/namespaces/inkscape"
   xmlns:sodipodi="http://sodipodi.sourceforge.net/DTD/sodipodi-0.dtd"
   xmlns:xlink="http://www.w3.org/1999/xlink"
   xmlns="http://www.w3.org/2000/svg"
   xmlns:svg="http://www.w3.org/2000/svg"><sodipodi:namedview
     id="namedview5998"
     pagecolor="#ffffff"
     bordercolor="#000000"
     borderopacity="0.25"
     inkscape:showpageshadow="2"
     inkscape:pageopacity="0.0"
     inkscape:pagecheckerboard="0"
     inkscape:deskcolor="#d1d1d1"
     showgrid="false"
     inkscape:zoom="9.1041667"
     inkscape:cx="-9.3363844"
     inkscape:cy="16.530892"
     inkscape:window-width="2560"
     inkscape:window-height="1000"
     inkscape:window-x="1680"
     inkscape:window-y="0"
     inkscape:window-maximized="1"
     inkscape:current-layer="svg5996" /><defs
     id="defs5994"><radialGradient
       id="paint0_radial_1_27"
       cx="0"
       cy="0"
       r="1"
       gradientUnits="userSpaceOnUse"
       gradientTransform="matrix(0,22.000003,-22.000003,0,2.8832922,-3.5034343)"><stop
         stop-color="#9BDF6C"
         id="stop5989"
         offset="0"
         style="stop-color:#a4a4a4;stop-opacity:1;" /><stop
         offset="1"
         stop-color="#204705"
         id="stop5991"
         style="stop-color:#626262;stop-opacity:1;" /></radialGradient><radialGradient
       id="paint0_radial_1_284"
       cx="0"
       cy="0"
       r="1"
       gradientUnits="userSpaceOnUse"
       gradientTransform="matrix(-10.999959,21.999967,-21.999967,-10.999959,-24.402365,-4.1651738)"><stop
         stop-color="#9A9A9A"
         id="stop8367" /><stop
         offset="1"
         stop-color="#5D5D5D"
         id="stop8369" /></radialGradient><radialGradient
       fx="0"
       fy="0"
       cx="0"
       cy="0"
       r="1"
       gradientUnits="userSpaceOnUse"
       gradientTransform="matrix(0,16.500002,-16.500002,0,8.999998,0.749999)"
       spreadMethod="pad"
       id="radialGradient12763"><stop
         style="stop-opacity:1;stop-color:#a4a4a4"
         offset="0"
         id="stop12759" /><stop
         style="stop-opacity:1;stop-color:#626262"
         offset="1"
         id="stop12761" /></radialGradient><clipPath
       clipPathUnits="userSpaceOnUse"
       id="clipPath12773"><path
         d="M 0,0 H 19 V 19 H 0 Z"
         id="path12771" /></clipPath><clipPath
       clipPathUnits="userSpaceOnUse"
       id="clipPath12789"><path
         d="M 0,0 H 19 V 19 H 0 Z"
         id="path12787" /></clipPath><radialGradient
       fx="0"
       fy="0"
       cx="0"
       cy="0"
       r="1"
       gradientUnits="userSpaceOnUse"
       gradientTransform="matrix(0,16.500002,-16.500002,0,8.999998,0.749999)"
       spreadMethod="pad"
       id="radialGradient12763-3"><stop
         style="stop-opacity:1;stop-color:#a4a4a4"
         offset="0"
         id="stop12759-6" /><stop
         style="stop-opacity:1;stop-color:#626262"
         offset="1"
         id="stop12761-7" /></radialGradient><style
       id="style4619">.cls-1{fill:#069;}.cls-2{fill:#2991c9;}.cls-3{fill:#fff;}.cls-4{fill:#002a44;}.cls-5{fill:#3380cc;}.cls-6{fill:#cc5e55;}</style><radialGradient
       id="paint0_radial_2_129"
       cx="0"
       cy="0"
       r="1"
       gradientUnits="userSpaceOnUse"
       gradientTransform="matrix(0,5.8208333,-5.8208333,0,3.174998,0.264596)"><stop
         stop-color="#FAFAFA"
         id="stop8838" /><stop
         offset="1"
         stop-color="#B0B0B0"
         id="stop8840" /></radialGradient><radialGradient
       id="paint0_radial_29_149"
       cx="0"
       cy="0"
       r="1"
       gradientUnits="userSpaceOnUse"
       gradientTransform="matrix(0,8.4664974,-8.4665063,0,26.659556,4.6030627)"><stop
         stop-color="#80D2FF"
         id="stop17930" /><stop
         offset="1"
         stop-color="#2991C9"
         id="stop17932"
         style="stop-color:#002a43;stop-opacity:1;" /></radialGradient><radialGradient
       id="paint0_radial_29_23"
       cx="0"
       cy="0"
       r="1"
       gradientUnits="userSpaceOnUse"
       gradientTransform="matrix(0,22,-22,0,12,1)"><stop
         stop-color="#8FC8FF"
         id="stop6475" /><stop
         offset="1"
         stop-color="#0056A8"
         id="stop6477" /></radialGradient><radialGradient
       id="paint0_radial_1_40"
       cx="0"
       cy="0"
       r="1"
       gradientUnits="userSpaceOnUse"
       gradientTransform="matrix(0,6.3498749,-6.3498749,0,-13.042008,2.1679009)"><stop
         stop-color="#C2E5FF"
         id="stop7711" /><stop
         offset="1"
         stop-color="#3276AA"
         id="stop7713" /></radialGradient><radialGradient
       fx="0"
       fy="0"
       cx="0"
       cy="0"
       r="1"
       gradientUnits="userSpaceOnUse"
       gradientTransform="matrix(0,16.5,-16.5,0,8.999994,0.750036)"
       spreadMethod="pad"
       id="radialGradient77554"><stop
         style="stop-opacity:1;stop-color:#fafafa"
         offset="0"
         id="stop77550" /><stop
         style="stop-opacity:1;stop-color:#b0b0b0"
         offset="1"
         id="stop77552" /></radialGradient><clipPath
       clipPathUnits="userSpaceOnUse"
       id="clipPath77564"><path
         d="M 0,0 H 19 V 19 H 0 Z"
         id="path77562" /></clipPath><radialGradient
       fx="0"
       fy="0"
       cx="0"
       cy="0"
       r="1"
       gradientUnits="userSpaceOnUse"
       gradientTransform="matrix(0,16.5,-16.5,0,8.999994,0.750036)"
       spreadMethod="pad"
       id="radialGradient77554-8"><stop
         style="stop-opacity:1;stop-color:#fafafa"
         offset="0"
         id="stop77550-1" /><stop
         style="stop-opacity:1;stop-color:#b0b0b0"
         offset="1"
         id="stop77552-2" /></radialGradient><clipPath
       clipPathUnits="userSpaceOnUse"
       id="clipPath77564-9"><path
         d="M 0,0 H 19 V 19 H 0 Z"
         id="path77562-3" /></clipPath><linearGradient
       id="paint0_linear_3_200"
       x1="11.9997"
       y1="0.99970198"
       x2="12"
       y2="12"
       gradientUnits="userSpaceOnUse"><stop
         stop-color="#FFD996"
         id="stop14"
         offset="0"
         style="stop-color:#a4fcc0;stop-opacity:1;" /><stop
         offset="1"
         stop-color="#FFB32B"
         id="stop16"
         style="stop-color:#6cce86;stop-opacity:1;" /></linearGradient><linearGradient
       x1="11.9997"
       y1="0.99970198"
       x2="12"
       y2="12"
       gradientUnits="userSpaceOnUse"
       gradientTransform="scale(0.75)"
       spreadMethod="pad"
       id="linearGradient5149"><stop
         style="stop-opacity:1;stop-color:#a4fcc0"
         offset="0"
         id="stop5145" /><stop
         style="stop-opacity:1;stop-color:#6cce86"
         offset="1"
         id="stop5147" /></linearGradient><clipPath
       clipPathUnits="userSpaceOnUse"
       id="clipPath5161"><path
         d="M 0,0 H 19 V 19 H 0 Z"
         id="path5159" /></clipPath><clipPath
       clipPathUnits="userSpaceOnUse"
       id="clipPath5161-7"><path
         d="M 0,0 H 19 V 19 H 0 Z"
         id="path5159-5" /></clipPath><linearGradient
       inkscape:collect="always"
       xlink:href="#linearGradient47180"
       id="linearGradient47182"
       x1="225.80611"
       y1="-140.29613"
       x2="547.81879"
       y2="-25.184006"
       gradientUnits="userSpaceOnUse" /><linearGradient
       inkscape:collect="always"
       id="linearGradient47180"><stop
         style="stop-color:#01b8de;stop-opacity:1;"
         offset="0"
         id="stop47176" /><stop
         style="stop-color:#0175ba;stop-opacity:1;"
         offset="1"
         id="stop47178" /></linearGradient><linearGradient
       inkscape:collect="always"
       xlink:href="#linearGradient47982"
       id="linearGradient47984"
       x1="269.7666"
       y1="6.1510286"
       x2="260.9794"
       y2="-76.448524"
       gradientUnits="userSpaceOnUse" /><linearGradient
       inkscape:collect="always"
       id="linearGradient47982"><stop
         style="stop-color:#b6b6b6;stop-opacity:1;"
         offset="0"
         id="stop47978" /><stop
         style="stop-color:#ffffff;stop-opacity:0;"
         offset="1"
         id="stop47980" /></linearGradient></defs><g
     inkscape:label="Camada 1"
     id="layer1"
     transform="matrix(3.7795276,0,0,3.7795276,49.620137,12.823798)" /><g
     id="g77540"
     transform="matrix(1.3333333,0,0,1.3333333,-4.5225532e-4,-3.504174e-5)"><g
       id="g77542"><g
         id="g77548"><path
           d="M 7.453,0.801 C 7.371,0.824 7.285,0.836 7.195,0.836 6.641,0.879 6.09,0.969 5.547,1.102 3.219,1.656 1.75,3.09 1.141,5.402 0.855,6.582 0.727,7.781 0.754,8.992 c -0.024,1.141 0.09,2.27 0.336,3.383 0.578,2.477 2.113,3.992 4.594,4.543 1.351,0.277 2.714,0.383 4.089,0.309 1.227,-0.02 2.418,-0.227 3.575,-0.618 1.429,-0.523 2.464,-1.476 3.101,-2.859 0.344,-0.797 0.567,-1.625 0.672,-2.488 0.137,-1.231 0.164,-2.461 0.086,-3.696 C 17.148,6.586 16.957,5.629 16.641,4.699 16.078,3.156 15.039,2.07 13.52,1.445 12.605,1.098 11.66,0.887 10.684,0.809 9.609,0.734 8.531,0.73 7.453,0.801 Z"
           style="fill:url(#radialGradient77554-8);fill-rule:evenodd;stroke:none"
           id="path77556" /></g></g></g><g
     id="g55771"
     transform="matrix(0.03134869,0,0,0.03134869,1.3838366,13.575228)"><path
       id="path47773"
       style="fill:#ffffff;fill-opacity:1;stroke:#000000;stroke-linecap:round;stroke-linejoin:round;stroke-opacity:0.03;paint-order:stroke markers fill"
       d="m 340.9375,-121.12109 c -5.154,0.0668 -10.61804,0.97403 -16.42578,2.8789 -25.75698,8.44799 -39.40066,34.673977 -52.80664,56.251956 -24.66198,39.69596 -50.57679,78.708039 -75.88477,118 -9.87599,15.332984 -20.31093,29.574017 -31.41992,44.000004 -3.48087,4.51996 -7.13149,12.45008 -13.48437,12.05078 l -0.006,0.0156 c 18.72821,2.96275 37.92126,5.59746 60.68359,5.73633 4.76482,-14.62563 19.56461,-25.447561 30.91797,-34.882812 32.78397,-27.248973 72.65304,-46.699026 114,-56.791016 12.04299,-2.939997 24.62501,-5.309298 37,-6.154297 3.96499,-0.27 8.97941,-1.975045 12.8164,-0.373047 7.31,3.053997 13.25459,17.973444 17.51758,24.398438 10.08499,15.202984 19.63194,30.766015 29.66992,46 5.65393,8.580664 13.7204,17.988014 16.91602,27.787114 21.48621,-0.55036 39.57736,-2.06988 52.98047,-4.92969 C 503.656,83.597716 479.59844,52.908429 464.51172,21.009766 c 29.34597,5.466994 56.75303,12.797606 84,25.308593 11.05923,5.078146 20.92828,12.423001 31.85547,17.615235 5.34147,-12.53158 10.68596,-23.913678 12.97461,-43.998047 -10.65702,-3.916009 -20.46517,-10.858938 -30.83008,-15.6171876 -20.11298,-9.2339908 -41.42102,-16.7112084 -63,-21.6582034 -14.84199,-3.401996 -29.90002,-5.583189 -45,-7.367187 -5.876,-0.694 -15.52183,0.780497 -20.67383,-2.3125 -7.44199,-4.466996 -12.96893,-18.769711 -17.66992,-25.970703 -18.20698,-27.888847 -39.15248,-68.598436 -75.23047,-68.130856 z m -0.42578,45.738278 c 6.37599,-0.46 10.50206,6.845582 13.41406,11.392578 8.35399,13.045987 20.09494,26.491014 25.58594,41 -33.62297,4.271995 -64.83203,15.2130124 -96,27.9999996 11.84999,-21.2849796 26.49001,-41.7160206 40,-61.9999996 3.89499,-5.847995 8.87901,-17.806579 17,-18.392578 z" /><path
       style="fill:url(#linearGradient47182);fill-opacity:1;stroke:none"
       d="m 593.51213,20.008863 c 0,-48.099 -27.172,-91.077 -75,-104.572 -16.847,-4.753 -34.693,-3.428 -52,-3.428 -13.45,-104.147003 -132.759,-161.840703 -224,-114.741503 -31.06,16.0335 -56.007,42.7795 -70.1381,74.7415 -3.8463,8.699 -7.019,17.738 -9.2076,27 -1.0198,4.316003 -0.9617,10.931003 -3.6427,14.570003 -3.9143,5.314 -18.01,7.446 -24.0116,10.742 -15.121,8.304 -28.6181,20.91 -37.550203,35.688 -30.5973,50.622 -12.51283,135.84 51.549403,151.937997 7.2638,1.825 11.1523,-7.087 14.8881,-11.938 11.109,-14.425997 21.5447,-28.666997 31.4207,-43.999997 25.308,-39.292 51.222,-78.304 75.884,-118 13.406,-21.578 27.051,-47.803003 52.808,-56.251003 46.462,-15.239 70.848,33.378003 91.656,65.251003 4.701,7.201 10.228,21.505 17.67,25.972 5.152,3.093 14.798,1.619 20.674,2.313 15.1,1.784 30.158,3.964 45,7.366 21.579,4.947 42.887,12.4240005 63,21.6580005 10.421,4.784 20.276,11.7869995 31,15.6909995 m -310,-14.9999995 c 31.168,-12.787 62.377,-23.7280005 96,-28.0000005 -5.491,-14.509 -17.232,-27.954 -25.586,-41 -2.912,-4.547 -7.038,-11.852 -13.414,-11.392 -8.121,0.586 -13.105,12.544 -17,18.392 -13.51,20.284 -28.15,40.715 -40,62.0000005 m -72,112.9999965 h 259 c -3.147,-9.876 -11.302,-19.356997 -16.997,-27.999997 -10.038,-15.234 -19.585,-30.797 -29.67,-46 -4.263,-6.425 -10.207,-21.343 -17.517,-24.397 -3.837,-1.602 -8.851,0.102 -12.816,0.372 -12.375,0.845 -24.957,3.215 -37,6.155 -41.347,10.092 -81.216,29.542 -114,56.791 -11.406,9.479 -26.307,20.349997 -31,35.078997 m 253,-96.999997 c 15.111,31.95 39.226,62.688 59,91.999997 22.174,-7.227 50.029,-25.307997 57,-48.999997 -10.986,-5.196 -20.891,-12.59 -32,-17.691 -27.247,-12.511 -54.654,-19.842 -84,-25.309 z"
       id="path46788" /><path
       id="path47944"
       style="fill:url(#linearGradient47984);fill-opacity:1;stroke:#000000;stroke-linecap:round;stroke-linejoin:round;stroke-opacity:0.03;paint-order:stroke markers fill"
       d="m 340.9375,-121.12109 c -5.154,0.0668 -10.61804,0.97403 -16.42578,2.8789 -25.75698,8.44799 -39.40066,34.673977 -52.80664,56.251956 -24.66198,39.69596 -50.57679,78.708039 -75.88477,118 -9.87599,15.332984 -20.31093,29.574017 -31.41992,44.000004 -3.48087,4.51996 -7.13149,12.45008 -13.48437,12.05078 l -0.006,0.0156 c 18.72821,2.96275 37.92126,5.59746 60.68359,5.73633 4.76482,-14.62563 19.56461,-25.447561 30.91797,-34.882812 32.78397,-27.248973 72.65304,-46.699026 114,-56.791016 12.04299,-2.939997 24.62501,-5.309298 37,-6.154297 3.96499,-0.27 8.97941,-1.975045 12.8164,-0.373047 7.31,3.053997 13.25459,17.973444 17.51758,24.398438 10.08499,15.202984 19.63194,30.766015 29.66992,46 5.65393,8.580664 13.7204,17.988014 16.91602,27.787114 21.48621,-0.55036 39.57736,-2.06988 52.98047,-4.92969 C 503.656,83.597716 479.59844,52.908429 464.51172,21.009766 c 29.34597,5.466994 56.75303,12.797606 84,25.308593 11.05923,5.078146 20.92828,12.423001 31.85547,17.615235 5.34147,-12.53158 10.68596,-23.913678 12.97461,-43.998047 -10.65702,-3.916009 -20.46517,-10.858938 -30.83008,-15.6171876 -20.11298,-9.2339908 -41.42102,-16.7112084 -63,-21.6582034 -14.84199,-3.401996 -29.90002,-5.583189 -45,-7.367187 -5.876,-0.694 -15.52183,0.780497 -20.67383,-2.3125 -7.44199,-4.466996 -12.96893,-18.769711 -17.66992,-25.970703 -18.20698,-27.888847 -39.15248,-68.598436 -75.23047,-68.130856 z m -0.42578,45.738278 c 6.37599,-0.46 10.50206,6.845582 13.41406,11.392578 8.35399,13.045987 20.09494,26.491014 25.58594,41 -33.62297,4.271995 -64.83203,15.2130124 -96,27.9999996 11.84999,-21.2849796 26.49001,-41.7160206 40,-61.9999996 3.89499,-5.847995 8.87901,-17.806579 17,-18.392578 z" /><path
       id="path47773-6"
       style="fill:#ffffff;fill-opacity:1;stroke:#000000;stroke-linecap:round;stroke-linejoin:round;stroke-opacity:0.03;paint-order:stroke markers fill"
       d="m 193.77549,56.542648 c -9.87599,15.33298 -20.31093,29.57401 -31.41992,44.000002 -3.48087,4.51996 -7.13149,12.45008 -13.48437,12.05078 l -0.006,0.0156 c 18.72821,2.96275 37.92126,5.59746 60.68359,5.73633 4.76482,-14.62563 19.56461,-25.447562 30.91797,-34.882812 32.78397,-27.24898 72.65304,-46.69903 114,-56.79102 12.04299,-2.93999 24.62501,-5.3093 37,-6.1543 3.96499,-0.27 5.87267,-0.49934 13.43775,-0.83905 24.42117,-0.80437 41.29925,-0.68249 57.56239,1.86447 29.34597,5.46699 56.75303,12.7976 84,25.30859 11.05923,5.07814 20.92828,12.423 31.85547,17.61523 5.34147,-12.53158 10.68596,-23.91367 12.97461,-43.99804 -10.65702,-3.91601 -20.46517,-10.8589401 -30.83008,-15.6171901 -20.11298,-9.23399 -41.42102,-16.7112099 -63,-21.6582099 -14.84199,-3.40199 -29.90002,-5.58319 -45,-7.36719 -5.876,-0.694 -15.52183,0.7805 -20.67383,-2.3125 -119.43204,-0.59532 -206.27629,49.3199 -238.01758,83.02931 z"
       sodipodi:nodetypes="ccccccccccsccccccc" /><path
       id="path53368"
       style="fill:#ffffff;fill-opacity:1;stroke:none;stroke-linecap:round;stroke-linejoin:round;stroke-opacity:0.03;paint-order:stroke markers fill"
       d="m 340.72787,-121.19869 c -0.57502,0.007 -1.16917,0.0651 -1.75195,0.0937 v 45.857436 c 0.43379,-0.10041 0.87517,-0.18021 1.32812,-0.21289 6.37599,-0.46 10.50207,6.84559 13.41407,11.39258 8.35398,13.04597 20.09494,26.49103 25.58593,41 -13.79867,1.7532 -27.17856,4.67357 -40.32812,8.33984 v 45.64453 c 5.74029,-1.78494 11.51183,-3.4363 17.32617,-4.85547 12.04298,-2.93999 24.62502,-5.30929 37,-6.15429 3.96499,-0.27 8.97942,-1.97504 12.81641,-0.37305 7.30999,3.054 13.25459,17.97345 17.51757,24.39844 10.08498,15.20297 19.63196,30.76603 29.66993,46 5.65392,8.58066 13.7204,17.988004 16.91601,27.787094 21.48619,-0.55036 39.57737,-2.06988 52.98047,-4.92969 -19.75609,-29.269434 -43.81369,-59.958764 -58.90039,-91.857404 29.34594,5.46699 56.75306,12.79761 84,25.30859 11.05922,5.07814 20.92829,12.42301 31.85547,17.61524 5.34146,-12.53157 10.68596,-23.9137 12.97461,-43.99805 -10.65701,-3.91601 -20.46518,-10.8589405 -30.83008,-15.6171905 -20.11296,-9.23399 -41.42104,-16.7112095 -63,-21.6581995 -14.84198,-3.40199 -29.90004,-5.5832 -45,-7.36719 -5.87599,-0.694 -15.52183,0.78049 -20.67383,-2.3125 -7.44198,-4.46699 -12.96893,-18.76972 -17.66992,-25.9707 -18.20663,-27.8883 -39.15179,-68.596926 -75.22852,-68.130876 z" /></g></svg>
