<?xml version="1.0" encoding="UTF-8" standalone="no"?>
<svg
   width="24"
   height="24"
   fill="none"
   version="1.1"
   id="svg22"
   sodipodi:docname="reprodutor-audio.svg"
   inkscape:version="1.3 (0e150ed6c4, 2023-07-21)"
   xmlns:inkscape="http://www.inkscape.org/namespaces/inkscape"
   xmlns:sodipodi="http://sodipodi.sourceforge.net/DTD/sodipodi-0.dtd"
   xmlns:xlink="http://www.w3.org/1999/xlink"
   xmlns="http://www.w3.org/2000/svg"
   xmlns:svg="http://www.w3.org/2000/svg">
  <sodipodi:namedview
     id="namedview22"
     pagecolor="#ffffff"
     bordercolor="#000000"
     borderopacity="0.25"
     inkscape:showpageshadow="2"
     inkscape:pageopacity="0.0"
     inkscape:pagecheckerboard="0"
     inkscape:deskcolor="#d1d1d1"
     inkscape:zoom="19.541667"
     inkscape:cx="12"
     inkscape:cy="11.974414"
     inkscape:window-width="1920"
     inkscape:window-height="1216"
     inkscape:window-x="6000"
     inkscape:window-y="318"
     inkscape:window-maximized="0"
     inkscape:current-layer="svg22" />
  <path
     fill="url(#a)"
     fill-rule="evenodd"
     d="M9.596 1.114c.12 0 .234-.014.344-.046a31.637 31.637 0 0 1 4.307.011c1.301.102 2.561.384 3.78.847 2.025.834 3.412 2.28 4.158 4.34.427 1.24.679 2.514.756 3.824a27.94 27.94 0 0 1-.114 4.923 11.88 11.88 0 0 1-.894 3.32c-.85 1.843-2.229 3.114-4.135 3.813a15.624 15.624 0 0 1-4.765.825 21.413 21.413 0 0 1-5.453-.412c-3.312-.738-5.354-2.757-6.128-6.057a19.045 19.045 0 0 1-.447-4.511 18.49 18.49 0 0 1 .515-4.786c.812-3.086 2.77-4.998 5.877-5.736a13.953 13.953 0 0 1 2.2-.355Z"
     clip-rule="evenodd"
     id="path1" />
  <defs
     id="defs8">
    <linearGradient
       xlink:href="#b"
       id="n"
       x1="-19.048"
       x2="-16.219"
       y1="15.822"
       y2="19.755"
       gradientTransform="translate(-.44 12.746) scale(.40728)"
       gradientUnits="userSpaceOnUse" />
    <linearGradient
       id="b">
      <stop
         offset="0"
         style="stop-color:#595762;stop-opacity:1"
         id="stop1" />
      <stop
         offset="1"
         style="stop-color:#19181d;stop-opacity:1"
         id="stop2" />
    </linearGradient>
    <linearGradient
       xlink:href="#b"
       id="o"
       x1="-19.048"
       x2="-16.219"
       y1="15.822"
       y2="19.755"
       gradientTransform="translate(-.44 24.253) scale(.40728)"
       gradientUnits="userSpaceOnUse" />
    <linearGradient
       xlink:href="#b"
       id="p"
       x1="-19.048"
       x2="-16.219"
       y1="15.822"
       y2="19.755"
       gradientTransform="translate(-14.196 24.253) scale(.40728)"
       gradientUnits="userSpaceOnUse" />
    <linearGradient
       xlink:href="#b"
       id="q"
       x1="-19.048"
       x2="-16.219"
       y1="15.822"
       y2="19.755"
       gradientTransform="translate(46.075 -35.253) scale(3.40735)"
       gradientUnits="userSpaceOnUse" />
    <linearGradient
       xlink:href="#b"
       id="r"
       x1="-19.048"
       x2="-16.219"
       y1="15.822"
       y2="19.755"
       gradientTransform="translate(-14.196 12.746) scale(.40728)"
       gradientUnits="userSpaceOnUse" />
    <linearGradient
       xlink:href="#c"
       id="s"
       x1="-17.943"
       x2="-17.943"
       y1="25.456"
       y2="10.12"
       gradientTransform="translate(3.244 7.893)"
       gradientUnits="userSpaceOnUse" />
    <linearGradient
       id="c">
      <stop
         offset="0"
         style="stop-color:#8d8e87;stop-opacity:1"
         id="stop3" />
      <stop
         offset="1"
         style="stop-color:#d8d7d2;stop-opacity:1"
         id="stop4" />
    </linearGradient>
    <linearGradient
       xlink:href="#b"
       id="t"
       x1="-19.048"
       x2="-16.219"
       y1="15.822"
       y2="19.755"
       gradientTransform="translate(9.474 1.617) scale(1.35016)"
       gradientUnits="userSpaceOnUse" />
    <linearGradient
       xlink:href="#d"
       id="u"
       x1="-17.987"
       x2="-17.987"
       y1="23.29"
       y2="12.728"
       gradientTransform="translate(3.244 7.893)"
       gradientUnits="userSpaceOnUse" />
    <linearGradient
       id="d">
      <stop
         offset="0"
         style="stop-color:#fdfcf8;stop-opacity:1"
         id="stop5" />
      <stop
         offset="1"
         style="stop-color:#7e7160;stop-opacity:1"
         id="stop6" />
    </linearGradient>
    <linearGradient
       xlink:href="#b"
       id="v"
       x1="-19.048"
       x2="-16.219"
       y1="15.822"
       y2="19.755"
       gradientTransform="translate(3.244 7.893)"
       gradientUnits="userSpaceOnUse" />
    <linearGradient
       xlink:href="#b"
       id="e"
       x1="-19.048"
       x2="-16.219"
       y1="15.822"
       y2="19.755"
       gradientTransform="translate(-.44 12.746) scale(.40728)"
       gradientUnits="userSpaceOnUse" />
    <linearGradient
       xlink:href="#b"
       id="f"
       x1="-19.048"
       x2="-16.219"
       y1="15.822"
       y2="19.755"
       gradientTransform="translate(-.44 24.253) scale(.40728)"
       gradientUnits="userSpaceOnUse" />
    <linearGradient
       xlink:href="#b"
       id="g"
       x1="-19.048"
       x2="-16.219"
       y1="15.822"
       y2="19.755"
       gradientTransform="translate(-14.196 24.253) scale(.40728)"
       gradientUnits="userSpaceOnUse" />
    <linearGradient
       xlink:href="#b"
       id="h"
       x1="-19.048"
       x2="-16.219"
       y1="15.822"
       y2="19.755"
       gradientTransform="translate(46.075 -35.253) scale(3.40735)"
       gradientUnits="userSpaceOnUse" />
    <linearGradient
       xlink:href="#b"
       id="i"
       x1="-19.048"
       x2="-16.219"
       y1="15.822"
       y2="19.755"
       gradientTransform="translate(-14.196 12.746) scale(.40728)"
       gradientUnits="userSpaceOnUse" />
    <linearGradient
       xlink:href="#c"
       id="j"
       x1="-17.943"
       x2="-17.943"
       y1="25.456"
       y2="10.12"
       gradientTransform="translate(3.244 7.893)"
       gradientUnits="userSpaceOnUse" />
    <linearGradient
       xlink:href="#b"
       id="k"
       x1="-19.048"
       x2="-16.219"
       y1="15.822"
       y2="19.755"
       gradientTransform="translate(9.474 1.617) scale(1.35016)"
       gradientUnits="userSpaceOnUse" />
    <linearGradient
       xlink:href="#d"
       id="l"
       x1="-17.987"
       x2="-17.987"
       y1="23.29"
       y2="12.728"
       gradientTransform="translate(3.244 7.893)"
       gradientUnits="userSpaceOnUse" />
    <linearGradient
       xlink:href="#b"
       id="m"
       x1="-19.048"
       x2="-16.219"
       y1="15.822"
       y2="19.755"
       gradientTransform="translate(3.244 7.893)"
       gradientUnits="userSpaceOnUse" />
    <radialGradient
       id="a"
       cx="0"
       cy="0"
       r="1"
       gradientTransform="matrix(0 22 -22 0 12 1)"
       gradientUnits="userSpaceOnUse">
      <stop
         stop-color="#A5DFFF"
         id="stop7" />
      <stop
         offset="1"
         stop-color="#005385"
         id="stop8" />
    </radialGradient>
  </defs>
  <g
     style="stroke-width:1.01967"
     id="g22">
    <g
       style="stroke-width:1.01967"
       transform="matrix(.87524 0 0 .87519 24.75 -10.593)"
       id="g14">
      <circle
         cx="-7.685"
         cy="20.046"
         r=".872"
         style="opacity:1;fill:url(#e);fill-opacity:1;stroke:none;stroke-width:.107261;stroke-linecap:round;stroke-linejoin:round;stroke-dasharray:none;stroke-dashoffset:1.89038;stroke-opacity:1;paint-order:stroke markers fill"
         id="circle8" />
      <circle
         cx="-7.685"
         cy="31.553"
         r=".872"
         style="opacity:1;fill:url(#f);fill-opacity:1;stroke:none;stroke-width:.107261;stroke-linecap:round;stroke-linejoin:round;stroke-dasharray:none;stroke-dashoffset:1.89038;stroke-opacity:1;paint-order:stroke markers fill"
         id="circle9" />
      <circle
         cx="-21.442"
         cy="31.553"
         r=".872"
         style="opacity:1;fill:url(#g);fill-opacity:1;stroke:none;stroke-width:.107261;stroke-linecap:round;stroke-linejoin:round;stroke-dasharray:none;stroke-dashoffset:1.89038;stroke-opacity:1;paint-order:stroke markers fill"
         id="circle10" />
      <circle
         cx="-14.548"
         cy="25.815"
         r="7.298"
         style="opacity:1;fill:url(#h);fill-opacity:1;stroke:none;stroke-width:.897355;stroke-linecap:round;stroke-linejoin:round;stroke-dasharray:none;stroke-dashoffset:1.89038;stroke-opacity:1;paint-order:stroke markers fill"
         id="circle11" />
      <circle
         cx="-21.442"
         cy="20.046"
         r=".872"
         style="opacity:1;fill:url(#i);fill-opacity:1;stroke:none;stroke-width:.107261;stroke-linecap:round;stroke-linejoin:round;stroke-dasharray:none;stroke-dashoffset:1.89038;stroke-opacity:1;paint-order:stroke markers fill"
         id="circle12" />
      <path
         d="M-14.549 17.741a8.073 8.073 0 0 0-5.334 2.02 1.596 1.596 0 0 0-1.566-1.305 1.596 1.596 0 0 0-1.596 1.596 1.596 1.596 0 0 0 1.596 1.596 1.596 1.596 0 0 0 .002 0 8.073 8.073 0 0 0-1.174 4.168 8.073 8.073 0 0 0 1.162 4.142 1.596 1.596 0 0 0-1.586 1.596 1.596 1.596 0 0 0 1.596 1.596 1.596 1.596 0 0 0 1.563-1.287 8.073 8.073 0 0 0 5.337 2.025 8.073 8.073 0 0 0 5.309-1.992 1.596 1.596 0 0 0 1.555 1.254 1.596 1.596 0 0 0 1.595-1.596 1.596 1.596 0 0 0-1.546-1.592 8.073 8.073 0 0 0 1.162-4.146 8.073 8.073 0 0 0-1.162-4.172 1.596 1.596 0 0 0 1.546-1.592 1.596 1.596 0 0 0-1.595-1.596 1.596 1.596 0 0 0-1.559 1.276 8.073 8.073 0 0 0-5.305-1.99zm0 1.155a6.92 6.92 0 0 1 6.92 6.92 6.92 6.92 0 0 1-6.92 6.92 6.92 6.92 0 0 1-6.92-6.92 6.92 6.92 0 0 1 6.92-6.92zm-6.9.299a.858.858 0 0 1 .857.857.858.858 0 0 1-.857.857.858.858 0 0 1-.857-.857.858.858 0 0 1 .857-.857zm13.764 0a.858.858 0 0 1 .857.857.858.858 0 0 1-.857.857.858.858 0 0 1-.858-.857.858.858 0 0 1 .858-.857zM-21.45 30.697a.858.858 0 0 1 .857.857.858.858 0 0 1-.857.857.858.858 0 0 1-.857-.857.858.858 0 0 1 .857-.857zm13.764 0a.858.858 0 0 1 .857.857.858.858 0 0 1-.857.857.858.858 0 0 1-.858-.857.858.858 0 0 1 .858-.857z"
         style="opacity:1;fill:url(#j);fill-opacity:1;stroke:none;stroke-width:.992659;stroke-linecap:round;stroke-linejoin:round;stroke-dasharray:none;stroke-dashoffset:1.89038;stroke-opacity:1;paint-order:stroke markers fill"
         id="path12" />
      <circle
         cx="-14.548"
         cy="25.815"
         r="2.892"
         style="opacity:1;fill:url(#k);fill-opacity:1;stroke:none;stroke-width:.355576;stroke-linecap:round;stroke-linejoin:round;stroke-dasharray:none;stroke-dashoffset:1.89038;stroke-opacity:1;paint-order:stroke markers fill"
         id="circle13" />
      <path
         d="M-14.549 20.16a5.657 5.657 0 0 0-5.656 5.656 5.657 5.657 0 0 0 5.656 5.656 5.657 5.657 0 0 0 5.659-5.656 5.657 5.657 0 0 0-5.659-5.657zm0 2.964a2.691 2.691 0 0 1 2.692 2.692 2.691 2.691 0 0 1-2.692 2.691 2.691 2.691 0 0 1-2.69-2.691 2.691 2.691 0 0 1 2.69-2.692z"
         style="opacity:1;fill:url(#l);fill-opacity:1;stroke:none;stroke-width:.695536;stroke-linecap:round;stroke-linejoin:round;stroke-dasharray:none;stroke-dashoffset:1.89038;stroke-opacity:1;paint-order:stroke markers fill"
         id="path13" />
      <circle
         cx="-14.548"
         cy="25.815"
         r="2.142"
         style="opacity:1;fill:url(#m);fill-opacity:1;stroke:none;stroke-width:.263358;stroke-linecap:round;stroke-linejoin:round;stroke-dasharray:none;stroke-dashoffset:1.89038;stroke-opacity:1;paint-order:stroke markers fill"
         id="circle14" />
    </g>
    <g
       style="stroke:#535551;stroke-width:1.01967;stroke-linecap:round;stroke-linejoin:round;stroke-opacity:.2;paint-order:stroke markers fill"
       transform="matrix(.87524 0 0 .87519 24.75 -10.593)"
       id="g21">
      <circle
         cx="-7.685"
         cy="20.046"
         r=".872"
         style="opacity:1;fill:url(#n);fill-opacity:1;stroke:#535551;stroke-width:.107261;stroke-linecap:round;stroke-linejoin:round;stroke-dasharray:none;stroke-dashoffset:1.89038;stroke-opacity:.2;paint-order:stroke markers fill"
         id="circle15" />
      <circle
         cx="-7.685"
         cy="31.553"
         r=".872"
         style="opacity:1;fill:url(#o);fill-opacity:1;stroke:#535551;stroke-width:.107261;stroke-linecap:round;stroke-linejoin:round;stroke-dasharray:none;stroke-dashoffset:1.89038;stroke-opacity:.2;paint-order:stroke markers fill"
         id="circle16" />
      <circle
         cx="-21.442"
         cy="31.553"
         r=".872"
         style="opacity:1;fill:url(#p);fill-opacity:1;stroke:#535551;stroke-width:.107261;stroke-linecap:round;stroke-linejoin:round;stroke-dasharray:none;stroke-dashoffset:1.89038;stroke-opacity:.2;paint-order:stroke markers fill"
         id="circle17" />
      <circle
         cx="-14.548"
         cy="25.815"
         r="7.298"
         style="opacity:1;fill:url(#q);fill-opacity:1;stroke:#535551;stroke-width:.897355;stroke-linecap:round;stroke-linejoin:round;stroke-dasharray:none;stroke-dashoffset:1.89038;stroke-opacity:.2;paint-order:stroke markers fill"
         id="circle18" />
      <circle
         cx="-21.442"
         cy="20.046"
         r=".872"
         style="opacity:1;fill:url(#r);fill-opacity:1;stroke:#535551;stroke-width:.107261;stroke-linecap:round;stroke-linejoin:round;stroke-dasharray:none;stroke-dashoffset:1.89038;stroke-opacity:.2;paint-order:stroke markers fill"
         id="circle19" />
      <path
         d="M-14.549 17.741a8.073 8.073 0 0 0-5.334 2.02 1.596 1.596 0 0 0-1.566-1.305 1.596 1.596 0 0 0-1.596 1.596 1.596 1.596 0 0 0 1.596 1.596 1.596 1.596 0 0 0 .002 0 8.073 8.073 0 0 0-1.174 4.168 8.073 8.073 0 0 0 1.162 4.142 1.596 1.596 0 0 0-1.586 1.596 1.596 1.596 0 0 0 1.596 1.596 1.596 1.596 0 0 0 1.563-1.287 8.073 8.073 0 0 0 5.337 2.025 8.073 8.073 0 0 0 5.309-1.992 1.596 1.596 0 0 0 1.555 1.254 1.596 1.596 0 0 0 1.595-1.596 1.596 1.596 0 0 0-1.546-1.592 8.073 8.073 0 0 0 1.162-4.146 8.073 8.073 0 0 0-1.162-4.172 1.596 1.596 0 0 0 1.546-1.592 1.596 1.596 0 0 0-1.595-1.596 1.596 1.596 0 0 0-1.559 1.276 8.073 8.073 0 0 0-5.305-1.99zm0 1.155a6.92 6.92 0 0 1 6.92 6.92 6.92 6.92 0 0 1-6.92 6.92 6.92 6.92 0 0 1-6.92-6.92 6.92 6.92 0 0 1 6.92-6.92zm-6.9.299a.858.858 0 0 1 .857.857.858.858 0 0 1-.857.857.858.858 0 0 1-.857-.857.858.858 0 0 1 .857-.857zm13.764 0a.858.858 0 0 1 .857.857.858.858 0 0 1-.857.857.858.858 0 0 1-.858-.857.858.858 0 0 1 .858-.857zM-21.45 30.697a.858.858 0 0 1 .857.857.858.858 0 0 1-.857.857.858.858 0 0 1-.857-.857.858.858 0 0 1 .857-.857zm13.764 0a.858.858 0 0 1 .857.857.858.858 0 0 1-.857.857.858.858 0 0 1-.858-.857.858.858 0 0 1 .858-.857z"
         style="opacity:1;fill:url(#s);fill-opacity:1;stroke:#535551;stroke-width:.992659;stroke-linecap:round;stroke-linejoin:round;stroke-dasharray:none;stroke-dashoffset:1.89038;stroke-opacity:.2;paint-order:stroke markers fill"
         id="path19" />
      <circle
         cx="-14.548"
         cy="25.815"
         r="2.892"
         style="opacity:1;fill:url(#t);fill-opacity:1;stroke:#535551;stroke-width:.355576;stroke-linecap:round;stroke-linejoin:round;stroke-dasharray:none;stroke-dashoffset:1.89038;stroke-opacity:.2;paint-order:stroke markers fill"
         id="circle20" />
      <path
         d="M-14.549 20.16a5.657 5.657 0 0 0-5.656 5.656 5.657 5.657 0 0 0 5.656 5.656 5.657 5.657 0 0 0 5.659-5.656 5.657 5.657 0 0 0-5.659-5.657zm0 2.964a2.691 2.691 0 0 1 2.692 2.692 2.691 2.691 0 0 1-2.692 2.691 2.691 2.691 0 0 1-2.69-2.691 2.691 2.691 0 0 1 2.69-2.692z"
         style="opacity:1;fill:url(#u);fill-opacity:1;stroke:#535551;stroke-width:.695536;stroke-linecap:round;stroke-linejoin:round;stroke-dasharray:none;stroke-dashoffset:1.89038;stroke-opacity:.2;paint-order:stroke markers fill"
         id="path20" />
      <circle
         cx="-14.548"
         cy="25.815"
         r="2.142"
         style="opacity:1;fill:url(#v);fill-opacity:1;stroke:#535551;stroke-width:.263358;stroke-linecap:round;stroke-linejoin:round;stroke-dasharray:none;stroke-dashoffset:1.89038;stroke-opacity:.2;paint-order:stroke markers fill"
         id="circle21" />
    </g>
  </g>
</svg>
