<?xml version="1.0" encoding="UTF-8" standalone="no"?>
<svg
   xml:space="preserve"
   width="24"
   height="24"
   version="1"
   id="svg8"
   sodipodi:docname="editor-audio.svg"
   inkscape:export-filename="editor-audio.svg"
   inkscape:export-xdpi="1024"
   inkscape:export-ydpi="1024"
   inkscape:version="1.3 (0e150ed6c4, 2023-07-21)"
   xmlns:inkscape="http://www.inkscape.org/namespaces/inkscape"
   xmlns:sodipodi="http://sodipodi.sourceforge.net/DTD/sodipodi-0.dtd"
   xmlns="http://www.w3.org/2000/svg"
   xmlns:svg="http://www.w3.org/2000/svg"><sodipodi:namedview
     id="namedview8"
     pagecolor="#ffffff"
     bordercolor="#000000"
     borderopacity="0.25"
     inkscape:showpageshadow="2"
     inkscape:pageopacity="0.0"
     inkscape:pagecheckerboard="0"
     inkscape:deskcolor="#d1d1d1"
     inkscape:zoom="48.083333"
     inkscape:cx="11.989601"
     inkscape:cy="12"
     inkscape:window-width="3440"
     inkscape:window-height="1360"
     inkscape:window-x="2560"
     inkscape:window-y="0"
     inkscape:window-maximized="1"
     inkscape:current-layer="svg8" /><defs
     id="defs4"><radialGradient
       id="a"
       cx="0"
       cy="0"
       r="1"
       fx="0"
       fy="0"
       gradientTransform="matrix(0 16.5 -16.5 0 9 .75)"
       gradientUnits="userSpaceOnUse"
       spreadMethod="pad"><stop
         offset="0"
         style="stop-opacity:1;stop-color:#fff"
         id="stop1" /><stop
         offset="1"
         style="stop-opacity:1;stop-color:#bebebe"
         id="stop2" /></radialGradient><radialGradient
       id="b"
       cx="0"
       cy="0"
       r="1"
       gradientTransform="matrix(0 11 -11 0 12 1)"
       gradientUnits="userSpaceOnUse"><stop
         stop-color="#F08C85"
         id="stop3" /><stop
         offset="1"
         stop-color="#E84F43"
         style="stop-color:#f55;stop-opacity:1"
         id="stop4" /></radialGradient></defs><path
     d="M7.195.836c.09 0 .176-.012.258-.035a23.86 23.86 0 0 1 3.231.008 10.26 10.26 0 0 1 2.836.636c1.519.625 2.558 1.711 3.121 3.254.316.93.507 1.887.566 2.867a21.227 21.227 0 0 1-.086 3.696 8.976 8.976 0 0 1-.672 2.488c-.637 1.383-1.672 2.336-3.101 2.859a11.693 11.693 0 0 1-3.575.618 15.998 15.998 0 0 1-4.089-.309c-2.481-.551-4.016-2.066-4.594-4.543a14.244 14.244 0 0 1-.336-3.383c-.027-1.211.101-2.41.387-3.59.609-2.312 2.078-3.746 4.406-4.3A10.27 10.27 0 0 1 7.195.836Z"
     style="fill:url(#a);fill-rule:evenodd;stroke:none"
     transform="matrix(1.33333 0 0 1.33333 0 0)"
     id="path4" /><path
     fill="url(#b)"
     fill-rule="evenodd"
     d="M9.596 1.114c.12 0 .234-.014.344-.046a31.627 31.627 0 0 1 4.307.011c1.301.102 2.561.384 3.78.848 2.025.833 3.412 2.28 4.158 4.339.427 1.24.679 2.514.756 3.824a27.94 27.94 0 0 1-.115 4.923 11.88 11.88 0 0 1-.893 3.32c-.85 1.843-2.229 3.114-4.135 3.813a15.624 15.624 0 0 1-4.766.825 21.423 21.423 0 0 1-5.452-.412c-3.312-.738-5.354-2.757-6.128-6.057a19.047 19.047 0 0 1-.447-4.511 18.491 18.491 0 0 1 .515-4.786c.812-3.086 2.77-4.998 5.877-5.736a13.953 13.953 0 0 1 2.199-.355z"
     clip-rule="evenodd"
     style="fill:url(#b)"
     id="path5" /><path
     d="M-149.537-4.29a47.576 45.194 0 0 0-47.576 45.196 47.576 45.194 0 0 0 1.318 10.074h-.103l.373 1.18a47.576 45.194 0 0 0 .998 3.156l10.465 33.123h3.87l-9.91-31.367a42.896 40.749 0 0 1-.9-2.845l-.336-1.065h.094a42.896 40.749 0 0 1-1.19-9.084A42.896 40.749 0 0 1-149.537 3.33a42.896 40.749 0 0 1 42.896 40.748 42.896 40.749 0 0 1-1.19 9.084h.093l-.383 1.276a42.896 40.749 0 0 1-.606 2.005l-9.636 31.996h3.902l10.188-33.82a47.576 45.194 0 0 0 .67-2.224l.425-1.415h-.101a47.576 45.194 0 0 0 1.318-10.074 47.576 45.194 0 0 0-47.576-45.195z"
     style="opacity:1;fill:#fbb;fill-opacity:1;stroke:#000;stroke-width:1;stroke-linecap:round;stroke-linejoin:round;stroke-dasharray:none;stroke-opacity:.0472222;paint-order:stroke markers fill"
     transform="matrix(.14326 0 0 .14326 33.423 5.186)"
     id="path6" /><path
     d="M-177.26 60.853a1.663 1.663 0 0 0-1.196 1.252c-.195.017-.39.048-.586.1l-4.801 1.287a3.308 3.308 0 0 0-2.344 4.06l7.88 29.407a3.308 3.308 0 0 0 4.06 2.344l4.8-1.286c.197-.053.38-.125.558-.208a1.67 1.67 0 0 0 2.845-1.561l-9.167-34.213a1.669 1.669 0 0 0-2.05-1.182zm4.985.322a2.538 2.538 0 0 0-1.798 3.116l7.726 28.835a2.537 2.537 0 0 0 3.115 1.798l3.06-.82a2.538 2.538 0 0 0 1.8-3.115l-7.726-28.834a2.54 2.54 0 0 0-3.117-1.8zM-121.138 60.853a1.663 1.663 0 0 1 1.195 1.252c.195.017.39.048.586.1l4.801 1.287a3.308 3.308 0 0 1 2.344 4.06l-7.88 29.407a3.308 3.308 0 0 1-4.06 2.344l-4.8-1.286a3.341 3.341 0 0 1-.557-.208 1.67 1.67 0 0 1-2.845-1.561l9.167-34.213a1.669 1.669 0 0 1 2.05-1.182zm-4.986.322a2.538 2.538 0 0 1 1.798 3.116l-7.726 28.835a2.537 2.537 0 0 1-3.115 1.798l-3.06-.82a2.538 2.538 0 0 1-1.8-3.115l7.727-28.834a2.54 2.54 0 0 1 3.116-1.8z"
     style="opacity:1;fill:#fbb;fill-opacity:1;stroke:#000;stroke-width:1;stroke-linecap:round;stroke-linejoin:round;stroke-dasharray:none;stroke-opacity:.0472222;paint-order:stroke markers fill"
     transform="matrix(.14326 0 0 .14326 33.423 5.186)"
     id="path7" /><path
     d="M20.65 4.193c-2.348.067-4.864 1-6.786 3.354-.635.776-1.375 1.573-2.187 2.26C9.505 8.823 7.927 7.584 6.432 7c-.771-.303-1.6-.473-2.438-.557-.213-.412-.41-.812-.604-1.192a6.154 6.154 0 0 0-.573-.902c-.11.151-.213.302-.307.463.14.204.282.433.41.683.148.281.293.588.454.901a14.076 14.076 0 0 0-1.625.03 9.72 9.72 0 0 0-.17.558c.333-.03.671-.052 1.005-.057.358-.006.722 0 1.082.026.47.896 1.022 1.834 1.787 2.662a7.074 7.074 0 0 0 3.13 1.978 5.111 5.111 0 0 1-2.073.162c-2.177-.296-3.865-1.676-4.964-4.667a13.56 13.56 0 0 0-.203.907c1.162 2.63 2.922 3.989 5.094 4.286.136.022.27.031.407.036.932.058 1.828-.14 2.666-.5.474.09.974.152 1.516.167 1.328.032 2.676-.14 3.938-.563 1.088.215 2.29.334 3.634.308 1.552-.032 2.959-.708 4.314-2.026-.022-.224-.043-.452-.074-.676-1.38 1.452-2.74 2.14-4.25 2.17a16.541 16.541 0 0 1-2.671-.156c1.337-.62 2.53-1.572 3.421-2.948h.006c.697-1.01 1.52-1.989 2.468-2.713a5.958 5.958 0 0 0-.26-.479C20.51 5.677 19.63 6.74 18.9 7.797h-.005v.006c-.995 1.536-2.391 2.514-3.954 3.072a15.051 15.051 0 0 1-2.73-.839A17.867 17.867 0 0 0 14.27 7.88c1.823-2.235 4.172-3.099 6.39-3.161.266-.006.533 0 .793.016a9.964 9.964 0 0 0-.375-.542h-.428zM4.302 7.016c.67.088 1.328.239 1.938.473 1.322.516 2.853 1.708 4.978 2.699a8.668 8.668 0 0 1-.634.457c-.371.246-.756.454-1.147.626-1.604-.328-2.73-1.083-3.593-2.02-.636-.683-1.12-1.459-1.542-2.235zm7.463 3.416c.699.297 1.412.547 2.141.74-.933.219-1.901.301-2.865.281-.239-.005-.463-.026-.687-.046a11.66 11.66 0 0 0 1.41-.975z"
     style="fill:#fbb;fill-opacity:1;fill-rule:nonzero;stroke:none;stroke-width:1.33333;opacity:.30749354"
     id="path8" /></svg>
