<?xml version="1.0" encoding="UTF-8" standalone="no"?>
<svg
   width="24"
   height="24"
   viewBox="0 0 24 24"
   fill="none"
   version="1.1"
   id="svg5996"
   sodipodi:docname="audio.svg"
   inkscape:version="1.2.2 (b0a8486541, 2022-12-01)"
   inkscape:export-filename="pendrive-format.svg"
   inkscape:export-xdpi="800"
   inkscape:export-ydpi="800"
   xml:space="preserve"
   xmlns:inkscape="http://www.inkscape.org/namespaces/inkscape"
   xmlns:sodipodi="http://sodipodi.sourceforge.net/DTD/sodipodi-0.dtd"
   xmlns:xlink="http://www.w3.org/1999/xlink"
   xmlns="http://www.w3.org/2000/svg"
   xmlns:svg="http://www.w3.org/2000/svg"><sodipodi:namedview
     id="namedview5998"
     pagecolor="#ffffff"
     bordercolor="#000000"
     borderopacity="0.25"
     inkscape:showpageshadow="2"
     inkscape:pageopacity="0.0"
     inkscape:pagecheckerboard="0"
     inkscape:deskcolor="#d1d1d1"
     showgrid="false"
     inkscape:zoom="16"
     inkscape:cx="-10.46875"
     inkscape:cy="17.65625"
     inkscape:window-width="2560"
     inkscape:window-height="1000"
     inkscape:window-x="1680"
     inkscape:window-y="0"
     inkscape:window-maximized="1"
     inkscape:current-layer="svg5996" /><defs
     id="defs5994"><linearGradient
       inkscape:collect="always"
       id="linearGradient84736"><stop
         style="stop-color:#8d8e87;stop-opacity:1;"
         offset="0"
         id="stop84732" /><stop
         style="stop-color:#d8d7d2;stop-opacity:1;"
         offset="1"
         id="stop84734" /></linearGradient><linearGradient
       inkscape:collect="always"
       id="linearGradient81891"><stop
         style="stop-color:#595762;stop-opacity:1;"
         offset="0"
         id="stop81887" /><stop
         style="stop-color:#19181d;stop-opacity:1;"
         offset="1"
         id="stop81889" /></linearGradient><linearGradient
       inkscape:collect="always"
       id="linearGradient78080"><stop
         style="stop-color:#fdfcf8;stop-opacity:1;"
         offset="0"
         id="stop78076" /><stop
         style="stop-color:#7e7160;stop-opacity:1;"
         offset="1"
         id="stop78078" /></linearGradient><radialGradient
       id="paint0_radial_1_27"
       cx="0"
       cy="0"
       r="1"
       gradientUnits="userSpaceOnUse"
       gradientTransform="matrix(0,22.000003,-22.000003,0,2.8832922,-3.5034343)"><stop
         stop-color="#9BDF6C"
         id="stop5989"
         offset="0"
         style="stop-color:#a4a4a4;stop-opacity:1;" /><stop
         offset="1"
         stop-color="#204705"
         id="stop5991"
         style="stop-color:#626262;stop-opacity:1;" /></radialGradient><radialGradient
       id="paint0_radial_1_284"
       cx="0"
       cy="0"
       r="1"
       gradientUnits="userSpaceOnUse"
       gradientTransform="matrix(-10.999959,21.999967,-21.999967,-10.999959,-24.402365,-4.1651738)"><stop
         stop-color="#9A9A9A"
         id="stop8367" /><stop
         offset="1"
         stop-color="#5D5D5D"
         id="stop8369" /></radialGradient><radialGradient
       fx="0"
       fy="0"
       cx="0"
       cy="0"
       r="1"
       gradientUnits="userSpaceOnUse"
       gradientTransform="matrix(0,16.500002,-16.500002,0,8.999998,0.749999)"
       spreadMethod="pad"
       id="radialGradient12763"><stop
         style="stop-opacity:1;stop-color:#a4a4a4"
         offset="0"
         id="stop12759" /><stop
         style="stop-opacity:1;stop-color:#626262"
         offset="1"
         id="stop12761" /></radialGradient><clipPath
       clipPathUnits="userSpaceOnUse"
       id="clipPath12773"><path
         d="M 0,0 H 19 V 19 H 0 Z"
         id="path12771" /></clipPath><clipPath
       clipPathUnits="userSpaceOnUse"
       id="clipPath12789"><path
         d="M 0,0 H 19 V 19 H 0 Z"
         id="path12787" /></clipPath><radialGradient
       fx="0"
       fy="0"
       cx="0"
       cy="0"
       r="1"
       gradientUnits="userSpaceOnUse"
       gradientTransform="matrix(0,16.500002,-16.500002,0,8.999998,0.749999)"
       spreadMethod="pad"
       id="radialGradient12763-3"><stop
         style="stop-opacity:1;stop-color:#a4a4a4"
         offset="0"
         id="stop12759-6" /><stop
         style="stop-opacity:1;stop-color:#626262"
         offset="1"
         id="stop12761-7" /></radialGradient><radialGradient
       fx="0"
       fy="0"
       cx="0"
       cy="0"
       r="1"
       gradientUnits="userSpaceOnUse"
       gradientTransform="matrix(0,16.500002,-16.500002,0,8.999659,0.749973)"
       spreadMethod="pad"
       id="radialGradient48543"><stop
         style="stop-opacity:1;stop-color:#a4a4a4"
         offset="0"
         id="stop48539" /><stop
         style="stop-opacity:1;stop-color:#626262"
         offset="1"
         id="stop48541" /></radialGradient><radialGradient
       id="paint0_radial_1_27-2"
       cx="0"
       cy="0"
       r="1"
       gradientUnits="userSpaceOnUse"
       gradientTransform="matrix(0,22.000003,-22.000003,0,11.999997,0.99999709)"><stop
         stop-color="#9BDF6C"
         id="stop5989-6"
         offset="0"
         style="stop-color:#dedede;stop-opacity:1;" /><stop
         offset="1"
         stop-color="#204705"
         id="stop5991-1"
         style="stop-color:#656565;stop-opacity:1;" /></radialGradient><radialGradient
       fx="0"
       fy="0"
       cx="0"
       cy="0"
       r="1"
       gradientUnits="userSpaceOnUse"
       gradientTransform="matrix(0,16.500002,-16.500002,0,8.999998,0.749998)"
       spreadMethod="pad"
       id="radialGradient73082"><stop
         style="stop-opacity:1;stop-color:#dedede"
         offset="0"
         id="stop73078" /><stop
         style="stop-opacity:1;stop-color:#656565"
         offset="1"
         id="stop73080" /></radialGradient><clipPath
       clipPathUnits="userSpaceOnUse"
       id="clipPath73092"><path
         d="M 0,0 H 19 V 19 H 0 Z"
         id="path73090" /></clipPath><clipPath
       clipPathUnits="userSpaceOnUse"
       id="clipPath73164"><path
         d="m 5.273,12.059 h 0.219 c 0.098,0 0.176,0.082 0.176,0.179 v 0.727 c 0,0.097 -0.078,0.176 -0.176,0.176 H 5.273 c -0.097,0 -0.179,-0.079 -0.179,-0.176 v -0.727 c 0,-0.097 0.082,-0.179 0.179,-0.179 z"
         id="path73162" /></clipPath><clipPath
       clipPathUnits="userSpaceOnUse"
       id="clipPath73172"><path
         d="m -97.539457,25.423071 h 11.345439 V 48.11395 h -11.345439 z"
         id="path73170" /></clipPath><linearGradient
       x1="-91.305519"
       y1="36.521664"
       x2="-91.305519"
       y2="26.407284"
       gradientUnits="userSpaceOnUse"
       spreadMethod="pad"
       id="linearGradient73178"><stop
         style="stop-opacity:1;stop-color:#ffffff"
         offset="0"
         id="stop73174" /><stop
         style="stop-opacity:0;stop-color:#ffffff"
         offset="1"
         id="stop73176" /></linearGradient><mask
       maskUnits="userSpaceOnUse"
       x="0"
       y="0"
       width="1"
       height="1"
       id="mask73180"><g
         id="g73186"><g
           clip-path="url(#clipPath73172)"
           id="g73184"><path
             d="m -97.539457,25.423071 h 11.345439 V 48.11395 h -11.345439 z"
             style="fill:url(#linearGradient73178);stroke:none"
             id="path73182" /></g></g></mask><linearGradient
       x1="-91.305519"
       y1="36.521664"
       x2="-91.305519"
       y2="26.407284"
       gradientUnits="userSpaceOnUse"
       spreadMethod="pad"
       id="linearGradient73194"><stop
         style="stop-opacity:1;stop-color:#fff355"
         offset="0"
         id="stop73190" /><stop
         style="stop-opacity:1;stop-color:#a49a00"
         offset="1"
         id="stop73192" /></linearGradient><clipPath
       clipPathUnits="userSpaceOnUse"
       id="clipPath73204"><path
         d="m 6.09,12.059 h 0.219 c 0.097,0 0.175,0.082 0.175,0.179 v 0.727 c 0,0.097 -0.078,0.176 -0.175,0.176 H 6.09 c -0.102,0 -0.18,-0.079 -0.18,-0.176 v -0.727 c 0,-0.097 0.078,-0.179 0.18,-0.179 z"
         id="path73202" /></clipPath><clipPath
       clipPathUnits="userSpaceOnUse"
       id="clipPath73212"><path
         d="m -106.7967,25.423071 h 22.690882 V 48.11395 H -106.7967 Z"
         id="path73210" /></clipPath><mask
       maskUnits="userSpaceOnUse"
       x="0"
       y="0"
       width="1"
       height="1"
       id="mask73220"><g
         id="g73226"><g
           clip-path="url(#clipPath73212)"
           id="g73224"><path
             d="m -106.7967,25.423071 h 22.690882 V 48.11395 H -106.7967 Z"
             style="fill:url(#linearGradient73178);stroke:none"
             id="path73222" /></g></g></mask><clipPath
       clipPathUnits="userSpaceOnUse"
       id="clipPath73244"><path
         d="m 6.906,12.059 h 0.219 c 0.098,0 0.176,0.082 0.176,0.179 v 0.727 c 0,0.097 -0.078,0.176 -0.176,0.176 H 6.906 c -0.101,0 -0.179,-0.079 -0.179,-0.176 v -0.727 c 0,-0.097 0.078,-0.179 0.179,-0.179 z"
         id="path73242" /></clipPath><clipPath
       clipPathUnits="userSpaceOnUse"
       id="clipPath73252"><path
         d="m -104.7085,25.423071 h 22.690881 V 48.11395 H -104.7085 Z"
         id="path73250" /></clipPath><mask
       maskUnits="userSpaceOnUse"
       x="0"
       y="0"
       width="1"
       height="1"
       id="mask73260"><g
         id="g73266"><g
           clip-path="url(#clipPath73252)"
           id="g73264"><path
             d="m -104.7085,25.423071 h 22.690881 V 48.11395 H -104.7085 Z"
             style="fill:url(#linearGradient73178);stroke:none"
             id="path73262" /></g></g></mask><clipPath
       clipPathUnits="userSpaceOnUse"
       id="clipPath73284"><path
         d="m 7.719,12.059 h 0.222 c 0.098,0 0.176,0.082 0.176,0.179 v 0.727 c 0,0.097 -0.078,0.176 -0.176,0.176 H 7.719 c -0.098,0 -0.176,-0.079 -0.176,-0.176 v -0.727 c 0,-0.097 0.078,-0.179 0.176,-0.179 z"
         id="path73282" /></clipPath><clipPath
       clipPathUnits="userSpaceOnUse"
       id="clipPath73292"><path
         d="m -102.6203,25.423071 h 22.690874 V 48.11395 H -102.6203 Z"
         id="path73290" /></clipPath><mask
       maskUnits="userSpaceOnUse"
       x="0"
       y="0"
       width="1"
       height="1"
       id="mask73300"><g
         id="g73306"><g
           clip-path="url(#clipPath73292)"
           id="g73304"><path
             d="m -102.6203,25.423071 h 22.690874 V 48.11395 H -102.6203 Z"
             style="fill:url(#linearGradient73178);stroke:none"
             id="path73302" /></g></g></mask><clipPath
       clipPathUnits="userSpaceOnUse"
       id="clipPath73324"><path
         d="m 8.492,12.059 c 0.07,0 0.129,0.058 0.129,0.132 v 0.817 c 0,0.074 -0.059,0.133 -0.129,0.133 -0.074,0 -0.133,-0.059 -0.133,-0.133 v -0.817 c 0,-0.074 0.059,-0.132 0.133,-0.132 z"
         id="path73322" /></clipPath><clipPath
       clipPathUnits="userSpaceOnUse"
       id="clipPath73332"><path
         d="m -105.31784,25.423071 h 24.693021 V 48.11395 h -24.693021 z"
         id="path73330" /></clipPath><mask
       maskUnits="userSpaceOnUse"
       x="0"
       y="0"
       width="1"
       height="1"
       id="mask73340"><g
         id="g73346"><g
           clip-path="url(#clipPath73332)"
           id="g73344"><path
             d="m -105.31784,25.423071 h 24.693021 V 48.11395 h -24.693021 z"
             style="fill:url(#linearGradient73178);stroke:none"
             id="path73342" /></g></g></mask><linearGradient
       inkscape:collect="always"
       xlink:href="#linearGradient73194"
       id="linearGradient73506"
       gradientUnits="userSpaceOnUse"
       x1="-91.305519"
       y1="36.521664"
       x2="-91.305519"
       y2="26.407284"
       spreadMethod="pad" /><linearGradient
       inkscape:collect="always"
       xlink:href="#linearGradient73194"
       id="linearGradient73508"
       gradientUnits="userSpaceOnUse"
       x1="-91.305519"
       y1="36.521664"
       x2="-91.305519"
       y2="26.407284"
       spreadMethod="pad" /><linearGradient
       inkscape:collect="always"
       xlink:href="#linearGradient73194"
       id="linearGradient73510"
       gradientUnits="userSpaceOnUse"
       x1="-91.305519"
       y1="36.521664"
       x2="-91.305519"
       y2="26.407284"
       spreadMethod="pad" /><linearGradient
       inkscape:collect="always"
       xlink:href="#linearGradient73194"
       id="linearGradient73512"
       gradientUnits="userSpaceOnUse"
       x1="-91.305519"
       y1="36.521664"
       x2="-91.305519"
       y2="26.407284"
       spreadMethod="pad" /><linearGradient
       inkscape:collect="always"
       xlink:href="#linearGradient73194"
       id="linearGradient73514"
       gradientUnits="userSpaceOnUse"
       x1="-91.305519"
       y1="36.521664"
       x2="-91.305519"
       y2="26.407284"
       spreadMethod="pad" /><linearGradient
       inkscape:collect="always"
       xlink:href="#linearGradient78080"
       id="linearGradient78082"
       x1="-17.987028"
       y1="23.290327"
       x2="-17.987028"
       y2="12.727922"
       gradientUnits="userSpaceOnUse"
       gradientTransform="translate(3.2439416,7.892674)" /><linearGradient
       inkscape:collect="always"
       xlink:href="#linearGradient81891"
       id="linearGradient81893"
       x1="-19.047689"
       y1="15.82151"
       x2="-16.219263"
       y2="19.754795"
       gradientUnits="userSpaceOnUse"
       gradientTransform="translate(3.2439416,7.892674)" /><linearGradient
       inkscape:collect="always"
       xlink:href="#linearGradient84736"
       id="linearGradient84738"
       x1="-17.942835"
       y1="25.455845"
       x2="-17.942835"
       y2="10.120466"
       gradientUnits="userSpaceOnUse"
       gradientTransform="translate(3.2439416,7.892674)" /><linearGradient
       inkscape:collect="always"
       xlink:href="#linearGradient81891"
       id="linearGradient93850"
       gradientUnits="userSpaceOnUse"
       gradientTransform="matrix(1.3501603,0,0,1.3501603,9.473902,1.6169072)"
       x1="-19.047689"
       y1="15.82151"
       x2="-16.219263"
       y2="19.754795" /><linearGradient
       inkscape:collect="always"
       xlink:href="#linearGradient81891"
       id="linearGradient93854"
       gradientUnits="userSpaceOnUse"
       gradientTransform="matrix(3.4073522,0,0,3.4073522,46.074919,-35.253222)"
       x1="-19.047689"
       y1="15.82151"
       x2="-16.219263"
       y2="19.754795" /><linearGradient
       inkscape:collect="always"
       xlink:href="#linearGradient81891"
       id="linearGradient93858"
       gradientUnits="userSpaceOnUse"
       gradientTransform="matrix(0.40728057,0,0,0.40728057,-14.196097,12.746188)"
       x1="-19.047689"
       y1="15.82151"
       x2="-16.219263"
       y2="19.754795" /><linearGradient
       inkscape:collect="always"
       xlink:href="#linearGradient81891"
       id="linearGradient93862"
       gradientUnits="userSpaceOnUse"
       gradientTransform="matrix(0.40728057,0,0,0.40728057,-0.43916496,12.746188)"
       x1="-19.047689"
       y1="15.82151"
       x2="-16.219263"
       y2="19.754795" /><linearGradient
       inkscape:collect="always"
       xlink:href="#linearGradient81891"
       id="linearGradient93868"
       gradientUnits="userSpaceOnUse"
       gradientTransform="matrix(0.40728057,0,0,0.40728057,-14.196097,24.253246)"
       x1="-19.047689"
       y1="15.82151"
       x2="-16.219263"
       y2="19.754795" /><linearGradient
       inkscape:collect="always"
       xlink:href="#linearGradient81891"
       id="linearGradient93870"
       gradientUnits="userSpaceOnUse"
       gradientTransform="matrix(0.40728057,0,0,0.40728057,-0.43916496,24.253246)"
       x1="-19.047689"
       y1="15.82151"
       x2="-16.219263"
       y2="19.754795" /><radialGradient
       id="paint0_radial_1_27-20"
       cx="0"
       cy="0"
       r="1"
       gradientUnits="userSpaceOnUse"
       gradientTransform="matrix(0,22.000003,-22.000003,0,11.999997,0.99999907)"><stop
         stop-color="#9BDF6C"
         id="stop5989-2"
         offset="0"
         style="stop-color:#67f1fc;stop-opacity:1;" /><stop
         offset="1"
         stop-color="#204705"
         id="stop5991-3"
         style="stop-color:#3d6b9c;stop-opacity:1;" /></radialGradient><linearGradient
       inkscape:collect="always"
       xlink:href="#linearGradient81891"
       id="linearGradient98864"
       gradientUnits="userSpaceOnUse"
       gradientTransform="matrix(0.40728057,0,0,0.40728057,-0.43916496,12.746188)"
       x1="-19.047689"
       y1="15.82151"
       x2="-16.219263"
       y2="19.754795" /><linearGradient
       inkscape:collect="always"
       xlink:href="#linearGradient81891"
       id="linearGradient98866"
       gradientUnits="userSpaceOnUse"
       gradientTransform="matrix(0.40728057,0,0,0.40728057,-0.43916496,24.253246)"
       x1="-19.047689"
       y1="15.82151"
       x2="-16.219263"
       y2="19.754795" /><linearGradient
       inkscape:collect="always"
       xlink:href="#linearGradient81891"
       id="linearGradient98868"
       gradientUnits="userSpaceOnUse"
       gradientTransform="matrix(0.40728057,0,0,0.40728057,-14.196097,24.253246)"
       x1="-19.047689"
       y1="15.82151"
       x2="-16.219263"
       y2="19.754795" /><linearGradient
       inkscape:collect="always"
       xlink:href="#linearGradient81891"
       id="linearGradient98870"
       gradientUnits="userSpaceOnUse"
       gradientTransform="matrix(3.4073522,0,0,3.4073522,46.074919,-35.253222)"
       x1="-19.047689"
       y1="15.82151"
       x2="-16.219263"
       y2="19.754795" /><linearGradient
       inkscape:collect="always"
       xlink:href="#linearGradient81891"
       id="linearGradient98872"
       gradientUnits="userSpaceOnUse"
       gradientTransform="matrix(0.40728057,0,0,0.40728057,-14.196097,12.746188)"
       x1="-19.047689"
       y1="15.82151"
       x2="-16.219263"
       y2="19.754795" /><linearGradient
       inkscape:collect="always"
       xlink:href="#linearGradient84736"
       id="linearGradient98874"
       gradientUnits="userSpaceOnUse"
       gradientTransform="translate(3.2439416,7.892674)"
       x1="-17.942835"
       y1="25.455845"
       x2="-17.942835"
       y2="10.120466" /><linearGradient
       inkscape:collect="always"
       xlink:href="#linearGradient81891"
       id="linearGradient98876"
       gradientUnits="userSpaceOnUse"
       gradientTransform="matrix(1.3501603,0,0,1.3501603,9.473902,1.6169072)"
       x1="-19.047689"
       y1="15.82151"
       x2="-16.219263"
       y2="19.754795" /><linearGradient
       inkscape:collect="always"
       xlink:href="#linearGradient78080"
       id="linearGradient98878"
       gradientUnits="userSpaceOnUse"
       gradientTransform="translate(3.2439416,7.892674)"
       x1="-17.987028"
       y1="23.290327"
       x2="-17.987028"
       y2="12.727922" /><linearGradient
       inkscape:collect="always"
       xlink:href="#linearGradient81891"
       id="linearGradient98880"
       gradientUnits="userSpaceOnUse"
       gradientTransform="translate(3.2439416,7.892674)"
       x1="-19.047689"
       y1="15.82151"
       x2="-16.219263"
       y2="19.754795" /></defs><path
     fill-rule="evenodd"
     clip-rule="evenodd"
     d="m 9.596038,1.1135897 c 0.119845,0.00128 0.234392,-0.013991 0.343649,-0.045798 1.435785,-0.0940552 2.871468,-0.0902402 4.30706,0.011449 1.301667,0.1014216 2.561717,0.3838439 3.78015,0.8472602 2.025651,0.8339376 3.411651,2.280392 4.158093,4.3393539 0.426983,1.239636 0.678975,2.5143529 0.756067,3.8241322 0.1067,1.644729 0.06857,3.285838 -0.114584,4.92328 -0.13695,1.150875 -0.434867,2.257659 -0.893475,3.32035 -0.850575,1.842501 -2.228967,3.113368 -4.135176,3.812693 -1.544675,0.52195 -3.133167,0.796675 -4.765292,0.824358 -1.8359,0.09542 -3.653403,-0.04198 -5.452563,-0.412225 C 4.268389,21.820801 2.225588,19.801843 1.451574,16.501659 1.123111,15.016109 0.974196,13.512408 1.004831,11.990558 0.968171,10.372366 1.139998,8.777091 1.520303,7.2047141 2.33171,4.1190762 4.290499,2.2070101 7.396688,1.4685232 8.120479,1.2915716 8.853602,1.1732593 9.596038,1.1135897 Z"
     fill="url(#paint0_radial_1_27)"
     id="path5983"
     style="fill:url(#paint0_radial_1_27-20);stroke-width:0.916667" /><g
     id="g73158"
     transform="matrix(1.3333333,0,0,1.3333333,34,0)"><g
       id="g73160"
       clip-path="url(#clipPath73164)"><g
         id="g73166"
         transform="matrix(0.0881411,0,0,0.0881411,13.597239,9.759182)"><g
           id="g73168" /><g
           id="g73188"
           mask="url(#mask73180)"><path
             d="m 5.273,12.059 h 0.219 c 0.098,0 0.176,0.082 0.176,0.179 v 0.727 c 0,0.097 -0.078,0.176 -0.176,0.176 H 5.273 c -0.097,0 -0.179,-0.079 -0.179,-0.176 v -0.727 c 0,-0.097 0.082,-0.179 0.179,-0.179 z"
             style="fill:url(#linearGradient73506);stroke:none"
             id="path73196" /></g></g></g></g><g
     id="g73198"
     transform="matrix(1.3333333,0,0,1.3333333,34,0)"><g
       id="g73200"
       clip-path="url(#clipPath73204)"><g
         id="g73206"
         transform="matrix(0.0881411,0,0,0.0881411,14.413183,9.759182)"><g
           id="g73208" /><g
           id="g73228"
           mask="url(#mask73220)"><path
             d="m 6.09,12.059 h 0.219 c 0.097,0 0.175,0.082 0.175,0.179 v 0.727 c 0,0.097 -0.078,0.176 -0.175,0.176 H 6.09 c -0.102,0 -0.18,-0.079 -0.18,-0.176 v -0.727 c 0,-0.097 0.078,-0.179 0.18,-0.179 z"
             style="fill:url(#linearGradient73508);stroke:none"
             id="path73236" /></g></g></g></g><g
     id="g73238"
     transform="matrix(1.3333333,0,0,1.3333333,34,0)"><g
       id="g73240"
       clip-path="url(#clipPath73244)"><g
         id="g73246"
         transform="matrix(0.0881411,0,0,0.0881411,15.229127,9.759182)"><g
           id="g73248" /><g
           id="g73268"
           mask="url(#mask73260)"><path
             d="m 6.906,12.059 h 0.219 c 0.098,0 0.176,0.082 0.176,0.179 v 0.727 c 0,0.097 -0.078,0.176 -0.176,0.176 H 6.906 c -0.101,0 -0.179,-0.079 -0.179,-0.176 v -0.727 c 0,-0.097 0.078,-0.179 0.179,-0.179 z"
             style="fill:url(#linearGradient73510);stroke:none"
             id="path73276" /></g></g></g></g><g
     id="g73278"
     transform="matrix(1.3333333,0,0,1.3333333,34,0)"><g
       id="g73280"
       clip-path="url(#clipPath73284)"><g
         id="g73286"
         transform="matrix(0.0881411,0,0,0.0881411,16.045071,9.759182)"><g
           id="g73288" /><g
           id="g73308"
           mask="url(#mask73300)"><path
             d="m 7.719,12.059 h 0.222 c 0.098,0 0.176,0.082 0.176,0.179 v 0.727 c 0,0.097 -0.078,0.176 -0.176,0.176 H 7.719 c -0.098,0 -0.176,-0.079 -0.176,-0.176 v -0.727 c 0,-0.097 0.078,-0.179 0.176,-0.179 z"
             style="fill:url(#linearGradient73512);stroke:none"
             id="path73316" /></g></g></g></g><g
     id="g73318"
     transform="matrix(1.3333333,0,0,1.3333333,34,0)"><g
       id="g73320"
       clip-path="url(#clipPath73324)"><g
         id="g73326"
         transform="matrix(0.0404973,0,0,0.0881411,12.265086,9.759182)"><g
           id="g73328" /><g
           id="g73348"
           mask="url(#mask73340)"><path
             d="m 8.492,12.059 c 0.07,0 0.129,0.058 0.129,0.132 v 0.817 c 0,0.074 -0.059,0.133 -0.129,0.133 -0.074,0 -0.133,-0.059 -0.133,-0.133 v -0.817 c 0,-0.074 0.059,-0.132 0.133,-0.132 z"
             style="fill:url(#linearGradient73514);stroke:none"
             id="path73356" /></g></g></g></g><g
     id="g98862"
     transform="matrix(0.89242705,0,0,0.89242705,1.2908753,1.2908754)"><g
       id="g93887"
       transform="translate(26.567166,-13.814693)"><circle
         style="opacity:1;fill:url(#linearGradient98864);fill-opacity:1;stroke:none;stroke-width:0.105192;stroke-linecap:round;stroke-linejoin:round;stroke-dasharray:none;stroke-dashoffset:1.89038;stroke-opacity:1;paint-order:stroke markers fill"
         id="circle93860"
         cx="-7.6853933"
         cy="20.045694"
         r="0.87234449" /><circle
         style="opacity:1;fill:url(#linearGradient98866);fill-opacity:1;stroke:none;stroke-width:0.105192;stroke-linecap:round;stroke-linejoin:round;stroke-dasharray:none;stroke-dashoffset:1.89038;stroke-opacity:1;paint-order:stroke markers fill"
         id="circle93864"
         cx="-7.6853933"
         cy="31.552752"
         r="0.87234449" /><circle
         style="opacity:1;fill:url(#linearGradient98868);fill-opacity:1;stroke:none;stroke-width:0.105192;stroke-linecap:round;stroke-linejoin:round;stroke-dasharray:none;stroke-dashoffset:1.89038;stroke-opacity:1;paint-order:stroke markers fill"
         id="circle93866"
         cx="-21.442326"
         cy="31.552752"
         r="0.87234449" /><circle
         style="opacity:1;fill:url(#linearGradient98870);fill-opacity:1;stroke:none;stroke-width:0.880045;stroke-linecap:round;stroke-linejoin:round;stroke-dasharray:none;stroke-dashoffset:1.89038;stroke-opacity:1;paint-order:stroke markers fill"
         id="circle93852"
         cx="-14.547795"
         cy="25.815226"
         r="7.2981257" /><circle
         style="opacity:1;fill:url(#linearGradient98872);fill-opacity:1;stroke:none;stroke-width:0.105192;stroke-linecap:round;stroke-linejoin:round;stroke-dasharray:none;stroke-dashoffset:1.89038;stroke-opacity:1;paint-order:stroke markers fill"
         id="circle93856"
         cx="-21.442326"
         cy="20.045694"
         r="0.87234449" /><path
         id="path73811"
         style="opacity:1;fill:url(#linearGradient98874);fill-opacity:1;stroke:none;stroke-width:0.97351;stroke-linecap:round;stroke-linejoin:round;stroke-dasharray:none;stroke-dashoffset:1.89038;stroke-opacity:1;paint-order:stroke markers fill"
         d="m -14.548636,17.741451 a 8.073226,8.073226 0 0 0 -5.333984,2.019531 1.5957224,1.5957224 0 0 0 -1.566406,-1.304687 1.5957224,1.5957224 0 0 0 -1.595703,1.595703 1.5957224,1.5957224 0 0 0 1.595703,1.595703 1.5957224,1.5957224 0 0 0 0.002,0 8.073226,8.073226 0 0 0 -1.173828,4.167968 8.073226,8.073226 0 0 0 1.162109,4.142579 1.5957224,1.5957224 0 0 0 -1.585937,1.595703 1.5957224,1.5957224 0 0 0 1.595703,1.595703 1.5957224,1.5957224 0 0 0 1.5625,-1.287109 8.073226,8.073226 0 0 0 5.33789,2.02539 8.073226,8.073226 0 0 0 5.3085946,-1.992187 1.5957224,1.5957224 0 0 0 1.554689,1.253906 1.5957224,1.5957224 0 0 0 1.5957027,-1.595703 1.5957224,1.5957224 0 0 0 -1.5468747,-1.591797 8.073226,8.073226 0 0 0 1.1621087,-4.146485 8.073226,8.073226 0 0 0 -1.1621087,-4.171874 1.5957224,1.5957224 0 0 0 1.5468747,-1.591797 1.5957224,1.5957224 0 0 0 -1.5957027,-1.595703 1.5957224,1.5957224 0 0 0 -1.558595,1.275391 8.073226,8.073226 0 0 0 -5.3046886,-1.990235 z m 0,1.154297 a 6.919908,6.919908 0 0 1 6.9199236,6.919921 6.919908,6.919908 0 0 1 -6.9199236,6.919922 6.919908,6.919908 0 0 1 -6.919921,-6.919922 6.919908,6.919908 0 0 1 6.919921,-6.919921 z m -6.90039,0.298828 a 0.85787189,0.85787189 0 0 1 0.857422,0.857422 0.85787189,0.85787189 0 0 1 -0.857422,0.857422 0.85787189,0.85787189 0 0 1 -0.857422,-0.857422 0.85787189,0.85787189 0 0 1 0.857422,-0.857422 z m 13.7636736,0 a 0.85787189,0.85787189 0 0 1 0.857422,0.857422 0.85787189,0.85787189 0 0 1 -0.857422,0.857422 0.85787189,0.85787189 0 0 1 -0.857423,-0.857422 0.85787189,0.85787189 0 0 1 0.857423,-0.857422 z M -21.449026,30.696529 a 0.85787189,0.85787189 0 0 1 0.857422,0.857422 0.85787189,0.85787189 0 0 1 -0.857422,0.857422 0.85787189,0.85787189 0 0 1 -0.857422,-0.857422 0.85787189,0.85787189 0 0 1 0.857422,-0.857422 z m 13.7636736,0 a 0.85787189,0.85787189 0 0 1 0.857422,0.857422 0.85787189,0.85787189 0 0 1 -0.857422,0.857422 0.85787189,0.85787189 0 0 1 -0.857423,-0.857422 0.85787189,0.85787189 0 0 1 0.857423,-0.857422 z" /><circle
         style="opacity:1;fill:url(#linearGradient98876);fill-opacity:1;stroke:none;stroke-width:0.348717;stroke-linecap:round;stroke-linejoin:round;stroke-dasharray:none;stroke-dashoffset:1.89038;stroke-opacity:1;paint-order:stroke markers fill"
         id="circle93848"
         cx="-14.547795"
         cy="25.815226"
         r="2.891876" /><path
         id="path78052"
         style="opacity:1;fill:url(#linearGradient98878);fill-opacity:1;stroke:none;stroke-width:0.682119;stroke-linecap:round;stroke-linejoin:round;stroke-dasharray:none;stroke-dashoffset:1.89038;stroke-opacity:1;paint-order:stroke markers fill"
         d="m -14.548636,20.15942 a 5.6567502,5.6567502 0 0 0 -5.65625,5.656249 5.6567502,5.6567502 0 0 0 5.65625,5.65625 5.6567502,5.6567502 0 0 0 5.6582046,-5.65625 5.6567502,5.6567502 0 0 0 -5.6582046,-5.656249 z m 0,2.964843 a 2.6910751,2.6910751 0 0 1 2.691407,2.691406 2.6910751,2.6910751 0 0 1 -2.691407,2.691407 2.6910751,2.6910751 0 0 1 -2.689453,-2.691407 2.6910751,2.6910751 0 0 1 2.689453,-2.691406 z" /><circle
         style="opacity:1;fill:url(#linearGradient98880);fill-opacity:1;stroke:none;stroke-width:0.258278;stroke-linecap:round;stroke-linejoin:round;stroke-dasharray:none;stroke-dashoffset:1.89038;stroke-opacity:1;paint-order:stroke markers fill"
         id="circle78054"
         cx="-14.547795"
         cy="25.815226"
         r="2.141876" /></g><g
       id="g98840"
       transform="translate(26.567166,-13.814693)"
       style="stroke:#535551;stroke-linecap:round;stroke-linejoin:round;stroke-opacity:0.2;paint-order:stroke markers fill"><circle
         style="opacity:1;fill:url(#linearGradient93862);fill-opacity:1;stroke:#535551;stroke-width:0.105192;stroke-linecap:round;stroke-linejoin:round;stroke-dasharray:none;stroke-dashoffset:1.89038;stroke-opacity:0.2;paint-order:stroke markers fill"
         id="circle98822"
         cx="-7.6853933"
         cy="20.045694"
         r="0.87234449" /><circle
         style="opacity:1;fill:url(#linearGradient93870);fill-opacity:1;stroke:#535551;stroke-width:0.105192;stroke-linecap:round;stroke-linejoin:round;stroke-dasharray:none;stroke-dashoffset:1.89038;stroke-opacity:0.2;paint-order:stroke markers fill"
         id="circle98824"
         cx="-7.6853933"
         cy="31.552752"
         r="0.87234449" /><circle
         style="opacity:1;fill:url(#linearGradient93868);fill-opacity:1;stroke:#535551;stroke-width:0.105192;stroke-linecap:round;stroke-linejoin:round;stroke-dasharray:none;stroke-dashoffset:1.89038;stroke-opacity:0.2;paint-order:stroke markers fill"
         id="circle98826"
         cx="-21.442326"
         cy="31.552752"
         r="0.87234449" /><circle
         style="opacity:1;fill:url(#linearGradient93854);fill-opacity:1;stroke:#535551;stroke-width:0.880045;stroke-linecap:round;stroke-linejoin:round;stroke-dasharray:none;stroke-dashoffset:1.89038;stroke-opacity:0.2;paint-order:stroke markers fill"
         id="circle98828"
         cx="-14.547795"
         cy="25.815226"
         r="7.2981257" /><circle
         style="opacity:1;fill:url(#linearGradient93858);fill-opacity:1;stroke:#535551;stroke-width:0.105192;stroke-linecap:round;stroke-linejoin:round;stroke-dasharray:none;stroke-dashoffset:1.89038;stroke-opacity:0.2;paint-order:stroke markers fill"
         id="circle98830"
         cx="-21.442326"
         cy="20.045694"
         r="0.87234449" /><path
         id="path98832"
         style="opacity:1;fill:url(#linearGradient84738);fill-opacity:1;stroke:#535551;stroke-width:0.97351;stroke-linecap:round;stroke-linejoin:round;stroke-dasharray:none;stroke-dashoffset:1.89038;stroke-opacity:0.2;paint-order:stroke markers fill"
         d="m -14.548636,17.741451 a 8.073226,8.073226 0 0 0 -5.333984,2.019531 1.5957224,1.5957224 0 0 0 -1.566406,-1.304687 1.5957224,1.5957224 0 0 0 -1.595703,1.595703 1.5957224,1.5957224 0 0 0 1.595703,1.595703 1.5957224,1.5957224 0 0 0 0.002,0 8.073226,8.073226 0 0 0 -1.173828,4.167968 8.073226,8.073226 0 0 0 1.162109,4.142579 1.5957224,1.5957224 0 0 0 -1.585937,1.595703 1.5957224,1.5957224 0 0 0 1.595703,1.595703 1.5957224,1.5957224 0 0 0 1.5625,-1.287109 8.073226,8.073226 0 0 0 5.33789,2.02539 8.073226,8.073226 0 0 0 5.3085946,-1.992187 1.5957224,1.5957224 0 0 0 1.554689,1.253906 1.5957224,1.5957224 0 0 0 1.5957027,-1.595703 1.5957224,1.5957224 0 0 0 -1.5468747,-1.591797 8.073226,8.073226 0 0 0 1.1621087,-4.146485 8.073226,8.073226 0 0 0 -1.1621087,-4.171874 1.5957224,1.5957224 0 0 0 1.5468747,-1.591797 1.5957224,1.5957224 0 0 0 -1.5957027,-1.595703 1.5957224,1.5957224 0 0 0 -1.558595,1.275391 8.073226,8.073226 0 0 0 -5.3046886,-1.990235 z m 0,1.154297 a 6.919908,6.919908 0 0 1 6.9199236,6.919921 6.919908,6.919908 0 0 1 -6.9199236,6.919922 6.919908,6.919908 0 0 1 -6.919921,-6.919922 6.919908,6.919908 0 0 1 6.919921,-6.919921 z m -6.90039,0.298828 a 0.85787189,0.85787189 0 0 1 0.857422,0.857422 0.85787189,0.85787189 0 0 1 -0.857422,0.857422 0.85787189,0.85787189 0 0 1 -0.857422,-0.857422 0.85787189,0.85787189 0 0 1 0.857422,-0.857422 z m 13.7636736,0 a 0.85787189,0.85787189 0 0 1 0.857422,0.857422 0.85787189,0.85787189 0 0 1 -0.857422,0.857422 0.85787189,0.85787189 0 0 1 -0.857423,-0.857422 0.85787189,0.85787189 0 0 1 0.857423,-0.857422 z M -21.449026,30.696529 a 0.85787189,0.85787189 0 0 1 0.857422,0.857422 0.85787189,0.85787189 0 0 1 -0.857422,0.857422 0.85787189,0.85787189 0 0 1 -0.857422,-0.857422 0.85787189,0.85787189 0 0 1 0.857422,-0.857422 z m 13.7636736,0 a 0.85787189,0.85787189 0 0 1 0.857422,0.857422 0.85787189,0.85787189 0 0 1 -0.857422,0.857422 0.85787189,0.85787189 0 0 1 -0.857423,-0.857422 0.85787189,0.85787189 0 0 1 0.857423,-0.857422 z" /><circle
         style="opacity:1;fill:url(#linearGradient93850);fill-opacity:1;stroke:#535551;stroke-width:0.348717;stroke-linecap:round;stroke-linejoin:round;stroke-dasharray:none;stroke-dashoffset:1.89038;stroke-opacity:0.2;paint-order:stroke markers fill"
         id="circle98834"
         cx="-14.547795"
         cy="25.815226"
         r="2.891876" /><path
         id="path98836"
         style="opacity:1;fill:url(#linearGradient78082);fill-opacity:1;stroke:#535551;stroke-width:0.682119;stroke-linecap:round;stroke-linejoin:round;stroke-dasharray:none;stroke-dashoffset:1.89038;stroke-opacity:0.2;paint-order:stroke markers fill"
         d="m -14.548636,20.15942 a 5.6567502,5.6567502 0 0 0 -5.65625,5.656249 5.6567502,5.6567502 0 0 0 5.65625,5.65625 5.6567502,5.6567502 0 0 0 5.6582046,-5.65625 5.6567502,5.6567502 0 0 0 -5.6582046,-5.656249 z m 0,2.964843 a 2.6910751,2.6910751 0 0 1 2.691407,2.691406 2.6910751,2.6910751 0 0 1 -2.691407,2.691407 2.6910751,2.6910751 0 0 1 -2.689453,-2.691407 2.6910751,2.6910751 0 0 1 2.689453,-2.691406 z" /><circle
         style="opacity:1;fill:url(#linearGradient81893);fill-opacity:1;stroke:#535551;stroke-width:0.258278;stroke-linecap:round;stroke-linejoin:round;stroke-dasharray:none;stroke-dashoffset:1.89038;stroke-opacity:0.2;paint-order:stroke markers fill"
         id="circle98838"
         cx="-14.547795"
         cy="25.815226"
         r="2.141876" /></g></g></svg>
