<?xml version="1.0" encoding="UTF-8" standalone="no"?>
<svg
   xml:space="preserve"
   width="24"
   height="24"
   viewBox="0 0 6.35 6.35"
   version="1.1"
   id="svg8"
   sodipodi:docname="gravador-audio.svg"
   inkscape:version="1.3 (0e150ed6c4, 2023-07-21)"
   xmlns:inkscape="http://www.inkscape.org/namespaces/inkscape"
   xmlns:sodipodi="http://sodipodi.sourceforge.net/DTD/sodipodi-0.dtd"
   xmlns="http://www.w3.org/2000/svg"
   xmlns:svg="http://www.w3.org/2000/svg"><sodipodi:namedview
     id="namedview8"
     pagecolor="#ffffff"
     bordercolor="#000000"
     borderopacity="0.25"
     inkscape:showpageshadow="2"
     inkscape:pageopacity="0.0"
     inkscape:pagecheckerboard="0"
     inkscape:deskcolor="#d1d1d1"
     inkscape:zoom="19.541667"
     inkscape:cx="12"
     inkscape:cy="11.974414"
     inkscape:window-width="1920"
     inkscape:window-height="1216"
     inkscape:window-x="6000"
     inkscape:window-y="318"
     inkscape:window-maximized="0"
     inkscape:current-layer="svg8" /><defs
     id="defs2"><radialGradient
       id="a"
       cx="0"
       cy="0"
       r="1"
       fx="0"
       fy="0"
       gradientTransform="matrix(0 16.5 -16.5 0 9 .75)"
       gradientUnits="userSpaceOnUse"
       spreadMethod="pad"><stop
         offset="0"
         style="stop-opacity:1;stop-color:#ffbfcb"
         id="stop1" /><stop
         offset="1"
         style="stop-opacity:1;stop-color:#d86eb0"
         id="stop2" /></radialGradient><clipPath
       id="b"
       clipPathUnits="userSpaceOnUse"><path
         d="M0 0h49v49H0Z"
         id="path2" /></clipPath></defs><path
     d="M7.195.836c.09 0 .176-.012.258-.035a23.86 23.86 0 0 1 3.231.008 10.26 10.26 0 0 1 2.836.636c1.519.625 2.558 1.711 3.121 3.254.316.93.507 1.887.566 2.867a21.227 21.227 0 0 1-.086 3.696 8.976 8.976 0 0 1-.672 2.488c-.637 1.383-1.672 2.336-3.101 2.859a11.693 11.693 0 0 1-3.575.618 15.998 15.998 0 0 1-4.089-.309c-2.481-.551-4.016-2.066-4.594-4.543a14.244 14.244 0 0 1-.336-3.383c-.027-1.215.101-2.41.387-3.59.609-2.312 2.078-3.746 4.406-4.3A10.27 10.27 0 0 1 7.195.836Z"
     style="fill:url(#a);fill-rule:evenodd;stroke:none"
     transform="scale(.35277)"
     id="path3" /><path
     d="M2.84 15.57c-.86-.773-1.445-1.828-1.758-3.156-.07-.32-.129-.644-.18-.969h16.196a8.852 8.852 0 0 1-.653 2.344 5.4 5.4 0 0 1-1.285 1.781z"
     style="fill:#fff;fill-opacity:1;fill-rule:evenodd;stroke:none"
     transform="scale(.35277)"
     id="path4" /><path
     d="M4.48 13.508a.845.845 0 0 1-.847.847.846.846 0 1 1 0-1.695c.469 0 .847.379.847.848z"
     style="fill:#ee6369;fill-opacity:1;fill-rule:nonzero;stroke:none"
     transform="scale(.35277)"
     id="path5" /><g
     clip-path="url(#b)"
     opacity=".15"
     transform="scale(.35277)"
     id="g6"><path
       d="M5.328 13.227h9.606a.28.28 0 0 1 .281.281.28.28 0 0 1-.281.281H5.328a.28.28 0 0 1-.281-.281.28.28 0 0 1 .281-.281z"
       style="fill:#000;fill-opacity:1;fill-rule:nonzero;stroke:none"
       id="path6" /></g><path
     d="M5.328 13.227h5.93c.156 0 .285.125.285.281a.283.283 0 0 1-.285.281h-5.93a.28.28 0 0 1-.281-.281.28.28 0 0 1 .281-.281z"
     style="fill:#d86eb0;fill-opacity:1;fill-rule:nonzero;stroke:none"
     transform="scale(.35277)"
     id="path7" /><path
     d="M15.488 3.145c-1.761.05-3.648.75-5.09 2.515a13.066 13.066 0 0 1-1.64 1.695C7.129 6.617 5.945 5.688 4.824 5.25a6.877 6.877 0 0 0-1.828-.418c-.16-.309-.308-.609-.453-.894a4.615 4.615 0 0 0-.43-.676c-.082.113-.16.226-.23.347.105.153.211.325.308.512.11.211.219.441.34.676a10.557 10.557 0 0 0-1.219.023 7.287 7.287 0 0 0-.128.418c.25-.023.504-.039.754-.043.269-.004.542 0 .812.02.352.672.766 1.375 1.34 1.996a5.306 5.306 0 0 0 2.348 1.484 3.833 3.833 0 0 1-1.555.121c-1.633-.222-2.899-1.257-3.723-3.5a10.17 10.17 0 0 0-.152.68c.871 1.973 2.191 2.992 3.82 3.215.102.016.203.023.305.027.699.043 1.371-.105 2-.375.355.067.73.114 1.137.125a8.67 8.67 0 0 0 2.953-.422c.816.161 1.718.25 2.726.231 1.164-.024 2.219-.531 3.235-1.52-.016-.168-.032-.339-.055-.507-1.035 1.089-2.055 1.605-3.188 1.628a12.406 12.406 0 0 1-2.003-.117 6.018 6.018 0 0 0 2.566-2.211h.004c.523-.758 1.14-1.492 1.851-2.035a4.47 4.47 0 0 0-.195-.359c-.781.582-1.441 1.379-1.988 2.172h-.004v.004c-.746 1.152-1.793 1.886-2.965 2.304a11.288 11.288 0 0 1-2.047-.629 13.4 13.4 0 0 0 1.543-1.617c1.367-1.676 3.129-2.324 4.793-2.371.199-.004.399 0 .594.012a7.473 7.473 0 0 0-.281-.406h-.321zM3.227 5.262c.503.066.996.179 1.453.355.992.387 2.14 1.281 3.734 2.024a6.501 6.501 0 0 1-.476.343c-.278.184-.567.34-.86.469a4.86 4.86 0 0 1-2.695-1.515c-.477-.512-.84-1.094-1.156-1.676Zm5.597 2.562c.524.223 1.059.41 1.606.555a8.65 8.65 0 0 1-2.149.211c-.179-.004-.347-.02-.515-.035a8.745 8.745 0 0 0 1.058-.731Z"
     style="fill:#f6bdd2;fill-opacity:1;fill-rule:nonzero;stroke:none"
     transform="scale(.35277)"
     id="path8" /></svg>
