<svg xmlns="http://www.w3.org/2000/svg" xml:space="preserve" width="24" height="24" version="1"><defs><radialGradient id="a" cx="0" cy="0" r="1" gradientTransform="matrix(0 22 -22 0 12 1)" gradientUnits="userSpaceOnUse"><stop stop-color="#8FC8FF"/><stop offset="1" stop-color="#0056A8"/></radialGradient></defs><g style="fill:none"><path fill="url(#a)" fill-rule="evenodd" d="M9.596 1.114c.12 0 .234-.014.344-.046a31.627 31.627 0 0 1 4.307.011c1.301.102 2.562.384 3.78.848 2.026.833 3.412 2.28 4.158 4.339.427 1.24.679 2.514.756 3.824a27.94 27.94 0 0 1-.114 4.923 11.88 11.88 0 0 1-.894 3.32c-.85 1.843-2.229 3.114-4.135 3.813a15.624 15.624 0 0 1-4.765.825 21.423 21.423 0 0 1-5.453-.413c-3.312-.737-5.354-2.756-6.128-6.056a19.047 19.047 0 0 1-.447-4.511 18.491 18.491 0 0 1 .515-4.786c.812-3.086 2.77-4.998 5.877-5.736a13.953 13.953 0 0 1 2.199-.355Z" clip-rule="evenodd" style="fill:url(#a)"/></g><circle cx="19.091" cy="4.727" r=".727" fill="#333" style="stroke-width:.363636"/><circle cx="19.091" cy="4.727" r=".364" fill="#fff" style="stroke-width:.363636"/><g transform="translate(.182 -.364)"><circle cx="11.818" cy="12.364" r="7.636" fill="#f9f9f9" opacity=".9" style="stroke-width:.363636"/><path fill="#fff" d="M11.819 6.546A5.805 5.805 0 0 0 6 12.364a5.806 5.806 0 0 0 5.819 5.818 5.805 5.805 0 0 0 5.817-5.818 5.805 5.805 0 0 0-5.817-5.819z" opacity=".75" style="stroke-width:.207636"/><circle cx="11.818" cy="12.364" r="3.74" opacity=".65" style="fill:#0b1014;fill-opacity:1;stroke-width:.207636"/><circle cx="11.818" cy="-12.364" r="2.909" fill="#fff" opacity=".35" style="fill:#2d3e50;fill-opacity:1;stroke-width:.207636" transform="scale(1 -1)"/><circle cx="11.818" cy="12.364" r="1.663" opacity=".75" style="stroke-width:.207636"/><circle cx="10.522" cy="11.019" r=".862" fill="#fff" opacity=".35" style="fill:#fff;stroke-width:.399777"/><circle cx="11.818" cy="12.364" r=".782" opacity=".75" style="fill:#2891ca;fill-opacity:1;stroke-width:.0977021"/></g></svg>