<?xml version="1.0" encoding="UTF-8" standalone="no"?>
<svg
   width="24"
   height="24"
   viewBox="0 0 6.349875 6.349875"
   version="1.1"
   id="svg8713"
   sodipodi:docname="donate.svg"
   inkscape:version="1.2.2 (b0a8486541, 2022-12-01)"
   xml:space="preserve"
   inkscape:export-filename="donate.svg"
   inkscape:export-xdpi="800"
   inkscape:export-ydpi="800"
   xmlns:inkscape="http://www.inkscape.org/namespaces/inkscape"
   xmlns:sodipodi="http://sodipodi.sourceforge.net/DTD/sodipodi-0.dtd"
   xmlns="http://www.w3.org/2000/svg"
   xmlns:svg="http://www.w3.org/2000/svg"><defs
     id="defs8717"><radialGradient
       id="paint0_radial_2_129"
       cx="0"
       cy="0"
       r="1"
       gradientUnits="userSpaceOnUse"
       gradientTransform="matrix(0,5.8207186,-5.8207186,0,3.1749334,0.26459256)"><stop
         stop-color="#FAFAFA"
         id="stop8838" /><stop
         offset="1"
         stop-color="#B0B0B0"
         id="stop8840"
         style="stop-color:#fde3f5;stop-opacity:1;" /></radialGradient><symbol
       id="x"
       overflow="visible"><path
         d="m14.656-0.875c-0.76172 0.39844-1.5547 0.69531-2.375 0.89062-0.8125 0.19531-1.6641 0.29688-2.5469 0.29688-2.6562 0-4.7617-0.73828-6.3125-2.2188-1.5547-1.4883-2.3281-3.5039-2.3281-6.0469 0-2.5508 0.77344-4.5664 2.3281-6.0469 1.5508-1.4883 3.6562-2.2344 6.3125-2.2344 0.88281 0 1.7344 0.10156 2.5469 0.29688 0.82031 0.19922 1.6133 0.49609 2.375 0.89062v3.2969c-0.76172-0.51953-1.5117-0.89844-2.25-1.1406-0.74219-0.23828-1.5234-0.35938-2.3438-0.35938-1.4688 0-2.625 0.46875-3.4688 1.4062-0.83594 0.9375-1.25 2.2344-1.25 3.8906 0 1.6484 0.41406 2.9375 1.25 3.875 0.84375 0.9375 2 1.4062 3.4688 1.4062 0.82031 0 1.6016-0.11719 2.3438-0.35938 0.73828-0.23828 1.4883-0.61719 2.25-1.1406z"
         id="path33093" /></symbol><symbol
       id="b"
       overflow="visible"><path
         d="m10.719-8.7031c-0.33594-0.15625-0.66797-0.26953-1-0.34375-0.32422-0.082031-0.65625-0.125-1-0.125-0.98047 0-1.7344 0.32031-2.2656 0.95312-0.53125 0.625-0.79688 1.5273-0.79688 2.7031v5.5156h-3.8125v-11.969h3.8125v1.9688c0.48828-0.78125 1.0508-1.3477 1.6875-1.7031 0.64453-0.36328 1.4102-0.54688 2.2969-0.54688 0.13281 0 0.27344 0.007812 0.42188 0.015625 0.14453 0.011719 0.36328 0.03125 0.65625 0.0625z"
         id="path33096" /></symbol><symbol
       id="a"
       overflow="visible"><path
         d="m13.781-6.0156v1.0938h-8.9375c0.09375 0.89844 0.41406 1.5703 0.96875 2.0156 0.55078 0.44922 1.3281 0.67188 2.3281 0.67188 0.80078 0 1.625-0.11719 2.4688-0.35938 0.84375-0.23828 1.7109-0.59766 2.6094-1.0781v2.9531c-0.90625 0.33594-1.8125 0.58984-2.7188 0.76562s-1.8125 0.26562-2.7188 0.26562c-2.1562 0-3.8398-0.54688-5.0469-1.6406-1.1992-1.1016-1.7969-2.6484-1.7969-4.6406 0-1.9453 0.58594-3.4766 1.7656-4.5938 1.1758-1.125 2.8008-1.6875 4.875-1.6875 1.875 0 3.375 0.57031 4.5 1.7031 1.1328 1.125 1.7031 2.6367 1.7031 4.5312zm-3.9375-1.2656c0-0.72656-0.21484-1.3125-0.64062-1.75-0.41797-0.44531-0.96875-0.67188-1.6562-0.67188-0.74219 0-1.3438 0.21094-1.8125 0.625-0.46094 0.41797-0.74609 1.0156-0.85938 1.7969z"
         id="path33099" /></symbol><symbol
       id="e"
       overflow="visible"><path
         d="m7.2031-5.3906c-0.80469 0-1.4062 0.13672-1.8125 0.40625-0.39844 0.27344-0.59375 0.67188-0.59375 1.2031 0 0.48047 0.16016 0.85938 0.48438 1.1406 0.32031 0.27344 0.77344 0.40625 1.3594 0.40625 0.71875 0 1.3203-0.25391 1.8125-0.76562 0.48828-0.51953 0.73438-1.1719 0.73438-1.9531v-0.4375zm5.8438-1.4375v6.8281h-3.8594v-1.7656c-0.51172 0.71875-1.0898 1.2461-1.7344 1.5781-0.63672 0.33203-1.418 0.5-2.3438 0.5-1.2422 0-2.2461-0.35938-3.0156-1.0781-0.77344-0.72656-1.1562-1.6719-1.1562-2.8281 0-1.3945 0.47656-2.4219 1.4375-3.0781 0.96875-0.65625 2.4883-0.98438 4.5625-0.98438h2.25v-0.29688c0-0.60156-0.24219-1.0469-0.71875-1.3281-0.48047-0.28125-1.2266-0.42188-2.2344-0.42188-0.8125 0-1.5742 0.085937-2.2812 0.25-0.71094 0.15625-1.3672 0.40234-1.9688 0.73438v-2.9219c0.82031-0.19531 1.6445-0.34766 2.4688-0.45312 0.82031-0.10156 1.6484-0.15625 2.4844-0.15625 2.1562 0 3.7109 0.42969 4.6719 1.2812 0.95703 0.84375 1.4375 2.2266 1.4375 4.1406z"
         id="path33102" /></symbol><symbol
       id="d"
       overflow="visible"><path
         d="m6.0156-15.359v3.3906h3.9375v2.7344h-3.9375v5.0781c0 0.55469 0.10938 0.92969 0.32812 1.125 0.21875 0.19922 0.65625 0.29688 1.3125 0.29688h1.9688v2.7344h-3.2812c-1.5117 0-2.5859-0.3125-3.2188-0.9375-0.625-0.63281-0.9375-1.707-0.9375-3.2188v-5.0781h-1.9062v-2.7344h1.9062v-3.3906z"
         id="path33105" /></symbol><symbol
       id="k"
       overflow="visible"><path
         d="m9.9688-10.219v-6.4062h3.8594v16.625h-3.8594v-1.7344c-0.52344 0.71094-1.1016 1.2305-1.7344 1.5625-0.63672 0.32031-1.3711 0.48438-2.2031 0.48438-1.4688 0-2.6797-0.58203-3.625-1.75-0.94922-1.1758-1.4219-2.6875-1.4219-4.5312s0.47266-3.3477 1.4219-4.5156c0.94531-1.1758 2.1562-1.7656 3.625-1.7656 0.83203 0 1.5664 0.16797 2.2031 0.5 0.63281 0.32422 1.2109 0.83594 1.7344 1.5312zm-2.5156 7.75c0.82031 0 1.4453-0.29688 1.875-0.89062 0.42578-0.60156 0.64062-1.4727 0.64062-2.6094 0-1.1445-0.21484-2.0156-0.64062-2.6094-0.42969-0.59375-1.0547-0.89062-1.875-0.89062-0.8125 0-1.4336 0.29688-1.8594 0.89062-0.42969 0.59375-0.64062 1.4648-0.64062 2.6094 0 1.1367 0.21094 2.0078 0.64062 2.6094 0.42578 0.59375 1.0469 0.89062 1.8594 0.89062z"
         id="path33108" /></symbol><symbol
       id="j"
       overflow="visible"><path
         d="m8.2031-2.4688c0.82031 0 1.4453-0.29688 1.875-0.89062 0.42578-0.60156 0.64062-1.4727 0.64062-2.6094 0-1.1445-0.21484-2.0156-0.64062-2.6094-0.42969-0.59375-1.0547-0.89062-1.875-0.89062-0.82422 0-1.4531 0.30469-1.8906 0.90625-0.4375 0.59375-0.65625 1.4609-0.65625 2.5938 0 1.1367 0.21875 2.0078 0.65625 2.6094 0.4375 0.59375 1.0664 0.89062 1.8906 0.89062zm-2.5469-7.75c0.53125-0.69531 1.1133-1.207 1.75-1.5312 0.64453-0.33203 1.3828-0.5 2.2188-0.5 1.4688 0 2.6758 0.58984 3.625 1.7656 0.94531 1.168 1.4219 2.6719 1.4219 4.5156s-0.47656 3.3555-1.4219 4.5312c-0.94922 1.168-2.1562 1.75-3.625 1.75-0.83594 0-1.5742-0.16797-2.2188-0.5-0.63672-0.33203-1.2188-0.84766-1.75-1.5469v1.7344h-3.8125v-16.625h3.8125z"
         id="path33111" /></symbol><symbol
       id="i"
       overflow="visible"><path
         d="m0.26562-11.969h3.8281l3.2188 8.125 2.7344-8.125h3.8125l-5.0312 13.094c-0.5 1.332-1.0898 2.2656-1.7656 2.7969-0.66797 0.53125-1.5547 0.79688-2.6562 0.79688h-2.2188v-2.5h1.2031c0.64453 0 1.1133-0.10547 1.4062-0.3125 0.30078-0.21094 0.53125-0.57812 0.6875-1.1094l0.10938-0.34375z"
         id="path33114" /></symbol><symbol
       id="h"
       overflow="visible"><path
         d="m6.125-12.844v9.7344h1.4688c1.6758 0 2.957-0.41406 3.8438-1.25 0.89453-0.83203 1.3438-2.0391 1.3438-3.625 0-1.582-0.44531-2.7852-1.3281-3.6094-0.88672-0.83203-2.1719-1.25-3.8594-1.25zm-4.1094-3.1094h4.3281c2.4141 0 4.2188 0.17969 5.4062 0.53125 1.1875 0.34375 2.2031 0.92969 3.0469 1.75 0.75 0.71875 1.3047 1.5547 1.6719 2.5 0.36328 0.9375 0.54688 2 0.54688 3.1875 0 1.1992-0.18359 2.2734-0.54688 3.2188-0.36719 0.9375-0.92188 1.7656-1.6719 2.4844-0.85547 0.83594-1.8828 1.4219-3.0781 1.7656-1.1875 0.34375-2.9805 0.51562-5.375 0.51562h-4.3281z"
         id="path33117" /></symbol><symbol
       id="w"
       overflow="visible"><path
         d="m1.8438-16.625h3.8125v16.625h-3.8125z"
         id="path33120" /></symbol><symbol
       id="v"
       overflow="visible"><path
         d="m0.76562-11.969h3.7188l2.0156 8.25 2.0156-8.25h3.1875l2.0156 8.1719 2.0156-8.1719h3.7188l-3.1562 11.969h-4.1719l-2.0156-8.2188-2.0156 8.2188h-4.1719z"
         id="path33123" /></symbol><symbol
       id="u"
       overflow="visible"><path
         d="m2.0156-15.953h4.1094v6.0781h6.0625v-6.0781h4.1094v15.953h-4.1094v-6.7656h-6.0625v6.7656h-4.1094z"
         id="path33126" /></symbol><symbol
       id="c"
       overflow="visible"><path
         d="m7.5312-9.5156c-0.84375 0-1.4922 0.30859-1.9375 0.92188-0.44922 0.60547-0.67188 1.4805-0.67188 2.625 0 1.1484 0.22266 2.0273 0.67188 2.6406 0.44531 0.60547 1.0938 0.90625 1.9375 0.90625 0.83203 0 1.4688-0.30078 1.9062-0.90625 0.44531-0.61328 0.67188-1.4922 0.67188-2.6406 0-1.1445-0.22656-2.0195-0.67188-2.625-0.4375-0.61328-1.0742-0.92188-1.9062-0.92188zm0-2.7344c2.0508 0 3.6562 0.55859 4.8125 1.6719 1.1641 1.1055 1.75 2.6406 1.75 4.6094s-0.58594 3.5117-1.75 4.625c-1.1562 1.1055-2.7617 1.6562-4.8125 1.6562-2.0625 0-3.6797-0.55078-4.8438-1.6562-1.168-1.1133-1.75-2.6562-1.75-4.625s0.58203-3.5039 1.75-4.6094c1.1641-1.1133 2.7812-1.6719 4.8438-1.6719z"
         id="path33129" /></symbol><symbol
       id="g"
       overflow="visible"><path
         d="m11.188-11.594v2.9062c-0.82422-0.34375-1.6172-0.59766-2.375-0.76562-0.76172-0.16406-1.4805-0.25-2.1562-0.25-0.73047 0-1.2734 0.089844-1.625 0.26562-0.35547 0.17969-0.53125 0.46094-0.53125 0.84375 0 0.30469 0.13281 0.53906 0.40625 0.70312 0.26953 0.16797 0.75 0.28906 1.4375 0.35938l0.67188 0.09375c1.957 0.25 3.2734 0.66406 3.9531 1.2344 0.67578 0.57422 1.0156 1.4648 1.0156 2.6719 0 1.2812-0.46875 2.2461-1.4062 2.8906-0.9375 0.63672-2.3438 0.95312-4.2188 0.95312-0.78125 0-1.5938-0.0625-2.4375-0.1875s-1.7148-0.3125-2.6094-0.5625v-2.9062c0.75781 0.375 1.5391 0.65625 2.3438 0.84375 0.80078 0.17969 1.6133 0.26562 2.4375 0.26562 0.75 0 1.3125-0.10156 1.6875-0.3125 0.38281-0.20703 0.57812-0.50781 0.57812-0.90625 0-0.34375-0.13281-0.59766-0.39062-0.76562-0.26172-0.16406-0.78125-0.29688-1.5625-0.39062l-0.67188-0.09375c-1.6992-0.20703-2.8906-0.59766-3.5781-1.1719-0.6875-0.58203-1.0312-1.4609-1.0312-2.6406 0-1.2695 0.42969-2.207 1.2969-2.8125 0.875-0.61328 2.2109-0.92188 4.0156-0.92188 0.69531 0 1.4297 0.054688 2.2031 0.15625 0.78125 0.10547 1.6289 0.27344 2.5469 0.5z"
         id="path33132" /></symbol><symbol
       id="t"
       overflow="visible"><path
         d="m1.8438-11.969h3.8125v11.969h-3.8125zm0-4.6562h3.8125v3.125h-3.8125z"
         id="path33135" /></symbol><symbol
       id="f"
       overflow="visible"><path
         d="m13.859-7.2812v7.2812h-3.8438v-5.5781c0-1.0312-0.027344-1.7383-0.078125-2.125-0.042969-0.39453-0.12109-0.6875-0.23438-0.875-0.14844-0.25-0.35156-0.44141-0.60938-0.57812-0.25-0.14453-0.54297-0.21875-0.875-0.21875-0.79297 0-1.418 0.3125-1.875 0.9375-0.46094 0.61719-0.6875 1.4648-0.6875 2.5469v5.8906h-3.8125v-11.969h3.8125v1.75c0.58203-0.69531 1.1953-1.207 1.8438-1.5312 0.64453-0.33203 1.3594-0.5 2.1406-0.5 1.3828 0 2.4297 0.42969 3.1406 1.2812 0.71875 0.84375 1.0781 2.0742 1.0781 3.6875z"
         id="path33138" /></symbol><symbol
       id="s"
       overflow="visible"><path
         d="m9.7031-16.625v2.5156h-2.1094c-0.54297 0-0.92188 0.10156-1.1406 0.29688-0.21094 0.19922-0.3125 0.53906-0.3125 1.0156v0.82812h3.2656v2.7344h-3.2656v9.2344h-3.8281v-9.2344h-1.8906v-2.7344h1.8906v-0.82812c0-1.3008 0.36328-2.2656 1.0938-2.8906 0.72656-0.625 1.8516-0.9375 3.375-0.9375z"
         id="path33141" /></symbol><symbol
       id="r"
       overflow="visible"><path
         d="m12.922-9.9688c0.48828-0.75 1.0625-1.3164 1.7188-1.7031 0.66406-0.38281 1.3984-0.57812 2.2031-0.57812 1.375 0 2.4219 0.42969 3.1406 1.2812 0.71875 0.84375 1.0781 2.0742 1.0781 3.6875v7.2812h-3.8438v-6.2344c0.007812-0.09375 0.015625-0.1875 0.015625-0.28125v-0.4375c0-0.84375-0.125-1.457-0.375-1.8438-0.25-0.38281-0.65234-0.57812-1.2031-0.57812-0.73047 0-1.293 0.30469-1.6875 0.90625-0.38672 0.59375-0.58984 1.4609-0.60938 2.5938v5.875h-3.8438v-6.2344c0-1.3203-0.11719-2.1758-0.34375-2.5625-0.23047-0.38281-0.63672-0.57812-1.2188-0.57812-0.73047 0-1.2969 0.30469-1.7031 0.90625-0.39844 0.60547-0.59375 1.4648-0.59375 2.5781v5.8906h-3.8438v-11.969h3.8438v1.75c0.46875-0.66406 1.0039-1.1719 1.6094-1.5156 0.61328-0.34375 1.2891-0.51562 2.0312-0.51562 0.82031 0 1.5508 0.19922 2.1875 0.59375 0.63281 0.39844 1.1133 0.96094 1.4375 1.6875z"
         id="path33144" /></symbol><symbol
       id="q"
       overflow="visible"><path
         d="m13.859-7.2812v7.2812h-3.8438v-5.5469c0-1.0508-0.027344-1.7695-0.078125-2.1562-0.042969-0.39453-0.12109-0.6875-0.23438-0.875-0.14844-0.25-0.35156-0.44141-0.60938-0.57812-0.25-0.14453-0.54297-0.21875-0.875-0.21875-0.79297 0-1.418 0.3125-1.875 0.9375-0.46094 0.61719-0.6875 1.4648-0.6875 2.5469v5.8906h-3.8125v-16.625h3.8125v6.4062c0.58203-0.69531 1.1953-1.207 1.8438-1.5312 0.64453-0.33203 1.3594-0.5 2.1406-0.5 1.3828 0 2.4297 0.42969 3.1406 1.2812 0.71875 0.84375 1.0781 2.0742 1.0781 3.6875z"
         id="path33147" /></symbol><symbol
       id="p"
       overflow="visible"><path
         d="m2.0156-15.953h4.5781l5.8125 10.938v-10.938h3.8906v15.953h-4.5938l-5.7969-10.938v10.938h-3.8906z"
         id="path33150" /></symbol><symbol
       id="o"
       overflow="visible"><path
         d="m1.7031-4.6562v-7.3125h3.8438v1.2031c0 0.64844-0.007813 1.4609-0.015625 2.4375v1.9688c0 0.96094 0.023438 1.6523 0.078125 2.0781 0.050781 0.41797 0.13281 0.72656 0.25 0.92188 0.15625 0.25 0.35938 0.44531 0.60938 0.57812 0.25781 0.13672 0.55078 0.20312 0.875 0.20312 0.80078 0 1.4258-0.30469 1.875-0.92188 0.45703-0.61328 0.6875-1.4688 0.6875-2.5625v-5.9062h3.8281v11.969h-3.8281v-1.7344c-0.57422 0.69922-1.1836 1.2148-1.8281 1.5469-0.64844 0.33203-1.3555 0.5-2.125 0.5-1.3867 0-2.4453-0.42188-3.1719-1.2656-0.71875-0.85156-1.0781-2.0859-1.0781-3.7031z"
         id="path33153" /></symbol><symbol
       id="n"
       overflow="visible"><path
         d="m2.0156-15.953h6.8125c2.0312 0 3.5859 0.45312 4.6719 1.3594 1.0938 0.89844 1.6406 2.1797 1.6406 3.8438 0 1.6797-0.54688 2.9688-1.6406 3.875-1.0859 0.89844-2.6406 1.3438-4.6719 1.3438h-2.7031v5.5312h-4.1094zm4.1094 2.9844v4.4531h2.2656c0.80078 0 1.4141-0.19141 1.8438-0.57812 0.4375-0.38281 0.65625-0.9375 0.65625-1.6562 0-0.70703-0.21875-1.2539-0.65625-1.6406-0.42969-0.38281-1.043-0.57812-1.8438-0.57812z"
         id="path33156" /></symbol><symbol
       id="m"
       overflow="visible"><path
         d="m1.8438-11.969h3.8125v11.75c0 1.6016-0.38672 2.8281-1.1562 3.6719-0.76172 0.84375-1.8711 1.2656-3.3281 1.2656h-1.8906v-2.5h0.65625c0.72656 0 1.2266-0.16797 1.5-0.5 0.26953-0.32422 0.40625-0.96875 0.40625-1.9375zm0-4.6562h3.8125v3.125h-3.8125z"
         id="path33159" /></symbol><symbol
       id="l"
       overflow="visible"><path
         d="m11.5-11.594v3.125c-0.52344-0.35156-1.043-0.61328-1.5625-0.78125-0.52344-0.17578-1.0625-0.26562-1.625-0.26562-1.0742 0-1.9062 0.3125-2.5 0.9375s-0.89062 1.4961-0.89062 2.6094c0 1.1172 0.29688 1.9844 0.89062 2.6094s1.4258 0.9375 2.5 0.9375c0.59375 0 1.1562-0.085937 1.6875-0.26562 0.53906-0.17578 1.0391-0.44141 1.5-0.79688v3.125c-0.59375 0.23047-1.1992 0.39453-1.8125 0.5-0.61719 0.11328-1.2344 0.17188-1.8594 0.17188-2.1562 0-3.8438-0.55078-5.0625-1.6562-1.2188-1.1133-1.8281-2.6562-1.8281-4.625s0.60938-3.5039 1.8281-4.6094c1.2188-1.1133 2.9062-1.6719 5.0625-1.6719 0.625 0 1.2383 0.058594 1.8438 0.17188 0.61328 0.10547 1.2227 0.26562 1.8281 0.48438z"
         id="path33162" /></symbol></defs><sodipodi:namedview
     id="namedview8715"
     pagecolor="#ffffff"
     bordercolor="#000000"
     borderopacity="0.25"
     inkscape:showpageshadow="2"
     inkscape:pageopacity="0.0"
     inkscape:pagecheckerboard="0"
     inkscape:deskcolor="#d1d1d1"
     showgrid="false"
     inkscape:zoom="13.65625"
     inkscape:cx="-3.2585812"
     inkscape:cy="20.979405"
     inkscape:window-width="2560"
     inkscape:window-height="1000"
     inkscape:window-x="1680"
     inkscape:window-y="0"
     inkscape:window-maximized="1"
     inkscape:current-layer="svg8713" /><path
     fill-rule="evenodd"
     clip-rule="evenodd"
     d="m 2.6298231,0.28252566 c -0.028905,0.00842 -0.059212,0.012456 -0.09092,0.01212 -0.196436,0.01579 -0.3904035,0.047087 -0.5819025,0.093907 C 1.135168,0.58394096 0.616915,1.0898328 0.4022388,1.906223 c -0.100626,0.41602 -0.146085,0.8380909 -0.136384,1.2662577 -0.0081,0.4026349 0.03129,0.8004811 0.1182,1.1935383 0.2047832,0.8731343 0.745266,1.4073172 1.6214403,1.6024972 0.4760184,0.09795 0.9568759,0.134299 1.4426148,0.108979 0.4318445,-0.0073 0.8521003,-0.08001 1.2607942,-0.218091 C 5.2132429,5.6743842 5.5779374,5.3381319 5.8029875,4.8506468 5.924323,4.5695061 6.0031409,4.276671 6.0393881,3.972168 6.0878321,3.5389214 6.0979391,3.1047222 6.0697091,2.6695706 6.0492837,2.3230367 5.98261,1.9857711 5.8696616,1.6577894 5.6721805,1.1130337 5.3054488,0.73033476 4.7695193,0.50968976 4.4471573,0.38707896 4.1137624,0.31235416 3.7693611,0.28552596 c -0.3798283,-0.026881 -0.7596567,-0.027891 -1.139538,-0.003 z"
     fill="url(#paint0_radial_2_129)"
     id="path8836"
     style="fill:url(#paint0_radial_2_129);stroke-width:0.264578"
     sodipodi:nodetypes="cccccccccccccccc" /><path
     id="path33359"
     style="fill:#ef608c;fill-opacity:1;stroke-width:0.500088"
     d="M 4.1572871,1.4776792 C 3.7550757,1.4903282 3.4177555,1.646394 3.1842391,1.9448249 3.0934113,1.8410192 2.9894788,1.7503286 2.8597175,1.6724955 2.6131894,1.529731 2.327775,1.4651423 2.0163747,1.4911148 1.6660661,1.5299045 1.3806342,1.6853529 1.1730319,1.9448249 0.95245949,2.2432557 0.83554931,2.5675981 0.84851031,2.917873 0.86149615,3.2422763 0.95258659,3.5278872 1.1471942,3.813408 1.3677667,4.1378112 1.62679,4.3711095 1.8603149,4.5787209 l 5.168e-4,5.167e-4 c 0.3373475,0.2984308 0.7136137,0.5445297 1.1937021,0.8169883 0.051861,0.02614 0.09078,0.038757 0.1297053,0.038757 0.051861,0 0.09078,-0.012618 0.1297053,-0.038757 C 3.729142,5.1626423 4.0922683,4.9163578 4.4296166,4.630913 4.7669642,4.3454689 5.0137567,4.0860433 5.2083651,3.7875702 5.4678625,3.4113065 5.5455669,3.0221281 5.4806945,2.5809493 5.4158476,2.2955048 5.3248593,2.0618696 5.1561729,1.8802307 4.9096449,1.6077723 4.5982406,1.4776792 4.2089626,1.4776792 Z M 3.1749375,2.4646796 A 0.99150759,0.99150759 0 0 1 4.1665887,3.4563308 0.99150759,0.99150759 0 0 1 3.1749375,4.4479821 0.99150759,0.99150759 0 0 1 2.183803,3.4563308 0.99150759,0.99150759 0 0 1 3.1749375,2.4646796 Z m -0.00465,0.4320065 c -0.043783,0.00223 -0.086512,0.039171 -0.090432,0.1105854 -0.1938558,0.046089 -0.2435886,0.3060094 -0.1219539,0.4469923 0.066523,0.07712 0.1399386,0.074885 0.2278885,0.1043844 0.04551,0.015264 0.086292,0.059104 0.069762,0.1100686 -0.018878,0.058218 -0.08896,0.080335 -0.1353895,0.03979 C 3.0751987,3.6692378 2.996005,3.4370801 2.9046751,3.5994717 c -0.065484,0.1164126 0.066671,0.2801175 0.1751796,0.3059185 0.00808,0.1474354 0.1810321,0.1474354 0.1891321,0 0.1930758,-0.045908 0.2430916,-0.306586 0.1219539,-0.4469923 -0.066524,-0.07712 -0.1399386,-0.074885 -0.2278885,-0.1043844 -0.04552,-0.015263 -0.085775,-0.058591 -0.069245,-0.1095519 0.018878,-0.058224 0.08896,-0.080845 0.1353896,-0.040307 0.044963,0.039268 0.1241566,0.2714246 0.2154865,0.1090351 C 3.510166,3.1967774 3.378012,3.0330705 3.2695035,3.0072715 3.2654635,2.9335543 3.2201705,2.8966859 3.1749375,2.8966861 c -0.00141,0 -0.00272,-7.2e-5 -0.00413,0 z" /></svg>
