<?xml version="1.0" encoding="UTF-8" standalone="no"?>
<svg
   width="24"
   height="24"
   version="1"
   id="svg29271"
   sodipodi:docname="battery.svg"
   xml:space="preserve"
   inkscape:version="1.2.2 (b0a8486541, 2022-12-01)"
   inkscape:export-filename="../../../../../../../../../Imagens/Big Icons/battery.pdf"
   inkscape:export-xdpi="96"
   inkscape:export-ydpi="96"
   xmlns:inkscape="http://www.inkscape.org/namespaces/inkscape"
   xmlns:sodipodi="http://sodipodi.sourceforge.net/DTD/sodipodi-0.dtd"
   xmlns="http://www.w3.org/2000/svg"
   xmlns:svg="http://www.w3.org/2000/svg"><defs
     id="defs29275"><radialGradient
       id="paint0_radial_29_149"
       cx="0"
       cy="0"
       r="1"
       gradientUnits="userSpaceOnUse"
       gradientTransform="matrix(0,31.999991,-32.000024,0,72.000019,2.1748198e-6)"><stop
         stop-color="#80D2FF"
         id="stop17930" /><stop
         offset="1"
         stop-color="#2991C9"
         id="stop17932"
         style="stop-color:#002a43;stop-opacity:1;" /></radialGradient><radialGradient
       id="paint0_radial_29_149-3"
       cx="0"
       cy="0"
       r="1"
       gradientUnits="userSpaceOnUse"
       gradientTransform="matrix(0,31.999965,-32.000018,0,141.21699,-14.468428)"><stop
         stop-color="#80D2FF"
         id="stop17930-6" /><stop
         offset="1"
         stop-color="#2991C9"
         id="stop17932-7"
         style="stop-color:#002a43;stop-opacity:1;" /></radialGradient><radialGradient
       id="paint0_radial_29_23"
       cx="0"
       cy="0"
       r="1"
       gradientUnits="userSpaceOnUse"
       gradientTransform="matrix(0,22.000031,-22.000031,0,11.999983,1.000049)"><stop
         stop-color="#8FC8FF"
         id="stop184"
         offset="0"
         style="stop-color:#ffffff;stop-opacity:1;" /><stop
         offset="1"
         stop-color="#0056A8"
         id="stop186"
         style="stop-color:#bebebe;stop-opacity:1;" /></radialGradient><radialGradient
       id="paint0_radial_29_149-5"
       cx="0"
       cy="0"
       r="1"
       gradientUnits="userSpaceOnUse"
       gradientTransform="matrix(0,150,-150,0,-278.33746,-123.84153)"><stop
         stop-color="#80D2FF"
         id="stop17930-62"
         offset="0"
         style="stop-color:#43f769;stop-opacity:1;" /><stop
         offset="1"
         stop-color="#2991C9"
         id="stop17932-9"
         style="stop-color:#4bd864;stop-opacity:1;" /></radialGradient><radialGradient
       fx="0"
       fy="0"
       cx="0"
       cy="0"
       r="1"
       gradientUnits="userSpaceOnUse"
       gradientTransform="matrix(0,16.500023,-16.500023,0,8.999987,0.750037)"
       spreadMethod="pad"
       id="radialGradient20030"><stop
         style="stop-opacity:1;stop-color:#ffffff"
         offset="0"
         id="stop20026" /><stop
         style="stop-opacity:1;stop-color:#bebebe"
         offset="1"
         id="stop20028" /></radialGradient><radialGradient
       fx="0"
       fy="0"
       cx="0"
       cy="0"
       r="1"
       gradientUnits="userSpaceOnUse"
       gradientTransform="matrix(0,8.249992,-8.250005,0,8.999999,0.75)"
       spreadMethod="pad"
       id="radialGradient20048"><stop
         style="stop-opacity:1;stop-color:#43f769"
         offset="0"
         id="stop20044" /><stop
         style="stop-opacity:1;stop-color:#4bd864"
         offset="1"
         id="stop20046" /></radialGradient><radialGradient
       fx="0"
       fy="0"
       cx="0"
       cy="0"
       r="1"
       gradientUnits="userSpaceOnUse"
       gradientTransform="matrix(0,16.500023,-16.500023,0,8.999987,0.750037)"
       spreadMethod="pad"
       id="radialGradient20030-6"><stop
         style="stop-opacity:1;stop-color:#ffffff"
         offset="0"
         id="stop20026-5" /><stop
         style="stop-opacity:1;stop-color:#bebebe"
         offset="1"
         id="stop20028-6" /></radialGradient><radialGradient
       fx="0"
       fy="0"
       cx="0"
       cy="0"
       r="1"
       gradientUnits="userSpaceOnUse"
       gradientTransform="matrix(0,8.249992,-8.250005,0,8.999999,0.75)"
       spreadMethod="pad"
       id="radialGradient20048-9"><stop
         style="stop-opacity:1;stop-color:#43f769"
         offset="0"
         id="stop20044-3" /><stop
         style="stop-opacity:1;stop-color:#4bd864"
         offset="1"
         id="stop20046-7" /></radialGradient></defs><sodipodi:namedview
     id="namedview29273"
     pagecolor="#ffffff"
     bordercolor="#000000"
     borderopacity="0.25"
     inkscape:showpageshadow="2"
     inkscape:pageopacity="0.0"
     inkscape:pagecheckerboard="0"
     inkscape:deskcolor="#d1d1d1"
     showgrid="false"
     inkscape:zoom="4.8282136"
     inkscape:cx="-52.814565"
     inkscape:cy="21.332942"
     inkscape:window-width="2560"
     inkscape:window-height="998"
     inkscape:window-x="1680"
     inkscape:window-y="0"
     inkscape:window-maximized="1"
     inkscape:current-layer="svg29271" /><g
     id="g20014"
     transform="matrix(1.3333333,0,0,1.3333333,-4.5225532e-4,-3.504174e-5)"><g
       id="g20016"><g
         id="g20018"><g
           id="g20024"><path
             d="m 7.195,0.836 c 0.09,0 0.176,-0.012 0.258,-0.035 1.078,-0.071 2.156,-0.067 3.231,0.008 0.976,0.078 1.921,0.289 2.836,0.636 1.519,0.625 2.558,1.711 3.121,3.254 0.316,0.93 0.507,1.887 0.566,2.867 0.078,1.235 0.051,2.465 -0.086,3.696 -0.105,0.863 -0.328,1.691 -0.672,2.488 -0.637,1.383 -1.672,2.336 -3.101,2.859 C 12.191,17 11,17.207 9.773,17.227 8.398,17.301 7.035,17.195 5.684,16.918 3.203,16.367 1.668,14.852 1.09,12.375 0.844,11.262 0.73,10.133 0.754,8.992 0.727,7.781 0.855,6.582 1.141,5.402 1.75,3.09 3.219,1.656 5.547,1.102 6.09,0.969 6.641,0.879 7.195,0.836 Z"
             style="fill:url(#radialGradient20030-6);fill-rule:evenodd;stroke:none"
             id="path20032" /></g></g></g><g
       id="g20034"><g
         id="g20036"><g
           id="g20042"><path
             d="m 7.195,0.836 c 0.09,0 0.176,-0.012 0.258,-0.035 1.078,-0.071 2.156,-0.067 3.231,0.008 0.976,0.078 1.921,0.289 2.836,0.636 1.519,0.625 2.558,1.711 3.121,3.254 0.316,0.93 0.507,1.887 0.566,2.867 0.078,1.235 0.051,2.465 -0.086,3.696 -0.105,0.863 -0.328,1.691 -0.672,2.488 -0.637,1.383 -1.672,2.336 -3.101,2.859 C 12.191,17 11,17.207 9.773,17.227 8.398,17.301 7.035,17.195 5.684,16.918 3.203,16.367 1.668,14.852 1.09,12.375 0.844,11.262 0.73,10.133 0.754,8.992 0.727,7.777 0.855,6.582 1.141,5.402 1.75,3.09 3.219,1.656 5.547,1.102 6.09,0.969 6.641,0.879 7.195,0.836 Z"
             style="fill:url(#radialGradient20048-9);fill-rule:evenodd;stroke:none"
             id="path20050" /></g></g></g><path
       d="M 9.453,2.973 7.312,6.996 9.211,7.012 8.738,9.391 10.688,6.113 8.812,6.102 Z"
       style="fill:#fafafa;fill-opacity:1;fill-rule:nonzero;stroke:none"
       id="path20052" /><path
       d="m 5.98,6.117 c -0.3,0 -0.542,0.242 -0.542,0.543 v 10.152 c 0,0.016 0,0.028 0.003,0.043 0.082,0.02 0.161,0.043 0.243,0.063 0.988,0.203 1.98,0.312 2.984,0.328 v -0.613 c -0.879,-0.09 -1.559,-0.828 -1.559,-1.735 0,-0.019 0,-0.043 0,-0.066 0,-0.008 0,-0.016 0,-0.027 v -1.121 c 0,-0.301 0.243,-0.543 0.543,-0.543 h 0.133 v -1.063 c 0,-0.195 0.16,-0.355 0.356,-0.355 0.199,0 0.359,0.16 0.359,0.355 v 1.063 h 1 v -1.063 c 0,-0.195 0.16,-0.355 0.359,-0.355 0.196,0 0.356,0.16 0.356,0.355 v 1.063 h 0.133 c 0.3,0 0.543,0.242 0.543,0.543 v 1.121 c 0,0.007 0,0.015 0,0.023 0,0.024 0,0.047 0,0.07 0,0.891 -0.657,1.618 -1.508,1.731 v 0.613 c 0.129,-0.004 0.262,-0.008 0.39,-0.015 0.95,-0.016 1.879,-0.145 2.789,-0.383 0,-0.012 0,-0.02 0,-0.032 V 6.66 C 12.562,6.359 12.32,6.117 12.02,6.117 H 11.176 L 8.137,11.168 8.629,7.465 H 6.422 L 7.137,6.117 Z"
       style="fill:#fafafa;fill-opacity:1;fill-rule:nonzero;stroke:none"
       id="path20054" /></g></svg>
