<svg xmlns="http://www.w3.org/2000/svg" xml:space="preserve" width="24" height="24" viewBox="0 0 6.35 6.35"><defs><radialGradient id="a" cx="0" cy="0" r="1" gradientTransform="rotate(90 1.455 1.72) scale(5.82072)" gradientUnits="userSpaceOnUse"><stop stop-color="#FAFAFA"/><stop offset="1" stop-color="#B0B0B0"/></radialGradient></defs><path fill="url(#a)" fill-rule="evenodd" d="M2.63.283a.312.312 0 0 1-.091.012c-.197.015-.39.047-.582.094-.822.195-1.34.7-1.555 1.517-.1.416-.146.838-.136 1.266-.008.403.031.801.118 1.194.205.873.745 1.407 1.621 1.603.477.097.957.134 1.443.108.432-.007.852-.08 1.26-.218a1.87 1.87 0 0 0 1.095-1.008c.121-.281.2-.574.236-.879.049-.433.059-.867.03-1.302a3.775 3.775 0 0 0-.2-1.012A1.886 1.886 0 0 0 4.77.51a3.581 3.581 0 0 0-1-.224A8.37 8.37 0 0 0 2.63.283z" clip-rule="evenodd" style="fill:url(#a);stroke-width:.264578"/><path d="M3.175 1.058a2.117 2.117 0 0 0-2.117 2.117 2.117 2.117 0 0 0 2.117 2.117 2.117 2.117 0 0 0 2.117-2.117 2.117 2.117 0 0 0-2.117-2.117zm0 1.448a.67.67 0 0 1 .67.669.67.67 0 0 1-.67.67.67.67 0 0 1-.67-.67.67.67 0 0 1 .67-.67z" style="fill:#848383;fill-opacity:1;stroke-width:.263741;stroke-linecap:round;stroke-linejoin:round;stroke-dashoffset:1.89038;stroke-opacity:.05;paint-order:stroke markers fill;stroke:#000"/><path d="M3.175 1.195a1.98 1.98 0 0 0-1.98 1.98 1.98 1.98 0 0 0 1.98 1.98 1.98 1.98 0 0 0 1.98-1.98 1.98 1.98 0 0 0-1.98-1.98Zm0 1.31a.67.67 0 0 1 .67.67.67.67 0 0 1-.67.67.67.67 0 0 1-.67-.67.67.67 0 0 1 .67-.67z" style="opacity:.342291;fill:#848383;fill-opacity:1;stroke-width:.246725;stroke-linecap:round;stroke-linejoin:round;stroke-dashoffset:1.89038;stroke-opacity:.15;paint-order:stroke markers fill"/><path d="M1.195 3.197a1.98 1.98 0 0 0 .005.126 1.98 1.98 0 0 0 .017.147 1.98 1.98 0 0 0 .027.145 1.98 1.98 0 0 0 .039.144 1.98 1.98 0 0 0 .049.14 1.98 1.98 0 0 0 .059.135 1.98 1.98 0 0 0 .07.131 1.98 1.98 0 0 0 .078.125 1.98 1.98 0 0 0 .088.12 1.98 1.98 0 0 0 .097.112 1.98 1.98 0 0 0 .104.105 1.98 1.98 0 0 0 .112.096 1.98 1.98 0 0 0 .12.088 1.98 1.98 0 0 0 .125.079 1.98 1.98 0 0 0 .13.069 1.98 1.98 0 0 0 .136.059 1.98 1.98 0 0 0 .14.049 1.98 1.98 0 0 0 .143.039 1.98 1.98 0 0 0 .146.027 1.98 1.98 0 0 0 .147.016 1.98 1.98 0 0 0 .148.006 1.98 1.98 0 0 0 .006 0V3.844a.67.67 0 0 1-.006 0 .67.67 0 0 1-.087-.006.67.67 0 0 1-.086-.017.67.67 0 0 1-.083-.028.67.67 0 0 1-.079-.039.67.67 0 0 1-.072-.048.67.67 0 0 1-.066-.058.67.67 0 0 1-.058-.066.67.67 0 0 1-.048-.072.67.67 0 0 1-.039-.079.67.67 0 0 1-.028-.083.67.67 0 0 1-.017-.085.67.67 0 0 1-.004-.066z" style="fill:#d9d6d3;fill-opacity:1;stroke-width:.265159;stroke-linecap:round;stroke-linejoin:round;stroke-dashoffset:1.89038;stroke-opacity:.15;paint-order:stroke markers fill"/><path d="M3.18 5.155a1.98 1.98 0 0 0 .177-.008 1.98 1.98 0 0 0 .182-.025 1.98 1.98 0 0 0 .178-.043 1.98 1.98 0 0 0 .173-.058 1.98 1.98 0 0 0 .167-.074 1.98 1.98 0 0 0 .16-.089 1.98 1.98 0 0 0 .151-.103 1.98 1.98 0 0 0 .14-.117 1.98 1.98 0 0 0 .056-.055l-.926-.926a.67.67 0 0 1-.07.06.67.67 0 0 1-.09.054.67.67 0 0 1-.096.04.67.67 0 0 1-.102.025.67.67 0 0 1-.1.008z" style="fill:#f26c57;fill-opacity:1;stroke-width:.265159;stroke-linecap:round;stroke-linejoin:round;stroke-dashoffset:1.89038;stroke-opacity:.15;paint-order:stroke markers fill"/><path d="M1.767 1.784a1.98 1.98 0 0 0-.044.044 1.98 1.98 0 0 0-.096.112 1.98 1.98 0 0 0-.088.12 1.98 1.98 0 0 0-.079.125 1.98 1.98 0 0 0-.07.13 1.98 1.98 0 0 0-.059.137 1.98 1.98 0 0 0-.048.14 1.98 1.98 0 0 0-.039.143 1.98 1.98 0 0 0-.027.145 1.98 1.98 0 0 0-.017.147 1.98 1.98 0 0 0-.005.148 1.98 1.98 0 0 0 0 .023h1.312a.67.67 0 0 1-.001-.023.67.67 0 0 1 .006-.088.67.67 0 0 1 .017-.085.67.67 0 0 1 .028-.083.67.67 0 0 1 .039-.078.67.67 0 0 1 .048-.074.67.67 0 0 1 .05-.056z" style="fill:#f9ab55;fill-opacity:1;stroke-width:.265159;stroke-linecap:round;stroke-linejoin:round;stroke-dashoffset:1.89038;stroke-opacity:.15;paint-order:stroke markers fill"/><path d="M4.565 4.585a1.98 1.98 0 0 0 .01-.01 1.98 1.98 0 0 0 .13-.144 1.98 1.98 0 0 0 .116-.156 1.98 1.98 0 0 0 .1-.167 1.98 1.98 0 0 0 .083-.175 1.98 1.98 0 0 0 .066-.183 1.98 1.98 0 0 0 .047-.189 1.98 1.98 0 0 0 .028-.192 1.98 1.98 0 0 0 .01-.194 1.98 1.98 0 0 0-.01-.194 1.98 1.98 0 0 0-.028-.192A1.98 1.98 0 0 0 5.07 2.6a1.98 1.98 0 0 0-.066-.183 1.98 1.98 0 0 0-.083-.175 1.98 1.98 0 0 0-.1-.167 1.98 1.98 0 0 0-.115-.156 1.98 1.98 0 0 0-.13-.144 1.98 1.98 0 0 0-.145-.13 1.98 1.98 0 0 0-.156-.116 1.98 1.98 0 0 0-.167-.1 1.98 1.98 0 0 0-.175-.083 1.98 1.98 0 0 0-.183-.066 1.98 1.98 0 0 0-.189-.047 1.98 1.98 0 0 0-.192-.028 1.98 1.98 0 0 0-.194-.01 1.98 1.98 0 0 0-.194.01 1.98 1.98 0 0 0-.192.028 1.98 1.98 0 0 0-.189.047 1.98 1.98 0 0 0-.183.066 1.98 1.98 0 0 0-.175.083 1.98 1.98 0 0 0-.167.1 1.98 1.98 0 0 0-.156.116 1.98 1.98 0 0 0-.144.13 1.98 1.98 0 0 0-.01.01l.929.928a.67.67 0 0 1 .051-.05.67.67 0 0 1 .095-.068.67.67 0 0 1 .106-.049.67.67 0 0 1 .113-.03.67.67 0 0 1 .116-.01.67.67 0 0 1 .116.01.67.67 0 0 1 .113.03.67.67 0 0 1 .105.05.67.67 0 0 1 .096.066.67.67 0 0 1 .083.083.67.67 0 0 1 .067.096.67.67 0 0 1 .049.105.67.67 0 0 1 .03.113.67.67 0 0 1 .01.116.67.67 0 0 1-.01.116.67.67 0 0 1-.03.113.67.67 0 0 1-.05.106.67.67 0 0 1-.066.095.67.67 0 0 1-.051.051z" style="fill:#97cd78;fill-opacity:1;stroke-width:.527828;stroke-linecap:round;stroke-linejoin:round;stroke-dashoffset:1.89038;stroke-opacity:.15;paint-order:stroke markers fill"/><path d="M3.175 2.383a.792.792 0 0 0-.792.792.792.792 0 0 0 .792.792.792.792 0 0 0 .792-.792.792.792 0 0 0-.792-.792Zm0 .123a.67.67 0 0 1 .67.669.67.67 0 0 1-.67.67.67.67 0 0 1-.67-.67.67.67 0 0 1 .67-.67z" style="fill:#848383;fill-opacity:1;stroke-width:.09869;stroke-linecap:round;stroke-linejoin:round;stroke-dashoffset:1.89038;stroke-opacity:.15;paint-order:stroke markers fill"/></svg>