<svg xmlns="http://www.w3.org/2000/svg" xmlns:xlink="http://www.w3.org/1999/xlink" xml:space="preserve" width="24" height="24"><defs><linearGradient id="a"><stop offset="0" style="stop-color:#fefefc;stop-opacity:1"/><stop offset=".757" style="stop-color:#fefefc;stop-opacity:1"/><stop offset="1" style="stop-color:#d4d4d4;stop-opacity:1"/></linearGradient><linearGradient id="b"><stop offset="0" style="stop-color:#3e2a06;stop-opacity:1"/><stop offset="1" style="stop-color:#ad780a;stop-opacity:1"/></linearGradient><linearGradient xlink:href="#b" id="d" x1="442.039" x2="490.122" y1="371.544" y2="293.585" gradientTransform="matrix(.87491 0 0 .81149 60.367 62.587)" gradientUnits="userSpaceOnUse"/><linearGradient xlink:href="#b" id="c" x1="442.039" x2="490.122" y1="371.544" y2="293.585" gradientUnits="userSpaceOnUse"/><linearGradient id="g" x1="331.947" x2="331.947" y1="12" y2="123" gradientUnits="userSpaceOnUse"><stop offset="0" style="stop-color:#99a29b;stop-opacity:1"/><stop offset="1" style="stop-color:#738777;stop-opacity:1"/></linearGradient><linearGradient xlink:href="#g" id="j" x1="331.947" x2="331.947" y1="12" y2="123" gradientUnits="userSpaceOnUse"/><linearGradient xlink:href="#h" id="l" x1="25.514" x2="25.514" y1="199.222" y2="211.486" gradientTransform="matrix(.14529 0 0 .14529 2.94 -22.32)" gradientUnits="userSpaceOnUse"/><linearGradient id="h"><stop offset="0" style="stop-color:#9a9996;stop-opacity:1"/><stop offset=".5" style="stop-color:#c0bfbc;stop-opacity:1"/><stop offset="1" style="stop-color:#deddda;stop-opacity:1"/></linearGradient><linearGradient xlink:href="#h" id="m" x1="16" x2="16" y1="121.583" y2="127.083" gradientTransform="matrix(.3736 0 0 .35661 6.152 -30.118)" gradientUnits="userSpaceOnUse"/><linearGradient xlink:href="#h" id="n" x1="16" x2="16" y1="121.583" y2="127.083" gradientTransform="matrix(.3736 0 0 .35661 6.152 -33.825)" gradientUnits="userSpaceOnUse"/><linearGradient xlink:href="#h" id="o" x1="16" x2="16" y1="121.583" y2="127.083" gradientTransform="matrix(.3736 0 0 .35661 .67 -33.825)" gradientUnits="userSpaceOnUse"/><linearGradient xlink:href="#h" id="s" x1="16" x2="16" y1="121.583" y2="127.083" gradientTransform="matrix(2.33766 0 0 2.2314 -11.14 -29.054)" gradientUnits="userSpaceOnUse"/><linearGradient xlink:href="#i" id="r" x1="12.5" x2="19.5" y1="113.833" y2="113.833" gradientTransform="matrix(.34266 0 0 .32708 1.165 -26.72)" gradientUnits="userSpaceOnUse"/><linearGradient id="i"><stop offset="0" style="stop-color:#c0bfbc;stop-opacity:1"/><stop offset=".5" style="stop-color:#9a9996;stop-opacity:1"/><stop offset="1" style="stop-color:#c0bfbc;stop-opacity:1"/></linearGradient><linearGradient xlink:href="#h" id="p" x1="16" x2="16" y1="121.583" y2="127.083" gradientTransform="matrix(2.33766 0 0 2.2314 -11.14 -29.054)" gradientUnits="userSpaceOnUse"/><linearGradient xlink:href="#h" id="q" x1="16" x2="16" y1="121.583" y2="127.083" gradientTransform="matrix(2.33766 0 0 2.2314 -11.14 -29.054)" gradientUnits="userSpaceOnUse"/><radialGradient xlink:href="#a" id="f" cx="223.196" cy="137.661" r="14.572" fx="223.196" fy="137.661" gradientTransform="matrix(1.08578 -.03431 .03944 1.24799 -154.542 -26.543)" gradientUnits="userSpaceOnUse"/><radialGradient xlink:href="#a" id="e" cx="223.196" cy="137.661" r="14.572" fx="223.196" fy="137.661" gradientTransform="matrix(.81524 -.03431 .02961 1.24799 -129.437 -26.543)" gradientUnits="userSpaceOnUse"/><radialGradient id="k" cx="0" cy="0" r="1" gradientTransform="matrix(0 22 -22 0 12 1)" gradientUnits="userSpaceOnUse"><stop offset=".11" stop-color="#555" style="stop-color:#a19a99;stop-opacity:1"/><stop offset=".5" stop-color="#555" style="stop-color:#77767b;stop-opacity:1"/><stop offset="1" stop-color="#222" style="stop-color:#5e5c64;stop-opacity:1"/></radialGradient></defs><path fill="url(#k)" fill-rule="evenodd" d="M9.596 1.114c.12 0 .234-.014.344-.046a31.627 31.627 0 0 1 4.307.011c1.301.102 2.561.384 3.78.848 2.025.833 3.412 2.28 4.158 4.339.427 1.24.679 2.514.756 3.824a27.94 27.94 0 0 1-.115 4.923 11.88 11.88 0 0 1-.893 3.32c-.85 1.843-2.229 3.114-4.135 3.813a15.624 15.624 0 0 1-4.766.825 21.423 21.423 0 0 1-5.452-.412c-3.312-.738-5.354-2.757-6.128-6.057a19.047 19.047 0 0 1-.447-4.511 18.491 18.491 0 0 1 .515-4.786c.812-3.086 2.77-4.998 5.877-5.736a13.953 13.953 0 0 1 2.199-.355z" clip-rule="evenodd" style="fill:url(#k)"/><ellipse cx="6.647" cy="7.515" rx="1.199" ry=".891" style="display:inline;fill:url(#l);fill-opacity:1;fill-rule:evenodd;stroke:none;stroke-width:.149196;stroke-linecap:square;stroke-miterlimit:4;stroke-dasharray:none;stroke-opacity:1;paint-order:stroke fill markers;enable-background:new"/><path d="M12.13 11.54v1.543" style="fill:none;stroke:#999;stroke-width:.43586;stroke-linecap:butt;stroke-linejoin:miter;stroke-miterlimit:4;stroke-dasharray:none;stroke-opacity:1"/><ellipse cx="12.13" cy="14.22" rx="1.598" ry="1.199" style="fill:#e01b24;fill-opacity:1;fill-rule:evenodd;stroke:none;stroke-width:.199769;stroke-linecap:square;stroke-miterlimit:4;stroke-dasharray:none;stroke-opacity:1;paint-order:stroke fill markers"/><ellipse cx="12.13" cy="14.22" rx="1.308" ry=".981" style="display:inline;fill:url(#m);fill-opacity:1;fill-rule:evenodd;stroke-width:1.75729;stroke-linecap:square;paint-order:stroke fill markers;enable-background:new"/><ellipse cx="12.13" cy="14.22" rx="1.017" ry=".763" style="fill:#3d3846;fill-opacity:1;fill-rule:evenodd;stroke:none;stroke-width:1.36678;stroke-linecap:square;paint-order:stroke fill markers"/><ellipse cx="12.13" cy="10.513" rx="1.598" ry="1.199" style="fill:#1c71d8;fill-opacity:1;fill-rule:evenodd;stroke:none;stroke-width:.199769;stroke-linecap:square;stroke-miterlimit:4;stroke-dasharray:none;stroke-opacity:1;paint-order:stroke fill markers"/><ellipse cx="12.13" cy="10.513" rx="1.308" ry=".981" style="display:inline;fill:url(#n);fill-opacity:1;fill-rule:evenodd;stroke-width:1.75729;stroke-linecap:square;paint-order:stroke fill markers;enable-background:new"/><path fill="none" d="M6.647 13.088v-1.547" style="fill:#000;fill-opacity:0;stroke:#999;stroke-width:.43586;stroke-linecap:butt;stroke-linejoin:miter;stroke-miterlimit:4;stroke-dasharray:none;stroke-opacity:1"/><ellipse cx="6.647" cy="10.513" rx="1.598" ry="1.199" style="display:inline;fill:#1c71d8;fill-opacity:1;fill-rule:evenodd;stroke:none;stroke-width:.199769;stroke-linecap:square;stroke-miterlimit:4;stroke-dasharray:none;stroke-opacity:1;paint-order:stroke fill markers;enable-background:new"/><ellipse cx="6.647" cy="10.513" rx="1.308" ry=".981" style="display:inline;fill:url(#o);fill-opacity:1;fill-rule:evenodd;stroke-width:1.75729;stroke-linecap:square;paint-order:stroke fill markers;enable-background:new"/><ellipse cx="12.13" cy="10.513" rx="1.017" ry=".763" style="fill:#3d3846;fill-opacity:1;fill-rule:evenodd;stroke:none;stroke-width:1.36678;stroke-linecap:square;paint-order:stroke fill markers"/><path d="M17.612 11.54v1.543" style="fill:none;stroke:#999;stroke-width:.43586;stroke-linecap:butt;stroke-linejoin:miter;stroke-miterlimit:4;stroke-dasharray:none;stroke-opacity:1"/><g style="display:inline;enable-background:new" transform="matrix(.15981 0 0 .15981 13.415 -29.182)"><ellipse cx="26.263" cy="248.382" rx="10" ry="7.5" style="fill:#1c71d8;fill-opacity:1;fill-rule:evenodd;stroke:none;stroke-width:1.25;stroke-linecap:square;stroke-miterlimit:4;stroke-dasharray:none;stroke-opacity:1;paint-order:stroke fill markers"/><ellipse cx="26.263" cy="248.382" rx="8.182" ry="6.136" style="display:inline;fill:url(#p);fill-opacity:1;fill-rule:evenodd;stroke-width:10.9958;stroke-linecap:square;paint-order:stroke fill markers;enable-background:new"/><ellipse cx="26.263" cy="248.382" rx="6.364" ry="4.773" style="fill:#3d3846;fill-opacity:1;fill-rule:evenodd;stroke:none;stroke-width:8.55223;stroke-linecap:square;paint-order:stroke fill markers"/></g><g style="display:inline;enable-background:new" transform="matrix(.15981 0 0 .15981 13.415 -25.475)"><ellipse cx="26.263" cy="248.382" rx="10" ry="7.5" style="fill:#e01b24;fill-opacity:1;fill-rule:evenodd;stroke:none;stroke-width:1.25;stroke-linecap:square;stroke-miterlimit:4;stroke-dasharray:none;stroke-opacity:1;paint-order:stroke fill markers"/><ellipse cx="26.263" cy="248.382" rx="8.182" ry="6.136" style="display:inline;fill:url(#q);fill-opacity:1;fill-rule:evenodd;stroke-width:10.9958;stroke-linecap:square;paint-order:stroke fill markers;enable-background:new"/><ellipse cx="26.263" cy="248.382" rx="6.364" ry="4.773" style="fill:#3d3846;fill-opacity:1;fill-rule:evenodd;stroke:none;stroke-width:8.55223;stroke-linecap:square;paint-order:stroke fill markers"/></g><path d="M5.448 7.515v2.998a1.2.9 0 0 0 1.2.9 1.2.9 0 0 0 1.198-.899v-3c-.19.378-.667.892-1.199.892s-1.008-.514-1.199-.891Z" style="display:inline;fill:url(#r);fill-opacity:1;fill-rule:evenodd;stroke:none;stroke-width:.149912;stroke-linecap:square;stroke-miterlimit:4;stroke-dasharray:none;stroke-opacity:1;paint-order:stroke fill markers;enable-background:new"/><g transform="matrix(.15981 0 0 .15981 2.45 -25.475)"><ellipse cx="26.263" cy="248.382" rx="10" ry="7.5" style="fill:#e01b24;fill-opacity:1;fill-rule:evenodd;stroke:none;stroke-width:1.25;stroke-linecap:square;stroke-miterlimit:4;stroke-dasharray:none;stroke-opacity:1;paint-order:stroke fill markers"/><ellipse cx="26.263" cy="248.382" rx="8.182" ry="6.136" style="display:inline;fill:url(#s);fill-opacity:1;fill-rule:evenodd;stroke-width:10.9958;stroke-linecap:square;paint-order:stroke fill markers;enable-background:new"/><ellipse cx="26.263" cy="248.382" rx="6.364" ry="4.773" style="fill:#3d3846;fill-opacity:1;fill-rule:evenodd;stroke:none;stroke-width:8.55223;stroke-linecap:square;paint-order:stroke fill markers"/></g><ellipse cx="6.647" cy="7.515" rx="1.199" ry=".891" style="display:inline;fill:#c0bfbc;fill-opacity:1;fill-rule:evenodd;stroke:none;stroke-width:.149196;stroke-linecap:square;stroke-miterlimit:4;stroke-dasharray:none;stroke-opacity:1;paint-order:stroke fill markers;enable-background:new"/><ellipse cx="6.647" cy="7.515" rx=".685" ry=".514" style="display:inline;fill:#1a5fb4;fill-opacity:1;fill-rule:evenodd;stroke:none;stroke-width:.0453305;stroke-linecap:square;stroke-miterlimit:4;stroke-dasharray:none;stroke-opacity:1;paint-order:normal;enable-background:new"/><path d="M6.647 7.515c0-1.028.17-3.14-1.494-3.174-1.334-.028-1.87-.504-1.87-.504" style="display:inline;fill:none;fill-opacity:1;stroke:#1a5fb4;stroke-width:1.37064;stroke-linecap:butt;stroke-linejoin:miter;stroke-miterlimit:4;stroke-dasharray:none;stroke-opacity:1;paint-order:normal;enable-background:new"/></svg>