<?xml version="1.0" encoding="UTF-8" standalone="no"?>
<!-- Created with Inkscape (http://www.inkscape.org/) -->

<svg
   width="200"
   height="200"
   viewBox="0 0 52.916666 52.916666"
   version="1.1"
   id="svg5"
   xml:space="preserve"
   sodipodi:docname="icone_password-manager.svg"
   inkscape:version="1.2 (dc2aedaf03, 2022-05-15)"
   xmlns:inkscape="http://www.inkscape.org/namespaces/inkscape"
   xmlns:sodipodi="http://sodipodi.sourceforge.net/DTD/sodipodi-0.dtd"
   xmlns="http://www.w3.org/2000/svg"
   xmlns:svg="http://www.w3.org/2000/svg"><sodipodi:namedview
     id="namedview7"
     pagecolor="#ffffff"
     bordercolor="#666666"
     borderopacity="1.0"
     inkscape:showpageshadow="2"
     inkscape:pageopacity="0.0"
     inkscape:pagecheckerboard="0"
     inkscape:deskcolor="#d1d1d1"
     inkscape:document-units="mm"
     showgrid="false"
     showguides="true"
     inkscape:zoom="2.7863228"
     inkscape:cx="9.1518471"
     inkscape:cy="97.081358"
     inkscape:window-width="2560"
     inkscape:window-height="1008"
     inkscape:window-x="1680"
     inkscape:window-y="0"
     inkscape:window-maximized="1"
     inkscape:current-layer="layer1" /><defs
     id="defs2">
		
		
	
	
</defs><g
     inkscape:label="Camada 1"
     inkscape:groupmode="layer"
     id="layer1"><g
       id="Guides"
       style="display:none;fill:#0276b4;fill-opacity:1"
       transform="matrix(1.3582436,0,0,1.3582436,10.334236,10.120204)">
</g><g
       id="g5233"
       transform="matrix(1.4574582,0,0,1.4574582,-12.130251,-10.322236)"><path
         id="path4737"
         style="opacity:1;fill:#666666;fill-opacity:1;stroke:none;stroke-width:0.519999"
         d="m 23.61923,7.2872879 a 8.0157385,8.0157385 0 0 0 -8.012947,7.9638551 h -5.17e-4 v 5.663737 h 2.52336 v -5.663737 h -5.17e-4 a 5.4941578,5.4941578 0 0 1 5.490621,-5.4420452 5.4941578,5.4941578 0 0 1 5.493205,5.4420452 h -0.001 v 5.663737 h 2.523361 v -5.663737 h -5.17e-4 A 8.0157385,8.0157385 0 0 0 23.61923,7.2872879 Z" /><rect
         style="opacity:1;fill:#efba00;fill-opacity:1;stroke:none;stroke-width:0.61434"
         id="rect4338"
         width="23.457405"
         height="23.457405"
         x="11.890722"
         y="16.532917"
         rx="3.1705892"
         ry="3.1705892" /><rect
         style="opacity:1;fill:#e3dbdb;fill-opacity:1;stroke:none;stroke-width:0.460812"
         id="rect4794"
         width="24.835388"
         height="10.357399"
         x="17.609982"
         y="32.804352"
         rx="3.1652677"
         ry="3.1652677" /><g
         id="g4919"
         transform="translate(-2.4002703,11.524716)"><path
           id="text4798"
           style="font-style:normal;font-weight:normal;font-size:10.5833px;line-height:1.25;font-family:sans-serif;fill:#000000;fill-opacity:1;stroke:none;stroke-width:0.105255"
           d="m 25.510292,24.616372 c -0.07675,0 -0.139792,0.02467 -0.18913,0.07401 -0.04934,0.04934 -0.07401,0.112383 -0.07401,0.18913 v 1.126555 l -0.970314,-0.567392 c -0.03289,-0.01644 -0.06579,-0.02741 -0.09868,-0.03289 -0.10964,-0.01096 -0.200094,0.03289 -0.27136,0.131569 -0.03289,0.06579 -0.03837,0.131569 -0.01644,0.197353 0.01644,0.07127 0.05756,0.126086 0.123345,0.16446 l 0.962094,0.559166 -0.962094,0.559166 c -0.06579,0.03837 -0.106899,0.09319 -0.123345,0.16446 -0.01644,0.06579 -0.0082,0.131569 0.02467,0.197353 0.05482,0.08771 0.131568,0.131569 0.230245,0.131569 0.04386,0 0.08771,-0.01097 0.131568,-0.03289 l 0.970317,-0.567388 v 1.126554 c 0,0.07675 0.02741,0.139792 0.08223,0.18913 0.05482,0.04934 0.117864,0.07401 0.18913,0.07401 0.07127,0 0.131569,-0.02467 0.180906,-0.07401 0.04934,-0.04934 0.07401,-0.112382 0.07401,-0.18913 v -1.126554 l 0.961889,0.567388 c 0.04386,0.02193 0.08771,0.03289 0.131568,0.03289 0.09868,0 0.175425,-0.04386 0.230246,-0.131569 0.03837,-0.06579 0.04934,-0.131569 0.03289,-0.197353 -0.01644,-0.07127 -0.05756,-0.126086 -0.123344,-0.16446 l -0.970112,-0.559166 0.961889,-0.559166 c 0.06579,-0.03837 0.106899,-0.09319 0.123345,-0.16446 0.02193,-0.06579 0.01371,-0.131569 -0.02467,-0.197353 -0.05482,-0.09868 -0.139792,-0.142532 -0.254914,-0.131569 -0.03289,0.0055 -0.06579,0.01644 -0.09868,0.03289 l -0.970112,0.567389 v -1.126555 c 0,-0.07675 -0.02467,-0.139792 -0.07401,-0.18913 -0.04934,-0.04934 -0.112381,-0.07401 -0.189129,-0.07401 z" /><path
           id="path4851"
           style="font-style:normal;font-weight:normal;font-size:10.5833px;line-height:1.25;font-family:sans-serif;fill:#000000;fill-opacity:1;stroke:none;stroke-width:0.105255"
           d="m 30.801959,24.616372 c -0.07675,0 -0.139792,0.02467 -0.18913,0.07401 -0.04934,0.04934 -0.07401,0.112383 -0.07401,0.18913 v 1.126555 l -0.970314,-0.567392 c -0.03289,-0.01644 -0.06579,-0.02741 -0.09868,-0.03289 -0.10964,-0.01096 -0.200094,0.03289 -0.27136,0.131569 -0.03289,0.06579 -0.03837,0.131569 -0.01644,0.197353 0.01644,0.07127 0.05756,0.126086 0.123345,0.16446 l 0.962094,0.559166 -0.962094,0.559166 c -0.06579,0.03837 -0.106899,0.09319 -0.123345,0.16446 -0.01644,0.06579 -0.0082,0.131569 0.02467,0.197353 0.05482,0.08771 0.131568,0.131569 0.230245,0.131569 0.04386,0 0.08771,-0.01097 0.131568,-0.03289 l 0.970317,-0.567388 v 1.126554 c 0,0.07675 0.02741,0.139792 0.08223,0.18913 0.05482,0.04934 0.117864,0.07401 0.18913,0.07401 0.07127,0 0.131569,-0.02467 0.180906,-0.07401 0.04934,-0.04934 0.07401,-0.112382 0.07401,-0.18913 v -1.126554 l 0.961889,0.567388 c 0.04386,0.02193 0.08771,0.03289 0.131568,0.03289 0.09868,0 0.175425,-0.04386 0.230246,-0.131569 0.03837,-0.06579 0.04934,-0.131569 0.03289,-0.197353 -0.01644,-0.07127 -0.05756,-0.126086 -0.123344,-0.16446 l -0.970112,-0.559166 0.961889,-0.559166 c 0.06579,-0.03837 0.106899,-0.09319 0.123345,-0.16446 0.02193,-0.06579 0.01371,-0.131569 -0.02467,-0.197353 -0.05482,-0.09868 -0.139792,-0.142532 -0.254914,-0.131569 -0.03289,0.0055 -0.06579,0.01644 -0.09868,0.03289 l -0.970112,0.567389 v -1.126555 c 0,-0.07675 -0.02467,-0.139792 -0.07401,-0.18913 -0.04934,-0.04934 -0.112381,-0.07401 -0.189129,-0.07401 z" /><path
           id="path4853"
           style="font-style:normal;font-weight:normal;font-size:10.5833px;line-height:1.25;font-family:sans-serif;fill:#000000;fill-opacity:1;stroke:none;stroke-width:0.105255"
           d="m 36.093626,24.616372 c -0.07675,0 -0.139792,0.02467 -0.18913,0.07401 -0.04934,0.04934 -0.07401,0.112383 -0.07401,0.18913 v 1.126555 l -0.970314,-0.567392 c -0.03289,-0.01644 -0.06579,-0.02741 -0.09868,-0.03289 -0.10964,-0.01096 -0.200094,0.03289 -0.27136,0.131569 -0.03289,0.06579 -0.03837,0.131569 -0.01644,0.197353 0.01644,0.07127 0.05756,0.126086 0.123345,0.16446 l 0.962094,0.559166 -0.962094,0.559166 c -0.06579,0.03837 -0.106899,0.09319 -0.123345,0.16446 -0.01644,0.06579 -0.0082,0.131569 0.02467,0.197353 0.05482,0.08771 0.131568,0.131569 0.230245,0.131569 0.04386,0 0.08771,-0.01097 0.131568,-0.03289 l 0.970317,-0.567388 v 1.126554 c 0,0.07675 0.02741,0.139792 0.08223,0.18913 0.05482,0.04934 0.117864,0.07401 0.18913,0.07401 0.07127,0 0.131569,-0.02467 0.180906,-0.07401 0.04934,-0.04934 0.07401,-0.112382 0.07401,-0.18913 v -1.126554 l 0.961889,0.567388 c 0.04386,0.02193 0.08771,0.03289 0.131568,0.03289 0.09868,0 0.175425,-0.04386 0.230246,-0.131569 0.03837,-0.06579 0.04934,-0.131569 0.03289,-0.197353 -0.01644,-0.07127 -0.05756,-0.126086 -0.123344,-0.16446 l -0.970112,-0.559166 0.961889,-0.559166 c 0.06579,-0.03837 0.106899,-0.09319 0.123345,-0.16446 0.02193,-0.06579 0.01371,-0.131569 -0.02467,-0.197353 -0.05482,-0.09868 -0.139792,-0.142532 -0.254914,-0.131569 -0.03289,0.0055 -0.06579,0.01644 -0.09868,0.03289 l -0.970112,0.567389 v -1.126555 c 0,-0.07675 -0.02467,-0.139792 -0.07401,-0.18913 -0.04934,-0.04934 -0.112381,-0.07401 -0.189129,-0.07401 z" /><rect
           style="opacity:1;fill:#000000;fill-opacity:1;stroke:none;stroke-width:0.107569"
           id="rect4913"
           width="0.83108723"
           height="7.6824121"
           x="40.14761"
           y="22.617126"
           rx="0.41554362"
           ry="0.41554362" /></g><path
         id="path4973"
         style="opacity:1;fill:#000000;fill-opacity:1;stroke:none;stroke-width:0.191332"
         d="m 23.619426,24.770299 a 1.9508181,1.9508181 0 0 0 -1.950941,1.95094 1.9508181,1.9508181 0 0 0 1.047262,1.727039 v 2.400535 c 0,0.500656 0.403022,0.904127 0.903679,0.904127 0.500656,0 0.903677,-0.403471 0.903677,-0.904127 v -2.400086 a 1.9508181,1.9508181 0 0 0 1.047262,-1.727488 1.9508181,1.9508181 0 0 0 -1.950939,-1.95094 z" /></g></g></svg>
