<?xml version="1.0" encoding="UTF-8" standalone="no"?>
<svg
   width="24"
   height="24"
   version="1.1"
   id="svg36227"
   xml:space="preserve"
   xmlns="http://www.w3.org/2000/svg"
   xmlns:svg="http://www.w3.org/2000/svg"><defs
     id="defs36231"><linearGradient
       x1="12"
       y1="0"
       x2="12"
       y2="12"
       gradientUnits="userSpaceOnUse"
       gradientTransform="matrix(0.6875,0,0,0.6875,0.75001,0.750021)"
       spreadMethod="pad"
       id="linearGradient28804"><stop
         style="stop-opacity:1;stop-color:#89a8f5"
         offset="0"
         id="stop28800" /><stop
         style="stop-opacity:1;stop-color:#5771e5"
         offset="1"
         id="stop28802" /></linearGradient></defs><g
     id="g28788"
     transform="matrix(1.3333333,0,0,1.3333333,-4.5225532e-4,-3.504174e-5)"><g
       id="g28790"><g
         id="g28792"><g
           id="g28798"><path
             d="m 7.195,0.836 c 0.09,0 0.176,-0.012 0.258,-0.035 1.078,-0.071 2.156,-0.067 3.231,0.008 0.976,0.078 1.921,0.289 2.836,0.636 1.519,0.625 2.558,1.711 3.121,3.254 0.316,0.93 0.507,1.887 0.566,2.867 0.078,1.235 0.051,2.465 -0.086,3.696 -0.105,0.863 -0.328,1.691 -0.672,2.488 -0.637,1.383 -1.672,2.336 -3.101,2.859 C 12.191,17 11,17.207 9.773,17.227 8.398,17.301 7.035,17.195 5.684,16.918 3.203,16.367 1.668,14.852 1.09,12.375 0.844,11.262 0.73,10.133 0.754,8.992 0.727,7.777 0.855,6.582 1.141,5.402 1.75,3.09 3.219,1.656 5.547,1.102 6.09,0.969 6.641,0.879 7.195,0.836 Z"
             style="fill:url(#linearGradient28804);fill-rule:evenodd;stroke:none"
             id="path28806" /></g></g></g><path
       d="m 4.223,6.156 c -1.551,0 -2.797,1.246 -2.797,2.797 0,1.551 1.246,2.797 2.797,2.797 h 7.355 c 0,-0.008 -0.004,-0.016 -0.004,-0.023 V 10.77 H 4.145 c -1.004,0 -1.817,-0.813 -1.817,-1.817 0,-1.004 0.813,-1.812 1.817,-1.812 h 8.394 c 0.137,0 0.266,0.015 0.391,0.043 0.293,-0.188 0.648,-0.286 1.011,-0.286 0.164,0 0.329,0.02 0.489,0.063 -0.504,-0.5 -1.2,-0.805 -1.965,-0.805 z m 7.164,1.356 c -0.082,0 -0.149,0.066 -0.149,0.148 v 2.617 c 0,0.086 0.067,0.153 0.149,0.153 0.082,0 0.148,-0.067 0.148,-0.153 V 7.66 c 0,-0.082 -0.066,-0.148 -0.148,-0.148 z M 4.059,7.984 C 4.016,7.984 3.98,7.996 3.957,8.023 3.93,8.051 3.914,8.082 3.914,8.125 V 8.73 L 3.418,8.434 C 3.383,8.414 3.348,8.406 3.309,8.414 3.273,8.426 3.246,8.445 3.223,8.484 3.203,8.516 3.195,8.551 3.203,8.59 3.215,8.625 3.238,8.652 3.273,8.672 L 3.781,8.98 3.273,9.289 c -0.035,0.02 -0.058,0.047 -0.07,0.086 -0.008,0.039 0,0.074 0.02,0.105 0.023,0.036 0.05,0.059 0.086,0.067 0.039,0.012 0.074,0.004 0.113,-0.016 L 3.914,9.234 V 9.84 c 0,0.039 0.016,0.074 0.039,0.101 C 3.98,9.969 4.016,9.98 4.059,9.98 4.098,9.98 4.133,9.969 4.16,9.941 4.188,9.914 4.199,9.879 4.199,9.84 V 9.234 l 0.5,0.301 C 4.73,9.551 4.766,9.559 4.805,9.547 4.844,9.539 4.871,9.516 4.895,9.484 4.914,9.449 4.918,9.414 4.91,9.375 4.898,9.336 4.879,9.309 4.844,9.289 L 4.332,8.98 4.84,8.68 C 4.879,8.656 4.898,8.625 4.91,8.59 4.918,8.551 4.91,8.516 4.891,8.484 4.871,8.445 4.844,8.426 4.805,8.414 4.766,8.406 4.73,8.414 4.699,8.434 L 4.199,8.73 V 8.125 C 4.199,8.082 4.188,8.051 4.16,8.023 4.133,7.996 4.098,7.984 4.059,7.984 Z m 2.699,0 C 6.715,7.984 6.68,7.996 6.656,8.023 6.629,8.051 6.617,8.082 6.617,8.125 V 8.73 L 6.117,8.434 C 6.082,8.414 6.047,8.406 6.008,8.414 5.973,8.426 5.945,8.445 5.926,8.484 5.902,8.516 5.898,8.551 5.906,8.59 5.914,8.625 5.938,8.652 5.973,8.672 L 6.48,8.98 5.973,9.289 C 5.938,9.309 5.914,9.336 5.906,9.375 5.898,9.414 5.902,9.449 5.926,9.48 5.945,9.516 5.973,9.539 6.008,9.547 6.047,9.559 6.086,9.551 6.121,9.531 L 6.617,9.234 v 0.602 c 0,0.043 0.012,0.078 0.039,0.105 C 6.68,9.969 6.715,9.98 6.758,9.98 6.801,9.98 6.832,9.969 6.859,9.941 6.887,9.914 6.902,9.879 6.902,9.836 V 9.234 L 7.398,9.535 C 7.434,9.551 7.469,9.559 7.508,9.547 7.543,9.539 7.57,9.516 7.594,9.484 7.613,9.449 7.617,9.414 7.609,9.375 7.602,9.336 7.578,9.309 7.547,9.289 L 7.035,8.98 7.543,8.68 C 7.578,8.656 7.602,8.625 7.609,8.59 7.617,8.551 7.613,8.516 7.59,8.484 7.57,8.445 7.543,8.426 7.508,8.414 7.469,8.406 7.434,8.414 7.398,8.434 L 6.902,8.73 V 8.125 C 6.902,8.082 6.887,8.051 6.859,8.023 6.832,7.996 6.801,7.984 6.758,7.984 Z m 2.699,0 C 9.418,7.984 9.383,7.996 9.355,8.023 9.328,8.051 9.316,8.082 9.316,8.125 V 8.73 L 8.816,8.434 C 8.785,8.414 8.75,8.406 8.711,8.414 8.676,8.426 8.645,8.445 8.625,8.484 8.605,8.516 8.598,8.551 8.609,8.59 8.617,8.625 8.641,8.652 8.676,8.672 L 9.184,8.98 8.676,9.289 C 8.641,9.309 8.617,9.336 8.609,9.375 8.598,9.414 8.605,9.449 8.625,9.48 8.645,9.516 8.676,9.539 8.711,9.547 8.75,9.559 8.785,9.551 8.82,9.531 L 9.316,9.234 v 0.602 c 0,0.043 0.012,0.078 0.039,0.105 C 9.383,9.969 9.418,9.98 9.457,9.98 9.5,9.98 9.535,9.969 9.562,9.941 9.586,9.914 9.602,9.879 9.602,9.836 V 9.234 l 0.5,0.301 c 0.031,0.016 0.066,0.024 0.105,0.012 0.035,-0.008 0.066,-0.031 0.09,-0.063 C 10.312,9.449 10.32,9.414 10.309,9.375 10.301,9.336 10.281,9.309 10.25,9.289 L 9.734,8.98 10.242,8.68 C 10.281,8.656 10.301,8.625 10.309,8.59 10.32,8.551 10.312,8.516 10.293,8.484 10.27,8.445 10.242,8.426 10.207,8.414 c -0.039,-0.008 -0.074,0 -0.105,0.02 L 9.602,8.73 V 8.125 C 9.602,8.082 9.586,8.051 9.562,8.023 9.535,7.996 9.5,7.984 9.457,7.984 Z"
       style="fill:#3d44d1;fill-opacity:1;fill-rule:nonzero;stroke:none"
       id="path28808" /><path
       d="m 13.973,7.203 c -0.836,0 -1.516,0.676 -1.52,1.512 V 9.789 H 12.93 V 8.715 c 0.008,-0.574 0.472,-1.035 1.043,-1.035 0.574,0 1.039,0.461 1.047,1.035 v 1.074 h 0.476 V 8.715 C 15.492,7.879 14.812,7.203 13.973,7.203 Z"
       style="fill:#cad8ed;fill-opacity:1;fill-rule:nonzero;stroke:none"
       id="path28810" /><path
       d="m 12.355,9.621 h 3.239 c 0.222,0 0.406,0.18 0.406,0.406 v 1.762 c 0,0.223 -0.184,0.406 -0.406,0.406 h -3.239 c -0.226,0 -0.406,-0.183 -0.406,-0.406 v -1.762 c 0,-0.226 0.18,-0.406 0.406,-0.406 z"
       style="fill:#f7c04a;fill-opacity:1;fill-rule:nonzero;stroke:none"
       id="path28812" /><path
       d="m 13.973,10.242 c -0.203,0 -0.371,0.168 -0.371,0.371 0.003,0.141 0.078,0.266 0.199,0.328 v 0.457 c 0,0.094 0.078,0.172 0.172,0.172 0.097,0 0.172,-0.078 0.172,-0.172 v -0.457 c 0.125,-0.062 0.199,-0.187 0.199,-0.328 0,-0.203 -0.164,-0.371 -0.371,-0.371 z"
       style="fill:#eb8117;fill-opacity:1;fill-rule:nonzero;stroke:none"
       id="path28814" /></g></svg>
