<?xml version="1.0" encoding="UTF-8" standalone="no"?>
<svg
   width="24"
   height="24"
   version="1.1"
   id="svg36227"
   sodipodi:docname="kernel-linux.svg"
   inkscape:version="1.2.2 (b0a8486541, 2022-12-01)"
   inkscape:export-filename="kernel-linux.svg"
   inkscape:export-xdpi="800"
   inkscape:export-ydpi="800"
   xml:space="preserve"
   xmlns:inkscape="http://www.inkscape.org/namespaces/inkscape"
   xmlns:sodipodi="http://sodipodi.sourceforge.net/DTD/sodipodi-0.dtd"
   xmlns:xlink="http://www.w3.org/1999/xlink"
   xmlns="http://www.w3.org/2000/svg"
   xmlns:svg="http://www.w3.org/2000/svg"><defs
     id="defs36231"><linearGradient
       id="paint0_linear_3_29"
       x1="12"
       y1="0"
       x2="12"
       y2="12"
       gradientUnits="userSpaceOnUse"
       gradientTransform="matrix(0.91666681,0,0,0.91666681,0.99999433,0.99999836)"><stop
         stop-color="white"
         id="stop36440" /><stop
         offset="1"
         stop-color="#D9D9D9"
         id="stop36442" /></linearGradient><clipPath
       id="clip0_3_29"><rect
         width="20"
         height="11.6875"
         fill="#ffffff"
         transform="translate(2,6.835)"
         id="rect36445"
         x="0"
         y="0" /></clipPath><linearGradient
       id="paint0_linear_3_29-3"
       x1="12"
       y1="0"
       x2="12"
       y2="12"
       gradientUnits="userSpaceOnUse"
       gradientTransform="matrix(0.91666682,0,0,0.91666682,1.000013,1.0000278)"><stop
         stop-color="white"
         id="stop36440-6" /><stop
         offset="1"
         stop-color="#D9D9D9"
         id="stop36442-7" /></linearGradient><linearGradient
       id="linearGradient28799-4"><stop
         id="stop28801-13"
         offset="0"
         style="stop-color:#fefefc;stop-opacity:1;" /><stop
         style="stop-color:#fefefc;stop-opacity:1"
         offset="0.75733864"
         id="stop28807-8" /><stop
         id="stop28803-8"
         offset="1"
         style="stop-color:#d4d4d4;stop-opacity:1" /></linearGradient><radialGradient
       r="14.572236"
       fy="137.66095"
       fx="223.19559"
       cy="137.66095"
       cx="223.19559"
       gradientTransform="matrix(1.0857794,-0.03431182,0.03943781,1.2479887,-154.54194,-26.542647)"
       gradientUnits="userSpaceOnUse"
       id="radialGradient29032"
       xlink:href="#linearGradient28799-4"
       inkscape:collect="always" /><radialGradient
       r="14.572236"
       fy="137.66095"
       fx="223.19559"
       cy="137.66095"
       cx="223.19559"
       gradientTransform="matrix(0.81524244,-0.03431182,0.02961133,1.2479887,-129.43743,-26.542647)"
       gradientUnits="userSpaceOnUse"
       id="radialGradient29648"
       xlink:href="#linearGradient28799-4"
       inkscape:collect="always" /><linearGradient
       inkscape:collect="always"
       id="linearGradient14392-7"><stop
         style="stop-color:#3e2a06;stop-opacity:1"
         offset="0"
         id="stop14394-8" /><stop
         style="stop-color:#ad780a;stop-opacity:1"
         offset="1"
         id="stop14396-6" /></linearGradient><linearGradient
       inkscape:collect="always"
       xlink:href="#linearGradient14392-7"
       id="linearGradient14477"
       gradientUnits="userSpaceOnUse"
       gradientTransform="matrix(0.87491199,0,0,0.81148755,60.367186,62.586953)"
       x1="442.03912"
       y1="371.54401"
       x2="490.12241"
       y2="293.58548" /><linearGradient
       inkscape:collect="always"
       xlink:href="#linearGradient14392-7"
       id="linearGradient14485"
       gradientUnits="userSpaceOnUse"
       gradientTransform="translate(4e-6,9.6185359e-6)"
       x1="442.03912"
       y1="371.54401"
       x2="490.12241"
       y2="293.58548" /><clipPath
       clipPathUnits="userSpaceOnUse"
       id="clipPath14186-9"><path
         inkscape:original-d="m 137.57703,281.0191 c 6.32494,-1.3585 11.99755,4.87308 16.86679,9.13228 6.42572,5.62067 -8.54781,26.01622 13.24488,19.8293 5.86081,-1.66388 6.89528,11.31183 10.16415,16.45304 4.09971,6.44793 11.58575,13.6827 13.65231,21.03883 1.58383,5.63779 1.34339,10.90606 -1.62666,15.95302 -3.57124,6.06857 -11.7907,10.42929 -18.78877,11.20919 -5.73056,0.63864 -11.87822,-3.8351 -17.38362,-5.54906 -12.31617,-3.83432 -23.77946,-5.82074 -36.09666,-9.65174 -2.50091,-0.77785 -8.28361,-2.638 -10.96988,-3.42629 -4.51043,-1.3236 -6.46556,-0.99271 -8.72046,-4.76819 -2.68251,-4.49147 0.68051,-9.72669 3.16379,-14.79408 4.06995,-8.30524 1.91195,-17.82603 0.46203,-25.51057 -0.92235,-4.8884 -0.66071,-7.92707 2.7425,-10.79139 4.99476,-4.20385 14.53027,-1.53186 20.35272,-4.08305 5.82246,-2.55119 6.66365,-13.6939 12.93688,-15.04129 z"
         sodipodi:nodetypes="ssssssssssssssss"
         inkscape:connector-curvature="0"
         id="path14188-1"
         d="m 137.57703,281.0191 c 1.59929,-0.66295 3.3982,-0.78361 5.10074,-0.46963 1.70253,0.31398 3.31141,1.04948 4.74342,2.02239 2.86402,1.94583 4.98821,4.77774 7.02263,7.57952 4.67189,6.43406 9.16868,13.00227 13.24488,19.8293 3.30635,5.53766 6.34352,11.25685 10.16415,16.45304 2.49398,3.3919 5.3066,6.53947 7.813,9.92221 2.50639,3.38273 4.72794,7.05586 5.83931,11.11662 1.44411,5.27653 0.88463,11.09291 -1.62666,15.95302 -1.76663,3.41896 -4.47646,6.35228 -7.77242,8.33898 -3.29595,1.9867 -7.17064,3.01444 -11.01635,2.87021 -6.11413,-0.2293 -11.69944,-3.28515 -17.38362,-5.54906 -11.58097,-4.6125 -24.15978,-6.0594 -36.09666,-9.65174 -3.66859,-1.10404 -7.27582,-2.4107 -10.96988,-3.42629 -1.64125,-0.45122 -3.30866,-0.8482 -4.85875,-1.55144 -1.55008,-0.70325 -2.999548,-1.7491 -3.86171,-3.21675 -0.666391,-1.13439 -0.948386,-2.47002 -0.930187,-3.78554 0.0182,-1.31552 0.325889,-2.61453 0.773815,-3.85158 0.895851,-2.47409 2.343262,-4.71374 3.320162,-7.15696 1.59511,-3.98935 1.88169,-8.38839 1.66657,-12.67942 -0.21511,-4.29103 -0.91078,-8.54478 -1.20454,-12.83115 -0.13118,-1.91406 -0.18066,-3.85256 0.18479,-5.73598 0.36545,-1.88343 1.17577,-3.72459 2.55771,-5.05541 1.27406,-1.22693 2.96492,-1.95531 4.69643,-2.31651 1.73151,-0.3612 3.51533,-0.37747 5.28367,-0.33762 1.76833,0.0399 3.54067,0.13425 5.30351,-0.0106 1.76284,-0.14488 3.53347,-0.54055 5.06911,-1.41828 1.45996,-0.83447 2.65433,-2.0745 3.64374,-3.43424 0.9894,-1.35974 1.78909,-2.84573 2.60891,-4.31396 0.81983,-1.46823 1.66834,-2.93151 2.74157,-4.22611 1.07324,-1.2946 2.38923,-2.42304 3.94266,-3.06698"
         style="fill:#402c07;fill-opacity:1;stroke:none" /></clipPath><inkscape:path-effect
       is_visible="true"
       id="path-effect4669-1"
       effect="spiro" /><inkscape:path-effect
       is_visible="true"
       id="path-effect4669-4-3"
       effect="spiro" /><inkscape:path-effect
       effect="spiro"
       id="path-effect14972-2-2"
       is_visible="true" /><inkscape:path-effect
       effect="spiro"
       id="path-effect15017-9"
       is_visible="true" /><clipPath
       clipPathUnits="userSpaceOnUse"
       id="clipPath15031-3"><path
         style="fill:none;stroke:#729fcf;stroke-width:0.125;stroke-linecap:butt;stroke-linejoin:miter;stroke-miterlimit:4;stroke-dasharray:none;stroke-opacity:1"
         d="m 248.06066,184.61218 c -2.60091,3.4397 -5.23338,6.85555 -7.89695,10.24696 -2.83301,3.60715 -5.70116,7.1866 -8.58729,10.75139 -3.54135,4.37407 -7.15155,8.79286 -9.44912,13.93045 -1.97407,4.41422 -2.91014,9.20748 -4.26498,13.84932 -1.53862,5.27153 -3.62627,10.37023 -5.97071,15.33612 -2.1648,4.58539 -4.54978,9.06293 -6.93891,13.53553 -1.73823,3.25407 -3.50515,6.58104 -4.10782,10.22071 -0.47627,2.87632 -0.19849,5.84423 0.53376,8.66626 0.73224,2.82202 1.90964,5.5106 3.23775,8.10601 5.66724,11.07504 14.17003,20.62168 24.24176,27.92472 4.57063,3.31418 9.46669,6.18109 14.60245,8.52595 2.78247,1.27041 5.71355,2.40436 8.77186,2.45744 1.52915,0.0265 3.0741,-0.22544 4.47434,-0.84055 1.40024,-0.6151 2.65068,-1.60373 3.48254,-2.88709 1.02278,-1.5779 1.36992,-3.53829 1.16461,-5.40743 -0.2053,-1.86914 -0.93484,-3.65294 -1.91324,-5.25873 -2.38997,-3.92251 -6.1652,-6.76055 -9.79642,-9.57343 -7.84055,-6.07358 -15.42466,-12.48038 -22.68212,-19.23996 -2.04911,-1.90854 -4.0984,-3.87759 -5.53019,-6.28412 -1.3943,-2.34352 -2.14763,-5.01375 -2.65783,-7.69253 -1.39963,-7.34872 -1.0404,-15.0827 1.45958,-22.13343 0.97802,-2.75834 2.27066,-5.39225 3.51815,-8.03965 2.1622,-4.58855 4.21133,-9.26299 7.04933,-13.46723 3.53268,-5.23334 8.24484,-9.67275 11.15147,-15.27803 2.45457,-4.7335 3.49353,-10.05742 4.36185,-15.31831 0.66531,-4.03089 1.24751,-8.07549 1.74613,-12.13037"
         id="path15033-2"
         inkscape:connector-curvature="0"
         inkscape:original-d="m 248.06066,184.61218 c 0,0 -5.10626,6.34527 -7.89695,10.24696 -2.7907,3.9017 -5.73652,6.64881 -8.58729,10.75139 -2.85076,4.10259 -7.36482,9.43164 -9.44912,13.93045 -2.08429,4.49881 -2.32047,9.0356 -4.26498,13.84932 -1.94451,4.81371 -3.70129,10.64183 -5.97071,15.33612 -2.26943,4.69429 -5.37093,9.68473 -6.93891,13.53553 -1.56799,3.8508 -3.81119,5.72384 -4.10782,10.22071 -0.29663,4.49686 -0.57747,8.31749 3.77151,16.77227 4.34898,8.45478 17.23626,22.00721 24.24176,27.92472 7.00549,5.9175 9.39133,7.22492 14.60245,8.52595 5.21112,1.30104 13.85627,2.9981 16.72874,-1.2702 2.87246,-4.26829 2.27191,-5.96483 -0.74863,-10.66616 -3.02055,-4.70132 -4.82469,-5.30209 -9.79642,-9.57343 -4.97172,-4.27133 -18.63696,-14.87266 -22.68212,-19.23996 -4.04516,-4.36729 -7.10731,-3.41164 -5.53019,-6.28412 1.57712,-2.87249 -2.20738,-4.00856 -2.65783,-7.69253 -0.76361,-6.24511 0.9436,-18.71046 1.45958,-22.13343 0.51598,-3.42296 1.22371,-2.92446 3.51815,-8.03965 2.29444,-5.11519 4.12424,-8.62435 7.04933,-13.46723 2.92509,-4.84289 8.62493,-10.12787 11.15147,-15.27803 2.52654,-5.15017 3.50393,-10.72068 4.36185,-15.31831 0.85792,-4.59763 1.74613,-12.13037 1.74613,-12.13037 z"
         sodipodi:nodetypes="czzzzzzzzzzzzzzzszzzzzc" /></clipPath><inkscape:path-effect
       is_visible="true"
       id="path-effect29716-6-1"
       effect="spiro" /><clipPath
       clipPathUnits="userSpaceOnUse"
       id="clipPath14822-9"><path
         sodipodi:nodetypes="aaaasssaccaa"
         inkscape:connector-curvature="0"
         d="m 386.1875,285.32775 c -0.40516,-1.10369 -1.11845,-2.08156 -1.9907,-2.86987 -0.87226,-0.78832 -1.90049,-1.39229 -2.98278,-1.85155 -2.16459,-0.91852 -4.52053,-1.26149 -6.83152,-1.69556 -2.17919,-0.40931 -4.34179,-0.90631 -6.52782,-1.27734 -2.27136,-0.38551 -4.6179,-0.63213 -6.8653,-0.1253 -1.96583,0.44333 -3.7845,1.45879 -5.27172,2.81864 -1.48723,1.35984 -2.64911,3.0564 -3.48499,4.89007 -1.47218,3.22952 -1.93451,6.86503 -1.65394,10.40316 0.20882,2.63325 0.87532,5.34594 2.60877,7.33912 1.40065,1.61052 3.38733,2.61526 5.43398,3.22092 3.52502,1.04316 7.36663,0.98822 10.86038,-0.1553 5.76689,-1.93113 10.87568,-5.77387 14.33034,-10.77903 1.13861,-1.64963 2.11217,-3.44809 2.5532,-5.4034 0.33597,-1.48955 0.34831,-3.08112 -0.1779,-4.51456"
         id="path14824-1"
         inkscape:original-d="m 386.1875,285.32775 c -2.36571,-3.81321 -7.59294,-4.9003 -11.805,-6.41698 -2.08672,-0.75138 -4.32322,-1.04333 -6.52782,-1.27734 -2.27612,-0.2416 -4.71593,-0.91505 -6.8653,-0.1253 -3.64566,1.33955 -7.24986,3.80684 -8.75671,7.70871 -1.13743,2.94527 -1.80122,7.05909 -1.65394,10.40316 0.13075,2.96891 0.9633,5.07273 2.60877,7.33912 1.08803,1.49859 3.40096,2.67896 5.43398,3.22092 3.49923,0.93284 7.37483,0.82779 10.86038,-0.1553 5.98587,-2.2615 11.09272,-5.76885 14.33034,-10.77903 1.07459,-1.67639 2.15539,-3.45031 2.5532,-5.4034 0.30053,-1.4755 0.61519,-3.23621 -0.1779,-4.51456 z"
         style="fill:none;stroke:#ce5c00;stroke-width:1px;stroke-linecap:butt;stroke-linejoin:miter;stroke-opacity:1" /></clipPath><clipPath
       clipPathUnits="userSpaceOnUse"
       id="clipPath14822-2-4"><path
         sodipodi:nodetypes="aaaasssaccaa"
         inkscape:connector-curvature="0"
         d="m 386.1875,285.32775 c -0.40516,-1.10369 -1.11845,-2.08156 -1.9907,-2.86987 -0.87226,-0.78832 -1.90049,-1.39229 -2.98278,-1.85155 -2.16459,-0.91852 -4.52053,-1.26149 -6.83152,-1.69556 -2.17919,-0.40931 -4.34179,-0.90631 -6.52782,-1.27734 -2.27136,-0.38551 -4.6179,-0.63213 -6.8653,-0.1253 -1.96583,0.44333 -3.7845,1.45879 -5.27172,2.81864 -1.48723,1.35984 -2.64911,3.0564 -3.48499,4.89007 -1.47218,3.22952 -1.93451,6.86503 -1.65394,10.40316 0.20882,2.63325 0.87532,5.34594 2.60877,7.33912 1.40065,1.61052 3.38733,2.61526 5.43398,3.22092 3.52502,1.04316 7.36663,0.98822 10.86038,-0.1553 5.76689,-1.93113 10.87568,-5.77387 14.33034,-10.77903 1.13861,-1.64963 2.11217,-3.44809 2.5532,-5.4034 0.33597,-1.48955 0.34831,-3.08112 -0.1779,-4.51456"
         id="path14824-6-5"
         inkscape:original-d="m 386.1875,285.32775 c -2.36571,-3.81321 -7.59294,-4.9003 -11.805,-6.41698 -2.08672,-0.75138 -4.32322,-1.04333 -6.52782,-1.27734 -2.27612,-0.2416 -4.71593,-0.91505 -6.8653,-0.1253 -3.64566,1.33955 -7.24986,3.80684 -8.75671,7.70871 -1.13743,2.94527 -1.80122,7.05909 -1.65394,10.40316 0.13075,2.96891 0.9633,5.07273 2.60877,7.33912 1.08803,1.49859 3.40096,2.67896 5.43398,3.22092 3.49923,0.93284 7.37483,0.82779 10.86038,-0.1553 5.98587,-2.2615 11.09272,-5.76885 14.33034,-10.77903 1.07459,-1.67639 2.15539,-3.45031 2.5532,-5.4034 0.30053,-1.4755 0.61519,-3.23621 -0.1779,-4.51456 z"
         style="fill:none;stroke:#ce5c00;stroke-width:1px;stroke-linecap:butt;stroke-linejoin:miter;stroke-opacity:1" /></clipPath><linearGradient
       id="linearGradient14518-6"><stop
         id="stop14540-0"
         offset="0"
         style="stop-color:#110800;stop-opacity:1;" /><stop
         style="stop-color:#a65a00;stop-opacity:0.80000001;"
         offset="0.59066743"
         id="stop14542-5" /><stop
         style="stop-color:#ff921e;stop-opacity:0;"
         offset="1"
         id="stop14522-4" /></linearGradient><inkscape:path-effect
       is_visible="true"
       id="path-effect29716-0-0"
       effect="spiro" /><inkscape:path-effect
       is_visible="true"
       id="path-effect29716-0-8-3"
       effect="spiro" /><inkscape:path-effect
       effect="spiro"
       id="path-effect14300-7"
       is_visible="true" /><clipPath
       clipPathUnits="userSpaceOnUse"
       id="clipPath14489-3"><path
         style="fill:url(#linearGradient14485);fill-opacity:1;stroke:none"
         d="m 516.00562,331.8756 c -0.6714,1.71905 -1.62682,3.32679 -2.81579,4.73826 -2.6238,3.11482 -6.268,5.17039 -9.89648,7.01985 -6.1886,3.15437 -12.60169,5.92177 -18.41964,9.71654 -3.89802,2.54249 -7.4959,5.52671 -10.86016,8.74238 -2.87719,2.75012 -5.60582,5.68745 -8.83247,8.01771 -3.25567,2.35122 -7.01915,4.05426 -10.99061,4.6502 -4.83026,0.72481 -9.82134,-0.21289 -14.29898,-2.16416 -3.13754,-1.36728 -6.15569,-3.3229 -7.96301,-6.22931 -1.81425,-2.91754 -2.22807,-6.48813 -2.23266,-9.92375 -0.008,-6.07666 1.11824,-12.09004 2.17848,-18.07349 0.88097,-4.97177 1.71949,-9.95483 2.26013,-14.97502 0.98337,-9.13118 0.9763,-18.35278 0.3199,-27.51327 -0.10993,-1.53416 -0.23754,-3.0832 -0.008,-4.60412 0.22922,-1.52092 0.85475,-3.0367 2.02069,-4.03986 1.07696,-0.9266 2.52093,-1.33598 3.93947,-1.4145 1.41854,-0.0785 2.83404,0.14655 4.23982,0.35197 3.31254,0.48405 6.65159,0.8649 9.88917,1.71656 2.04284,0.53738 4.03315,1.25925 6.0722,1.81081 3.40258,0.92039 6.96639,1.36144 10.46739,0.95192 3.76917,-0.44089 7.42987,-1.85678 11.22363,-1.76474 1.55658,0.0378 3.1015,0.33171 4.58649,0.79985 1.51539,0.47772 3.00914,1.16182 4.12281,2.29512 0.84639,0.8613 1.43579,1.94539 1.87872,3.06879 0.65982,1.67352 1.01492,3.457 1.16703,5.24945 0.13475,1.58788 0.11343,3.19441 0.41433,4.75933 0.49503,2.57458 1.84746,4.92305 3.52848,6.93494 1.68102,2.01189 3.68982,3.72048 5.69641,5.40783 1.99908,1.68103 4.0106,3.35469 6.16708,4.82839 1.0121,0.69165 2.05642,1.33949 3.01736,2.10062 0.96094,0.76113 1.84466,1.6468 2.44543,2.71535 0.81492,1.44944 1.06377,3.2077 0.68307,4.82635 l 2e-5,0"
         id="path14491-6"
         inkscape:connector-curvature="0"
         sodipodi:nodetypes="aaaaaaaaaaaaaaaaaaaaaaaacscaa"
         inkscape:original-d="m 516.00562,331.8756 c 0.90859,1.59687 -1.57016,3.38773 -2.81579,4.73826 -2.74207,2.97299 -6.45099,4.90178 -9.89648,7.01985 -5.91373,3.63539 -12.61918,5.90302 -18.41964,9.71654 -3.88318,2.553 -7.32809,5.72221 -10.86016,8.74238 -3.0221,2.58411 -5.48201,5.87643 -8.83247,8.01771 -3.3519,2.1422 -7.0437,4.15414 -10.99061,4.6502 -4.78298,0.60114 -9.87221,-0.25577 -14.29898,-2.16416 -3.0947,-1.33413 -6.16113,-3.38144 -7.96301,-6.22931 -1.81288,-2.86525 -2.06093,-6.5375 -2.23266,-9.92375 -0.30734,-6.06031 1.36252,-12.0605 2.17848,-18.07349 0.67882,-5.00236 1.85312,-9.94325 2.26013,-14.97502 0.73946,-9.14185 -0.7797,-18.40771 0.3199,-27.51327 0.35468,-2.93704 -0.181,-6.65876 2.01238,-8.64398 2.0384,-1.84494 5.43058,-1.1212 8.17929,-1.06253 3.34492,0.0714 6.63224,0.95108 9.88917,1.71656 2.05612,0.48325 3.99816,1.41138 6.0722,1.81081 3.44031,0.66255 6.96573,1.06623 10.46739,0.95192 3.78516,-0.12356 7.43659,-1.79636 11.22363,-1.76474 1.55185,0.013 3.12359,0.28186 4.58649,0.79985 1.48266,0.52499 2.98786,1.20618 4.12281,2.29512 0.86547,0.83038 1.42933,1.95676 1.87872,3.06879 0.67163,1.66196 0.8942,3.4778 1.16703,5.24945 0.24238,1.57389 -0.1531,3.27141 0.41433,4.75933 1.83023,4.79924 5.57666,8.72712 9.22489,12.34277 1.74278,1.93455 4.03041,3.53404 6.16708,4.82839 2.26886,1.37444 4.3675,2.44991 5.46279,4.81597 0.65901,1.48517 -0.54371,3.76097 0.68307,4.82635 z" /></clipPath><inkscape:path-effect
       effect="spiro"
       id="path-effect14300-2-7"
       is_visible="true" /><clipPath
       clipPathUnits="userSpaceOnUse"
       id="clipPath14481-1"><path
         style="fill:url(#linearGradient14485);fill-opacity:1;stroke:none"
         d="m 516.00562,331.8756 c -0.6714,1.71905 -1.62682,3.32679 -2.81579,4.73826 -2.6238,3.11482 -6.268,5.17039 -9.89648,7.01985 -6.1886,3.15437 -12.60169,5.92177 -18.41964,9.71654 -3.89802,2.54249 -7.4959,5.52671 -10.86016,8.74238 -2.87719,2.75012 -5.60582,5.68745 -8.83247,8.01771 -3.25567,2.35122 -7.01915,4.05426 -10.99061,4.6502 -4.83026,0.72481 -9.82134,-0.21289 -14.29898,-2.16416 -3.13754,-1.36728 -6.15569,-3.3229 -7.96301,-6.22931 -1.81425,-2.91754 -2.22807,-6.48813 -2.23266,-9.92375 -0.008,-6.07666 1.11824,-12.09004 2.17848,-18.07349 0.88097,-4.97177 1.71949,-9.95483 2.26013,-14.97502 0.98337,-9.13118 0.9763,-18.35278 0.3199,-27.51327 -0.10993,-1.53416 -0.23754,-3.0832 -0.008,-4.60412 0.22922,-1.52092 0.85475,-3.0367 2.02069,-4.03986 1.07696,-0.9266 2.52093,-1.33598 3.93947,-1.4145 1.41854,-0.0785 2.83404,0.14655 4.23982,0.35197 3.31254,0.48405 6.65159,0.8649 9.88917,1.71656 2.04284,0.53738 4.03315,1.25925 6.0722,1.81081 3.40258,0.92039 6.96639,1.36144 10.46739,0.95192 3.76917,-0.44089 7.42987,-1.85678 11.22363,-1.76474 1.55658,0.0378 3.1015,0.33171 4.58649,0.79985 1.51539,0.47772 3.00914,1.16182 4.12281,2.29512 0.84639,0.8613 1.43579,1.94539 1.87872,3.06879 0.65982,1.67352 1.01492,3.457 1.16703,5.24945 0.13475,1.58788 0.11343,3.19441 0.41433,4.75933 0.49503,2.57458 1.84746,4.92305 3.52848,6.93494 1.68102,2.01189 3.68982,3.72048 5.69641,5.40783 1.99908,1.68103 4.0106,3.35469 6.16708,4.82839 1.0121,0.69165 2.05642,1.33949 3.01736,2.10062 0.96094,0.76113 1.84466,1.6468 2.44543,2.71535 0.81492,1.44944 1.06377,3.2077 0.68307,4.82635 l 2e-5,0"
         id="path14483-3"
         inkscape:connector-curvature="0"
         sodipodi:nodetypes="aaaaaaaaaaaaaaaaaaaaaaaacscaa"
         inkscape:original-d="m 516.00562,331.8756 c 0.90859,1.59687 -1.57016,3.38773 -2.81579,4.73826 -2.74207,2.97299 -6.45099,4.90178 -9.89648,7.01985 -5.91373,3.63539 -12.61918,5.90302 -18.41964,9.71654 -3.88318,2.553 -7.32809,5.72221 -10.86016,8.74238 -3.0221,2.58411 -5.48201,5.87643 -8.83247,8.01771 -3.3519,2.1422 -7.0437,4.15414 -10.99061,4.6502 -4.78298,0.60114 -9.87221,-0.25577 -14.29898,-2.16416 -3.0947,-1.33413 -6.16113,-3.38144 -7.96301,-6.22931 -1.81288,-2.86525 -2.06093,-6.5375 -2.23266,-9.92375 -0.30734,-6.06031 1.36252,-12.0605 2.17848,-18.07349 0.67882,-5.00236 1.85312,-9.94325 2.26013,-14.97502 0.73946,-9.14185 -0.7797,-18.40771 0.3199,-27.51327 0.35468,-2.93704 -0.181,-6.65876 2.01238,-8.64398 2.0384,-1.84494 5.43058,-1.1212 8.17929,-1.06253 3.34492,0.0714 6.63224,0.95108 9.88917,1.71656 2.05612,0.48325 3.99816,1.41138 6.0722,1.81081 3.44031,0.66255 6.96573,1.06623 10.46739,0.95192 3.78516,-0.12356 7.43659,-1.79636 11.22363,-1.76474 1.55185,0.013 3.12359,0.28186 4.58649,0.79985 1.48266,0.52499 2.98786,1.20618 4.12281,2.29512 0.86547,0.83038 1.42933,1.95676 1.87872,3.06879 0.67163,1.66196 0.8942,3.4778 1.16703,5.24945 0.24238,1.57389 -0.1531,3.27141 0.41433,4.75933 1.83023,4.79924 5.57666,8.72712 9.22489,12.34277 1.74278,1.93455 4.03041,3.53404 6.16708,4.82839 2.26886,1.37444 4.3675,2.44991 5.46279,4.81597 0.65901,1.48517 -0.54371,3.76097 0.68307,4.82635 z" /></clipPath><inkscape:path-effect
       effect="spiro"
       id="path-effect14300-2-2-0"
       is_visible="true" /><clipPath
       clipPathUnits="userSpaceOnUse"
       id="clipPath14473-5"><path
         style="fill:url(#linearGradient14477);fill-opacity:1;stroke:none"
         d="m 511.82669,331.89986 c -0.60617,1.40358 -1.44178,2.70776 -2.46357,3.84504 -2.32524,2.58805 -5.50706,4.22246 -8.65855,5.69652 -5.42045,2.53534 -11.00071,4.7788 -16.11556,7.88485 -3.38301,2.05437 -6.53696,4.47221 -9.50169,7.09434 -2.52461,2.23286 -4.92977,4.6271 -7.72763,6.50627 -2.88313,1.93644 -6.17534,3.29888 -9.61582,3.77358 -4.21817,0.58201 -8.55335,-0.18335 -12.51035,-1.75619 -2.7091,-1.07682 -5.36625,-2.6185 -6.96693,-5.05501 -1.53813,-2.3413 -1.9333,-5.25173 -1.95338,-8.053 -0.0354,-4.93859 0.96501,-9.81816 1.90598,-14.66641 0.78215,-4.02995 1.52682,-8.0717 1.97741,-12.15204 0.81784,-7.40607 0.66114,-14.88536 0.27989,-22.32668 -0.064,-1.24906 -0.13361,-2.5105 0.0789,-3.74301 0.21256,-1.23251 0.73646,-2.45247 1.68171,-3.27147 0.93914,-0.8137 2.20952,-1.15942 3.45104,-1.2115 1.24152,-0.0521 2.47642,0.16381 3.70512,0.34927 2.88969,0.43617 5.81087,0.7091 8.65215,1.39297 1.78651,0.43 3.53091,1.02011 5.31265,1.46945 2.98632,0.75312 6.09645,1.10709 9.15804,0.77247 3.2941,-0.36004 6.50688,-1.50957 9.81969,-1.43207 1.35838,0.0318 2.70755,0.27142 4.01277,0.64907 1.31265,0.3798 2.61744,0.9202 3.6071,1.86246 0.72535,0.69061 1.25006,1.56936 1.64371,2.49029 0.57625,1.34814 0.88626,2.79994 1.02105,4.25986 0.11897,1.28855 0.10468,2.59405 0.36251,3.86214 0.4369,2.14878 1.63966,4.08139 3.11506,5.70353 1.4754,1.62214 3.22406,2.96752 4.9559,4.31247 1.75634,1.36398 3.50975,2.7398 5.39565,3.91818 0.88228,0.55128 1.79349,1.05932 2.63473,1.67142 0.84123,0.61209 1.61878,1.33907 2.14473,2.23668 0.68386,1.16711 0.90229,2.59857 0.59763,3.91652 l 2e-5,0"
         id="path14475-9"
         inkscape:connector-curvature="0"
         sodipodi:nodetypes="aaaaaaaaaaaaaaaaaaaaaaaacscaa"
         inkscape:original-d="m 511.82669,331.89986 c 0.79493,1.29584 -1.37375,2.7491 -2.46357,3.84504 -2.39907,2.41255 -5.64405,3.97773 -8.65855,5.69652 -5.17399,2.95008 -11.04067,4.79023 -16.11556,7.88485 -3.39744,2.07173 -6.41144,4.64351 -9.50169,7.09434 -2.64407,2.09697 -4.79627,4.76865 -7.72763,6.50627 -2.93262,1.73837 -6.16262,3.37103 -9.61582,3.77358 -4.18468,0.48781 -8.63731,-0.20756 -12.51035,-1.75619 -2.70759,-1.08263 -5.39044,-2.744 -6.96693,-5.05501 -1.58611,-2.32511 -1.80313,-5.3051 -1.95338,-8.053 -0.2689,-4.91787 1.19208,-9.78694 1.90598,-14.66641 0.59391,-4.05935 1.62131,-8.06882 1.97741,-12.15204 0.64696,-7.4185 -0.68217,-14.93763 0.27989,-22.32668 0.31031,-2.38337 -0.15836,-5.4035 1.76065,-7.01448 1.78342,-1.49715 4.75128,-0.90984 7.15616,-0.86223 2.92651,0.0579 5.80263,0.77179 8.65215,1.39297 1.79893,0.39215 3.49804,1.14531 5.31265,1.46945 3.00996,0.53765 6.0944,0.86523 9.15804,0.77247 3.31168,-0.10027 6.50636,-1.45773 9.81969,-1.43207 1.35773,0.0105 2.73287,0.22873 4.01277,0.64907 1.2972,0.42602 2.61412,0.9788 3.6071,1.86246 0.75721,0.67384 1.25054,1.58789 1.64371,2.49029 0.58762,1.34866 0.78235,2.82219 1.02105,4.25986 0.21206,1.27719 -0.13395,2.65471 0.36251,3.86214 1.60129,3.89452 4.87908,7.08195 8.07096,10.016 1.52478,1.56986 3.52626,2.86783 5.39565,3.91818 1.98506,1.11534 3.82118,1.98807 4.77946,3.9081 0.57658,1.2052 -0.47569,3.05198 0.59763,3.91652 z" /></clipPath><inkscape:path-effect
       is_visible="true"
       id="path-effect4582-3"
       effect="spiro" /><inkscape:path-effect
       is_visible="true"
       id="path-effect4500-7"
       effect="spiro" /><clipPath
       clipPathUnits="userSpaceOnUse"
       id="clipPath14656-7"><path
         sodipodi:nodetypes="aaaaassssaaaaaa"
         inkscape:connector-curvature="0"
         d="m 304.84727,225.44951 c 6.01627,4.92338 9.77707,12.317 10.94319,20.00305 1.8254,12.03148 -2.34636,24.07488 -6.44591,35.53273 -0.81749,2.28481 -1.63978,4.59033 -1.96473,6.99513 -0.32495,2.4048 -0.11897,4.94825 1.02948,7.08594 1.30279,2.42497 3.73227,4.12469 6.36677,4.92292 2.58877,0.78438 5.39365,0.76103 8.01466,0.0922 2.62101,-0.66882 5.06097,-1.96774 7.18716,-3.63996 5.48002,-4.30997 8.75799,-10.98552 10.01043,-17.84394 1.25243,-6.85841 0.63908,-13.92879 -0.551,-20.7983 -1.62313,-9.36916 -4.30898,-18.53961 -7.74003,-27.40773 -2.51766,-6.50732 -5.46794,-12.91081 -9.61753,-18.52016 -4.04611,-5.46946 -9.16208,-10.08954 -13.10336,-15.63502 -2.73209,-3.84412 -4.89983,-8.13097 -8.1917,-11.50812 -1.64594,-1.68858 -3.57654,-3.13527 -5.76975,-4.00143 -2.19321,-0.86616 -4.66356,-1.12446 -6.93254,-0.48249 -1.50468,0.42573 -2.89193,1.23739 -4.03791,2.30136 -1.14598,1.06397 -2.05268,2.37637 -2.69275,3.80312 -1.28015,2.85349 -1.47719,6.11241 -0.96512,9.1977 0.66114,3.98343 2.44407,7.69333 4.46569,11.18873 2.27396,3.93169 4.918,7.71926 8.38442,10.65407 3.5985,3.04664 7.96161,5.07413 11.61053,8.0602"
         id="path14658-9"
         inkscape:original-d="m 304.84727,225.44951 c 5.05628,5.63479 9.72833,12.47181 10.94319,20.00305 1.91724,11.88535 -4.97006,23.58228 -6.44591,35.53273 -0.57645,4.66766 -2.84839,9.7988 -0.93525,14.08107 1.10334,2.46967 3.76154,4.35176 6.36677,4.92292 5.08221,1.1142 11.95719,2.41291 15.20182,-3.54776 6.07775,-11.16533 10.5961,-26.78641 9.45943,-38.64224 -0.906,-9.44981 -3.86858,-18.61978 -7.74003,-27.40773 -2.817,-6.39442 -6.14704,-12.5833 -9.61753,-18.52016 -3.44146,-5.88721 -8.20051,-10.94245 -13.10336,-15.63502 -6.34842,-6.07614 -12.40311,-17.98386 -20.89399,-15.99204 -5.48499,1.28669 -7.45029,9.57719 -7.69578,15.30218 -0.17245,4.02188 2.46425,7.71677 4.46569,11.18873 2.26238,3.92465 5.10447,7.56255 8.38442,10.65407 3.43735,3.23988 8.4511,4.53927 11.61053,8.0602 z"
         style="fill:none;stroke:#c17d11;stroke-width:1px;stroke-linecap:butt;stroke-linejoin:miter;stroke-opacity:1" /></clipPath><inkscape:path-effect
       is_visible="true"
       id="path-effect29707-7-6"
       effect="spiro" /><inkscape:path-effect
       is_visible="true"
       id="path-effect29553-7"
       effect="spiro" /><clipPath
       id="clipPath29644-8"
       clipPathUnits="userSpaceOnUse"><path
         sodipodi:nodetypes="zzzzzzz"
         inkscape:connector-curvature="0"
         inkscape:original-d="m 54.232441,122.36218 c -3.79199,4.78949 -8.5176,11.69104 -8.19273,17.25 0.32487,5.55896 3.86025,13.93486 8.37542,16 4.51517,2.06514 5.75436,0.0125 8.32902,-2.5 2.57466,-2.51247 3.85871,-7.34762 4.00585,-12.25 0.14713,-4.90238 -3.03534,-11.91949 -5.43855,-15.25 -2.40321,-3.33051 -3.28702,-8.03949 -7.07901,-3.25 z"
         id="path29646-8"
         d="m 54.232441,122.36218 c -1.780966,0.097 -3.484616,0.91899 -4.787851,2.1367 -1.303235,1.21771 -2.221372,2.81176 -2.786181,4.50357 -1.129618,3.38363 -0.875481,7.05177 -0.618698,10.60973 0.23251,3.22162 0.470404,6.50533 1.676785,9.50158 0.60319,1.49813 1.450247,2.91021 2.580338,4.06395 1.130092,1.15374 2.551736,2.04189 4.118297,2.43447 1.468838,0.36809 3.038161,0.29183 4.482784,-0.16209 1.444623,-0.45391 2.763917,-1.27887 3.846236,-2.33791 1.57904,-1.54507 2.643262,-3.5662 3.253449,-5.68947 0.610186,-2.12328 0.784157,-4.35155 0.752401,-6.56053 -0.03974,-2.76435 -0.400909,-5.53851 -1.265755,-8.16439 -0.864846,-2.62588 -2.245742,-5.10327 -4.172795,-7.08561 -0.933308,-0.96009 -1.997766,-1.80513 -3.198586,-2.39747 -1.200819,-0.59233 -2.54344,-0.92535 -3.880424,-0.85253"
         style="fill:url(#radialGradient29648);fill-opacity:1;stroke:none" /></clipPath><linearGradient
       id="linearGradient28469-0"><stop
         style="stop-color:#d2940a;stop-opacity:1"
         offset="0"
         id="stop28479-4" /><stop
         style="stop-color:#d89c08;stop-opacity:1"
         offset="0.75143719"
         id="stop28477-2" /><stop
         id="stop28485-7"
         offset="0.86579126"
         style="stop-color:#b67e07;stop-opacity:1;" /><stop
         id="stop28473-1"
         offset="1"
         style="stop-color:#946106;stop-opacity:1" /></linearGradient><inkscape:path-effect
       is_visible="true"
       id="path-effect28463-4"
       effect="spiro" /><inkscape:path-effect
       is_visible="true"
       id="path-effect28489-4"
       effect="spiro" /><inkscape:path-effect
       is_visible="true"
       id="path-effect28273-54-7"
       effect="spiro" /><linearGradient
       id="linearGradient28275-8"><stop
         id="stop28277-1"
         offset="0"
         style="stop-color:#ad780a;stop-opacity:1" /><stop
         style="stop-color:#d89e08;stop-opacity:1"
         offset="0.11972899"
         id="stop28291-9" /><stop
         style="stop-color:#edb80b;stop-opacity:1"
         offset="0.25514477"
         id="stop28289-6" /><stop
         style="stop-color:#ebc80d;stop-opacity:1"
         offset="0.39194193"
         id="stop28287-6" /><stop
         style="stop-color:#f5d838;stop-opacity:1"
         offset="0.52741116"
         id="stop28285-7" /><stop
         style="stop-color:#f6d811;stop-opacity:1"
         offset="0.76906693"
         id="stop28283-7" /><stop
         id="stop28279-5"
         offset="1"
         style="stop-color:#f5cd31;stop-opacity:1" /></linearGradient><inkscape:path-effect
       is_visible="true"
       id="path-effect28273-44"
       effect="spiro" /><inkscape:path-effect
       is_visible="true"
       id="path-effect28384-7"
       effect="spiro" /><linearGradient
       id="linearGradient29529-6"><stop
         id="stop29531-0"
         offset="0"
         style="stop-color:#3a2903;stop-opacity:1;" /><stop
         style="stop-color:#735208;stop-opacity:1"
         offset="0.55472803"
         id="stop29539-7" /><stop
         id="stop29533-8"
         offset="1"
         style="stop-color:#ac8c04;stop-opacity:1" /></linearGradient><inkscape:path-effect
       is_visible="true"
       id="path-effect29455-3"
       effect="spiro" /><linearGradient
       id="linearGradient29477-3"><stop
         id="stop29479-5"
         offset="0"
         style="stop-color:#757574;stop-opacity:0" /><stop
         style="stop-color:#757574;stop-opacity:1;"
         offset="0.26291031"
         id="stop29487-5" /><stop
         style="stop-color:#757574;stop-opacity:1;"
         offset="0.5"
         id="stop29485-0" /><stop
         id="stop29481-3"
         offset="1"
         style="stop-color:#757574;stop-opacity:0" /></linearGradient><linearGradient
       id="linearGradient29336-6"><stop
         id="stop29338-1"
         offset="0"
         style="stop-color:#646464;stop-opacity:0" /><stop
         style="stop-color:#646464;stop-opacity:0.5825243"
         offset="0.30628255"
         id="stop29344-7" /><stop
         id="stop29354-5"
         offset="0.47000006"
         style="stop-color:#646464;stop-opacity:1" /><stop
         style="stop-color:#646464;stop-opacity:0.25728154"
         offset="0.72834015"
         id="stop29356-3" /><stop
         id="stop29340-6"
         offset="1"
         style="stop-color:#646464;stop-opacity:0;" /></linearGradient><linearGradient
       id="linearGradient28976-3"><stop
         id="stop28978-7"
         offset="0"
         style="stop-color:#747474;stop-opacity:1" /><stop
         style="stop-color:#8c8c8c;stop-opacity:1;"
         offset="0.125"
         id="stop29259-5" /><stop
         style="stop-color:#a4a4a4;stop-opacity:1;"
         offset="0.25"
         id="stop29257-0" /><stop
         style="stop-color:#d4d4d4;stop-opacity:1"
         offset="0.5"
         id="stop28984-4" /><stop
         id="stop28986-0"
         offset="0.61919296"
         style="stop-color:#d4d4d4;stop-opacity:1" /><stop
         id="stop28980-2"
         offset="1"
         style="stop-color:#7c7c7c;stop-opacity:1" /></linearGradient><inkscape:path-effect
       is_visible="true"
       id="path-effect28974-8"
       effect="spiro" /><clipPath
       id="clipPath29028-5"
       clipPathUnits="userSpaceOnUse"><path
         sodipodi:nodetypes="aaaaaaaa"
         inkscape:connector-curvature="0"
         inkscape:original-d="m 85.75,122.36218 c -2.54738,2.12715 -5.20812,4.59907 -6.25,7.75 -1.30914,3.95917 -1.63336,8.91703 0.5,12.5 3.91901,6.58194 12.38353,13.85135 19.75,11.75 4.87452,-1.3905 6.10748,-8.51023 7,-13.5 0.59149,-3.30679 0.59578,-7.19325 -1.25,-10 -3.61233,-5.49303 -10.4265,-9.89357 -17,-10 -1.04403,-0.0169 -1.94852,0.83074 -2.75,1.5 z"
         id="path29030-7"
         d="m 85.75,122.36218 c -2.780425,1.91023 -5.110569,4.57487 -6.25,7.75 -1.436029,4.00163 -0.885838,8.48071 0.5,12.5 1.419488,4.11688 3.793788,8.04098 7.37932,10.51234 1.792766,1.23567 3.868091,2.08301 6.030402,2.33859 2.162311,0.25558 4.409274,-0.0949 6.340278,-1.10093 2.35312,-1.22596 4.14782,-3.37278 5.26217,-5.78076 1.11436,-2.40798 1.5888,-5.0701 1.73783,-7.71924 0.18989,-3.37546 -0.14047,-6.80646 -1.25,-10 -1.20527,-3.46909 -3.39005,-6.67055 -6.472754,-8.6666 -1.541351,-0.99803 -3.291947,-1.68356 -5.110883,-1.93515 -1.818936,-0.25158 -3.704766,-0.0633 -5.416363,0.60175 -0.975471,0.37901 -1.887438,0.9074 -2.75,1.5"
         style="fill:url(#radialGradient29032);fill-opacity:1;stroke:none" /></clipPath><inkscape:path-effect
       is_visible="true"
       id="path-effect28881-6"
       effect="spiro" /><linearGradient
       id="linearGradient28935-8"><stop
         id="stop28937-7"
         offset="0"
         style="stop-color:#949494;stop-opacity:0.39215687;" /><stop
         style="stop-color:#949494;stop-opacity:1;"
         offset="0.5"
         id="stop28943-3" /><stop
         id="stop28939-8"
         offset="1"
         style="stop-color:#949494;stop-opacity:0.39215687;" /></linearGradient><linearGradient
       id="linearGradient28853-5"><stop
         id="stop28855-3"
         offset="0"
         style="stop-color:#020204;stop-opacity:1" /><stop
         style="stop-color:#020204;stop-opacity:1"
         offset="0.73448181"
         id="stop28865-0" /><stop
         id="stop28857-9"
         offset="1"
         style="stop-color:#5c5c5c;stop-opacity:1;" /></linearGradient><inkscape:path-effect
       is_visible="true"
       id="path-effect28851-0"
       effect="spiro" /><inkscape:path-effect
       is_visible="true"
       id="path-effect28273-4-2"
       effect="spiro" /><inkscape:path-effect
       is_visible="true"
       id="path-effect28797-81"
       effect="spiro" /><inkscape:path-effect
       is_visible="true"
       id="path-effect28797-8-1"
       effect="spiro" /><inkscape:path-effect
       is_visible="true"
       id="path-effect28463-0-7"
       effect="spiro" /><inkscape:path-effect
       is_visible="true"
       id="path-effect28463-8-0"
       effect="spiro" /><inkscape:path-effect
       is_visible="true"
       id="path-effect29721-2"
       effect="spiro" /><inkscape:path-effect
       is_visible="true"
       id="path-effect28714-5"
       effect="spiro" /><inkscape:path-effect
       is_visible="true"
       id="path-effect29678-4-6"
       effect="spiro" /><inkscape:path-effect
       is_visible="true"
       id="path-effect29678-1"
       effect="spiro" /><inkscape:path-effect
       is_visible="true"
       id="path-effect29672-0"
       effect="spiro" /></defs><sodipodi:namedview
     id="namedview36229"
     pagecolor="#ffffff"
     bordercolor="#000000"
     borderopacity="0.25"
     inkscape:showpageshadow="2"
     inkscape:pageopacity="0.0"
     inkscape:pagecheckerboard="0"
     inkscape:deskcolor="#d1d1d1"
     showgrid="false"
     inkscape:zoom="16.000001"
     inkscape:cx="-12.593749"
     inkscape:cy="23.093749"
     inkscape:window-width="2560"
     inkscape:window-height="1000"
     inkscape:window-x="1680"
     inkscape:window-y="0"
     inkscape:window-maximized="1"
     inkscape:current-layer="svg36227" /><path
     fill-rule="evenodd"
     clip-rule="evenodd"
     d="m 9.596057,1.1136404 c 0.119849,0.00129 0.234407,-0.015118 0.343635,-0.045732 1.435786,-0.09411 2.87147,-0.090331 4.307059,0.011339 1.301669,0.1012913 2.561722,0.3838488 3.780155,0.8472567 2.025653,0.8339528 3.411651,2.280378 4.158093,4.3393513 0.426894,1.2396465 0.678977,2.5143678 0.756068,3.8241256 0.106696,1.644737 0.06856,3.285845 -0.114595,4.923288 -0.137046,1.150866 -0.434869,2.257663 -0.893477,3.320352 -0.850575,1.842482 -2.228965,3.113348 -4.135174,3.812674 -1.544681,0.521953 -3.133171,0.796687 -4.765296,0.824391 -1.835902,0.09524 -3.653401,-0.04195 -5.452562,-0.412233 C 4.268382,21.820802 2.225574,19.801854 1.451569,16.501646 1.12309,15.016104 0.974188,13.512418 1.004825,11.990554 0.968165,10.372387 1.139981,8.7770862 1.520296,7.2047271 2.331703,4.119083 4.290493,2.20702 7.396682,1.4685381 8.120473,1.2916562 8.853588,1.1733569 9.596035,1.1136404 Z"
     fill="url(#paint0_linear_3_29)"
     id="path36350-5"
     style="fill:url(#paint0_linear_3_29-3);stroke-width:0.916668" /><g
     inkscape:label="Camada 1"
     id="layer1"
     transform="matrix(0.31810507,0,0,0.31810507,3.7630879,3.6010907)"><path
       id="path3216"
       style="fill:#2d2d2d;fill-opacity:1;fill-rule:evenodd;stroke:#f5f5f5;stroke-width:2.332;stroke-linecap:round;stroke-linejoin:round;stroke-dasharray:none;stroke-opacity:1;paint-order:stroke markers fill"
       d="m 26.338761,1.6359283 c -0.373187,-0.00714 -0.68646,0.0082 -0.90338,0.027143 -0.727445,0.063425 -3.787735,0.7975712 -5.215947,3.6775372 -0.443711,0.8770281 -0.735588,1.9553909 -0.76101,3.278083 -0.107828,5.6104175 0.24398,4.7427715 0.02662,7.3171765 -0.0798,0.947463 -0.641311,2.332777 -1.331001,3.720043 -0.791082,1.584799 -1.744065,3.165631 -2.332197,4.09338 -1.11183,1.753627 -2.419339,3.577468 -3.331856,5.431036 -0.521628,1.051797 -0.91783,2.113029 -1.080062,3.177197 -0.108452,0.711335 -0.121078,1.63154 -0.09679,2.493514 -0.643116,0.558716 -0.97334,1.499563 -1.6341766,2.216969 -0.4262476,0.461652 -1.250064,0.611796 -2.1631968,0.788667 -0.7834201,0.149938 -1.6127486,0.454603 -1.9025277,0.921304 -0.032352,0.05207 -0.061244,0.106357 -0.088084,0.16183 -0.659804,1.270364 0.1475245,3.450433 -0.2463299,5.063335 -0.1667826,0.685721 -0.4512172,1.331138 -0.4562994,1.922501 -0.00172,0.304967 0.067303,0.628269 0.2796178,0.995561 0.2324908,0.404368 0.7431077,0.692281 1.4692737,0.943327 0.6772998,0.234199 1.5563701,0.440198 2.5790387,0.681119 l 0.3538752,0.08246 c 0.4599363,0.109534 0.918383,0.218685 1.3817,0.311367 0.301585,0.06233 0.476941,0.09285 0.626837,0.119837 0.652,0.116251 0.899704,0.161929 2.638443,0.840902 0.41954,0.163443 0.8841,0.338623 1.376069,0.488563 0.972135,0.301584 2.070735,0.520609 3.085013,0.336975 0.51389,-0.09264 0.999048,-0.288361 1.430353,-0.625298 0.446472,-0.348745 0.876504,-0.818875 1.181462,-1.295665 0.08152,-0.127156 0.156765,-0.258889 0.222772,-0.394333 0.05784,-0.114305 0.109229,-0.231262 0.152099,-0.350803 0.04087,-0.108958 0.07504,-0.221962 0.09986,-0.335439 0.409092,-0.203991 1.421422,-0.511846 3.831685,-0.535166 3.63247,-0.03539 6.051728,1.275692 6.051728,1.275692 l 0.0016,-0.02714 c 0.03031,0.171862 0.06752,0.332171 0.114717,0.485491 0.0691,0.22407 0.161611,0.429567 0.286274,0.628372 0.12638,0.197128 0.283101,0.38376 0.481905,0.567428 0.215647,0.198803 0.475222,0.382576 0.771766,0.539263 0.27631,0.144898 0.586105,0.266104 0.926426,0.355412 0.310004,0.08088 0.645187,0.134743 1.000683,0.151588 0.331933,0.01685 0.679399,0.0021 1.041654,-0.05018 0.611591,-0.08761 1.083217,-0.281564 1.489245,-0.532605 0.395945,-0.244297 0.719112,-0.53744 1.049336,-0.837316 l 0.01025,-0.0082 c 0.217357,-0.197139 0.43836,-0.397588 0.682656,-0.581256 0.163409,-0.122997 0.313075,-0.237595 0.4563,-0.348755 0.212274,-0.163443 0.33053,-0.256444 0.450153,-0.350803 0.358873,-0.281356 0.72936,-0.574314 1.100035,-0.850632 0.384137,-0.284741 0.791589,-0.574767 1.234722,-0.857802 0.335274,-0.215648 0.712697,-0.459966 1.074941,-0.697508 0.37405,-0.246002 0.764866,-0.503683 1.133837,-0.756401 0.659028,-0.447621 1.568718,-1.002135 1.91328,-1.722774 0.11508,-0.222932 0.177014,-0.462156 0.160294,-0.719016 C 46.90855,42.02807 45.932776,41.285361 45.070176,40.547391 44.650635,40.186854 44.227711,39.829364 44.007013,39.463745 43.828435,39.168917 43.61288,38.724059 43.552251,38.400582 43.38198,37.503551 43.385482,36.833523 42.960752,36.24097 42.570973,35.697171 42.23051,35.540662 41.62975,35.47279 41.5397,35.46262 41.455247,35.45029 41.373178,35.43694 41.763461,34.000093 41.850692,33.087488 41.779291,31.883849 41.616133,29.134156 39.815601,26.00572 37.77907,22.835637 36.577314,20.850534 35.312713,18.987744 34.521473,17.679097 34.088892,16.952004 33.841447,16.473379 33.615532,15.840077 33.355089,15.110192 33.264694,13.339036 33.234464,10.483322 33.342291,6.1078402 31.987459,4.0878834 30.348152,2.8276327 29.118647,1.8824499 27.458324,1.6573352 26.338761,1.6359283 Z m 8.923413,31.3741357 c 0.429084,0.06666 0.931688,-0.02482 1.64112,0.131515 1.667692,0.367467 3.72925,1.155961 3.340563,2.220044 -0.01558,0.04267 -0.128664,0.243401 -0.171049,0.289859 -0.470871,0.516139 -1.099754,1.257559 -1.933766,1.819051 -1.231651,0.829233 -3.035397,1.126796 -3.978664,0.354389 -0.91216,-0.74695 -0.658197,-3.030929 -0.255037,-4.039607 0.199151,-0.498255 0.579112,-0.758932 1.233424,-0.783053 0.02347,-8.66e-4 -0.557581,-0.09799 -0.478312,-0.08568 z"
       sodipodi:nodetypes="sccccccccccccccccccccccccccccccccccccccccccccccccccccccsscscccccsscscccssss" /><path
       inkscape:connector-curvature="0"
       id="path3218"
       style="fill:#fed71a;fill-opacity:1;fill-rule:evenodd;stroke-width:0.0229236"
       d="m 9.3159808,37.881612 c -0.8620623,0.414179 -2.8471192,0.405756 -3.3286683,1.230784 -0.5286776,0.907485 -0.18688,1.912673 -0.1818413,3.071076 0.00171,0.819934 -0.01179,1.732538 -0.3569228,2.704016 -0.282877,0.799774 -0.3788397,1.082619 0.026915,1.786419 0.4057659,0.705484 2.1668984,1.043905 4.5493306,1.613005 2.384105,0.567428 1.62475,0.148166 4.293438,1.190364 1.653377,0.646517 3.986976,1.439575 5.498934,0.259296 0.557306,-0.436091 1.471536,-1.422703 1.527123,-2.384103 0.03198,-0.548896 -0.01854,-1.134824 -0.149847,-1.490082 -0.43609,-1.185395 -1.308238,-1.692162 -2.13659,-2.931361 -1.517036,-2.301638 -3.128324,-4.483692 -4.416357,-6.399744 -0.90919,-1.355367 -1.639917,-1.683704 -2.257849,-1.57595 -1.899213,0.335047 -1.286328,2.070927 -3.0676988,2.92628 v 0 0 h 2.28e-5 z" /><path
       inkscape:connector-curvature="0"
       id="path3220"
       style="fill:#fed71a;fill-opacity:1;fill-rule:evenodd;stroke-width:0.0229236"
       d="m 33.473098,35.922049 c -0.836536,0.590996 -0.655359,2.362351 -0.70444,3.295417 -0.07451,1.427569 -0.0847,3.019392 -0.133777,3.652723 -0.08129,1.048217 -0.875511,3.415645 -0.778959,4.533311 0.09484,1.115985 0.176105,1.769639 0.870409,2.409754 0.695981,0.640114 1.920343,1.117655 3.43257,0.899194 1.51224,-0.218472 2.084585,-1.15832 3.065123,-1.893238 0.978777,-0.73495 1.986393,-1.607067 3.280163,-2.436859 1.293756,-0.831471 3.376703,-2.193007 3.676438,-2.560464 0.299736,-0.369163 0.502942,-0.687506 0.286195,-1.17185 -0.215073,-0.484334 -0.970315,-1.232826 -1.795037,-1.913595 -2.150636,-1.7781 -1.22216,-3.430932 -2.120161,-4.304694 -0.273962,-0.29518 -0.477551,-0.457856 -0.795519,-0.522603 -1.716422,-0.349555 -2.187963,0.324611 -3.1958,0.225559 -1.08671,-0.106776 -0.678155,0.132131 -2.908966,-0.165551 -0.767889,-0.08723 -1.648139,-0.391288 -2.178239,-0.04717 v 0 z" /><path
       inkscape:connector-curvature="0"
       id="path3222"
       style="fill:#fcc624;fill-rule:evenodd;stroke-width:0.0229236"
       d="m 20.670748,16.220341 c 0.01943,0.02054 0.01219,0.05692 0.0338,0.07843 0.254072,0.253052 0.547925,0.501104 0.804127,0.791335 0.29458,0.333719 0.564549,0.706991 0.815269,0.935715 0.461013,0.420573 0.898988,0.645331 1.538817,0.724301 1.235676,0.152517 2.159543,-0.190124 3.201606,-0.877381 0.490298,-0.323478 1.169264,-0.919899 1.56183,-1.214757 0.653699,-0.491977 0.840713,-0.453231 1.034464,-0.700865 0.200511,-0.257764 0.298211,-0.93169 0.239252,-1.250118 -0.04716,-0.245999 -0.133096,-0.409406 -0.399306,-0.577898 -0.296547,-0.187003 -0.80703,-0.384127 -1.69156,-0.684016 l -0.0017,-0.0017 c -0.452642,-0.165416 -0.918962,-0.332084 -1.320062,-0.485171 -0.897999,-0.348748 -1.483117,-0.612983 -2.299758,-0.547587 -0.375561,0.03007 -0.745236,0.110746 -1.063169,0.234173 v 0.0017 c -0.598203,0.251625 -1.177116,0.638579 -1.652272,0.971389 -0.417836,0.291488 -0.845799,0.67897 -1.09347,1.076622 -0.146791,0.235289 -0.379145,0.720756 -0.162393,0.99988 5.73e-4,7.2e-4 0.553601,0.284021 1.108714,0.612289 0.897443,0.53068 1.92258,0.804769 2.837862,0.75379 0.727988,-0.04054 1.540563,-0.27047 2.127306,-0.55288 0.590531,-0.284246 1.316633,-0.732521 2.024378,-1.278629 0.109531,-0.08088 0.318168,-0.285751 0.448606,-0.34756 0.115017,-0.05449 0.485768,-0.02289 0.468746,0.103029 -0.01332,0.09858 -0.448737,0.274567 -0.605681,0.391136 -0.774217,0.575022 -1.636168,1.138226 -2.196403,1.396441 -0.578816,0.266771 -1.552979,0.574778 -2.21139,0.613641 -0.601513,0.03548 -1.112292,-0.03123 -1.635181,-0.208049 -0.505536,-0.170943 -0.805219,-0.319372 -1.343485,-0.630255 -0.171673,-0.09915 -0.336717,-0.181919 -0.569053,-0.326987 z"
       sodipodi:nodetypes="cccssccccccccsccccccscccccscsccc" /><path
       id="path3224"
       d="m 27.996624,8.6382886 c -0.986225,-0.011665 -1.938608,0.7534699 -2.251706,1.7848614 -0.259314,0.86042 -0.247546,1.544076 -0.20546,1.917926 v 4.6e-5 c 0.289662,0.08756 0.591029,0.202104 0.93624,0.335122 -0.213861,-0.481606 -0.198655,-1.106343 0.08422,-1.62162 0.404139,-0.739228 1.203983,-0.976654 1.786608,-0.52872 0.580953,0.447898 0.725752,1.40941 0.319945,2.148639 -0.146518,0.267744 -0.345215,0.469785 -0.567494,0.59776 0.385596,0.133021 0.695453,0.245831 0.94636,0.348555 0.323668,-0.410887 0.752287,-1.066336 0.932882,-1.626635 0.293855,-0.911631 0.06739,-2.529175 -1.15849,-3.1522177 C 28.551572,8.7057223 28.272775,8.6415562 27.996632,8.6382899 Z M 21.548245,9.076971 C 21.39113,9.0766891 21.222963,9.106047 21.043524,9.168665 h -4.7e-5 c -0.777941,0.2710805 -1.074313,1.57948 -0.799818,2.764935 0.151561,0.65334 0.419259,1.274672 0.818354,1.660303 0.08252,-0.06397 0.166688,-0.126267 0.250907,-0.183523 0.06564,-0.04713 0.131293,-0.09263 0.195298,-0.136421 -0.503484,-0.245829 -0.835167,-1.008606 -0.747614,-1.747835 0.09092,-0.769524 0.602828,-1.224185 1.143359,-1.013698 0.540534,0.210487 0.904226,1.006965 0.813294,1.776489 -0.01176,0.101018 -0.03026,0.197017 -0.05552,0.286278 0.159943,-0.08252 0.304761,-0.14819 0.439487,-0.200403 0.03371,-0.01346 0.06565,-0.02698 0.09765,-0.03707 0.05051,-0.387302 0.0438,-0.809957 -0.04044,-1.232636 -0.23586,-1.1607407 -0.761779,-2.0265909 -1.610202,-2.0281089 z m 8.179066,7.209515 c -0.185234,0.09597 -0.508568,0.230679 -1.001967,0.612937 -0.358637,0.279536 -1.022067,0.860475 -1.530597,1.212399 -0.332049,0.229881 -0.695482,0.42864 -1.053009,0.584283 -0.514535,0.224059 -1.016834,0.358855 -1.395382,0.368791 -1.357007,0.07176 -2.002509,-0.264332 -2.621216,-0.909109 -0.25951,-0.27045 -0.456101,-0.56674 -0.783476,-0.928271 -0.145034,-0.160164 -0.345716,-0.372963 -0.550344,-0.519183 -0.0056,0.177706 -0.575275,3.970515 -1.342016,5.647218 -0.766744,1.676704 -0.729134,1.107008 -1.244411,2.859584 -0.715606,0.649336 -1.500101,2.393916 -2.016604,3.895623 -0.532822,1.76301 -0.936521,3.122425 -0.969866,5.097229 -0.266297,-0.530762 -0.457839,-1.10176 -0.533107,-1.72285 -0.265244,-2.181011 0.312147,-4.782427 2.035856,-6.65514 0.07297,-0.07929 0.07146,-0.111698 0.03908,-0.109648 -0.02518,0.0016 -0.06904,0.02404 -0.111036,0.06153 -2.152699,1.920686 -2.664542,5.463288 -2.443153,7.046139 0.158272,1.131631 0.453496,2.108041 1.054172,2.90185 1.38e-4,0.002 2.29e-4,0.0038 3.58e-4,0.0059 0.01015,0.01157 0.0205,0.02287 0.03076,0.0343 0.157695,0.203236 0.335553,0.394494 0.537227,0.572866 l 4.5e-5,4.6e-5 c 0.351632,0.388227 0.790635,0.811973 1.684751,1.491511 1.645441,1.250537 2.798595,1.910809 3.02551,2.724056 0.302048,1.082549 -0.374992,1.798447 -1.219204,2.238631 0.617261,0.617592 2.587718,1.88286 6.180909,1.724732 3.164426,-0.13925 5.148835,-1.336871 6.842782,-3.403213 0.01082,-0.475488 0.06286,-1.271162 0.08641,-2.130058 0.02248,-0.820253 0.02723,-1.641687 0.152763,-2.278748 0.02955,-0.149928 0.08612,-0.291925 0.136736,-0.416788 0.206668,-0.509788 0.762875,-0.857081 1.295138,-0.88211 0.279832,-0.01316 0.573562,-0.03341 0.854396,0.02485 0.05191,-0.405651 0.41034,1.091075 0.438719,0.711767 0.3626,-0.105145 0.90158,0.07638 1.667649,0.05083 1.187034,-0.03959 3.061602,-0.410477 3.779577,0.03978 -0.159957,-0.139906 -0.248518,-1.14513 -0.620658,-1.615492 -0.57779,-0.730288 -2.441867,-1.377127 -3.460971,-1.535916 0.313375,-0.831892 0.318933,-1.496601 0.284597,-2.389214 -0.09013,-2.342823 -1.254713,-4.147445 -2.91443,-5.402715 -0.04123,-0.03119 -0.0814,-0.05483 -0.09698,-0.05717 -0.01558,-0.0024 -0.0066,0.01665 0.05059,0.07079 1.922046,1.819405 2.564534,3.891541 2.40438,5.902199 -0.06251,0.784728 -0.138152,1.04427 -0.527857,1.763035 -0.182615,-2.97e-4 -0.635788,-0.0661 -0.820038,-0.06282 0.09313,-2.462687 -0.418145,-3.823533 -1.790846,-6.700098 -0.131349,-0.249202 -0.7596,-1.306125 -1.134629,-1.604427 -0.293073,-1.433844 -0.331685,-1.363496 -0.918017,-2.676111 -0.88923,-1.990655 -1.211481,-4.291577 -1.482601,-5.643724 z"
       style="fill:#f5f5f5;fill-rule:evenodd;stroke-width:0.0229236"
       inkscape:connector-curvature="0"
       sodipodi:nodetypes="scscccccccccssscccccccscccccsssccccsscscccccccscccsscccsccsssccscsccsccscccccss" /><path
       id="path3224-6"
       style="fill:#e4e4e4;fill-opacity:1;fill-rule:evenodd;stroke-width:0.0229236"
       d="m 25.451767,25.149608 a 9.1446197,11.313454 0 0 0 -9.144935,11.313252 9.1446197,11.313454 0 0 0 0.01128,0.387677 c 0.286993,0.269269 0.655074,0.581755 1.186072,0.98532 1.645439,1.250535 2.798691,1.910722 3.025608,2.723968 0.302047,1.082548 -0.375148,1.798295 -1.219359,2.238478 0.617259,0.617591 2.587595,1.882949 6.180782,1.724822 3.164423,-0.139249 5.14901,-1.336701 6.842953,-3.403041 0.01083,-0.475487 0.06299,-1.271524 0.08655,-2.130421 0.02248,-0.820252 0.02709,-1.641363 0.152612,-2.278424 0.02954,-0.149929 0.08612,-0.292002 0.136737,-0.416865 0.206668,-0.509788 0.762889,-0.857354 1.295152,-0.882384 0.180223,-0.0085 0.365936,-0.01773 0.55053,-0.0092 A 9.1446197,11.313454 0 0 0 25.451766,25.14961 Z" /><path
       inkscape:connector-curvature="0"
       id="path3234"
       style="fill:#2e3336;fill-opacity:1;fill-rule:evenodd;stroke-width:0.0229236"
       d="m 23.654518,12.990286 c -0.07243,-0.107819 -0.374054,-0.05223 -0.518949,0 -0.143222,0.05392 -0.254417,0.210611 -0.195424,0.316766 0.0303,0.05391 0.09603,0.08088 0.146557,0.07076 0.07752,-0.01685 0.160072,-0.102785 0.264521,-0.181965 0.111204,-0.08592 0.272938,-0.161735 0.303251,-0.205559 v 0 z" /><path
       inkscape:connector-curvature="0"
       id="path3236"
       style="fill:#2e3336;fill-opacity:1;fill-rule:evenodd;stroke-width:0.0229236"
       d="m 24.591246,12.993664 c -0.04382,-0.04549 0.490303,-0.155021 0.700869,0.01008 0.212265,0.165114 0.198804,0.294832 0.134793,0.363917 -0.06738,0.07076 -0.689095,-0.315051 -0.835662,-0.374044 v 2.2e-5 z" /><path
       inkscape:connector-curvature="0"
       id="path5233"
       style="fill:#fed71a;fill-opacity:1;fill-rule:evenodd;stroke-width:0.0248317"
       d="m 9.0486517,37.409387 c -0.9202228,0.455282 -3.0392052,0.446024 -3.5532427,1.352927 -0.5643458,0.997544 -0.1994882,2.102487 -0.1941095,3.37585 0.00182,0.901305 -0.012585,1.904475 -0.3810032,2.972363 -0.3019619,0.879144 -0.4043989,1.190058 0.028731,1.963704 0.4331416,0.775497 2.3130919,1.147503 4.8562597,1.773079 2.544952,0.62374 1.734366,0.162871 4.583102,1.308498 1.764925,0.710676 4.255964,1.582437 5.86993,0.285027 0.594905,-0.479369 1.570814,-1.563892 1.630152,-2.620702 0.03415,-0.603366 -0.0198,-1.247443 -0.159957,-1.637958 -0.46551,-1.303033 -1.396499,-1.860092 -2.280737,-3.222269 -1.619386,-2.530051 -3.339383,-4.928655 -4.714316,-7.034857 -0.97053,-1.489874 -1.750557,-1.850794 -2.41018,-1.732346 -2.027345,0.368297 -1.373111,2.276446 -3.2746655,3.216684 v 0 0 h 2.44e-5 z" /><path
       inkscape:connector-curvature="0"
       id="path5235"
       style="fill:#fed71a;fill-opacity:1;fill-rule:evenodd;stroke-width:0.0247424"
       d="m 33.170462,35.326648 c -0.902904,0.637884 -0.707353,2.549774 -0.760329,3.556867 -0.08043,1.540828 -0.09141,3.258942 -0.14439,3.942518 -0.08774,1.131382 -0.944971,3.686634 -0.840761,4.892973 0.102366,1.204522 0.190078,1.910036 0.939466,2.600935 0.751199,0.690899 2.072697,1.206327 3.7049,0.970533 1.632218,-0.235803 2.24997,-1.250217 3.308301,-2.04344 1.056432,-0.793258 2.143989,-1.734568 3.540402,-2.630193 1.3964,-0.897437 3.644601,-2.366991 3.968118,-2.763604 0.323516,-0.398451 0.542841,-0.742049 0.3089,-1.264821 -0.232137,-0.522759 -1.047297,-1.330635 -1.937449,-2.065415 -2.321263,-1.919168 -1.319123,-3.703132 -2.288371,-4.646216 -0.295697,-0.318599 -0.515438,-0.49418 -0.858633,-0.564064 -1.852596,-0.37729 -2.361549,0.350365 -3.449345,0.243453 -1.172927,-0.115247 -0.731957,0.142616 -3.139756,-0.178685 -0.828811,-0.09416 -1.778896,-0.422332 -2.351053,-0.05093 v 0 z" /><path
       inkscape:connector-curvature="0"
       id="path3232"
       style="fill:#2d2d2d;fill-opacity:1;fill-rule:evenodd;stroke-width:0.0229236"
       d="m 39.791525,35.999962 c 0.04239,-0.04646 0.155504,-0.247282 0.171084,-0.289953 0.388688,-1.064084 -1.672975,-1.852789 -3.340668,-2.220256 -0.75673,-0.166747 -1.364115,-0.227704 -1.739694,-0.213856 -0.654313,0.02412 -1.059196,0.359602 -1.258345,0.857858 -0.403161,1.008679 -0.656928,3.292335 0.255232,4.039286 0.943269,0.772408 2.746729,0.474908 3.978379,-0.354324 0.834013,-0.561495 1.463142,-1.302615 1.934012,-1.818755 z" /><rect
       style="fill:#2d2d2d;fill-opacity:1;stroke-width:0.515326"
       id="rect6992"
       width="10.362668"
       height="10.362668"
       x="20.249949"
       y="29.661808"
       rx="1.7590963"
       ry="1.7590963" /><path
       id="rect6994"
       style="fill:#e4e4e4;fill-opacity:1;stroke-width:0.259167"
       d="m 23.711571,32.192887 c -0.490117,0 -0.884944,0.394315 -0.884944,0.884432 v 3.442475 c 0,0.490117 0.394827,0.884944 0.884944,0.884944 h 3.441962 c 0.490118,0 0.884945,-0.394827 0.884945,-0.884944 v -3.442475 c 0,-0.490117 -0.394827,-0.884432 -0.884945,-0.884432 z m 0.334927,0.507 h 2.772109 c 0.39472,0 0.712872,0.318151 0.712872,0.712871 v 2.772109 c 0,0.394718 -0.318152,0.712359 -0.712872,0.712359 h -2.772109 c -0.39472,0 -0.71236,-0.317641 -0.71236,-0.712359 v -2.772109 c 0,-0.39472 0.31764,-0.712871 0.71236,-0.712871 z" /><circle
       style="fill:#e4e4e4;fill-opacity:1;stroke-width:0.515326"
       id="path7051"
       cx="22.12126"
       cy="31.296976"
       r="0.75321865" /><circle
       style="fill:#2d2d2d;fill-opacity:1;stroke-width:0.259327"
       id="circle7053"
       cx="22.12126"
       cy="31.296976"
       r="0.37904266" /><circle
       style="fill:#e4e4e4;fill-opacity:1;stroke-width:0.515326"
       id="circle7055"
       cx="28.743845"
       cy="31.296976"
       r="0.75321865" /><circle
       style="fill:#e4e4e4;fill-opacity:1;stroke-width:0.515326"
       id="circle7067"
       cx="22.12126"
       cy="38.300652"
       r="0.75321865" /><circle
       style="fill:#e4e4e4;fill-opacity:1;stroke-width:0.515326"
       id="circle7071"
       cx="28.743845"
       cy="38.300652"
       r="0.75321865" /><g
       id="g7354"
       transform="matrix(0.99101359,0,0,0.99101359,42.775763,3.9546935)"
       style="fill:#2d2d2d;fill-opacity:1"><g
         id="g7336"
         transform="translate(0.1106219)"
         style="fill:#2d2d2d;fill-opacity:1"><path
           id="rect7270"
           style="fill:#2d2d2d;fill-opacity:1;stroke-width:0.519999"
           d="m -20.258437,24.237223 c -0.15313,0 -0.275952,0.228965 -0.275952,0.513664 v 0.623735 c 0,0.04097 0.0024,0.0807 0.0072,0.118855 h 0.537951 c 0.0048,-0.03815 0.0072,-0.07789 0.0072,-0.118855 v -0.623735 c 0,-0.284699 -0.123338,-0.513664 -0.276469,-0.513664 z" /><path
           id="path7329"
           style="fill:#2d2d2d;fill-opacity:1;stroke-width:0.519999"
           d="m -14.96677,24.237223 c -0.15313,0 -0.275952,0.228965 -0.275952,0.513664 v 0.623735 c 0,0.04097 0.0024,0.0807 0.0072,0.118855 h 0.537951 c 0.0048,-0.03815 0.0072,-0.07789 0.0072,-0.118855 v -0.623735 c 0,-0.284699 -0.123338,-0.513664 -0.276469,-0.513664 z" /><path
           id="path7331"
           style="fill:#2d2d2d;fill-opacity:1;stroke-width:0.519999"
           d="m -17.612604,24.237223 c -0.15313,0 -0.275952,0.228965 -0.275952,0.513664 v 0.623735 c 0,0.04097 0.0024,0.0807 0.0072,0.118855 h 0.537951 c 0.0048,-0.03815 0.0072,-0.07789 0.0072,-0.118855 v -0.623735 c 0,-0.284699 -0.12334,-0.513664 -0.276469,-0.513664 z" /></g><g
         id="g7344"
         transform="rotate(180,-17.557069,31.168542)"
         style="fill:#2d2d2d;fill-opacity:1"><path
           id="path7338"
           style="fill:#2d2d2d;fill-opacity:1;stroke-width:0.519999"
           d="m -20.258437,24.237223 c -0.15313,0 -0.275952,0.228965 -0.275952,0.513664 v 0.623735 c 0,0.04097 0.0024,0.0807 0.0072,0.118855 h 0.537951 c 0.0048,-0.03815 0.0072,-0.07789 0.0072,-0.118855 v -0.623735 c 0,-0.284699 -0.123338,-0.513664 -0.276469,-0.513664 z" /><path
           id="path7340"
           style="fill:#2d2d2d;fill-opacity:1;stroke-width:0.519999"
           d="m -14.96677,24.237223 c -0.15313,0 -0.275952,0.228965 -0.275952,0.513664 v 0.623735 c 0,0.04097 0.0024,0.0807 0.0072,0.118855 h 0.537951 c 0.0048,-0.03815 0.0072,-0.07789 0.0072,-0.118855 v -0.623735 c 0,-0.284699 -0.123338,-0.513664 -0.276469,-0.513664 z" /><path
           id="path7342"
           style="fill:#2d2d2d;fill-opacity:1;stroke-width:0.519999"
           d="m -17.612604,24.237223 c -0.15313,0 -0.275952,0.228965 -0.275952,0.513664 v 0.623735 c 0,0.04097 0.0024,0.0807 0.0072,0.118855 h 0.537951 c 0.0048,-0.03815 0.0072,-0.07789 0.0072,-0.118855 v -0.623735 c 0,-0.284699 -0.12334,-0.513664 -0.276469,-0.513664 z" /></g></g><g
       id="g7372"
       transform="matrix(0,0.99101359,-0.99101359,0,56.319733,52.187624)"
       style="fill:#2d2d2d;fill-opacity:1"><g
         id="g7362"
         transform="translate(0.1106219)"
         style="fill:#2d2d2d;fill-opacity:1"><path
           id="path7356"
           style="fill:#2d2d2d;fill-opacity:1;stroke-width:0.519999"
           d="m -20.258437,24.237223 c -0.15313,0 -0.275952,0.228965 -0.275952,0.513664 v 0.623735 c 0,0.04097 0.0024,0.0807 0.0072,0.118855 h 0.537951 c 0.0048,-0.03815 0.0072,-0.07789 0.0072,-0.118855 v -0.623735 c 0,-0.284699 -0.123338,-0.513664 -0.276469,-0.513664 z" /><path
           id="path7358"
           style="fill:#2d2d2d;fill-opacity:1;stroke-width:0.519999"
           d="m -14.96677,24.237223 c -0.15313,0 -0.275952,0.228965 -0.275952,0.513664 v 0.623735 c 0,0.04097 0.0024,0.0807 0.0072,0.118855 h 0.537951 c 0.0048,-0.03815 0.0072,-0.07789 0.0072,-0.118855 v -0.623735 c 0,-0.284699 -0.123338,-0.513664 -0.276469,-0.513664 z" /><path
           id="path7360"
           style="fill:#2d2d2d;fill-opacity:1;stroke-width:0.519999"
           d="m -17.612604,24.237223 c -0.15313,0 -0.275952,0.228965 -0.275952,0.513664 v 0.623735 c 0,0.04097 0.0024,0.0807 0.0072,0.118855 h 0.537951 c 0.0048,-0.03815 0.0072,-0.07789 0.0072,-0.118855 v -0.623735 c 0,-0.284699 -0.12334,-0.513664 -0.276469,-0.513664 z" /></g><g
         id="g7370"
         transform="rotate(180,-17.557069,31.168542)"
         style="fill:#2d2d2d;fill-opacity:1"><path
           id="path7364"
           style="fill:#2d2d2d;fill-opacity:1;stroke-width:0.519999"
           d="m -20.258437,24.237223 c -0.15313,0 -0.275952,0.228965 -0.275952,0.513664 v 0.623735 c 0,0.04097 0.0024,0.0807 0.0072,0.118855 h 0.537951 c 0.0048,-0.03815 0.0072,-0.07789 0.0072,-0.118855 v -0.623735 c 0,-0.284699 -0.123338,-0.513664 -0.276469,-0.513664 z" /><path
           id="path7366"
           style="fill:#2d2d2d;fill-opacity:1;stroke-width:0.519999"
           d="m -14.96677,24.237223 c -0.15313,0 -0.275952,0.228965 -0.275952,0.513664 v 0.623735 c 0,0.04097 0.0024,0.0807 0.0072,0.118855 h 0.537951 c 0.0048,-0.03815 0.0072,-0.07789 0.0072,-0.118855 v -0.623735 c 0,-0.284699 -0.123338,-0.513664 -0.276469,-0.513664 z" /><path
           id="path7368"
           style="fill:#2d2d2d;fill-opacity:1;stroke-width:0.519999"
           d="m -17.612604,24.237223 c -0.15313,0 -0.275952,0.228965 -0.275952,0.513664 v 0.623735 c 0,0.04097 0.0024,0.0807 0.0072,0.118855 h 0.537951 c 0.0048,-0.03815 0.0072,-0.07789 0.0072,-0.118855 v -0.623735 c 0,-0.284699 -0.12334,-0.513664 -0.276469,-0.513664 z" /></g></g><circle
       style="fill:#2d2d2d;fill-opacity:1;stroke-width:0.259327"
       id="circle8009"
       cx="28.743845"
       cy="31.296976"
       r="0.37904266" /><circle
       style="fill:#2d2d2d;fill-opacity:1;stroke-width:0.259327"
       id="circle8011"
       cx="22.12126"
       cy="38.300652"
       r="0.37904266" /><circle
       style="fill:#2d2d2d;fill-opacity:1;stroke-width:0.259327"
       id="circle8013"
       cx="28.743845"
       cy="38.300652"
       r="0.37904266" /></g></svg>
