<?xml version="1.0" encoding="UTF-8" standalone="no"?>
<svg
   width="24"
   height="24"
   viewBox="0 0 6.349875 6.349875"
   version="1.1"
   id="svg23024"
   sodipodi:docname="icon_reset-screen.svg"
   inkscape:version="1.3 (0e150ed6c4, 2023-07-21)"
   xml:space="preserve"
   inkscape:export-filename="icon_reset-screen.svg"
   inkscape:export-xdpi="800"
   inkscape:export-ydpi="800"
   xmlns:inkscape="http://www.inkscape.org/namespaces/inkscape"
   xmlns:sodipodi="http://sodipodi.sourceforge.net/DTD/sodipodi-0.dtd"
   xmlns:xlink="http://www.w3.org/1999/xlink"
   xmlns="http://www.w3.org/2000/svg"
   xmlns:svg="http://www.w3.org/2000/svg"><defs
     id="defs23028"><radialGradient
       id="paint0_radial_29_149"
       cx="0"
       cy="0"
       r="1"
       gradientUnits="userSpaceOnUse"
       gradientTransform="matrix(0,8.4664974,-8.4665063,0,26.659556,4.6030627)"><stop
         stop-color="#80D2FF"
         id="stop17930" /><stop
         offset="1"
         stop-color="#2991C9"
         id="stop17932"
         style="stop-color:#002a43;stop-opacity:1;" /></radialGradient><radialGradient
       id="paint0_radial_29_23"
       cx="0"
       cy="0"
       r="1"
       gradientUnits="userSpaceOnUse"
       gradientTransform="matrix(0,22,-22,0,12,1)"><stop
         stop-color="#8FC8FF"
         id="stop6475" /><stop
         offset="1"
         stop-color="#0056A8"
         id="stop6477" /></radialGradient><pattern
       inkscape:collect="always"
       xlink:href="#Strips1_1white"
       id="pattern7218"
       patternTransform="matrix(7.9543128,0,0,6.1782725,-1.7620645,-2.9783727)" /><pattern
       inkscape:collect="always"
       patternUnits="userSpaceOnUse"
       width="2"
       height="1"
       patternTransform="translate(0,0) scale(10,10)"
       id="Strips1_1white"
       inkscape:stockid="Stripes 1:1 white"><rect
         style="fill:white;stroke:none"
         x="0"
         y="-0.5"
         width="1"
         height="2"
         id="rect3916" /></pattern><radialGradient
       id="paint0_radial_1_40"
       cx="0"
       cy="0"
       r="1"
       gradientUnits="userSpaceOnUse"
       gradientTransform="matrix(0,6.3498749,-6.3498749,0,-13.042008,2.1679009)"><stop
         stop-color="#C2E5FF"
         id="stop7711" /><stop
         offset="1"
         stop-color="#3276AA"
         id="stop7713" /></radialGradient></defs><sodipodi:namedview
     id="namedview23026"
     pagecolor="#ffffff"
     bordercolor="#000000"
     borderopacity="0.25"
     inkscape:showpageshadow="2"
     inkscape:pageopacity="0.0"
     inkscape:pagecheckerboard="0"
     inkscape:deskcolor="#d1d1d1"
     showgrid="false"
     inkscape:zoom="9.656427"
     inkscape:cx="-31.792298"
     inkscape:cy="19.727794"
     inkscape:window-width="3440"
     inkscape:window-height="1358"
     inkscape:window-x="2560"
     inkscape:window-y="0"
     inkscape:window-maximized="1"
     inkscape:current-layer="svg23024" /><g
     style="fill:none"
     id="g6490"
     transform="matrix(0.26457812,0,0,0.26457812,-3.2084885e-6,3.9934824e-6)"><path
       fill-rule="evenodd"
       clip-rule="evenodd"
       d="M 9.59604,1.11359 C 9.71588,1.11486 9.83043,1.0996 9.93969,1.06779 11.3755,0.973736 12.8111,0.977551 14.2467,1.07924 c 1.3017,0.10142 2.5618,0.38384 3.7802,0.84726 2.0256,0.83394 3.4117,2.28039 4.1581,4.33935 0.4269,1.23964 0.6789,2.51436 0.7561,3.82415 0.1067,1.6447 0.0685,3.2858 -0.1146,4.9233 -0.137,1.1509 -0.4349,2.2577 -0.8935,3.3203 -0.8506,1.8425 -2.229,3.1134 -4.1352,3.8127 -1.5447,0.5219 -3.1331,0.7967 -4.7653,0.8243 C 11.1966,23.0661 9.37913,22.9287 7.57997,22.5585 4.26839,21.8208 2.22559,19.8018 1.45158,16.5017 1.12311,15.0161 0.974199,13.5124 1.00483,11.9906 0.968176,10.3724 1.14,8.77709 1.52031,7.20471 2.33171,4.11908 4.2905,2.20701 7.39669,1.46852 8.12048,1.29157 8.8536,1.17326 9.59604,1.11359 Z"
       fill="url(#paint0_radial_29_23)"
       id="path6473"
       style="fill:url(#paint0_radial_29_23)" /></g><rect
     x="0.99216795"
     y="1.3955816"
     width="4.3655391"
     height="3.7420588"
     rx="0.23395236"
     ry="0.23395236"
     color="#000000"
     fill="#363842"
     overflow="visible"
     id="rect24051"
     style="fill:#cdc9c9;fill-opacity:0.501961;stroke-width:0.29465" /><rect
     x="0.99216795"
     y="1.2122346"
     width="4.3655391"
     height="3.7420588"
     rx="0.23395236"
     ry="0.23395236"
     color="#000000"
     fill="#363842"
     overflow="visible"
     id="rect24029"
     style="fill:#363842;fill-opacity:1;stroke-width:0.29465" /><path
     d="M 1.389237,1.6648613 H 5.0450392 V 4.5043954 H 1.389237 Z"
     fill="none"
     opacity="0.2"
     stroke="#ffffff"
     stroke-dasharray="0.852958, 0.852958"
     stroke-dashoffset="1"
     stroke-width="0.529"
     id="path25114"
     style="fill:#000000;fill-opacity:0;stroke:url(#pattern7218);stroke-width:0.13228906;stroke-dasharray:0.21330283,0.21330283;stroke-dashoffset:0.25007376;stroke-opacity:1" /><g
     id="g7749"
     transform="translate(-9.0176985,-1.4529035)"><path
       d="m 13.277007,4.5087676 c -0.02489,-0.2252487 -0.11975,-0.44286 -0.280572,-0.618101 -0.03707,-0.040379 -0.09985,-0.043048 -0.140203,-0.00596 -0.04039,0.037066 -0.04305,0.099854 -0.006,0.140212 0.263647,0.2872999 0.310393,0.7112586 0.115828,1.0492054 -0.19525,0.3377668 -0.585965,0.5094814 -0.966819,0.4247576 -0.0535,-0.011947 -0.106541,0.021758 -0.118451,0.075259 -0.01194,0.0535 0.02177,0.1065435 0.07527,0.1184555 0.464726,0.103388 0.943871,-0.1070838 1.182004,-0.5193305 l -3.6e-5,-1.917e-4 C 13.256698,4.966945 13.301861,4.734018 13.276971,4.5087681 Z"
       fill="#fafafa"
       id="path7699"
       style="stroke-width:0.119954" /><path
       d="m 12.772324,3.8098103 c 0.01793,-0.017932 0.04267,-0.029047 0.07015,-0.029047 0.05496,0 0.09933,0.044374 0.09933,0.099334 v 0.4502266 c 0,0.054963 -0.04437,0.099334 -0.09933,0.099334 -0.05495,0 -0.09919,-0.044239 -0.09919,-0.099197 V 3.8799607 c 0,-0.02748 0.01111,-0.052219 0.02904,-0.07015 z"
       fill="#fafafa"
       id="path7701"
       style="stroke-width:0.119954" /><path
       d="m 12.772324,3.950249 c -0.01794,-0.017932 -0.02904,-0.042671 -0.02904,-0.070152 0,-0.054962 0.04437,-0.099334 0.09933,-0.099334 h 0.450224 c 0.05496,0 0.09933,0.044373 0.09933,0.099334 0,0.054962 -0.04424,0.099198 -0.0992,0.099198 h -0.4505 c -0.02748,0 -0.05222,-0.011115 -0.07015,-0.029047 z"
       fill="#fafafa"
       id="path7703"
       style="stroke-width:0.119954" /><path
       d="m 11.108265,4.7469126 c 0.02489,0.2252499 0.119745,0.4428587 0.280563,0.6180996 0.03707,0.040378 0.09985,0.043053 0.140213,0.00596 0.04038,-0.037068 0.04305,-0.099849 0.006,-0.1402142 -0.263651,-0.2873003 -0.310395,-0.7112663 -0.115834,-1.0491988 0.195256,-0.3377753 0.585968,-0.5094873 0.966822,-0.4247564 0.0535,0.011939 0.106543,-0.021767 0.118455,-0.075269 0.01193,-0.053496 -0.02177,-0.1065373 -0.07527,-0.1184476 -0.464727,-0.1033873 -0.94387,0.1070759 -1.182008,0.5193259 l 3.8e-5,1.92e-4 C 11.12857,4.2887297 11.083417,4.5216627 11.108307,4.7469126 Z"
       fill="#fafafa"
       id="path7705"
       style="stroke-width:0.119954" /><path
       d="m 11.612941,5.4458733 c -0.01793,0.017922 -0.04267,0.029039 -0.07015,0.029039 -0.05496,0 -0.09933,-0.044372 -0.09933,-0.099334 v -0.450222 c 1e-6,-0.054963 0.04437,-0.099334 0.09933,-0.099334 0.05496,0 0.0992,0.044239 0.0992,0.09919 v 0.4504998 c 0,0.027484 -0.01112,0.052228 -0.02905,0.070161 z"
       fill="#fafafa"
       id="path7707"
       style="stroke-width:0.119954" /><path
       d="m 11.612941,5.305431 c 0.01793,0.017936 0.02905,0.042668 0.02905,0.07015 0,0.054963 -0.04437,0.099334 -0.09933,0.099334 h -0.450227 c -0.05496,0 -0.09933,-0.044372 -0.09933,-0.099334 0,-0.054963 0.04424,-0.099202 0.0992,-0.099202 h 0.450499 c 0.02748,0 0.05222,0.011121 0.07015,0.029053 z"
       fill="#fafafa"
       id="path7709"
       style="stroke-width:0.119954" /></g></svg>
