<svg width="24" height="24" viewBox="0 0 24 24" fill="none" xmlns="http://www.w3.org/2000/svg">
<path fill-rule="evenodd" clip-rule="evenodd" d="M9.3775 0.123915C9.50824 0.125307 9.6332 0.108652 9.75239 0.073954C11.3187 -0.0286516 12.8849 -0.0244899 14.451 0.0864444C15.871 0.197086 17.2456 0.505183 18.5748 1.01073C20.7846 1.92048 22.2966 3.49843 23.1109 5.74457C23.5766 7.0969 23.8516 8.4875 23.9357 9.91634C24.0521 11.7106 24.0105 13.5009 23.8107 15.2872C23.6612 16.5427 23.3363 17.7501 22.836 18.9094C21.9081 20.9194 20.4044 22.3058 18.3249 23.0687C16.6398 23.6381 14.9069 23.9378 13.1264 23.968C11.1236 24.0721 9.14087 23.9222 7.17815 23.5183C3.56552 22.7136 1.337 20.5111 0.49263 16.9109C0.134306 15.2903 -0.0281463 13.6499 0.00527377 11.9897C-0.0347169 10.2244 0.152728 8.4841 0.567607 6.76878C1.45278 3.40263 3.58964 1.31674 6.97821 0.511116C7.7678 0.318078 8.56756 0.18901 9.3775 0.123915Z" fill="url(#paint0_linear_14_150)"/>
<path d="M13.4863 10.5678C13.4506 10.4969 13.3966 10.4369 13.3299 10.394C13.2632 10.3511 13.1861 10.3268 13.1068 10.3238H11.8787C11.7055 10.305 11.5443 10.2265 11.4227 10.1019L11.0898 9.72468C10.9816 9.59202 10.9214 9.42663 10.919 9.25541L11.0455 8.04617C11.0456 7.96912 11.0275 7.89313 10.9928 7.82434C10.9582 7.75554 10.9078 7.69586 10.8458 7.65012L10.1402 7.3173C10.067 7.28582 9.98591 7.27799 9.90813 7.29489C9.83034 7.3118 9.75979 7.35261 9.70635 7.4116L8.8443 8.2736C8.71134 8.38003 8.54643 8.43865 8.37611 8.44001L7.89682 8.40561C7.7244 8.38834 7.56327 8.3119 7.44083 8.18928L6.66421 7.23632C6.6109 7.17809 6.54351 7.13454 6.46851 7.10987C6.39352 7.0852 6.31343 7.08022 6.23596 7.09542C5.98335 7.14537 5.73931 7.23169 5.51148 7.35169C5.44087 7.38798 5.38111 7.44229 5.33824 7.50912C5.29538 7.57594 5.27094 7.6529 5.2674 7.73221L5.20305 8.95254C5.18448 9.12542 5.10598 9.28634 4.98116 9.4074L4.62946 9.74021C4.49733 9.84347 4.33452 9.89969 4.16682 9.89997L2.95529 9.7735C2.87823 9.77341 2.80224 9.79143 2.73344 9.82612C2.66464 9.86081 2.60495 9.91119 2.55921 9.97319L2.21528 10.6777C2.18363 10.7507 2.1757 10.8319 2.19262 10.9097C2.20954 10.9875 2.25045 11.0581 2.30958 11.1114L3.1683 11.9745C3.2749 12.1074 3.33353 12.2724 3.33472 12.4427L3.30033 12.922C3.28326 13.0941 3.20676 13.2549 3.08398 13.3768L2.14982 14.2055C2.09132 14.2586 2.04759 14.326 2.0229 14.4011C1.9982 14.4761 1.99339 14.5563 2.00892 14.6337C2.06002 14.8861 2.14747 15.1298 2.26853 15.3571C2.30418 15.428 2.35818 15.488 2.42492 15.5309C2.49165 15.5738 2.56868 15.5981 2.64797 15.6011H3.87725C4.05011 15.6198 4.21101 15.6983 4.33213 15.823L4.66496 16.1736C4.77156 16.3065 4.8302 16.4714 4.83138 16.6417L4.70047 17.8532C4.70003 17.9305 4.71789 18.0067 4.7526 18.0758C4.78731 18.1448 4.83788 18.2046 4.90017 18.2504L5.60579 18.5832C5.67884 18.615 5.76005 18.623 5.83792 18.6061C5.91578 18.5892 5.98634 18.5482 6.03959 18.4889L6.90164 17.6269C7.0346 17.5204 7.19951 17.4618 7.36983 17.4605L7.84912 17.4949C8.02237 17.5133 8.1837 17.5918 8.3051 17.7167L9.08173 18.6686C9.13492 18.727 9.20226 18.7708 9.27726 18.7957C9.35227 18.8205 9.43241 18.8257 9.50998 18.8106C9.76251 18.7598 10.0065 18.6731 10.2345 18.5532C10.3053 18.5176 10.3654 18.4636 10.4083 18.3969C10.4512 18.3301 10.4755 18.2531 10.4785 18.1738V16.9446C10.4972 16.7718 10.5757 16.6109 10.7004 16.4898L11.051 16.1569C11.1839 16.0504 11.3489 15.9917 11.5192 15.9905L12.7318 16.117C12.809 16.1175 12.8851 16.0997 12.954 16.065C13.0229 16.0303 13.0825 15.9796 13.1279 15.9173L13.4608 15.2117C13.4926 15.1387 13.5006 15.0575 13.4837 14.9796C13.4667 14.9018 13.4257 14.8312 13.3665 14.778L12.5665 13.9237C12.4601 13.7908 12.4015 13.6259 12.4001 13.4556L12.4345 12.9763C12.4533 12.8032 12.5317 12.642 12.6564 12.5204L13.6094 11.7438C13.6679 11.6907 13.7117 11.6233 13.7364 11.5482C13.761 11.4732 13.7659 11.393 13.7503 11.3156C13.7264 11.1891 13.6922 11.0648 13.6483 10.9439C13.6043 10.8144 13.5502 10.6887 13.4863 10.5678ZM8.78994 15.62C8.26665 15.8053 7.70017 15.8313 7.1621 15.6947C6.62404 15.5581 6.13856 15.2651 5.76706 14.8526C5.39556 14.4401 5.15472 13.9267 5.07499 13.3774C4.99526 12.828 5.08022 12.2674 5.31913 11.7663C5.55804 11.2653 5.94017 10.8463 6.41721 10.5624C6.89424 10.2785 7.44475 10.1424 7.99913 10.1713C8.55351 10.2003 9.08686 10.3929 9.53174 10.7249C9.97663 11.057 10.3131 11.5134 10.4985 12.0367C10.7445 12.7385 10.7029 13.5091 10.3828 14.1804C10.0627 14.8517 9.49012 15.3692 8.78994 15.62Z" fill="#002A44"/>
<path d="M7.87019 17.7001C10.4927 17.7001 12.6187 15.5743 12.6187 12.9519C12.6187 10.3296 10.4927 8.20372 7.87019 8.20372C5.24768 8.20372 3.1217 10.3296 3.1217 12.9519C3.1217 15.5743 5.24768 17.7001 7.87019 17.7001Z" fill="#002A44"/>
<path d="M9.15939 10.9195C9.39184 10.6699 9.69624 10.499 10.0303 10.4303C10.1413 10.4303 10.2522 10.4147 10.3632 10.4092C10.4911 10.419 10.6162 10.4517 10.7326 10.5057C10.9172 10.6137 11.0771 10.7592 11.2019 10.9328C11.3893 11.1799 11.5158 11.4676 11.5714 11.7726C11.5825 11.8769 11.5858 11.9818 11.5813 12.0866C11.5186 12.0003 11.4665 11.9068 11.426 11.8081C11.3536 11.6867 11.2627 11.5774 11.1564 11.4842C11.0005 11.3379 10.7955 11.2552 10.5817 11.2523C10.5 11.2499 10.4185 11.26 10.3399 11.2823C10.1177 11.341 9.91738 11.4628 9.76294 11.6329C9.7119 11.6928 9.65199 11.7493 9.61094 11.8104C9.56152 11.8856 9.51597 11.9634 9.47447 12.0433C9.35255 12.2798 9.28293 12.5397 9.27033 12.8055C9.28143 12.9109 9.28143 13.0118 9.29141 13.1183C9.32137 13.1893 9.30584 13.2858 9.38239 13.3258C9.43555 13.3294 9.48844 13.3157 9.53328 13.287C9.65193 13.1981 9.76056 13.0965 9.85724 12.9841C9.97928 12.882 10.0647 12.75 10.1812 12.6402C10.2467 12.5892 10.2866 12.5292 10.3532 12.4727C10.4709 12.3546 10.6011 12.2497 10.7415 12.1598C10.8494 12.0934 10.9743 12.0598 11.1009 12.0633C11.177 12.0733 11.2502 12.0987 11.3161 12.1377C11.3821 12.1768 11.4395 12.2289 11.4848 12.2907C11.6134 12.4738 11.7056 12.6798 11.7566 12.8976C11.7822 13.0085 11.7722 13.1194 11.7877 13.2415C11.7763 13.6269 11.7083 14.0086 11.5858 14.3742C11.542 14.5024 11.4824 14.6246 11.4083 14.738C11.3827 14.7691 11.3672 14.809 11.3306 14.819C11.339 14.7443 11.352 14.6702 11.3694 14.5972C11.3828 14.5154 11.3861 14.4323 11.3794 14.3498C11.3894 14.222 11.3894 14.0937 11.3794 13.9659C11.3484 13.8394 11.3439 13.703 11.3018 13.5776C11.2807 13.4855 11.2463 13.3969 11.1997 13.3147C11.1771 13.2604 11.1426 13.2118 11.0987 13.1727C11.0471 13.1294 10.9838 13.1023 10.9168 13.095C10.8666 13.1053 10.8175 13.1206 10.7703 13.1405C10.6596 13.2159 10.5609 13.3076 10.4774 13.4123C10.4016 13.4912 10.3184 13.5625 10.2289 13.6253C10.0973 13.7243 9.93362 13.7709 9.76959 13.7562C9.54627 13.7303 9.33165 13.6545 9.14164 13.5344C9.05157 13.4787 8.96851 13.4124 8.89423 13.3369C8.71164 13.1458 8.595 12.9012 8.56139 12.6391C8.53802 12.5603 8.53271 12.4772 8.54586 12.3961C8.55149 12.0755 8.62962 11.7603 8.77441 11.4742C8.84703 11.3407 8.9317 11.214 9.02736 11.0959C9.05289 11.0253 9.09885 10.9639 9.15939 10.9195Z" fill="white"/>
<path d="M6.58098 15.2639C6.34921 15.514 6.04511 15.6854 5.71116 15.7542C5.60021 15.7542 5.48927 15.7698 5.37832 15.7742C5.25034 15.7655 5.12508 15.7331 5.00887 15.6788C4.82474 15.5691 4.66593 15.4216 4.5429 15.2461C4.3566 14.9989 4.23014 14.7118 4.17345 14.4074C4.16236 14.3032 4.15903 14.1982 4.16346 14.0935C4.22675 14.1794 4.27894 14.273 4.31879 14.3719C4.39083 14.4933 4.48143 14.6026 4.58728 14.6959C4.7415 14.8434 4.94526 14.9281 5.15865 14.9333C5.24041 14.9359 5.32206 14.9254 5.40051 14.9022C5.62274 14.8444 5.82325 14.7229 5.97743 14.5528C6.02847 14.4917 6.08838 14.4418 6.12943 14.3753C6.17908 14.3001 6.22464 14.2224 6.26589 14.1423C6.3909 13.9045 6.46175 13.6419 6.47336 13.3735C6.46337 13.2625 6.46337 13.166 6.45339 13.0606C6.42232 12.9896 6.43786 12.8931 6.3613 12.8532C6.3082 12.8501 6.25546 12.8637 6.21042 12.892C6.09146 12.981 5.9828 13.0829 5.88645 13.196C5.76552 13.2969 5.67899 13.429 5.56249 13.5388C5.49703 13.5898 5.45709 13.6553 5.39053 13.7063C5.2726 13.8241 5.14243 13.929 5.00221 14.0191C4.89431 14.0855 4.7694 14.1191 4.64275 14.1157C4.56707 14.1066 4.49402 14.0823 4.42803 14.0441C4.36204 14.006 4.30449 13.9548 4.25888 13.8938C4.13033 13.7107 4.03806 13.5047 3.98706 13.2869C3.96154 13.176 3.97153 13.0651 3.95599 12.943C3.96777 12.5566 4.03579 12.1739 4.15792 11.807C4.2017 11.6788 4.26133 11.5566 4.33543 11.4431C4.36095 11.4121 4.37426 11.3721 4.41198 11.3622C4.40347 11.4368 4.3905 11.5109 4.37315 11.584C4.35892 11.6661 4.35519 11.7496 4.36206 11.8325C4.35207 11.9603 4.35207 12.0886 4.36206 12.2164C4.39201 12.3429 4.39756 12.4793 4.4375 12.6058C4.45888 12.6973 4.49286 12.7854 4.53846 12.8676C4.56183 12.9217 4.59665 12.9702 4.64053 13.0096C4.69218 13.0525 4.75561 13.0788 4.82248 13.085C4.87282 13.0753 4.92193 13.06 4.96893 13.0396C5.07962 12.9641 5.17835 12.8725 5.26183 12.7678C5.3375 12.6896 5.42033 12.6186 5.50924 12.5559C5.64102 12.4563 5.80512 12.4092 5.96966 12.4238C6.19309 12.4493 6.40781 12.5252 6.59762 12.6457C6.68766 12.701 6.77072 12.767 6.84503 12.8421C7.02917 13.0337 7.14766 13.2788 7.18341 13.5421C7.2062 13.621 7.2115 13.7039 7.19895 13.7851C7.19107 14.1075 7.10987 14.4239 6.96152 14.7103C6.8924 14.8443 6.81106 14.9717 6.71855 15.0908C6.68841 15.1594 6.64101 15.219 6.58098 15.2639Z" fill="white"/>
<path d="M7.27331 11.2035C7.38494 11.1625 7.50402 11.1458 7.62262 11.1544C7.74122 11.163 7.85663 11.1968 7.96117 11.2534C8.03697 11.3088 8.09794 11.3819 8.13869 11.4664C8.16101 11.5198 8.17071 11.5776 8.16706 11.6353C8.1634 11.693 8.14648 11.7491 8.11761 11.7993C8.057 11.9132 7.96791 12.0094 7.85902 12.0786C7.75014 12.1478 7.62517 12.1877 7.49631 12.1942C7.37748 12.2087 7.25692 12.1931 7.14572 12.1487C7.07645 12.1223 7.01382 12.0809 6.96226 12.0276C6.91069 11.9744 6.87144 11.9104 6.84728 11.8403C6.83292 11.7874 6.83005 11.732 6.83885 11.6778C6.84765 11.6237 6.86792 11.572 6.89831 11.5264C6.9796 11.3765 7.11302 11.2616 7.27331 11.2035Z" fill="white"/>
<path d="M7.28881 12.5437C7.33592 12.4667 7.4022 12.4034 7.48117 12.3598C7.56014 12.3163 7.64907 12.294 7.73925 12.2951C7.83222 12.3008 7.92313 12.3249 8.00663 12.3661C8.06716 12.3895 8.12126 12.427 8.16447 12.4754C8.20768 12.5238 8.23876 12.5818 8.25515 12.6446C8.25498 12.7937 8.27022 12.9424 8.30064 13.0884C8.39746 13.3848 8.57402 13.6489 8.81099 13.8516C8.92194 13.9836 9.07393 14.0735 9.18488 14.2055C9.01367 14.2005 8.84308 14.1827 8.67453 14.1523C8.46798 14.1191 8.26914 14.0488 8.08762 13.9448C7.98303 13.8923 7.886 13.8258 7.79916 13.7473C7.65803 13.6354 7.53687 13.5004 7.44081 13.348C7.32493 13.1734 7.25369 12.973 7.23334 12.7644C7.23901 12.6882 7.25778 12.6135 7.28881 12.5437Z" fill="white"/>
<path d="M17.5802 6.19682C17.5598 6.16844 17.5321 6.14606 17.5001 6.13201C17.4681 6.11796 17.4329 6.11275 17.3982 6.11694L16.869 6.20237C16.7932 6.20605 16.7185 6.18374 16.6571 6.13913L16.4818 5.99713C16.4238 5.94743 16.3846 5.87927 16.3709 5.80409L16.3332 5.2616C16.3273 5.22767 16.3136 5.19558 16.2932 5.16785C16.2728 5.14012 16.2462 5.11753 16.2156 5.10185L15.8827 5.00533C15.8491 4.99647 15.8136 4.9987 15.7814 5.0117C15.7492 5.02469 15.7221 5.04776 15.7041 5.07744L15.4001 5.51454C15.3516 5.57073 15.2848 5.60804 15.2115 5.61993L15.0029 5.63879C14.9267 5.6433 14.8513 5.62092 14.7899 5.57556L14.3849 5.21723C14.3579 5.19556 14.3257 5.18121 14.2915 5.17558C14.2573 5.16994 14.2223 5.17321 14.1897 5.18505C14.0848 5.22458 13.9865 5.27955 13.8979 5.34813C13.8702 5.36923 13.8487 5.39729 13.8354 5.42946C13.8222 5.46162 13.8177 5.49672 13.8224 5.53118L13.8912 6.07035C13.8966 6.14617 13.8763 6.2216 13.8335 6.28446L13.7082 6.45309C13.6588 6.50821 13.5924 6.5453 13.5196 6.55848L12.9881 6.58843C12.9553 6.59314 12.924 6.60568 12.897 6.62498C12.8699 6.64429 12.8479 6.6698 12.8328 6.69937L12.7396 7.03219C12.7321 7.06675 12.7353 7.10278 12.7488 7.13548C12.7623 7.16818 12.7854 7.196 12.8151 7.21524L13.2588 7.53253C13.3169 7.58223 13.3561 7.65039 13.3698 7.72556L13.3931 7.93746C13.3985 8.01328 13.3781 8.0887 13.3354 8.15157L13.0026 8.57979C12.9815 8.60743 12.968 8.64005 12.9633 8.67446C12.9587 8.70888 12.963 8.74392 12.9759 8.77616C13.017 8.88333 13.0731 8.98417 13.1423 9.07569C13.1632 9.10382 13.1911 9.12599 13.2232 9.14C13.2554 9.15402 13.2906 9.15938 13.3254 9.15557L13.8535 9.07015C13.9297 9.0662 14.0049 9.08852 14.0665 9.13338L14.2352 9.26429C14.2927 9.31444 14.3317 9.3824 14.3461 9.45732L14.3861 9.99649C14.3895 10.0291 14.4002 10.0605 14.4172 10.0886C14.4343 10.1166 14.4574 10.1404 14.4848 10.1585L14.8176 10.2561C14.8512 10.2651 14.8869 10.2631 14.9192 10.2503C14.9516 10.2375 14.979 10.2147 14.9974 10.1851L15.3003 9.74688C15.3483 9.68907 15.415 9.64983 15.4889 9.63594L15.6985 9.61708C15.7743 9.61339 15.8491 9.6357 15.9105 9.68031L16.3187 10.0431C16.3461 10.0647 16.3785 10.0789 16.4129 10.0843C16.4472 10.0897 16.4825 10.0862 16.5151 10.0741C16.6193 10.0375 16.7175 9.98591 16.8069 9.92105C16.8344 9.89991 16.8559 9.8718 16.8689 9.83962C16.882 9.80744 16.8862 9.77236 16.8812 9.738L16.7858 9.19994C16.7804 9.12412 16.8008 9.0487 16.8435 8.98583L16.9689 8.81166C17.0165 8.75341 17.0834 8.71407 17.1575 8.70072L17.6889 8.67076C17.7217 8.6658 17.7529 8.65316 17.7799 8.63388C17.8068 8.61461 17.8289 8.58923 17.8442 8.55983L17.9341 8.22701C17.9416 8.19245 17.9384 8.15642 17.9249 8.12372C17.9114 8.09102 17.8883 8.0632 17.8587 8.04396L17.4482 7.72667C17.3911 7.67619 17.3521 7.60839 17.3372 7.53364L17.315 7.32174C17.3083 7.24579 17.3287 7.16991 17.3727 7.10763L17.7233 6.70381C17.7444 6.67602 17.7581 6.64327 17.7629 6.60869C17.7678 6.57412 17.7637 6.53888 17.751 6.50634C17.7302 6.45294 17.7058 6.40105 17.6778 6.35102C17.6493 6.29718 17.6167 6.24562 17.5802 6.19682ZM15.9559 8.73622C15.7419 8.86315 15.4949 8.92339 15.2464 8.90924C14.9979 8.89509 14.7593 8.80719 14.5611 8.65677C14.3629 8.50635 14.214 8.30025 14.1334 8.06479C14.0529 7.82934 14.0444 7.57522 14.109 7.33491C14.1737 7.0946 14.3085 6.87902 14.4962 6.7157C14.684 6.55238 14.9162 6.44875 15.1631 6.41804C15.4101 6.38733 15.6606 6.43095 15.8826 6.54331C16.1047 6.65567 16.2882 6.83167 16.4097 7.04883C16.5717 7.33312 16.615 7.66988 16.53 7.98587C16.445 8.30186 16.2387 8.57153 15.9559 8.73622Z" fill="#002A44"/>
<path d="M21.9725 12.7445C21.9627 12.6976 21.9409 12.6542 21.9092 12.6184C21.8775 12.5826 21.837 12.5557 21.7917 12.5403L21.0861 12.3429C20.9891 12.3042 20.9083 12.2333 20.8575 12.1421L20.7211 11.8658C20.6802 11.7702 20.672 11.6637 20.6978 11.563L20.9574 10.8696C20.9693 10.8241 20.9707 10.7764 20.9615 10.7303C20.9523 10.6842 20.9327 10.6407 20.9041 10.6033L20.5502 10.2938C20.5136 10.2634 20.4681 10.2456 20.4206 10.243C20.373 10.2404 20.3259 10.2531 20.2862 10.2794L19.6571 10.6488C19.5644 10.6908 19.4601 10.699 19.362 10.6721L19.0913 10.5745C18.9942 10.5358 18.9135 10.4649 18.8627 10.3737L18.5643 9.68919C18.5434 9.64698 18.512 9.61085 18.4732 9.58424C18.4343 9.55762 18.3893 9.54143 18.3424 9.5372C18.1895 9.52624 18.0358 9.5382 17.8864 9.5727C17.8398 9.58283 17.7969 9.60525 17.7619 9.63765C17.727 9.67004 17.7014 9.71121 17.6878 9.75686L17.4659 10.4647C17.4273 10.5632 17.356 10.6454 17.264 10.6976L17.011 10.8341C16.9185 10.8751 16.8148 10.8834 16.717 10.8574L16.038 10.5867C15.9937 10.5743 15.9471 10.5728 15.9021 10.5823C15.8571 10.5917 15.8151 10.6119 15.7795 10.641L15.4733 11.0005C15.4439 11.0389 15.4269 11.0854 15.4245 11.1338C15.4221 11.1821 15.4345 11.23 15.46 11.2712L15.8228 11.918C15.8643 12.0131 15.8725 12.1194 15.8461 12.2197L15.7529 12.496C15.7166 12.5941 15.6477 12.6767 15.5576 12.73L14.892 13.0628C14.8498 13.0853 14.8141 13.1182 14.7882 13.1584C14.7624 13.1986 14.7473 13.2448 14.7444 13.2925C14.7343 13.4495 14.7467 13.6071 14.781 13.7607C14.7902 13.8076 14.8117 13.8512 14.8432 13.887C14.8748 13.9229 14.9154 13.9497 14.9607 13.9648L15.6675 14.1634C15.7645 14.202 15.8452 14.2729 15.896 14.3642L16.0303 14.6238C16.0711 14.719 16.0793 14.8251 16.0536 14.9255L15.794 15.6189C15.7819 15.6645 15.7805 15.7122 15.79 15.7584C15.7994 15.8046 15.8194 15.8479 15.8483 15.8851L16.2022 16.1958C16.239 16.226 16.2845 16.2437 16.3321 16.246C16.3796 16.2484 16.4267 16.2355 16.4663 16.2091L17.0953 15.8408C17.1876 15.7988 17.2916 15.7906 17.3894 15.8175L17.6601 15.914C17.7568 15.953 17.8375 16.0238 17.8886 16.1148L18.1882 16.8004C18.209 16.8427 18.2403 16.8789 18.2792 16.9055C18.3181 16.9321 18.3631 16.9483 18.4101 16.9524C18.5633 16.9634 18.7174 16.9514 18.8672 16.9169C18.9137 16.9068 18.9567 16.8843 18.9916 16.8519C19.0265 16.8195 19.0521 16.7784 19.0657 16.7327L19.2566 16.0094C19.2926 15.9114 19.3617 15.829 19.4518 15.7764L19.7037 15.64C19.7963 15.598 19.9007 15.5898 19.9988 15.6167L20.6767 15.8851C20.7211 15.8977 20.7678 15.8994 20.813 15.8901C20.8581 15.8808 20.9004 15.8609 20.9363 15.8319L21.2381 15.4702C21.2676 15.4318 21.2846 15.3852 21.2868 15.3368C21.289 15.2884 21.2763 15.2405 21.2503 15.1995L20.9174 14.5683C20.8771 14.4725 20.8689 14.3662 20.8941 14.2654L20.9884 13.9892C21.0247 13.8914 21.0932 13.8088 21.1826 13.7551L21.8483 13.4522C21.8903 13.4296 21.9259 13.3967 21.9517 13.3565C21.9775 13.3163 21.9927 13.2702 21.9958 13.2226C22.0014 13.1443 22.0014 13.0657 21.9958 12.9874C21.9939 12.906 21.9861 12.8248 21.9725 12.7445ZM18.4922 14.9632C18.153 14.9969 17.8115 14.9288 17.5113 14.7674C17.211 14.6061 16.9657 14.3589 16.8067 14.0575C16.6476 13.7561 16.582 13.4141 16.6183 13.0752C16.6546 12.7363 16.7911 12.416 17.0103 12.155C17.2296 11.8941 17.5216 11.7044 17.8492 11.6103C18.1768 11.5162 18.525 11.5218 18.8493 11.6265C19.1737 11.7312 19.4594 11.9302 19.6701 12.1981C19.8808 12.466 20.0068 12.7907 20.0321 13.1305C20.0703 13.578 19.9297 14.0223 19.6411 14.3664C19.3525 14.7105 18.9394 14.9262 18.4922 14.9666V14.9632Z" fill="#002A44"/>
<defs>
<linearGradient id="paint0_linear_14_150" x1="12" y1="0" x2="12" y2="12" gradientUnits="userSpaceOnUse">
<stop stop-color="#00A4DC"/>
<stop offset="1" stop-color="#006699"/>
</linearGradient>
</defs>
</svg>
