<?xml version="1.0" encoding="UTF-8" standalone="no"?>
<svg
   viewBox="0 0 24 24"
   version="1.1"
   id="svg11414"
   sodipodi:docname="restaurar.svg"
   width="24"
   height="24"
   xml:space="preserve"
   inkscape:version="1.2.2 (b0a8486541, 2022-12-01)"
   inkscape:export-filename="restaurar.pdf"
   inkscape:export-xdpi="96"
   inkscape:export-ydpi="96"
   xmlns:inkscape="http://www.inkscape.org/namespaces/inkscape"
   xmlns:sodipodi="http://sodipodi.sourceforge.net/DTD/sodipodi-0.dtd"
   xmlns="http://www.w3.org/2000/svg"
   xmlns:svg="http://www.w3.org/2000/svg"><sodipodi:namedview
     id="namedview11416"
     pagecolor="#ffffff"
     bordercolor="#000000"
     borderopacity="0.25"
     inkscape:showpageshadow="2"
     inkscape:pageopacity="0.0"
     inkscape:pagecheckerboard="0"
     inkscape:deskcolor="#d1d1d1"
     showgrid="false"
     inkscape:zoom="8.0261211"
     inkscape:cx="-21.616918"
     inkscape:cy="42.922352"
     inkscape:window-width="2560"
     inkscape:window-height="1000"
     inkscape:window-x="1680"
     inkscape:window-y="0"
     inkscape:window-maximized="1"
     inkscape:current-layer="svg11414" /><defs
     id="defs11384"><style
       id="style11382">.cls-1{fill:#069;}.cls-2{fill:#2991c9;}.cls-3{fill:#fff;}.cls-4{fill:#002a44;}.cls-5{fill:#3380cc;}.cls-6{fill:#cc5e55;}</style><radialGradient
       id="paint0_radial_29_23"
       cx="0"
       cy="0"
       r="1"
       gradientUnits="userSpaceOnUse"
       gradientTransform="matrix(0,22,-22,0,11.999988,1.0000149)"><stop
         stop-color="#8FC8FF"
         id="stop11537" /><stop
         offset="1"
         stop-color="#0056A8"
         id="stop11539"
         style="stop-color:#006699;stop-opacity:1;" /></radialGradient><radialGradient
       id="paint0_radial_1_40"
       cx="0"
       cy="0"
       r="1"
       gradientUnits="userSpaceOnUse"
       gradientTransform="matrix(0,24,-24,0,-2.29062,44.73684)"><stop
         stop-color="#C2E5FF"
         id="stop11601" /><stop
         offset="1"
         stop-color="#3276AA"
         id="stop11603" /></radialGradient><radialGradient
       fx="0"
       fy="0"
       cx="0"
       cy="0"
       r="1"
       gradientUnits="userSpaceOnUse"
       gradientTransform="matrix(0,16.5,-16.5,0,8.999991,0.750011)"
       spreadMethod="pad"
       id="radialGradient16463"><stop
         style="stop-opacity:1;stop-color:#8fc8ff"
         offset="0"
         id="stop16459" /><stop
         style="stop-opacity:1;stop-color:#006699"
         offset="1"
         id="stop16461" /></radialGradient><clipPath
       clipPathUnits="userSpaceOnUse"
       id="clipPath16473"><path
         d="M 0,0 H 151 V 116 H 0 Z"
         id="path16471" /></clipPath><radialGradient
       fx="0"
       fy="0"
       cx="0"
       cy="0"
       r="1"
       gradientUnits="userSpaceOnUse"
       gradientTransform="matrix(0,16.5,-16.5,0,8.999991,0.750011)"
       spreadMethod="pad"
       id="radialGradient16463-5"><stop
         style="stop-opacity:1;stop-color:#8fc8ff"
         offset="0"
         id="stop16459-9" /><stop
         style="stop-opacity:1;stop-color:#006699"
         offset="1"
         id="stop16461-4" /></radialGradient><clipPath
       clipPathUnits="userSpaceOnUse"
       id="clipPath16473-9"><path
         d="M 0,0 H 151 V 116 H 0 Z"
         id="path16471-0" /></clipPath></defs><g
     id="g16447"
     transform="matrix(1.3333333,0,0,1.3333333,-4.5225532e-4,-3.504174e-5)"><g
       id="g16449"><g
         id="g16451"><g
           id="g16457"><path
             d="m 7.195,0.836 c 0.09,0 0.176,-0.012 0.258,-0.035 1.078,-0.071 2.156,-0.067 3.231,0.008 0.976,0.078 1.921,0.289 2.836,0.636 1.519,0.625 2.558,1.711 3.121,3.254 0.316,0.93 0.507,1.887 0.566,2.867 0.078,1.235 0.051,2.465 -0.086,3.696 -0.105,0.863 -0.328,1.691 -0.672,2.488 -0.637,1.383 -1.672,2.336 -3.101,2.859 C 12.191,17 11,17.207 9.773,17.227 8.398,17.301 7.035,17.195 5.684,16.918 3.203,16.367 1.668,14.852 1.09,12.375 0.844,11.262 0.73,10.133 0.754,8.992 0.727,7.781 0.855,6.582 1.141,5.402 1.75,3.09 3.219,1.656 5.547,1.102 6.09,0.969 6.641,0.879 7.195,0.836 Z"
             style="fill:url(#radialGradient16463-5);fill-rule:evenodd;stroke:none"
             id="path16465" /></g></g></g><g
       id="g16467"><g
         id="g16469" /><g
         id="g16481"><g
           clip-path="url(#clipPath16473-9)"
           opacity="0.158416"
           id="g16479"><g
             id="g16477"><path
               d="m 12.242,9 c 0,1.793 -1.449,3.242 -3.242,3.242 C 7.207,12.242 5.758,10.793 5.758,9 5.758,7.207 7.207,5.758 9,5.758 c 1.793,0 3.242,1.449 3.242,3.242 z"
               style="fill:#000000;fill-opacity:1;fill-rule:nonzero;stroke:none"
               id="path16475" /></g></g></g></g><path
       d="m 11.945,9 c 0,1.625 -1.32,2.945 -2.945,2.945 -1.625,0 -2.945,-1.32 -2.945,-2.945 0,-1.625 1.32,-2.945 2.945,-2.945 1.625,0 2.945,1.32 2.945,2.945 z"
       style="fill:#cc5e55;fill-opacity:1;fill-rule:nonzero;stroke:none"
       id="path16483" /><path
       d="m 8.941,7.211 c 0.09,0 0.164,0.074 0.164,0.164 V 8.906 C 9.105,8.996 9.031,9.07 8.941,9.07 8.852,9.07 8.777,8.996 8.777,8.906 V 7.375 c 0,-0.09 0.075,-0.164 0.164,-0.164 z"
       style="fill:#ffffff;fill-opacity:1;fill-rule:nonzero;stroke:none"
       id="path16485" /><path
       d="m 8.852,8.891 c 0.062,-0.067 0.168,-0.067 0.23,0 l 1.082,1.082 c 0.066,0.062 0.066,0.168 0,0.23 -0.062,0.067 -0.168,0.067 -0.23,0 L 8.852,9.121 c -0.063,-0.062 -0.063,-0.168 0,-0.23 z"
       style="fill:#ffffff;fill-opacity:1;fill-rule:nonzero;stroke:none"
       id="path16487" /><path
       d="M 4.336,5.273 C 3.562,6.238 3.086,7.449 3.031,8.746 3.02,9.047 3.25,9.301 3.551,9.312 3.852,9.324 4.102,9.094 4.117,8.793 4.207,6.664 5.664,4.844 7.723,4.289 c 2.062,-0.551 4.234,0.297 5.379,2.094 0.16,0.254 0.496,0.328 0.75,0.168 C 14.105,6.391 14.18,6.055 14.02,5.805 12.621,3.605 9.957,2.566 7.441,3.242 6.188,3.582 5.109,4.305 4.336,5.273 Z"
       style="fill:#fafafa;fill-opacity:1;fill-rule:nonzero;stroke:none"
       id="path16489" /><path
       d="M 3.586,9.926 C 3.445,9.926 3.309,9.871 3.203,9.766 2.988,9.555 2.988,9.211 3.203,9 L 4.941,7.258 c 0.215,-0.211 0.555,-0.211 0.77,0 0.211,0.215 0.211,0.554 0,0.765 L 3.969,9.766 C 3.863,9.871 3.723,9.926 3.586,9.926 Z"
       style="fill:#fafafa;fill-opacity:1;fill-rule:nonzero;stroke:none"
       id="path16491" /><path
       d="M 4.129,9.383 C 4.129,9.52 4.074,9.66 3.969,9.766 3.758,9.98 3.414,9.98 3.203,9.766 L 1.461,8.027 C 1.25,7.812 1.25,7.469 1.461,7.258 1.672,7.047 2.016,7.047 2.227,7.258 L 3.969,9 c 0.105,0.105 0.16,0.242 0.16,0.383 z"
       style="fill:#fafafa;fill-opacity:1;fill-rule:nonzero;stroke:none"
       id="path16493" /><path
       d="M 14.547,6.84 C 14.094,5.688 13.285,4.672 12.191,3.973 11.938,3.812 11.602,3.887 11.441,4.141 c -0.16,0.254 -0.086,0.589 0.168,0.75 1.797,1.144 2.645,3.316 2.094,5.375 -0.551,2.062 -2.371,3.519 -4.504,3.613 -0.301,0.012 -0.531,0.266 -0.519,0.562 0.011,0.301 0.265,0.532 0.566,0.52 2.602,-0.113 4.832,-1.902 5.508,-4.414 H 14.75 C 15.086,9.289 14.996,7.996 14.547,6.84 Z"
       style="fill:#fafafa;fill-opacity:1;fill-rule:nonzero;stroke:none"
       id="path16495" /></g></svg>
