<?xml version="1.0" encoding="UTF-8" standalone="no"?>
<svg
   width="24"
   height="24"
   viewBox="0 0 6.349875 6.349875"
   version="1.1"
   id="svg8534"
   sodipodi:docname="userinfo.svg"
   inkscape:version="1.2.2 (b0a8486541, 2022-12-01)"
   inkscape:export-filename="userinfo.svg"
   inkscape:export-xdpi="800"
   inkscape:export-ydpi="800"
   xmlns:inkscape="http://www.inkscape.org/namespaces/inkscape"
   xmlns:sodipodi="http://sodipodi.sourceforge.net/DTD/sodipodi-0.dtd"
   xmlns="http://www.w3.org/2000/svg"
   xmlns:svg="http://www.w3.org/2000/svg">
  <defs
     id="defs8538">
    <radialGradient
       fx="0"
       fy="0"
       cx="0"
       cy="0"
       r="1"
       gradientUnits="userSpaceOnUse"
       gradientTransform="matrix(0,5.8207184,-5.8207184,0,3.174815,0.2645734)"
       spreadMethod="pad"
       id="radialGradient3666-6">
      <stop
         style="stop-color:#c9dcf1;stop-opacity:1;"
         offset="0"
         id="stop3662-7" />
      <stop
         style="stop-color:#5494de;stop-opacity:1;"
         offset="1"
         id="stop3664-5" />
    </radialGradient>
  </defs>
  <sodipodi:namedview
     id="namedview8536"
     pagecolor="#ffffff"
     bordercolor="#000000"
     borderopacity="0.25"
     inkscape:showpageshadow="2"
     inkscape:pageopacity="0.0"
     inkscape:pagecheckerboard="0"
     inkscape:deskcolor="#d1d1d1"
     showgrid="false"
     inkscape:zoom="4.8282135"
     inkscape:cx="-37.695102"
     inkscape:cy="-12.634073"
     inkscape:window-width="2560"
     inkscape:window-height="998"
     inkscape:window-x="1680"
     inkscape:window-y="0"
     inkscape:window-maximized="1"
     inkscape:current-layer="svg8534" />
  <path
     d="m 2.538065,0.2949075 c 0.031749,0 0.062088,-0.00423 0.091015,-0.012347 0.3802869,-0.025047 0.7605737,-0.023636 1.1398026,0.00282 0.3443042,0.027516 0.6776726,0.1019509 1.0004579,0.2243623 0.5358586,0.2204818 0.9023876,0.6035909 1.1009976,1.1479163 0.111476,0.3280768 0.178855,0.6656785 0.199669,1.0113939 0.02751,0.4356718 0.01799,0.8695797 -0.03034,1.3038407 -0.03704,0.3044419 -0.115708,0.5965361 -0.237062,0.877694 C 5.5778911,5.3384698 5.2127741,5.6746607 4.7086643,5.8591598 4.3005084,5.9970926 3.8803583,6.0701167 3.4475085,6.0771716 2.9624487,6.1032828 2.4816221,6.0658821 2.0050286,5.9681657 1.129804,5.7737886 0.588301,5.2393416 0.384399,4.3655277 0.297619,3.9728937 0.257402,3.5746158 0.265868,3.1721047 0.256368,2.7448988 0.301498,2.3219264 0.402391,1.9056569 0.617228,1.0900507 1.135448,0.5841774 1.9566991,0.3887423 2.1482536,0.3418243 2.3426304,0.3100743 2.5380654,0.2949053 Z"
     style="fill:url(#radialGradient3666-6);fill-rule:evenodd;stroke:none;stroke-width:0.352683;stroke-dasharray:none"
     id="path3668" />
  <path
     id="path334"
     style="opacity:0.727273;mix-blend-mode:normal;fill:#f8f9f9;fill-opacity:1;stroke-width:0.637964;paint-order:stroke fill markers"
     d="M 4.3259452,0.3673381 4.2981572,1.4142488 C 4.2836212,1.961875 4.7347288,2.414893 5.3092002,2.4303029 l 0.74696,0.020037 C 6.0291781,2.20172 5.9787351,1.9570718 5.9045291,1.7166545 5.7205081,1.1643212 5.3641311,0.7691763 4.8343442,0.5332391 4.6680778,0.4646979 4.4986853,0.4100553 4.3259452,0.3673381 Z" />
  <path
     id="circle1009"
     style="fill:#a8c8ec;fill-opacity:1;stroke-width:0.531281;paint-order:markers stroke fill"
     d="m 4.8822921,3.0137099 a 2.248914,2.248914 0 0 0 -2.2489135,2.248914 2.248914,2.248914 0 0 0 0.151926,0.810787 c 0.219858,0.01428 0.440337,0.01554 0.661962,0.0036 0.432849,-0.0071 0.853241,-0.08014 1.2613965,-0.218073 0.504109,-0.184499 0.8692545,-0.520306 1.0939675,-1.008187 0.121354,-0.281158 0.200149,-0.573525 0.237192,-0.877966 0.02273,-0.204203 0.03611,-0.408086 0.04186,-0.612353 A 2.248914,2.248914 0 0 0 4.8822951,3.0137099 Z" />
  <path
     id="path32760"
     style="fill:#ffffff;fill-opacity:1;stroke-width:0.531281;paint-order:markers stroke fill"
     d="M 4.880743 4.0565201 C 4.8006705 4.0598106 4.7226445 4.1139997 4.7179654 4.2192976 C 4.707989 4.4561563 5.0685732 4.4558048 5.0585064 4.2192976 C 5.0536907 4.1072063 4.9659812 4.0530172 4.880743 4.0565201 z M 4.7174486 4.5675899 L 4.7174486 5.855858 C 4.8393973 5.810657 4.9529485 5.7561159 5.0585064 5.6930805 L 5.0585064 4.5675899 L 4.7174486 4.5675899 z " />
</svg>
