<?xml version="1.0" encoding="UTF-8" standalone="no"?>
<svg
   width="24"
   height="24"
   version="1"
   id="svg44549"
   sodipodi:docname="input-touchpad.svg"
   inkscape:version="1.2.2 (b0a8486541, 2022-12-01)"
   inkscape:export-filename="input-touchpad.svg"
   inkscape:export-xdpi="512"
   inkscape:export-ydpi="512"
   xmlns:inkscape="http://www.inkscape.org/namespaces/inkscape"
   xmlns:sodipodi="http://sodipodi.sourceforge.net/DTD/sodipodi-0.dtd"
   xmlns="http://www.w3.org/2000/svg"
   xmlns:svg="http://www.w3.org/2000/svg">
  <defs
     id="defs44553">
    <radialGradient
       fx="0"
       fy="0"
       cx="0"
       cy="0"
       r="1"
       gradientUnits="userSpaceOnUse"
       gradientTransform="matrix(0,16.500002,-16.500002,0,8.999659,0.749973)"
       spreadMethod="pad"
       id="radialGradient40514-1">
      <stop
         style="stop-opacity:1;stop-color:#a4a4a4"
         offset="0"
         id="stop40510-7" />
      <stop
         style="stop-opacity:1;stop-color:#626262"
         offset="1"
         id="stop40512-2" />
    </radialGradient>
  </defs>
  <sodipodi:namedview
     id="namedview44551"
     pagecolor="#ffffff"
     bordercolor="#000000"
     borderopacity="0.25"
     inkscape:showpageshadow="2"
     inkscape:pageopacity="0.0"
     inkscape:pagecheckerboard="0"
     inkscape:deskcolor="#d1d1d1"
     showgrid="false"
     inkscape:zoom="6.828125"
     inkscape:cx="91.240275"
     inkscape:cy="12.228833"
     inkscape:window-width="1920"
     inkscape:window-height="1000"
     inkscape:window-x="4240"
     inkscape:window-y="0"
     inkscape:window-maximized="1"
     inkscape:current-layer="svg44549" />
  <g
     id="g40500"
     transform="matrix(1.3333333,0,0,1.3333333,-4.52e-4,-3.5e-5)">
    <g
       id="g40502">
      <g
         id="g40508">
        <path
           d="m 7.195,0.836 c 0.09,0 0.176,-0.012 0.258,-0.035 1.078,-0.071 2.156,-0.067 3.231,0.008 0.976,0.078 1.921,0.289 2.836,0.636 1.519,0.625 2.558,1.711 3.121,3.254 0.316,0.93 0.507,1.887 0.566,2.867 0.078,1.235 0.051,2.465 -0.086,3.696 -0.105,0.863 -0.328,1.691 -0.672,2.488 -0.637,1.383 -1.672,2.336 -3.101,2.859 C 12.191,17 11,17.207 9.773,17.227 8.398,17.301 7.035,17.195 5.684,16.918 3.203,16.367 1.668,14.852 1.09,12.375 0.844,11.262 0.73,10.133 0.754,8.992 0.727,7.777 0.855,6.582 1.141,5.402 1.75,3.09 3.219,1.656 5.547,1.102 6.09,0.969 6.641,0.879 7.195,0.836 Z"
           style="fill:url(#radialGradient40514-1);fill-rule:evenodd;stroke:none"
           id="path40516" />
      </g>
    </g>
  </g>
  <g
     id="g45911"
     transform="matrix(0.28846154,0,0,0.28846154,-14.138603,8.7563603)">
    <rect
       transform="matrix(0,-1,-1,0,0,0)"
       x="-31.166815"
       y="-116.61382"
       width="39.844395"
       height="52"
       rx="5.8045907"
       ry="5.8045907"
       fill="#666666"
       id="rect44539"
       style="stroke-width:0.87535" />
    <rect
       transform="matrix(0,-1,-1,0,0,0)"
       x="-30.400576"
       y="-115.61382"
       width="38.311916"
       height="50"
       rx="5.1492696"
       ry="5.1492696"
       fill="#4f4f4f"
       id="rect44541"
       style="stroke-width:0.87535" />
    <rect
       x="90.076744"
       y="14.943853"
       width="1.0741549"
       height="12.889858"
       rx="0.53707743"
       ry="0.53707743"
       fill="#f9f9f9"
       style="stroke-width:0.537078;paint-order:stroke fill markers"
       id="rect44547" />
  </g>
</svg>
