<svg xmlns="http://www.w3.org/2000/svg" width="24" height="24" fill="none"><path fill="url(#a)" fill-rule="evenodd" d="M9.596 1.114c.12 0 .234-.014.344-.046a31.637 31.637 0 0 1 4.307.011c1.301.102 2.561.384 3.78.847 2.025.834 3.412 2.28 4.158 4.34.427 1.24.679 2.514.756 3.824a27.94 27.94 0 0 1-.114 4.923 11.88 11.88 0 0 1-.894 3.32c-.85 1.843-2.229 3.114-4.135 3.813a15.624 15.624 0 0 1-4.765.825 21.413 21.413 0 0 1-5.453-.412c-3.312-.738-5.354-2.757-6.128-6.057a19.045 19.045 0 0 1-.447-4.511 18.49 18.49 0 0 1 .515-4.786c.812-3.086 2.77-4.998 5.877-5.736a13.953 13.953 0 0 1 2.2-.355Z" clip-rule="evenodd"/><path fill="url(#b)" fill-rule="evenodd" d="M19.447 21.312v-.192.192l-.123.081a71.29 71.29 0 0 0-1.214-.144l-1.325-.202a24.938 24.938 0 0 1-.852-.157l-.461-.089c-.165-.029-.327-.067-.49-.105a29.343 29.343 0 0 0-.162-.039l-.65-.15-.324-.077-.32-.091c-.214-.06-.427-.12-.642-.177l-.32-.088c-.078-.023-.155-.048-.232-.073l-.086-.028-.633-.206-.012-.003a9.472 9.472 0 0 1-.615-.212l-.62-.226a12.571 12.571 0 0 1-.774-.301L9.593 19a1.071 1.071 0 0 0-.051-.381l.134-.081a108.756 108.756 0 0 1 .772-.444c.15-.087.303-.167.458-.247.118-.061.236-.123.353-.188.23-.128.467-.244.707-.362l.133-.065.145-.071.283-.139.142-.064.295-.133c.106-.046.212-.095.317-.143.188-.086.375-.171.567-.246l.315-.13c.192-.08.384-.16.577-.233l.342-.125c.185-.068.369-.135.552-.204.043-.016.087-.03.133-.046a1.038 1.038 0 0 0 1.311.358l.288.345c.107.12.2.245.292.368l.524.693.011.015.252.333c.053.069.1.14.148.209l.082.12a105.902 105.902 0 0 1 .417.61l.17.25c.07.1.137.197.198.29l.181.295.109.177c.112.183.21.339.291.468l.121.192.071.113.064.1a6.828 6.828 0 0 1-.85.677ZM18.133 1.97c1.968.84 3.319 2.272 4.052 4.295.427 1.24.679 2.514.756 3.824.063.975.076 1.949.037 2.921-.103.052-.196.12-.276.2l-.031-.028a3.657 3.657 0 0 0-.059-.053l-.295-.269-.282-.284-.569-.56a7.694 7.694 0 0 0-.095-.093c-.064-.061-.127-.123-.186-.188l-.271-.292-.545-.58c-.122-.124-.234-.257-.346-.39-.06-.069-.118-.139-.179-.207l-.52-.601-.13-.15-.121-.157-.243-.313-.496-.622c-.073-.088-.14-.182-.206-.277l-.03-.04-.23-.324-.18-.25a23.84 23.84 0 0 0-.284-.394c-.1-.14-.193-.284-.286-.428l-.152-.233-.436-.663-.306-.508a1.04 1.04 0 0 0 .075-1.376l.633-.71c.148-.154.294-.31.44-.467l.239-.255c.174-.175.348-.35.521-.528Zm-.039-.017a13.536 13.536 0 0 0-4.12-.893l.068.152.207.43c.108.222.216.444.32.668.058.115.118.229.177.343.128.245.256.49.377.737.033.06.065.118.099.176a1.039 1.039 0 0 1 .834.14l.708-.658c.17-.15.344-.296.517-.442l.242-.205c.189-.15.38-.3.571-.448Zm-4.3-.904.066.23.115.34c.093.275.186.55.285.824l.116.286c.115.285.23.57.35.854l.09.19a1.038 1.038 0 0 0-.168 1.426l-.067.076-.117.133c-.237.256-.45.53-.663.804l-.158.202a45.929 45.929 0 0 0-.592.776l-.182.268-.727 1.08c-.079.12-.15.243-.22.367-.037.064-.074.13-.112.193l-.113.196a1.035 1.035 0 0 0-.824.195 9.535 9.535 0 0 0-.35-.238 79.225 79.225 0 0 0-.576-.36c-.284-.175-.565-.348-.856-.501a38.263 38.263 0 0 1-.32-.177c-.21-.116-.416-.23-.622-.335a6.263 6.263 0 0 0-.144-.07l-.036-.017a1.04 1.04 0 0 0-.061-.62l.115-.107c.071-.066.14-.135.207-.205l.096-.098.453-.456.145-.147c.12-.13.236-.263.352-.394a36.889 36.889 0 0 0 .351-.397l.125-.142.257-.313c.17-.207.333-.413.493-.616.098-.13.193-.26.286-.388l.16-.22c.235-.31.436-.623.625-.917l.146-.228c.168-.247.308-.493.436-.72.056-.098.11-.193.163-.283l.046-.08c.069-.121.134-.235.19-.344l.056-.111c.395.007.79.022 1.185.044Zm9.055 13.752-.023.211a11.88 11.88 0 0 1-.893 3.32 7.298 7.298 0 0 1-1.634 2.3 25.171 25.171 0 0 0-.106-.226l-.088-.186c-.067-.142-.149-.316-.247-.518l-.244-.503c-.064-.128-.14-.26-.22-.4a23.102 23.102 0 0 1-.097-.174c-.075-.129-.152-.264-.23-.403-.047-.08-.093-.163-.14-.246a5.533 5.533 0 0 1-.072-.125c-.042-.076-.084-.152-.133-.226a66.167 66.167 0 0 0-.235-.355l-.228-.346a15.052 15.052 0 0 0-.813-1.16c.143-.178.228-.403.228-.648v-.009l.313-.092.283-.083c.189-.048.376-.09.56-.133l.272-.062c.27-.062.534-.126.787-.187.159-.037.315-.065.468-.091.093-.016.184-.032.273-.05.24-.04.469-.083.686-.125l.04-.008c.203-.039.396-.076.582-.095.17-.021.328-.042.478-.063.047.282.208.526.433.683Zm-3.556 6.61c-.456.291-.954.536-1.495.734a15.624 15.624 0 0 1-4.765.825 21.404 21.404 0 0 1-4.833-.294c.02-.2.04-.398.065-.596l.084-.638.041-.318.051-.316.042-.252c.03-.189.061-.378.095-.567.306-.007.58-.146.766-.363.258.106.519.21.79.298.109.037.216.076.324.114.322.114.643.229.971.315l.653.188.132.037c.065.02.13.038.194.054l.331.079c.22.052.44.103.66.152l.332.074.333.06.67.116c.222.04.444.078.669.1l.673.077.224.026c.15.018.298.036.449.04l.675.037.21.012c.154.009.309.018.464.017.4 0 .798-.002 1.195-.01ZM8.107 22.66a22.343 22.343 0 0 1-.527-.101 9.162 9.162 0 0 1-2.429-.891 41.977 41.977 0 0 0 .667-.517l.092-.073.2-.145.285-.211.16-.119a21.167 21.167 0 0 1 .245-.182h.001l.265-.184.567-.4c.065-.045.132-.09.2-.134.11.103.24.183.385.233a3.265 3.265 0 0 0-.02.192l-.045.648-.023.323-.011.324-.015.647c-.004.196-.002.393.003.59Zm-2.98-1.006c.102-.108.278-.292.518-.537a9.75 9.75 0 0 1 .52-.5l.229-.21c.206-.201.447-.402.707-.617.101-.084.205-.17.311-.26l.12-.096.071-.057a1.04 1.04 0 0 1-.084-.552 18.058 18.058 0 0 1-.783-.4l-.312-.166-.3-.16c-.063-.036-.124-.073-.185-.11l-.106-.064-.582-.351-.29-.176-.282-.19c-.13-.084-.258-.172-.386-.26l-.176-.12c-.18-.12-.354-.25-.527-.38l-.023-.017-.542-.408a6.76 6.76 0 0 1-.375-.303l-.149-.125-.519-.435c-.111-.093-.217-.194-.323-.294l-.175-.164-.148-.139a44.926 44.926 0 0 1-.234-.22c.075.724.191 1.443.35 2.159.56 2.388 1.785 4.106 3.674 5.152Zm-4.052-7.592.045.035c.16.117.316.235.472.354.199.15.397.301.6.446l.547.387c.06.04.119.083.178.125.122.087.244.174.372.252l.557.367.056.037c.167.11.333.22.507.32l.186.112c.129.077.257.153.384.232l.284.174.29.162.581.324.107.059c.062.034.123.069.185.1l.297.15.304.157c.254.131.507.262.767.38.179-.19.428-.312.707-.326.043-.238.093-.475.142-.712l.057-.27c.056-.303.135-.602.215-.901l.095-.361c.036-.148.08-.293.125-.439l.057-.186.19-.622c.139-.41.281-.82.436-1.226l.244-.603.009-.023c.078-.194.155-.388.246-.579l.131-.292c.099-.22.198-.44.302-.654a1.041 1.041 0 0 1-.245-1.029 9.496 9.496 0 0 0-.618-.414l-.179-.115a49.71 49.71 0 0 1-.197-.129c-.239-.156-.475-.31-.716-.447-.114-.066-.225-.133-.336-.2a16.654 16.654 0 0 0-.742-.425 1.035 1.035 0 0 1-1.292.197c-.443.348-.883.692-1.325.99-.383.28-.774.523-1.147.756l-.144.09-.329.192a12.96 12.96 0 0 1-.876.484l-.307.158-.238.123a5.814 5.814 0 0 1-.33.154 8.813 8.813 0 0 0-.172.077c-.202.093-.388.177-.556.248 0 .08.002.16.004.24-.014.694.01 1.385.07 2.071ZM1 11.522c.003-1.458.177-2.897.52-4.317a9.558 9.558 0 0 1 .507-1.458 57.266 57.266 0 0 0 .862.313c.133.048.278.1.429.164l.363.147c.079.031.16.063.242.097.313.118.648.268 1.006.429.138.061.28.125.425.188.186.077.372.17.563.267l.014.007a1.037 1.037 0 0 0 .045.592l-.288.235-.339.277c-.147.126-.301.245-.454.362l-.17.133-.095.073c-.175.135-.347.268-.523.39l-.595.44-.372.256a139.518 139.518 0 0 1-.346.24l-.135.095-.16.105-.109.072-.252.166a26.64 26.64 0 0 1-.715.46c-.116.072-.225.141-.328.207l-.095.06Zm1.042-5.807C3.04 3.495 4.825 2.08 7.397 1.47a13.953 13.953 0 0 1 2.2-.355c.119 0 .233-.014.343-.046a31.64 31.64 0 0 1 2.457-.066 4.71 4.71 0 0 0-.011.015l-.142.19-.147.196-.175.234c-.158.213-.33.443-.523.68a178.095 178.095 0 0 1-.513.65l-.06.07-.054.064c-.075.09-.152.18-.228.273l-.19.225c-.094.113-.19.228-.289.341l-.03.032c-.16.176-.325.357-.487.543l-.265.295-.118.123c-.053.055-.107.11-.16.167a212.934 212.934 0 0 1-.569.588l-.592.583-.112.11a4.782 4.782 0 0 1-.188.18l-.107.097a1.038 1.038 0 0 0-1.322.298 9.042 9.042 0 0 0-.61-.237l-.78-.28a7.023 7.023 0 0 0-.522-.165l-.194-.058a61.791 61.791 0 0 1-.285-.083c-.333-.098-.629-.185-.887-.237a51.51 51.51 0 0 0-.795-.18Zm13.289 8.379.364.396.037.04.023.024a1.037 1.037 0 0 0-.166.563v.011l.001.013a8.21 8.21 0 0 1-.072.021l-.063.02c-.204.069-.406.141-.61.214l-.316.113c-.198.071-.393.15-.587.228-.11.045-.22.09-.33.132-.265.102-.521.218-.777.334l-.127.058-.197.091-.248.115c-.146.075-.29.148-.436.22-.581.285-1.134.602-1.663.916a157.913 157.913 0 0 1-.77.481l-.078.053-.062.042a1.032 1.032 0 0 0-.263-.176 25.588 25.588 0 0 1 .244-.945l.08-.308.094-.305.18-.61c.04-.143.088-.283.136-.423l.062-.182.205-.604.225-.595c.03-.076.057-.152.085-.229.045-.123.09-.245.141-.366l.244-.587.032-.076c.07-.17.141-.341.221-.505.057-.12.112-.24.167-.36.085-.185.17-.37.261-.556a1.045 1.045 0 0 0 .714-.167 37.96 37.96 0 0 0 .36.277l.226.176c.046.037.09.076.134.114a68.954 68.954 0 0 0 .395.345l.11.096.01.008c.139.122.275.242.414.362l.032.027c.13.114.26.226.381.35l.607.585.192.185.197.19c.066.063.13.126.19.194Zm1.301-.02c-.166 0-.321.04-.46.107-.012-.012-.023-.025-.033-.038l-.028-.031a88.957 88.957 0 0 0-.189-.218l-.171-.197a3.307 3.307 0 0 0-.189-.203 18.648 18.648 0 0 1-.124-.127l-.07-.072-.513-.523-.28-.287c-.101-.109-.214-.208-.326-.308a273.984 273.984 0 0 1-.465-.413l-.064-.057-.161-.143a63.536 63.536 0 0 0-.275-.243l-.083-.074-.136-.119-.225-.178c-.1-.077-.198-.155-.298-.234l-.06-.047a1.035 1.035 0 0 0-.201-1.04c.138-.251.277-.5.42-.747l.678-1.078.169-.27c.038-.061.08-.12.123-.178l.06-.083a41.208 41.208 0 0 0 .5-.714c.198-.285.396-.57.619-.838a18.006 18.006 0 0 0 .167-.213 1.04 1.04 0 0 0 .718.078l.045.083c.082.151.164.302.25.45l.435.683.146.23c.095.152.191.304.293.452.098.138.198.275.299.412l.177.243.24.326.008.012c.076.105.152.21.238.31l.511.627.26.31.13.155.139.148.55.593.068.072c.161.173.323.346.499.505l.587.555.294.277c.064.06.133.116.2.171l.108.09.621.515.313.254.326.238.102.074a1.036 1.036 0 0 0-.174.57c-.15.004-.31.009-.48.016-.175.002-.358.02-.552.039l-.081.008c-.223.02-.458.045-.702.071-.085.01-.17.019-.258.027-.165.017-.335.034-.506.061l-.167.028-.641.11c-.105.02-.21.038-.318.057-.176.031-.356.062-.536.1l-.125.03c-.163.038-.328.078-.494.119a1.04 1.04 0 0 0-.908-.533Z" clip-rule="evenodd"/><defs><radialGradient id="a" cx="0" cy="0" r="1" gradientTransform="matrix(0 22 -22 0 12 1)" gradientUnits="userSpaceOnUse"><stop stop-color="#C5FFFE"/><stop offset="1" stop-color="#0FF"/></radialGradient><radialGradient id="b" cx="0" cy="0" r="1" gradientTransform="rotate(90 5.5 6.5) scale(22)" gradientUnits="userSpaceOnUse"><stop stop-color="#58C6E3"/><stop offset="1" stop-color="#034DB0"/></radialGradient></defs></svg>