<?xml version="1.0" encoding="UTF-8" standalone="no"?>
<svg
   width="24"
   height="24"
   version="1.1"
   id="svg36227"
   sodipodi:docname="preferences-kde-connect.svg"
   inkscape:version="1.2.2 (b0a8486541, 2022-12-01)"
   xmlns:inkscape="http://www.inkscape.org/namespaces/inkscape"
   xmlns:sodipodi="http://sodipodi.sourceforge.net/DTD/sodipodi-0.dtd"
   xmlns="http://www.w3.org/2000/svg"
   xmlns:svg="http://www.w3.org/2000/svg">
  <defs
     id="defs36231">
    <linearGradient
       id="paint0_linear_3_29"
       x1="12"
       y1="0"
       x2="12"
       y2="12"
       gradientUnits="userSpaceOnUse"
       gradientTransform="matrix(0.91666681,0,0,0.91666681,0.99999433,0.99999836)">
      <stop
         stop-color="white"
         id="stop36440" />
      <stop
         offset="1"
         stop-color="#D9D9D9"
         id="stop36442" />
    </linearGradient>
    <clipPath
       id="clip0_3_29">
      <rect
         width="20"
         height="11.6875"
         fill="#ffffff"
         transform="translate(2,6.835)"
         id="rect36445"
         x="0"
         y="0" />
    </clipPath>
  </defs>
  <sodipodi:namedview
     id="namedview36229"
     pagecolor="#ffffff"
     bordercolor="#000000"
     borderopacity="0.25"
     inkscape:showpageshadow="2"
     inkscape:pageopacity="0.0"
     inkscape:pagecheckerboard="0"
     inkscape:deskcolor="#d1d1d1"
     showgrid="false"
     inkscape:zoom="19.312854"
     inkscape:cx="17.216513"
     inkscape:cy="13.229531"
     inkscape:window-width="2560"
     inkscape:window-height="1000"
     inkscape:window-x="1680"
     inkscape:window-y="0"
     inkscape:window-maximized="1"
     inkscape:current-layer="svg36227" />
  <path
     fill-rule="evenodd"
     clip-rule="evenodd"
     d="m 9.5960374,1.1135864 c 0.119845,0.00128 0.2343917,-0.013988 0.3436492,-0.045797 1.4357844,-0.0940546 2.8714674,-0.0902367 4.3070594,0.011449 1.301667,0.1014218 2.561721,0.3838441 3.780154,0.8472623 2.025651,0.8339376 3.411651,2.280392 4.158093,4.339354 0.426891,1.239636 0.678975,2.514352 0.756066,3.8241223 0.1067,1.644739 0.06857,3.285847 -0.114583,4.923288 -0.137042,1.150876 -0.434867,2.25766 -0.893475,3.320352 -0.850575,1.8425 -2.228967,3.113367 -4.135176,3.812691 -1.544679,0.52195 -3.133171,0.796675 -4.765296,0.824359 -1.8359,0.09542 -3.6534025,-0.04198 -5.4525628,-0.412224 C 4.2683882,21.820801 2.2255779,19.801842 1.4515719,16.501659 1.1231082,15.016108 0.97419382,13.512408 1.0048288,11.990557 0.96817132,10.372366 1.139995,8.7770905 1.5203008,7.2047145 2.3317096,4.1190765 4.2904982,2.2070104 7.3966879,1.4685216 8.1204788,1.2915701 8.8535923,1.1732577 9.5960374,1.1135864 Z"
     fill="url(#paint0_linear_3_29)"
     id="path36350"
     style="fill:url(#paint0_linear_3_29);stroke-width:0.916667" />
  <g
     transform="matrix(0.31022993,0,0,0.31022993,-114.75064,-148.63705)"
     id="g36225">
    <rect
       x="392.57001"
       y="489.79999"
       width="32"
       height="56"
       rx="2"
       ry="2"
       fill="#35373a"
       id="rect36215" />
    <rect
       x="394.57001"
       y="495.79999"
       width="28"
       height="44"
       rx="1"
       ry="1"
       fill="#ffffff"
       opacity="0.2"
       id="rect36217" />
    <rect
       x="402.57001"
       y="491.79999"
       width="12"
       height="2"
       rx="1"
       ry="1"
       fill="#212324"
       id="rect36219" />
    <g
       fill="#ffffff"
       id="g36223">
      <path
         d="m 405.57,509.8 a 1,1 0 1 0 0,2 1,1 0 0 0 0,-2 z m 7,0 -2,2 4,4 -4,4 2,2 6,-6 -2,-2 z m -10,6 a 2,2 0 1 0 0,4 2,2 0 0 0 0,-4 z m 5,6 a 3,3 0 1 0 0,6 3,3 0 0 0 0,-6 z"
         id="path36221" />
    </g>
  </g>
</svg>
