<?xml version="1.0" encoding="UTF-8" standalone="no"?>
<svg
   width="24"
   height="24"
   viewBox="0 0 24 24"
   fill="none"
   version="1.1"
   id="svg7"
   sodipodi:docname="kmix.svg"
   inkscape:version="1.3 (0e150ed6c4, 2023-07-21)"
   xmlns:inkscape="http://www.inkscape.org/namespaces/inkscape"
   xmlns:sodipodi="http://sodipodi.sourceforge.net/DTD/sodipodi-0.dtd"
   xmlns:xlink="http://www.w3.org/1999/xlink"
   xmlns="http://www.w3.org/2000/svg"
   xmlns:svg="http://www.w3.org/2000/svg">
  <sodipodi:namedview
     id="namedview7"
     pagecolor="#ffffff"
     bordercolor="#000000"
     borderopacity="0.25"
     inkscape:showpageshadow="2"
     inkscape:pageopacity="0.0"
     inkscape:pagecheckerboard="0"
     inkscape:deskcolor="#d1d1d1"
     inkscape:zoom="12.010417"
     inkscape:cx="23.562879"
     inkscape:cy="27.934085"
     inkscape:window-width="3440"
     inkscape:window-height="1358"
     inkscape:window-x="2560"
     inkscape:window-y="0"
     inkscape:window-maximized="1"
     inkscape:current-layer="svg7" />
  <defs
     id="defs7">
    <radialGradient
       id="paint0_radial_2_105"
       cx="0"
       cy="0"
       r="1"
       gradientUnits="userSpaceOnUse"
       gradientTransform="translate(12 1.00004) rotate(90) scale(22 22)">
      <stop
         stop-color="#A5DFFF"
         id="stop6" />
      <stop
         offset="1"
         stop-color="#005385"
         id="stop7" />
    </radialGradient>
    <radialGradient
       id="a"
       cx="0"
       cy="0"
       r="1"
       gradientTransform="matrix(0,77.428026,-77.428026,0,101.85936,93.921131)"
       gradientUnits="userSpaceOnUse">
      <stop
         stop-color="#A5DFFF"
         id="stop7-3" />
      <stop
         offset="1"
         stop-color="#005385"
         id="stop8" />
    </radialGradient>
    <linearGradient
       inkscape:collect="always"
       xlink:href="#b"
       id="linearGradient1"
       gradientUnits="userSpaceOnUse"
       gradientTransform="matrix(0.40728,0,0,0.40728,-0.44,12.746)"
       x1="-19.048"
       y1="15.822"
       x2="-16.219"
       y2="19.754999" />
    <linearGradient
       id="b">
      <stop
         offset="0"
         style="stop-color:#595762;stop-opacity:1"
         id="stop1" />
      <stop
         offset="1"
         style="stop-color:#19181d;stop-opacity:1"
         id="stop2" />
    </linearGradient>
    <linearGradient
       inkscape:collect="always"
       xlink:href="#b"
       id="linearGradient2"
       gradientUnits="userSpaceOnUse"
       gradientTransform="matrix(0.40728,0,0,0.40728,-0.44,24.253)"
       x1="-19.048"
       y1="15.822"
       x2="-16.219"
       y2="19.754999" />
    <linearGradient
       id="linearGradient4"
       x1="-21.846"
       y1="18.517001"
       x2="-7.2500005"
       y2="18.517001"
       gradientUnits="userSpaceOnUse">
      <stop
         offset="0"
         style="stop-color:#595762;stop-opacity:1"
         id="stop3" />
      <stop
         offset="1"
         style="stop-color:#19181d;stop-opacity:1"
         id="stop4" />
    </linearGradient>
    <linearGradient
       inkscape:collect="always"
       xlink:href="#b"
       id="linearGradient3"
       gradientUnits="userSpaceOnUse"
       gradientTransform="matrix(0.40728,0,0,0.40728,-14.196,24.253)"
       x1="-19.048"
       y1="15.822"
       x2="-16.219"
       y2="19.754999" />
    <linearGradient
       id="linearGradient6"
       gradientTransform="scale(1.0000884,0.99991165)"
       x1="-20.203215"
       y1="20.160781"
       x2="-8.8892146"
       y2="20.160781"
       gradientUnits="userSpaceOnUse">
      <stop
         offset="0"
         style="stop-color:#595762;stop-opacity:1"
         id="stop5" />
      <stop
         offset="1"
         style="stop-color:#19181d;stop-opacity:1"
         id="stop6-3" />
    </linearGradient>
    <linearGradient
       inkscape:collect="always"
       xlink:href="#b"
       id="linearGradient7"
       gradientUnits="userSpaceOnUse"
       gradientTransform="matrix(3.40735,0,0,3.40735,46.075,-35.253)"
       x1="-19.048"
       y1="15.822"
       x2="-16.219"
       y2="19.754999" />
    <linearGradient
       id="linearGradient9"
       x1="-22.367632"
       y1="30.627367"
       x2="-20.516367"
       y2="30.627367"
       gradientUnits="userSpaceOnUse">
      <stop
         offset="0"
         style="stop-color:#595762;stop-opacity:1"
         id="stop7-6" />
      <stop
         offset="1"
         style="stop-color:#19181d;stop-opacity:1"
         id="stop9" />
    </linearGradient>
    <linearGradient
       id="linearGradient11"
       x1="-22.313999"
       y1="19.174"
       x2="-20.57"
       y2="19.174"
       gradientUnits="userSpaceOnUse">
      <stop
         offset="0"
         style="stop-color:#595762;stop-opacity:1"
         id="stop10" />
      <stop
         offset="1"
         style="stop-color:#19181d;stop-opacity:1"
         id="stop11" />
    </linearGradient>
    <linearGradient
       inkscape:collect="always"
       xlink:href="#b"
       id="linearGradient5"
       gradientUnits="userSpaceOnUse"
       gradientTransform="matrix(0.40728,0,0,0.40728,-14.196,12.746)"
       x1="-19.048"
       y1="15.822"
       x2="-16.219"
       y2="19.754999" />
    <linearGradient
       id="linearGradient13"
       x1="-17.44"
       y1="22.923001"
       x2="-11.656"
       y2="22.923001"
       gradientUnits="userSpaceOnUse">
      <stop
         offset="0"
         style="stop-color:#595762;stop-opacity:1"
         id="stop12" />
      <stop
         offset="1"
         style="stop-color:#19181d;stop-opacity:1"
         id="stop13" />
    </linearGradient>
    <linearGradient
       inkscape:collect="always"
       xlink:href="#c"
       id="linearGradient16"
       gradientUnits="userSpaceOnUse"
       gradientTransform="translate(3.244,7.893)"
       x1="-17.943001"
       y1="25.455999"
       x2="-17.943001"
       y2="10.12" />
    <linearGradient
       id="c">
      <stop
         offset="0"
         style="stop-color:#8d8e87;stop-opacity:1"
         id="stop16" />
      <stop
         offset="1"
         style="stop-color:#d8d7d2;stop-opacity:1"
         id="stop17" />
    </linearGradient>
    <linearGradient
       inkscape:collect="always"
       xlink:href="#b"
       id="linearGradient17"
       gradientUnits="userSpaceOnUse"
       gradientTransform="matrix(1.35016,0,0,1.35016,9.474,1.617)"
       x1="-19.048"
       y1="15.822"
       x2="-16.219"
       y2="19.754999" />
    <linearGradient
       id="linearGradient19"
       x1="-16.821684"
       y1="23.541317"
       x2="-12.274316"
       y2="23.541317"
       gradientUnits="userSpaceOnUse">
      <stop
         offset="0"
         style="stop-color:#595762;stop-opacity:1"
         id="stop18" />
      <stop
         offset="1"
         style="stop-color:#19181d;stop-opacity:1"
         id="stop19" />
    </linearGradient>
    <linearGradient
       inkscape:collect="always"
       xlink:href="#d"
       id="linearGradient18"
       gradientUnits="userSpaceOnUse"
       gradientTransform="translate(3.244,7.893)"
       x1="-17.987"
       y1="23.290001"
       x2="-17.987"
       y2="12.728" />
    <linearGradient
       id="d">
      <stop
         offset="0"
         style="stop-color:#fdfcf8;stop-opacity:1"
         id="stop34" />
      <stop
         offset="1"
         style="stop-color:#7e7160;stop-opacity:1"
         id="stop35" />
    </linearGradient>
    <linearGradient
       inkscape:collect="always"
       xlink:href="#b"
       id="linearGradient35"
       gradientUnits="userSpaceOnUse"
       gradientTransform="translate(3.244,7.893)"
       x1="-19.048"
       y1="15.822"
       x2="-16.219"
       y2="19.754999" />
    <linearGradient
       inkscape:collect="always"
       xlink:href="#b"
       id="linearGradient8"
       gradientUnits="userSpaceOnUse"
       gradientTransform="matrix(0.40728,0,0,0.40728,-0.44,24.253)"
       x1="-19.048"
       y1="15.822"
       x2="-16.219"
       y2="19.754999" />
    <linearGradient
       inkscape:collect="always"
       xlink:href="#b"
       id="linearGradient10"
       gradientUnits="userSpaceOnUse"
       gradientTransform="matrix(0.40728,0,0,0.40728,-14.196,12.746)"
       x1="-19.048"
       y1="15.822"
       x2="-16.219"
       y2="19.754999" />
    <linearGradient
       inkscape:collect="always"
       xlink:href="#linearGradient13"
       id="linearGradient12"
       gradientUnits="userSpaceOnUse"
       x1="-17.44"
       y1="22.923001"
       x2="-11.656"
       y2="22.923001" />
    <linearGradient
       inkscape:collect="always"
       xlink:href="#c"
       id="linearGradient14"
       gradientUnits="userSpaceOnUse"
       gradientTransform="translate(3.244,7.893)"
       x1="-17.943001"
       y1="25.455999"
       x2="-17.943001"
       y2="10.12" />
    <linearGradient
       inkscape:collect="always"
       xlink:href="#b"
       id="linearGradient15"
       gradientUnits="userSpaceOnUse"
       gradientTransform="matrix(3.40735,0,0,3.40735,46.075,-35.253)"
       x1="-19.048"
       y1="15.822"
       x2="-16.219"
       y2="19.754999" />
    <linearGradient
       inkscape:collect="always"
       xlink:href="#linearGradient13"
       id="linearGradient20"
       gradientUnits="userSpaceOnUse"
       x1="-17.44"
       y1="22.923001"
       x2="-11.656"
       y2="22.923001" />
  </defs>
  <g
     id="g20"
     transform="translate(40.000237)">
    <g
       id="g37"
       transform="matrix(3.7795276,0,0,3.7795276,-291.02782,-353.76347)">
      <g
         id="g87"
         transform="matrix(0.07517471,0,0,0.07517471,61.935484,86.80398)"
         style="stroke-width:13.3023">
        <path
           fill="url(#a)"
           fill-rule="evenodd"
           d="m 93.398696,94.322449 c 0.423,0 0.82338,-0.05321 1.21047,-0.162283 a 111.34502,111.34502 0 0 1 15.158294,0.03991 c 4.5789,0.359151 9.01335,1.351471 13.30361,2.980952 7.12688,2.935192 12.0084,8.024362 14.63393,15.274412 1.50271,4.36408 2.38968,8.84788 2.66064,13.45845 a 98.333592,98.333592 0 0 1 -0.40172,17.32623 41.811134,41.811134 0 0 1 -3.14642,11.68463 c -2.9916,6.48626 -7.84492,10.95956 -14.55293,13.41961 a 54.987975,54.987975 0 0 1 -16.77021,2.90352 75.362104,75.362104 0 0 1 -19.191554,-1.45004 c -11.65644,-2.59731 -18.84318,-9.70304 -21.56727,-21.31731 a 67.028034,67.028034 0 0 1 -1.57321,-15.87621 65.074736,65.074736 0 0 1 1.81251,-16.84416 c 2.85778,-10.86098 9.74895,-17.590138 20.68389,-20.187596 a 49.106965,49.106965 0 0 1 7.74276,-1.249046 z"
           clip-rule="evenodd"
           id="path1-7"
           style="fill:url(#a);stroke-width:3.51956" />
        <g
           style="stroke-width:1.01971"
           id="g22"
           transform="matrix(3.5194558,0,0,3.5194558,59.625966,90.401787)">
          <g
             style="stroke-width:1.01971"
             transform="matrix(0.87524,0,0,0.87519,24.75,-10.593)"
             id="g14">
            <circle
               cx="-7.6849999"
               cy="20.046"
               r="0.87199998"
               style="opacity:1;fill:url(#linearGradient1);fill-opacity:1;stroke:none;stroke-width:0.107265;stroke-linecap:round;stroke-linejoin:round;stroke-dasharray:none;stroke-dashoffset:1.89038;stroke-opacity:1;paint-order:stroke markers fill"
               id="circle8" />
            <circle
               cx="-7.6849999"
               cy="31.552999"
               r="0.87199998"
               style="opacity:1;fill:url(#linearGradient8);fill-opacity:1;stroke:none;stroke-width:0.107265;stroke-linecap:round;stroke-linejoin:round;stroke-dasharray:none;stroke-dashoffset:1.89038;stroke-opacity:1;paint-order:stroke markers fill"
               id="circle9" />
            <circle
               cx="-21.441999"
               cy="31.552999"
               r="0.87199998"
               style="opacity:1;fill:url(#linearGradient3);fill-opacity:1;stroke:none;stroke-width:0.107265;stroke-linecap:round;stroke-linejoin:round;stroke-dasharray:none;stroke-dashoffset:1.89038;stroke-opacity:1;paint-order:stroke markers fill"
               id="circle10" />
            <circle
               cx="-14.548"
               cy="25.815001"
               r="7.2979999"
               style="opacity:1;fill:url(#linearGradient4);fill-opacity:1;stroke:none;stroke-width:0.897387;stroke-linecap:round;stroke-linejoin:round;stroke-dasharray:none;stroke-dashoffset:1.89038;stroke-opacity:1;paint-order:stroke markers fill"
               id="circle11" />
            <circle
               cx="-21.441999"
               cy="20.046"
               r="0.87199998"
               style="opacity:1;fill:url(#linearGradient11);fill-opacity:1;stroke:none;stroke-width:0.107265;stroke-linecap:round;stroke-linejoin:round;stroke-dasharray:none;stroke-dashoffset:1.89038;stroke-opacity:1;paint-order:stroke markers fill"
               id="circle12" />
            <path
               d="m -14.549,17.741 a 8.073,8.073 0 0 0 -5.334,2.02 1.596,1.596 0 0 0 -1.566,-1.305 1.596,1.596 0 0 0 -1.596,1.596 1.596,1.596 0 0 0 1.596,1.596 1.596,1.596 0 0 0 0.002,0 8.073,8.073 0 0 0 -1.174,4.168 8.073,8.073 0 0 0 1.162,4.142 1.596,1.596 0 0 0 -1.586,1.596 1.596,1.596 0 0 0 1.596,1.596 1.596,1.596 0 0 0 1.563,-1.287 8.073,8.073 0 0 0 5.337,2.025 8.073,8.073 0 0 0 5.309,-1.992 1.596,1.596 0 0 0 1.555,1.254 1.596,1.596 0 0 0 1.595,-1.596 1.596,1.596 0 0 0 -1.546,-1.592 8.073,8.073 0 0 0 1.162,-4.146 8.073,8.073 0 0 0 -1.162,-4.172 1.596,1.596 0 0 0 1.546,-1.592 1.596,1.596 0 0 0 -1.595,-1.596 1.596,1.596 0 0 0 -1.559,1.276 8.073,8.073 0 0 0 -5.305,-1.99 z m 0,1.155 a 6.92,6.92 0 0 1 6.92,6.92 6.92,6.92 0 0 1 -6.92,6.92 6.92,6.92 0 0 1 -6.92,-6.92 6.92,6.92 0 0 1 6.92,-6.92 z m -6.9,0.299 a 0.858,0.858 0 0 1 0.857,0.857 0.858,0.858 0 0 1 -0.857,0.857 0.858,0.858 0 0 1 -0.857,-0.857 0.858,0.858 0 0 1 0.857,-0.857 z m 13.764,0 a 0.858,0.858 0 0 1 0.857,0.857 0.858,0.858 0 0 1 -0.857,0.857 0.858,0.858 0 0 1 -0.858,-0.857 0.858,0.858 0 0 1 0.858,-0.857 z M -21.45,30.697 a 0.858,0.858 0 0 1 0.857,0.857 0.858,0.858 0 0 1 -0.857,0.857 0.858,0.858 0 0 1 -0.857,-0.857 0.858,0.858 0 0 1 0.857,-0.857 z m 13.764,0 a 0.858,0.858 0 0 1 0.857,0.857 0.858,0.858 0 0 1 -0.857,0.857 0.858,0.858 0 0 1 -0.858,-0.857 0.858,0.858 0 0 1 0.858,-0.857 z"
               style="opacity:1;fill:url(#linearGradient10);fill-opacity:1;stroke:none;stroke-width:0.992694;stroke-linecap:round;stroke-linejoin:round;stroke-dasharray:none;stroke-dashoffset:1.89038;stroke-opacity:1;paint-order:stroke markers fill"
               id="path12" />
            <circle
               cx="-14.548"
               cy="25.815001"
               r="2.892"
               style="opacity:1;fill:url(#linearGradient12);fill-opacity:1;stroke:none;stroke-width:0.355589;stroke-linecap:round;stroke-linejoin:round;stroke-dasharray:none;stroke-dashoffset:1.89038;stroke-opacity:1;paint-order:stroke markers fill"
               id="circle13" />
            <path
               d="m -14.549,20.16 a 5.657,5.657 0 0 0 -5.656,5.656 5.657,5.657 0 0 0 5.656,5.656 5.657,5.657 0 0 0 5.659,-5.656 5.657,5.657 0 0 0 -5.659,-5.657 z m 0,2.964 a 2.691,2.691 0 0 1 2.692,2.692 2.691,2.691 0 0 1 -2.692,2.691 2.691,2.691 0 0 1 -2.69,-2.691 2.691,2.691 0 0 1 2.69,-2.692 z"
               style="opacity:1;fill:url(#linearGradient6);fill-opacity:1;stroke:none;stroke-width:0.69556;stroke-linecap:round;stroke-linejoin:round;stroke-dasharray:none;stroke-dashoffset:1.89038;stroke-opacity:1;paint-order:stroke markers fill"
               id="path13" />
            <circle
               cx="-14.548"
               cy="25.815001"
               r="2.142"
               style="opacity:1;fill:url(#linearGradient14);fill-opacity:1;stroke:none;stroke-width:0.263368;stroke-linecap:round;stroke-linejoin:round;stroke-dasharray:none;stroke-dashoffset:1.89038;stroke-opacity:1;paint-order:stroke markers fill"
               id="circle14" />
          </g>
          <g
             style="stroke:#535551;stroke-width:1.01971;stroke-linecap:round;stroke-linejoin:round;stroke-opacity:0.2;paint-order:stroke markers fill"
             transform="matrix(0.87524,0,0,0.87519,24.75,-10.593)"
             id="g21">
            <circle
               cx="-7.6849999"
               cy="20.046"
               r="0.87199998"
               style="opacity:1;fill:url(#linearGradient15);fill-opacity:1;stroke:#535551;stroke-width:0.107265;stroke-linecap:round;stroke-linejoin:round;stroke-dasharray:none;stroke-dashoffset:1.89038;stroke-opacity:0.2;paint-order:stroke markers fill"
               id="circle15" />
            <circle
               cx="-7.6849999"
               cy="31.552999"
               r="0.87199998"
               style="opacity:1;fill:url(#linearGradient2);fill-opacity:1;stroke:#535551;stroke-width:0.107265;stroke-linecap:round;stroke-linejoin:round;stroke-dasharray:none;stroke-dashoffset:1.89038;stroke-opacity:0.2;paint-order:stroke markers fill"
               id="circle16" />
            <circle
               cx="-21.441999"
               cy="31.552999"
               r="0.87199998"
               style="opacity:1;fill:url(#linearGradient9);fill-opacity:1;stroke:#535551;stroke-width:0.107265;stroke-linecap:round;stroke-linejoin:round;stroke-dasharray:none;stroke-dashoffset:1.89038;stroke-opacity:0.2;paint-order:stroke markers fill"
               id="circle17" />
            <circle
               cx="-14.548"
               cy="25.815001"
               r="7.2979999"
               style="opacity:1;fill:url(#linearGradient7);fill-opacity:1;stroke:#535551;stroke-width:0.897387;stroke-linecap:round;stroke-linejoin:round;stroke-dasharray:none;stroke-dashoffset:1.89038;stroke-opacity:0.2;paint-order:stroke markers fill"
               id="circle18" />
            <circle
               cx="-21.441999"
               cy="20.046"
               r="0.87199998"
               style="opacity:1;fill:url(#linearGradient5);fill-opacity:1;stroke:#535551;stroke-width:0.107265;stroke-linecap:round;stroke-linejoin:round;stroke-dasharray:none;stroke-dashoffset:1.89038;stroke-opacity:0.2;paint-order:stroke markers fill"
               id="circle19" />
            <path
               d="m -14.549,17.741 a 8.073,8.073 0 0 0 -5.334,2.02 1.596,1.596 0 0 0 -1.566,-1.305 1.596,1.596 0 0 0 -1.596,1.596 1.596,1.596 0 0 0 1.596,1.596 1.596,1.596 0 0 0 0.002,0 8.073,8.073 0 0 0 -1.174,4.168 8.073,8.073 0 0 0 1.162,4.142 1.596,1.596 0 0 0 -1.586,1.596 1.596,1.596 0 0 0 1.596,1.596 1.596,1.596 0 0 0 1.563,-1.287 8.073,8.073 0 0 0 5.337,2.025 8.073,8.073 0 0 0 5.309,-1.992 1.596,1.596 0 0 0 1.555,1.254 1.596,1.596 0 0 0 1.595,-1.596 1.596,1.596 0 0 0 -1.546,-1.592 8.073,8.073 0 0 0 1.162,-4.146 8.073,8.073 0 0 0 -1.162,-4.172 1.596,1.596 0 0 0 1.546,-1.592 1.596,1.596 0 0 0 -1.595,-1.596 1.596,1.596 0 0 0 -1.559,1.276 8.073,8.073 0 0 0 -5.305,-1.99 z m 0,1.155 a 6.92,6.92 0 0 1 6.92,6.92 6.92,6.92 0 0 1 -6.92,6.92 6.92,6.92 0 0 1 -6.92,-6.92 6.92,6.92 0 0 1 6.92,-6.92 z m -6.9,0.299 a 0.858,0.858 0 0 1 0.857,0.857 0.858,0.858 0 0 1 -0.857,0.857 0.858,0.858 0 0 1 -0.857,-0.857 0.858,0.858 0 0 1 0.857,-0.857 z m 13.764,0 a 0.858,0.858 0 0 1 0.857,0.857 0.858,0.858 0 0 1 -0.857,0.857 0.858,0.858 0 0 1 -0.858,-0.857 0.858,0.858 0 0 1 0.858,-0.857 z M -21.45,30.697 a 0.858,0.858 0 0 1 0.857,0.857 0.858,0.858 0 0 1 -0.857,0.857 0.858,0.858 0 0 1 -0.857,-0.857 0.858,0.858 0 0 1 0.857,-0.857 z m 13.764,0 a 0.858,0.858 0 0 1 0.857,0.857 0.858,0.858 0 0 1 -0.857,0.857 0.858,0.858 0 0 1 -0.858,-0.857 0.858,0.858 0 0 1 0.858,-0.857 z"
               style="opacity:1;fill:url(#linearGradient16);fill-opacity:1;stroke:#535551;stroke-width:0.992694;stroke-linecap:round;stroke-linejoin:round;stroke-dasharray:none;stroke-dashoffset:1.89038;stroke-opacity:0.2;paint-order:stroke markers fill"
               id="path19" />
            <circle
               cx="-14.548"
               cy="25.815001"
               r="2.892"
               style="opacity:1;fill:url(#linearGradient20);fill-opacity:1;stroke:#535551;stroke-width:0.355589;stroke-linecap:round;stroke-linejoin:round;stroke-dasharray:none;stroke-dashoffset:1.89038;stroke-opacity:0.2;paint-order:stroke markers fill"
               id="circle20" />
            <path
               d="m -14.549,20.16 a 5.657,5.657 0 0 0 -5.656,5.656 5.657,5.657 0 0 0 5.656,5.656 5.657,5.657 0 0 0 5.659,-5.656 5.657,5.657 0 0 0 -5.659,-5.657 z m 0,2.964 a 2.691,2.691 0 0 1 2.692,2.692 2.691,2.691 0 0 1 -2.692,2.691 2.691,2.691 0 0 1 -2.69,-2.691 2.691,2.691 0 0 1 2.69,-2.692 z"
               style="opacity:1;fill:url(#linearGradient18);fill-opacity:1;stroke:#535551;stroke-width:0.69556;stroke-linecap:round;stroke-linejoin:round;stroke-dasharray:none;stroke-dashoffset:1.89038;stroke-opacity:0.2;paint-order:stroke markers fill"
               id="path20" />
            <circle
               cx="-14.548"
               cy="25.815001"
               r="2.142"
               style="opacity:1;fill:url(#linearGradient19);fill-opacity:1;stroke:#535551;stroke-width:0.263368;stroke-linecap:round;stroke-linejoin:round;stroke-dasharray:none;stroke-dashoffset:1.89038;stroke-opacity:0.2;paint-order:stroke markers fill"
               id="circle21" />
          </g>
        </g>
      </g>
      <path
         id="path3-7"
         d="m 71.299578,96.613611 a 2.249,2.249 0 0 0 -2.249,2.249 2.249,2.249 0 0 0 0.152,0.81 c 0.22,0.015 0.44,0.016 0.662,0.004 0.433,-0.007 0.854,-0.08 1.262,-0.218 0.504,-0.185 0.87,-0.52 1.094,-1.008 0.121,-0.281 0.2,-0.574 0.237,-0.878 0.023,-0.204 0.036,-0.408 0.042,-0.613 a 2.249,2.249 0 0 0 -1.2,-0.346 z"
         style="fill:#006699;fill-opacity:1;stroke-width:0.531281;paint-order:markers stroke fill" />
      <path
         id="path88"
         style="fill:#f2f2f2;fill-opacity:1;stroke-width:0.531281;paint-order:markers stroke fill"
         d="m 71.274719,97.538232 c -0.203236,0 -0.366903,0.163667 -0.366903,0.366903 v 0.611332 c 0,0.203236 0.163667,0.366903 0.366903,0.366903 0.203236,0 0.366903,-0.163667 0.366903,-0.366903 v -0.611332 c 0,-0.203236 -0.163667,-0.366903 -0.366903,-0.366903 z m -0.550354,0.733806 c -0.03387,0 -0.06098,0.02711 -0.06098,0.06098 v 0.183451 c 0,0.318037 0.240608,0.577685 0.550354,0.608232 v 0.248047 h -0.24443 c -0.03387,0 -0.0615,0.02711 -0.0615,0.06098 0,0.03387 0.02763,0.06098 0.0615,0.06098 h 0.04289 c 0.03818,-0.01171 0.07625,-0.02334 0.114205,-0.03617 0.07265,-0.02667 0.142389,-0.05701 0.209289,-0.08992 v -0.243913 c 0.309745,-0.03055 0.550354,-0.290195 0.550354,-0.608232 v -0.183451 c 0,-0.03387 -0.02711,-0.06098 -0.06098,-0.06098 -0.03387,0 -0.06098,0.02711 -0.06098,0.06098 v 0.183451 c 0,0.270982 -0.218394,0.489376 -0.489376,0.489376 -0.270981,0 -0.488859,-0.218394 -0.488859,-0.489376 v -0.183451 c 0,-0.03387 -0.02763,-0.06098 -0.06149,-0.06098 z" />
    </g>
  </g>
</svg>
