<?xml version="1.0" encoding="UTF-8" standalone="no"?>
<svg
   width="24"
   height="24"
   viewBox="0 0 6.349875 6.349875"
   version="1.1"
   id="svg10669"
   sodipodi:docname="network-01.svg"
   xml:space="preserve"
   inkscape:version="1.2.2 (b0a8486541, 2022-12-01)"
   inkscape:export-filename="network-01.svg"
   inkscape:export-xdpi="512"
   inkscape:export-ydpi="512"
   xmlns:inkscape="http://www.inkscape.org/namespaces/inkscape"
   xmlns:sodipodi="http://sodipodi.sourceforge.net/DTD/sodipodi-0.dtd"
   xmlns="http://www.w3.org/2000/svg"
   xmlns:svg="http://www.w3.org/2000/svg"><defs
     id="defs10673"><radialGradient
       id="paint0_radial_3_321"
       cx="0"
       cy="0"
       r="1"
       gradientUnits="userSpaceOnUse"
       gradientTransform="matrix(0,5.8207186,-5.8207186,0,3.1749346,0.2645817)"><stop
         stop-color="#555555"
         id="stop255"
         offset="0"
         style="stop-color:#818181;stop-opacity:1;" /><stop
         offset="1"
         stop-color="#222222"
         id="stop257"
         style="stop-color:#35393c;stop-opacity:1;" /></radialGradient><radialGradient
       id="paint0_radial_0_1"
       cx="0"
       cy="0"
       r="1"
       gradientUnits="userSpaceOnUse"
       gradientTransform="matrix(0,2.9103593,-2.9103593,0,3.1749362,0.26458202)"><stop
         stop-color="#6EBBF7"
         id="stop322" /><stop
         offset="1"
         stop-color="#2196F3"
         id="stop324" /></radialGradient></defs><sodipodi:namedview
     id="namedview10671"
     pagecolor="#ffffff"
     bordercolor="#000000"
     borderopacity="0.25"
     inkscape:showpageshadow="2"
     inkscape:pageopacity="0.0"
     inkscape:pagecheckerboard="0"
     inkscape:deskcolor="#d1d1d1"
     showgrid="false"
     inkscape:zoom="13.65625"
     inkscape:cx="-5.2723112"
     inkscape:cy="18.709382"
     inkscape:window-width="1280"
     inkscape:window-height="1000"
     inkscape:window-x="2960"
     inkscape:window-y="0"
     inkscape:window-maximized="0"
     inkscape:current-layer="svg10669" /><path
     fill-rule="evenodd"
     clip-rule="evenodd"
     d="m 2.5389012,0.29463542 c 0.03171,3.361e-4 0.06202,-0.0037 0.09092,-0.012118 0.379884,-0.024885 0.759713,-0.023875 1.139541,0.00303 0.344401,0.026834 0.677796,0.1015557 1.000158,0.2241664 0.53593,0.2206423 0.902661,0.60334398 1.100143,1.14809978 0.112948,0.3279789 0.179622,0.665242 0.200047,1.0117837 0.02823,0.4351516 0.01812,0.8693506 -0.03032,1.3025976 -0.03625,0.304503 -0.115065,0.597338 -0.2364,0.878478 -0.22505,0.487486 -0.589745,0.823738 -1.094084,1.008757 -0.408693,0.138084 -0.828949,0.21079 -1.260794,0.218092 -0.485739,0.02527 -0.966601,-0.01109 -1.44262,-0.109032 -0.876171,-0.19518 -1.41665202,-0.729363 -1.62143802,-1.602497 -0.08691,-0.393057 -0.126304,-0.790904 -0.1182,-1.193539 -0.0097,-0.4281397 0.03576,-0.8502238 0.136385,-1.2662412 0.214678,-0.8163902 0.73293102,-1.32228198 1.55476102,-1.51767028 0.191499,-0.046817 0.385467,-0.078119 0.581901,-0.093907 z"
     fill="url(#paint0_radial_0_1)"
     id="path318"
     style="fill:url(#paint0_radial_0_1);stroke-width:0.264578" /><path
     id="circle1009"
     style="fill:#f9f9f9;fill-opacity:1;stroke-width:0.531281;paint-order:markers stroke fill"
     d="m 4.8822916,3.0137102 a 2.248914,2.248914 0 0 0 -2.2489135,2.248914 2.248914,2.248914 0 0 0 0.151926,0.810787 c 0.219858,0.01428 0.440337,0.01554 0.661962,0.0036 0.432849,-0.0071 0.853241,-0.08014 1.2613965,-0.218073 0.504109,-0.184499 0.8692545,-0.520306 1.0939675,-1.008187 0.121354,-0.281158 0.200149,-0.573525 0.237192,-0.877966 0.02273,-0.204203 0.03611,-0.408086 0.04186,-0.612353 A 2.248914,2.248914 0 0 0 4.8822946,3.0137102 Z" /><path
     d="m 3.1744372,1.0583127 q 0.2920172,0 0.5620332,0.077005 0.271016,0.074004 0.5070299,0.2130126 0.2350139,0.136008 0.4280253,0.3300194 0.1940114,0.1930114 0.3300195,0.4280253 0.1390082,0.236014 0.2130126,0.50703 0.077005,0.270016 0.077005,0.5620332 0,0.2910172 -0.077005,0.5620332 Q 5.1405533,4.0074869 5.0015451,4.2435008 4.865537,4.4795147 4.6715256,4.6735262 4.4785142,4.8665376 4.2435003,5.0045457 4.0074864,5.1415538 3.7364704,5.2175583 3.4664544,5.2915623 3.1744372,5.2915623 2.88342,5.2915623 2.612404,5.2175583 2.342388,5.1415538 2.1063741,5.0045457 1.8703602,4.8665376 1.6763487,4.6745263 1.4833373,4.4795147 1.3453292,4.2445009 1.2083211,4.0084869 1.1323166,3.739471 1.0583123,3.4694551 1.0583123,3.1754377 q 0,-0.2920172 0.074004,-0.5620332 Q 1.2083211,2.3423885 1.3453292,2.1063746 1.4833373,1.8713607 1.6753486,1.6783493 1.8703602,1.4843379 2.105374,1.3483298 2.341388,1.2093216 2.6104039,1.1353172 2.8804198,1.0583127 3.1744372,1.0583127 Z M 4.8465359,2.3813908 Q 4.7685313,2.214381 4.6565247,2.0673723 4.5455181,1.9183635 4.4085101,1.7973563 4.271502,1.6763492 4.1134926,1.5793435 3.9534832,1.4843379 3.780473,1.4243343 q 0.074004,0.1030061 0.1340079,0.220013 0.060003,0.1150068 0.1060062,0.2390141 0.047003,0.1220072 0.080005,0.2480147 0.033002,0.1260074 0.058003,0.2500147 z m 0.1800107,0.7940469 q 0,-0.2750162 -0.076004,-0.5300313 H 4.2004978 q 0.016001,0.1330079 0.024001,0.2650157 0.008,0.1300077 0.008,0.2650156 0,0.1340079 -0.008,0.2660157 -0.008,0.1300077 -0.025002,0.2630156 H 4.9495411 Q 5.0265461,3.450454 5.0265461,3.1744377 Z M 3.1744372,5.0275471 q 0.102006,0 0.1880111,-0.056003 Q 3.4524533,4.9155411 3.526458,4.8245354 3.600462,4.7345304 3.6584658,4.6205234 3.7184698,4.5045165 3.763472,4.3865095 3.809475,4.2685026 3.840477,4.1594961 3.870479,4.0494896 3.88748,3.9694849 H 2.4613951 q 0.017001,0.080005 0.048003,0.1900112 0.030002,0.1100065 0.076005,0.2270134 0.046003,0.118007 0.1040061,0.2340139 0.060004,0.1130066 0.1340079,0.204012 0.074004,0.091005 0.1610096,0.1470087 0.089005,0.056003 0.1900105,0.056003 z M 3.933482,3.704469 Q 3.949483,3.5724612 3.958484,3.4414534 3.968485,3.3094456 3.968485,3.1754377 q 0,-0.1350079 -0.010001,-0.2650156 -0.009,-0.1320078 -0.025002,-0.2640156 H 2.4163924 q -0.017001,0.1320078 -0.027002,0.2640156 -0.009,0.1300077 -0.009,0.2650156 0,0.1340079 0.009,0.2660157 0.010001,0.1300077 0.027002,0.2630156 z M 1.3233279,3.1744377 q 0,0.2760163 0.076005,0.5300313 h 0.7500442 q -0.016001,-0.1320078 -0.025001,-0.2630156 -0.008,-0.1320078 -0.008,-0.2660157 0,-0.1350079 0.008,-0.2650156 0.009,-0.1320078 0.025001,-0.2640156 H 1.3993324 q -0.077005,0.254015 -0.077005,0.5290312 z M 3.1734371,1.3243284 q -0.1010059,0 -0.1900112,0.056003 -0.087005,0.055003 -0.1610095,0.1460086 -0.075004,0.091005 -0.135008,0.2070123 -0.057003,0.1140067 -0.1030061,0.2320137 -0.045003,0.1170069 -0.076004,0.2270134 -0.031002,0.1100065 -0.048003,0.1900112 H 3.8864792 Q 3.8704783,2.3023862 3.8394764,2.1923797 3.8084746,2.0823732 3.7624719,1.9653663 3.7174692,1.8473593 3.6574657,1.7333526 3.5994623,1.6173457 3.5254579,1.5263403 3.4504535,1.436335 3.3614482,1.3803317 3.2744431,1.3243284 3.1734371,1.3243284 Z M 2.5684014,1.4253344 Q 2.3943911,1.4853379 2.2353817,1.5803435 2.0753723,1.6753491 1.9393642,1.7973563 1.8033562,1.9193635 1.6913496,2.0673723 1.580343,2.215381 1.5013384,2.3823909 H 2.189379 Q 2.2143805,2.2583836 2.2473824,2.1323761 2.2803844,2.0063687 2.3263871,1.8843615 2.3733899,1.7603542 2.4333934,1.6443473 2.493397,1.5283405 2.5684014,1.4253344 Z M 1.5023384,3.9694846 Q 1.5813431,4.1364945 1.6923497,4.2855033 1.8043563,4.432512 1.9403643,4.5545192 2.0773724,4.6755263 2.2363818,4.771532 2.3953912,4.8675376 2.5694014,4.9265411 2.494397,4.822535 2.4343935,4.7065281 2.3743899,4.5905213 2.3273872,4.4695141 2.2813844,4.3455068 2.2483825,4.2194994 2.2153805,4.0934919 2.1903791,3.9694846 Z M 3.780473,4.9265411 Q 3.9544832,4.8665376 4.1134926,4.771532 4.272502,4.6755263 4.4085101,4.5545192 4.5455181,4.432512 4.6565247,4.2845032 4.7685313,4.1364945 4.8465359,3.9694846 H 4.1594953 Q 4.1344939,4.0934919 4.1014919,4.2194994 4.06849,4.3455068 4.0214872,4.4695141 3.9754845,4.5915213 3.9154809,4.7065281 3.8554774,4.822535 3.781473,4.9265411 Z"
     fill="#ffffff"
     opacity="0.35"
     stroke-linecap="round"
     stroke-linejoin="round"
     stroke-width="0.706042"
     style="paint-order:stroke fill markers"
     aria-label=""
     id="path10927" /><path
     id="path1011"
     style="font-variant-ligatures:normal;font-variant-position:normal;font-variant-caps:normal;font-variant-numeric:normal;font-variant-alternates:normal;font-variant-east-asian:normal;font-feature-settings:normal;font-variation-settings:normal;text-indent:0;text-decoration-line:none;text-decoration-style:solid;text-decoration-color:#000000;text-transform:none;text-orientation:mixed;white-space:normal;shape-padding:0;shape-margin:0;inline-size:0;isolation:auto;mix-blend-mode:normal;fill:#666666;fill-opacity:1;stroke-width:0.531281"
     d="m 4.7784246,3.5764552 a 0.41918102,0.41918102 0 0 0 -0.4185705,0.418571 0.20719975,0.20719975 0 0 1 -0.208769,0.206185 0.19498027,0.19498027 0 0 1 -0.09715,-0.02739 0.10519372,0.10519372 0 0 0 -0.0015,-5.17e-4 0.42183743,0.42183743 0 0 0 -0.572564,0.154509 l -0.109035,0.178797 a 0.10519372,0.10519372 0 0 0 -10e-4,0.0026 0.42130615,0.42130615 0 0 0 0.152443,0.572564 0.20879359,0.20879359 0 0 1 0,0.362761 0.42024359,0.42024359 0 0 0 -0.152443,0.57153 l 0.03617,0.06304 c 0.01385,-6.42e-4 0.02748,-0.0013 0.04134,-0.0021 0.06589,-0.0011 0.131575,-0.0036 0.196884,-0.0077 l -0.09147,-0.158155 a 0.20613718,0.20613718 0 0 1 0.07545,-0.283698 0.42077487,0.42077487 0 0 0 0,-0.728107 0.20719975,0.20719975 0 0 1 -0.07545,-0.285248 l 0.108001,-0.17828 a 0.10519372,0.10519372 0 0 0 0.0015,-0.0021 0.20773103,0.20773103 0 0 1 0.285765,-0.07803 0.40749283,0.40749283 0 0 0 0.201534,0.05633 0.10519372,0.10519372 0 0 0 10e-4,0 c 0.228451,0 0.416417,-0.185986 0.419605,-0.414437 a 0.10519372,0.10519372 0 0 0 5.17e-4,0 0.10519372,0.10519372 0 0 0 0,-5.17e-4 0.10519372,0.10519372 0 0 0 0,-5.16e-4 0.10519372,0.10519372 0 0 0 -5.17e-4,-5.17e-4 0.20719975,0.20719975 0 0 1 0.2087685,-0.208769 h 0.205668 a 0.20932487,0.20932487 0 0 1 0.209802,0.215487 0.10519372,0.10519372 0 0 0 0,0.0041 0.41864974,0.41864974 0 0 0 0.6288905,0.352426 0.20719975,0.20719975 0 0 1 0.150375,-0.02325 c 0.01631,-0.06781 0.0305,-0.136078 0.04237,-0.205152 a 0.42183743,0.42183743 0 0 0 -0.297133,0.04496 0.10519372,0.10519372 0 0 0 -0.0015,10e-4 0.20773103,0.20773103 0 0 1 -0.284729,-0.0744 0.19498027,0.19498027 0 0 1 -0.02739,-0.09767 0.42077487,0.42077487 0 0 0 -0.4201215,-0.42839 h -0.206185 z m 0.103867,1.054178 c -0.3485195,0 -0.6325065,0.284002 -0.6325065,0.631991 0,0.280863 0.18485,0.521036 0.439241,0.603052 0.0066,-0.0022 0.01306,-0.0045 0.01964,-0.0067 0.326512,-0.1195 0.59456,-0.302536 0.80407,-0.54931 0.0011,-0.01533 0.0015,-0.0309 0.0015,-0.04651 0,-0.347989 -0.284002,-0.63199 -0.631991,-0.63199 z m 0,0.210836 c 0.233764,0 0.4211555,0.187377 0.4211555,0.421671 0,0.234295 -0.1873915,0.421672 -0.4211555,0.421672 -0.2337625,0 -0.4216705,-0.187908 -0.4216705,-0.421672 0,-0.233763 0.187376,-0.421671 0.4216705,-0.421671 z" /></svg>
