<svg xmlns="http://www.w3.org/2000/svg" width="24" height="24" viewBox="0 0 6.35 6.35"><defs><radialGradient id="a" cx="0" cy="0" r="1" gradientTransform="rotate(90 1.455 1.72) scale(2.91036)" gradientUnits="userSpaceOnUse"><stop stop-color="#6EBBF7"/><stop offset="1" stop-color="#2196F3"/></radialGradient></defs><path fill="url(#a)" fill-rule="evenodd" d="M2.539.295a.312.312 0 0 0 .09-.012c.38-.025.76-.024 1.14.003.345.026.678.101 1 .224.536.22.903.603 1.1 1.148.114.328.18.665.2 1.012.029.435.019.869-.03 1.302a3.143 3.143 0 0 1-.236.879 1.87 1.87 0 0 1-1.094 1.008c-.409.139-.829.211-1.26.219a5.668 5.668 0 0 1-1.444-.11C1.13 5.773.59 5.24.385 4.366a5.04 5.04 0 0 1-.12-1.194c-.009-.428.037-.85.137-1.266C.617 1.09 1.135.584 1.957.39c.192-.047.385-.079.582-.094Z" clip-rule="evenodd" style="fill:url(#a);stroke-width:.264578"/><g fill="#fff" transform="matrix(.26458 0 0 .26458 -9.727 1.019)"><rect width="9.536" height=".795" x="43.995" y="2.286" opacity=".35" rx=".397" ry=".397" style="stroke-width:.397337;paint-order:stroke fill markers"/><rect width="7.152" height=".795" x="45.187" y="3.875" opacity=".35" rx=".397" ry=".397" style="stroke-width:.397337;paint-order:stroke fill markers"/><rect width="4.768" height=".795" x="46.379" y="5.465" opacity=".35" rx=".397" ry=".397" style="stroke-width:.397337;paint-order:stroke fill markers"/></g><path d="M4.885 3.02a2.249 2.249 0 0 0-2.249 2.248 2.249 2.249 0 0 0 .15.807c.22.014.443.015.666.004.432-.007.851-.08 1.26-.218a1.87 1.87 0 0 0 1.095-1.009c.12-.281.2-.574.236-.878.022-.203.036-.405.042-.608a2.249 2.249 0 0 0-1.2-.347Z" style="fill:#bfd6ef;fill-opacity:1;fill-rule:evenodd;stroke-width:.12494;paint-order:fill markers stroke"/><path d="M4.857 3.562a1.672 1.672 0 0 0-1.672 1.672 1.672 1.672 0 0 0 .234.846l.033-.001c.26-.005.515-.033.767-.085a.456.456 0 0 0-.101-.057c-.1-.043-.032-.066-.142-.098-.11-.033-.235.163-.268.098-.032-.065.105-.065.105-.142 0-.074-.158.056-.186-.038 0-.004-.005-.004-.006-.006-.002-.014 0-.022 0-.033.007-.078.098-.109.137-.185.044-.087.022.066.076.142.056.076.033-.098 0-.196-.032-.099.021-.099.098-.229s.076-.207.076-.305.054-.109.164-.207a1.17 1.17 0 0 0 .12-.12c.007-.004.014-.004.022-.006.116-.047.166-.117.267-.327.101-.21-.04-.014-.07-.022-.032-.008-.077-.063-.186-.125a.175.175 0 0 0-.06-.022l.202-.332c.065-.018.134-.03.2-.039.026.142.012.273.012.273s-.038.045-.038.076c0 .032.209-.257.24-.273.031-.015.11.083.125-.065v-.015c.163.015.32.051.464.114a.14.14 0 0 0-.028.049c-.044.132-.109.069-.032.234.077.166.142.208.163.13.023-.076-.055-.184.033-.14.088.044.153-.012.087.087-.066.099-.064.152-.142.13-.077-.022-.076.13-.152.153-.077.022-.104-.033-.104.022s.044.004.033.093c-.003.026-.002.031-.005.043-.073-.02-.105-.032-.159-.01-.055.02-.12.162-.12.162.07.07.101.119.126.143-.016.006-.034.01-.05.02-.11.078-.195.092-.228.202-.033.11-.022.01-.022.142 0 .132-.034.043.032.164.046.083.135.136.213.183.257-.166.462-.386.616-.662-.275-.068-.41-.091-.496-.077.002-.004.004-.003.006-.005.047-.087.138-.207.108-.251.042-.024.075-.05.099-.044.01.004.019.015.028.033.032.077.087.141.043.152-.044.01-.066.023-.066.023s.153.099.164-.011c.01-.11-.043-.175-.043-.175s.075.076.097.12c.022.044.022 0 .076.055.056.055.043-.22.12-.142l.006.005c.076-.206.129-.419.16-.637a1.672 1.672 0 0 0-1.176-.484Zm.426.767c-.007.001-.014.003-.02.006 0 .038-.015.066-.023.082a.073.073 0 0 0-.016-.017c-.016.03-.052.058-.016.049.035-.008.063.014.039-.016-.006-.006-.003-.004-.007-.006.006.004.015.006.033.006h.05c-.027.02-.056.028-.016.038.052.014.076.017.076.006a.253.253 0 0 0-.017-.05c.01-.004.02-.009.01-.026-.015-.034-.041-.066-.075-.072a.055.055 0 0 0-.018 0z" style="fill:#fff;fill-opacity:1;fill-rule:evenodd;stroke-width:.12494;paint-order:fill markers stroke"/></svg>