<?xml version="1.0" encoding="UTF-8" standalone="no"?>
<svg
   xml:space="preserve"
   width="24"
   height="24"
   version="1.1"
   id="svg8"
   sodipodi:docname="sun-javaws32-jdk6.svg"
   inkscape:version="1.3 (0e150ed6c4, 2023-07-21)"
   xmlns:inkscape="http://www.inkscape.org/namespaces/inkscape"
   xmlns:sodipodi="http://sodipodi.sourceforge.net/DTD/sodipodi-0.dtd"
   xmlns="http://www.w3.org/2000/svg"
   xmlns:svg="http://www.w3.org/2000/svg"><sodipodi:namedview
     id="namedview8"
     pagecolor="#ffffff"
     bordercolor="#000000"
     borderopacity="0.25"
     inkscape:showpageshadow="2"
     inkscape:pageopacity="0.0"
     inkscape:pagecheckerboard="0"
     inkscape:deskcolor="#d1d1d1"
     inkscape:zoom="48.041667"
     inkscape:cx="12.010408"
     inkscape:cy="12"
     inkscape:window-width="2560"
     inkscape:window-height="998"
     inkscape:window-x="0"
     inkscape:window-y="360"
     inkscape:window-maximized="1"
     inkscape:current-layer="svg8" /><defs
     id="defs4"><linearGradient
       id="a"
       x1="12"
       x2="12"
       y1="0"
       y2="12"
       gradientTransform="matrix(.91667 0 0 .91667 1 1)"
       gradientUnits="userSpaceOnUse"><stop
         stop-color="#fff"
         id="stop1" /><stop
         offset="1"
         stop-color="#D9D9D9"
         id="stop2" /></linearGradient><linearGradient
       id="b"
       x1="12"
       x2="12"
       y1="0"
       y2="12"
       gradientTransform="matrix(.91667 0 0 .91667 1 1)"
       gradientUnits="userSpaceOnUse"><stop
         stop-color="#fff"
         id="stop3" /><stop
         offset="1"
         stop-color="#D9D9D9"
         id="stop4" /></linearGradient></defs><path
     fill="url(#a)"
     fill-rule="evenodd"
     d="M9.596 1.114c.12 0 .234-.015.344-.046a31.621 31.621 0 0 1 4.307.011c1.301.102 2.561.384 3.78.848 2.026.833 3.412 2.28 4.158 4.339.427 1.24.679 2.514.756 3.824a27.936 27.936 0 0 1-.115 4.923 11.882 11.882 0 0 1-.893 3.32c-.85 1.843-2.229 3.114-4.135 3.813a15.626 15.626 0 0 1-4.765.825 21.431 21.431 0 0 1-5.453-.413c-3.312-.737-5.354-2.756-6.128-6.056a19.045 19.045 0 0 1-.447-4.511 18.49 18.49 0 0 1 .515-4.786c.812-3.086 2.77-4.998 5.877-5.736a13.967 13.967 0 0 1 2.199-.355Z"
     clip-rule="evenodd"
     style="fill:url(#b);stroke-width:.916668"
     id="path4" /><g
     fill-rule="evenodd"
     stroke-width=".875"
     style="stroke:#000;stroke-opacity:.03088235;stroke-width:.20635486;stroke-dasharray:none;stroke-linejoin:round;stroke-linecap:round;paint-order:stroke markers fill"
     id="g8"><path
       fill="#ff7f28"
       d="M8.692 8.244c.52.572-.14 1.088-.14 1.088s1.32-.654.717-1.47c-.57-.762-1.001-1.139 1.347-2.449 0 0-3.684.882-1.925 2.826"
       style="stroke:#000;stroke-opacity:.03088235;stroke-width:.20635486;stroke-dasharray:none;stroke-linejoin:round;stroke-linecap:round;paint-order:stroke markers fill"
       transform="matrix(1.4538 0 0 1.4538 .09 -.31)"
       id="path5" /><path
       fill="#3434c8"
       d="M11.478 12.122s.305.24-.335.426c-1.217.352-5.061.459-6.13.013-.382-.16.337-.38.563-.428.238-.05.371-.04.371-.04-.425-.29-2.76.567-1.184.81 4.295.668 7.83-.3 6.715-.781M6.977 8.986s-1.956.445-.693.608c.535.068 1.596.053 2.588-.026.81-.065 1.623-.205 1.623-.205s-.287.118-.493.253c-1.984.5-5.82.266-4.719-.245.935-.433 1.695-.383 1.695-.383m3.509 1.879c2.018-1.006 1.085-1.971.434-1.841-.16.032-.231.058-.231.058s.057-.088.17-.127c1.292-.434 2.28 1.282-.415 1.961 0 0 .031-.026.04-.051"
       style="stroke:#000;stroke-opacity:.03088235;stroke-width:.20635486;stroke-dasharray:none;stroke-linejoin:round;stroke-linecap:round;paint-order:stroke markers fill"
       transform="matrix(1.4538 0 0 1.4538 .09 -.31)"
       id="path6" /><path
       fill="#ff7f28"
       d="M9.268 3.308S10.386 4.38 8.206 6.03c-1.745 1.322-.397 2.077 0 2.937-1.018-.88-1.767-1.657-1.265-2.38.736-1.061 2.778-1.574 2.327-3.278"
       style="stroke:#000;stroke-opacity:.03088235;stroke-width:.20635486;stroke-dasharray:none;stroke-linejoin:round;stroke-linecap:round;paint-order:stroke markers fill"
       transform="matrix(1.4538 0 0 1.4538 .09 -.31)"
       id="path7" /><path
       fill="#3434c8"
       d="M7.176 13.593c1.937.12 4.914-.067 4.985-.944 0 0-.136.332-1.603.597-1.654.297-3.694.263-4.905.073 0 0 .248.195 1.523.274m.088-2.821s-1.585.36-.561.492c.433.056 1.293.043 2.096-.02.657-.054 1.315-.167 1.315-.167s-.232.096-.399.205c-1.608.406-4.716.216-3.823-.198.757-.35 1.373-.31 1.373-.31"
       style="stroke:#000;stroke-opacity:.03088235;stroke-width:.20635486;stroke-dasharray:none;stroke-linejoin:round;stroke-linecap:round;paint-order:stroke markers fill"
       transform="matrix(1.4538 0 0 1.4538 .09 -.31)"
       id="path8" /></g></svg>
