<?xml version="1.0" encoding="UTF-8" standalone="no"?>
<svg
   width="64"
   height="64"
   version="1.1"
   viewBox="0 0 16.933 16.933"
   id="svg452"
   sodipodi:docname="pendrive-format.svg"
   inkscape:version="1.2.1 (9c6d41e410, 2022-07-14)"
   xml:space="preserve"
   xmlns:inkscape="http://www.inkscape.org/namespaces/inkscape"
   xmlns:sodipodi="http://sodipodi.sourceforge.net/DTD/sodipodi-0.dtd"
   xmlns="http://www.w3.org/2000/svg"
   xmlns:svg="http://www.w3.org/2000/svg"><defs
     id="defs456" /><sodipodi:namedview
     id="namedview454"
     pagecolor="#ffffff"
     bordercolor="#000000"
     borderopacity="0.25"
     inkscape:showpageshadow="2"
     inkscape:pageopacity="0.0"
     inkscape:pagecheckerboard="0"
     inkscape:deskcolor="#d1d1d1"
     showgrid="false"
     inkscape:zoom="11.068044"
     inkscape:cx="8.4477438"
     inkscape:cy="37.450158"
     inkscape:window-width="2560"
     inkscape:window-height="1010"
     inkscape:window-x="1680"
     inkscape:window-y="0"
     inkscape:window-maximized="1"
     inkscape:current-layer="svg452" /><g
     id="g3164"
     transform="translate(-0.10100266)"><g
       id="g771"
       transform="translate(-0.2907478,-0.0058413)"><rect
         class="cls-14"
         x="-5.9543109"
         y="3.2501225"
         width="5.9038663"
         height="7.134129"
         transform="rotate(-90)"
         id="rect236"
         style="fill:#cbcbca;stroke-width:0.0580861" /><rect
         class="cls-15"
         x="-2.9193144"
         y="4.3409786"
         width="1.3597945"
         height="1.3597945"
         rx="0.17425817"
         transform="rotate(-90)"
         id="rect238"
         style="fill:#616363;stroke-width:0.0580861" /><rect
         class="cls-15"
         x="-2.919313"
         y="7.9330206"
         width="1.3597945"
         height="1.3597945"
         rx="0.17425817"
         transform="rotate(-90)"
         id="rect240"
         style="fill:#616363;stroke-width:0.0580861" /><rect
         class="cls-16"
         x="-5.9548903"
         y="2.717473"
         width="1.4933925"
         height="8.1994276"
         transform="rotate(-90)"
         id="rect242"
         style="fill:#333333;stroke-width:0.0580861" /><path
         class="cls-2"
         d="m 2.2458157,5.9148116 v 7.1643334 a 3.8267094,3.8267094 0 0 0 3.8156727,3.815093 H 7.5717263 A 3.8261285,3.8261285 0 0 0 11.386818,13.079145 V 5.9148116 Z"
         id="path244"
         style="fill:#02679a;stroke-width:0.0580861" /><path
         class="cls-6"
         d="M 8.4279145,9.2274595 H 7.6094824 v 0.8184325 h 0.2497694 v 0.739436 L 6.9705355,11.674044 V 8.8737159 H 7.4003724 L 6.8113799,7.8537243 6.2223872,8.8737159 H 6.6522241 V 12.635949 L 5.8332107,11.816936 v -0.748729 a 0.46759275,0.46759275 0 1 0 -0.3183115,0 v 0.880585 l 0.2050437,0.205043 v 0 l 0.932862,0.932862 v 0.393824 a 0.74524408,0.74524408 0 1 0 0.3183114,0 v -1.355728 l 1.029866,-1.025801 v 0 l 0.179486,-0.179486 v -0.871291 h 0.2497701 z"
         id="path246"
         style="fill:#ffffff;stroke-width:0.0580861" /><circle
         class="cls-6"
         cx="3.4993129"
         cy="6.9040165"
         r="0.19633088"
         id="circle248"
         style="fill:#ffffff;stroke-width:0.0580861" /><circle
         class="cls-6"
         cx="5.1582508"
         cy="6.9040165"
         r="0.19633088"
         id="circle250"
         style="fill:#ffffff;stroke-width:0.0580861" /><circle
         class="cls-6"
         cx="6.8171878"
         cy="6.9040165"
         r="0.19633088"
         id="circle252"
         style="fill:#ffffff;stroke-width:0.0580861" /><circle
         class="cls-6"
         cx="8.4761267"
         cy="6.9040165"
         r="0.19633088"
         id="circle254"
         style="fill:#ffffff;stroke-width:0.0580861" /><circle
         class="cls-6"
         cx="10.135063"
         cy="6.9040165"
         r="0.19633088"
         id="circle256"
         style="fill:#ffffff;stroke-width:0.0580861" /></g><g
       id="g3077"
       transform="matrix(-1.0833589,0,0,1.0833589,-6.6842869,-0.69693472)"><g
         id="g2221"
         transform="translate(-0.08228407)"><path
           id="rect1667"
           style="fill:#333333;fill-opacity:1;stroke-width:1.80497;stroke-linecap:square;stroke-linejoin:round;paint-order:markers stroke fill"
           d="m -18.847522,8.2038461 c -0.274251,0 -0.495051,0.2207991 -0.495051,0.4950505 v 1.7579974 l -0.611836,0.611837 c -0.08265,0.08265 -0.128976,0.186721 -0.141074,0.294033 -3.8e-5,3.4e-4 3.8e-5,7.61e-4 0,10e-4 -0.0025,0.0099 -0.004,0.0203 -0.0041,0.03101 -5e-6,4.94e-4 0,0.0013 0,0.0015 v 0.02222 0.674881 0.08733 c 0,0.07405 0.05979,0.133839 0.133839,0.133839 h 0.359144 v 0.513137 l -0.347775,0.347775 c -0.08265,0.08265 -0.128976,0.186724 -0.141074,0.294034 -3.8e-5,3.4e-4 3.8e-5,7.94e-4 0,10e-4 -0.0025,0.0099 -0.004,0.0203 -0.0041,0.03101 -5e-6,4.94e-4 0,7.01e-4 0,10e-4 v 0.02222 0.674881 0.08733 c 0,0.0023 -1.16e-4,0.0044 0,0.0067 v 0.101801 0.381881 c 0,0.274246 0.220799,0.495051 0.49505,0.495051 h 0.757045 1.308938 2.429262 c 0.274251,0 0.494534,-0.220799 0.494534,-0.495051 V 8.6988966 c 0,-0.2742514 -0.220283,-0.4950505 -0.494534,-0.4950505 z" /><rect
           style="fill:#ffe17c;fill-opacity:1;stroke-width:1.90766;stroke-linecap:square;stroke-linejoin:round;paint-order:markers stroke fill"
           id="rect1755"
           width="0.67851931"
           height="2.1319103"
           x="-18.884352"
           y="8.6662741"
           ry="0.047620796"
           rx="0.047620796" /><rect
           style="fill:#ffe17c;fill-opacity:1;stroke-width:1.90766;stroke-linecap:square;stroke-linejoin:round;paint-order:markers stroke fill"
           id="rect1757"
           width="0.67851931"
           height="2.1319103"
           x="-17.832287"
           y="8.6662741"
           ry="0.047620796"
           rx="0.047620796" /><rect
           style="fill:#ffe17c;fill-opacity:1;stroke-width:1.90766;stroke-linecap:square;stroke-linejoin:round;paint-order:markers stroke fill"
           id="rect1759"
           width="0.67851931"
           height="2.1319103"
           x="-16.780224"
           y="8.6662741"
           ry="0.047620796"
           rx="0.047620796" /><rect
           style="fill:#ffe17c;fill-opacity:1;stroke-width:1.90766;stroke-linecap:square;stroke-linejoin:round;paint-order:markers stroke fill"
           id="rect1761"
           width="0.67851931"
           height="2.1319103"
           x="-15.72816"
           y="8.6662741"
           ry="0.047620796"
           rx="0.047620796" /></g><path
         id="path2706"
         style="fill:#4d4c4c;fill-opacity:1;stroke-width:1.80497;stroke-linecap:square;stroke-linejoin:round;paint-order:markers stroke fill"
         d="m -17.439419,13.545677 a 3.903578,2.5000205 0 0 0 -2.742414,0.722939 v 0.01809 c 0,0.0023 -1.16e-4,0.0044 0,0.0067 v 0.1018 0.381882 c 0,0.274245 0.2208,0.49505 0.49505,0.49505 h 0.757045 1.308939 2.429261 c 0.274251,0 0.494534,-0.220799 0.494534,-0.49505 v -0.510553 a 3.903578,2.5000205 0 0 0 -2.742415,-0.720872 z" /></g></g></svg>
