<?xml version="1.0" encoding="UTF-8" standalone="no"?>
<svg
   width="64"
   height="64"
   version="1.1"
   viewBox="0 0 16.933 16.933"
   id="svg452"
   sodipodi:docname="pendrive-image-recorder.svg"
   inkscape:version="1.2.1 (9c6d41e410, 2022-07-14)"
   xmlns:inkscape="http://www.inkscape.org/namespaces/inkscape"
   xmlns:sodipodi="http://sodipodi.sourceforge.net/DTD/sodipodi-0.dtd"
   xmlns="http://www.w3.org/2000/svg"
   xmlns:svg="http://www.w3.org/2000/svg">
  <defs
     id="defs456" />
  <sodipodi:namedview
     id="namedview454"
     pagecolor="#ffffff"
     bordercolor="#000000"
     borderopacity="0.25"
     inkscape:showpageshadow="2"
     inkscape:pageopacity="0.0"
     inkscape:pagecheckerboard="0"
     inkscape:deskcolor="#d1d1d1"
     showgrid="false"
     inkscape:zoom="8.1869707"
     inkscape:cx="40.979748"
     inkscape:cy="22.657953"
     inkscape:window-width="2560"
     inkscape:window-height="1010"
     inkscape:window-x="1680"
     inkscape:window-y="0"
     inkscape:window-maximized="1"
     inkscape:current-layer="svg452" />
  <g
     id="g3826"
     transform="translate(-0.02062383)">
    <g
       id="g845"
       transform="matrix(0.77024191,0,0,0.77024191,32.569084,-5.1965936)">
      <path
         class="cls-11"
         d="m -34.915889,10.82691 a 7.2390762,7.2390762 0 1 0 7.239077,7.239077 7.2390762,7.2390762 0 0 0 -7.239077,-7.239077 z m 0,9.579123 a 2.3424003,2.3424003 0 1 1 2.342401,-2.3424 2.3424003,2.3424003 0 0 1 -2.342401,2.3424 z"
         id="path222"
         style="fill:#cfd8db;stroke-width:0.0588541" />
      <path
         class="cls-5"
         d="m -34.915889,15.222736 a 2.8414847,2.8414847 0 1 0 2.841485,2.840897 2.8408961,2.8408961 0 0 0 -2.841485,-2.840897 z m 0,4.008566 a 1.1676689,1.1676689 0 1 1 1.16767,-1.167669 1.1676689,1.1676689 0 0 1 -1.16767,1.167669 z"
         id="path230"
         style="fill:#94a4a4;stroke-width:0.0588541" />
      <polygon
         class="cls-6"
         points="48.74,135.67 34.81,149.6 88.63,189.49 "
         id="polygon232"
         style="fill:#ffffff"
         transform="matrix(0.05885428,0,0,0.05885428,-42.218527,4.8961649)" />
      <polygon
         class="cls-6"
         points="198.97,313.75 212.9,299.83 159.08,259.94 "
         id="polygon234"
         style="fill:#ffffff"
         transform="matrix(0.05885428,0,0,0.05885428,-42.218527,4.8961649)" />
    </g>
    <g
       id="g771"
       transform="matrix(0.96182777,0,0,0.96182777,5.9225262,0.3175669)">
      <rect
         class="cls-14"
         x="-5.9543109"
         y="3.2501225"
         width="5.9038663"
         height="7.134129"
         transform="rotate(-90)"
         id="rect236"
         style="fill:#cbcbca;stroke-width:0.0580861" />
      <rect
         class="cls-15"
         x="-2.9193144"
         y="4.3409786"
         width="1.3597945"
         height="1.3597945"
         rx="0.17425817"
         transform="rotate(-90)"
         id="rect238"
         style="fill:#616363;stroke-width:0.0580861" />
      <rect
         class="cls-15"
         x="-2.919313"
         y="7.9330206"
         width="1.3597945"
         height="1.3597945"
         rx="0.17425817"
         transform="rotate(-90)"
         id="rect240"
         style="fill:#616363;stroke-width:0.0580861" />
      <rect
         class="cls-16"
         x="-5.9548903"
         y="2.717473"
         width="1.4933925"
         height="8.1994276"
         transform="rotate(-90)"
         id="rect242"
         style="fill:#333333;stroke-width:0.0580861" />
      <path
         class="cls-2"
         d="m 2.2458157,5.9148116 v 7.1643334 a 3.8267094,3.8267094 0 0 0 3.8156727,3.815093 H 7.5717263 A 3.8261285,3.8261285 0 0 0 11.386818,13.079145 V 5.9148116 Z"
         id="path244"
         style="fill:#02679a;stroke-width:0.0580861" />
      <path
         class="cls-6"
         d="M 8.4279145,9.2274595 H 7.6094824 v 0.8184325 h 0.2497694 v 0.739436 L 6.9705355,11.674044 V 8.8737159 H 7.4003724 L 6.8113799,7.8537243 6.2223872,8.8737159 H 6.6522241 V 12.635949 L 5.8332107,11.816936 v -0.748729 a 0.46759275,0.46759275 0 1 0 -0.3183115,0 v 0.880585 l 0.2050437,0.205043 v 0 l 0.932862,0.932862 v 0.393824 a 0.74524408,0.74524408 0 1 0 0.3183114,0 v -1.355728 l 1.029866,-1.025801 v 0 l 0.179486,-0.179486 v -0.871291 h 0.2497701 z"
         id="path246"
         style="fill:#ffffff;stroke-width:0.0580861" />
      <circle
         class="cls-6"
         cx="3.4993129"
         cy="6.9040165"
         r="0.19633088"
         id="circle248"
         style="fill:#ffffff;stroke-width:0.0580861" />
      <circle
         class="cls-6"
         cx="5.1582508"
         cy="6.9040165"
         r="0.19633088"
         id="circle250"
         style="fill:#ffffff;stroke-width:0.0580861" />
      <circle
         class="cls-6"
         cx="6.8171878"
         cy="6.9040165"
         r="0.19633088"
         id="circle252"
         style="fill:#ffffff;stroke-width:0.0580861" />
      <circle
         class="cls-6"
         cx="8.4761267"
         cy="6.9040165"
         r="0.19633088"
         id="circle254"
         style="fill:#ffffff;stroke-width:0.0580861" />
      <circle
         class="cls-6"
         cx="10.135063"
         cy="6.9040165"
         r="0.19633088"
         id="circle256"
         style="fill:#ffffff;stroke-width:0.0580861" />
    </g>
    <text
       xml:space="preserve"
       style="font-weight:800;font-size:2.803px;font-family:Mulish;-inkscape-font-specification:'Mulish Ultra-Bold';text-align:center;letter-spacing:-0.157669px;text-anchor:middle;fill:#616363;fill-opacity:1;stroke-width:1.19514;stroke-linecap:square;stroke-linejoin:round;paint-order:markers stroke fill"
       x="5.6445704"
       y="13.413404"
       id="text3381"><tspan
         sodipodi:role="line"
         id="tspan3379"
         style="baseline-shift:baseline;fill:#616363;fill-opacity:1;stroke-width:1.19514"
         x="5.5657358"
         y="13.413404"
         dx="0">ISO</tspan></text>
  </g>
</svg>
