<svg xmlns="http://www.w3.org/2000/svg" xml:space="preserve" width="24" height="24" viewBox="0 0 6.35 6.35"><defs><radialGradient id="a" cx="0" cy="0" r="1" fx="0" fy="0" gradientTransform="matrix(0 16.5 -16.5 0 9 .75)" gradientUnits="userSpaceOnUse" spreadMethod="pad"><stop offset="0" style="stop-color:#fff;stop-opacity:1"/><stop offset="1" style="stop-color:#3c8dd4;stop-opacity:1"/></radialGradient></defs><path d="M7.195.836c.09 0 .176-.012.258-.035a23.86 23.86 0 0 1 3.231.008 10.26 10.26 0 0 1 2.836.636c1.519.625 2.558 1.711 3.121 3.254.316.93.507 1.887.566 2.867a21.227 21.227 0 0 1-.086 3.696 8.976 8.976 0 0 1-.672 2.488c-.637 1.383-1.672 2.336-3.101 2.859a11.693 11.693 0 0 1-3.575.618 15.998 15.998 0 0 1-4.089-.309c-2.481-.551-4.016-2.066-4.594-4.543a14.244 14.244 0 0 1-.336-3.383c-.027-1.211.101-2.41.387-3.59.609-2.312 2.078-3.746 4.406-4.3A10.27 10.27 0 0 1 7.195.836Z" style="fill:url(#a);fill-rule:evenodd;stroke:none;stroke-width:.99975004;stroke-dasharray:none" transform="translate(.022 -.08) scale(.35277)"/><path d="M4.123 2.969A1.248 1.242 11.425 0 0 2.69 3.983a1.248 1.242 11.425 0 0 1.02 1.43 1.248 1.243 11.557 0 0 .733-.097l.324.456c.145-.055.28-.127.405-.214L4.81 5.05c.17-.174.296-.394.34-.65A1.252 1.252 0 0 0 4.122 2.97Zm-.075.444a.788.785 11.557 0 1 .648.91.788.785 11.557 0 1-.911.646.787.787 0 0 1-.65-.91.786.786 0 0 1 .913-.646Z" style="fill:#e4eef6;fill-opacity:1;stroke-width:.373298"/><path d="M4.348.287 4.32 1.334c-.014.547.437 1 1.011 1.016l.747.02a3.914 3.914 0 0 0-.151-.734A1.898 1.898 0 0 0 4.857.453a3.594 3.594 0 0 0-.51-.166Z" style="opacity:.727273;mix-blend-mode:normal;fill:#f8f9f9;fill-opacity:1;stroke-width:.637963;paint-order:stroke fill markers"/></svg>