<svg xmlns="http://www.w3.org/2000/svg" xml:space="preserve" width="24" height="24" viewBox="0 0 6.35 6.35"><defs><radialGradient id="a" cx="0" cy="0" r="1" fx="0" fy="0" gradientTransform="matrix(0 16.5 -16.5 0 9 .75)" gradientUnits="userSpaceOnUse" spreadMethod="pad"><stop offset="0" style="stop-opacity:1;stop-color:#01beff"/><stop offset="1" style="stop-opacity:1;stop-color:#436eff"/></radialGradient><clipPath id="b" clipPathUnits="userSpaceOnUse"><path d="M0 0h19v19H0Z"/></clipPath></defs><path d="M7.453.801a.951.951 0 0 1-.258.035 10.27 10.27 0 0 0-1.648.266c-2.328.554-3.797 1.988-4.406 4.3a13.877 13.877 0 0 0-.387 3.59c-.024 1.141.09 2.27.336 3.383.578 2.477 2.113 3.992 4.594 4.543 1.351.277 2.714.383 4.089.309a11.693 11.693 0 0 0 3.575-.618c1.429-.523 2.464-1.476 3.101-2.859a8.976 8.976 0 0 0 .672-2.488c.137-1.231.164-2.461.086-3.696-.059-.98-.25-1.937-.566-2.867-.563-1.543-1.602-2.629-3.121-3.254a10.26 10.26 0 0 0-2.836-.636A23.86 23.86 0 0 0 7.453.801Z" style="fill:url(#a);fill-rule:evenodd;stroke:none" transform="scale(.35277)"/><path d="M8.984 2.812a17.772 17.772 0 0 0-5.695.942v3.75c.027 1.769.141 3.234.961 4.316.988 1.301 2.633 2.446 4.75 3.368 2.113-.922 3.77-2.067 4.754-3.368.82-1.082.93-2.547.957-4.316V3.777a17.776 17.776 0 0 0-5.727-.965Z" style="fill:#f2f2f2;fill-opacity:1;fill-rule:nonzero;stroke:none" transform="scale(.35277)"/><g clip-path="url(#b)" opacity=".1" transform="scale(.35277)"><path d="M9 2.812v12.376c2.113-.922 3.766-2.067 4.754-3.368.82-1.082.93-2.547.957-4.316V3.777A17.68 17.68 0 0 0 9 2.812Z" style="fill:#000;fill-opacity:1;fill-rule:nonzero;stroke:none"/></g><path d="m6.551 7.734 2.691 2.696-.508.504-2.691-2.692Z" style="fill:#5dbe7b;fill-opacity:1;fill-rule:nonzero;stroke:none" transform="scale(.35277)"/><path d="m8.227 10.434 4.039-4.039.504.503-4.036 4.04z" style="fill:#5dbe7b;fill-opacity:1;fill-rule:nonzero;stroke:none" transform="scale(.35277)"/></svg>