<?xml version="1.0" encoding="UTF-8" standalone="no"?>
<svg
   width="24"
   height="24"
   version="1"
   id="svg29271"
   sodipodi:docname="power-manager2.svg"
   xml:space="preserve"
   inkscape:version="1.2.2 (b0a8486541, 2022-12-01)"
   inkscape:export-filename="power-manager2.svg"
   inkscape:export-xdpi="800"
   inkscape:export-ydpi="800"
   xmlns:inkscape="http://www.inkscape.org/namespaces/inkscape"
   xmlns:sodipodi="http://sodipodi.sourceforge.net/DTD/sodipodi-0.dtd"
   xmlns:xlink="http://www.w3.org/1999/xlink"
   xmlns="http://www.w3.org/2000/svg"
   xmlns:svg="http://www.w3.org/2000/svg"><defs
     id="defs29275"><linearGradient
       inkscape:collect="always"
       id="linearGradient27101"><stop
         style="stop-color:#c2fd9d;stop-opacity:1;"
         offset="0"
         id="stop27097" /><stop
         style="stop-color:#ebf7e6;stop-opacity:1;"
         offset="1"
         id="stop27099" /></linearGradient><radialGradient
       id="paint0_radial_29_149"
       cx="0"
       cy="0"
       r="1"
       gradientUnits="userSpaceOnUse"
       gradientTransform="matrix(0,31.999991,-32.000024,0,72.000019,2.1748198e-6)"><stop
         stop-color="#80D2FF"
         id="stop17930" /><stop
         offset="1"
         stop-color="#2991C9"
         id="stop17932"
         style="stop-color:#002a43;stop-opacity:1;" /></radialGradient><radialGradient
       id="paint0_radial_29_149-3"
       cx="0"
       cy="0"
       r="1"
       gradientUnits="userSpaceOnUse"
       gradientTransform="matrix(0,31.999965,-32.000018,0,141.21699,-14.468428)"><stop
         stop-color="#80D2FF"
         id="stop17930-6" /><stop
         offset="1"
         stop-color="#2991C9"
         id="stop17932-7"
         style="stop-color:#002a43;stop-opacity:1;" /></radialGradient><radialGradient
       id="paint0_radial_29_23"
       cx="0"
       cy="0"
       r="1"
       gradientUnits="userSpaceOnUse"
       gradientTransform="matrix(0,22.000031,-22.000031,0,11.999983,1.000049)"><stop
         stop-color="#8FC8FF"
         id="stop184"
         offset="0"
         style="stop-color:#ffffff;stop-opacity:1;" /><stop
         offset="1"
         stop-color="#0056A8"
         id="stop186"
         style="stop-color:#bebebe;stop-opacity:1;" /></radialGradient><radialGradient
       id="paint0_radial_29_149-5"
       cx="0"
       cy="0"
       r="1"
       gradientUnits="userSpaceOnUse"
       gradientTransform="matrix(0,150,-150,0,-278.33746,-123.84153)"><stop
         stop-color="#80D2FF"
         id="stop17930-62"
         offset="0"
         style="stop-color:#43f769;stop-opacity:1;" /><stop
         offset="1"
         stop-color="#2991C9"
         id="stop17932-9"
         style="stop-color:#4bd864;stop-opacity:1;" /></radialGradient><radialGradient
       fx="0"
       fy="0"
       cx="0"
       cy="0"
       r="1"
       gradientUnits="userSpaceOnUse"
       gradientTransform="matrix(0,16.500023,-16.500023,0,8.999987,0.750037)"
       spreadMethod="pad"
       id="radialGradient20030"><stop
         style="stop-opacity:1;stop-color:#ffffff"
         offset="0"
         id="stop20026" /><stop
         style="stop-opacity:1;stop-color:#bebebe"
         offset="1"
         id="stop20028" /></radialGradient><radialGradient
       fx="0"
       fy="0"
       cx="0"
       cy="0"
       r="1"
       gradientUnits="userSpaceOnUse"
       gradientTransform="matrix(0,8.249992,-8.250005,0,8.999999,0.75)"
       spreadMethod="pad"
       id="radialGradient20048"><stop
         style="stop-opacity:1;stop-color:#43f769"
         offset="0"
         id="stop20044" /><stop
         style="stop-opacity:1;stop-color:#4bd864"
         offset="1"
         id="stop20046" /></radialGradient><radialGradient
       fx="0"
       fy="0"
       cx="0"
       cy="0"
       r="1"
       gradientUnits="userSpaceOnUse"
       gradientTransform="matrix(0,16.500023,-16.500023,0,8.999987,0.750037)"
       spreadMethod="pad"
       id="radialGradient20030-6"><stop
         style="stop-opacity:1;stop-color:#ffffff"
         offset="0"
         id="stop20026-5" /><stop
         style="stop-opacity:1;stop-color:#bebebe"
         offset="1"
         id="stop20028-6" /></radialGradient><radialGradient
       fx="0"
       fy="0"
       cx="0"
       cy="0"
       r="1"
       gradientUnits="userSpaceOnUse"
       gradientTransform="matrix(0,10.999989,-11.000006,0,11.999546,0.99996493)"
       spreadMethod="pad"
       id="radialGradient20048-9"><stop
         style="stop-color:#26bd77;stop-opacity:1;"
         offset="0"
         id="stop20044-3" /><stop
         style="stop-color:#12856b;stop-opacity:0.99607843;"
         offset="1"
         id="stop20046-7" /></radialGradient><linearGradient
       inkscape:collect="always"
       xlink:href="#linearGradient27101"
       id="linearGradient27103"
       x1="16.72398"
       y1="22.987246"
       x2="7.2769876"
       y2="8.1710081"
       gradientUnits="userSpaceOnUse" /><linearGradient
       inkscape:collect="always"
       xlink:href="#linearGradient27101"
       id="linearGradient31513"
       x1="16.983507"
       y1="22.368523"
       x2="9.9165382"
       y2="3.7679849"
       gradientUnits="userSpaceOnUse" /></defs><sodipodi:namedview
     id="namedview29273"
     pagecolor="#ffffff"
     bordercolor="#000000"
     borderopacity="0.25"
     inkscape:showpageshadow="2"
     inkscape:pageopacity="0.0"
     inkscape:pagecheckerboard="0"
     inkscape:deskcolor="#d1d1d1"
     showgrid="false"
     inkscape:zoom="3.4140626"
     inkscape:cx="-40.128146"
     inkscape:cy="36.320365"
     inkscape:window-width="2560"
     inkscape:window-height="998"
     inkscape:window-x="1680"
     inkscape:window-y="0"
     inkscape:window-maximized="1"
     inkscape:current-layer="svg29271" /><g
     id="g20016"
     transform="matrix(1.3333333,0,0,1.3333333,-4.5225532e-4,-3.504174e-5)"><g
       id="g20018"><g
         id="g20024"><path
           d="m 7.195,0.836 c 0.09,0 0.176,-0.012 0.258,-0.035 1.078,-0.071 2.156,-0.067 3.231,0.008 0.976,0.078 1.921,0.289 2.836,0.636 1.519,0.625 2.558,1.711 3.121,3.254 0.316,0.93 0.507,1.887 0.566,2.867 0.078,1.235 0.051,2.465 -0.086,3.696 -0.105,0.863 -0.328,1.691 -0.672,2.488 -0.637,1.383 -1.672,2.336 -3.101,2.859 C 12.191,17 11,17.207 9.773,17.227 8.398,17.301 7.035,17.195 5.684,16.918 3.203,16.367 1.668,14.852 1.09,12.375 0.844,11.262 0.73,10.133 0.754,8.992 0.727,7.781 0.855,6.582 1.141,5.402 1.75,3.09 3.219,1.656 5.547,1.102 6.09,0.969 6.641,0.879 7.195,0.836 Z"
           style="fill:url(#radialGradient20030-6);fill-rule:evenodd;stroke:none"
           id="path20032" /></g></g></g><path
     d="m 9.5928808,1.1146316 c 0.12,0 0.2346667,-0.016 0.344,-0.046667 1.4373332,-0.0946666 2.8746662,-0.0893333 4.3080002,0.010667 1.301333,0.104 2.561333,0.3853333 3.781333,0.848 2.025333,0.8333333 3.410667,2.2813333 4.161333,4.3386665 0.421334,1.24 0.676,2.516 0.754667,3.8226669 0.104,1.646666 0.068,3.286666 -0.114667,4.928 -0.14,1.150666 -0.437333,2.254666 -0.896,3.317333 -0.849333,1.844 -2.229333,3.114666 -4.134666,3.812 -1.542667,0.521333 -3.130667,0.797333 -4.766667,0.824 -1.833333,0.09867 -3.6506665,-0.04267 -5.4519998,-0.412 -3.3079999,-0.734667 -5.3546665,-2.754667 -6.1253332,-6.057333 -0.328,-1.484 -0.47999995,-2.989334 -0.4479999,-4.510667 -0.036,-1.62 0.1346666,-3.2133333 0.5159999,-4.7866666 C 2.332881,4.1199649 4.2915476,2.2079649 7.3955476,1.4692983 8.1195475,1.2919649 8.8542142,1.1719649 9.5928808,1.1146316 Z"
     style="fill:url(#radialGradient20048-9);fill-rule:evenodd;stroke:none;stroke-width:1.33333"
     id="path20050" /><path
     d="m 12.603547,3.9639649 -2.8546662,5.3639998 2.5320002,0.021333 -0.630667,3.1720003 2.6,-4.370667 -2.501333,-0.014667 z"
     style="fill:url(#linearGradient31513);fill-opacity:1;fill-rule:nonzero;stroke:none;stroke-width:1.33333"
     id="path20052" /><path
     d="m 7.9728809,8.1559648 c -0.4,0 -0.7226667,0.3226666 -0.7226667,0.7239999 V 22.415964 c 0,0.02133 0,0.03733 0.004,0.05733 0.1093334,0.02667 0.2146667,0.05733 0.324,0.084 1.3173333,0.270666 2.6399998,0.416 3.9786668,0.437333 v -0.817333 c -1.172,-0.12 -2.0786668,-1.104 -2.0786668,-2.313334 0,-0.02533 0,-0.05733 0,-0.088 0,-0.01067 0,-0.02133 0,-0.036 v -1.494666 c 0,-0.401333 0.324,-0.724 0.7239998,-0.724 h 0.177333 v -1.417333 c 0,-0.26 0.213334,-0.473334 0.474667,-0.473334 0.265333,0 0.478667,0.213334 0.478667,0.473334 v 1.417333 h 1.333333 v -1.417333 c 0,-0.26 0.213333,-0.473334 0.478667,-0.473334 0.261333,0 0.474666,0.213334 0.474666,0.473334 v 1.417333 h 0.177334 c 0.4,0 0.724,0.322667 0.724,0.724 v 1.494666 c 0,0.0093 0,0.02 0,0.03067 0,0.032 0,0.06267 0,0.09333 0,1.188 -0.876,2.157334 -2.010667,2.308 v 0.817334 c 0.172,-0.0053 0.349333,-0.01067 0.52,-0.02 1.266667,-0.02133 2.505333,-0.193334 3.718667,-0.510667 0,-0.016 0,-0.02667 0,-0.04267 V 8.8799647 c 0,-0.4013333 -0.322667,-0.7239999 -0.722667,-0.7239999 h -1.125333 l -4.052,6.7346662 0.656,-4.937333 H 8.5622142 L 9.5155475,8.1559648 Z"
     style="fill:url(#linearGradient27103);fill-opacity:1;fill-rule:nonzero;stroke:none;stroke-width:1.33333"
     id="path20054" /></svg>
