<svg xmlns="http://www.w3.org/2000/svg" xml:space="preserve" width="24" height="24" viewBox="0 0 6.35 6.35"><defs><linearGradient id="b" x1="12" x2="12" y1="2.958" y2="21.042" gradientTransform="translate(.265 .265) scale(.24253)" gradientUnits="userSpaceOnUse"><stop offset="0" stop-color="#FAFAFA" style="stop-color:#fff;stop-opacity:1"/><stop offset="1" stop-color="silver" style="stop-color:#d8d8d8;stop-opacity:1"/></linearGradient><linearGradient id="c" x1="12" x2="12" y1="2.958" y2="21.042" gradientTransform="translate(.265 .265) scale(.24253)" gradientUnits="userSpaceOnUse"><stop offset="0" stop-color="#E1E1E1" style="stop-color:#b1b1b1;stop-opacity:1"/><stop offset="1" stop-color="#828282" style="stop-color:#5c5c5c;stop-opacity:1"/></linearGradient><radialGradient id="a" cx="0" cy="0" r="1" gradientTransform="rotate(90 1.455 1.72) scale(5.82072)" gradientUnits="userSpaceOnUse"><stop offset="0" stop-color="#555" style="stop-color:#818181;stop-opacity:1"/><stop offset="1" stop-color="#222" style="stop-color:#35393c;stop-opacity:1"/></radialGradient></defs><path fill="url(#a)" fill-rule="evenodd" d="M2.539.295a.312.312 0 0 0 .09-.012c.38-.025.76-.024 1.14.003.345.026.678.101 1 .224.536.22.903.603 1.1 1.148.114.328.18.665.2 1.012.029.435.019.869-.03 1.302a3.143 3.143 0 0 1-.236.879 1.87 1.87 0 0 1-1.094 1.008c-.409.139-.829.211-1.26.219a5.668 5.668 0 0 1-1.444-.11C1.13 5.773.59 5.24.385 4.366a5.04 5.04 0 0 1-.12-1.194c-.009-.428.037-.85.137-1.266C.617 1.09 1.135.584 1.957.39c.191-.047.385-.079.582-.094z" clip-rule="evenodd" style="fill:url(#a);stroke-width:.264578"/><path fill="url(#b)" stroke="url(#c)" d="m4.797 3.311.006.006.006.005.418.317a.06.06 0 0 1 .016.079l-.567.98a.06.06 0 0 1-.076.026l-.457-.193c-.041-.018-.127-.04-.202.017a.232.232 0 0 0-.089.159l-.06.486a.06.06 0 0 1-.06.054H2.618a.06.06 0 0 1-.06-.054l-.06-.49a.21.21 0 0 0-.106-.164.23.23 0 0 0-.202-.005l-.445.19a.06.06 0 0 1-.076-.026l-.563-.98a.06.06 0 0 1 .016-.078l.398-.302a.174.174 0 0 0 .073-.138v-.05a.174.174 0 0 0-.073-.138l-.397-.301a.06.06 0 0 1-.016-.08l.562-.97a.06.06 0 0 1 .076-.026l.464.19a.21.21 0 0 0 .191-.01.217.217 0 0 0 .097-.16l.061-.498a.06.06 0 0 1 .06-.054h1.113a.06.06 0 0 1 .06.054l.062.5c.004.037.022.122.106.162l.007.004a.24.24 0 0 0 .192-.001l.447-.186a.06.06 0 0 1 .076.025l.562.97a.06.06 0 0 1-.016.08l-.397.301a.174.174 0 0 0-.074.138v.03a.149.149 0 0 0 .041.131zM3.16 4.02a.817.817 0 0 0 .596-.248.817.817 0 0 0 .248-.596.817.817 0 0 0-.248-.596.817.817 0 0 0-.596-.248.82.82 0 0 0-.593.247.813.813 0 0 0-.251.597c0 .232.085.433.25.597a.82.82 0 0 0 .594.247z" style="fill:url(#b);stroke:url(#paint2_linear_1_42);stroke-width:.24253"/></svg>