<?xml version="1.0" encoding="UTF-8" standalone="no"?>
<svg
   width="24"
   height="24"
   version="1.1"
   id="svg12"
   sodipodi:docname="preferences-desktop-effects.svg"
   xmlns:inkscape="http://www.inkscape.org/namespaces/inkscape"
   xmlns:sodipodi="http://sodipodi.sourceforge.net/DTD/sodipodi-0.dtd"
   xmlns="http://www.w3.org/2000/svg"
   xmlns:svg="http://www.w3.org/2000/svg">
  <sodipodi:namedview
     id="namedview12"
     pagecolor="#ffffff"
     bordercolor="#000000"
     borderopacity="0.25"
     inkscape:showpageshadow="2"
     inkscape:pageopacity="0.0"
     inkscape:pagecheckerboard="0"
     inkscape:deskcolor="#d1d1d1" />
  <defs
     id="defs2">
    <radialGradient
       id="a"
       cx="0"
       cy="0"
       r="1"
       fx="0"
       fy="0"
       gradientTransform="matrix(0,19.40524,-26.58722,0,12,1)"
       gradientUnits="userSpaceOnUse">
      <stop
         offset="0"
         stop-color="#68BBFF"
         stop-opacity=".875"
         style="stop-color:#66bcff;stop-opacity:1"
         id="stop1" />
      <stop
         offset="1"
         stop-color="#A99EFF"
         style="stop-color:#b29aff;stop-opacity:1"
         id="stop2" />
    </radialGradient>
  </defs>
  <path
     fill="url(#a)"
     fill-rule="evenodd"
     d="M 9.596,1.114 C 9.716,1.114 9.83,1.1 9.94,1.068 a 31.627,31.627 0 0 1 4.307,0.011 c 1.301,0.102 2.562,0.384 3.78,0.848 2.026,0.833 3.412,2.28 4.158,4.339 0.427,1.24 0.679,2.514 0.756,3.824 a 27.94,27.94 0 0 1 -0.114,4.923 11.876,11.876 0 0 1 -0.894,3.32 c -0.85,1.843 -2.229,3.114 -4.135,3.813 A 15.624,15.624 0 0 1 13.033,22.971 21.423,21.423 0 0 1 7.58,22.558 C 4.268,21.821 2.226,19.802 1.452,16.502 A 19.047,19.047 0 0 1 1.005,11.991 18.491,18.491 0 0 1 1.52,7.205 C 2.332,4.119 4.29,2.207 7.397,1.469 A 13.954,13.954 0 0 1 9.596,1.114 Z"
     clip-rule="evenodd"
     style="fill:url(#a)"
     id="path2" />
  <path
     fill="#ffffff"
     d="M 6.95608,5.6387175 6.4681243,6.519119 5.5795315,7.0025764 6.4681243,7.4860339 6.95608,8.3638909 7.4440356,7.4860339 8.3313443,7.0025764 7.4427515,6.519119 Z m 3.668656,0 -0.487955,0.8804015 -0.8885935,0.4834574 0.8885935,0.4834575 0.487955,0.877857 0.487956,-0.877857 0.887309,-0.4834575 -0.888593,-0.4834574 z m 5.186455,0 L 5.5795315,15.774785 8.190094,18.361283 18.420468,8.2252149 Z m 0,1.2926126 1.303354,1.2926126 L 14.063539,11.251914 12.7589,9.9567555 Z M 8.7897655,8.3651631 8.3018102,9.2455645 7.4132173,9.7290225 8.3018102,10.211208 8.7897655,11.091609 9.2764375,10.211208 10.165031,9.7277495 9.2764375,9.2455645 Z"
     style="stroke-width:1.27816"
     id="path12" />
</svg>
