<?xml version="1.0" encoding="UTF-8" standalone="no"?>
<svg
   width="24"
   height="24"
   fill="none"
   version="1.1"
   id="svg11"
   xml:space="preserve"
   xmlns="http://www.w3.org/2000/svg"
   xmlns:svg="http://www.w3.org/2000/svg"><defs
     id="defs3"><radialGradient
       fx="0"
       fy="0"
       cx="0"
       cy="0"
       r="1"
       gradientUnits="userSpaceOnUse"
       gradientTransform="matrix(0,14.55393,-19.940415,0,9,0.75)"
       spreadMethod="pad"
       id="radialGradient2"><stop
         style="stop-opacity:1;stop-color:#66bcff"
         offset="0"
         id="stop1" /><stop
         style="stop-opacity:1;stop-color:#b29aff"
         offset="1"
         id="stop2-3" /></radialGradient><clipPath
       clipPathUnits="userSpaceOnUse"
       id="clipPath3"><path
         d="M 0,0 H 19 V 19 H 0 Z"
         id="path3" /></clipPath><clipPath
       clipPathUnits="userSpaceOnUse"
       id="clipPath5"><path
         d="M 0,0 H 19 V 19 H 0 Z"
         id="path5" /></clipPath><clipPath
       clipPathUnits="userSpaceOnUse"
       id="clipPath7"><path
         d="M 0,0 H 19 V 19 H 0 Z"
         id="path7-6" /></clipPath><clipPath
       clipPathUnits="userSpaceOnUse"
       id="clipPath9"><path
         d="M 0,0 H 19 V 19 H 0 Z"
         id="path9" /></clipPath><clipPath
       clipPathUnits="userSpaceOnUse"
       id="clipPath11"><path
         d="M 0,0 H 19 V 19 H 0 Z"
         id="path11-7" /></clipPath><clipPath
       clipPathUnits="userSpaceOnUse"
       id="clipPath13"><path
         d="M 0,0 H 19 V 19 H 0 Z"
         id="path13" /></clipPath><clipPath
       clipPathUnits="userSpaceOnUse"
       id="clipPath19"><path
         d="M 0,0 H 19 V 19 H 0 Z"
         id="path19" /></clipPath></defs><g
     id="g1"><path
       id="path2-5"
       d="m 7.195,0.836 c 0.09,0 0.176,-0.012 0.258,-0.035 1.078,-0.071 2.156,-0.067 3.231,0.008 0.976,0.078 1.921,0.289 2.836,0.636 1.519,0.625 2.558,1.711 3.121,3.254 0.32,0.93 0.507,1.887 0.566,2.867 0.078,1.231 0.051,2.469 -0.086,3.692 -0.101,0.859 -0.328,1.699 -0.672,2.492 -0.637,1.383 -1.672,2.336 -3.101,2.859 C 12.195,17 10.992,17.207 9.773,17.227 8.402,17.301 7.031,17.195 5.684,16.918 3.199,16.367 1.668,14.852 1.09,12.375 0.844,11.266 0.73,10.129 0.754,8.992 0.727,7.785 0.855,6.578 1.141,5.402 1.75,3.09 3.219,1.656 5.547,1.102 6.09,0.969 6.641,0.879 7.195,0.836 Z"
       transform="scale(1.3333333)"
       style="fill:url(#radialGradient2);fill-rule:evenodd;stroke:none" /><g
       opacity="0.826705"
       id="g4"><path
         d="M 8.992,0.75 C 8.48,0.75 7.969,0.766 7.453,0.801 7.371,0.824 7.285,0.836 7.195,0.836 6.641,0.879 6.09,0.969 5.547,1.102 4.363,1.383 3.406,1.891 2.668,2.625 H 15.336 C 14.836,2.129 14.23,1.738 13.52,1.445 12.609,1.098 11.656,0.883 10.684,0.809 10.121,0.77 9.559,0.75 8.992,0.75 Z"
         style="fill:#b3b3b3;fill-opacity:1;fill-rule:evenodd;stroke:none"
         transform="scale(1.3333333)"
         clip-path="url(#clipPath3)"
         id="path4" /></g><g
       opacity="0.35"
       id="g6"><path
         d="m 4.77,1.543 h 0.558 c 0.152,0 0.277,0.125 0.277,0.281 0,0.153 -0.125,0.278 -0.277,0.278 H 4.77 C 4.613,2.102 4.492,1.977 4.492,1.824 4.492,1.668 4.613,1.543 4.77,1.543 Z"
         style="fill:#000000;fill-opacity:1;fill-rule:nonzero;stroke:none"
         transform="scale(1.3333333)"
         clip-path="url(#clipPath5)"
         id="path6" /></g><g
       opacity="0.35"
       id="g8"><path
         d="m 7.883,1.543 h 2.234 c 0.153,0 0.278,0.125 0.278,0.281 0,0.153 -0.125,0.278 -0.278,0.278 H 7.883 C 7.73,2.102 7.605,1.977 7.605,1.824 7.605,1.668 7.73,1.543 7.883,1.543 Z"
         style="fill:#000000;fill-opacity:1;fill-rule:nonzero;stroke:none"
         transform="scale(1.3333333)"
         clip-path="url(#clipPath7)"
         id="path8" /></g><g
       opacity="0.35"
       id="g10"><path
         d="m 13.223,1.543 c 0.152,0 0.277,0.125 0.277,0.281 0,0.153 -0.125,0.278 -0.277,0.278 -0.157,0 -0.282,-0.125 -0.282,-0.278 0,-0.156 0.125,-0.281 0.282,-0.281 z"
         style="fill:#000000;fill-opacity:1;fill-rule:nonzero;stroke:none"
         transform="scale(1.3333333)"
         clip-path="url(#clipPath9)"
         id="path10" /></g><g
       opacity="0.35"
       id="g12"><path
         d="m 12.105,1.543 h 0.278 c 0.156,0 0.281,0.125 0.281,0.281 0,0.153 -0.125,0.278 -0.281,0.278 h -0.278 c -0.152,0 -0.277,-0.125 -0.277,-0.278 0,-0.156 0.125,-0.281 0.277,-0.281 z"
         style="fill:#000000;fill-opacity:1;fill-rule:nonzero;stroke:none"
         transform="scale(1.3333333)"
         clip-path="url(#clipPath11)"
         id="path12" /></g><g
       opacity="0.35"
       id="g14"><path
         d="m 11.27,1.543 c 0.152,0 0.277,0.125 0.277,0.281 0,0.153 -0.125,0.278 -0.277,0.278 -0.157,0 -0.282,-0.125 -0.282,-0.278 0,-0.156 0.125,-0.281 0.282,-0.281 z"
         style="fill:#000000;fill-opacity:1;fill-rule:nonzero;stroke:none"
         transform="scale(1.3333333)"
         clip-path="url(#clipPath13)"
         id="path14" /></g><path
       id="path15"
       d="m 5,14.223 h 1.105 c 0.079,0 0.137,0.062 0.137,0.14 v 1.106 c 0,0.074 -0.058,0.136 -0.137,0.136 H 5 c -0.074,0 -0.137,-0.062 -0.137,-0.136 v -1.106 c 0,-0.078 0.063,-0.14 0.137,-0.14 z"
       style="fill:#ccdfff;fill-opacity:1;fill-rule:nonzero;stroke:none"
       transform="scale(1.3333333)" /><path
       id="path16"
       d="m 7.301,14.223 h 1.105 c 0.078,0 0.141,0.062 0.141,0.14 v 1.106 c 0,0.074 -0.063,0.136 -0.141,0.136 H 7.301 c -0.074,0 -0.137,-0.062 -0.137,-0.136 v -1.106 c 0,-0.078 0.063,-0.14 0.137,-0.14 z"
       style="fill:#ccdfff;fill-opacity:1;fill-rule:nonzero;stroke:none"
       transform="scale(1.3333333)" /><path
       id="path17"
       d="m 9.602,14.223 h 1.105 c 0.078,0 0.141,0.062 0.141,0.14 v 1.106 c 0,0.074 -0.063,0.136 -0.141,0.136 H 9.602 c -0.075,0 -0.137,-0.062 -0.137,-0.136 v -1.106 c 0,-0.078 0.062,-0.14 0.137,-0.14 z"
       style="fill:#ccdfff;fill-opacity:1;fill-rule:nonzero;stroke:none"
       transform="scale(1.3333333)" /><path
       id="path18"
       d="m 11.906,14.223 h 1.102 c 0.078,0 0.14,0.062 0.14,0.14 v 1.106 c 0,0.074 -0.062,0.136 -0.14,0.136 h -1.102 c -0.078,0 -0.14,-0.062 -0.14,-0.136 v -1.106 c 0,-0.078 0.062,-0.14 0.14,-0.14 z"
       style="fill:#ccdfff;fill-opacity:1;fill-rule:nonzero;stroke:none"
       transform="scale(1.3333333)" /><g
       opacity="0.35"
       id="g20"><path
         d="m 4.312,15.062 c -0.304,0 -0.554,0.247 -0.554,0.551 v 0.575 c 0.562,0.324 1.203,0.57 1.926,0.73 1.351,0.277 2.714,0.383 4.089,0.309 1.219,-0.02 2.422,-0.227 3.575,-0.618 0.32,-0.117 0.621,-0.257 0.902,-0.418 v -0.578 c 0,-0.304 -0.246,-0.551 -0.551,-0.551 z"
         style="fill:#ffffff;fill-opacity:1;fill-rule:nonzero;stroke:none"
         transform="scale(1.3333333)"
         clip-path="url(#clipPath19)"
         id="path20" /></g><path
       id="path21"
       d="m 11.965,9.246 0.019,0.02 0.766,0.57 c 0.047,0.035 0.059,0.094 0.027,0.144 l -1.035,1.766 c -0.027,0.047 -0.086,0.066 -0.137,0.047 L 10.77,11.445 c -0.075,-0.035 -0.235,-0.074 -0.372,0.032 -0.089,0.066 -0.148,0.171 -0.16,0.285 l -0.109,0.875 c -0.008,0.054 -0.055,0.097 -0.109,0.097 H 7.98 c -0.054,0 -0.101,-0.043 -0.109,-0.097 L 7.762,11.754 C 7.75,11.629 7.68,11.52 7.57,11.457 7.453,11.398 7.316,11.395 7.199,11.449 l -0.812,0.344 c -0.051,0.019 -0.114,0 -0.137,-0.047 L 5.219,9.98 C 5.191,9.93 5.203,9.871 5.25,9.84 L 5.977,9.293 C 6.059,9.234 6.105,9.145 6.109,9.047 V 8.953 C 6.105,8.855 6.059,8.766 5.977,8.707 L 5.25,8.164 C 5.203,8.129 5.191,8.066 5.223,8.02 L 6.25,6.27 C 6.273,6.223 6.336,6.203 6.387,6.223 L 7.234,6.566 C 7.348,6.617 7.477,6.609 7.582,6.547 7.684,6.484 7.75,6.379 7.762,6.262 L 7.871,5.363 C 7.879,5.309 7.926,5.266 7.98,5.266 h 2.036 c 0.058,0 0.105,0.043 0.109,0.097 l 0.113,0.903 c 0.008,0.066 0.043,0.218 0.196,0.289 l 0.011,0.007 c 0.114,0.047 0.239,0.047 0.352,0 l 0.816,-0.335 c 0.051,-0.024 0.11,-0.004 0.141,0.043 l 1.023,1.75 c 0.032,0.046 0.02,0.109 -0.027,0.144 l -0.727,0.543 c -0.082,0.055 -0.132,0.148 -0.132,0.246 v 0.055 c -0.016,0.086 0.011,0.176 0.074,0.238 z m -2.992,1.277 c 0.41,0.004 0.804,-0.156 1.089,-0.449 C 10.355,9.793 10.52,9.406 10.516,9 10.52,8.598 10.355,8.211 10.062,7.926 9.777,7.637 9.383,7.477 8.973,7.48 8.566,7.477 8.176,7.637 7.891,7.926 7.59,8.207 7.426,8.598 7.43,9 c 0,0.422 0.156,0.781 0.457,1.078 0.285,0.289 0.679,0.449 1.086,0.445 z"
       style="fill:#f9f9f9;fill-opacity:1;fill-rule:nonzero;stroke:none"
       transform="scale(1.3333333)" /></g></svg>
