<?xml version="1.0" encoding="UTF-8" standalone="no"?>
<svg
   xml:space="preserve"
   width="24"
   height="24"
   fill="none"
   version="1.1"
   id="svg4"
   sodipodi:docname="preferences-desktop-font.svg"
   inkscape:version="1.3 (0e150ed6c4, 2023-07-21)"
   xmlns:inkscape="http://www.inkscape.org/namespaces/inkscape"
   xmlns:sodipodi="http://sodipodi.sourceforge.net/DTD/sodipodi-0.dtd"
   xmlns:xlink="http://www.w3.org/1999/xlink"
   xmlns="http://www.w3.org/2000/svg"
   xmlns:svg="http://www.w3.org/2000/svg"><sodipodi:namedview
     id="namedview4"
     pagecolor="#ffffff"
     bordercolor="#000000"
     borderopacity="0.25"
     inkscape:showpageshadow="2"
     inkscape:pageopacity="0.0"
     inkscape:pagecheckerboard="0"
     inkscape:deskcolor="#d1d1d1"
     inkscape:zoom="28.814601"
     inkscape:cx="19.261068"
     inkscape:cy="10.185808"
     inkscape:window-width="3440"
     inkscape:window-height="1358"
     inkscape:window-x="2560"
     inkscape:window-y="0"
     inkscape:window-maximized="1"
     inkscape:current-layer="svg4" /><defs
     id="defs2"><linearGradient
       id="linearGradient4"
       inkscape:collect="always"><stop
         style="stop-color:#4d4d4d;stop-opacity:1;"
         offset="0.60919541"
         id="stop4" /><stop
         style="stop-color:#4d4d4d;stop-opacity:0;"
         offset="0.90948278"
         id="stop5" /></linearGradient><linearGradient
       id="a"><stop
         offset="0"
         style="stop-color:#4d4d4d;stop-opacity:1"
         id="stop1" /><stop
         offset="1"
         style="stop-color:#f9f9f9;stop-opacity:1"
         id="stop2" /></linearGradient><linearGradient
       xlink:href="#a"
       id="b"
       x1="85.521"
       x2=".367"
       y1="89.498"
       y2="-.176"
       gradientTransform="matrix(.24444 0 0 .24444 -.222 -.222)"
       gradientUnits="userSpaceOnUse" /><linearGradient
       inkscape:collect="always"
       xlink:href="#linearGradient4"
       id="linearGradient5"
       x1="19.657938"
       y1="11.99808"
       x2="33.450938"
       y2="11.99808"
       gradientUnits="userSpaceOnUse"
       gradientTransform="translate(-14.539877)" /></defs><path
     d="M12 1C2 1 1 6 1 12c0 8 3 11 11 11s11-3 11-11c0-6-1-11-11-11Z"
     style="font-variation-settings:normal;display:inline;opacity:1;vector-effect:none;fill:url(#b);fill-opacity:1;stroke-width:1.11627;stroke-linecap:butt;stroke-linejoin:miter;stroke-miterlimit:4;stroke-dasharray:none;stroke-dashoffset:0;stroke-opacity:1;-inkscape-stroke:none;stop-color:#000;stop-opacity:1"
     id="path2" /><rect
     style="opacity:0.3;fill:url(#linearGradient5);stroke-width:0.5;stroke-linecap:round;stroke-linejoin:round;stroke-dasharray:0.8062, 0.8062;stroke-dashoffset:0.945179;paint-order:markers fill stroke"
     id="rect4"
     width="13.793"
     height="13.793"
     x="5.1180611"
     y="5.1015801"
     rx="1.7005267"
     ry="1.7005267" /><path
     fill="#ffffff"
     d="m 15.434716,15.29897 c 0.559822,0 1.069655,-0.292325 1.50384,-0.651526 h 0.02483 l 0.06803,0.543932 h 0.625704 v -2.792491 c 0,-1.119645 -0.468119,-1.86304 -1.57088,-1.86304 -0.726346,0 -1.370092,0.325266 -1.788221,0.592597 l 0.301265,0.527048 c 0.359365,-0.242502 0.83543,-0.485003 1.362312,-0.485003 0.743395,0 0.934913,0.559822 0.934913,1.14464 -1.929914,0.217672 -2.790008,0.71062 -2.790008,1.696517 0,0.818214 0.567768,1.286168 1.328213,1.286168 z m 0.217506,-0.609647 c -0.451069,0 -0.802324,-0.208567 -0.802324,-0.727504 0,-0.584817 0.517944,-0.960074 2.046613,-1.14464 v 1.270443 c -0.441965,0.393134 -0.802324,0.600543 -1.244289,0.600543 z"
     aria-label="a"
     style="stroke-width:0.16553;paint-order:stroke fill markers"
     id="path3" /><path
     fill="#ffffff"
     d="M 9.3274864,12.374055 9.6810585,11.274936 A 58.737658,58.737658 0 0 0 10.397307,8.8383346 h 0.03973 c 0.235549,0.8350988 0.461167,1.6205384 0.726346,2.4366014 l 0.343309,1.099119 z m 3.0925966,2.924915 h 0.962226 L 10.937597,8.1027193 H 9.9255463 L 7.4813303,15.29897 H 8.4049877 L 9.101869,13.100567 h 2.630272 z"
     aria-label="A"
     style="stroke-width:0.16553;paint-order:stroke fill markers"
     id="path4" /></svg>
