<svg xmlns="http://www.w3.org/2000/svg" xml:space="preserve" width="24" height="24"><defs><clipPath id="a" clipPathUnits="userSpaceOnUse"><path d="M-22.543-286.093h280.477V-99.11H-22.543Z"/></clipPath><clipPath id="c" clipPathUnits="userSpaceOnUse"><path d="M444.944-728.121h176.722v353.444H444.944Z"/></clipPath><clipPath id="i" clipPathUnits="userSpaceOnUse"><path d="M0 0h19v19H0Z"/></clipPath><clipPath id="j" clipPathUnits="userSpaceOnUse"><path d="m6.707 11.402.703-2.468 3.902 2.468Z"/></clipPath><clipPath id="e" clipPathUnits="userSpaceOnUse"><path d="M-22.543-286.093h280.477V-99.11H-22.543Z"/></clipPath><clipPath id="m" clipPathUnits="userSpaceOnUse"><path d="M0 0h19v19H0Z"/></clipPath><clipPath id="n" clipPathUnits="userSpaceOnUse"><path d="M9.199 10.066v1.336h.227v-1.191z"/></clipPath><clipPath id="f" clipPathUnits="userSpaceOnUse"><path d="M444.944-728.121h176.722v353.444H444.944Z"/></clipPath><linearGradient id="h" x1="-240.47" x2="-240.47" y1="-60.605" y2="-29.026" gradientTransform="matrix(.18118 0 0 .17805 52.192 15.636)" gradientUnits="userSpaceOnUse" spreadMethod="pad"><stop offset="0" style="stop-opacity:1;stop-color:#4285db"/><stop offset="1" style="stop-opacity:1;stop-color:#42b9db"/></linearGradient><linearGradient id="b" x1="10.583" x2="225.69" y1="-184.68" y2="-184.68" gradientUnits="userSpaceOnUse" spreadMethod="pad"><stop offset="0" style="stop-opacity:1;stop-color:#fff"/><stop offset="1" style="stop-opacity:0;stop-color:#fff"/></linearGradient><linearGradient id="l" x1="10.583" x2="225.69" y1="-184.68" y2="-184.68" gradientUnits="userSpaceOnUse" spreadMethod="pad"><stop offset="0" style="stop-opacity:1;stop-color:#fafbfb"/><stop offset="1" style="stop-opacity:1;stop-color:#fafbfb"/></linearGradient><linearGradient id="d" x1="520" x2="410" y1="-620" y2="-620" gradientUnits="userSpaceOnUse" spreadMethod="pad"><stop offset="0" style="stop-opacity:1;stop-color:#fff"/><stop offset="1" style="stop-opacity:0;stop-color:#fff"/></linearGradient><linearGradient id="p" x1="520" x2="410" y1="-620" y2="-620" gradientUnits="userSpaceOnUse" spreadMethod="pad"><stop offset="0" style="stop-opacity:1;stop-color:#000"/><stop offset="1" style="stop-opacity:1;stop-color:#000"/></linearGradient><mask id="k" width="1" height="1" x="0" y="0" maskUnits="userSpaceOnUse"><g clip-path="url(#e)"><path d="M-22.543-286.093h280.477V-99.11H-22.543Z" style="fill:url(#b);stroke:none"/></g></mask><mask id="o" width="1" height="1" x="0" y="0" maskUnits="userSpaceOnUse"><g clip-path="url(#f)"><path d="M444.944-728.121h176.722v353.444H444.944Z" style="fill:url(#d);stroke:none"/></g></mask><radialGradient id="g" cx="0" cy="0" r="1" fx="0" fy="0" gradientTransform="matrix(0 16.5 -16.5 0 9 .75)" gradientUnits="userSpaceOnUse" spreadMethod="pad"><stop offset="0" style="stop-opacity:1;stop-color:#a4a4a4"/><stop offset="1" style="stop-opacity:1;stop-color:#626262"/></radialGradient></defs><path d="M7.195.836c.09 0 .176-.012.258-.035a23.86 23.86 0 0 1 3.231.008 10.26 10.26 0 0 1 2.836.636c1.519.625 2.558 1.711 3.121 3.254.316.93.507 1.887.566 2.867a21.227 21.227 0 0 1-.086 3.696 8.976 8.976 0 0 1-.672 2.488c-.637 1.383-1.672 2.336-3.101 2.859a11.693 11.693 0 0 1-3.575.618 15.998 15.998 0 0 1-4.089-.309c-2.481-.551-4.016-2.066-4.594-4.543a14.244 14.244 0 0 1-.336-3.383c-.027-1.215.101-2.41.387-3.59.609-2.312 2.078-3.746 4.406-4.3A10.27 10.27 0 0 1 7.195.836Z" style="fill:url(#g);fill-rule:evenodd;stroke:none" transform="matrix(1.33333 0 0 1.33333 0 0)"/><path d="m12 13.73-2.307 1.734c0 2.015-.287 2.015-1.73 2.885l4.037.287 4.036-.292c-1.443-.865-1.73-.865-1.73-2.88z" style="fill:#b3b3b3;fill-opacity:1;fill-rule:nonzero;stroke:none;stroke-width:1.33333"/><path d="M7.964 18.344h8.073v.579H7.964Z" style="fill:#ccc;fill-opacity:1;fill-rule:nonzero;stroke:none;stroke-width:1.33333"/><path d="M5.672 5.432h12.656c.645 0 1.172.527 1.172 1.177v7.688c0 .651-.527 1.172-1.172 1.172H5.672A1.171 1.171 0 0 1 4.5 14.297V6.61c0-.65.526-1.177 1.172-1.177z" style="fill:#303030;fill-opacity:1;fill-rule:nonzero;stroke:none;stroke-width:1.33333"/><path d="M4.312 4.281h9.376a.74.74 0 0 1 .746.739v5.648a.742.742 0 0 1-.746.738H4.312a.742.742 0 0 1-.746-.738V5.02a.74.74 0 0 1 .746-.739z" style="fill:url(#h);stroke:none" transform="matrix(1.33333 0 0 1.33333 0 0)"/><path d="m10.15 14.297 3.626-3.922 3.016 3.922z" style="fill:#1a1a1a;fill-opacity:1;fill-rule:nonzero;stroke:none;stroke-width:1.33333"/><g clip-path="url(#i)" opacity=".9" transform="matrix(1.33333 0 0 1.33333 0 0)"><path d="M7.41 8.934 3.836 11.23a.765.765 0 0 0 .48.172h6.993z" style="fill:#e6e6e6;fill-opacity:1;fill-rule:nonzero;stroke:none"/></g><path d="m8.942 15.203.938-3.291 5.202 3.29z" style="fill:#fafbfb;fill-opacity:1;fill-rule:nonzero;stroke:none;stroke-width:1.33333"/><path d="m13.776 10.073-1.208 1.282v3.848h5.677c.276 0 .52-.104.703-.282z" style="fill:#b0b2b5;fill-opacity:1;fill-rule:nonzero;stroke:none;stroke-width:1.33333"/><path d="m13.776 10.073 1.51 5.13h2.959c.276 0 .52-.104.703-.282z" style="fill:#fff;fill-opacity:1;fill-rule:nonzero;stroke:none;stroke-width:1.33333"/><g clip-path="url(#j)" transform="matrix(1.33333 0 0 1.33333 0 0)"><g mask="url(#k)" transform="matrix(.0214 0 0 .0214 6.482 14.12)"><path d="m6.707 11.402.703-2.468 3.902 2.468Z" style="fill:url(#l);stroke:none"/></g></g><g clip-path="url(#m)" opacity=".35" transform="matrix(1.33333 0 0 1.33333 0 0)"><g clip-path="url(#n)"><g mask="url(#o)" transform="matrix(.00566 0 0 .00566 6.482 14.12)"><path d="M9.199 10.066v1.336h.227v-1.191z" style="fill:url(#p);stroke:none"/></g></g></g><g fill="#fff"><path d="M16.584 6.274h.84v3.1h-.84z"/><path d="M16.584 9.375h.84v1.809h-.84z" opacity=".75"/><path d="M16.584 11.184h.84v.418h-.84z" opacity=".35"/><path fill-rule="evenodd" d="M16.584 11.602v.134l.42.706.42-.706v-.134z"/></g><path fill="#fff" d="M9.587 6.47 9.4 6.29c-.349.365-.77.804-1.128 1.218a15.007 15.007 0 0 0-.87 1.1c-.208.294-.33.503-.458.749-.06.114-.127.249-.186.376a5.28 5.28 0 0 0-.08.182c-.024.056-.045.11-.061.159-.034.103-.051.214-.052.31a.647.647 0 0 0 .012.144.365.365 0 0 0 .031.09.278.278 0 0 0 .124.124c.02.01.043.019.065.026a1.227 1.227 0 0 0 .247.052c.065.007.136.01.227.005.087-.005.19-.018.32-.04.126-.023.28-.056.44-.092.156-.037.318-.077.462-.115a10.721 10.721 0 0 0 .676-.2c.088-.03.17-.059.284-.102.111-.042.254-.098.467-.184l.792-.322.893-.366c.55-.225.975-.397 1.374-.577a24.563 24.563 0 0 0 1.128-.55 28.766 28.766 0 0 0 .97-.518 19.772 19.772 0 0 0 .71-.423l-.015.007a.167.167 0 0 1-.083.013.178.178 0 0 1-.135-.272c.002-.002.002-.002.002 0a1.494 1.494 0 0 1-.108.114 13.753 13.753 0 0 1-.16.151 20.507 20.507 0 0 0-.616.591c-.172.17-.397.397-.688.677-.29.279-.644.608-1.075 1.015-.428.404-.93.881-1.325 1.25-.393.37-.684.636-1.002.941-.319.306-.667.653-.917.9l-.309.307a5.978 5.978 0 0 0-.19.195 1.176 1.176 0 0 0-.066.079.73.73 0 0 0-.052.076.343.343 0 0 0-.02.038.177.177 0 0 0-.013.051.127.127 0 0 0 .005.05.116.116 0 0 0 .11.082.133.133 0 0 0 .04-.006l.125-.042c.06-.022.145-.053.264-.1a46.432 46.432 0 0 0 .956-.391c.348-.145.657-.28 1.084-.444.43-.165.978-.36 1.528-.543.555-.184 1.114-.359 1.59-.5.48-.14.889-.25 1.13-.318.124-.034.225-.064.295-.084l.08-.022.019-.005c.001 0 .002-.001 0-.001h-.007a.057.057 0 0 1-.026-.01.057.057 0 0 1-.025-.04.051.051 0 0 1 .001-.02.025.025 0 0 1 .004-.009l-.004.009a4.28 4.28 0 0 1-.138.177 2.34 2.34 0 0 1-.162.176 3.586 3.586 0 0 1-.313.273c-.283.224-.739.54-1.298.906-.285.187-.604.392-.89.575l-.718.459-.201.13a1.617 1.617 0 0 0-.109.08.231.231 0 0 0-.027.024.068.068 0 0 0-.009.013.036.036 0 0 0-.004.023.031.031 0 0 0 .018.024.04.04 0 0 0 .017.003.198.198 0 0 0 .027-.004c.074-.015.224-.045.53-.104l1.166-.225c.39-.076.663-.131 1.097-.194a34.004 34.004 0 0 1 1.576-.18c.272-.025.532-.045.746-.061.227-.017.407-.031.533-.043a2.44 2.44 0 0 0 .156-.02.599.599 0 0 0 .091-.02.154.154 0 0 0 .026-.01.04.04 0 0 0 .013-.01.02.02 0 0 0 .002-.006v-.006a.02.02 0 0 0-.007-.01 16.2 16.2 0 0 1-.001.002.017.017 0 0 1 .006.009v.004a.013.013 0 0 1-.002.004.038.038 0 0 1-.013.01.158.158 0 0 1-.025.01.676.676 0 0 1-.091.018 2.56 2.56 0 0 1-.155.018c-.126.011-.306.024-.533.04-.215.015-.475.034-.747.058a35.35 35.35 0 0 0-1.578.172c-.434.06-.708.111-1.1.184-.37.069-.846.157-1.167.215a32.06 32.06 0 0 1-.543.095h-.005.005a.023.023 0 0 1 .007.007.024.024 0 0 1 .004.025l.002-.002a.231.231 0 0 1 .021-.017 10.01 10.01 0 0 1 .308-.201c.166-.105.431-.27.721-.454a91.215 91.215 0 0 0 .895-.57 22.177 22.177 0 0 0 1.312-.9c.142-.11.246-.2.325-.274a5.39 5.39 0 0 0 .286-.31l.038-.049a.19.19 0 0 0 .013-.02.06.06 0 0 0 .002-.06.06.06 0 0 0-.047-.03h-.011a.4.4 0 0 0-.04.006l-.084.02-.296.077c-.243.063-.651.168-1.135.306a47.005 47.005 0 0 0-3.14 1.019c-.432.16-.746.292-1.093.433a44.617 44.617 0 0 1-.957.375c-.118.044-.2.071-.26.09a1.682 1.682 0 0 1-.118.033.075.075 0 0 1 .024-.004.103.103 0 0 1 .1.11l-.003.015.008-.012a.99.99 0 0 1 .095-.113c.044-.045.105-.104.189-.184l.314-.3c.254-.246.604-.588.924-.888.32-.3.612-.56 1.01-.927.4-.368.905-.841 1.336-1.241.433-.401.792-.73 1.087-1.006.295-.278.528-.504.7-.669.175-.166.293-.274.423-.39l.2-.176.167-.148a2.09 2.09 0 0 0 .127-.122.63.63 0 0 0 .037-.044.214.214 0 0 0 .028-.052.183.183 0 0 0-.036-.18.182.182 0 0 0-.182-.056.208.208 0 0 0-.058.025 19.245 19.245 0 0 0-.09.052l-.175.102c-.137.08-.301.174-.44.25a30.685 30.685 0 0 1-.965.499c-.356.178-.727.358-1.115.529-.392.171-.812.336-1.366.559l-.897.36-.792.315a16.008 16.008 0 0 1-.458.174 11.896 11.896 0 0 1-.922.27c-.14.035-.299.072-.45.106-.156.034-.302.063-.418.081-.116.019-.2.027-.264.029a.828.828 0 0 1-.147-.008.692.692 0 0 1-.14-.034.216.216 0 0 1 .085.086c.01.018.012.032.012.032.002.006 0-.01 0-.032a.604.604 0 0 1 .032-.163 4.932 4.932 0 0 1 .123-.285 9.99 9.99 0 0 1 .18-.355c.12-.226.233-.414.428-.686a14.975 14.975 0 0 1 .843-1.058c.35-.402.762-.832 1.113-1.198Z" opacity=".5" style="stroke-width:.369696"/></svg>