<?xml version="1.0" encoding="UTF-8" standalone="no"?>
<svg
   width="24"
   height="24"
   version="1"
   id="svg29271"
   sodipodi:docname="preferences-system-power-management.svg"
   xml:space="preserve"
   inkscape:version="1.2.2 (b0a8486541, 2022-12-01)"
   xmlns:inkscape="http://www.inkscape.org/namespaces/inkscape"
   xmlns:sodipodi="http://sodipodi.sourceforge.net/DTD/sodipodi-0.dtd"
   xmlns:xlink="http://www.w3.org/1999/xlink"
   xmlns="http://www.w3.org/2000/svg"
   xmlns:svg="http://www.w3.org/2000/svg"><defs
     id="defs29275"><radialGradient
       id="paint0_radial_29_149"
       cx="0"
       cy="0"
       r="1"
       gradientUnits="userSpaceOnUse"
       gradientTransform="matrix(0,31.999991,-32.000024,0,72.000019,2.1748198e-6)"><stop
         stop-color="#80D2FF"
         id="stop17930" /><stop
         offset="1"
         stop-color="#2991C9"
         id="stop17932"
         style="stop-color:#002a43;stop-opacity:1;" /></radialGradient><radialGradient
       id="paint0_radial_29_149-3"
       cx="0"
       cy="0"
       r="1"
       gradientUnits="userSpaceOnUse"
       gradientTransform="matrix(0,31.999965,-32.000018,0,141.21699,-14.468428)"><stop
         stop-color="#80D2FF"
         id="stop17930-6" /><stop
         offset="1"
         stop-color="#2991C9"
         id="stop17932-7"
         style="stop-color:#002a43;stop-opacity:1;" /></radialGradient><radialGradient
       id="paint0_radial_29_23"
       cx="0"
       cy="0"
       r="1"
       gradientUnits="userSpaceOnUse"
       gradientTransform="matrix(0,22.000031,-22.000031,0,11.999983,1.000049)"><stop
         stop-color="#8FC8FF"
         id="stop184"
         offset="0"
         style="stop-color:#ffffff;stop-opacity:1;" /><stop
         offset="1"
         stop-color="#0056A8"
         id="stop186"
         style="stop-color:#bebebe;stop-opacity:1;" /></radialGradient><radialGradient
       inkscape:collect="always"
       xlink:href="#paint0_radial_29_149-5"
       id="radialGradient28890"
       gradientUnits="userSpaceOnUse"
       gradientTransform="matrix(0,10.999989,-11.000007,0,11.999999,1.0000001)"
       cx="0"
       cy="0"
       r="1" /><radialGradient
       id="paint0_radial_29_149-5"
       cx="0"
       cy="0"
       r="1"
       gradientUnits="userSpaceOnUse"
       gradientTransform="matrix(0,150,-150,0,-278.33746,-123.84153)"><stop
         stop-color="#80D2FF"
         id="stop17930-62"
         offset="0"
         style="stop-color:#77d906;stop-opacity:1;" /><stop
         offset="1"
         stop-color="#2991C9"
         id="stop17932-9"
         style="stop-color:#43a703;stop-opacity:1;" /></radialGradient></defs><sodipodi:namedview
     id="namedview29273"
     pagecolor="#ffffff"
     bordercolor="#000000"
     borderopacity="0.25"
     inkscape:showpageshadow="2"
     inkscape:pageopacity="0.0"
     inkscape:pagecheckerboard="0"
     inkscape:deskcolor="#d1d1d1"
     showgrid="false"
     inkscape:zoom="4.8282136"
     inkscape:cx="9.6308912"
     inkscape:cy="39.455587"
     inkscape:window-width="2560"
     inkscape:window-height="1000"
     inkscape:window-x="1680"
     inkscape:window-y="0"
     inkscape:window-maximized="1"
     inkscape:current-layer="svg29271" /><path
     fill-rule="evenodd"
     clip-rule="evenodd"
     d="m 9.596023,1.113637 c 0.11984,0.0013 0.23439,-0.01398 0.34365,-0.04581 1.43581,-0.09407 2.87142,-0.09026 4.30702,0.01134 1.3017,0.101407 2.5618,0.383838 3.7802,0.847258 2.0256,0.833943 3.41171,2.280393 4.15811,4.339357 0.4269,1.239642 0.6789,2.514366 0.7561,3.824156 0.1067,1.644702 0.0685,3.285805 -0.1146,4.92331 -0.13701,1.1509 -0.4349,2.2577 -0.8935,3.320305 -0.8506,1.842503 -2.229,3.113402 -4.1352,3.812704 -1.5447,0.521902 -3.13311,0.796702 -4.76531,0.8243 -1.8359,0.09562 -3.65338,-0.04176 -5.45254,-0.41198 C 4.268373,21.820878 2.225564,19.801871 1.451554,16.501769 1.123068,15.016166 0.974175,13.512466 1.004804,11.990662 0.968144,10.37246 1.139955,8.777147 1.520286,7.204764 2.331679,4.119131 4.290473,2.207057 7.396663,1.468568 8.120453,1.291607 8.853583,1.173306 9.596023,1.113626 Z"
     fill="url(#paint0_radial_29_23)"
     id="path182"
     style="fill:url(#paint0_radial_29_23);stroke-width:1" /><path
     fill-rule="evenodd"
     clip-rule="evenodd"
     d="m 9.5960594,1.1135881 c 0.11982,0.0013 0.23437,-0.014 0.34364,-0.0458 1.4357196,-0.09405 2.8714396,-0.09024 4.3070096,0.01145 1.30174,0.101422 2.56176,0.383844 3.78019,0.847259 2.02562,0.833939 3.41169,2.280393 4.15815,4.339349 0.42688,1.239633 0.67892,2.514371 0.756,3.8241029 0.10671,1.644791 0.0686,3.285843 -0.11454,4.9233 -0.13699,1.150894 -0.43487,2.257713 -0.8935,3.320312 -0.85059,1.842499 -2.22897,3.113364 -4.1352,3.812669 -1.54469,0.521988 -3.13316,0.796768 -4.76527,0.824414 -1.8359,0.09548 -3.6533996,-0.04195 -5.4525696,-0.412207 -3.31158,-0.737655 -5.354388,-2.756592 -6.1284,-6.056737 -0.328447,-1.485584 -0.47737902,-2.989283 -0.446745,-4.511094 -0.03666,-1.618246 0.135158,-3.2135379 0.515473,-4.7858969 0.811406,-3.085629 2.770202,-4.997699 5.876392,-5.736183 0.72379,-0.176952 1.45694,-0.295263 2.19937,-0.354934 z"
     fill="url(#paint0_radial_29_149)"
     id="path28882"
     style="fill:url(#radialGradient28890);stroke-width:0.0733333" /><g
     id="g3088"
     transform="translate(2e-7,-43.152006)"><path
       style="fill:#fafafa;fill-opacity:1;stroke-width:2.41639;stroke-linecap:round;stroke-linejoin:round"
       d="m 12.471554,47.652006 -2.232308,4.193901 1.979119,0.01822 -0.491482,2.48187 2.033871,-3.420277 -1.95796,-0.01145 z"
       id="path3071"
       sodipodi:nodetypes="ccccccc" /><path
       id="path3073"
       style="fill:#fafafa;fill-opacity:1;stroke-width:3.06055;stroke-linecap:round;stroke-linejoin:round"
       d="m 8.8504516,50.930186 c -0.3139156,0 -0.566687,0.252772 -0.566687,0.566687 v 10.588445 c 0,0.313916 0.2527714,0.566687 0.566687,0.566687 h 2.8013114 v -0.753013 c -0.915097,-0.09754 -1.624246,-0.867537 -1.624246,-1.809288 0,-0.0233 6.29e-4,-0.0463 0.0013,-0.06939 -6.78e-4,-0.0093 -0.0013,-0.0189 -0.0013,-0.02827 v -1.169355 c 0,-0.313916 0.252772,-0.566687 0.566687,-0.566687 H 10.7317 v -1.107675 c 0,-0.206324 0.166326,-0.372651 0.372651,-0.372651 0.206324,0 0.372652,0.166327 0.372652,0.372651 v 1.107675 h 1.045994 v -1.107675 c 0,-0.206324 0.166328,-0.372651 0.372651,-0.372651 0.206325,0 0.372652,0.166327 0.372652,0.372651 v 1.107675 h 0.137496 c 0.313915,0 0.566687,0.252771 0.566687,0.566687 v 1.169355 c 0,0.0077 -9.69e-4,0.01552 -0.0013,0.02313 0.0011,0.02478 0.0013,0.0495 0.0013,0.07453 0,0.925313 -0.683696,1.68411 -1.575416,1.802862 v 0.759438 h 2.752481 c 0.313915,0 0.566687,-0.252771 0.566687,-0.566687 V 51.496874 c 0,-0.313915 -0.252772,-0.566687 -0.566687,-0.566687 h -0.880229 l -3.170108,5.269807 0.516572,-3.865296 -2.3040144,0.0013 0.7465874,-1.405796 z" /></g></svg>
