<?xml version="1.0" encoding="UTF-8" standalone="no"?>
<svg
   width="24"
   height="24"
   viewBox="0 0 24 24"
   fill="none"
   version="1.1"
   id="svg154"
   sodipodi:docname="preferences-web-browser-cookies.svg"
   inkscape:version="1.2.2 (b0a8486541, 2022-12-01)"
   inkscape:export-filename="preferences-web-browser-cookies.svg"
   inkscape:export-xdpi="800"
   inkscape:export-ydpi="800"
   xmlns:inkscape="http://www.inkscape.org/namespaces/inkscape"
   xmlns:sodipodi="http://sodipodi.sourceforge.net/DTD/sodipodi-0.dtd"
   xmlns="http://www.w3.org/2000/svg"
   xmlns:svg="http://www.w3.org/2000/svg"
   xmlns:sketch="http://www.bohemiancoding.com/sketch/ns">
  <sodipodi:namedview
     id="namedview156"
     pagecolor="#ffffff"
     bordercolor="#000000"
     borderopacity="1"
     inkscape:showpageshadow="0"
     inkscape:pageopacity="0"
     inkscape:pagecheckerboard="false"
     inkscape:deskcolor="#ffffff"
     showgrid="true"
     inkscape:zoom="22.627417"
     inkscape:cx="7.2036503"
     inkscape:cy="19.26866"
     inkscape:window-width="2560"
     inkscape:window-height="998"
     inkscape:window-x="1680"
     inkscape:window-y="0"
     inkscape:window-maximized="1"
     inkscape:current-layer="svg154"
     showguides="true"
     guidecolor="#ff0000"
     guideopacity="1"
     inkscape:lockguides="true"
     showborder="true"
     borderlayer="true">
    <inkscape:grid
       type="xygrid"
       id="grid356"
       color="#000000"
       opacity="0.10196078"
       empcolor="#000000"
       empopacity="0.10196078"
       snapvisiblegridlinesonly="true"
       enabled="true"
       visible="true"
       dotted="false" />
    <sodipodi:guide
       position="4,12"
       orientation="-1,0"
       id="guide764"
       inkscape:locked="true"
       inkscape:label="left-circle"
       inkscape:color="rgb(255,0,0)" />
    <sodipodi:guide
       position="5,12"
       orientation="-1,0"
       id="guide2218"
       inkscape:locked="true"
       inkscape:label="left-square"
       inkscape:color="rgb(255,0,0)" />
    <sodipodi:guide
       position="12,20"
       orientation="0,1"
       id="guide2220"
       inkscape:locked="true"
       inkscape:label="top-circle"
       inkscape:color="rgb(255,0,0)" />
    <sodipodi:guide
       position="12,5"
       orientation="0,1"
       id="guide2222"
       inkscape:locked="true"
       inkscape:label="bottom-square"
       inkscape:color="rgb(255,0,0)" />
    <sodipodi:guide
       position="12,4"
       orientation="0,1"
       id="guide2224"
       inkscape:locked="true"
       inkscape:label="bottom-circle"
       inkscape:color="rgb(255,0,0)" />
    <sodipodi:guide
       position="19,12"
       orientation="-1,0"
       id="guide2226"
       inkscape:locked="true"
       inkscape:label="right-square"
       inkscape:color="rgb(255,0,0)" />
    <sodipodi:guide
       position="20,12"
       orientation="-1,0"
       id="guide2228"
       inkscape:locked="true"
       inkscape:label="right-circle"
       inkscape:color="rgb(255,0,0)" />
    <sodipodi:guide
       position="12,19"
       orientation="0,1"
       id="guide2230"
       inkscape:locked="true"
       inkscape:label="top-square"
       inkscape:color="rgb(255,0,0)" />
    <sodipodi:guide
       position="12,12"
       orientation="1,0"
       id="guide765"
       inkscape:locked="true" />
    <sodipodi:guide
       position="12,12"
       orientation="0,-1"
       id="guide767"
       inkscape:locked="true" />
    <sodipodi:guide
       position="12,12"
       orientation="0.70710678,0.70710678"
       id="guide2266"
       inkscape:locked="true"
       inkscape:label=""
       inkscape:color="rgb(255,0,0)" />
    <sodipodi:guide
       position="12,12"
       orientation="-0.70710678,0.70710678"
       id="guide2994"
       inkscape:locked="true"
       inkscape:label=""
       inkscape:color="rgb(255,0,0)" />
    <sodipodi:guide
       position="3,12"
       orientation="-1,0"
       id="guide131543"
       inkscape:locked="true"
       inkscape:label="left-horizontal"
       inkscape:color="rgb(255,0,0)" />
    <sodipodi:guide
       position="12,21"
       orientation="0,1"
       id="guide131545"
       inkscape:locked="true"
       inkscape:label="top-vertical"
       inkscape:color="rgb(255,0,0)" />
    <sodipodi:guide
       position="21,12"
       orientation="-1,0"
       id="guide131547"
       inkscape:locked="true"
       inkscape:label="right-horizontal"
       inkscape:color="rgb(255,0,0)" />
    <sodipodi:guide
       position="12,3"
       orientation="0,1"
       id="guide131549"
       inkscape:locked="true"
       inkscape:label="bottom-vertical"
       inkscape:color="rgb(255,0,0)" />
  </sodipodi:namedview>
  <defs
     id="defs152" />
  <path
     d="M 50,5 C 9.0909092,5 5,25.454546 5,50 5,82.727274 17.272728,95 50,95 82.727274,95 95,82.727274 95,50 95,25.454546 90.909093,5 50,5 Z"
     sketch:type="MSShapeGroup"
     id="path6"
     style="font-variation-settings:normal;display:inline;opacity:1;vector-effect:none;fill:#4d4d4d;fill-opacity:1;stroke-width:4.56656;stroke-linecap:butt;stroke-linejoin:miter;stroke-miterlimit:4;stroke-dasharray:none;stroke-dashoffset:0;stroke-opacity:1;-inkscape-stroke:none;stop-color:#000000;stop-opacity:1"
     sodipodi:nodetypes="sssss"
     inkscape:label="Shape"
     transform="matrix(0.24444444,0,0,0.24444444,-0.22222222,-0.22222222)" />
  <g
     id="g255302"
     transform="matrix(0.33391495,0,0,0.33391495,1.3147118,1.3147215)">
    <path
       d="M 31.953,5 A 27,27 0 0 0 6.768,22.357 h 0.114 l 5.785,-1.929 3.858,3.857 V 20.428 L 20.382,18.5 v -1.93 l 3.857,-1.928 3.857,-3.857 v 1.928 l 1.928,-1.928 -1.928,-1.93 h 3.857 v 1.93 L 35.81,8.855 33.881,6.927 V 5.096 A 27,27 0 0 0 31.953,5 Z m 20.009,8.92 -0.723,0.723 v 1.928 h 2.833 a 27,27 0 0 0 -2.11,-2.651 z m 2.538,3.247 -7.118,7.119 -1.929,5.785 V 32 l 3.857,3.857 3.857,1.929 5.383,-1.327 A 27,27 0 0 0 58.953,31.999 27,27 0 0 0 54.5,17.168 Z M 8.81,26.214 6.881,28.143 H 5.265 A 27.18,27.18 0 0 0 5.047,30.116 V 30.12 L 8.81,32 l 1.929,1.929 3.857,1.928 1.928,1.929 -1.928,1.928 v 3.858 l 1.928,3.857 3.857,3.857 v 5.07 A 27,27 0 0 0 31.952,59 c 0.328,-0.006 0.656,-0.017 0.984,-0.035 l 0.945,-1.894 v -1.928 l 3.857,-1.929 1.929,-1.929 V 47.428 L 41.595,45.5 V 43.57 L 39.667,41.642 33.881,39.713 30.024,35.856 H 28.095 L 26.167,33.927 20.38,32 16.523,33.928 h -3.857 v -3.857 h -1.929 v -3.857 z"
       fill="#ffffff"
       opacity="0.5"
       id="path254808" />
  </g>
  <g
     id="g258558"
     transform="matrix(0.33333381,0,0,0.33333381,1.3333052,1.3333181)">
    <path
       d="m 32,18 a 4,4 0 0 0 -4,4 4,4 0 0 0 0.062,0.676 A 12,12 0 0 0 20,34 12,12 0 0 0 32,46 12,12 0 0 0 44,34 12,12 0 0 0 41.73,26.996 2,2 0 0 0 42,26 2,2 0 0 0 40,24 2,2 0 0 0 39,24.27 12,12 0 0 0 35.94,22.68 4,4 0 0 0 36,22 4,4 0 0 0 32,18 Z m 0,2 a 2,2 0 0 1 2,2 2,2 0 0 1 -0.012,0.168 A 12,12 0 0 0 32,22 12,12 0 0 0 30.008,22.18 2,2 0 0 1 30,22 2,2 0 0 1 32,20 Z m 0,4 a 10,10 0 0 1 0.882,0.042 10,10 0 0 1 0.118,0.008 10,10 0 0 1 0.26,0.04 10,10 0 0 1 0.64,0.1 10,10 0 0 1 0.268,0.06 10,10 0 0 1 0.74,0.192 10,10 0 0 1 0.206,0.06 10,10 0 0 1 0.004,0 10,10 0 0 1 0.124,0.048 10,10 0 0 1 0.684,0.266 10,10 0 0 1 0.266,0.12 10,10 0 0 1 0.656,0.334 10,10 0 0 1 0.176,0.1 10,10 0 0 1 0.73,0.47 10,10 0 0 1 0.028,0.016 10,10 0 0 1 0.12,0.09 10,10 0 0 1 0.098,0.07 10,10 0 0 1 1.984,1.984 10,10 0 0 1 0.004,0.008 10,10 0 0 1 0.532,0.78 10,10 0 0 1 0.026,0.04 10,10 0 0 1 0.016,0.032 10,10 0 0 1 0.45,0.832 10,10 0 0 1 0.008,0.014 10,10 0 0 1 0.008,0.016 10,10 0 0 1 0.35,0.844 10,10 0 0 1 0.044,0.118 10,10 0 0 1 0.24,0.776 10,10 0 0 1 0.06,0.246 10,10 0 0 1 0.13,0.646 10,10 0 0 1 0.062,0.4 10,10 0 0 1 0.05,0.56 A 10,10 0 0 1 42,34 a 10,10 0 0 1 -0.042,0.882 10,10 0 0 1 -0.052,0.42 10,10 0 0 1 -0.086,0.55 10,10 0 0 1 -0.106,0.472 10,10 0 0 1 -0.12,0.484 10,10 0 0 1 -0.168,0.5 10,10 0 0 1 -0.16,0.442 10,10 0 0 1 -0.24,0.524 10,10 0 0 1 -0.17,0.354 10,10 0 0 1 -0.29,0.508 10,10 0 0 1 -0.23,0.376 10,10 0 0 1 -0.316,0.44 10,10 0 0 1 -0.274,0.36 10,10 0 0 1 -0.348,0.4 10,10 0 0 1 -0.332,0.354 10,10 0 0 1 -0.356,0.332 10,10 0 0 1 -0.398,0.348 10,10 0 0 1 -0.36,0.274 10,10 0 0 1 -0.44,0.316 10,10 0 0 1 -0.376,0.23 10,10 0 0 1 -0.508,0.29 10,10 0 0 1 -0.354,0.172 10,10 0 0 1 -0.524,0.238 10,10 0 0 1 -0.44,0.16 10,10 0 0 1 -0.5,0.168 10,10 0 0 1 -0.486,0.12 A 10,10 0 0 1 33.852,43.82 10,10 0 0 1 33.3,43.906 10,10 0 0 1 32.882,43.958 10,10 0 0 1 32,44 a 10,10 0 0 1 -0.882,-0.042 10,10 0 0 1 -0.42,-0.052 10,10 0 0 1 -0.55,-0.086 10,10 0 0 1 -0.472,-0.106 10,10 0 0 1 -0.484,-0.12 10,10 0 0 1 -0.5,-0.168 10,10 0 0 1 -0.442,-0.16 10,10 0 0 1 -0.524,-0.24 10,10 0 0 1 -0.354,-0.17 10,10 0 0 1 -0.508,-0.29 10,10 0 0 1 -0.376,-0.23 10,10 0 0 1 -0.44,-0.316 10,10 0 0 1 -0.36,-0.274 10,10 0 0 1 -0.4,-0.348 10,10 0 0 1 -0.354,-0.332 10,10 0 0 1 -0.332,-0.356 10,10 0 0 1 -0.348,-0.398 10,10 0 0 1 -0.274,-0.36 10,10 0 0 1 -0.316,-0.44 10,10 0 0 1 -0.23,-0.376 10,10 0 0 1 -0.29,-0.508 10,10 0 0 1 -0.172,-0.354 10,10 0 0 1 -0.238,-0.524 10,10 0 0 1 -0.16,-0.44 10,10 0 0 1 -0.168,-0.5 10,10 0 0 1 -0.12,-0.486 A 10,10 0 0 1 22.18,35.852 10,10 0 0 1 22.094,35.3 10,10 0 0 1 22.042,34.882 10,10 0 0 1 22,34 a 10,10 0 0 1 0.042,-0.882 10,10 0 0 1 0.048,-0.38 10,10 0 0 1 0.1,-0.636 10,10 0 0 1 0.064,-0.29 10,10 0 0 1 0.176,-0.684 10,10 0 0 1 0.094,-0.284 10,10 0 0 1 0.234,-0.644 10,10 0 0 1 0.144,-0.32 10,10 0 0 1 0.29,-0.59 10,10 0 0 1 0.136,-0.244 10,10 0 0 1 0.39,-0.636 10,10 0 0 1 0.126,-0.172 10,10 0 0 1 0.492,-0.644 10,10 0 0 1 0.078,-0.09 10,10 0 0 1 0.628,-0.672 10,10 0 0 1 0.74,-0.648 10,10 0 0 1 0.046,-0.04 10,10 0 0 1 0.754,-0.534 10,10 0 0 1 0.082,-0.052 10,10 0 0 1 0.812,-0.464 10,10 0 0 1 0.91,-0.406 10,10 0 0 1 2.242,-0.582 10,10 0 0 1 0.052,-0.008 10,10 0 0 1 0.042,-0.004 10,10 0 0 1 0.742,-0.066 10,10 0 0 1 0.228,-0.016 A 10,10 0 0 1 32,24 Z m 0,2 v 6 a 2,2 0 0 1 2,2 h 6 a 8,8 0 0 0 -0.036,-0.676 8,8 0 0 0 -0.05,-0.42 8,8 0 0 0 -0.054,-0.372 8,8 0 0 0 -0.102,-0.446 8,8 0 0 0 -0.08,-0.308 8,8 0 0 0 -0.14,-0.43 8,8 0 0 0 -0.132,-0.36 8,8 0 0 0 -0.156,-0.348 8,8 0 0 0 -0.18,-0.37 8,8 0 0 0 -0.188,-0.328 8,8 0 0 0 -0.23,-0.376 8,8 0 0 0 -0.194,-0.27 8,8 0 0 0 -0.282,-0.37 8,8 0 0 0 -0.226,-0.258 8,8 0 0 0 -0.298,-0.32 8,8 0 0 0 -0.32,-0.298 8,8 0 0 0 -0.258,-0.226 8,8 0 0 0 -0.37,-0.28 8,8 0 0 0 -0.27,-0.196 8,8 0 0 0 -0.376,-0.23 8,8 0 0 0 -0.328,-0.188 8,8 0 0 0 -0.37,-0.18 8,8 0 0 0 -0.348,-0.156 8,8 0 0 0 -0.36,-0.134 8,8 0 0 0 -0.43,-0.14 8,8 0 0 0 -0.308,-0.078 8,8 0 0 0 -0.446,-0.1 8,8 0 0 0 -0.37,-0.056 8,8 0 0 0 -0.422,-0.05 A 8,8 0 0 0 32,26 Z"
       fill="#ffdb4f"
       id="path258068" />
  </g>
</svg>
