<?xml version="1.0" encoding="UTF-8" standalone="no"?>
<svg
   width="24"
   height="24"
   viewBox="0 0 24 24"
   fill="none"
   version="1.1"
   id="svg154"
   sodipodi:docname="preferences-web-browser-identification.svg"
   inkscape:version="1.2.2 (b0a8486541, 2022-12-01)"
   inkscape:export-filename="preferences-web-browser-identification.svg"
   inkscape:export-xdpi="800"
   inkscape:export-ydpi="800"
   xmlns:inkscape="http://www.inkscape.org/namespaces/inkscape"
   xmlns:sodipodi="http://sodipodi.sourceforge.net/DTD/sodipodi-0.dtd"
   xmlns="http://www.w3.org/2000/svg"
   xmlns:svg="http://www.w3.org/2000/svg"
   xmlns:sketch="http://www.bohemiancoding.com/sketch/ns">
  <sodipodi:namedview
     id="namedview156"
     pagecolor="#ffffff"
     bordercolor="#000000"
     borderopacity="1"
     inkscape:showpageshadow="0"
     inkscape:pageopacity="0"
     inkscape:pagecheckerboard="false"
     inkscape:deskcolor="#ffffff"
     showgrid="true"
     inkscape:zoom="22.627417"
     inkscape:cx="7.2036503"
     inkscape:cy="19.312854"
     inkscape:window-width="2560"
     inkscape:window-height="998"
     inkscape:window-x="1680"
     inkscape:window-y="0"
     inkscape:window-maximized="1"
     inkscape:current-layer="svg154"
     showguides="true"
     guidecolor="#ff0000"
     guideopacity="1"
     inkscape:lockguides="true"
     showborder="true"
     borderlayer="true">
    <inkscape:grid
       type="xygrid"
       id="grid356"
       color="#000000"
       opacity="0.10196078"
       empcolor="#000000"
       empopacity="0.10196078"
       snapvisiblegridlinesonly="true"
       enabled="true"
       visible="true"
       dotted="false" />
    <sodipodi:guide
       position="4,12"
       orientation="-1,0"
       id="guide764"
       inkscape:locked="true"
       inkscape:label="left-circle"
       inkscape:color="rgb(255,0,0)" />
    <sodipodi:guide
       position="5,12"
       orientation="-1,0"
       id="guide2218"
       inkscape:locked="true"
       inkscape:label="left-square"
       inkscape:color="rgb(255,0,0)" />
    <sodipodi:guide
       position="12,20"
       orientation="0,1"
       id="guide2220"
       inkscape:locked="true"
       inkscape:label="top-circle"
       inkscape:color="rgb(255,0,0)" />
    <sodipodi:guide
       position="12,5"
       orientation="0,1"
       id="guide2222"
       inkscape:locked="true"
       inkscape:label="bottom-square"
       inkscape:color="rgb(255,0,0)" />
    <sodipodi:guide
       position="12,4"
       orientation="0,1"
       id="guide2224"
       inkscape:locked="true"
       inkscape:label="bottom-circle"
       inkscape:color="rgb(255,0,0)" />
    <sodipodi:guide
       position="19,12"
       orientation="-1,0"
       id="guide2226"
       inkscape:locked="true"
       inkscape:label="right-square"
       inkscape:color="rgb(255,0,0)" />
    <sodipodi:guide
       position="20,12"
       orientation="-1,0"
       id="guide2228"
       inkscape:locked="true"
       inkscape:label="right-circle"
       inkscape:color="rgb(255,0,0)" />
    <sodipodi:guide
       position="12,19"
       orientation="0,1"
       id="guide2230"
       inkscape:locked="true"
       inkscape:label="top-square"
       inkscape:color="rgb(255,0,0)" />
    <sodipodi:guide
       position="12,12"
       orientation="1,0"
       id="guide765"
       inkscape:locked="true" />
    <sodipodi:guide
       position="12,12"
       orientation="0,-1"
       id="guide767"
       inkscape:locked="true" />
    <sodipodi:guide
       position="12,12"
       orientation="0.70710678,0.70710678"
       id="guide2266"
       inkscape:locked="true"
       inkscape:label=""
       inkscape:color="rgb(255,0,0)" />
    <sodipodi:guide
       position="12,12"
       orientation="-0.70710678,0.70710678"
       id="guide2994"
       inkscape:locked="true"
       inkscape:label=""
       inkscape:color="rgb(255,0,0)" />
    <sodipodi:guide
       position="3,12"
       orientation="-1,0"
       id="guide131543"
       inkscape:locked="true"
       inkscape:label="left-horizontal"
       inkscape:color="rgb(255,0,0)" />
    <sodipodi:guide
       position="12,21"
       orientation="0,1"
       id="guide131545"
       inkscape:locked="true"
       inkscape:label="top-vertical"
       inkscape:color="rgb(255,0,0)" />
    <sodipodi:guide
       position="21,12"
       orientation="-1,0"
       id="guide131547"
       inkscape:locked="true"
       inkscape:label="right-horizontal"
       inkscape:color="rgb(255,0,0)" />
    <sodipodi:guide
       position="12,3"
       orientation="0,1"
       id="guide131549"
       inkscape:locked="true"
       inkscape:label="bottom-vertical"
       inkscape:color="rgb(255,0,0)" />
  </sodipodi:namedview>
  <defs
     id="defs152" />
  <path
     d="M 50,5 C 9.0909092,5 5,25.454546 5,50 5,82.727274 17.272728,95 50,95 82.727274,95 95,82.727274 95,50 95,25.454546 90.909093,5 50,5 Z"
     sketch:type="MSShapeGroup"
     id="path6"
     style="font-variation-settings:normal;display:inline;opacity:1;vector-effect:none;fill:#4d4d4d;fill-opacity:1;stroke-width:4.56656;stroke-linecap:butt;stroke-linejoin:miter;stroke-miterlimit:4;stroke-dasharray:none;stroke-dashoffset:0;stroke-opacity:1;-inkscape-stroke:none;stop-color:#000000;stop-opacity:1"
     sodipodi:nodetypes="sssss"
     inkscape:label="Shape"
     transform="matrix(0.24444444,0,0,0.24444444,-0.22222222,-0.22222222)" />
  <g
     id="g255302"
     transform="matrix(0.33391495,0,0,0.33391495,1.3147118,1.3147215)">
    <path
       d="M 31.953,5 A 27,27 0 0 0 6.768,22.357 h 0.114 l 5.785,-1.929 3.858,3.857 V 20.428 L 20.382,18.5 v -1.93 l 3.857,-1.928 3.857,-3.857 v 1.928 l 1.928,-1.928 -1.928,-1.93 h 3.857 v 1.93 L 35.81,8.855 33.881,6.927 V 5.096 A 27,27 0 0 0 31.953,5 Z m 20.009,8.92 -0.723,0.723 v 1.928 h 2.833 a 27,27 0 0 0 -2.11,-2.651 z m 2.538,3.247 -7.118,7.119 -1.929,5.785 V 32 l 3.857,3.857 3.857,1.929 5.383,-1.327 A 27,27 0 0 0 58.953,31.999 27,27 0 0 0 54.5,17.168 Z M 8.81,26.214 6.881,28.143 H 5.265 A 27.18,27.18 0 0 0 5.047,30.116 V 30.12 L 8.81,32 l 1.929,1.929 3.857,1.928 1.928,1.929 -1.928,1.928 v 3.858 l 1.928,3.857 3.857,3.857 v 5.07 A 27,27 0 0 0 31.952,59 c 0.328,-0.006 0.656,-0.017 0.984,-0.035 l 0.945,-1.894 v -1.928 l 3.857,-1.929 1.929,-1.929 V 47.428 L 41.595,45.5 V 43.57 L 39.667,41.642 33.881,39.713 30.024,35.856 H 28.095 L 26.167,33.927 20.38,32 16.523,33.928 h -3.857 v -3.857 h -1.929 v -3.857 z"
       fill="#ffffff"
       opacity="0.5"
       id="path254808" />
  </g>
  <path
     d="M 6.7591605,6.7591605 V 10.502617 H 10.502617 V 6.7591605 Z m 5.2408395,0 v 0.7486914 h 0.748691 V 6.7591605 Z m 1.497383,0 v 3.7434565 h 3.743456 V 6.7591605 Z M 7.5078519,7.5078519 h 2.246074 v 2.246074 h -2.246074 z m 6.7382221,0 h 2.246074 v 2.246074 H 14.246074 Z M 8.2565432,8.2565432 V 9.0052346 H 9.0052346 V 8.2565432 Z m 2.9947658,0 V 9.7539259 H 12 V 9.0052346 h 0.748691 V 8.2565432 H 12 Z M 12,9.7539259 v 0.7486911 h -0.748691 v 0.748692 H 10.502617 V 12 h 0.748692 v 0.748691 h 1.497382 V 12 H 12 v -0.748691 h 0.748691 V 9.7539259 Z m 0.748691,1.4973831 V 12 h 0.748692 v 0.748691 h 0.748691 V 12 h 0.748691 v -0.748691 h -1.497382 z m 2.246074,-2.9947658 v 0.7486914 h 0.748692 V 8.2565432 Z M 7.5078519,11.251309 V 12 H 8.2565432 V 11.251309 Z M 8.2565432,12 v 0.748691 H 9.7539259 V 11.251309 H 9.0052346 V 12 Z M 7.5078519,12 H 6.7591605 v 0.748691 H 7.5078519 Z M 15.743457,11.251309 V 12 h 0.748691 v -0.748691 z m 0,1.497382 v 0.748692 h 0.748691 v -0.748692 z m 0.748691,0.748692 v 0.748691 h 0.748691 v -0.748691 z m -9.7329875,0 v 3.743456 h 3.7434565 v -3.743456 z m 5.9895305,0 v 0.748691 h 0.748692 v -0.748691 z m 0,0.748691 H 12 v 0.748691 h -0.748691 v 0.748692 H 12 v 0.748691 h 0.748691 v -1.497383 z m 1.497383,-0.748691 v 0.748691 h 0.748691 v -0.748691 z m 0.748691,0.748691 v 0.748691 h 0.748692 v -0.748691 z m 0.748692,0.748691 v 0.748692 h 0.748691 v -0.748692 z m 0,0.748692 h -0.748692 v 1.497382 h 0.748692 v -0.748691 z m -0.748692,0 v -0.748692 h -1.497382 v 1.497383 h 0.748691 V 15.743457 Z M 7.5078519,14.246074 h 2.246074 v 2.246074 h -2.246074 z m 0.7486913,0.748691 v 0.748692 h 0.7486914 v -0.748692 z m 8.2356048,1.497383 v 0.748691 h 0.748691 v -0.748691 z"
     fill="#ffdb4f"
     id="path263488"
     style="stroke-width:0.374346" />
</svg>
