<svg xmlns="http://www.w3.org/2000/svg" xmlns:xlink="http://www.w3.org/1999/xlink" xml:space="preserve" width="24" height="24"><defs><linearGradient id="a"><stop offset="0" style="stop-color:#fefefc;stop-opacity:1"/><stop offset=".757" style="stop-color:#fefefc;stop-opacity:1"/><stop offset="1" style="stop-color:#d4d4d4;stop-opacity:1"/></linearGradient><linearGradient id="b"><stop offset="0" style="stop-color:#3e2a06;stop-opacity:1"/><stop offset="1" style="stop-color:#ad780a;stop-opacity:1"/></linearGradient><linearGradient xlink:href="#b" id="d" x1="442.039" x2="490.122" y1="371.544" y2="293.585" gradientTransform="matrix(.87491 0 0 .81149 60.367 62.587)" gradientUnits="userSpaceOnUse"/><linearGradient xlink:href="#b" id="c" x1="442.039" x2="490.122" y1="371.544" y2="293.585" gradientUnits="userSpaceOnUse"/><linearGradient id="g" x1="331.947" x2="331.947" y1="12" y2="123" gradientUnits="userSpaceOnUse"><stop offset="0" style="stop-color:#99a29b;stop-opacity:1"/><stop offset="1" style="stop-color:#738777;stop-opacity:1"/></linearGradient><linearGradient xlink:href="#g" id="h" x1="331.947" x2="331.947" y1="12" y2="123" gradientUnits="userSpaceOnUse"/><linearGradient id="i" x1="12" x2="12" y1="0" y2="12" gradientTransform="translate(.75 .75) scale(.6875)" gradientUnits="userSpaceOnUse" spreadMethod="pad"><stop offset="0" style="stop-opacity:1;stop-color:#89a8f5"/><stop offset="1" style="stop-opacity:1;stop-color:#5771e5"/></linearGradient><radialGradient xlink:href="#a" id="f" cx="223.196" cy="137.661" r="14.572" fx="223.196" fy="137.661" gradientTransform="matrix(1.08578 -.03431 .03944 1.24799 -154.542 -26.543)" gradientUnits="userSpaceOnUse"/><radialGradient xlink:href="#a" id="e" cx="223.196" cy="137.661" r="14.572" fx="223.196" fy="137.661" gradientTransform="matrix(.81524 -.03431 .02961 1.24799 -129.437 -26.543)" gradientUnits="userSpaceOnUse"/></defs><path d="M7.195.836c.09 0 .176-.012.258-.035a23.86 23.86 0 0 1 3.231.008 10.26 10.26 0 0 1 2.836.636c1.519.625 2.558 1.711 3.121 3.254.316.93.507 1.887.566 2.867a21.227 21.227 0 0 1-.086 3.696 8.976 8.976 0 0 1-.672 2.488c-.637 1.383-1.672 2.336-3.101 2.859a11.693 11.693 0 0 1-3.575.618 15.998 15.998 0 0 1-4.089-.309c-2.481-.551-4.016-2.066-4.594-4.543a14.244 14.244 0 0 1-.336-3.383c-.027-1.215.101-2.41.387-3.59.609-2.312 2.078-3.746 4.406-4.3A10.27 10.27 0 0 1 7.195.836Z" style="fill:url(#i);fill-rule:evenodd;stroke:none" transform="matrix(1.33333 0 0 1.33333 0 0)"/><path d="M11.994 4.5a4.567 4.567 0 0 0-4.566 4.543v2.723h-.295c-.68 0-1.219.54-1.219 1.218v5.295c0 .67.54 1.221 1.219 1.221h9.732c.667 0 1.22-.55 1.22-1.22v-5.296a1.22 1.22 0 0 0-1.22-1.218h-.293V9.043A4.571 4.571 0 0 0 11.994 4.5Zm0 1.434a3.147 3.147 0 0 1 3.147 3.109v2.723H8.86V9.043a3.141 3.141 0 0 1 3.133-3.11z" style="fill:#5872e5;fill-opacity:1;fill-rule:nonzero;stroke:#5771e5;stroke-width:1;stroke-dasharray:none;stroke-opacity:1"/><path d="M18.63 9.604a2.027 2.027 0 0 0-2.026 2.016v1.432h.636V11.62c.01-.765.629-1.38 1.39-1.38.766 0 1.386.615 1.396 1.38v1.432h.635V11.62a2.028 2.028 0 0 0-2.03-2.016z" style="fill:#cad8ed;fill-opacity:1;fill-rule:nonzero;stroke:none;stroke-width:1.33333" transform="matrix(2.2536 0 0 2.2536 -29.99 -17.144)"/><path d="M16.473 12.828h4.319c.296 0 .54.24.54.541v2.35a.544.544 0 0 1-.54.541h-4.32a.54.54 0 0 1-.54-.541v-2.35c0-.301.24-.541.54-.541z" style="fill:#f7c04a;fill-opacity:1;fill-rule:nonzero;stroke:none;stroke-width:1.33333" transform="matrix(2.2536 0 0 2.2536 -29.99 -17.144)"/><path d="M18.63 13.656a.498.498 0 0 0-.494.495.497.497 0 0 0 .265.437v.61c0 .125.104.229.23.229.129 0 .229-.104.229-.23v-.609a.494.494 0 0 0-.23-.932z" style="fill:#eb8117;fill-opacity:1;fill-rule:nonzero;stroke:none;stroke-width:1.33333" transform="matrix(2.2536 0 0 2.2536 -29.99 -17.144)"/></svg>