<?xml version="1.0" encoding="UTF-8" standalone="no"?>
<svg
   width="24"
   height="24"
   version="1"
   id="svg22978"
   sodipodi:docname="preferences-desktop-keyboard.svg"
   xml:space="preserve"
   inkscape:version="1.2.2 (b0a8486541, 2022-12-01)"
   inkscape:export-filename="preferences-desktop-keyboard.svg"
   inkscape:export-xdpi="512"
   inkscape:export-ydpi="512"
   xmlns:inkscape="http://www.inkscape.org/namespaces/inkscape"
   xmlns:sodipodi="http://sodipodi.sourceforge.net/DTD/sodipodi-0.dtd"
   xmlns="http://www.w3.org/2000/svg"
   xmlns:svg="http://www.w3.org/2000/svg"><defs
     id="defs22982"><radialGradient
       fx="0"
       fy="0"
       cx="0"
       cy="0"
       r="1"
       gradientUnits="userSpaceOnUse"
       gradientTransform="matrix(0,22.000002,-22.000002,0,11.999545,0.99996359)"
       spreadMethod="pad"
       id="radialGradient12763-3"><stop
         style="stop-opacity:1;stop-color:#a4a4a4"
         offset="0"
         id="stop12759-6" /><stop
         style="stop-opacity:1;stop-color:#626262"
         offset="1"
         id="stop12761-7" /></radialGradient><radialGradient
       id="paint0_radial_29_149"
       cx="0"
       cy="0"
       r="1"
       gradientUnits="userSpaceOnUse"
       gradientTransform="matrix(0,31.999991,-32.000024,0,72.000019,2.1748198e-6)"><stop
         stop-color="#80D2FF"
         id="stop17930" /><stop
         offset="1"
         stop-color="#2991C9"
         id="stop17932"
         style="stop-color:#002a43;stop-opacity:1;" /></radialGradient><radialGradient
       id="paint0_radial_29_149-3"
       cx="0"
       cy="0"
       r="1"
       gradientUnits="userSpaceOnUse"
       gradientTransform="matrix(0,31.999965,-32.000018,0,141.21699,-14.468428)"><stop
         stop-color="#80D2FF"
         id="stop17930-6" /><stop
         offset="1"
         stop-color="#2991C9"
         id="stop17932-7"
         style="stop-color:#002a43;stop-opacity:1;" /></radialGradient><radialGradient
       id="paint0_radial_29_23"
       cx="0"
       cy="0"
       r="1"
       gradientUnits="userSpaceOnUse"
       gradientTransform="matrix(0,22.000031,-22.000031,0,11.999983,1.000049)"><stop
         stop-color="#8FC8FF"
         id="stop184"
         offset="0"
         style="stop-color:#ffffff;stop-opacity:1;" /><stop
         offset="1"
         stop-color="#0056A8"
         id="stop186"
         style="stop-color:#bebebe;stop-opacity:1;" /></radialGradient><radialGradient
       id="paint0_radial_29_149-5"
       cx="0"
       cy="0"
       r="1"
       gradientUnits="userSpaceOnUse"
       gradientTransform="matrix(0,150,-150,0,-278.33746,-123.84153)"><stop
         stop-color="#80D2FF"
         id="stop17930-62" /><stop
         offset="1"
         stop-color="#2991C9"
         id="stop17932-9"
         style="stop-color:#0083d0;stop-opacity:1;" /></radialGradient></defs><sodipodi:namedview
     id="namedview22980"
     pagecolor="#ffffff"
     bordercolor="#000000"
     borderopacity="0.25"
     inkscape:showpageshadow="2"
     inkscape:pageopacity="0.0"
     inkscape:pagecheckerboard="0"
     inkscape:deskcolor="#d1d1d1"
     showgrid="false"
     inkscape:zoom="26.5"
     inkscape:cx="21.584906"
     inkscape:cy="16.207547"
     inkscape:window-width="2560"
     inkscape:window-height="1000"
     inkscape:window-x="1680"
     inkscape:window-y="0"
     inkscape:window-maximized="1"
     inkscape:current-layer="svg22978" /><path
     d="m 9.5928809,1.1146316 c 0.119998,0 0.234668,-0.015999 0.344,-0.046667 1.4373331,-0.094667 2.8746671,-0.089333 4.3080001,0.010666 1.301333,0.1039999 2.561333,0.3853333 3.781333,0.8479999 2.025334,0.8333334 3.410667,2.2813331 4.161334,4.3386665 0.421333,1.2400001 0.676,2.5160004 0.754666,3.822667 0.104,1.646666 0.068,3.286666 -0.114666,4.927999 -0.140001,1.150668 -0.437334,2.254668 -0.896001,3.317334 -0.849333,1.844 -2.229333,3.114667 -4.134667,3.812 -1.542666,0.521334 -3.130666,0.797333 -4.766666,0.824 -1.833333,0.09867 -3.6506661,-0.04267 -5.4520001,-0.412 -3.308,-0.734667 -5.354666,-2.754666 -6.125333,-6.057333 -0.328,-1.484 -0.47999998,-2.989333 -0.448,-4.510667 -0.036,-1.619999 0.134667,-3.2133326 0.516,-4.7866659 0.812,-3.0826664 2.770667,-4.9946665 5.874667,-5.7333332 0.723999,-0.1773333 1.458666,-0.2973333 2.197333,-0.3546663 z"
     style="fill:url(#radialGradient12763-3);fill-rule:evenodd;stroke:none;stroke-width:1.33333"
     id="path12765-6" /><rect
     x="3.3149242"
     y="8.8278751"
     width="1.6981132"
     height="1.4150944"
     ry="0.28301886"
     fill="#ffffff"
     paint-order="markers stroke fill"
     id="rect25507"
     style="stroke-width:0.283019" /><rect
     x="5.9229374"
     y="8.8278751"
     width="1.6981132"
     height="1.4150944"
     ry="0.28301886"
     fill="#ffffff"
     paint-order="markers stroke fill"
     id="rect25509"
     style="stroke-width:0.283019" /><rect
     x="8.5307178"
     y="8.8278751"
     width="1.6981132"
     height="1.4150944"
     ry="0.28301886"
     fill="#ffffff"
     paint-order="markers stroke fill"
     id="rect25511"
     style="stroke-width:0.283019" /><rect
     x="11.138704"
     y="8.8278751"
     width="1.6981132"
     height="1.4150944"
     ry="0.28301886"
     fill="#ffffff"
     paint-order="markers stroke fill"
     id="rect25513"
     style="stroke-width:0.283019" /><rect
     x="13.746511"
     y="8.8278751"
     width="1.6981132"
     height="1.4150944"
     ry="0.28301886"
     fill="#ffffff"
     paint-order="markers stroke fill"
     id="rect25515"
     style="stroke-width:0.283019" /><rect
     x="16.354544"
     y="8.8278751"
     width="1.6981132"
     height="1.4150944"
     ry="0.28301886"
     fill="#ffffff"
     paint-order="markers stroke fill"
     id="rect25517"
     style="stroke-width:0.283019" /><rect
     x="3.3149242"
     y="11.280705"
     width="1.6981132"
     height="1.4150944"
     ry="0.28301886"
     fill="#ffffff"
     paint-order="markers stroke fill"
     id="rect25519"
     style="stroke-width:0.283019" /><rect
     x="5.9229374"
     y="11.280705"
     width="1.6981132"
     height="1.4150944"
     ry="0.28301886"
     fill="#ffffff"
     paint-order="markers stroke fill"
     id="rect25521"
     style="stroke-width:0.283019" /><rect
     x="8.5307178"
     y="11.280705"
     width="1.6981132"
     height="1.4150944"
     ry="0.28301886"
     fill="#ffffff"
     paint-order="markers stroke fill"
     id="rect25523"
     style="stroke-width:0.283019" /><rect
     x="11.138704"
     y="11.287459"
     width="1.6981132"
     height="1.4150944"
     ry="0.28301886"
     fill="#ffffff"
     paint-order="markers stroke fill"
     id="rect25525"
     style="stroke-width:0.283019" /><rect
     x="13.746511"
     y="11.287459"
     width="1.6981132"
     height="1.4150944"
     ry="0.28301886"
     fill="#ffffff"
     paint-order="markers stroke fill"
     id="rect25527"
     style="stroke-width:0.283019" /><rect
     x="3.3149242"
     y="13.747274"
     width="1.6981132"
     height="1.4150944"
     ry="0.28301886"
     fill="#ffffff"
     paint-order="markers stroke fill"
     id="rect25529"
     style="stroke-width:0.283019" /><rect
     x="13.746511"
     y="13.747274"
     width="1.6981132"
     height="1.4150944"
     ry="0.28301886"
     fill="#ffffff"
     paint-order="markers stroke fill"
     id="rect25531"
     style="stroke-width:0.283019" /><rect
     x="16.354544"
     y="13.747274"
     width="1.6981132"
     height="1.4150944"
     ry="0.28301886"
     fill="#ffffff"
     paint-order="markers stroke fill"
     id="rect25533"
     style="stroke-width:0.283019" /><rect
     x="18.96221"
     y="13.747274"
     width="1.6981132"
     height="1.4150944"
     ry="0.28301886"
     fill="#ffffff"
     paint-order="markers stroke fill"
     id="rect25535"
     style="stroke-width:0.283019" /><path
     id="rect25537"
     style="fill:#0083d0;fill-opacity:1;stroke-width:0.287557"
     d="M 19.261719 8.828125 C 19.103808 8.8440788 18.982422 8.9783881 18.982422 9.140625 L 18.982422 11.308594 L 16.623047 11.308594 C 16.469043 11.308594 16.345703 11.433946 16.345703 11.589844 L 16.345703 12.464844 C 16.345703 12.620742 16.469043 12.746094 16.623047 12.746094 L 20.40625 12.746094 C 20.560254 12.746094 20.685547 12.620742 20.685547 12.464844 L 20.685547 11.589844 C 20.685547 11.575224 20.683741 11.560875 20.681641 11.546875 L 20.681641 9.140625 C 20.681641 8.9675723 20.542193 8.828125 20.369141 8.828125 L 19.294922 8.828125 C 19.284106 8.828125 19.272246 8.8270614 19.261719 8.828125 z M 6.2070312 13.734375 C 6.0437424 13.734375 5.9121094 13.866008 5.9121094 14.029297 L 5.9121094 14.878906 C 5.9121094 15.042195 6.0437424 15.171875 6.2070312 15.171875 L 12.517578 15.171875 C 12.680867 15.171875 12.8125 15.042195 12.8125 14.878906 L 12.8125 14.029297 C 12.8125 13.866008 12.680867 13.734375 12.517578 13.734375 L 6.2070312 13.734375 z " /><path
     id="path25683"
     style="fill:#0083d0;fill-opacity:1;stroke-width:0.287557"
     d="M 19.261719 8.828125 C 19.103808 8.8440788 18.982422 8.9783881 18.982422 9.140625 L 18.982422 11.308594 L 16.623047 11.308594 C 16.469043 11.308594 16.345703 11.433946 16.345703 11.589844 L 16.345703 12.464844 C 16.345703 12.620742 16.469043 12.746094 16.623047 12.746094 L 20.40625 12.746094 C 20.560254 12.746094 20.685547 12.620742 20.685547 12.464844 L 20.685547 11.589844 C 20.685547 11.575224 20.683741 11.560875 20.681641 11.546875 L 20.681641 9.140625 C 20.681641 8.9675723 20.542193 8.828125 20.369141 8.828125 L 19.294922 8.828125 C 19.284106 8.828125 19.272246 8.8270614 19.261719 8.828125 z M 6.2070312 13.734375 C 6.0437424 13.734375 5.9121094 13.866008 5.9121094 14.029297 L 5.9121094 14.878906 C 5.9121094 15.042195 6.0437424 15.171875 6.2070312 15.171875 L 12.517578 15.171875 C 12.680867 15.171875 12.8125 15.042195 12.8125 14.878906 L 12.8125 14.029297 C 12.8125 13.866008 12.680867 13.734375 12.517578 13.734375 L 6.2070312 13.734375 z " /></svg>
