<svg xmlns="http://www.w3.org/2000/svg" width="24" height="24"><defs><linearGradient id="a" x1="12" x2="12" y1="0" y2="12" gradientTransform="matrix(.91667 0 0 .91667 1 1)" gradientUnits="userSpaceOnUse"><stop stop-color="#fff"/><stop offset="1" stop-color="#D9D9D9"/></linearGradient></defs><path fill="url(#a)" fill-rule="evenodd" d="M9.596 1.114c.12 0 .234-.014.344-.046a31.628 31.628 0 0 1 4.307.011c1.301.102 2.561.384 3.78.848 2.026.833 3.412 2.28 4.158 4.339.427 1.24.679 2.514.756 3.824a27.935 27.935 0 0 1-.115 4.923 11.882 11.882 0 0 1-.893 3.32c-.85 1.843-2.229 3.114-4.135 3.813a15.626 15.626 0 0 1-4.765.825 21.425 21.425 0 0 1-5.453-.413c-3.312-.737-5.354-2.756-6.128-6.056a19.046 19.046 0 0 1-.447-4.511 18.49 18.49 0 0 1 .515-4.786c.812-3.086 2.77-4.998 5.877-5.736a13.953 13.953 0 0 1 2.199-.355Z" clip-rule="evenodd" style="fill:url(#a);stroke-width:.916667"/><g transform="matrix(.31023 0 0 .31023 -114.75 -148.637)"><rect width="32" height="56" x="392.57" y="489.8" fill="#35373a" rx="2" ry="2"/><rect width="28" height="44" x="394.57" y="495.8" fill="#fff" opacity=".2" rx="1" ry="1"/><rect width="12" height="2" x="402.57" y="491.8" fill="#212324" rx="1" ry="1"/><path fill="#fff" d="M405.57 509.8a1 1 0 1 0 0 2 1 1 0 0 0 0-2zm7 0-2 2 4 4-4 4 2 2 6-6-2-2zm-10 6a2 2 0 1 0 0 4 2 2 0 0 0 0-4zm5 6a3 3 0 1 0 0 6 3 3 0 0 0 0-6z"/></g></svg>