<?xml version="1.0" encoding="UTF-8" standalone="no"?>
<svg
   width="24"
   height="24"
   version="1.1"
   id="svg12"
   sodipodi:docname="preferences-system-session-services.svg"
   xml:space="preserve"
   inkscape:version="1.3 (0e150ed6c4, 2023-07-21)"
   inkscape:export-filename="../../../../../../../../../../svg/preferences-system-session-services.pdf"
   inkscape:export-xdpi="96"
   inkscape:export-ydpi="96"
   xmlns:inkscape="http://www.inkscape.org/namespaces/inkscape"
   xmlns:sodipodi="http://sodipodi.sourceforge.net/DTD/sodipodi-0.dtd"
   xmlns="http://www.w3.org/2000/svg"
   xmlns:svg="http://www.w3.org/2000/svg"><sodipodi:namedview
     id="namedview12"
     pagecolor="#ffffff"
     bordercolor="#000000"
     borderopacity="0.25"
     inkscape:showpageshadow="2"
     inkscape:pageopacity="0.0"
     inkscape:pagecheckerboard="0"
     inkscape:deskcolor="#d1d1d1"
     inkscape:zoom="16.985294"
     inkscape:cx="9.24329"
     inkscape:cy="10.980087"
     inkscape:window-width="1920"
     inkscape:window-height="998"
     inkscape:window-x="6000"
     inkscape:window-y="445"
     inkscape:window-maximized="1"
     inkscape:current-layer="svg12"><inkscape:page
       x="0"
       y="0"
       width="24"
       height="24"
       id="page2"
       margin="0"
       bleed="0"
       inkscape:export-filename="../../../../../../../../../../svg/preferences-system-session-services.svg"
       inkscape:export-xdpi="96"
       inkscape:export-ydpi="96" /></sodipodi:namedview><defs
     id="defs2"><radialGradient
       fx="0"
       fy="0"
       cx="0"
       cy="0"
       r="1"
       gradientUnits="userSpaceOnUse"
       gradientTransform="matrix(0,14.55393,-19.940415,0,9,0.75)"
       spreadMethod="pad"
       id="radialGradient2"><stop
         style="stop-opacity:1;stop-color:#66bcff"
         offset="0"
         id="stop1-3" /><stop
         style="stop-opacity:1;stop-color:#b29aff"
         offset="1"
         id="stop2-6" /></radialGradient><clipPath
       clipPathUnits="userSpaceOnUse"
       id="clipPath3"><path
         d="M 0,0 H 19 V 19 H 0 Z"
         id="path3-7" /></clipPath><clipPath
       clipPathUnits="userSpaceOnUse"
       id="clipPath5"><path
         d="M 0,0 H 19 V 19 H 0 Z"
         id="path5" /></clipPath><clipPath
       clipPathUnits="userSpaceOnUse"
       id="clipPath7"><path
         d="M 0,0 H 19 V 19 H 0 Z"
         id="path7" /></clipPath><clipPath
       clipPathUnits="userSpaceOnUse"
       id="clipPath9"><path
         d="M 0,0 H 19 V 19 H 0 Z"
         id="path9" /></clipPath><clipPath
       clipPathUnits="userSpaceOnUse"
       id="clipPath11"><path
         d="M 0,0 H 19 V 19 H 0 Z"
         id="path11" /></clipPath><clipPath
       clipPathUnits="userSpaceOnUse"
       id="clipPath13"><path
         d="M 0,0 H 19 V 19 H 0 Z"
         id="path13-5" /></clipPath></defs><g
     id="g1"
     inkscape:groupmode="layer"
     inkscape:label="1"><path
       id="path2-3"
       d="m 7.195,0.836 c 0.09,0 0.176,-0.012 0.258,-0.035 1.078,-0.071 2.156,-0.067 3.231,0.008 0.976,0.078 1.921,0.289 2.836,0.636 1.519,0.625 2.558,1.711 3.121,3.254 0.32,0.93 0.507,1.887 0.566,2.867 0.078,1.231 0.051,2.469 -0.086,3.692 -0.101,0.859 -0.328,1.699 -0.672,2.492 -0.637,1.383 -1.672,2.336 -3.101,2.859 C 12.195,17 10.992,17.207 9.773,17.227 8.402,17.301 7.031,17.195 5.684,16.918 3.199,16.367 1.668,14.852 1.09,12.375 0.844,11.266 0.73,10.129 0.754,8.992 0.727,7.785 0.855,6.578 1.141,5.402 1.75,3.09 3.219,1.656 5.547,1.102 6.09,0.969 6.641,0.879 7.195,0.836 Z"
       transform="scale(1.3333333)"
       style="fill:url(#radialGradient2);fill-rule:evenodd;stroke:none" /><g
       opacity="0.908778"
       id="g4"
       style="opacity:0.75;fill:#b3b3b3"><path
         d="M 8.992,0.75 C 8.48,0.75 7.969,0.766 7.453,0.801 7.371,0.824 7.285,0.836 7.195,0.836 6.641,0.879 6.09,0.969 5.547,1.102 4.363,1.383 3.406,1.891 2.668,2.625 H 15.336 C 14.836,2.129 14.23,1.738 13.52,1.445 12.609,1.098 11.656,0.883 10.684,0.809 10.121,0.77 9.559,0.75 8.992,0.75 Z"
         style="fill:#b3b3b3;fill-opacity:1;fill-rule:evenodd;stroke:none"
         transform="scale(1.3333333)"
         clip-path="url(#clipPath3)"
         id="path4" /></g><g
       opacity="0.35"
       id="g6"><path
         d="m 4.77,1.543 h 0.558 c 0.152,0 0.277,0.125 0.277,0.281 0,0.153 -0.125,0.278 -0.277,0.278 H 4.77 C 4.613,2.102 4.492,1.977 4.492,1.824 4.492,1.668 4.613,1.543 4.77,1.543 Z"
         style="fill:#000000;fill-opacity:1;fill-rule:nonzero;stroke:none"
         transform="scale(1.3333333)"
         clip-path="url(#clipPath5)"
         id="path6" /></g><g
       opacity="0.35"
       id="g8"><path
         d="m 7.883,1.543 h 2.234 c 0.153,0 0.278,0.125 0.278,0.281 0,0.153 -0.125,0.278 -0.278,0.278 H 7.883 C 7.73,2.102 7.605,1.977 7.605,1.824 7.605,1.668 7.73,1.543 7.883,1.543 Z"
         style="fill:#000000;fill-opacity:1;fill-rule:nonzero;stroke:none"
         transform="scale(1.3333333)"
         clip-path="url(#clipPath7)"
         id="path8" /></g><g
       opacity="0.35"
       id="g10"><path
         d="m 13.223,1.543 c 0.152,0 0.277,0.125 0.277,0.281 0,0.153 -0.125,0.278 -0.277,0.278 -0.157,0 -0.282,-0.125 -0.282,-0.278 0,-0.156 0.125,-0.281 0.282,-0.281 z"
         style="fill:#000000;fill-opacity:1;fill-rule:nonzero;stroke:none"
         transform="scale(1.3333333)"
         clip-path="url(#clipPath9)"
         id="path10" /></g><g
       opacity="0.35"
       id="g12"><path
         d="m 12.105,1.543 h 0.278 c 0.156,0 0.281,0.125 0.281,0.281 0,0.153 -0.125,0.278 -0.281,0.278 h -0.278 c -0.152,0 -0.277,-0.125 -0.277,-0.278 0,-0.156 0.125,-0.281 0.277,-0.281 z"
         style="fill:#000000;fill-opacity:1;fill-rule:nonzero;stroke:none"
         transform="scale(1.3333333)"
         clip-path="url(#clipPath11)"
         id="path12" /></g><g
       opacity="0.35"
       id="g14"><path
         d="m 11.27,1.543 c 0.152,0 0.277,0.125 0.277,0.281 0,0.153 -0.125,0.278 -0.277,0.278 -0.157,0 -0.282,-0.125 -0.282,-0.278 0,-0.156 0.125,-0.281 0.282,-0.281 z"
         style="fill:#000000;fill-opacity:1;fill-rule:nonzero;stroke:none"
         transform="scale(1.3333333)"
         clip-path="url(#clipPath13)"
         id="path14-5" /></g><path
       id="path15"
       d="m 9,6.238 c -2.145,0 -3.883,1.739 -3.879,3.883 0,0.035 0.004,0.074 0.004,0.109 h 7.75 c 0,-0.035 0.004,-0.074 0.004,-0.109 C 12.883,7.977 11.145,6.242 9,6.238 Z"
       style="fill:#ffffff;fill-opacity:1;fill-rule:nonzero;stroke:none"
       transform="scale(1.3333333)" /><path
       id="path16"
       d="m 9,5.25 c -0.371,0 -0.672,0.301 -0.672,0.672 0,0.008 0,0.016 0,0.019 h 1.344 c 0,-0.003 0,-0.011 0,-0.019 C 9.672,5.551 9.371,5.25 9,5.25 Z"
       style="fill:#ffffff;fill-opacity:1;fill-rule:nonzero;stroke:none"
       transform="scale(1.3333333)" /><path
       id="path17"
       d="m 4.949,11.02 c -0.242,0 -0.437,0.195 -0.437,0.441 v 1.289 h 8.976 v -1.289 c 0,-0.246 -0.199,-0.441 -0.441,-0.441 z"
       style="fill:#ffffff;fill-opacity:1;fill-rule:nonzero;stroke:none"
       transform="scale(1.3333333)" /></g></svg>
