<?xml version="1.0" encoding="UTF-8" standalone="no"?>
<svg
   width="24"
   height="24"
   version="1.1"
   id="svg12"
   sodipodi:docname="preferences-desktop-effects.svg"
   xml:space="preserve"
   inkscape:version="1.3 (0e150ed6c4, 2023-07-21)"
   xmlns:inkscape="http://www.inkscape.org/namespaces/inkscape"
   xmlns:sodipodi="http://sodipodi.sourceforge.net/DTD/sodipodi-0.dtd"
   xmlns="http://www.w3.org/2000/svg"
   xmlns:svg="http://www.w3.org/2000/svg"><sodipodi:namedview
     id="namedview12"
     pagecolor="#ffffff"
     bordercolor="#000000"
     borderopacity="0.25"
     inkscape:showpageshadow="2"
     inkscape:pageopacity="0.0"
     inkscape:pagecheckerboard="0"
     inkscape:deskcolor="#d1d1d1"
     inkscape:zoom="16.985294"
     inkscape:cx="9.24329"
     inkscape:cy="10.980087"
     inkscape:window-width="1920"
     inkscape:window-height="998"
     inkscape:window-x="6000"
     inkscape:window-y="445"
     inkscape:window-maximized="1"
     inkscape:current-layer="svg12" /><defs
     id="defs2"><radialGradient
       id="a"
       cx="0"
       cy="0"
       r="1"
       fx="0"
       fy="0"
       gradientTransform="matrix(0 19.40524 -26.58722 0 12 1)"
       gradientUnits="userSpaceOnUse"><stop
         offset="0"
         stop-color="#68BBFF"
         stop-opacity=".875"
         style="stop-color:#66bcff;stop-opacity:1"
         id="stop1" /><stop
         offset="1"
         stop-color="#A99EFF"
         style="stop-color:#b29aff;stop-opacity:1"
         id="stop2" /></radialGradient></defs><path
     fill="url(#a)"
     fill-rule="evenodd"
     d="M9.596 1.114c.12 0 .234-.014.344-.046a31.627 31.627 0 0 1 4.307.011c1.301.102 2.562.384 3.78.848 2.026.833 3.412 2.28 4.158 4.339.427 1.24.679 2.514.756 3.824a27.94 27.94 0 0 1-.114 4.923 11.876 11.876 0 0 1-.894 3.32c-.85 1.843-2.229 3.114-4.135 3.813a15.624 15.624 0 0 1-4.765.825 21.423 21.423 0 0 1-5.453-.413c-3.312-.737-5.354-2.756-6.128-6.056a19.047 19.047 0 0 1-.447-4.511 18.491 18.491 0 0 1 .515-4.786c.812-3.086 2.77-4.998 5.877-5.736a13.954 13.954 0 0 1 2.199-.355Z"
     clip-rule="evenodd"
     style="fill:url(#a)"
     id="path2" /><path
     fill-rule="evenodd"
     d="M11.992 1c-.684 0-1.368.023-2.052.068-.11.032-.224.047-.344.046-.742.06-1.476.178-2.2.355C5.82 1.843 4.54 2.52 3.555 3.5H20.45c-.668-.659-1.476-1.183-2.424-1.573a13.537 13.537 0 0 0-3.78-.848A31.656 31.656 0 0 0 11.992 1z"
     clip-rule="evenodd"
     opacity=".35"
     id="path3" /><rect
     width="1.488"
     height=".744"
     x="5.987"
     y="2.059"
     opacity=".35"
     ry=".373"
     style="fill:#000;stroke-width:1.40646;paint-order:stroke markers fill"
     id="rect3" /><rect
     width="3.721"
     height=".744"
     x="10.139"
     y="2.059"
     opacity=".35"
     ry=".373"
     style="fill:#000;stroke-width:1.40646;paint-order:stroke markers fill"
     id="rect4" /><rect
     width=".744"
     height=".744"
     x="17.257"
     y="2.059"
     opacity=".35"
     ry=".373"
     style="fill:#000;stroke-width:1.40646;paint-order:stroke markers fill"
     id="rect5" /><rect
     width="1.117"
     height=".744"
     x="15.769"
     y="2.059"
     opacity=".35"
     ry=".373"
     style="fill:#000;stroke-width:1.40646;paint-order:stroke markers fill"
     id="rect6" /><rect
     width=".744"
     height=".744"
     x="14.652"
     y="2.059"
     opacity=".35"
     ry=".373"
     style="fill:#000;stroke-width:1.40646;paint-order:stroke markers fill"
     id="rect7" /><g
     fill="#ccdfff"
     style="stroke-width:3.78"
     transform="matrix(.36814 0 0 .36814 .226 1.295)"
     id="g11"><rect
       width="5"
       height="5"
       x="17.001"
       y="48.001"
       ry=".499"
       style="paint-order:stroke markers fill"
       id="rect8" /><rect
       width="5"
       height="5"
       x="25.335"
       y="48.001"
       ry=".499"
       style="paint-order:stroke markers fill"
       id="rect9" /><rect
       width="5"
       height="5"
       x="33.669"
       y="48.001"
       ry=".499"
       style="paint-order:stroke markers fill"
       id="rect10" /><rect
       width="5"
       height="5"
       x="42.003"
       y="48.001"
       ry=".499"
       style="paint-order:stroke markers fill"
       id="rect11" /></g><path
     d="M5.748 20.084a.735.735 0 0 0-.736.736v.764c.75.433 1.603.76 2.568.975 1.8.37 3.617.507 5.453.412a15.614 15.614 0 0 0 4.764-.825c.428-.157.83-.343 1.205-.558v-.768a.735.735 0 0 0-.736-.736z"
     style="opacity:.35;fill:#fff"
     id="path11" /><g
     id="g16"
     transform="matrix(2.5028338,0,0,2.5028338,30.362167,3.0690693)"
     style="stroke-width:0.399547"><path
       id="path13"
       style="opacity:1;fill:#ffffff;fill-opacity:1;stroke-width:0.30202;stroke-linecap:round;stroke-linejoin:round;paint-order:markers fill stroke"
       d="m -7.3355741,2.097313 a 2.0679655,2.0679655 0 0 0 -2.068359,2.06836 2.0679655,2.0679655 0 0 0 0.0039,0.05859 h 4.1269529 a 2.0679655,2.0679655 0 0 0 0.00391,-0.05859 2.0679655,2.0679655 0 0 0 -2.0664059,-2.06836 z" /><path
       id="path14"
       style="opacity:1;fill:#ffffff;fill-opacity:1;stroke-width:0.30202;stroke-linecap:round;stroke-linejoin:round;paint-order:markers fill stroke"
       d="m -7.3363801,1.570592 a 0.35889892,0.35889892 0 0 0 -0.358968,0.358967 0.35889892,0.35889892 0 0 0 6.78e-4,0.01014 h 0.7162386 a 0.35889892,0.35889892 0 0 0 6.786e-4,-0.01014 0.35889892,0.35889892 0 0 0 -0.3586272,-0.358967 z" /><path
       id="rect14"
       style="opacity:1;fill:#ffffff;fill-opacity:1;stroke-width:0.30202;stroke-linecap:round;stroke-linejoin:round;paint-order:markers fill stroke"
       d="m -9.4937771,4.644188 c -0.130466,0 -0.234375,0.103909 -0.234375,0.234375 v 0.6875 h 4.7832031 v -0.6875 c 0,-0.130466 -0.1058624,-0.234375 -0.2363281,-0.234375 z" /></g></svg>
