<?xml version="1.0" encoding="UTF-8" standalone="no"?>
<svg
   width="24"
   height="24"
   fill="none"
   version="1.1"
   id="svg11"
   xml:space="preserve"
   xmlns="http://www.w3.org/2000/svg"
   xmlns:svg="http://www.w3.org/2000/svg"><defs
     id="defs3"><linearGradient
       id="swatch19"><stop
         style="stop-color:#000000;stop-opacity:1;"
         offset="0"
         id="stop19" /></linearGradient><linearGradient
       id="swatch18"><stop
         style="stop-color:#000000;stop-opacity:1;"
         offset="0"
         id="stop18" /></linearGradient><linearGradient
       id="swatch17"><stop
         style="stop-color:#000000;stop-opacity:1;"
         offset="0"
         id="stop17" /></linearGradient><linearGradient
       id="swatch15"><stop
         style="stop-color:#111111;stop-opacity:1;"
         offset="0"
         id="stop15" /></linearGradient><linearGradient
       id="swatch14"><stop
         style="stop-color:#111111;stop-opacity:1;"
         offset="0"
         id="stop14" /></linearGradient><linearGradient
       id="swatch13"><stop
         style="stop-color:#111111;stop-opacity:1;"
         offset="0"
         id="stop13" /></linearGradient><linearGradient
       id="swatch8"><stop
         style="stop-color:#111111;stop-opacity:1;"
         offset="0"
         id="stop12" /></linearGradient><linearGradient
       id="swatch3"><stop
         style="stop-color:#111111;stop-opacity:1;"
         offset="0"
         id="stop7" /></linearGradient><radialGradient
       fx="0"
       fy="0"
       cx="0"
       cy="0"
       r="1"
       gradientUnits="userSpaceOnUse"
       gradientTransform="matrix(0,14.55393,-19.940415,0,8.999954,0.749855)"
       spreadMethod="pad"
       id="radialGradient2"><stop
         style="stop-opacity:1;stop-color:#79b4ff"
         offset="0"
         id="stop1-9" /><stop
         style="stop-opacity:1;stop-color:#a99eff"
         offset="1"
         id="stop2-31" /></radialGradient><clipPath
       clipPathUnits="userSpaceOnUse"
       id="clipPath3"><path
         d="M 0,0 H 19 V 19 H 0 Z"
         transform="scale(1,1.0219087)"
         id="path3-9" /></clipPath><clipPath
       clipPathUnits="userSpaceOnUse"
       id="clipPath5"><path
         d="M 0,0 H 19 V 19 H 0 Z"
         transform="scale(1,1.0219087)"
         id="path5-4" /></clipPath><clipPath
       clipPathUnits="userSpaceOnUse"
       id="clipPath7"><path
         d="M 0,0 H 19 V 19 H 0 Z"
         transform="scale(1,1.0219087)"
         id="path7-7" /></clipPath><clipPath
       clipPathUnits="userSpaceOnUse"
       id="clipPath10"><path
         d="M 0,0 H 19 V 19 H 0 Z"
         transform="scale(1,1.0219087)"
         id="path10" /></clipPath><clipPath
       clipPathUnits="userSpaceOnUse"
       id="clipPath13"><path
         d="M 0,0 H 19 V 19 H 0 Z"
         transform="scale(1,1.0219087)"
         id="path13-8" /></clipPath><clipPath
       clipPathUnits="userSpaceOnUse"
       id="clipPath16"><path
         d="M 0,0 H 19 V 19 H 0 Z"
         transform="scale(1,1.0219087)"
         id="path16-4" /></clipPath><linearGradient
       x1="6.8260002"
       y1="15.721"
       x2="3.526"
       y2="20.121"
       gradientUnits="userSpaceOnUse"
       gradientTransform="matrix(0.138283,0,0,0.135771,12.063548,5.724568)"
       spreadMethod="pad"
       id="linearGradient18"><stop
         style="stop-opacity:1;stop-color:#84faa1"
         offset="0"
         id="stop17-5" /><stop
         style="stop-opacity:1;stop-color:#33c478"
         offset="1"
         id="stop18-0" /></linearGradient><linearGradient
       x1="22.988001"
       y1="1.123"
       x2="1.012"
       y2="12.498"
       gradientUnits="userSpaceOnUse"
       gradientTransform="matrix(0.138283,0,0,0.135771,11.196513,5.724568)"
       spreadMethod="pad"
       id="linearGradient20"><stop
         style="stop-opacity:1;stop-color:#4c4f62"
         offset="0"
         id="stop19-3" /><stop
         style="stop-opacity:1;stop-color:#313340"
         offset="1"
         id="stop20" /></linearGradient><clipPath
       clipPathUnits="userSpaceOnUse"
       id="clipPath22"><path
         d="M 0,0 H 19 V 19 H 0 Z"
         id="path22" /></clipPath><clipPath
       clipPathUnits="userSpaceOnUse"
       id="clipPath24"><path
         d="M 0,0 H 19 V 19 H 0 Z"
         id="path24" /></clipPath><clipPath
       clipPathUnits="userSpaceOnUse"
       id="clipPath26"><path
         d="M 0,0 H 19 V 19 H 0 Z"
         id="path26" /></clipPath></defs><g
     id="g1"><path
       id="path2-6"
       d="m 7.195,0.836 c 0.09,0 0.176,-0.012 0.258,-0.035 1.078,-0.071 2.156,-0.067 3.231,0.008 0.976,0.078 1.921,0.289 2.836,0.636 1.519,0.625 2.558,1.711 3.121,3.254 0.316,0.93 0.507,1.887 0.566,2.867 0.078,1.231 0.051,2.469 -0.086,3.692 -0.101,0.859 -0.328,1.699 -0.672,2.492 -0.637,1.383 -1.672,2.336 -3.101,2.859 C 12.195,17 10.992,17.207 9.773,17.227 8.402,17.301 7.031,17.195 5.684,16.918 3.199,16.367 1.668,14.852 1.09,12.375 0.844,11.266 0.73,10.129 0.754,8.992 0.727,7.785 0.855,6.578 1.141,5.402 1.75,3.09 3.219,1.656 5.547,1.102 6.09,0.969 6.641,0.879 7.195,0.836 Z"
       transform="scale(1.3333333)"
       style="fill:url(#radialGradient2);fill-rule:evenodd;stroke:none" /><g
       opacity="0.75"
       id="g4"><path
         d="M 3.621,6.131 V 8.822 H 6.73 V 6.579 H 5.398 L 4.953,6.131 Z"
         style="fill:#ffffff;fill-opacity:1;fill-rule:nonzero;stroke:#111111;stroke-width:0.0716976;stroke-linecap:butt;stroke-linejoin:miter;stroke-miterlimit:4;stroke-dasharray:none;stroke-opacity:1"
         transform="scale(1.3333333,1.304748)"
         clip-path="url(#clipPath3)"
         id="path4-1" /></g><g
       opacity="0.75"
       id="g6"><path
         d="m 3.621,9.716 v 2.691 H 6.73 V 10.163 H 5.398 L 4.953,9.716 Z"
         style="fill:#3771c8;fill-opacity:1;fill-rule:nonzero;stroke:#111111;stroke-width:0.0716976;stroke-linecap:butt;stroke-linejoin:miter;stroke-miterlimit:4;stroke-dasharray:none;stroke-opacity:1"
         transform="scale(1.3333333,1.304748)"
         clip-path="url(#clipPath5)"
         id="path6-0" /></g><g
       opacity="0.75"
       id="g8"><path
         d="m 8.066,6.131 v 2.691 h 2.219 V 7.03 L 9.398,6.131 Z"
         style="fill:#ffa86d;fill-opacity:1;fill-rule:nonzero;stroke:#111111;stroke-width:0.0716976;stroke-linecap:butt;stroke-linejoin:miter;stroke-miterlimit:4;stroke-dasharray:none;stroke-opacity:1"
         transform="scale(1.3333333,1.304748)"
         clip-path="url(#clipPath7)"
         id="path8-6" /></g><path
       id="path9"
       d="m 9.398,6 0.887,0.879 H 9.398 Z"
       style="fill:#ff7214;fill-opacity:1;fill-rule:evenodd;stroke:none"
       transform="scale(1.3333333)" /><g
       opacity="0.75"
       id="g11"><path
         d="m 8.066,9.716 v 2.691 h 2.219 V 10.614 L 9.398,9.716 Z"
         style="fill:#94d669;fill-opacity:1;fill-rule:nonzero;stroke:#111111;stroke-width:0.0716976;stroke-linecap:butt;stroke-linejoin:miter;stroke-miterlimit:4;stroke-dasharray:none;stroke-opacity:1"
         transform="scale(1.3333333,1.304748)"
         clip-path="url(#clipPath10)"
         id="path11" /></g><path
       id="path12-3"
       d="m 9.398,9.508 0.887,0.879 H 9.398 Z"
       style="fill:#67b632;fill-opacity:1;fill-rule:evenodd;stroke:none"
       transform="scale(1.3333333)" /><g
       opacity="0.75"
       id="g14"><path
         d="m 11.637,9.688 v 2.687 h 2.222 V 10.582 L 12.973,9.688 Z"
         style="fill:#5599ff;fill-opacity:1;fill-rule:nonzero;stroke:#111111;stroke-width:0.0716976;stroke-linecap:butt;stroke-linejoin:miter;stroke-miterlimit:4;stroke-dasharray:none;stroke-opacity:1"
         transform="scale(1.3333333,1.304748)"
         clip-path="url(#clipPath13)"
         id="path14-2" /></g><path
       id="path15-0"
       d="m 12.973,9.48 0.886,0.875 h -0.886 z"
       style="fill:#0066ff;fill-opacity:1;fill-rule:evenodd;stroke:none"
       transform="scale(1.3333333)" /><g
       opacity="0.75"
       id="g17"><path
         d="M 13.484,5.988 H 12.23 c -0.496,0 -0.898,0.403 -0.898,0.902 v 1.253 c 0,0.495 0.402,0.898 0.898,0.898 h 1.254 c 0.493,0 0.895,-0.403 0.895,-0.898 V 6.89 c 0,-0.499 -0.402,-0.902 -0.895,-0.902 z"
         style="fill:#ffffff;fill-opacity:1;fill-rule:nonzero;stroke:#000000;stroke-width:0.0716976;stroke-linecap:butt;stroke-linejoin:miter;stroke-miterlimit:4;stroke-dasharray:none;stroke-opacity:1"
         transform="scale(1.3333333,1.304748)"
         clip-path="url(#clipPath16)"
         id="path17-6" /></g><path
       id="path18"
       d="M 12.867,8.5 12.809,8.434 12.922,8.32 12.926,8.348 c 0.004,0.015 0.008,0.027 0.008,0.031 0,0 0.019,0 0.043,0 0.066,0 0.113,-0.012 0.132,-0.035 C 13.121,8.328 13.117,8.316 13.086,8.25 13.059,8.195 13.055,8.191 13.062,8.188 13.07,8.18 13.094,8.164 13.125,8.145 l 0.027,-0.016 0.036,0.066 c 0.035,0.071 0.039,0.082 0.046,0.117 0.004,0.071 -0.035,0.137 -0.101,0.168 -0.02,0.012 -0.028,0.012 -0.067,0.016 C 13.039,8.5 13.012,8.5 12.984,8.5 c -0.023,0 -0.043,0 -0.046,0 0,0.004 0,0.016 -0.004,0.035 L 12.93,8.562 Z M 12.668,8.496 C 12.617,8.496 12.605,8.492 12.586,8.484 12.539,8.469 12.504,8.43 12.488,8.387 12.48,8.352 12.477,8.32 12.48,8.285 c 0.004,-0.019 0.047,-0.113 0.067,-0.14 0.008,-0.012 0.012,-0.024 0.012,-0.024 0,0 -0.012,-0.012 -0.024,-0.019 -0.012,-0.012 -0.023,-0.02 -0.019,-0.02 0,0 0.035,-0.012 0.082,-0.023 0.047,-0.012 0.082,-0.02 0.086,-0.02 0,0.004 0.035,0.16 0.035,0.16 0,0 -0.012,-0.004 -0.028,-0.011 C 12.68,8.18 12.664,8.176 12.664,8.18 c -0.008,0.008 -0.039,0.066 -0.047,0.09 -0.015,0.039 -0.019,0.062 -0.012,0.078 0.008,0.023 0.016,0.027 0.086,0.027 0.051,0.004 0.067,0.004 0.067,0.008 0.004,0.004 0.004,0.031 0.004,0.062 V 8.5 h -0.016 c -0.012,0 -0.047,0 -0.078,-0.004 z M 13.008,8.09 12.934,8.066 12.949,8.055 c 0.004,-0.008 0.016,-0.016 0.02,-0.02 L 12.98,8.027 12.969,8.008 C 12.945,7.957 12.91,7.91 12.887,7.895 c -0.016,-0.008 -0.039,-0.008 -0.047,0 -0.016,0.019 -0.031,0.039 -0.043,0.058 -0.016,0.031 -0.035,0.055 -0.035,0.055 -0.012,0 -0.086,-0.043 -0.102,-0.055 0.012,-0.023 0.028,-0.047 0.039,-0.066 0.043,-0.071 0.059,-0.09 0.098,-0.11 0.027,-0.015 0.062,-0.019 0.09,-0.015 0.027,0.008 0.066,0.023 0.09,0.043 0.015,0.011 0.074,0.097 0.089,0.133 0.012,0.027 0.008,0.027 0.047,0.011 0.012,-0.004 0.02,-0.008 0.02,-0.008 0,0.004 -0.043,0.168 -0.047,0.168 0,0.004 -0.035,-0.007 -0.078,-0.019 z"
       transform="scale(1.3333333)"
       style="fill:url(#linearGradient18);stroke:none" /><path
       id="path20"
       d="M 13.484,5.859 H 12.23 c -0.496,0 -0.898,0.36 -0.898,0.797 0,0.442 0.402,0.797 0.898,0.797 h 1.254 c 0.493,0 0.895,-0.355 0.895,-0.797 0,-0.437 -0.402,-0.797 -0.895,-0.797 z"
       transform="scale(1.3333333)"
       style="fill:url(#linearGradient20);stroke:none" /><path
       id="path21"
       d="m 14.047,6.605 h -2.383 c -0.031,0 -0.055,0.024 -0.055,0.051 0,0.032 0.024,0.055 0.055,0.051 h 2.383 c 0.066,0 0.066,-0.098 0,-0.102 z"
       style="fill:#2a2c3e;fill-opacity:1;fill-rule:nonzero;stroke:none"
       transform="scale(1.3333333)" /><g
       opacity="0.99"
       id="g23"><path
         d="m 12.855,7.312 c 0.313,0 0.313,-0.457 0,-0.457 -0.312,0 -0.312,0.457 0,0.457 z"
         style="fill:#2a2c3e;fill-opacity:1;fill-rule:nonzero;stroke:none"
         transform="scale(1.3333333)"
         clip-path="url(#clipPath22)"
         id="path23" /></g><g
       opacity="0.99"
       id="g25"><path
         d="M 12.855,6.934 C 12.77,6.93 12.695,7 12.695,7.086 c 0,0.086 0.075,0.152 0.16,0.148 0.196,-0.007 0.196,-0.293 0,-0.3 z m 0,0.023 c 0.071,0 0.129,0.059 0.129,0.129 0,0.07 -0.058,0.125 -0.129,0.125 -0.171,0 -0.171,-0.254 0,-0.254 z"
         style="fill:#62b84c;fill-opacity:1;fill-rule:nonzero;stroke:none"
         transform="scale(1.3333333)"
         clip-path="url(#clipPath24)"
         id="path25" /></g><g
       opacity="0.99"
       id="g27"><path
         d="m 12.883,6.922 c 0,-0.031 -0.051,-0.031 -0.051,0 v 0.14 c 0,0.032 0.051,0.032 0.051,0 z"
         style="fill:#62b84c;fill-opacity:1;fill-rule:nonzero;stroke:none"
         transform="scale(1.3333333)"
         clip-path="url(#clipPath26)"
         id="path27" /></g><path
       id="path28"
       d="m 13.93,6.336 c 0,0.055 -0.047,0.102 -0.106,0.102 -0.058,0 -0.105,-0.047 -0.105,-0.102 0,-0.059 0.047,-0.102 0.105,-0.102 0.059,0 0.106,0.043 0.106,0.102 z"
       style="fill:#62b84c;fill-opacity:1;fill-rule:nonzero;stroke:none"
       transform="scale(1.3333333)" /></g></svg>
