<svg xmlns="http://www.w3.org/2000/svg" xmlns:xlink="http://www.w3.org/1999/xlink" xml:space="preserve" width="24" height="24"><defs><linearGradient id="a" x1="-240.47" x2="-240.47" y1="-60.605" y2="-29.026" gradientTransform="matrix(.96667 0 0 .95 262.45 67.575)" gradientUnits="userSpaceOnUse"><stop offset="0" stop-color="#4285db"/><stop offset="1" stop-color="#42b9db"/></linearGradient><linearGradient id="b" x1="10.583" x2="225.69" y1="-184.68" y2="-184.68" gradientTransform="translate(18.557 59.5) scale(.11417)" gradientUnits="userSpaceOnUse"><stop offset="0" stop-color="#fafbfb"/><stop offset="1" stop-color="#fafbfb" stop-opacity="0"/></linearGradient><linearGradient id="c" x1="520" x2="410" y1="-620" y2="-620" gradientTransform="translate(18.557 59.5) scale(.0302)" gradientUnits="userSpaceOnUse"><stop offset="0"/><stop offset="1" stop-opacity="0"/></linearGradient><linearGradient xlink:href="#a" id="e" x1="-240.47" x2="-240.47" y1="-60.605" y2="-29.026" gradientTransform="matrix(.24157 0 0 .2374 69.59 20.842)" gradientUnits="userSpaceOnUse"/><linearGradient xlink:href="#b" id="f" x1="10.583" x2="225.69" y1="-184.68" y2="-184.68" gradientTransform="translate(12.078 102.06) scale(.11417)" gradientUnits="userSpaceOnUse"/><linearGradient xlink:href="#c" id="g" x1="520" x2="410" y1="-620" y2="-620" gradientTransform="translate(12.078 102.06) scale(.0302)" gradientUnits="userSpaceOnUse"/><radialGradient id="d" cx="0" cy="0" r="1" fx="0" fy="0" gradientTransform="matrix(0 22 -22 0 12 1)" gradientUnits="userSpaceOnUse" spreadMethod="pad"><stop offset="0" style="stop-opacity:1;stop-color:#a4a4a4"/><stop offset="1" style="stop-opacity:1;stop-color:#626262"/></radialGradient></defs><path d="M9.593 1.115c.12 0 .235-.016.344-.047a31.814 31.814 0 0 1 4.308.01 13.68 13.68 0 0 1 3.781.849c2.026.833 3.41 2.281 4.162 4.338.42 1.24.676 2.516.754 3.823a28.303 28.303 0 0 1-.114 4.928 11.968 11.968 0 0 1-.896 3.317c-.85 1.844-2.23 3.115-4.135 3.812-1.543.522-3.13.798-4.767.824a21.331 21.331 0 0 1-5.452-.412c-3.308-.734-5.354-2.754-6.125-6.057a18.991 18.991 0 0 1-.448-4.51c-.036-1.62.135-3.214.516-4.787.812-3.083 2.77-4.995 5.875-5.734a13.692 13.692 0 0 1 2.197-.354z" style="fill:url(#d);fill-rule:evenodd;stroke:none;stroke-width:1.33333"/><path fill="#b3b3b3" d="m12 13.73-2.308 1.732c0 2.019-.288 2.019-1.73 2.885l4.038.288 4.038-.289c-1.442-.865-1.73-.865-1.73-2.885z" style="stroke-width:.491449"/><path fill="#ccc" d="M7.962 18.346v.577h8.077v-.577z" style="stroke-width:.491449"/><rect width="15" height="10.036" x="4.5" y="5.434" fill="#303030" rx="1.174" ry="1.174" style="stroke-width:.483148"/><rect width="14.494" height="9.496" x="4.753" y="5.704" fill="url(#a)" rx="1" ry=".982" style="fill:url(#e);stroke-width:.249902"/><path fill="#1a1a1a" d="m10.152 14.299 3.623-3.925 3.019 3.925z"/><path fill="#e6e6e6" d="m9.88 11.914-4.763 3.059c.174.142.394.231.639.231h9.325l-5.2-3.29z" opacity=".9"/><path fill="#fafbfb" d="m8.945 15.204.936-3.29 5.2 3.29z"/><path fill="#b0b2b5" d="m13.775 10.073-1.207 1.283v3.848h5.68c.272 0 .519-.107.699-.28z"/><path fill="#fff" d="m13.775 10.072 1.51 5.132h2.962c.273 0 .52-.107.7-.28l-5.172-4.852z"/><path fill="url(#b)" d="m13.287 87.56 3.746-13.172L37.847 87.56z" style="fill:url(#f)" transform="matrix(.24983 0 0 .24983 5.626 -6.67)"/><path fill="url(#c)" d="M26.578 80.43v7.13h1.208v-6.366z" opacity=".35" style="fill:url(#g)" transform="matrix(.24983 0 0 .24983 5.626 -6.67)"/><g transform="matrix(.133 0 0 .133 17.337 6.805)"><rect width="50" height="53.999" x="-65.129" y="1.119" fill="#525252" rx="9" ry="9" style="opacity:.8"/><path fill="#55a3ff" d="M-40.129 23.12a16 16 0 0 0-16 16h32a16 16 0 0 0-16-16Z"/><rect width="40" height="12" x="-60.129" y="30.12" fill="#fff" rx="3" ry="3"/><g stroke-linecap="round" stroke-linejoin="round" stroke-width=".529" opacity=".65" transform="translate(-70.129 -5.88) scale(3.7796)"><circle cx="4.762" cy="11.112" r=".794" opacity="1"/><circle cx="6.879" cy="11.112" r=".794" opacity="1"/><circle cx="8.996" cy="11.112" r=".794" opacity="1"/><circle cx="11.112" cy="11.112" r=".794" opacity="1"/></g><circle cx="-40.129" cy="13.119" r="8" fill="#55a3ff"/></g></svg>