<svg xmlns="http://www.w3.org/2000/svg" width="24" height="24" fill="none"><defs><radialGradient id="a" cx="0" cy="0" r="1" gradientTransform="matrix(0 22 -22 0 12 1)" gradientUnits="userSpaceOnUse"><stop offset="0" stop-color="#8FC8FF" style="stop-color:#f6f6f6;stop-opacity:1"/><stop offset="1" stop-color="#0056A8" style="stop-color:#cfcfcf;stop-opacity:1"/></radialGradient></defs><path d="M50 5C9.09 5 5 25.455 5 50c0 32.727 12.273 45 45 45 32.727 0 45-12.273 45-45 0-24.545-4.09-45-45-45Z" style="font-variation-settings:normal;display:inline;opacity:1;vector-effect:none;fill:#1fb1f8;fill-opacity:1;stroke-width:4.56656;stroke-linecap:butt;stroke-linejoin:miter;stroke-miterlimit:4;stroke-dasharray:none;stroke-dashoffset:0;stroke-opacity:1;-inkscape-stroke:none;stop-color:#000;stop-opacity:1" transform="matrix(.24444 0 0 .24444 -.222 -.222)"/><path fill="#fff" d="M12.001 4a8.014 8.014 0 0 0-8.016 8.014 8.014 8.014 0 0 0 8.016 8.016 8.014 8.014 0 0 0 8.015-8.016A8.014 8.014 0 0 0 12 4zm.714.856a7.174 7.174 0 0 1 2.22.55.672.672 0 0 0-.13.234c-.21.632-.524.329-.155 1.122.369.791.678.996.783.627.106-.369-.264-.89.158-.678.422.21.734-.058.417.417-.316.474-.31.734-.679.628-.371-.105-.363.625-.732.731-.369.106-.498-.16-.498.104 0 .265.211.019.158.445-.016.128-.013.152-.027.209-.347-.1-.5-.152-.758-.053-.263.105-.575.782-.575.782.332.332.484.57.602.682-.074.035-.162.052-.235.103-.528.37-.939.439-1.098.966-.158.53-.104.044-.104.68 0 .633-.161.205.158.784.316.581 1.092.86 1.462 1.178.369.316.75-.69 1.49.262.738.95.786.566.524 1.097-.267.527-.523.7-.627.913-.106.212.204.939.573 1.098h.026c-.019.045-.032.086-.053.13-.48.216-1.064.517-1.173.55-.264.075-1.186.23-1.856.416-.084.025-.152.025-.184.029.083-.092.745-.435 1.072-.627.447-.264-.028-.237-.028-.237s-.711-.078-2.168-.078c-.728 0-1.043.033-1.202.08a.398.398 0 0 0-.157.078c-.038.033-.066.067-.132.104-.26.152.154.307-.183.418-.25.084-.28 0-.495-.157.153-.151.365-.337.627-.653.474-.576.624-.472.783-.993.16-.522-1.33-.366-1.33-.681 0-.315-.258-.522-.733-.73-.475-.208-.152-.315-.68-.471-.528-.156-1.123.785-1.282.471-.158-.315.498-.315.498-.68 0-.355-.753.27-.89-.184-.004-.017-.022-.017-.025-.026-.013-.066-.005-.106 0-.158.033-.374.468-.522.653-.89.211-.416.103.317.366.683.265.366.158-.47 0-.94-.158-.473.1-.473.47-1.098.368-.628.368-.994.368-1.466 0-.468.254-.521.782-.991.243-.216.432-.403.576-.576.034-.017.068-.017.105-.026.557-.225.794-.561 1.278-1.567.486-1.01-.188-.069-.337-.106-.15-.037-.366-.303-.89-.6a.84.84 0 0 0-.286-.106l.965-1.593c.31-.083.644-.14.965-.185.122.677.056 1.308.056 1.308s-.185.217-.185.366c0 .15 1.001-1.23 1.15-1.305.152-.076.528.394.602-.315.004-.042-.004-.042 0-.076zm1.325 2.819c-.032.009-.065.017-.096.03 0 .184-.073.317-.106.392-.02-.034-.076-.079-.076-.079-.082.145-.251.274-.079.234.17-.037.303.065.184-.077-.023-.029-.014-.02-.029-.029.023.019.066.03.159.03h.233c-.127.093-.265.133-.075.182.25.065.364.08.364.027a1.21 1.21 0 0 0-.079-.238c.05-.018.094-.043.05-.127-.077-.158-.201-.316-.363-.341a.265.265 0 0 0-.087-.004zm4.083.445c.133.204.258.412.369.628-.074.421-.258.706.05.706.088 0 .166-.018.235-.026l.027.075c-.528 0-.783.16-1.046.106-.263-.055-.997-.1-.522-.575.278-.277.625-.72.89-.914zm-3.291.965v.004c.048.017.092.066.131.156.158.368.42.677.21.73-.212.053-.315.106-.315.106s.73.474.784-.053c.052-.528-.209-.836-.209-.836s.364.365.47.575c.106.211.102 0 .365.261.265.265.207-1.048.576-.678.369.369.602.36.497.626-.106.263.68-.32.68.21 0 .509.324.715-.313.964-.242-.014-.436-.056-.474-.127-.104-.212-.705-.053-.705-.053-1.578-.395-2.264-.519-2.716-.444.008-.017.015-.017.024-.026.232-.416.667-.995.523-1.203.203-.116.36-.243.474-.208zm4.443 2.642c.004.107 0 .21 0 .316 0 .297-.02.597-.052.885-.475-.421-1.15-.416-1.15-.416s.41-.467.992-.68a.92.92 0 0 0 .208-.105z" color="#000" opacity=".35"/><path fill="#fff" d="m32 15.084-14 4.58c0 9.64-.043 14.925 1.652 18.75 1.696 3.828 5.176 6.347 12.348 10.502 7.172-4.155 10.652-6.674 12.348-10.502C46.043 34.59 46 29.304 46 19.664Zm.292 10.5a3.208 3.208 0 0 1 3.208 3.208 3.191 3.191 0 0 1-1.948 2.95l1.948 6.675h-6.417l1.949-6.674a3.19 3.19 0 0 1-1.949-2.951 3.208 3.208 0 0 1 3.209-3.209z" opacity=".5" overflow="visible" style="isolation:auto;mix-blend-mode:normal" transform="matrix(.34847 0 0 .34847 .85 .847)"/><path fill="#fff" d="m32 18-11.664 4.083c0 15.714-.453 16.92 11.664 23.917 12.017-6.946 11.664-8.197 11.664-23.917Zm.292 7.583a3.208 3.208 0 0 1 3.208 3.209 3.191 3.191 0 0 1-1.948 2.95l1.948 6.675h-6.417l1.949-6.674a3.19 3.19 0 0 1-1.949-2.951 3.208 3.208 0 0 1 3.209-3.209z" overflow="visible" style="isolation:auto;mix-blend-mode:normal" transform="matrix(.34847 0 0 .34847 .85 .847)"/></svg>