<?xml version="1.0" encoding="UTF-8" standalone="no"?>
<svg
   xml:space="preserve"
   width="24"
   height="24"
   version="1.1"
   id="svg53"
   sodipodi:docname="preferences-system-tabbox.svg"
   inkscape:version="1.3 (0e150ed6c4, 2023-07-21)"
   xmlns:inkscape="http://www.inkscape.org/namespaces/inkscape"
   xmlns:sodipodi="http://sodipodi.sourceforge.net/DTD/sodipodi-0.dtd"
   xmlns="http://www.w3.org/2000/svg"
   xmlns:svg="http://www.w3.org/2000/svg"><sodipodi:namedview
     id="namedview53"
     pagecolor="#ffffff"
     bordercolor="#000000"
     borderopacity="0.25"
     inkscape:showpageshadow="2"
     inkscape:pageopacity="0.0"
     inkscape:pagecheckerboard="0"
     inkscape:deskcolor="#d1d1d1"
     inkscape:zoom="16.985294"
     inkscape:cx="11.598268"
     inkscape:cy="1.5601732"
     inkscape:window-width="1920"
     inkscape:window-height="1216"
     inkscape:window-x="6000"
     inkscape:window-y="277"
     inkscape:window-maximized="0"
     inkscape:current-layer="svg53" /><defs
     id="defs27"><clipPath
       id="a"
       clipPathUnits="userSpaceOnUse"><path
         d="M-22.543-286.093h280.477V-99.11H-22.543Z"
         id="path1" /></clipPath><clipPath
       id="c"
       clipPathUnits="userSpaceOnUse"><path
         d="M444.944-728.121h176.722v353.444H444.944Z"
         id="path2" /></clipPath><clipPath
       id="e"
       clipPathUnits="userSpaceOnUse"><path
         d="M-22.543-286.093h280.477V-99.11H-22.543Z"
         id="path3" /></clipPath><clipPath
       id="f"
       clipPathUnits="userSpaceOnUse"><path
         d="M444.944-728.121h176.722v353.444H444.944Z"
         id="path4" /></clipPath><clipPath
       id="g"
       clipPathUnits="userSpaceOnUse"><path
         d="M-22.543-286.093h280.477V-99.11H-22.543Z"
         id="path5" /></clipPath><clipPath
       id="h"
       clipPathUnits="userSpaceOnUse"><path
         d="M444.944-728.121h176.722v353.444H444.944Z"
         id="path6" /></clipPath><clipPath
       id="m"
       clipPathUnits="userSpaceOnUse"><path
         d="M0 0h19v19H0Z"
         id="path7" /></clipPath><clipPath
       id="n"
       clipPathUnits="userSpaceOnUse"><path
         d="m6.707 11.402.703-2.468 3.902 2.468Z"
         id="path8" /></clipPath><clipPath
       id="i"
       clipPathUnits="userSpaceOnUse"><path
         d="M-22.543-286.093h280.477V-99.11H-22.543Z"
         id="path9" /></clipPath><clipPath
       id="q"
       clipPathUnits="userSpaceOnUse"><path
         d="M0 0h19v19H0Z"
         id="path10" /></clipPath><clipPath
       id="r"
       clipPathUnits="userSpaceOnUse"><path
         d="M9.199 10.066v1.336h.227v-1.191z"
         id="path11" /></clipPath><clipPath
       id="j"
       clipPathUnits="userSpaceOnUse"><path
         d="M444.944-728.121h176.722v353.444H444.944Z"
         id="path12" /></clipPath><clipPath
       id="u"
       clipPathUnits="userSpaceOnUse"><path
         d="M0 0h19v19H0Z"
         id="path13" /></clipPath><clipPath
       id="v"
       clipPathUnits="userSpaceOnUse"><path
         d="M0 0h19v19H0Z"
         id="path14" /></clipPath><clipPath
       id="w"
       clipPathUnits="userSpaceOnUse"><path
         d="M0 0h19v19H0Z"
         id="path15" /></clipPath><clipPath
       id="x"
       clipPathUnits="userSpaceOnUse"><path
         d="M0 0h19v19H0Z"
         id="path16" /></clipPath><linearGradient
       id="b"
       x1="10.583"
       x2="225.69"
       y1="-184.68"
       y2="-184.68"
       gradientUnits="userSpaceOnUse"
       spreadMethod="pad"><stop
         offset="0"
         style="stop-opacity:1;stop-color:#fff"
         id="stop16" /><stop
         offset="1"
         style="stop-opacity:0;stop-color:#fff"
         id="stop17" /></linearGradient><linearGradient
       id="p"
       x1="10.583"
       x2="225.69"
       y1="-184.68"
       y2="-184.68"
       gradientUnits="userSpaceOnUse"
       spreadMethod="pad"><stop
         offset="0"
         style="stop-opacity:1;stop-color:#fafbfb"
         id="stop18" /><stop
         offset="1"
         style="stop-opacity:1;stop-color:#fafbfb"
         id="stop19" /></linearGradient><linearGradient
       id="d"
       x1="520"
       x2="410"
       y1="-620"
       y2="-620"
       gradientUnits="userSpaceOnUse"
       spreadMethod="pad"><stop
         offset="0"
         style="stop-opacity:1;stop-color:#fff"
         id="stop20" /><stop
         offset="1"
         style="stop-opacity:0;stop-color:#fff"
         id="stop21" /></linearGradient><linearGradient
       id="t"
       x1="520"
       x2="410"
       y1="-620"
       y2="-620"
       gradientUnits="userSpaceOnUse"
       spreadMethod="pad"><stop
         offset="0"
         style="stop-opacity:1;stop-color:#000"
         id="stop22" /><stop
         offset="1"
         style="stop-opacity:1;stop-color:#000"
         id="stop23" /></linearGradient><linearGradient
       id="l"
       x1="-240.47"
       x2="-240.47"
       y1="-60.605"
       y2="-29.026"
       gradientTransform="matrix(.18118 0 0 .17805 52.192 15.631)"
       gradientUnits="userSpaceOnUse"
       spreadMethod="pad"><stop
         offset="0"
         style="stop-opacity:1;stop-color:#4285db"
         id="stop24" /><stop
         offset="1"
         style="stop-opacity:1;stop-color:#42b9db"
         id="stop25" /></linearGradient><mask
       id="o"
       width="1"
       height="1"
       x="0"
       y="0"
       maskUnits="userSpaceOnUse"><g
         clip-path="url(#i)"
         id="g25"><path
           d="M-22.543-286.093h280.477V-99.11H-22.543Z"
           style="fill:url(#b);stroke:none"
           id="path25" /></g></mask><mask
       id="s"
       width="1"
       height="1"
       x="0"
       y="0"
       maskUnits="userSpaceOnUse"><g
         clip-path="url(#j)"
         id="g26"><path
           d="M444.944-728.121h176.722v353.444H444.944Z"
           style="fill:url(#d);stroke:none"
           id="path26" /></g></mask><radialGradient
       id="k"
       cx="0"
       cy="0"
       r="1"
       fx="0"
       fy="0"
       gradientTransform="matrix(0 16.5 -16.5 0 9 .75)"
       gradientUnits="userSpaceOnUse"
       spreadMethod="pad"><stop
         offset="0"
         style="stop-opacity:1;stop-color:#a4a4a4"
         id="stop26" /><stop
         offset="1"
         style="stop-opacity:1;stop-color:#626262"
         id="stop27" /></radialGradient></defs><path
     d="M7.195.836c.09 0 .176-.012.258-.035a23.86 23.86 0 0 1 3.231.008 10.26 10.26 0 0 1 2.836.636c1.519.625 2.558 1.711 3.121 3.254.316.93.507 1.887.566 2.867a21.227 21.227 0 0 1-.086 3.696 8.976 8.976 0 0 1-.672 2.488c-.637 1.383-1.672 2.336-3.101 2.859a11.693 11.693 0 0 1-3.575.618 15.998 15.998 0 0 1-4.089-.309c-2.481-.551-4.016-2.066-4.594-4.543a14.244 14.244 0 0 1-.336-3.383c-.027-1.215.101-2.41.387-3.59.609-2.312 2.078-3.746 4.406-4.3A10.27 10.27 0 0 1 7.195.836Z"
     style="fill:url(#k);fill-rule:evenodd;stroke:none"
     transform="matrix(1.33333 0 0 1.33333 0 0)"
     id="path27" /><path
     d="m9 10.297-1.73 1.301c0 1.511-.215 1.511-1.297 2.164L9 13.977l3.027-.219c-1.082-.649-1.297-.649-1.297-2.16Z"
     style="fill:#b3b3b3;fill-opacity:1;fill-rule:nonzero;stroke:none"
     transform="matrix(1.33333 0 0 1.33333 0 0)"
     id="path28" /><path
     d="M5.973 13.758h6.055v.434H5.973Z"
     style="fill:#ccc;fill-opacity:1;fill-rule:nonzero;stroke:none"
     transform="matrix(1.33333 0 0 1.33333 0 0)"
     id="path29" /><path
     d="M4.254 4.074h9.492c.484 0 .879.395.879.883v5.766a.878.878 0 0 1-.879.879H4.254a.878.878 0 0 1-.879-.879V4.957c0-.488.395-.883.879-.883z"
     style="fill:#303030;fill-opacity:1;fill-rule:nonzero;stroke:none"
     transform="matrix(1.33333 0 0 1.33333 0 0)"
     id="path30" /><path
     d="M4.312 4.277h9.376a.74.74 0 0 1 .746.739v5.648a.738.738 0 0 1-.746.734H4.312a.738.738 0 0 1-.746-.734V5.016a.74.74 0 0 1 .746-.739z"
     style="fill:url(#l);stroke:none"
     transform="matrix(1.33333 0 0 1.33333 0 0)"
     id="path31" /><path
     d="m7.613 10.723 2.719-2.942 2.262 2.942z"
     style="fill:#1a1a1a;fill-opacity:1;fill-rule:nonzero;stroke:none"
     transform="matrix(1.33333 0 0 1.33333 0 0)"
     id="path32" /><g
     clip-path="url(#m)"
     opacity=".9"
     transform="matrix(1.33333 0 0 1.33333 0 0)"
     id="g33"><path
       d="M7.41 8.934 3.836 11.23a.765.765 0 0 0 .48.172h6.993z"
       style="fill:#e6e6e6;fill-opacity:1;fill-rule:nonzero;stroke:none"
       id="path33" /></g><path
     d="m6.707 11.402.703-2.468 3.902 2.468Z"
     style="fill:#fafbfb;fill-opacity:1;fill-rule:nonzero;stroke:none"
     transform="matrix(1.33333 0 0 1.33333 0 0)"
     id="path34" /><path
     d="m10.332 7.555-.906.961v2.886h4.258c.207 0 .39-.078.527-.211z"
     style="fill:#b0b2b5;fill-opacity:1;fill-rule:nonzero;stroke:none"
     transform="matrix(1.33333 0 0 1.33333 0 0)"
     id="path35" /><path
     d="m10.332 7.555 1.133 3.847h2.219c.207 0 .39-.078.527-.211z"
     style="fill:#fff;fill-opacity:1;fill-rule:nonzero;stroke:none"
     transform="matrix(1.33333 0 0 1.33333 0 0)"
     id="path36" /><g
     clip-path="url(#n)"
     transform="matrix(1.33333 0 0 1.33333 0 0)"
     id="g38"><g
       mask="url(#o)"
       transform="matrix(.0214 0 0 .0214 6.482 14.12)"
       id="g37"><path
         d="m6.707 11.402.703-2.468 3.902 2.468Z"
         style="fill:url(#p);stroke:none"
         id="path37" /></g></g><g
     clip-path="url(#q)"
     opacity=".35"
     transform="matrix(1.33333 0 0 1.33333 0 0)"
     id="g41"><g
       clip-path="url(#r)"
       id="g40"><g
         mask="url(#s)"
         transform="matrix(.00566 0 0 .00566 6.482 14.12)"
         id="g39"><path
           d="M9.199 10.066v1.336h.227v-1.191z"
           style="fill:url(#t);stroke:none"
           id="path38" /></g></g></g><g
     clip-path="url(#u)"
     opacity=".5"
     transform="matrix(1.33333 0 0 1.33333 0 0)"
     id="g42"><path
       d="M4.902 4.727h3.739c.086 0 .156.066.156.156v2.488c0 .086-.07.156-.156.156H4.902a.156.156 0 0 1-.156-.156V4.883c0-.09.07-.156.156-.156z"
       style="fill:none;stroke:#000;stroke-width:.15597;stroke-linecap:round;stroke-linejoin:round;stroke-miterlimit:4;stroke-dasharray:none;stroke-opacity:.098"
       id="path41" /><path
       d="M4.902 4.727h3.739c.086 0 .156.066.156.156v2.488c0 .086-.07.156-.156.156H4.902a.156.156 0 0 1-.156-.156V4.883c0-.09.07-.156.156-.156z"
       style="fill:#000;fill-opacity:1;fill-rule:nonzero;stroke:none"
       id="path42" /></g><g
     clip-path="url(#v)"
     opacity=".5"
     transform="matrix(1.33333 0 0 1.33333 0 0)"
     id="g44"><path
       d="M9.574 4.727h3.738c.086 0 .157.066.157.156v2.488a.157.157 0 0 1-.157.156H9.574a.153.153 0 0 1-.152-.156V4.883a.15.15 0 0 1 .152-.156z"
       style="fill:none;stroke:#000;stroke-width:.15597;stroke-linecap:round;stroke-linejoin:round;stroke-miterlimit:4;stroke-dasharray:none;stroke-opacity:.098"
       id="path43" /><path
       d="M9.574 4.727h3.738c.086 0 .157.066.157.156v2.488a.157.157 0 0 1-.157.156H9.574a.153.153 0 0 1-.152-.156V4.883a.15.15 0 0 1 .152-.156z"
       style="fill:#000;fill-opacity:1;fill-rule:nonzero;stroke:none"
       id="path44" /></g><g
     clip-path="url(#w)"
     opacity=".5"
     transform="matrix(1.33333 0 0 1.33333 0 0)"
     id="g46"><path
       d="M7.238 8.461h3.739c.085 0 .156.07.156.156v2.492a.158.158 0 0 1-.156.157H7.238a.157.157 0 0 1-.156-.157V8.617c0-.086.07-.156.156-.156z"
       style="fill:none;stroke:#000;stroke-width:.15597;stroke-linecap:round;stroke-linejoin:round;stroke-miterlimit:4;stroke-dasharray:none;stroke-opacity:.098"
       id="path45" /><path
       d="M7.238 8.461h3.739c.085 0 .156.07.156.156v2.492a.158.158 0 0 1-.156.157H7.238a.157.157 0 0 1-.156-.157V8.617c0-.086.07-.156.156-.156z"
       style="fill:#000;fill-opacity:1;fill-rule:nonzero;stroke:none"
       id="path46" /></g><g
     clip-path="url(#x)"
     opacity=".5"
     transform="matrix(1.33333 0 0 1.33333 0 0)"
     id="g47"><path
       d="M5.418 4.879h7.164c.258 0 .465.211.465.469v4.984a.463.463 0 0 1-.465.465H5.418a.467.467 0 0 1-.469-.465V5.348a.47.47 0 0 1 .469-.469Z"
       style="fill:#000;fill-opacity:1;fill-rule:nonzero;stroke:none"
       id="path47" /></g><path
     d="M4.785 4.555h3.746c.086 0 .157.07.157.156v2.496a.157.157 0 0 1-.157.156H4.785a.153.153 0 0 1-.152-.156V4.711c0-.086.066-.156.152-.156z"
     style="fill:none;stroke:#000;stroke-width:.156236;stroke-linecap:round;stroke-linejoin:round;stroke-miterlimit:4;stroke-dasharray:none;stroke-opacity:.098"
     transform="matrix(1.33333 0 0 1.33333 0 0)"
     id="path48" /><path
     d="M4.785 4.555h3.746c.086 0 .157.07.157.156v2.496a.157.157 0 0 1-.157.156H4.785a.153.153 0 0 1-.152-.156V4.711c0-.086.066-.156.152-.156z"
     style="fill:#fff;fill-opacity:1;fill-rule:nonzero;stroke:none"
     transform="matrix(1.33333 0 0 1.33333 0 0)"
     id="path49" /><path
     d="M9.469 4.555h3.742c.086 0 .156.07.156.156v2.496c0 .086-.07.156-.156.156H9.469a.155.155 0 0 1-.157-.156V4.711c0-.086.067-.156.157-.156z"
     style="fill:none;stroke:#000;stroke-width:.156236;stroke-linecap:round;stroke-linejoin:round;stroke-miterlimit:4;stroke-dasharray:none;stroke-opacity:.098"
     transform="matrix(1.33333 0 0 1.33333 0 0)"
     id="path50" /><path
     d="M9.469 4.555h3.742c.086 0 .156.07.156.156v2.496c0 .086-.07.156-.156.156H9.469a.155.155 0 0 1-.157-.156V4.711c0-.086.067-.156.157-.156z"
     style="fill:#fff;fill-opacity:1;fill-rule:nonzero;stroke:none"
     transform="matrix(1.33333 0 0 1.33333 0 0)"
     id="path51" /><path
     d="M7.129 8.297h3.742c.086 0 .156.07.156.156v2.496c0 .086-.07.156-.156.156H7.129a.154.154 0 0 1-.156-.156V8.453c0-.086.066-.156.156-.156z"
     style="fill:none;stroke:#000;stroke-width:.156236;stroke-linecap:round;stroke-linejoin:round;stroke-miterlimit:4;stroke-dasharray:none;stroke-opacity:.098"
     transform="matrix(1.33333 0 0 1.33333 0 0)"
     id="path52" /><path
     d="M7.129 8.297h3.742c.086 0 .156.07.156.156v2.496c0 .086-.07.156-.156.156H7.129a.154.154 0 0 1-.156-.156V8.453c0-.086.066-.156.156-.156z"
     style="fill:#fff;fill-opacity:1;fill-rule:nonzero;stroke:none"
     transform="matrix(1.33333 0 0 1.33333 0 0)"
     id="path53" /></svg>
