<svg xmlns="http://www.w3.org/2000/svg" xml:space="preserve" width="24" height="24"><defs><clipPath id="a" clipPathUnits="userSpaceOnUse"><path d="M-22.543-286.093h280.477V-99.11H-22.543Z"/></clipPath><clipPath id="c" clipPathUnits="userSpaceOnUse"><path d="M444.944-728.121h176.722v353.444H444.944Z"/></clipPath><clipPath id="e" clipPathUnits="userSpaceOnUse"><path d="M-22.543-286.093h280.477V-99.11H-22.543Z"/></clipPath><clipPath id="f" clipPathUnits="userSpaceOnUse"><path d="M444.944-728.121h176.722v353.444H444.944Z"/></clipPath><clipPath id="g" clipPathUnits="userSpaceOnUse"><path d="M-22.543-286.093h280.477V-99.11H-22.543Z"/></clipPath><clipPath id="h" clipPathUnits="userSpaceOnUse"><path d="M444.944-728.121h176.722v353.444H444.944Z"/></clipPath><clipPath id="m" clipPathUnits="userSpaceOnUse"><path d="M0 0h19v19H0Z"/></clipPath><clipPath id="n" clipPathUnits="userSpaceOnUse"><path d="m6.707 11.402.703-2.468 3.902 2.468Z"/></clipPath><clipPath id="i" clipPathUnits="userSpaceOnUse"><path d="M-22.543-286.093h280.477V-99.11H-22.543Z"/></clipPath><clipPath id="q" clipPathUnits="userSpaceOnUse"><path d="M0 0h19v19H0Z"/></clipPath><clipPath id="r" clipPathUnits="userSpaceOnUse"><path d="M9.199 10.066v1.336h.227v-1.191z"/></clipPath><clipPath id="j" clipPathUnits="userSpaceOnUse"><path d="M444.944-728.121h176.722v353.444H444.944Z"/></clipPath><linearGradient id="b" x1="10.583" x2="225.69" y1="-184.68" y2="-184.68" gradientUnits="userSpaceOnUse" spreadMethod="pad"><stop offset="0" style="stop-opacity:1;stop-color:#fff"/><stop offset="1" style="stop-opacity:0;stop-color:#fff"/></linearGradient><linearGradient id="p" x1="10.583" x2="225.69" y1="-184.68" y2="-184.68" gradientUnits="userSpaceOnUse" spreadMethod="pad"><stop offset="0" style="stop-opacity:1;stop-color:#fafbfb"/><stop offset="1" style="stop-opacity:1;stop-color:#fafbfb"/></linearGradient><linearGradient id="d" x1="520" x2="410" y1="-620" y2="-620" gradientUnits="userSpaceOnUse" spreadMethod="pad"><stop offset="0" style="stop-opacity:1;stop-color:#fff"/><stop offset="1" style="stop-opacity:0;stop-color:#fff"/></linearGradient><linearGradient id="t" x1="520" x2="410" y1="-620" y2="-620" gradientUnits="userSpaceOnUse" spreadMethod="pad"><stop offset="0" style="stop-opacity:1;stop-color:#000"/><stop offset="1" style="stop-opacity:1;stop-color:#000"/></linearGradient><linearGradient id="l" x1="-240.47" x2="-240.47" y1="-60.605" y2="-29.026" gradientTransform="matrix(.18118 0 0 .17805 52.192 15.631)" gradientUnits="userSpaceOnUse" spreadMethod="pad"><stop offset="0" style="stop-opacity:1;stop-color:#4285db"/><stop offset="1" style="stop-opacity:1;stop-color:#42b9db"/></linearGradient><mask id="o" width="1" height="1" x="0" y="0" maskUnits="userSpaceOnUse"><g clip-path="url(#i)"><path d="M-22.543-286.093h280.477V-99.11H-22.543Z" style="fill:url(#b);stroke:none"/></g></mask><mask id="s" width="1" height="1" x="0" y="0" maskUnits="userSpaceOnUse"><g clip-path="url(#j)"><path d="M444.944-728.121h176.722v353.444H444.944Z" style="fill:url(#d);stroke:none"/></g></mask><radialGradient id="k" cx="0" cy="0" r="1" fx="0" fy="0" gradientTransform="matrix(0 16.5 -16.5 0 9 .75)" gradientUnits="userSpaceOnUse" spreadMethod="pad"><stop offset="0" style="stop-opacity:1;stop-color:#a4a4a4"/><stop offset="1" style="stop-opacity:1;stop-color:#626262"/></radialGradient></defs><path d="M7.195.836c.09 0 .176-.012.258-.035a23.86 23.86 0 0 1 3.231.008 10.26 10.26 0 0 1 2.836.636c1.519.625 2.558 1.711 3.121 3.254.316.93.507 1.887.566 2.867a21.227 21.227 0 0 1-.086 3.696 8.976 8.976 0 0 1-.672 2.488c-.637 1.383-1.672 2.336-3.101 2.859a11.693 11.693 0 0 1-3.575.618 15.998 15.998 0 0 1-4.089-.309c-2.481-.551-4.016-2.066-4.594-4.543a14.244 14.244 0 0 1-.336-3.383c-.027-1.215.101-2.41.387-3.59.609-2.312 2.078-3.746 4.406-4.3A10.27 10.27 0 0 1 7.195.836Z" style="fill:url(#k);fill-rule:evenodd;stroke:none" transform="matrix(1.33333 0 0 1.33333 0 0)"/><path d="m12 13.73-2.307 1.734c0 2.015-.287 2.015-1.73 2.885l4.037.287 4.036-.292c-1.443-.865-1.73-.865-1.73-2.88z" style="fill:#b3b3b3;fill-opacity:1;fill-rule:nonzero;stroke:none;stroke-width:1.33333"/><path d="M7.964 18.344h8.073v.579H7.964Z" style="fill:#ccc;fill-opacity:1;fill-rule:nonzero;stroke:none;stroke-width:1.33333"/><path d="M5.672 5.432h12.656c.645 0 1.172.527 1.172 1.177v7.688c0 .651-.527 1.172-1.172 1.172H5.672A1.171 1.171 0 0 1 4.5 14.297V6.61c0-.65.526-1.177 1.172-1.177z" style="fill:#303030;fill-opacity:1;fill-rule:nonzero;stroke:none;stroke-width:1.33333"/><path d="M4.312 4.277h9.376a.74.74 0 0 1 .746.739v5.648a.738.738 0 0 1-.746.734H4.312a.738.738 0 0 1-.746-.734V5.016a.74.74 0 0 1 .746-.739z" style="fill:url(#l);stroke:none" transform="matrix(1.33333 0 0 1.33333 0 0)"/><path d="m10.15 14.297 3.626-3.922 3.016 3.922z" style="fill:#1a1a1a;fill-opacity:1;fill-rule:nonzero;stroke:none;stroke-width:1.33333"/><g clip-path="url(#m)" opacity=".9" transform="matrix(1.33333 0 0 1.33333 0 0)"><path d="M7.41 8.934 3.836 11.23a.765.765 0 0 0 .48.172h6.993z" style="fill:#e6e6e6;fill-opacity:1;fill-rule:nonzero;stroke:none"/></g><path d="m8.942 15.203.938-3.291 5.202 3.29z" style="fill:#fafbfb;fill-opacity:1;fill-rule:nonzero;stroke:none;stroke-width:1.33333"/><path d="m13.776 10.073-1.208 1.282v3.848h5.677c.276 0 .52-.104.703-.282z" style="fill:#b0b2b5;fill-opacity:1;fill-rule:nonzero;stroke:none;stroke-width:1.33333"/><path d="m13.776 10.073 1.51 5.13h2.959c.276 0 .52-.104.703-.282z" style="fill:#fff;fill-opacity:1;fill-rule:nonzero;stroke:none;stroke-width:1.33333"/><g clip-path="url(#n)" transform="matrix(1.33333 0 0 1.33333 0 0)"><g mask="url(#o)" transform="matrix(.0214 0 0 .0214 6.482 14.12)"><path d="m6.707 11.402.703-2.468 3.902 2.468Z" style="fill:url(#p);stroke:none"/></g></g><g clip-path="url(#q)" opacity=".35" transform="matrix(1.33333 0 0 1.33333 0 0)"><g clip-path="url(#r)"><g mask="url(#s)" transform="matrix(.00566 0 0 .00566 6.482 14.12)"><path d="M9.199 10.066v1.336h.227v-1.191z" style="fill:url(#t);stroke:none"/></g></g></g><rect width="11.507" height="9.523" x="7.747" y="5.692" fill="#4a4a4f" rx=".397" ry=".397" style="stroke-width:.198401;paint-order:markers stroke fill"/><rect width=".397" height="9.523" x="13.289" y="5.692" fill-rule="evenodd" opacity=".15" rx="0" ry="0" style="stroke-width:.198401;paint-order:fill markers stroke"/><rect width=".397" height="11.507" x="10.255" y="-19.254" fill-rule="evenodd" opacity=".15" rx="0" ry="0" style="stroke-width:.198401;paint-order:fill markers stroke" transform="rotate(90)"/><path fill="#638df5" d="M8.13 5.692a.396.396 0 0 0-.396.397v4.365h5.753V5.692Z" style="stroke-width:.198401;paint-order:markers stroke fill"/><rect width="3.571" height="2.778" x="8.924" y="6.684" fill="#fff" fill-rule="evenodd" opacity=".5" rx=".198" ry=".198" style="stroke-width:.198401;paint-order:fill markers stroke"/><rect width="11.507" height="9.523" x="4.759" y="5.692" fill="#4a4a4f" rx=".397" ry=".397" style="stroke-width:.198401;paint-order:markers stroke fill"/><path fill="#638df5" d="M5.156 5.692a.396.396 0 0 0-.397.397v4.365h5.754V5.692Z" style="stroke-width:.198401;paint-order:markers stroke fill"/><rect width=".397" height="9.523" x="10.314" y="5.692" fill-rule="evenodd" opacity=".15" rx="0" ry="0" style="stroke-width:.198401;paint-order:fill markers stroke"/><rect width=".397" height="11.507" x="10.255" y="-16.266" fill-rule="evenodd" opacity=".15" rx="0" ry="0" style="stroke-width:.198401;paint-order:fill markers stroke" transform="rotate(90)"/><rect width="3.571" height="2.778" x="11.505" y="11.446" fill="#fff" fill-rule="evenodd" opacity=".15" rx=".198" ry=".198" style="stroke-width:.198401;paint-order:fill markers stroke"/><rect width="11.507" height="4.947" x="6.265" y="10.269" fill="#4a4a4f" rx="0" ry="0" style="stroke-width:.142989;paint-order:markers stroke fill"/><path fill="#638df5" d="M6.661 5.692a.396.396 0 0 0-.396.397v4.365h5.753V5.692Z" style="stroke-width:.198401;paint-order:markers stroke fill"/><rect width=".397" height="9.523" x="11.82" y="5.692" fill-rule="evenodd" opacity=".15" rx="0" ry="0" style="stroke-width:.198401;paint-order:fill markers stroke"/><rect width=".397" height="11.507" x="10.255" y="-17.772" fill-rule="evenodd" opacity=".15" rx="0" ry="0" style="stroke-width:.198401;paint-order:fill markers stroke" transform="rotate(90)"/><rect width="3.571" height="2.778" x="6.485" y="6.684" fill="#fff" fill-rule="evenodd" opacity=".5" rx=".198" ry=".198" style="stroke-width:.198401;paint-order:fill markers stroke"/><rect width="3.571" height="2.778" x="14.127" y="11.446" fill="#fff" fill-rule="evenodd" opacity=".15" rx=".198" ry=".198" style="stroke-width:.198401;paint-order:fill markers stroke"/><path d="M5.672 5.432c-.645 0-1.172.527-1.172 1.177v7.688c0 .65.527 1.172 1.172 1.172h12.656a1.17 1.17 0 0 0 1.172-1.172V6.609c0-.65-.527-1.177-1.172-1.177zm.183.207h12.276c.626 0 1.137.505 1.137 1.129v7.37c0 .624-.511 1.124-1.137 1.124H5.855c-.625 0-1.136-.5-1.136-1.123V6.768c0-.624.51-1.13 1.136-1.13z" style="fill:#303030;fill-opacity:1;fill-rule:nonzero;stroke:none;stroke-width:1.33333"/></svg>