<svg xmlns="http://www.w3.org/2000/svg" width="24" height="24"><defs><clipPath id="f" clipPathUnits="userSpaceOnUse"><path d="m6.707 11.402.703-2.468 3.902 2.468Z"/></clipPath><clipPath id="a" clipPathUnits="userSpaceOnUse"><path d="M-22.543-286.093h280.477V-99.11H-22.543Z"/></clipPath><clipPath id="i" clipPathUnits="userSpaceOnUse"><path d="M0 0h19v19H0Z"/></clipPath><clipPath id="j" clipPathUnits="userSpaceOnUse"><path d="M9.199 10.066v1.336h.227v-1.191z"/></clipPath><clipPath id="c" clipPathUnits="userSpaceOnUse"><path d="M444.944-728.121h176.722v353.444H444.944Z"/></clipPath><linearGradient id="b" x1="10.583" x2="225.69" y1="-184.68" y2="-184.68" gradientUnits="userSpaceOnUse" spreadMethod="pad"><stop offset="0" style="stop-opacity:1;stop-color:#fff"/><stop offset="1" style="stop-opacity:0;stop-color:#fff"/></linearGradient><linearGradient id="h" x1="10.583" x2="225.69" y1="-184.68" y2="-184.68" gradientUnits="userSpaceOnUse" spreadMethod="pad"><stop offset="0" style="stop-opacity:1;stop-color:#fafbfb"/><stop offset="1" style="stop-opacity:1;stop-color:#fafbfb"/></linearGradient><linearGradient id="d" x1="520" x2="410" y1="-620" y2="-620" gradientUnits="userSpaceOnUse" spreadMethod="pad"><stop offset="0" style="stop-opacity:1;stop-color:#fff"/><stop offset="1" style="stop-opacity:0;stop-color:#fff"/></linearGradient><linearGradient id="l" x1="520" x2="410" y1="-620" y2="-620" gradientUnits="userSpaceOnUse" spreadMethod="pad"><stop offset="0" style="stop-opacity:1;stop-color:#000"/><stop offset="1" style="stop-opacity:1;stop-color:#000"/></linearGradient><mask id="g" width="1" height="1" x="0" y="0" maskUnits="userSpaceOnUse"><g clip-path="url(#a)"><path d="M-22.543-286.093h280.477V-99.11H-22.543Z" style="fill:url(#b);stroke:none"/></g></mask><mask id="k" width="1" height="1" x="0" y="0" maskUnits="userSpaceOnUse"><g clip-path="url(#c)"><path d="M444.944-728.121h176.722v353.444H444.944Z" style="fill:url(#d);stroke:none"/></g></mask><radialGradient id="e" cx="0" cy="0" r="1" fx="0" fy="0" gradientTransform="matrix(0 16.5 -16.5 0 9 .75)" gradientUnits="userSpaceOnUse" spreadMethod="pad"><stop offset="0" style="stop-opacity:1;stop-color:#a4a4a4"/><stop offset="1" style="stop-opacity:1;stop-color:#626262"/></radialGradient></defs><path d="M7.195.836c.09 0 .176-.012.258-.035a23.86 23.86 0 0 1 3.231.008 10.26 10.26 0 0 1 2.836.636c1.519.625 2.558 1.711 3.121 3.254.316.93.507 1.887.566 2.867a21.227 21.227 0 0 1-.086 3.696 8.976 8.976 0 0 1-.672 2.488c-.637 1.383-1.672 2.336-3.101 2.859a11.693 11.693 0 0 1-3.575.618 15.998 15.998 0 0 1-4.089-.309c-2.481-.551-4.016-2.066-4.594-4.543a14.244 14.244 0 0 1-.336-3.383c-.027-1.215.101-2.41.387-3.59.609-2.312 2.078-3.746 4.406-4.3A10.27 10.27 0 0 1 7.195.836Z" style="fill:url(#e);fill-rule:evenodd;stroke:none" transform="matrix(1.33333 0 0 1.33333 0 0)"/><g style="stroke-width:4.30769"><path fill="#59bc04" d="M59 4c-1.662 0-3 1.338-3 3v50c0 1.662 1.338 3 3 3h38c1.662 0 3-1.338 3-3V18L86 4Z" style="stroke-width:4.30769" transform="matrix(.23214 0 0 .23214 -4.714 4.571)"/><path fill="#313437" fill-rule="evenodd" d="M100 18 86 4v14z" opacity=".35" style="stroke-width:4.30769" transform="matrix(.23214 0 0 .23214 -4.714 4.571)"/><path fill="#1da7f7" d="M47 4c-1.662 0-3 1.338-3 3v50c0 1.662 1.338 3 3 3h38c1.662 0 3-1.338 3-3V18L74 4Z" style="stroke-width:4.30769" transform="matrix(.23214 0 0 .23214 -4.714 4.571)"/><path fill="#313437" fill-rule="evenodd" d="M88 18 74 4v14z" opacity=".35" style="stroke-width:4.30769" transform="matrix(.23214 0 0 .23214 -4.714 4.571)"/><path fill="#fff" d="M60 20c-1.108 0-2 .892-2 2s.892 2 2 2 2-.892 2-2-.892-2-2-2zm10 0-4 4 4 4-4 4 4 4 8-8-4-4zM56 32c-1.108 0-2 .892-2 2s.892 2 2 2 2-.892 2-2-.892-2-2-2zm8 8c-1.108 0-2 .892-2 2s.892 2 2 2 2-.892 2-2-.892-2-2-2z" style="stroke-width:4.30769" transform="matrix(.23214 0 0 .23214 -4.714 4.571)"/></g><g clip-path="url(#f)" transform="matrix(1.33333 0 0 1.33333 0 0)"><g mask="url(#g)" transform="matrix(.0214 0 0 .0214 6.482 14.12)"><path d="m6.707 11.402.703-2.468 3.902 2.468Z" style="fill:url(#h);stroke:none"/></g></g><g clip-path="url(#i)" opacity=".35" transform="matrix(1.33333 0 0 1.33333 0 0)"><g clip-path="url(#j)"><g mask="url(#k)" transform="matrix(.00566 0 0 .00566 6.482 14.12)"><path d="M9.199 10.066v1.336h.227v-1.191z" style="fill:url(#l);stroke:none"/></g></g></g></svg>