<svg xmlns="http://www.w3.org/2000/svg" xmlns:xlink="http://www.w3.org/1999/xlink" xml:space="preserve" width="24" height="24"><defs><linearGradient id="i" x1="12" x2="12" y1="0" y2="12" gradientTransform="matrix(.91667 0 0 .91667 1 1)" gradientUnits="userSpaceOnUse"><stop stop-color="#fff"/><stop offset="1" stop-color="#D9D9D9"/></linearGradient><linearGradient id="j" x1="12" x2="12" y1="0" y2="12" gradientTransform="matrix(.91667 0 0 .91667 1 1)" gradientUnits="userSpaceOnUse"><stop offset="0" stop-color="#fff" style="stop-color:#4c94cc;stop-opacity:1"/><stop offset="1" stop-color="#D9D9D9" style="stop-color:#005274;stop-opacity:1"/></linearGradient><linearGradient id="a"><stop offset="0" style="stop-color:#fefefc;stop-opacity:1"/><stop offset=".757" style="stop-color:#fefefc;stop-opacity:1"/><stop offset="1" style="stop-color:#d4d4d4;stop-opacity:1"/></linearGradient><linearGradient id="b"><stop offset="0" style="stop-color:#3e2a06;stop-opacity:1"/><stop offset="1" style="stop-color:#ad780a;stop-opacity:1"/></linearGradient><linearGradient xlink:href="#b" id="d" x1="442.039" x2="490.122" y1="371.544" y2="293.585" gradientTransform="matrix(.87491 0 0 .81149 60.367 62.587)" gradientUnits="userSpaceOnUse"/><linearGradient xlink:href="#b" id="c" x1="442.039" x2="490.122" y1="371.544" y2="293.585" gradientUnits="userSpaceOnUse"/><linearGradient id="g"><stop offset="0" style="stop-color:#61deff;stop-opacity:1"/><stop offset="1" style="stop-color:#04f;stop-opacity:1"/></linearGradient><linearGradient xlink:href="#g" id="l" x1="1104.474" x2="3888.021" y1="1103.703" y2="3896.297" gradientTransform="matrix(.01444 0 0 .01444 -78.766 -24.098)" gradientUnits="userSpaceOnUse"/><linearGradient id="h" x1="331.947" x2="331.947" y1="12" y2="123" gradientUnits="userSpaceOnUse"><stop offset="0" style="stop-color:#99a29b;stop-opacity:1"/><stop offset="1" style="stop-color:#738777;stop-opacity:1"/></linearGradient><linearGradient xlink:href="#h" id="k" x1="331.947" x2="331.947" y1="12" y2="123" gradientUnits="userSpaceOnUse"/><radialGradient xlink:href="#a" id="f" cx="223.196" cy="137.661" r="14.572" fx="223.196" fy="137.661" gradientTransform="matrix(1.08578 -.03431 .03944 1.24799 -154.542 -26.543)" gradientUnits="userSpaceOnUse"/><radialGradient xlink:href="#a" id="e" cx="223.196" cy="137.661" r="14.572" fx="223.196" fy="137.661" gradientTransform="matrix(.81524 -.03431 .02961 1.24799 -129.437 -26.543)" gradientUnits="userSpaceOnUse"/></defs><path fill="url(#i)" fill-rule="evenodd" d="M9.596 1.114c.12 0 .234-.015.344-.046a31.621 31.621 0 0 1 4.307.011c1.301.102 2.561.384 3.78.848 2.026.833 3.412 2.28 4.158 4.339.427 1.24.679 2.514.756 3.824a27.936 27.936 0 0 1-.115 4.923 11.882 11.882 0 0 1-.893 3.32c-.85 1.843-2.229 3.114-4.135 3.813a15.626 15.626 0 0 1-4.765.825 21.431 21.431 0 0 1-5.453-.413c-3.312-.737-5.354-2.756-6.128-6.056a19.045 19.045 0 0 1-.447-4.511 18.49 18.49 0 0 1 .515-4.786c.812-3.086 2.77-4.998 5.877-5.736a13.967 13.967 0 0 1 2.199-.355Z" clip-rule="evenodd" style="fill:url(#j);stroke-width:.916668"/><path d="M-50.798-10.438c-5.19 0-9.743 0-12.02 2.277-2.276 2.277-2.276 6.83-2.263 12.033.005 1.996.009 4.123.016 6.236h20.556v-20.546zm10.084 0v20.546h20.412c0-2.132.004-4.28.004-6.289 0-5.203.001-9.73-2.275-11.994-2.277-2.264-6.83-2.263-12.02-2.263zm-24.344 24.341c.006 2.11.016 4.234.016 6.227 0 5.203-.027 9.756 2.25 12.033 2.277 2.277 6.855 2.275 9.145 2.275h9.139V13.903Zm24.344 0v20.535h6.121c5.164 0 9.692.002 11.969-2.275 2.277-2.277 2.302-6.831 2.314-12.047.005-1.988.003-4.106.004-6.213z" style="fill:url(#l);fill-opacity:1;stroke:none;stroke-width:.0108353px;stroke-linecap:butt;stroke-linejoin:miter;stroke-opacity:1" transform="translate(27.22 7.722) scale(.35653)"/><path d="M-30.395-2.371V-.3h-21.763c-1.187 0-2.06.298-2.623.888-.562.59-.841 1.497-.841 2.726v10.073c0 .378.084.66.257.847.173.181.441.27.806.27h19.383c.577 0 .981.131 1.212.394.25.262.372.708.372 1.334v1.429c0 .624-.123 1.065-.372 1.327-.23.262-.637.393-1.212.393h-19.81v-2.113l-3.487 4.551 3.487 4.551v-2.113h22.004c1.502 0 2.614-.37 3.325-1.117.712-.747 1.063-1.898 1.064-3.454V13.76c0-1.432-.328-2.496-.983-3.183-.654-.707-1.672-1.057-3.054-1.057h-16.41c-.556 0-.962-.13-1.212-.393-.25-.261-.372-.703-.372-1.327V6.38c0-.624.123-1.072.372-1.334.25-.262.656-.393 1.213-.393h18.644v2.072l3.488-4.544z" style="fill:#fff;stroke-width:.888215" transform="translate(27.22 7.722) scale(.35653)"/></svg>