<svg xmlns="http://www.w3.org/2000/svg" width="24" height="24" fill="none"><defs><radialGradient id="a" cx="0" cy="0" r="1" gradientTransform="matrix(0 22 -22 0 12 1)" gradientUnits="userSpaceOnUse"><stop offset="0" stop-color="#8FC8FF" style="stop-color:#f6f6f6;stop-opacity:1"/><stop offset="1" stop-color="#0056A8" style="stop-color:#cfcfcf;stop-opacity:1"/></radialGradient></defs><path d="M50 5C9.09 5 5 25.455 5 50c0 32.727 12.273 45 45 45 32.727 0 45-12.273 45-45 0-24.545-4.09-45-45-45Z" style="font-variation-settings:normal;display:inline;opacity:1;vector-effect:none;fill:#1c7cbf;fill-opacity:1;stroke-width:4.56656;stroke-linecap:butt;stroke-linejoin:miter;stroke-miterlimit:4;stroke-dasharray:none;stroke-dashoffset:0;stroke-opacity:1;-inkscape-stroke:none;stop-color:#000;stop-opacity:1" transform="matrix(.24444 0 0 .24444 -.222 -.222)"/><g fill="#fff" stroke-width=".265"><path d="M4.559 4.763a.33.33 0 0 0-.325.336v5.942a.33.33 0 0 0 .325.337h1.262l.692.793h3.908l.692-.793h1.262a.33.33 0 0 0 .325-.337V5.099a.33.33 0 0 0-.325-.336Zm.733 1.058h6.35v4.498h-1.058l-.794.794H7.144l-.53-.794H5.293Z" style="paint-order:markers stroke fill" transform="matrix(1.65364 0 0 1.65364 -2.001 -2.001)"/><path d="m9.812 16.376-.876-1.313H6.75V7.624h10.501v7.439h-1.75l-1.313 1.313z" opacity=".35"/><path d="M8.063 8.937h1.311V7.623H8.063Zm2.187 0h1.312V7.623h-1.31Zm2.188 0h1.312V7.623h-1.312Zm2.188 0h1.311V7.623h-1.311z" opacity=".5"/></g></svg>