<?xml version="1.0" encoding="UTF-8" standalone="no"?>
<svg
   width="24"
   height="24"
   fill="none"
   version="1.1"
   id="svg4"
   sodipodi:docname="preferences-desktop-default-applications.svg"
   inkscape:version="1.3 (0e150ed6c4, 2023-07-21)"
   xml:space="preserve"
   xmlns:inkscape="http://www.inkscape.org/namespaces/inkscape"
   xmlns:sodipodi="http://sodipodi.sourceforge.net/DTD/sodipodi-0.dtd"
   xmlns="http://www.w3.org/2000/svg"
   xmlns:svg="http://www.w3.org/2000/svg"><sodipodi:namedview
     id="namedview4"
     pagecolor="#ffffff"
     bordercolor="#000000"
     borderopacity="0.25"
     inkscape:showpageshadow="2"
     inkscape:pageopacity="0.0"
     inkscape:pagecheckerboard="0"
     inkscape:deskcolor="#d1d1d1"
     inkscape:zoom="24.020833"
     inkscape:cx="-6.7441457"
     inkscape:cy="5.9323504"
     inkscape:window-width="3440"
     inkscape:window-height="1358"
     inkscape:window-x="2560"
     inkscape:window-y="0"
     inkscape:window-maximized="1"
     inkscape:current-layer="svg4" /><defs
     id="defs2"><radialGradient
       id="a"
       cx="0"
       cy="0"
       r="1"
       gradientTransform="matrix(0 22 -22 0 12 1)"
       gradientUnits="userSpaceOnUse"><stop
         offset="0"
         stop-color="#8FC8FF"
         style="stop-color:#f6f6f6;stop-opacity:1"
         id="stop1" /><stop
         offset="1"
         stop-color="#0056A8"
         style="stop-color:#cfcfcf;stop-opacity:1"
         id="stop2" /></radialGradient></defs><path
     d="M50 5C9.09 5 5 25.455 5 50c0 32.727 12.273 45 45 45 32.727 0 45-12.273 45-45 0-24.545-4.09-45-45-45Z"
     style="font-variation-settings:normal;display:inline;opacity:1;vector-effect:none;fill:#4d4d4d;fill-opacity:1;stroke-width:4.56656;stroke-linecap:butt;stroke-linejoin:miter;stroke-miterlimit:4;stroke-dasharray:none;stroke-dashoffset:0;stroke-opacity:1;-inkscape-stroke:none;stop-color:#000;stop-opacity:1"
     transform="matrix(.24444 0 0 .24444 -.222 -.222)"
     id="path2" /><path
     id="rect5"
     style="fill:#fcb740;fill-opacity:1;stroke-width:0.5;stroke-linecap:round;stroke-linejoin:round;stroke-dasharray:0.8062, 0.8062;stroke-dashoffset:0.945179;paint-order:markers fill stroke"
     d="m 11.999995,4.9989995 c -0.82529,1.2431 -0.97104,2.856274 -1.99246,4.00656 -1.14354,1.2878175 -3.49648,1.2360425 -5.08899,1.3044195 0.98364,1.396403 2.98328,2.455563 3.40731,4.1846 0.34452,1.404821 -0.49096,3.109365 -0.67137,4.506422 l 4.34551,-1.887218 4.34529,1.887218 c -0.18041,-1.397055 -1.01566,-3.101601 -0.67114,-4.506422 0.42403,-1.729036 2.42366,-2.788196 3.40731,-4.1846 -1.51314,-0.06497 -3.79953,-0.0086 -4.93687,-1.1608615 -1.14056,-1.155529 -1.27889,-2.84646 -2.14459,-4.150118 z" /></svg>
