<?xml version="1.0" encoding="UTF-8" standalone="no"?>
<svg
   width="24"
   height="24"
   version="1"
   id="svg17803"
   sodipodi:docname="preferences-desktop-mouse.svg"
   inkscape:version="1.2.2 (b0a8486541, 2022-12-01)"
   xml:space="preserve"
   inkscape:export-filename="preferences-desktop-mouse.svg"
   inkscape:export-xdpi="800"
   inkscape:export-ydpi="800"
   xmlns:inkscape="http://www.inkscape.org/namespaces/inkscape"
   xmlns:sodipodi="http://sodipodi.sourceforge.net/DTD/sodipodi-0.dtd"
   xmlns="http://www.w3.org/2000/svg"
   xmlns:svg="http://www.w3.org/2000/svg"><defs
     id="defs17807"><radialGradient
       id="paint0_radial_29_149"
       cx="0"
       cy="0"
       r="1"
       gradientUnits="userSpaceOnUse"
       gradientTransform="matrix(0,10.999988,-11.000006,0,12.000006,1.0000002)"><stop
         stop-color="#80D2FF"
         id="stop17930" /><stop
         offset="1"
         stop-color="#2991C9"
         id="stop17932"
         style="stop-color:#008cdc;stop-opacity:1;" /></radialGradient><radialGradient
       id="paint0_radial_29_23"
       cx="0"
       cy="0"
       r="1"
       gradientUnits="userSpaceOnUse"
       gradientTransform="matrix(0,22,-22,0,12,1)"><stop
         stop-color="#8FC8FF"
         id="stop2690" /><stop
         offset="1"
         stop-color="#0056A8"
         id="stop2692" /></radialGradient><radialGradient
       fx="0"
       fy="0"
       cx="0"
       cy="0"
       r="1"
       gradientUnits="userSpaceOnUse"
       gradientTransform="matrix(0,16.5,-16.5,0,8.999991,0.750011)"
       spreadMethod="pad"
       id="radialGradient3147"><stop
         style="stop-opacity:1;stop-color:#8fc8ff"
         offset="0"
         id="stop3143" /><stop
         style="stop-opacity:1;stop-color:#0056a8"
         offset="1"
         id="stop3145" /></radialGradient><radialGradient
       fx="0"
       fy="0"
       cx="0"
       cy="0"
       r="1"
       gradientUnits="userSpaceOnUse"
       gradientTransform="matrix(0,16.5,-16.5,0,8.999991,0.750011)"
       spreadMethod="pad"
       id="radialGradient3147-3"><stop
         style="stop-opacity:1;stop-color:#8fc8ff"
         offset="0"
         id="stop3143-6" /><stop
         style="stop-opacity:1;stop-color:#0056a8"
         offset="1"
         id="stop3145-7" /></radialGradient></defs><sodipodi:namedview
     id="namedview17805"
     pagecolor="#ffffff"
     bordercolor="#000000"
     borderopacity="0.25"
     inkscape:showpageshadow="2"
     inkscape:pageopacity="0.0"
     inkscape:pagecheckerboard="0"
     inkscape:deskcolor="#d1d1d1"
     showgrid="false"
     inkscape:zoom="6.8281249"
     inkscape:cx="19.258582"
     inkscape:cy="8.1281466"
     inkscape:window-width="2560"
     inkscape:window-height="1000"
     inkscape:window-x="1680"
     inkscape:window-y="0"
     inkscape:window-maximized="1"
     inkscape:current-layer="svg17803" /><g
     id="g3131"
     transform="matrix(1.3333333,0,0,1.3333333,-4.5225532e-4,-3.504174e-5)"><g
       id="g3133"><g
         id="g3135"><g
           id="g3141"><path
             d="m 7.195,0.836 c 0.09,0 0.176,-0.012 0.258,-0.035 1.078,-0.071 2.156,-0.067 3.231,0.008 0.976,0.078 1.921,0.289 2.836,0.636 1.519,0.625 2.558,1.711 3.121,3.254 0.316,0.93 0.507,1.887 0.566,2.867 0.078,1.235 0.051,2.465 -0.086,3.696 -0.105,0.863 -0.328,1.691 -0.672,2.488 -0.637,1.383 -1.672,2.336 -3.101,2.859 C 12.191,17 11,17.207 9.773,17.227 8.398,17.301 7.035,17.195 5.684,16.918 3.203,16.367 1.668,14.852 1.09,12.375 0.844,11.262 0.73,10.133 0.754,8.992 0.727,7.781 0.855,6.582 1.141,5.402 1.75,3.09 3.219,1.656 5.547,1.102 6.09,0.969 6.641,0.879 7.195,0.836 Z"
             style="fill:url(#radialGradient3147-3);fill-rule:evenodd;stroke:none"
             id="path3149" /></g></g></g><g
       id="g3151"><path
         d="m 6.961,3.5 h 0.734 v 3.809 c 0,0.718 0.575,1.293 1.293,1.293 0.715,0 1.289,-0.575 1.289,-1.293 V 3.5 h 0.762 z m 4.133,0.004 v 3.793 c 0,1.168 -0.938,2.109 -2.106,2.109 C 7.82,9.406 6.879,8.465 6.879,7.297 V 3.504 C 5.684,3.547 4.734,4.52 4.734,5.727 v 4.507 c 0,2.364 1.903,4.266 4.266,4.266 2.363,0 4.266,-1.902 4.266,-4.266 V 5.727 c 0,-1.215 -0.965,-2.192 -2.172,-2.223 z M 8.988,4.926 c 0.27,0 0.485,0.215 0.485,0.484 V 6.922 C 9.473,7.188 9.258,7.406 8.988,7.406 8.719,7.406 8.5,7.188 8.5,6.922 V 5.41 C 8.5,5.141 8.719,4.926 8.988,4.926 Z"
         style="fill:none;stroke:#000000;stroke-width:0.825;stroke-linecap:round;stroke-linejoin:round;stroke-miterlimit:4;stroke-dasharray:none;stroke-opacity:0.121123"
         id="path3153" /></g><path
       d="m 6.961,3.5 h 0.734 v 3.809 c 0,0.718 0.575,1.293 1.293,1.293 0.715,0 1.289,-0.575 1.289,-1.293 V 3.5 h 0.762 z m 4.133,0.004 v 3.793 c 0,1.168 -0.938,2.109 -2.106,2.109 C 7.82,9.406 6.879,8.465 6.879,7.297 V 3.504 C 5.684,3.547 4.734,4.52 4.734,5.727 v 4.507 c 0,2.364 1.903,4.266 4.266,4.266 2.363,0 4.266,-1.902 4.266,-4.266 V 5.727 c 0,-1.215 -0.965,-2.192 -2.172,-2.223 z M 8.988,4.926 c 0.27,0 0.485,0.215 0.485,0.484 V 6.922 C 9.473,7.188 9.258,7.406 8.988,7.406 8.719,7.406 8.5,7.188 8.5,6.922 V 5.41 C 8.5,5.141 8.719,4.926 8.988,4.926 Z"
       style="fill:#fafafa;fill-opacity:1;fill-rule:nonzero;stroke:none"
       id="path3155" /></g></svg>
