<svg xmlns="http://www.w3.org/2000/svg" width="24" height="24"><defs><radialGradient id="a" cx="0" cy="0" r="1" fx="0" fy="0" gradientTransform="matrix(0 19.40524 -26.58722 0 12 1)" gradientUnits="userSpaceOnUse"><stop offset="0" stop-color="#68BBFF" stop-opacity=".875" style="stop-color:#66bcff;stop-opacity:1"/><stop offset="1" stop-color="#A99EFF" style="stop-color:#b29aff;stop-opacity:1"/></radialGradient></defs><path fill="url(#a)" fill-rule="evenodd" d="M9.596 1.114c.12 0 .234-.014.344-.046a31.627 31.627 0 0 1 4.307.011c1.301.102 2.562.384 3.78.848 2.026.833 3.412 2.28 4.158 4.339.427 1.24.679 2.514.756 3.824a27.94 27.94 0 0 1-.114 4.923 11.876 11.876 0 0 1-.894 3.32c-.85 1.843-2.229 3.114-4.135 3.813a15.624 15.624 0 0 1-4.765.825 21.423 21.423 0 0 1-5.453-.413c-3.312-.737-5.354-2.756-6.128-6.056a19.047 19.047 0 0 1-.447-4.511 18.491 18.491 0 0 1 .515-4.786c.812-3.086 2.77-4.998 5.877-5.736a13.954 13.954 0 0 1 2.199-.355Z" clip-rule="evenodd" style="fill:url(#a)"/><path fill-rule="evenodd" d="M11.992 1c-.684 0-1.368.023-2.052.068-.11.032-.224.047-.344.046-.742.06-1.476.178-2.2.355C5.82 1.843 4.54 2.52 3.555 3.5H20.45c-.668-.659-1.476-1.183-2.424-1.573a13.537 13.537 0 0 0-3.78-.848A31.656 31.656 0 0 0 11.992 1z" clip-rule="evenodd" opacity=".35"/><rect width="1.488" height=".744" x="5.987" y="2.059" opacity=".35" ry=".373" style="fill:#000;stroke-width:1.40646;paint-order:stroke markers fill"/><rect width="3.721" height=".744" x="10.139" y="2.059" opacity=".35" ry=".373" style="fill:#000;stroke-width:1.40646;paint-order:stroke markers fill"/><rect width=".744" height=".744" x="17.257" y="2.059" opacity=".35" ry=".373" style="fill:#000;stroke-width:1.40646;paint-order:stroke markers fill"/><rect width="1.117" height=".744" x="15.769" y="2.059" opacity=".35" ry=".373" style="fill:#000;stroke-width:1.40646;paint-order:stroke markers fill"/><rect width=".744" height=".744" x="14.652" y="2.059" opacity=".35" ry=".373" style="fill:#000;stroke-width:1.40646;paint-order:stroke markers fill"/><g fill="#ccdfff" style="stroke-width:3.78" transform="matrix(.36814 0 0 .36814 .226 1.295)"><rect width="5" height="5" x="17.001" y="48.001" ry=".499" style="paint-order:stroke markers fill"/><rect width="5" height="5" x="25.335" y="48.001" ry=".499" style="paint-order:stroke markers fill"/><rect width="5" height="5" x="33.669" y="48.001" ry=".499" style="paint-order:stroke markers fill"/><rect width="5" height="5" x="42.003" y="48.001" ry=".499" style="paint-order:stroke markers fill"/></g><path d="M5.748 20.084a.735.735 0 0 0-.736.736v.764c.75.433 1.603.76 2.568.975 1.8.37 3.617.507 5.453.412a15.614 15.614 0 0 0 4.764-.825c.428-.157.83-.343 1.205-.558v-.768a.735.735 0 0 0-.736-.736z" style="opacity:.35;fill:#fff"/><g fill="#fff" style="stroke-width:2.92308" transform="matrix(.3421 0 0 .3421 -5.79 1.083)"><rect width="37.991" height="27.819" x="33" y="18.001" opacity=".35" ry="1.309" style="stroke-width:2.92308"/><g opacity=".75" style="stroke-width:2.92308" transform="matrix(.46937 0 0 .4555 -189.41 -153.63)"><ellipse cx="498.35" cy="384.49" rx="3.196" ry="3.293" style="stroke-width:2.92308"/><ellipse cx="489.83" cy="384.49" rx="3.196" ry="3.293" style="stroke-width:2.92308"/><ellipse cx="481.31" cy="384.49" rx="3.196" ry="3.293" style="stroke-width:2.92308"/></g><path d="M69.691 18.002c.725 0 1.309.583 1.309 1.309v25.2c0 .726-.584 1.31-1.309 1.31H52v-27.82z" opacity=".35" style="stroke-width:2.92308"/></g></svg>