<svg xmlns="http://www.w3.org/2000/svg" xmlns:xlink="http://www.w3.org/1999/xlink" xml:space="preserve" width="24" height="24"><defs><linearGradient id="d"><stop offset="0" style="stop-color:#fff;stop-opacity:1"/><stop offset="1" style="stop-color:#edeef0;stop-opacity:0"/></linearGradient><linearGradient id="a" x1="-240.47" x2="-240.47" y1="-60.605" y2="-29.026" gradientTransform="matrix(.96667 0 0 .95 262.45 67.575)" gradientUnits="userSpaceOnUse"><stop offset="0" stop-color="#4285db"/><stop offset="1" stop-color="#42b9db"/></linearGradient><linearGradient id="b" x1="10.583" x2="225.69" y1="-184.68" y2="-184.68" gradientTransform="translate(18.557 59.5) scale(.11417)" gradientUnits="userSpaceOnUse"><stop offset="0" stop-color="#fafbfb"/><stop offset="1" stop-color="#fafbfb" stop-opacity="0"/></linearGradient><linearGradient id="c" x1="520" x2="410" y1="-620" y2="-620" gradientTransform="translate(18.557 59.5) scale(.0302)" gradientUnits="userSpaceOnUse"><stop offset="0"/><stop offset="1" stop-opacity="0"/></linearGradient><linearGradient xlink:href="#a" id="f" x1="-240.47" x2="-240.47" y1="-60.605" y2="-29.026" gradientTransform="matrix(.24157 0 0 .2374 69.59 20.842)" gradientUnits="userSpaceOnUse"/><linearGradient xlink:href="#b" id="g" x1="10.583" x2="225.69" y1="-184.68" y2="-184.68" gradientTransform="translate(12.078 102.06) scale(.11417)" gradientUnits="userSpaceOnUse"/><linearGradient xlink:href="#c" id="h" x1="520" x2="410" y1="-620" y2="-620" gradientTransform="translate(12.078 102.06) scale(.0302)" gradientUnits="userSpaceOnUse"/><linearGradient xlink:href="#d" id="i" x1="-55.084" x2="-59.886" y1="10.416" y2="5.615" gradientTransform="matrix(.3188 0 0 .3188 31.427 5.009)" gradientUnits="userSpaceOnUse"/><radialGradient id="e" cx="0" cy="0" r="1" fx="0" fy="0" gradientTransform="matrix(0 22 -22 0 12 1)" gradientUnits="userSpaceOnUse" spreadMethod="pad"><stop offset="0" style="stop-opacity:1;stop-color:#a4a4a4"/><stop offset="1" style="stop-opacity:1;stop-color:#626262"/></radialGradient></defs><path d="M9.593 1.115c.12 0 .235-.016.344-.047a31.814 31.814 0 0 1 4.308.01 13.68 13.68 0 0 1 3.781.849c2.026.833 3.41 2.281 4.162 4.338.42 1.24.676 2.516.754 3.823a28.303 28.303 0 0 1-.114 4.928 11.968 11.968 0 0 1-.896 3.317c-.85 1.844-2.23 3.115-4.135 3.812-1.543.522-3.13.798-4.767.824a21.331 21.331 0 0 1-5.452-.412c-3.308-.734-5.354-2.754-6.125-6.057a18.991 18.991 0 0 1-.448-4.51c-.036-1.62.135-3.214.516-4.787.812-3.083 2.77-4.995 5.875-5.734a13.692 13.692 0 0 1 2.197-.354z" style="fill:url(#e);fill-rule:evenodd;stroke:none;stroke-width:1.33333"/><path fill="#b3b3b3" d="m12 13.73-2.308 1.732c0 2.019-.288 2.019-1.73 2.885l4.038.288 4.038-.289c-1.442-.865-1.73-.865-1.73-2.885z" style="stroke-width:.491449"/><path fill="#ccc" d="M7.962 18.346v.577h8.077v-.577z" style="stroke-width:.491449"/><rect width="15" height="10.036" x="4.5" y="5.434" fill="#303030" rx="1.174" ry="1.174" style="stroke-width:.483148"/><rect width="14.494" height="9.496" x="4.753" y="5.704" fill="url(#a)" rx="1" ry=".982" style="fill:url(#f);stroke-width:.249902"/><path fill="#1a1a1a" d="m10.152 14.299 3.623-3.925 3.019 3.925z"/><path fill="#e6e6e6" d="m9.88 11.914-4.763 3.059c.174.142.394.231.639.231h9.325l-5.2-3.29z" opacity=".9"/><path fill="#fafbfb" d="m8.945 15.204.936-3.29 5.2 3.29z"/><path fill="#b0b2b5" d="m13.775 10.073-1.207 1.283v3.848h5.68c.272 0 .519-.107.699-.28z"/><path fill="#fff" d="m13.775 10.072 1.51 5.132h2.962c.273 0 .52-.107.7-.28l-5.172-4.852z"/><path fill="url(#b)" d="m13.287 87.56 3.746-13.172L37.847 87.56z" style="fill:url(#g)" transform="matrix(.24983 0 0 .24983 5.626 -6.67)"/><path fill="url(#c)" d="M26.578 80.43v7.13h1.208v-6.366z" opacity=".35" style="fill:url(#h)" transform="matrix(.24983 0 0 .24983 5.626 -6.67)"/><path d="M11.9 6.736a2.673 2.673 0 0 0-2.674 2.673 2.673 2.673 0 0 0 2.673 2.673 2.673 2.673 0 0 0 2.674-2.673 2.673 2.673 0 0 0-2.674-2.673zm0 .49a2.183 2.183 0 0 1 2.182 2.183 2.183 2.183 0 0 1-2.183 2.183A2.183 2.183 0 0 1 9.716 9.41 2.183 2.183 0 0 1 11.9 7.227Z" style="fill:url(#i);fill-opacity:1;stroke-width:.318804;stroke-linecap:round;stroke-linejoin:round;paint-order:stroke markers fill" transform="translate(.1)"/><path d="M11.9 6.736a2.673 2.673 0 0 0-2.674 2.673 2.673 2.673 0 0 0 2.673 2.673 2.673 2.673 0 0 0 .012 0v-.49a2.183 2.183 0 0 1-.012 0A2.183 2.183 0 0 1 9.716 9.41 2.183 2.183 0 0 1 11.9 7.227a2.183 2.183 0 0 1 .012 0v-.491a2.673 2.673 0 0 0-.012 0z" style="fill:#fff;fill-opacity:1;stroke-width:.318804;stroke-linecap:round;stroke-linejoin:round;paint-order:stroke markers fill" transform="translate(.1)"/></svg>