<?xml version="1.0" encoding="UTF-8" standalone="no"?>
<svg
   width="24"
   height="24"
   viewBox="0 0 6.35 6.35"
   version="1.1"
   id="svg11"
   sodipodi:docname="preferences-desktop-theme-applications.svg"
   inkscape:version="1.3 (0e150ed6c4, 2023-07-21)"
   xmlns:inkscape="http://www.inkscape.org/namespaces/inkscape"
   xmlns:sodipodi="http://sodipodi.sourceforge.net/DTD/sodipodi-0.dtd"
   xmlns="http://www.w3.org/2000/svg"
   xmlns:svg="http://www.w3.org/2000/svg">
  <sodipodi:namedview
     id="namedview11"
     pagecolor="#ffffff"
     bordercolor="#000000"
     borderopacity="0.25"
     inkscape:showpageshadow="2"
     inkscape:pageopacity="0.0"
     inkscape:pagecheckerboard="0"
     inkscape:deskcolor="#d1d1d1"
     inkscape:zoom="48.041667"
     inkscape:cx="11.989592"
     inkscape:cy="12"
     inkscape:window-width="3440"
     inkscape:window-height="1358"
     inkscape:window-x="2560"
     inkscape:window-y="0"
     inkscape:window-maximized="1"
     inkscape:current-layer="svg11" />
  <defs
     id="defs3">
    <clipPath
       id="b"
       clipPathUnits="userSpaceOnUse">
      <path
         d="M0 0h19v19H0Z"
         id="path1" />
    </clipPath>
    <clipPath
       id="c"
       clipPathUnits="userSpaceOnUse">
      <path
         d="M0 0h19v19H0Z"
         id="path2" />
    </clipPath>
    <radialGradient
       id="a"
       cx="0"
       cy="0"
       r="1"
       fx="0"
       fy="0"
       gradientTransform="matrix(0 16.5 -16.5 0 9 .75)"
       gradientUnits="userSpaceOnUse"
       spreadMethod="pad">
      <stop
         offset="0"
         style="stop-opacity:1;stop-color:#8fc8ff"
         id="stop2" />
      <stop
         offset="1"
         style="stop-opacity:1;stop-color:#0056a8"
         id="stop3" />
    </radialGradient>
  </defs>
  <path
     d="M7.195.836c.09 0 .176-.012.258-.035a23.86 23.86 0 0 1 3.231.008 10.26 10.26 0 0 1 2.836.636c1.519.625 2.558 1.711 3.121 3.254.316.93.507 1.887.566 2.867a21.227 21.227 0 0 1-.086 3.696 8.976 8.976 0 0 1-.672 2.488c-.637 1.383-1.672 2.336-3.101 2.859a11.693 11.693 0 0 1-3.575.618 15.998 15.998 0 0 1-4.089-.309c-2.481-.551-4.016-2.066-4.594-4.543a14.244 14.244 0 0 1-.336-3.383c-.027-1.211.101-2.41.387-3.59.609-2.312 2.078-3.746 4.406-4.3A10.27 10.27 0 0 1 7.195.836Z"
     style="fill:url(#a);fill-rule:evenodd;stroke:none"
     transform="scale(.35277)"
     id="path3" />
  <g
     transform="matrix(.99984 0 0 .99984 .001 .166)"
     id="g11">
    <g
       clip-path="url(#b)"
       opacity=".194"
       transform="rotate(90 2.914 3.436) scale(.35277)"
       id="g4">
      <path
         d="M11.371 3.418v11.184a.389.389 0 0 1-.379.398h-.035a.39.39 0 0 1-.383-.398V3.418a.39.39 0 0 1 .383-.402h.035c.211 0 .379.179.379.402z"
         style="fill:#fff;fill-opacity:1;fill-rule:evenodd;stroke:none"
         id="path4" />
    </g>
    <path
       d="M5.15 4.535a.14.14 0 0 0 .141-.14.142.142 0 0 0-.141-.143H2.183v.283Z"
       style="fill:#fff;fill-opacity:1;fill-rule:evenodd;stroke:none;stroke-width:.352771"
       id="path5" />
    <path
       d="M1.639 4.401a.41.41 0 1 1 .82 0 .41.41 0 0 1-.82 0z"
       style="fill:#fff;fill-opacity:1;fill-rule:evenodd;stroke:none;stroke-width:.352771"
       id="path6" />
    <g
       clip-path="url(#c)"
       opacity=".194"
       transform="rotate(90 2.744 3.605) scale(.35277)"
       id="g7">
      <path
         d="M7.379 3.418v11.184c0 .218-.149.398-.328.398h-.145c-.179 0-.328-.18-.328-.398V3.418c0-.223.149-.402.328-.402h.145c.179 0 .328.179.328.402z"
         style="fill:#fff;fill-opacity:1;fill-rule:evenodd;stroke:none"
         id="path7" />
    </g>
    <path
       d="M5.15 3.465a.142.142 0 0 0 0-.284H3.592v.284z"
       style="fill:#fff;fill-opacity:1;fill-rule:evenodd;stroke:none;stroke-width:.352771"
       id="path8" />
    <path
       d="M3.33 3.332a.41.41 0 1 1 .819-.002.41.41 0 0 1-.82.002z"
       style="fill:#fff;fill-opacity:1;fill-rule:evenodd;stroke:none;stroke-width:.352771"
       id="path9" />
    <rect
       width="4.232"
       height=".47"
       x="1.057"
       y="1.207"
       opacity=".35"
       paint-order="markers stroke fill"
       ry=".235"
       style="stroke-width:.444353"
       id="rect9" />
    <rect
       width="1.881"
       height=".47"
       x="1.057"
       y="2.122"
       opacity=".35"
       paint-order="markers stroke fill"
       ry=".235"
       style="stroke-width:.444353"
       id="rect10" />
    <rect
       width="1.881"
       height=".47"
       x="3.409"
       y="2.122"
       opacity=".35"
       paint-order="markers stroke fill"
       ry=".235"
       style="stroke-width:.444353"
       id="rect11" />
  </g>
</svg>
