<?xml version="1.0" encoding="UTF-8" standalone="no"?>
<svg
   width="24"
   height="24"
   version="1.1"
   id="svg13090"
   sodipodi:docname="screen-lxqt.svg"
   xml:space="preserve"
   inkscape:version="1.2.2 (b0a8486541, 2022-12-01)"
   inkscape:export-filename="preferences-system-login.svg"
   inkscape:export-xdpi="512"
   inkscape:export-ydpi="512"
   xmlns:inkscape="http://www.inkscape.org/namespaces/inkscape"
   xmlns:sodipodi="http://sodipodi.sourceforge.net/DTD/sodipodi-0.dtd"
   xmlns:xlink="http://www.w3.org/1999/xlink"
   xmlns="http://www.w3.org/2000/svg"
   xmlns:svg="http://www.w3.org/2000/svg"><defs
     id="defs13094"><radialGradient
       fx="0"
       fy="0"
       cx="0"
       cy="0"
       r="1"
       gradientUnits="userSpaceOnUse"
       gradientTransform="matrix(0,22.000002,-22.000002,0,11.999545,0.99996354)"
       spreadMethod="pad"
       id="radialGradient12763-3"><stop
         style="stop-opacity:1;stop-color:#a4a4a4"
         offset="0"
         id="stop12759-6" /><stop
         style="stop-opacity:1;stop-color:#626262"
         offset="1"
         id="stop12761-7" /></radialGradient><radialGradient
       id="paint0_radial_29_149"
       cx="0"
       cy="0"
       r="1"
       gradientUnits="userSpaceOnUse"
       gradientTransform="matrix(0,31.999991,-32.000024,0,72.000019,2.1748198e-6)"><stop
         stop-color="#80D2FF"
         id="stop17930" /><stop
         offset="1"
         stop-color="#2991C9"
         id="stop17932"
         style="stop-color:#002a43;stop-opacity:1;" /></radialGradient><radialGradient
       id="paint0_radial_29_149-3"
       cx="0"
       cy="0"
       r="1"
       gradientUnits="userSpaceOnUse"
       gradientTransform="matrix(0,31.999965,-32.000018,0,141.21699,-14.468428)"><stop
         stop-color="#80D2FF"
         id="stop17930-6" /><stop
         offset="1"
         stop-color="#2991C9"
         id="stop17932-7"
         style="stop-color:#002a43;stop-opacity:1;" /></radialGradient><radialGradient
       id="paint0_radial_29_23"
       cx="0"
       cy="0"
       r="1"
       gradientUnits="userSpaceOnUse"
       gradientTransform="matrix(0,22.000031,-22.000031,0,11.999983,1.000049)"><stop
         stop-color="#8FC8FF"
         id="stop184"
         offset="0"
         style="stop-color:#ffffff;stop-opacity:1;" /><stop
         offset="1"
         stop-color="#0056A8"
         id="stop186"
         style="stop-color:#bebebe;stop-opacity:1;" /></radialGradient><radialGradient
       id="paint0_radial_29_149-5"
       cx="0"
       cy="0"
       r="1"
       gradientUnits="userSpaceOnUse"
       gradientTransform="matrix(0,150,-150,0,-278.33746,-123.84153)"><stop
         stop-color="#80D2FF"
         id="stop17930-62" /><stop
         offset="1"
         stop-color="#2991C9"
         id="stop17932-9"
         style="stop-color:#0083d0;stop-opacity:1;" /></radialGradient><linearGradient
       id="a"
       x1="-240.47"
       x2="-240.47"
       y1="-60.605"
       y2="-29.026"
       gradientTransform="matrix(0.96667,0,0,0.95,262.45,67.575)"
       gradientUnits="userSpaceOnUse"><stop
         stop-color="#4285db"
         offset="0"
         id="stop13351" /><stop
         stop-color="#42b9db"
         offset="1"
         id="stop13353" /></linearGradient><linearGradient
       id="b"
       x1="10.583"
       x2="225.69"
       y1="-184.68"
       y2="-184.68"
       gradientTransform="matrix(0.11417,0,0,0.11417,18.557,59.5)"
       gradientUnits="userSpaceOnUse"><stop
         stop-color="#fafbfb"
         offset="0"
         id="stop13356" /><stop
         stop-color="#fafbfb"
         stop-opacity="0"
         offset="1"
         id="stop13358" /></linearGradient><linearGradient
       id="c"
       x1="520"
       x2="410"
       y1="-620"
       y2="-620"
       gradientTransform="matrix(0.0302,0,0,0.0302,18.557,59.5)"
       gradientUnits="userSpaceOnUse"><stop
         offset="0"
         id="stop13361" /><stop
         stop-opacity="0"
         offset="1"
         id="stop13363" /></linearGradient><linearGradient
       inkscape:collect="always"
       xlink:href="#a"
       id="linearGradient13451"
       gradientUnits="userSpaceOnUse"
       gradientTransform="matrix(0.24157274,0,0,0.23740687,69.589909,20.841854)"
       x1="-240.47"
       y1="-60.605"
       x2="-240.47"
       y2="-29.026" /><linearGradient
       inkscape:collect="always"
       xlink:href="#b"
       id="linearGradient13453"
       gradientUnits="userSpaceOnUse"
       gradientTransform="matrix(0.11417,0,0,0.11417,12.077766,102.05934)"
       x1="10.583"
       y1="-184.68"
       x2="225.69"
       y2="-184.68" /><linearGradient
       inkscape:collect="always"
       xlink:href="#c"
       id="linearGradient13455"
       gradientUnits="userSpaceOnUse"
       gradientTransform="matrix(0.0302,0,0,0.0302,12.077766,102.05934)"
       x1="520"
       y1="-620"
       x2="410"
       y2="-620" /></defs><sodipodi:namedview
     id="namedview13092"
     pagecolor="#ffffff"
     bordercolor="#000000"
     borderopacity="0.25"
     inkscape:showpageshadow="2"
     inkscape:pageopacity="0.0"
     inkscape:pagecheckerboard="0"
     inkscape:deskcolor="#d1d1d1"
     showgrid="false"
     inkscape:zoom="13.65625"
     inkscape:cx="-1.0983982"
     inkscape:cy="19.075515"
     inkscape:window-width="2560"
     inkscape:window-height="1000"
     inkscape:window-x="1680"
     inkscape:window-y="0"
     inkscape:window-maximized="1"
     inkscape:current-layer="svg13090" /><path
     d="m 9.5928809,1.1146315 c 0.119998,0 0.234668,-0.015999 0.344,-0.046667 1.4373331,-0.094667 2.8746671,-0.089333 4.3080001,0.010666 1.301333,0.1039999 2.561333,0.3853333 3.781333,0.8479999 2.025334,0.8333334 3.410667,2.2813331 4.161334,4.3386668 0.421333,1.24 0.676,2.516 0.754666,3.8226668 0.104,1.646666 0.068,3.286666 -0.114666,4.927999 -0.140001,1.150668 -0.437334,2.254668 -0.896001,3.317334 -0.849333,1.844 -2.229333,3.114667 -4.134667,3.812 -1.542666,0.521334 -3.130666,0.797333 -4.766666,0.824 -1.833333,0.09867 -3.6506661,-0.04267 -5.4520001,-0.412 -3.308,-0.734667 -5.354666,-2.754666 -6.125333,-6.057333 -0.328,-1.484 -0.47999998,-2.989333 -0.448,-4.510667 -0.036,-1.619999 0.134667,-3.2133328 0.516,-4.7866658 0.812,-3.0826666 2.770667,-4.9946667 5.874667,-5.7333334 0.723999,-0.1773333 1.458666,-0.2973333 2.197333,-0.3546663 z"
     style="fill:url(#radialGradient12763-3);fill-rule:evenodd;stroke:none;stroke-width:1.33333"
     id="path12765-6" /><path
     d="m 11.999999,13.730883 -2.307843,1.730882 c 0,2.018872 -0.2884804,2.018872 -1.7303913,2.884805 l 4.0382343,0.287989 4.038235,-0.288481 c -1.441911,-0.86495 -1.730391,-0.86495 -1.730391,-2.884804 z"
     fill="#b3b3b3"
     id="path13325"
     style="stroke-width:0.491449" /><path
     d="m 7.9617647,18.346078 v 0.576961 h 8.0769613 v -0.576961 z"
     fill="#cccccc"
     id="path13327"
     style="stroke-width:0.491449" /><rect
     x="4.4999995"
     y="5.4339404"
     width="15"
     height="10.036487"
     ry="1.1744531"
     fill="#303030"
     id="rect13329"
     style="stroke-width:0.483148"
     rx="1.1744531" /><rect
     x="4.7528424"
     y="5.7040462"
     width="14.494314"
     height="9.4962749"
     rx="0.99960792"
     ry="0.98236465"
     fill="url(#a)"
     id="rect13431"
     style="fill:url(#linearGradient13451);stroke-width:0.249902" /><g
     id="g14598"
     transform="matrix(0.24982807,0,0,0.24982807,5.6256214,-6.6704184)"><path
       d="m 18.119766,83.934342 14.5,-15.708 12.083,15.708 z"
       fill="#1a1a1a"
       id="path13433" /><path
       d="m 17.032766,74.387342 -19.0680003,12.246 c 0.694,0.57 1.57700005,0.926 2.55700005,0.926 H 37.845766 l -20.812,-13.172 z"
       fill="#e6e6e6"
       opacity="0.9"
       id="path13435" /><path
       d="m 13.286766,87.559342 3.746,-13.171 20.814,13.171 z"
       fill="#fafbfb"
       id="path13437" /><path
       d="m 32.620766,67.018342 -4.834,5.135 v 15.406 h 22.734 c 1.094,0 2.08,-0.43 2.8,-1.125 z"
       fill="#b0b2b5"
       id="path13439" /><path
       d="m 32.618766,67.016342 6.043,20.543 h 11.859 c 1.094,0 2.08,-0.43 2.8,-1.125 l -20.701,-19.418 z"
       fill="#ffffff"
       id="path13441" /><path
       d="m 13.286766,87.559342 3.746,-13.171 20.814,13.171 z"
       fill="url(#b)"
       id="path13443"
       style="fill:url(#linearGradient13453)" /><path
       d="m 26.577766,80.429342 v 7.13 h 1.208 v -6.365 z"
       fill="url(#c)"
       opacity="0.35"
       id="path13445"
       style="fill:url(#linearGradient13455)" /></g><g
     id="g19845"
     transform="translate(-0.21043098,0.23764942)"
     style="fill:#9a1927;fill-opacity:1"><path
       id="path19835"
       style="opacity:0.8;fill:#9a1927;fill-opacity:1;stroke-width:0.544493;stroke-linecap:round;stroke-linejoin:round;paint-order:stroke markers fill"
       d="m 9.9894882,7.2827556 c -0.394382,0 -0.7113262,0.3169442 -0.7113262,0.7113262 v 0.1055261 h 0.2823808 v -0.091847 c 0,-0.2452875 0.1963608,-0.4426248 0.4416482,-0.4426248 h 0.09282 V 7.2827556 Z m 4.3363548,0 v 0.2823808 h 0.09282 c 0.245287,0 0.441647,0.1973373 0.441647,0.4426248 v 0.091847 h 0.282381 V 7.9940818 c 0,-0.394382 -0.316943,-0.7113262 -0.711326,-0.7113262 z M 9.278162,12.330435 v 0.10455 c 0,0.394382 0.3169442,0.711326 0.7113262,0.711326 h 0.1055268 v -0.281404 h -0.09282 c -0.2452875,0 -0.4416483,-0.197337 -0.4416483,-0.442624 v -0.09185 z m 5.582152,0 v 0.09185 c 0,0.245287 -0.19636,0.442624 -0.441647,0.442624 h -0.09282 v 0.281404 h 0.105526 c 0.394383,0 0.711326,-0.316944 0.711326,-0.711326 v -0.10455 z" /><path
       id="path19837"
       style="opacity:0.8;fill:#9a1927;fill-opacity:1;stroke-width:0.394825;stroke-linecap:round;stroke-linejoin:round;paint-order:stroke markers fill"
       d="m 10.600284,8.088766 c -0.285975,0 -0.515894,0.2299191 -0.515894,0.5158944 V 11.82495 c 0,0.285975 0.229919,0.515894 0.515894,0.515894 h 3.22029 c 0.285976,0 0.515894,-0.229919 0.515894,-0.515894 V 8.6046604 c 0,-0.2859753 -0.229918,-0.5158944 -0.515894,-0.5158944 z m 0.0093,0.2043527 h 3.201783 c 0.177863,0 0.320795,0.143703 0.320795,0.3215662 v 3.2010111 c 0,0.177863 -0.142932,0.320795 -0.320795,0.320795 h -3.201783 c -0.177863,0 -0.320795,-0.142932 -0.320795,-0.320795 V 8.6146849 c 0,-0.1778632 0.142932,-0.3215662 0.320795,-0.3215662 z" /></g></svg>
