<?xml version="1.0" encoding="UTF-8" standalone="no"?>
<svg
   width="24"
   height="24"
   version="1.1"
   id="svg36227"
   sodipodi:docname="smartphone.svg"
   inkscape:version="1.2.2 (b0a8486541, 2022-12-01)"
   inkscape:export-filename="preferences-kde-connect.svg"
   inkscape:export-xdpi="800"
   inkscape:export-ydpi="800"
   xml:space="preserve"
   xmlns:inkscape="http://www.inkscape.org/namespaces/inkscape"
   xmlns:sodipodi="http://sodipodi.sourceforge.net/DTD/sodipodi-0.dtd"
   xmlns="http://www.w3.org/2000/svg"
   xmlns:svg="http://www.w3.org/2000/svg"><defs
     id="defs36231"><linearGradient
       id="paint0_linear_3_29"
       x1="12"
       y1="0"
       x2="12"
       y2="12"
       gradientUnits="userSpaceOnUse"
       gradientTransform="matrix(0.91666681,0,0,0.91666681,0.99999433,0.99999836)"><stop
         stop-color="white"
         id="stop36440" /><stop
         offset="1"
         stop-color="#D9D9D9"
         id="stop36442" /></linearGradient><clipPath
       id="clip0_3_29"><rect
         width="20"
         height="11.6875"
         fill="#ffffff"
         transform="translate(2,6.835)"
         id="rect36445"
         x="0"
         y="0" /></clipPath></defs><sodipodi:namedview
     id="namedview36229"
     pagecolor="#ffffff"
     bordercolor="#000000"
     borderopacity="0.25"
     inkscape:showpageshadow="2"
     inkscape:pageopacity="0.0"
     inkscape:pagecheckerboard="0"
     inkscape:deskcolor="#d1d1d1"
     showgrid="false"
     inkscape:zoom="22.627417"
     inkscape:cx="-4.2205436"
     inkscape:cy="9.0819027"
     inkscape:window-width="2560"
     inkscape:window-height="1000"
     inkscape:window-x="1680"
     inkscape:window-y="0"
     inkscape:window-maximized="1"
     inkscape:current-layer="svg36227" /><path
     fill-rule="evenodd"
     clip-rule="evenodd"
     d="m 9.5960374,1.1135864 c 0.119845,0.00128 0.2343917,-0.013988 0.3436492,-0.045797 1.4357844,-0.0940546 2.8714674,-0.0902367 4.3070594,0.011449 1.301667,0.1014218 2.561721,0.3838441 3.780154,0.8472623 2.025651,0.8339376 3.411651,2.280392 4.158093,4.339354 0.426891,1.239636 0.678975,2.514352 0.756066,3.8241223 0.1067,1.644739 0.06857,3.285847 -0.114583,4.923288 -0.137042,1.150876 -0.434867,2.25766 -0.893475,3.320352 -0.850575,1.8425 -2.228967,3.113367 -4.135176,3.812691 -1.544679,0.52195 -3.133171,0.796675 -4.765296,0.824359 -1.8359,0.09542 -3.6534025,-0.04198 -5.4525628,-0.412224 C 4.2683882,21.820801 2.2255779,19.801842 1.4515719,16.501659 1.1231082,15.016108 0.97419382,13.512408 1.0048288,11.990557 0.96817132,10.372366 1.139995,8.7770905 1.5203008,7.2047145 2.3317096,4.1190765 4.2904982,2.2070104 7.3966879,1.4685216 8.1204788,1.2915701 8.8535923,1.1732577 9.5960374,1.1135864 Z"
     fill="url(#paint0_linear_3_29)"
     id="path36350"
     style="fill:url(#paint0_linear_3_29);stroke-width:0.916667" /><rect
     x="7.0363259"
     y="3.313566"
     width="9.9273577"
     height="17.372875"
     rx="0.62045985"
     ry="0.62045985"
     fill="#35373a"
     id="rect36215"
     style="stroke-width:0.31023" /><rect
     x="7.6567812"
     y="5.1749454"
     width="8.6864376"
     height="13.650117"
     rx="0.31022993"
     ry="0.31022993"
     fill="#ffffff"
     opacity="0.2"
     id="rect36217"
     style="stroke-width:0.31023" /><rect
     x="10.138625"
     y="3.9340258"
     width="3.7227592"
     height="0.62045985"
     rx="0.31022993"
     ry="0.31022993"
     fill="#212324"
     id="rect36219"
     style="stroke-width:0.31023" /><g
     id="g12081"
     transform="translate(-0.00915337)"><circle
       style="fill:#2e8bc8;fill-opacity:1;stroke:none;stroke-width:1.11429;stroke-linecap:round;stroke-linejoin:round;stroke-opacity:0.15;paint-order:stroke fill markers"
       id="path2014"
       cx="8.6590385"
       cy="17.739132"
       r="0.71395886" /><circle
       style="fill:#f7326e;fill-opacity:1;stroke:none;stroke-width:1.11429;stroke-linecap:round;stroke-linejoin:round;stroke-opacity:0.15;paint-order:stroke fill markers"
       id="circle2483"
       cx="10.334096"
       cy="17.739132"
       r="0.71395886" /><circle
       style="fill:#c0c1c2;fill-opacity:1;stroke:none;stroke-width:1.11429;stroke-linecap:round;stroke-linejoin:round;stroke-opacity:0.15;paint-order:stroke fill markers"
       id="circle2485"
       cx="12.009153"
       cy="17.739132"
       r="0.71395886" /><circle
       style="fill:#d14132;fill-opacity:1;stroke:none;stroke-width:1.11429;stroke-linecap:round;stroke-linejoin:round;stroke-opacity:0.15;paint-order:stroke fill markers"
       id="circle2487"
       cx="13.684211"
       cy="17.739132"
       r="0.71395886" /><circle
       style="fill:#29ba66;fill-opacity:1;stroke:none;stroke-width:1.11429;stroke-linecap:round;stroke-linejoin:round;stroke-opacity:0.15;paint-order:stroke fill markers"
       id="circle2489"
       cx="15.359268"
       cy="17.739132"
       r="0.71395886" /></g><g
     id="g12074"
     transform="translate(0.01144084)"><rect
       style="fill:#c0c1c2;fill-opacity:1;stroke:none;stroke-linecap:round;stroke-linejoin:round;stroke-opacity:0.15;paint-order:stroke fill markers"
       id="rect11444"
       width="0.54919893"
       height="0.54919893"
       x="8.0183067"
       y="5.528604"
       rx="0.27459946"
       ry="0.036613192" /><rect
       style="fill:#c0c1c2;fill-opacity:1;stroke:none;stroke-linecap:round;stroke-linejoin:round;stroke-opacity:0.15;paint-order:stroke fill markers"
       id="rect12067"
       width="0.54919893"
       height="0.54919893"
       x="14.421053"
       y="5.528604"
       rx="0.27459946"
       ry="0.036613192" /><rect
       style="fill:#c0c1c2;fill-opacity:1;stroke:none;stroke-linecap:round;stroke-linejoin:round;stroke-opacity:0.15;paint-order:stroke fill markers"
       id="rect12069"
       width="0.54919893"
       height="0.54919893"
       x="15.409613"
       y="5.528604"
       rx="0.27459946"
       ry="0.036613192" /></g></svg>
