<?xml version="1.0" encoding="UTF-8" standalone="no"?>
<!-- Created with Inkscape (http://www.inkscape.org/) -->

<svg
   width="24"
   height="24"
   viewBox="0 0 6.35 6.3499999"
   version="1.1"
   id="svg3886"
   xml:space="preserve"
   inkscape:version="1.2.2 (b0a8486541, 2022-12-01)"
   sodipodi:docname="system-run.svg"
   inkscape:export-filename="system-run.svg"
   inkscape:export-xdpi="512"
   inkscape:export-ydpi="512"
   xmlns:inkscape="http://www.inkscape.org/namespaces/inkscape"
   xmlns:sodipodi="http://sodipodi.sourceforge.net/DTD/sodipodi-0.dtd"
   xmlns="http://www.w3.org/2000/svg"
   xmlns:svg="http://www.w3.org/2000/svg"><sodipodi:namedview
     id="namedview3888"
     pagecolor="#ffffff"
     bordercolor="#666666"
     borderopacity="1.0"
     inkscape:showpageshadow="2"
     inkscape:pageopacity="0.0"
     inkscape:pagecheckerboard="0"
     inkscape:deskcolor="#d1d1d1"
     inkscape:document-units="mm"
     showgrid="false"
     inkscape:zoom="8.0899045"
     inkscape:cx="-41.038804"
     inkscape:cy="25.27842"
     inkscape:window-width="2560"
     inkscape:window-height="1000"
     inkscape:window-x="1680"
     inkscape:window-y="0"
     inkscape:window-maximized="1"
     inkscape:current-layer="svg3886" /><defs
     id="defs3883"><style
       id="style4619">.cls-1{fill:#069;}.cls-2{fill:#2991c9;}.cls-3{fill:#fff;}.cls-4{fill:#002a44;}.cls-5{fill:#3380cc;}.cls-6{fill:#cc5e55;}</style><radialGradient
       id="paint0_radial_2_129"
       cx="0"
       cy="0"
       r="1"
       gradientUnits="userSpaceOnUse"
       gradientTransform="matrix(0,5.8208333,-5.8208333,0,3.174998,0.264596)"><stop
         stop-color="#FAFAFA"
         id="stop8838" /><stop
         offset="1"
         stop-color="#B0B0B0"
         id="stop8840" /></radialGradient><radialGradient
       id="paint0_radial_29_149"
       cx="0"
       cy="0"
       r="1"
       gradientUnits="userSpaceOnUse"
       gradientTransform="matrix(0,8.4664974,-8.4665063,0,26.659556,4.6030627)"><stop
         stop-color="#80D2FF"
         id="stop17930" /><stop
         offset="1"
         stop-color="#2991C9"
         id="stop17932"
         style="stop-color:#002a43;stop-opacity:1;" /></radialGradient><radialGradient
       id="paint0_radial_29_23"
       cx="0"
       cy="0"
       r="1"
       gradientUnits="userSpaceOnUse"
       gradientTransform="matrix(0,22,-22,0,12,1)"><stop
         stop-color="#8FC8FF"
         id="stop6475" /><stop
         offset="1"
         stop-color="#0056A8"
         id="stop6477" /></radialGradient><radialGradient
       id="paint0_radial_1_40"
       cx="0"
       cy="0"
       r="1"
       gradientUnits="userSpaceOnUse"
       gradientTransform="matrix(0,6.3498749,-6.3498749,0,-13.042008,2.1679009)"><stop
         stop-color="#C2E5FF"
         id="stop7711" /><stop
         offset="1"
         stop-color="#3276AA"
         id="stop7713" /></radialGradient><radialGradient
       fx="0"
       fy="0"
       cx="0"
       cy="0"
       r="1"
       gradientUnits="userSpaceOnUse"
       gradientTransform="matrix(0,16.5,-16.5,0,8.999994,0.750036)"
       spreadMethod="pad"
       id="radialGradient77554"><stop
         style="stop-opacity:1;stop-color:#fafafa"
         offset="0"
         id="stop77550" /><stop
         style="stop-opacity:1;stop-color:#b0b0b0"
         offset="1"
         id="stop77552" /></radialGradient><clipPath
       clipPathUnits="userSpaceOnUse"
       id="clipPath77564"><path
         d="M 0,0 H 19 V 19 H 0 Z"
         id="path77562" /></clipPath><radialGradient
       fx="0"
       fy="0"
       cx="0"
       cy="0"
       r="1"
       gradientUnits="userSpaceOnUse"
       gradientTransform="matrix(0,16.5,-16.5,0,8.999994,0.750036)"
       spreadMethod="pad"
       id="radialGradient77554-8"><stop
         style="stop-opacity:1;stop-color:#fafafa"
         offset="0"
         id="stop77550-1" /><stop
         style="stop-opacity:1;stop-color:#b0b0b0"
         offset="1"
         id="stop77552-2" /></radialGradient><clipPath
       clipPathUnits="userSpaceOnUse"
       id="clipPath77564-9"><path
         d="M 0,0 H 19 V 19 H 0 Z"
         id="path77562-3" /></clipPath><linearGradient
       id="paint0_linear_3_200"
       x1="11.9997"
       y1="0.99970198"
       x2="12"
       y2="12"
       gradientUnits="userSpaceOnUse"><stop
         stop-color="#FFD996"
         id="stop14"
         offset="0"
         style="stop-color:#a4fcc0;stop-opacity:1;" /><stop
         offset="1"
         stop-color="#FFB32B"
         id="stop16"
         style="stop-color:#6cce86;stop-opacity:1;" /></linearGradient><linearGradient
       x1="11.9997"
       y1="0.99970198"
       x2="12"
       y2="12"
       gradientUnits="userSpaceOnUse"
       gradientTransform="scale(0.75)"
       spreadMethod="pad"
       id="linearGradient5149"><stop
         style="stop-opacity:1;stop-color:#a4fcc0"
         offset="0"
         id="stop5145" /><stop
         style="stop-opacity:1;stop-color:#6cce86"
         offset="1"
         id="stop5147" /></linearGradient><clipPath
       clipPathUnits="userSpaceOnUse"
       id="clipPath5161"><path
         d="M 0,0 H 19 V 19 H 0 Z"
         id="path5159" /></clipPath><clipPath
       clipPathUnits="userSpaceOnUse"
       id="clipPath5161-7"><path
         d="M 0,0 H 19 V 19 H 0 Z"
         id="path5159-5" /></clipPath></defs><g
     inkscape:label="Camada 1"
     inkscape:groupmode="layer"
     id="layer1" /><g
     id="g77540"
     transform="matrix(0.35277777,0,0,0.35277776,-1.196686e-4,-9.1908352e-6)"><g
       id="g77542"><g
         id="g77548"><path
           d="M 7.453,0.801 C 7.371,0.824 7.285,0.836 7.195,0.836 6.641,0.879 6.09,0.969 5.547,1.102 3.219,1.656 1.75,3.09 1.141,5.402 0.855,6.582 0.727,7.781 0.754,8.992 c -0.024,1.141 0.09,2.27 0.336,3.383 0.578,2.477 2.113,3.992 4.594,4.543 1.351,0.277 2.714,0.383 4.089,0.309 1.227,-0.02 2.418,-0.227 3.575,-0.618 1.429,-0.523 2.464,-1.476 3.101,-2.859 0.344,-0.797 0.567,-1.625 0.672,-2.488 0.137,-1.231 0.164,-2.461 0.086,-3.696 C 17.148,6.586 16.957,5.629 16.641,4.699 16.078,3.156 15.039,2.07 13.52,1.445 12.605,1.098 11.66,0.887 10.684,0.809 9.609,0.734 8.531,0.73 7.453,0.801 Z"
           style="fill:url(#radialGradient77554-8);fill-rule:evenodd;stroke:none"
           id="path77556" /></g></g></g><g
     id="g43389"
     transform="matrix(0.80776582,0,0,0.80776582,37.303773,3.1156683)"
     style="stroke:#000000;stroke-width:0.308282;stroke-linecap:round;stroke-linejoin:round;stroke-dasharray:none;stroke-opacity:0.03;paint-order:stroke markers fill"><path
       d="m -40.111363,-0.96571998 c 0.0422,-0.001394 0.0844,0.005576 0.12381,0.021623 0.03976,0.0149963 0.07638,0.0397591 0.106372,0.0683567 0.03139,0.0299936 0.0544,0.0652189 0.0722,0.10497705 0.01639,0.0394101 0.02441,0.0816101 0.02441,0.12381014 V 0.8310959 c 0,0.2451789 -0.266803,0.3993312 -0.479546,0.2765674 l -1.279256,-0.73832696 c -0.04883,-0.0285986 -0.08858,-0.0680087 -0.117183,-0.11718366 -0.02721,-0.0488267 -0.0422,-0.10358201 -0.0422,-0.15938373 0,-0.05719724 0.015,-0.11160352 0.0422,-0.16077885 0.0286,-0.04882665 0.06835,-0.08858474 0.117183,-0.11718366 l 1.279255,-0.73832635 c 0.04639,-0.0272037 0.098,-0.040805 0.152757,-0.0422001 z"
       style="opacity:1;fill:#35e298;fill-opacity:1;fill-rule:evenodd;stroke:#000000;stroke-width:0.308282;stroke-linecap:round;stroke-linejoin:round;stroke-dasharray:none;stroke-opacity:0.03;paint-order:stroke markers fill"
       id="path42968" /><circle
       style="opacity:1;fill:#35e298;fill-opacity:1;stroke:#000000;stroke-width:0.308282;stroke-linecap:round;stroke-linejoin:round;stroke-dasharray:none;stroke-opacity:0.03;paint-order:stroke markers fill"
       id="path43022"
       cx="-43.658749"
       cy="0.056576863"
       r="1.0583333" /></g></svg>
