<?xml version="1.0" encoding="UTF-8" standalone="no"?>
<svg
   width="24"
   height="24"
   viewBox="0 0 24 24"
   fill="none"
   version="1.1"
   id="svg5996"
   sodipodi:docname="system-log-out.svg"
   inkscape:version="1.2.2 (b0a8486541, 2022-12-01)"
   xmlns:inkscape="http://www.inkscape.org/namespaces/inkscape"
   xmlns:sodipodi="http://sodipodi.sourceforge.net/DTD/sodipodi-0.dtd"
   xmlns="http://www.w3.org/2000/svg"
   xmlns:svg="http://www.w3.org/2000/svg">
  <sodipodi:namedview
     id="namedview5998"
     pagecolor="#ffffff"
     bordercolor="#000000"
     borderopacity="0.25"
     inkscape:showpageshadow="2"
     inkscape:pageopacity="0.0"
     inkscape:pagecheckerboard="0"
     inkscape:deskcolor="#d1d1d1"
     showgrid="false"
     inkscape:zoom="12.875236"
     inkscape:cx="-9.5920572"
     inkscape:cy="13.863824"
     inkscape:window-width="2560"
     inkscape:window-height="1000"
     inkscape:window-x="1680"
     inkscape:window-y="0"
     inkscape:window-maximized="1"
     inkscape:current-layer="svg5996" />
  <g
     id="g6120"
     transform="matrix(0.9166668,0,0,0.9166668,0.99999537,0.99999822)">
    <path
       fill-rule="evenodd"
       clip-rule="evenodd"
       d="M 9.3775,0.123917 C 9.50824,0.125309 9.6332,0.108654 9.75239,0.0739559 11.3187,-0.0286497 12.8849,-0.0244879 14.451,0.0864463 c 1.42,0.1106417 2.7946,0.4187387 4.1238,0.9242837 2.2098,0.90975 3.7218,2.4877 4.5361,4.73384 0.4658,1.35233 0.7407,2.74293 0.8248,4.17178 0.1164,1.79425 0.0748,3.58455 -0.125,5.37085 -0.1494,1.2555 -0.4744,2.4629 -0.9747,3.6222 -0.9279,2.01 -2.4316,3.3964 -4.5111,4.1593 -1.6851,0.5694 -3.418,0.8691 -5.1985,0.8993 C 11.1236,24.0721 9.14087,23.9222 7.17815,23.5183 3.56552,22.7136 1.33701,20.5111 0.492632,16.9109 0.134308,15.2903 -0.0281444,13.6499 0.00527567,11.9897 -0.034715,10.2244 0.15273,8.4841 0.567609,6.76878 1.45278,3.40263 3.58964,1.31674 6.97821,0.511118 7.7678,0.31808 8.56757,0.189012 9.3775,0.123917 Z"
       fill="url(#paint0_radial_1_27)"
       id="path5983"
       style="fill:url(#paint0_radial_1_27)" />
    <path
       d="M 17.1006,16.6011 C 17.0785,16.4035 16.9789,16.2228 16.8237,16.0986 16.7468,16.037 16.6585,15.9912 16.5638,15.9637 16.4692,15.9363 16.37,15.9278 16.2721,15.9386 c -0.098,0.0109 -0.1928,0.041 -0.2791,0.0886 -0.0863,0.0475 -0.1624,0.1116 -0.224,0.1886 -1.2807,1.6015 -3.2184,2.5335 -5.269,2.5342 -3.73681,0 -6.75001,-3.0132 -6.75001,-6.75 0,-3.73679 3.0132,-6.74999 6.75001,-6.74999 2.0482,0.00525 3.9817,0.94008 5.2588,2.5415 0.0614,0.07709 0.1374,0.14132 0.2237,0.18902 0.0863,0.04769 0.1811,0.07792 0.279,0.08894 0.098,0.01102 0.1972,0.00262 0.2919,-0.02471 0.0947,-0.02733 0.1831,-0.07307 0.2601,-0.13459 0.1552,-0.12402 0.255,-0.30459 0.2772,-0.50207 0.0222,-0.19747 -0.0348,-0.3957 -0.1586,-0.55116 -1.5604,-1.9568 -3.9264,-3.10056 -6.4292,-3.10693 -0.001,0 -0.0019,0 -0.0029,0 -4.54746,0 -8.25,3.70254 -8.25,8.24999 0,4.5475 3.70254,8.25 8.25,8.25 5e-4,0 10e-4,0 0.0015,0 2.5051,-7e-4 4.8749,-1.1403 6.4395,-3.0967 0.0616,-0.077 0.1074,-0.1654 0.1348,-0.2602 0.0274,-0.0947 0.0358,-0.194 0.0248,-0.292 z"
       fill="#fafafa"
       id="path5985" />
    <path
       d="m 18.8027,9.06304 c -0.0986,2.1e-4 -0.1961,0.01986 -0.2871,0.05781 -0.091,0.03796 -0.1736,0.09348 -0.2431,0.16339 -0.1403,0.14103 -0.2187,0.33199 -0.2182,0.53088 6e-4,0.19888 0.0801,0.38938 0.2211,0.52968 l 0.9097,0.9053 H 12 c -0.1989,0 -0.3897,0.079 -0.5303,0.2196 -0.1407,0.1407 -0.2197,0.3314 -0.2197,0.5304 0,0.1989 0.079,0.3896 0.2197,0.5303 0.1406,0.1406 0.3314,0.2197 0.5303,0.2197 h 7.1851 l -0.9097,0.9052 c -0.141,0.1403 -0.2205,0.3308 -0.2211,0.5297 -5e-4,0.1989 0.0779,0.3898 0.2182,0.5309 0.1402,0.141 0.3307,0.2205 0.5296,0.2211 0.1989,6e-4 0.3899,-0.0779 0.5309,-0.2181 l 2.1958,-2.187 c 0.0283,-0.0282 0.0542,-0.0586 0.0777,-0.0909 0.0455,-0.0625 0.081,-0.1316 0.1054,-0.205 5e-4,-0.0015 0.001,-0.003 0.0015,-0.0045 5e-4,-0.002 0.001,-0.004 0.0015,-0.006 0.0231,-0.0729 0.035,-0.149 0.0351,-0.2254 0,-0.022 -0.001,-0.044 -0.0029,-0.066 -5e-4,-0.002 -0.001,-0.004 -0.0015,-0.006 -0.0012,-0.0117 -0.0027,-0.0235 -0.0044,-0.0351 -0.0021,-0.0138 -0.0046,-0.0275 -0.0074,-0.0411 -0.0022,-0.0117 -0.0046,-0.0235 -0.0073,-0.0351 -0.001,-0.0039 -0.002,-0.0078 -0.003,-0.0117 -0.0047,-0.0178 -0.0101,-0.0354 -0.0161,-0.0528 -0.0093,-0.0264 -0.02,-0.0523 -0.0322,-0.0776 -0.0102,-0.0215 -0.0215,-0.0425 -0.0337,-0.063 -0.0019,-0.0034 -0.0039,-0.0069 -0.0059,-0.0103 -0.0033,-0.0049 -0.0067,-0.0098 -0.0102,-0.0146 -0.0098,-0.0145 -0.02,-0.0287 -0.0308,-0.0424 -0.0029,-0.004 -0.0058,-0.0079 -0.0088,-0.0118 -0.0043,-0.0054 -0.0087,-0.0108 -0.0131,-0.0161 -0.0135,-0.0162 -0.0277,-0.0318 -0.0425,-0.0469 -5e-4,-5e-4 -0.001,-10e-4 -0.0015,-0.0015 L 19.3329,9.2826 C 19.1922,9.14194 19.0016,9.06307 18.8027,9.06304 Z"
       fill="#fafafa"
       id="path5987" />
  </g>
  <defs
     id="defs5994">
    <radialGradient
       id="paint0_radial_1_27"
       cx="0"
       cy="0"
       r="1"
       gradientUnits="userSpaceOnUse"
       gradientTransform="matrix(0,24,-24,0,12,0)">
      <stop
         stop-color="#9BDF6C"
         id="stop5989" />
      <stop
         offset="1"
         stop-color="#204705"
         id="stop5991" />
    </radialGradient>
  </defs>
</svg>
