<?xml version="1.0" encoding="UTF-8" standalone="no"?>
<svg
   width="24"
   height="24"
   viewBox="0 0 6.349875 6.349875"
   version="1.1"
   id="svg38577"
   sodipodi:docname="timeshift.svg"
   xml:space="preserve"
   inkscape:version="1.2.2 (b0a8486541, 2022-12-01)"
   inkscape:export-filename="timeshift.svg"
   inkscape:export-xdpi="512"
   inkscape:export-ydpi="512"
   xmlns:inkscape="http://www.inkscape.org/namespaces/inkscape"
   xmlns:sodipodi="http://sodipodi.sourceforge.net/DTD/sodipodi-0.dtd"
   xmlns="http://www.w3.org/2000/svg"
   xmlns:svg="http://www.w3.org/2000/svg"><defs
     id="defs38581"><radialGradient
       id="paint0_radial_2_194"
       cx="0"
       cy="0"
       r="1"
       gradientUnits="userSpaceOnUse"
       gradientTransform="matrix(0,5.8207157,-5.8207157,0,3.1749375,0.26458845)"><stop
         stop-color="white"
         id="stop38706" /><stop
         offset="1"
         stop-color="#BEBEBE"
         id="stop38708" /></radialGradient><radialGradient
       id="paint1_radial_2_194"
       cx="0"
       cy="0"
       r="1"
       gradientUnits="userSpaceOnUse"
       gradientTransform="matrix(0,2.910358,-2.910358,0,3.1749347,0.26458351)"><stop
         stop-color="#C50110"
         id="stop38711"
         offset="0"
         style="stop-color:#ff5151;stop-opacity:1;" /><stop
         offset="1"
         stop-color="#7B0619"
         id="stop38713"
         style="stop-color:#cb4141;stop-opacity:1;" /></radialGradient><radialGradient
       id="paint2_radial_2_194"
       cx="0"
       cy="0"
       r="1"
       gradientUnits="userSpaceOnUse"
       gradientTransform="matrix(0,23.334927,-21.776684,0,-21.920227,-0.0429884)"><stop
         stop-color="#6DD4FF"
         id="stop38716" /><stop
         offset="1"
         stop-color="#0076D4"
         id="stop38718" /></radialGradient><radialGradient
       fx="0"
       fy="0"
       cx="0"
       cy="0"
       r="1"
       gradientUnits="userSpaceOnUse"
       gradientTransform="matrix(0,16.499991,-16.499991,0,9,0.750029)"
       spreadMethod="pad"
       id="radialGradient41211"><stop
         style="stop-opacity:1;stop-color:#ffffff"
         offset="0"
         id="stop41207" /><stop
         style="stop-opacity:1;stop-color:#bebebe"
         offset="1"
         id="stop41209" /></radialGradient><radialGradient
       fx="0"
       fy="0"
       cx="0"
       cy="0"
       r="1"
       gradientUnits="userSpaceOnUse"
       gradientTransform="matrix(0,8.249996,-8.249996,0,8.999992,0.750015)"
       spreadMethod="pad"
       id="radialGradient41229"><stop
         style="stop-opacity:1;stop-color:#ff5151"
         offset="0"
         id="stop41225" /><stop
         style="stop-opacity:1;stop-color:#cb4141"
         offset="1"
         id="stop41227" /></radialGradient><clipPath
       clipPathUnits="userSpaceOnUse"
       id="clipPath41239"><path
         d="M 0,0 H 49 V 49 H 0 Z"
         id="path41237" /></clipPath><clipPath
       clipPathUnits="userSpaceOnUse"
       id="clipPath41255"><path
         d="M 0,0 H 49 V 49 H 0 Z"
         id="path41253" /></clipPath><clipPath
       clipPathUnits="userSpaceOnUse"
       id="clipPath41275"><path
         d="M 0,0 H 49 V 49 H 0 Z"
         id="path41273" /></clipPath><clipPath
       clipPathUnits="userSpaceOnUse"
       id="clipPath41291"><path
         d="M 0,0 H 49 V 49 H 0 Z"
         id="path41289" /></clipPath><radialGradient
       fx="0"
       fy="0"
       cx="0"
       cy="0"
       r="1"
       gradientUnits="userSpaceOnUse"
       gradientTransform="matrix(0,16.499991,-16.499991,0,9,0.750029)"
       spreadMethod="pad"
       id="radialGradient41211-7"><stop
         style="stop-opacity:1;stop-color:#ffffff"
         offset="0"
         id="stop41207-8" /><stop
         style="stop-opacity:1;stop-color:#bebebe"
         offset="1"
         id="stop41209-4" /></radialGradient><radialGradient
       fx="0"
       fy="0"
       cx="0"
       cy="0"
       r="1"
       gradientUnits="userSpaceOnUse"
       gradientTransform="matrix(0,8.249996,-8.249996,0,8.999992,0.750015)"
       spreadMethod="pad"
       id="radialGradient41229-5"><stop
         style="stop-opacity:1;stop-color:#ff5151"
         offset="0"
         id="stop41225-0" /><stop
         style="stop-opacity:1;stop-color:#cb4141"
         offset="1"
         id="stop41227-3" /></radialGradient><clipPath
       clipPathUnits="userSpaceOnUse"
       id="clipPath41239-6"><path
         d="M 0,0 H 49 V 49 H 0 Z"
         id="path41237-1" /></clipPath><clipPath
       clipPathUnits="userSpaceOnUse"
       id="clipPath41255-0"><path
         d="M 0,0 H 49 V 49 H 0 Z"
         id="path41253-6" /></clipPath><clipPath
       clipPathUnits="userSpaceOnUse"
       id="clipPath41275-3"><path
         d="M 0,0 H 49 V 49 H 0 Z"
         id="path41273-2" /></clipPath><clipPath
       clipPathUnits="userSpaceOnUse"
       id="clipPath41291-0"><path
         d="M 0,0 H 49 V 49 H 0 Z"
         id="path41289-6" /></clipPath></defs><sodipodi:namedview
     id="namedview38579"
     pagecolor="#ffffff"
     bordercolor="#000000"
     borderopacity="0.25"
     inkscape:showpageshadow="2"
     inkscape:pageopacity="0.0"
     inkscape:pagecheckerboard="0"
     inkscape:deskcolor="#d1d1d1"
     showgrid="false"
     inkscape:zoom="6.828125"
     inkscape:cx="-48.842105"
     inkscape:cy="40.494279"
     inkscape:window-width="2560"
     inkscape:window-height="1000"
     inkscape:window-x="1680"
     inkscape:window-y="0"
     inkscape:window-maximized="1"
     inkscape:current-layer="svg38577" /><g
     id="g41195"
     transform="matrix(0.35277082,0,0,0.35277082,-1.1961624e-4,-9.2306512e-6)"><g
       id="g41197"><g
         id="g41199"><g
           id="g41205"><path
             d="m 7.195,0.836 c 0.09,0 0.176,-0.012 0.258,-0.035 1.078,-0.071 2.156,-0.067 3.231,0.008 0.976,0.078 1.921,0.289 2.836,0.636 1.519,0.625 2.558,1.711 3.121,3.254 0.316,0.93 0.507,1.887 0.566,2.867 0.078,1.235 0.051,2.465 -0.086,3.696 -0.105,0.863 -0.328,1.691 -0.672,2.488 -0.637,1.383 -1.672,2.336 -3.101,2.859 C 12.191,17 11,17.207 9.773,17.227 8.398,17.301 7.035,17.195 5.684,16.918 3.203,16.367 1.668,14.852 1.09,12.375 0.844,11.262 0.73,10.133 0.754,8.992 0.727,7.781 0.855,6.582 1.141,5.402 1.75,3.09 3.219,1.656 5.547,1.102 6.09,0.969 6.641,0.879 7.195,0.836 Z"
             style="fill:url(#radialGradient41211-7);fill-rule:evenodd;stroke:none"
             id="path41213" /></g></g></g><g
       id="g41215"><g
         id="g41217"><g
           id="g41223"><path
             d="m 7.195,0.836 c 0.09,0 0.176,-0.012 0.258,-0.035 1.078,-0.071 2.156,-0.067 3.231,0.008 0.976,0.078 1.921,0.289 2.836,0.636 1.519,0.625 2.558,1.711 3.121,3.254 0.316,0.93 0.507,1.887 0.566,2.867 0.078,1.235 0.051,2.465 -0.086,3.696 -0.105,0.863 -0.328,1.691 -0.672,2.488 -0.637,1.383 -1.672,2.336 -3.101,2.859 C 12.191,17 11,17.207 9.773,17.227 8.398,17.301 7.035,17.195 5.684,16.918 3.203,16.367 1.668,14.852 1.09,12.375 0.844,11.262 0.73,10.133 0.754,8.992 0.727,7.781 0.855,6.582 1.141,5.402 1.75,3.09 3.219,1.656 5.547,1.102 6.09,0.969 6.641,0.879 7.195,0.836 Z"
             style="fill:url(#radialGradient41229-5);fill-rule:evenodd;stroke:none"
             id="path41231" /></g></g></g><g
       id="g41233"><g
         id="g41235" /><g
         id="g41247"><g
           clip-path="url(#clipPath41239-6)"
           opacity="0.15"
           id="g41245"><g
             id="g41243"><path
               d="m 14.984,9 c 0,3.305 -2.679,5.984 -5.984,5.984 C 5.695,14.984 3.016,12.305 3.016,9 3.016,5.695 5.695,3.016 9,3.016 c 3.305,0 5.984,2.679 5.984,5.984 z"
               style="fill:#000000;fill-opacity:1;fill-rule:nonzero;stroke:none"
               id="path41241" /></g></g></g></g><g
       id="g41249"><g
         id="g41251" /><g
         id="g41263"><g
           clip-path="url(#clipPath41255-0)"
           opacity="0.5"
           id="g41261"><g
             id="g41259"><path
               d="m 4.105,9.004 c 0,2.703 2.192,4.894 4.895,4.894 0.164,-0.203 0.164,-0.421 0,-0.652 -2.344,0 -4.246,-1.898 -4.242,-4.242 z"
               style="fill:#ffffff;fill-opacity:1;fill-rule:nonzero;stroke:none"
               id="path41257" /></g></g></g></g><path
       d="m 9,4.105 c -2.703,0 -4.898,2.192 -4.895,4.899 H 4.758 C 4.758,6.66 6.656,4.762 9,4.762 c 2.344,0 4.242,1.898 4.242,4.242 0,2.344 -1.898,4.242 -4.242,4.242 v 0.652 c 2.703,0 4.895,-2.191 4.895,-4.894 C 13.895,6.301 11.703,4.109 9,4.109"
       style="fill:#ffffff;fill-opacity:1;fill-rule:nonzero;stroke:none"
       id="path41265" /><path
       d="m 4.285,7.699 c -0.117,0.422 -0.18,0.863 -0.18,1.305 0,0.57 0.102,1.137 0.297,1.676 L 6.391,7.699 H 4.285"
       style="fill:#ffffff;fill-opacity:1;fill-rule:nonzero;stroke:none"
       id="path41267" /><g
       id="g41269"><g
         id="g41271" /><g
         id="g41283"><g
           clip-path="url(#clipPath41275-3)"
           opacity="0.9"
           id="g41281"><g
             id="g41279"><path
               d="m 9,5.742 c 0.148,0 0.27,0.121 0.27,0.27 V 8.734 C 9.27,8.883 9.148,9.004 9,9.004 8.848,9.004 8.727,8.883 8.727,8.734 V 6.012 C 8.727,5.863 8.848,5.742 9,5.742 Z"
               style="fill:#ffffff;fill-opacity:1;fill-rule:nonzero;stroke:none"
               id="path41277" /></g></g></g></g><g
       id="g41285"><g
         id="g41287" /><g
         id="g41299"><g
           clip-path="url(#clipPath41291-0)"
           opacity="0.5"
           id="g41297"><g
             id="g41295"><path
               d="M 11.309,11.504 11.5,11.312 9.191,9.004 9,9.199 Z"
               style="fill:#ffffff;fill-opacity:1;fill-rule:nonzero;stroke:none"
               id="path41293" /></g></g></g></g><path
       d="M 9.543,9 C 9.543,9.301 9.301,9.543 9,9.543 8.699,9.543 8.457,9.301 8.457,9 8.457,8.699 8.699,8.457 9,8.457 9.301,8.457 9.543,8.699 9.543,9 Z"
       style="fill:#ffffff;fill-opacity:1;fill-rule:nonzero;stroke:none"
       id="path41301" /></g></svg>
