<?xml version="1.0" encoding="UTF-8" standalone="no"?>
<svg
   width="24"
   height="24"
   version="1.1"
   id="svg413"
   sodipodi:docname="tools-check-spelling.svg"
   xml:space="preserve"
   inkscape:version="1.2.2 (b0a8486541, 2022-12-01)"
   inkscape:export-filename="tools-check-spelling.svg"
   inkscape:export-xdpi="800"
   inkscape:export-ydpi="800"
   xmlns:inkscape="http://www.inkscape.org/namespaces/inkscape"
   xmlns:sodipodi="http://sodipodi.sourceforge.net/DTD/sodipodi-0.dtd"
   xmlns="http://www.w3.org/2000/svg"
   xmlns:svg="http://www.w3.org/2000/svg"><defs
     id="defs417"><radialGradient
       fx="0"
       fy="0"
       cx="0"
       cy="0"
       r="1"
       gradientUnits="userSpaceOnUse"
       gradientTransform="matrix(0,22.000002,-22.000002,0,11.999545,0.999926)"
       spreadMethod="pad"
       id="radialGradient12763-3"><stop
         style="stop-color:#f7f7f7;stop-opacity:1;"
         offset="0"
         id="stop12759-6" /><stop
         style="stop-color:#aaaaaa;stop-opacity:1;"
         offset="1"
         id="stop12761-7" /></radialGradient><radialGradient
       fx="0"
       fy="0"
       cx="0"
       cy="0"
       r="1"
       gradientUnits="userSpaceOnUse"
       gradientTransform="matrix(0,16.500002,-16.500002,0,8.999659,0.749945)"
       spreadMethod="pad"
       id="radialGradient4299"><stop
         style="stop-opacity:1;stop-color:#f7f7f7"
         offset="0"
         id="stop4295" /><stop
         style="stop-opacity:1;stop-color:#aaaaaa"
         offset="1"
         id="stop4297" /></radialGradient><radialGradient
       fx="0"
       fy="0"
       cx="0"
       cy="0"
       r="1"
       gradientUnits="userSpaceOnUse"
       gradientTransform="matrix(0,16.500002,-16.500002,0,8.999659,0.749945)"
       spreadMethod="pad"
       id="radialGradient4299-3"><stop
         style="stop-opacity:1;stop-color:#f7f7f7"
         offset="0"
         id="stop4295-6" /><stop
         style="stop-opacity:1;stop-color:#aaaaaa"
         offset="1"
         id="stop4297-7" /></radialGradient></defs><sodipodi:namedview
     id="namedview415"
     pagecolor="#ffffff"
     bordercolor="#000000"
     borderopacity="0.25"
     inkscape:showpageshadow="2"
     inkscape:pageopacity="0.0"
     inkscape:pagecheckerboard="0"
     inkscape:deskcolor="#d1d1d1"
     showgrid="false"
     inkscape:zoom="8"
     inkscape:cx="-62.5"
     inkscape:cy="3.5"
     inkscape:window-width="2560"
     inkscape:window-height="998"
     inkscape:window-x="1680"
     inkscape:window-y="0"
     inkscape:window-maximized="1"
     inkscape:current-layer="svg413" /><g
     id="g4586"
     transform="translate(38.75,-5.7500002)"><g
       id="g4283"
       transform="matrix(1.3333333,0,0,1.3333333,-38.750452,5.749274)"><g
         id="g4285"><g
           id="g4287"><g
             id="g4293"><path
               d="m 7.195,0.836 c 0.09,0 0.176,-0.012 0.258,-0.035 1.078,-0.071 2.156,-0.067 3.231,0.008 0.976,0.078 1.921,0.289 2.836,0.636 1.519,0.625 2.558,1.711 3.121,3.254 0.316,0.93 0.507,1.887 0.566,2.867 0.078,1.235 0.051,2.465 -0.086,3.696 -0.105,0.863 -0.328,1.691 -0.672,2.488 -0.637,1.383 -1.672,2.336 -3.101,2.859 C 12.191,17 11,17.207 9.773,17.227 8.398,17.301 7.035,17.195 5.684,16.918 3.203,16.367 1.668,14.852 1.09,12.375 0.844,11.262 0.73,10.133 0.754,8.992 0.727,7.777 0.855,6.582 1.141,5.402 1.75,3.09 3.219,1.656 5.547,1.102 6.09,0.969 6.641,0.879 7.195,0.836 Z"
               style="fill:url(#radialGradient4299-3);fill-rule:evenodd;stroke:none"
               id="path4301" /></g></g></g><path
         d="m 8.453,3.75 -3.836,8.754 h 1.188 l 1.043,-2.387 h 4.312 l 1.012,2.387 h 1.199 L 9.648,3.75 Z m 0.598,1.059 c 0.097,0.296 0.621,1.656 1.57,4.07 L 10.82,9.32 H 7.191 Z"
         style="fill:#000000;fill-opacity:1;fill-rule:nonzero;stroke:none"
         id="path4303" /><path
         d="M 3.746,13.375 H 14.254 V 14.25 H 3.746 Z"
         style="fill:#2ecc71;fill-opacity:1;fill-rule:nonzero;stroke:none"
         id="path4305" /><path
         d="m 13.812,8.547 c -1.683,0 -3.296,0.672 -4.488,1.863 -1.191,1.188 -1.859,2.805 -1.859,4.488 0,0.793 0.148,1.582 0.441,2.321 0.617,0.039 1.242,0.043 1.867,0.008 1.227,-0.02 2.418,-0.227 3.575,-0.618 1.429,-0.523 2.464,-1.476 3.101,-2.859 0.344,-0.797 0.567,-1.625 0.672,-2.488 0.063,-0.571 0.102,-1.141 0.117,-1.711 C 16.219,8.898 15.027,8.547 13.812,8.547 Z"
         style="fill:#2cc36c;fill-opacity:1;fill-rule:nonzero;stroke:none"
         id="path4307" /><path
         d="m 16.172,12.043 -3.613,3.613 -1.551,-1.551 -1.035,1.036 1.875,1.875 c 0.507,-0.102 1.007,-0.231 1.504,-0.399 0.187,-0.07 0.367,-0.144 0.539,-0.226 l 2.496,-2.496 c 0.019,-0.047 0.043,-0.09 0.066,-0.137 0.149,-0.348 0.274,-0.699 0.375,-1.059 z"
         style="fill:#fcfcfc;fill-opacity:1;fill-rule:evenodd;stroke:none"
         id="path4309" /></g></g></svg>
