<svg width="24" height="24" viewBox="0 0 24 24" fill="none" xmlns="http://www.w3.org/2000/svg">
<rect x="1" y="1" width="22" height="22" rx="6.6" fill="url(#paint0_linear_35_12)"/>
<g opacity="0.3">
<path opacity="0.5" d="M5.80587 11.4025V20.3677H17.0993V11.4025H5.80587Z" fill="#181818"/>
<path d="M7.03935 7.468C6.62004 7.468 6.20493 8.00494 5.80596 8.46511C5.40699 8.92528 4.7993 9.68096 4.85338 10.2652L5.75848 20.0455C5.82503 20.7646 6.32207 21.35 7.02173 21.35H15.8783C16.5779 21.35 17.075 20.7646 17.1415 20.0455L18.0466 10.2652C18.1007 9.68096 17.4931 8.92524 17.094 8.46511C16.695 8.00498 16.2799 7.468 15.8607 7.468H14.5262H14.3331H7.03935ZM7.87653 8.19517H14.3331H14.5262H15.0234C15.3943 8.19517 15.7394 8.3396 16.0029 8.65625L16.6792 9.48622C17.0035 9.93317 17.094 10.187 17.094 10.6544H5.80587C5.80587 10.1871 5.89645 9.93322 6.22078 9.48622L6.89703 8.65625C7.16049 8.33962 7.50558 8.19518 7.87653 8.19517ZM5.80583 11.4026H17.094L16.1889 20.3673H6.71089L5.80583 11.4026Z" fill="#181818"/>
<path d="M15.6605 9.87931C15.9053 9.87931 16.1038 9.66969 16.1038 9.41112C16.1038 9.15254 15.9053 8.94292 15.6605 8.94292C15.4156 8.94292 15.2171 9.15254 15.2171 9.41112C15.2171 9.66969 15.4156 9.87931 15.6605 9.87931Z" fill="#181818"/>
<path d="M14.9848 9.40345C14.9848 9.20008 14.8297 9.03632 14.6372 9.03632H8.2628C8.07023 9.03632 7.91525 9.20008 7.91525 9.40345C7.91525 9.60681 8.07023 9.77049 8.2628 9.77049H14.6372C14.8297 9.77049 14.9848 9.60681 14.9848 9.40345Z" fill="#181818"/>
<path d="M11.5488 18.3577L11.1106 17.8744L11.5268 17.4549L11.9429 17.0354L11.9716 17.2392C11.9874 17.3513 12.0066 17.4537 12.0143 17.4668C12.0219 17.4799 12.1563 17.4902 12.3128 17.4897C12.7954 17.4882 13.1505 17.3917 13.2713 17.2295C13.363 17.1064 13.3394 17.0075 13.1065 16.5372C12.9048 16.1298 12.8936 16.0988 12.9348 16.0608C12.9993 16.0014 13.18 15.8852 13.41 15.7551L13.6121 15.6408L13.86 16.1293C14.115 16.6317 14.1463 16.7177 14.1752 16.9937C14.2274 17.4932 13.9485 17.9806 13.4697 18.2264C13.3075 18.3097 13.2457 18.3253 12.9789 18.3505C12.8111 18.3664 12.5387 18.3774 12.3736 18.3751C12.2085 18.3728 12.0673 18.3773 12.0599 18.3852C12.0524 18.393 12.033 18.4988 12.0166 18.6202L11.9869 18.841L11.5488 18.3577ZM10.0923 18.3497C9.72482 18.3337 9.65106 18.3226 9.49919 18.2607C9.13797 18.1135 8.90601 17.8711 8.79235 17.5223C8.72947 17.3292 8.70422 16.9781 8.7404 16.7999C8.77332 16.6378 9.0787 15.9571 9.21192 15.7488C9.26248 15.6697 9.30384 15.5946 9.30384 15.5818C9.30384 15.569 9.22775 15.4977 9.13474 15.4233C9.04173 15.349 8.97191 15.2881 8.97958 15.2881C8.98726 15.2881 9.25986 15.2156 9.58538 15.1271C9.91089 15.0385 10.1839 14.9728 10.192 14.9812C10.206 14.9956 10.4711 16.1477 10.4604 16.1477C10.4576 16.1477 10.3716 16.1112 10.2692 16.0666C10.1668 16.022 10.0743 15.9948 10.0636 16.0062C10.0053 16.068 9.77616 16.5115 9.71197 16.6866C9.61374 16.9546 9.59249 17.1282 9.6425 17.2546C9.7091 17.423 9.75491 17.4381 10.271 17.4617C10.622 17.4778 10.7386 17.4919 10.7557 17.5203C10.7681 17.5409 10.7784 17.7421 10.7786 17.9674L10.779 18.3771L10.6455 18.3725C10.5721 18.37 10.3231 18.3598 10.0923 18.3497ZM12.5616 15.3448L12.0172 15.1692L12.1144 15.0876C12.1679 15.0428 12.2413 14.9796 12.2774 14.9473L12.3431 14.8884L12.2671 14.7324C12.094 14.3771 11.8348 14.0288 11.6596 13.9159C11.5664 13.8559 11.3966 13.8487 11.3248 13.9018C11.2971 13.9224 11.1658 14.1216 11.033 14.3445C10.9003 14.5675 10.7771 14.7502 10.7592 14.7504C10.6996 14.7514 10.1523 14.4322 10.0473 14.3354C10.0435 14.3319 10.1675 14.116 10.3228 13.8555C10.6333 13.3349 10.7559 13.1943 11.019 13.0576C11.2366 12.9444 11.4682 12.9048 11.6836 12.9437C11.8647 12.9765 12.1544 13.1115 12.3195 13.2401C12.4369 13.3315 12.8538 13.9659 12.9732 14.2347C13.057 14.4236 13.037 14.4193 13.3032 14.3064C13.3836 14.2723 13.4498 14.2526 13.4502 14.2626C13.4514 14.2973 13.1354 15.4896 13.1208 15.505C13.1127 15.5135 12.8611 15.4413 12.5616 15.3448Z" fill="url(#paint1_linear_35_12)"/>
</g>
<path opacity="0.5" d="M6.35587 10.8525V19.8177H17.6493V10.8525H6.35587Z" fill="#656D78"/>
<path d="M7.58935 6.918C7.17004 6.918 6.75493 7.45495 6.35596 7.91511C5.95699 8.37528 5.3493 9.13096 5.40338 9.71524L6.30848 19.4955C6.37503 20.2146 6.87207 20.8 7.57173 20.8H16.4283C17.1279 20.8 17.625 20.2146 17.6915 19.4955L18.5966 9.71524C18.6507 9.13096 18.0431 8.37524 17.644 7.91511C17.245 7.45498 16.8299 6.918 16.4107 6.918H15.0762H14.8831H7.58935ZM8.42653 7.64517H14.8831H15.0762H15.5734C15.9443 7.64517 16.2894 7.7896 16.5529 8.10625L17.2292 8.93622C17.5535 9.38317 17.644 9.63704 17.644 10.1044H6.35587C6.35587 9.63709 6.44645 9.38322 6.77078 8.93622L7.44703 8.10625C7.71049 7.78962 8.05558 7.64518 8.42653 7.64517ZM6.35582 10.8526H17.644L16.7389 19.8173H7.26089L6.35582 10.8526Z" fill="white"/>
<path d="M16.2105 9.32932C16.4553 9.32932 16.6538 9.1197 16.6538 8.86112C16.6538 8.60254 16.4553 8.39292 16.2105 8.39292C15.9656 8.39292 15.7671 8.60254 15.7671 8.86112C15.7671 9.1197 15.9656 9.32932 16.2105 9.32932Z" fill="#93D7F5"/>
<path d="M15.5348 8.85345C15.5348 8.65008 15.3797 8.48632 15.1872 8.48632H8.81279C8.62023 8.48632 8.46525 8.65008 8.46525 8.85345C8.46525 9.05681 8.62023 9.22049 8.81279 9.22049H15.1872C15.3797 9.22049 15.5348 9.05681 15.5348 8.85345Z" fill="white"/>
<path d="M12.0988 17.8077L11.6606 17.3244L12.0768 16.9049L12.4929 16.4854L12.5216 16.6892C12.5374 16.8013 12.5566 16.9037 12.5643 16.9168C12.5719 16.9299 12.7063 16.9402 12.8628 16.9397C13.3454 16.9382 13.7005 16.8417 13.8213 16.6795C13.913 16.5564 13.8894 16.4575 13.6565 15.9872C13.4548 15.5798 13.4436 15.5488 13.4848 15.5108C13.5493 15.4514 13.73 15.3352 13.96 15.2051L14.1621 15.0908L14.41 15.5793C14.665 16.0817 14.6963 16.1677 14.7252 16.4437C14.7774 16.9432 14.4985 17.4306 14.0197 17.6764C13.8575 17.7597 13.7957 17.7753 13.5289 17.8005C13.3611 17.8164 13.0887 17.8274 12.9236 17.8251C12.7585 17.8228 12.6173 17.8273 12.6099 17.8352C12.6024 17.843 12.583 17.9488 12.5666 18.0702L12.5369 18.291L12.0988 17.8077ZM10.6423 17.7997C10.2748 17.7837 10.2011 17.7726 10.0492 17.7107C9.68797 17.5635 9.45601 17.3211 9.34235 16.9723C9.27947 16.7792 9.25422 16.4281 9.2904 16.2499C9.32331 16.0878 9.6287 15.4071 9.76192 15.1988C9.81248 15.1197 9.85384 15.0446 9.85384 15.0318C9.85384 15.019 9.77775 14.9477 9.68474 14.8733C9.59173 14.799 9.52191 14.7381 9.52958 14.7381C9.53726 14.7381 9.80986 14.6656 10.1354 14.5771C10.4609 14.4885 10.7339 14.4228 10.742 14.4312C10.756 14.4456 11.0211 15.5977 11.0104 15.5977C11.0076 15.5977 10.9216 15.5612 10.8192 15.5166C10.7168 15.472 10.6243 15.4448 10.6136 15.4562C10.5553 15.518 10.3262 15.9615 10.262 16.1366C10.1637 16.4046 10.1425 16.5782 10.1925 16.7046C10.2591 16.873 10.3049 16.8881 10.821 16.9117C11.172 16.9278 11.2886 16.9419 11.3057 16.9703C11.3181 16.9909 11.3284 17.1921 11.3286 17.4174L11.329 17.8271L11.1955 17.8225C11.1221 17.82 10.8731 17.8098 10.6423 17.7997ZM13.1116 14.7948L12.5672 14.6192L12.6644 14.5376C12.7179 14.4928 12.7913 14.4296 12.8274 14.3973L12.8931 14.3384L12.8171 14.1824C12.644 13.8271 12.3848 13.4788 12.2096 13.3659C12.1164 13.3059 11.9466 13.2987 11.8748 13.3518C11.8471 13.3724 11.7158 13.5716 11.583 13.7945C11.4503 14.0175 11.3271 14.2002 11.3092 14.2004C11.2496 14.2014 10.7023 13.8822 10.5973 13.7854C10.5935 13.7819 10.7175 13.566 10.8728 13.3055C11.1833 12.7849 11.3059 12.6443 11.569 12.5076C11.7866 12.3944 12.0182 12.3548 12.2336 12.3937C12.4147 12.4265 12.7044 12.5615 12.8695 12.6901C12.9869 12.7815 13.4038 13.4159 13.5232 13.6847C13.607 13.8736 13.587 13.8693 13.8532 13.7564C13.9336 13.7223 13.9998 13.7026 14.0002 13.7126C14.0014 13.7473 13.6853 14.9396 13.6708 14.955C13.6627 14.9635 13.4111 14.8913 13.1116 14.7948Z" fill="url(#paint2_linear_35_12)"/>
<defs>
<linearGradient id="paint0_linear_35_12" x1="23" y1="0.999999" x2="1" y2="12" gradientUnits="userSpaceOnUse">
<stop stop-color="#777777"/>
<stop offset="1" stop-color="#333333"/>
</linearGradient>
<linearGradient id="paint1_linear_35_12" x1="12.55" y1="13.65" x2="9.25" y2="18.05" gradientUnits="userSpaceOnUse">
<stop stop-color="#181818"/>
<stop offset="1" stop-color="#181818"/>
</linearGradient>
<linearGradient id="paint2_linear_35_12" x1="13.1" y1="13.1" x2="9.8" y2="17.5" gradientUnits="userSpaceOnUse">
<stop stop-color="#84FAA1"/>
<stop offset="1" stop-color="#33C478"/>
</linearGradient>
</defs>
</svg>
