<svg xmlns="http://www.w3.org/2000/svg" width="24" height="24" fill="none"><path fill="#fff" d="M16.532 1.005H7.468a6.48 6.48 0 0 0-6.48 6.48v9.03a6.48 6.48 0 0 0 6.48 6.48h9.064a6.48 6.48 0 0 0 6.48-6.48v-9.03a6.48 6.48 0 0 0-6.48-6.48Z" opacity=".3"/><path fill="#fff" d="M16.657 10.286H7.343a6.355 6.355 0 0 0 0 12.709h9.314a6.355 6.355 0 0 0 0-12.71Z" opacity=".05"/><path fill="url(#a)" d="m12.095 20.43-.44-.485.418-.416.416-.423.027.204c.016.115.036.213.047.23.005.009.14.02.297.02.484 0 .839-.1.959-.26.093-.12.066-.22-.167-.694-.199-.405-.215-.437-.172-.473.067-.058.244-.178.479-.307l.197-.115.25.49c.255.505.287.588.318.864.052.5-.23.989-.708 1.234-.161.084-.224.099-.49.126a6.148 6.148 0 0 1-.603.02c-.167 0-.308.005-.32.01-.004.011-.024.115-.04.235l-.031.224zm-1.454-.01c-.37-.017-.442-.027-.594-.09a1.153 1.153 0 0 1-.708-.733 1.83 1.83 0 0 1-.052-.724c.032-.162.338-.844.474-1.052.047-.079.088-.158.088-.167 0-.016-.073-.084-.166-.157-.094-.078-.167-.135-.156-.135.005 0 .28-.073.604-.161.328-.09.598-.156.609-.147.01.01.276 1.167.265 1.167 0 0-.088-.036-.186-.083-.106-.047-.2-.073-.21-.063-.057.063-.286.506-.348.683-.1.27-.12.443-.073.568.068.167.115.181.63.208.349.015.469.03.485.057.01.02.02.224.02.448v.411l-.13-.005c-.073-.006-.322-.015-.552-.026zm2.468-3.006-.546-.172.098-.083c.052-.048.126-.109.162-.141l.068-.057-.078-.156c-.172-.355-.433-.703-.604-.818-.094-.057-.266-.068-.338-.016a4.56 4.56 0 0 0-.292.443c-.131.224-.256.407-.271.407-.063.005-.61-.319-.713-.412a6.885 6.885 0 0 1 .276-.484c.306-.516.432-.656.697-.798.213-.109.448-.15.661-.114.183.037.475.172.636.297.12.093.536.73.656.995.083.192.063.188.328.073.083-.032.146-.052.146-.043.005.032-.312 1.224-.328 1.24-.006.011-.26-.062-.558-.161z" style="fill:url(#a)"/><path fill="url(#b)" d="M16.532 1.005H7.468c-3.579 0-6.48 2.627-6.48 5.868 0 3.241 2.901 5.869 6.48 5.869h9.064c3.579 0 6.48-2.628 6.48-5.869 0-3.24-2.901-5.868-6.48-5.868Z"/><path fill="#2A2C3E" d="M20.621 6.497H3.38a.377.377 0 1 0 0 .753H20.62a.377.377 0 0 0 0-.753Z"/><path fill="#2A2C3E" d="M12 11.708a1.687 1.687 0 1 0 0-3.374 1.687 1.687 0 0 0 0 3.374Z" opacity=".99"/><path fill="#62B84C" d="M12 8.916a1.106 1.106 0 1 0 0 2.21 1.106 1.106 0 0 0 0-2.21Zm0 .17a.936.936 0 1 1-.002 1.872A.936.936 0 0 1 12 9.085Z" opacity=".99"/><path fill="#62B84C" d="M12.184 8.824a.184.184 0 0 0-.368 0V9.85a.184.184 0 0 0 .368 0V8.824Z" opacity=".99"/><defs><linearGradient id="a" x1="6.826" x2="3.526" y1="15.721" y2="20.121" gradientTransform="translate(6.27)" gradientUnits="userSpaceOnUse"><stop stop-color="#84FAA1"/><stop offset="1" stop-color="#33C478"/></linearGradient><linearGradient id="b" x1="22.988" x2="1.012" y1="1.123" y2="12.498" gradientUnits="userSpaceOnUse"><stop stop-color="#4C4F62"/><stop offset="1" stop-color="#313340"/></linearGradient></defs><circle cx="19.001" cy="4.498" r=".75" style="fill:#62b84c;fill-opacity:1;stroke-width:.05;stroke-linecap:round;stroke-linejoin:round;paint-order:stroke markers fill"/></svg>