<svg width="24" height="24" fill="none" version="1.1" xmlns="http://www.w3.org/2000/svg">
 <g transform="matrix(1.1982 0 0 1.1982 -2.3785 -2.3785)" fill-rule="evenodd">
  <path d="m9.1465 3.074c-0.42302 0.0033524-0.63184 0.51557-0.33174 0.81372l0.84348 0.84199c-0.92466 0.60465-1.5789 1.5442-1.8253 2.6212h8.3336c-0.27408-1.1941-1.0462-2.2137-2.1213-2.8012l0.66199-0.66199c0.30728-0.29605 0.09644-0.81555-0.33025-0.81372-0.12829-0.0022-0.25132 0.050907-0.33769 0.14579l-0.94761 0.94612c-0.84077-0.21847-1.7279-0.17802-2.5453 0.11603l-1.0622-1.0622c-0.086373-0.094878-0.2094-0.14799-0.33769-0.14579m1.4296 2.3772c0.26182 0 0.47008 0.21422 0.47008 0.47604 0 0.63075-0.94612 0.63075-0.94612 0 0-0.26182 0.20827-0.47604 0.47604-0.47604m2.8473 0c0.26777 0 0.47604 0.21422 0.47604 0.47604 0 0.63075-0.94612 0.63075-0.94612 0 0-0.26182 0.20827-0.47604 0.47008-0.47604m-7.6002 2.8532c-0.5264-8.225e-4 -0.95356 0.42568-0.95356 0.95207v3.3248c0 1.2665 1.8997 1.2665 1.8997 0v-3.3248c0.002471-0.52451-0.42161-0.95125-0.94612-0.95207m1.8997 0v6.6526c0 0.79141 0.63372 1.4296 1.4236 1.4296h5.7065c0.78859 7e-6 1.4269-0.64102 1.4236-1.4296v-6.6526zm10.453 0c-0.52452 8.176e-4 -0.94859 0.42756-0.94612 0.95207v3.3248c0 1.2665 1.8997 1.2665 1.8997 0v-3.3248c0-0.5264-0.42716-0.95289-0.95356-0.95207" style="fill-rule:nonzero;fill:#6cb240;stroke-width:1.4876"/>
  <path d="m9.9483 20.925h4.1028c0.13388 0 0.24397-0.11008 0.24397-0.24397v-4.1028a0.24546 0.24546 0 0 0-0.24397-0.24397h-4.1028a0.24546 0.24546 0 0 0-0.24397 0.24397v4.1028c0 0.13388 0.11008 0.24397 0.24397 0.24397" style="fill-rule:nonzero;fill:#dce2e9;stroke-width:1.4876"/>
  <path d="m10.506 18.694v0.60397a0.10413 0.10413 0 0 0 0.10413 0.10562h0.60546a0.10413 0.10413 0 0 0 0.10413-0.10562v-0.60397a0.10413 0.10413 0 0 0-0.10413-0.10413h-0.60546a0.10413 0.10413 0 0 0-0.10413 0.10413m2.1451 0v0.60397a0.10413 0.10413 0 0 0 0.10413 0.10562h0.60992c0.05206 0 0.09818-0.04761 0.09818-0.10562v-0.60397c0-0.05802-0.04612-0.10413-0.09818-0.10413h-0.60992a0.10413 0.10413 0 0 0-0.10413 0.10413" style="fill-rule:nonzero;fill:#5a6271;stroke-width:1.4876"/>
  <path d="m12.924 12.86h-0.47604v-0.47604h0.1443v-0.42992l-0.5162-0.51769v1.6274h0.24992l-0.34364 0.59207-0.34215-0.59207h0.24992v-2.1853l-0.47752 0.47604v0.43587c0.28562 0.10562 0.20975 0.52959-0.09223 0.52959-0.30199 0-0.37785-0.42397-0.09372-0.52959v-0.51025l0.66348-0.66348v-0.22612c-0.50579-0.11603-0.42397-0.85984 0.09223-0.85984 0.51769 0 0.59951 0.74381 0.09372 0.85984v0.78397l0.70215 0.70364v0.50579h0.14579z" style="fill-rule:nonzero;fill:#ffffff;stroke-width:1.4876"/>
 </g>
</svg>
